<svg xmlns="http://www.w3.org/2000/svg" xmlns:xlink="http://www.w3.org/1999/xlink" viewBox="0 0 113.76 302.96">
  <defs>
    <linearGradient id="linear-gradient" x1="85.74" y1="268.23" x2="70.34" y2="143" gradientUnits="userSpaceOnUse">
      <stop offset="0" stop-color="#8e0000"/>
      <stop offset="1" stop-color="#42210b"/>
    </linearGradient>
    <linearGradient id="linear-gradient-2" x1="37.54" y1="283.53" x2="63.43" y2="173.69" gradientUnits="userSpaceOnUse">
      <stop offset="0" stop-color="#0071bc"/>
      <stop offset="1" stop-color="#2e3192"/>
    </linearGradient>
    <linearGradient id="linear-gradient-3" x1="90.41" y1="117.13" x2="93.21" y2="21.28" gradientUnits="userSpaceOnUse">
      <stop offset="0" stop-color="#e5e500"/>
      <stop offset="1" stop-color="#ed1c24"/>
    </linearGradient>
    <linearGradient id="linear-gradient-4" x1="97.31" y1="43.01" x2="44.84" y2="138.85" gradientUnits="userSpaceOnUse">
      <stop offset="0" stop-color="#0c8"/>
      <stop offset="1" stop-color="#009245"/>
    </linearGradient>
    <linearGradient id="linear-gradient-5" x1="37.71" y1="126.14" x2="86.69" y2="20.5" gradientUnits="userSpaceOnUse">
      <stop offset="0" stop-color="#d320ed"/>
      <stop offset="1" stop-color="#662d91"/>
    </linearGradient>
    <linearGradient id="linear-gradient-6" x1="107.75" y1="57.43" x2="70.67" y2="13.35" gradientUnits="userSpaceOnUse">
      <stop offset="0" stop-color="#179b00"/>
      <stop offset="1" stop-color="lime"/>
    </linearGradient>
    <linearGradient id="linear-gradient-7" x1="32.08" y1="39.39" x2="26.81" y2="17.04" gradientUnits="userSpaceOnUse">
      <stop offset="0" stop-color="#0071bc"/>
      <stop offset="1" stop-color="#d4145a"/>
    </linearGradient>
  </defs>
  <title>bend1</title>
  <g id="Layer_2" data-name="Layer 2">
    <g id="bend1">
      <path id="leftLeg" d="M107.14,218.67C104.71,190.86,87.8,168,80,141.85c-1.45-4.84-7.75-4.24-9.45-.75a5.73,5.73,0,0,0-2-.38c-2.36-5.42-11.41-2.8-9.45,3.16q7.52,22.78,15,45.56c2,6.19,4.09,12.47,5,18.93L77,216.66a4.14,4.14,0,0,0-1.37,2.39Q74.33,225.5,73,231.94q-1.11,4.2-2.2,8.4a5.09,5.09,0,0,0,0,2.62Q66,266.51,61.2,290.07a5,5,0,0,0,9.64,2.66q6.57-18.56,14.92-36.39Q89.69,248,94,239.81q2.38-4.49,4.87-8.92c.75-1.34,1.52-2.68,2.29-4,.52-.92,3-3.36,1-3.21C104.65,223.48,107.39,221.53,107.14,218.67Z" fill="url(#linear-gradient)"/>
      <path id="rightLeg" d="M87.79,218.75c1.4-3.58.55-6.38-1-9.83-1.31-2.86-2.66-5.71-4-8.55q-6.08-22.11-12.16-44.2c-.09-.12-.19-.23-.28-.36a104.33,104.33,0,0,1-9.64-19c-.55.09-1.08.18-1.55.24-4.45.5-9,.37-13.13,1.62a12.8,12.8,0,0,1-.31-1.87c-.58-6.31-10.4-6.48-10,0A59.67,59.67,0,0,0,37.6,149a22.67,22.67,0,0,0,.77,6.4c1.1,3.83,3.64,7,5.11,10.64a6.12,6.12,0,0,0,1.15,1.86q1.56,7.29,3.14,14.59l-.05.1c.06.18.12.37.19.55l.05.25a5.2,5.2,0,0,0,.53,1.44,60.6,60.6,0,0,1,2.52,10c1.18,7.41,2.49,14.91,3.43,22.35a14.65,14.65,0,0,1-.93,7.55c0,.27,0,.53.07.79l-1,1.13a23.61,23.61,0,0,1-4.1,5.06l-.08.07c-3.53,6.24-8.72,11.19-13.13,16.8-5.33,6.77-9.34,14.5-14.25,21.57-4.54,6.52-10.62,11.7-15.23,18.1-2.07,2.87-3.88,5.88-5.78,8.82a5.64,5.64,0,0,0,2.67,2.05A5.17,5.17,0,0,0,10,302.34a99.47,99.47,0,0,0,11.71-7.44,4.28,4.28,0,0,0,4.5-1.36l8.34-9.4c3-2.63,6.31-5.05,9.22-7.75a103.29,103.29,0,0,0,15.68-18.77,4.67,4.67,0,0,0,.83-2.47l.21-.23a5.5,5.5,0,0,0,2.78.64C71.12,244.4,80.07,234.06,88,223a6.49,6.49,0,0,1,.72-.82C88.42,221,88.11,219.88,87.79,218.75Z" fill="url(#linear-gradient-2)"/>
      <path id="leftArm" d="M105.38,122.78a83.4,83.4,0,0,1-12.65-17.69,4.6,4.6,0,0,0-5.17-2.26,21.74,21.74,0,0,0-2.11-2.07q8.49-17.85,16.45-35.94c.07-.17.12-.36.18-.54l3.79-7.08c3-5.67-5.59-10.72-8.63-5l-3.77,7c-3.38,2.93-4.9,6.8-5.92,11.31a4.85,4.85,0,0,0,0,2.11Q84,80.46,80.34,88.26a4.25,4.25,0,0,0-3.86,3.59l-2.07,9.06a4.8,4.8,0,0,0,.1,2.45c-.12.69-.23,1.37-.35,2.06a5.17,5.17,0,0,0,6.1,6.12,5.57,5.57,0,0,0,.58,1.74A64.5,64.5,0,0,0,93,129.64a4.88,4.88,0,0,0,5.88.73C103.47,133.8,109.59,127.27,105.38,122.78Z" fill="url(#linear-gradient-3)"/>
      <path id="torso" d="M95.34,90.35a4.84,4.84,0,0,0-1.27-1.15c.43-1,.86-2,1.28-3a136.45,136.45,0,0,0,7.7-12,108.64,108.64,0,0,1-4.22-26.44,4.21,4.21,0,0,0-3.19,1.62Q92.34,53.19,89,57a5.77,5.77,0,0,0-6.3-1.75c-2.08-4.73-3.74-9.66-5.5-14.6-4.09,2.79-7.31,6.93-10.91,10.3l-2.78,2.6c-2.56,6.36-5.64,12.55-8.83,18.67C53,86.91,44.44,99.32,39.75,113.08l-.06,2.37c-.4.52-.79,1-1.16,1.59a53.58,53.58,0,0,0-1.19,5.23,4.1,4.1,0,0,1-1.89,2.91c0,.24,0,.48,0,.72a5.14,5.14,0,0,0,3.81,4.73l-.09,3.17a4.6,4.6,0,0,1,3.62,1.45c2.42,2.39,5.18,5.14,8.72,5.57a7.78,7.78,0,0,0,1.67,0c-2.32,4.34,3.87,9.72,8.1,5.73l7.43-7a5.29,5.29,0,0,0,4.15-.64C77,121.42,87,106.12,95.34,90.35Z" fill="url(#linear-gradient-4)"/>
      <path id="rightArm" d="M55,72.7l9.33-9.78c3.11-3.25,6.3-6.44,9.33-9.77,2.19-2.41,4.2-5.1,2.89-8.54-.77-2-2.5-3.77-4.82-3.67l-.55,0h-.06a5.15,5.15,0,0,0-5.27.79Q55.79,49.85,46.05,58.3C44,60,42,61.82,40,63.66a4.58,4.58,0,0,0-1.53,2.75c-1.34,1.49-2.59,3-3.79,4.65l-.09-.1c-2.11,4.71-4.38,9.33-6.15,14.19a5.12,5.12,0,0,0,1.38,3.41c.66.73,1.3,1.47,1.94,2.21a4.56,4.56,0,0,1,2.19,2.53c4.29,5,8.35,10.27,12.13,15.73a5.07,5.07,0,0,0,3.43,2.15A140.2,140.2,0,0,1,56,127.52c2,6.07,11.47,3.56,9.64-2.66C61,109,55.59,93.42,50.14,77.84A61.55,61.55,0,0,1,55,72.7Z" fill="url(#linear-gradient-5)"/>
      <path id="head" d="M112.39,29.79l-.18-.21a5.09,5.09,0,0,0-1.2-3.44c-2.91-3.28-6.67-8-11.41-8.45a7,7,0,0,0-3.8.6c-5.44-2.79-11.29.55-15.68,4.28a4.1,4.1,0,0,0-1.2,5.18c-1,.3-2,.62-3,1,0-.56.07-1.1.13-1.64-3.37,4.64-9,8.27-14.55,10.57a22.27,22.27,0,0,0,6.36,1.83,5.18,5.18,0,0,0,.67.94c-.37,2.78,1.52,6.15,4.87,6.23.9,0,1.78,0,2.65,0a3.85,3.85,0,0,0,2.76.68c-.09,3.78.44,7.8,3.19,9.28,1.63,2.5,5.39,3.76,7.81,1.08,1.25-1.4,2.55-2.73,3.89-4,4.23-2.68,10.07-2.77,14-6.22S116,34.69,112.39,29.79Z" fill="url(#linear-gradient-6)"/>
      <path id="star" d="M23.85,55.67l-4.32-19L1.42,29.44l16.75-10L19.43,0,34.11,12.84,53,8,45.32,26,55.73,42.44,36.31,40.68Z" fill="url(#linear-gradient-7)"/>
    </g>
  </g>
</svg>
