<svg xmlns="http://www.w3.org/2000/svg" xmlns:xlink="http://www.w3.org/1999/xlink" viewBox="0 0 132.54 331.28">
  <defs>
    <linearGradient id="linear-gradient" x1="74.22" y1="168.03" x2="108.5" y2="328.94" gradientUnits="userSpaceOnUse">
      <stop offset="0" stop-color="#8e0000"/>
      <stop offset="1" stop-color="#42210b"/>
    </linearGradient>
    <linearGradient id="linear-gradient-2" x1="62.46" y1="164.64" x2="22.58" y2="310.86" gradientUnits="userSpaceOnUse">
      <stop offset="0" stop-color="#0071bc"/>
      <stop offset="1" stop-color="#2e3192"/>
    </linearGradient>
    <linearGradient id="linear-gradient-3" x1="75.74" y1="68.96" x2="151.3" y2="144.52" gradientUnits="userSpaceOnUse">
      <stop offset="0" stop-color="#e5e500"/>
      <stop offset="1" stop-color="#ed1c24"/>
    </linearGradient>
    <linearGradient id="linear-gradient-4" x1="65.69" y1="124.45" x2="42.6" y2="26.5" gradientUnits="userSpaceOnUse">
      <stop offset="0" stop-color="#0c8"/>
      <stop offset="1" stop-color="#009245"/>
    </linearGradient>
    <linearGradient id="linear-gradient-5" x1="39.16" y1="73.76" x2="7.68" y2="162.61" gradientUnits="userSpaceOnUse">
      <stop offset="0" stop-color="#d320ed"/>
      <stop offset="0.84" stop-color="#772ba0"/>
      <stop offset="1" stop-color="#662d91"/>
    </linearGradient>
    <linearGradient id="linear-gradient-6" x1="44.14" y1="39.39" x2="38.87" y2="17.04" gradientUnits="userSpaceOnUse">
      <stop offset="0" stop-color="#0071bc"/>
      <stop offset="1" stop-color="#d4145a"/>
    </linearGradient>
    <linearGradient id="linear-gradient-7" x1="31.75" y1="4.36" x2="54.14" y2="49.83" gradientUnits="userSpaceOnUse">
      <stop offset="0" stop-color="#179b00"/>
      <stop offset="1" stop-color="lime"/>
    </linearGradient>
  </defs>
  <g id="Layer_2" data-name="Layer 2">
    <g id="bend3">
      <path id="leftLeg" d="M111.13,240.17c-1.39-4.48-2.77-8.95-4.17-13.43-3.41-10.91-7.37-21.3-11.82-31.82-3.6-8.48-6.84-17.24-7.17-26.46-6.38-7.8-9.07-18.19-9.28-28.26-.87.48-1.77.93-2.69,1.34-1.14.64-2.26,1.31-3.37,2-2.5-2.29-7.67-1.52-8.38,2.29a74.38,74.38,0,0,0-1.17,19.53A5.25,5.25,0,0,0,66,169.61a27.76,27.76,0,0,0,.94,3.64c2.7,7.89,5.37,15.37,6.65,23.67a3.89,3.89,0,0,0,3.15,3.52,4.93,4.93,0,0,0,2,1.09q7.17,44.66,16.09,89a212.15,212.15,0,0,1-7.48,39.72c0,.07,0,.15,0,.23a5.17,5.17,0,0,1,2,.8A37.81,37.81,0,0,0,103,324.44c-.06-.18-.13-.37-.19-.56,8.34-18.39,4.52-40.17,6.59-60.25a5.2,5.2,0,0,0,0-1.25C110.18,255,110.79,247.56,111.13,240.17Z" fill="url(#linear-gradient)"/>
      <path id="rightLeg" d="M75.2,195.74c-5.52-15.29-10.56-31.84-9.45-48.28A5,5,0,0,1,70,142.73c-2.06-.45-4.13-.89-6.22-1.25a23.65,23.65,0,0,0-11.67.82h0c-3-2-7.71-.93-7.64,3.83,0,1.79,0,3.58-.1,5.36a4.9,4.9,0,0,0-.31,2.2c0,.42.07.83.1,1.25-.5,6.7-1.5,13.36-2.2,20a132.31,132.31,0,0,1,3.2,19.81,3.93,3.93,0,0,1,1.58,3.94c-.17,1.38-.36,2.76-.57,4.13a34.94,34.94,0,0,1-.91,10c0,3-.16,6-.47,9l.21,1.27c-.21.74-.42,1.47-.64,2.21a72.59,72.59,0,0,1-1.5,7.44,4.89,4.89,0,0,1-1.4,2.4c-.15.54-.31,1.08-.47,1.62-.27.93-.55,1.88-.83,2.82-.55,2.68-1.1,5.35-1.63,8a4.18,4.18,0,0,1-1.17,2.21,171.32,171.32,0,0,1-7.2,19.52c-7.68,17.48-19.87,32-30.14,47.79,0,7,2.43,12.5,10,11a30.29,30.29,0,0,0,6.13-5.23,5.44,5.44,0,0,0,1.21,0,4.76,4.76,0,0,0,5.3-1C39.14,305.53,49,282.26,57.47,261a317.54,317.54,0,0,0,15.36-50.86,109.13,109.13,0,0,0,2.91-13.31A5.36,5.36,0,0,1,75.2,195.74Z" fill="url(#linear-gradient-2)"/>
      <path id="leftArm" d="M92.14,101a4.3,4.3,0,0,1,3.77,1.57q3.93,4.35,8.25,8.27c8.4,5.5,17.26,10.31,25.2,16.48,2.56-1.06,4.29-3.92,2.34-6.89a64.64,64.64,0,0,0-8.94-10.83,4.7,4.7,0,0,0-1.39-4.18C112.57,97.68,103.71,90,95,82.24l-3-2.68A113.45,113.45,0,0,1,78.58,56.68C77,53.05,73,53.66,70.77,56A5,5,0,0,0,69.49,56c-.29-.29-.57-.59-.85-.88-4.53-4.59-11.6,2.48-7.07,7.07l1.11,1.17a5.52,5.52,0,0,0,.91,1.55L74.94,78.67c4.6,6.61,9.51,13,14.63,19.24C90.42,98.94,91.29,100,92.14,101Z" fill="url(#linear-gradient-3)"/>
      <path id="torso" d="M78.46,80.79Q71.68,70,65.51,59a33,33,0,0,0-2.89-6.71,5,5,0,0,0-4.32-2.48A31.83,31.83,0,0,0,40,56.42c-3.4-3.41-10,1.24-7.65,6.45A109.71,109.71,0,0,1,39.76,83a326.1,326.1,0,0,0,3.7,35,4,4,0,0,0,2.77,3.37v.11c0,2.74,0,5.58-.13,8.4q-1.22,5.49-2.63,10.93c-1,3.81,2.94,6.87,6.12,6.28a27.6,27.6,0,0,0,23.12,1.58A5.14,5.14,0,0,0,76,144.19l.06-.3a5.67,5.67,0,0,0,.64-3.75,45.79,45.79,0,0,0,.4-5l.38-.06c.1-9.56.5-19.14,2.3-28.54,1-5,3-9.82,4.82-14.66A60.72,60.72,0,0,1,78.46,80.79Z" fill="url(#linear-gradient-4)"/>
      <path id="rightArm" d="M26.65,137.82c1.94-4.53,4-9,5.76-13.62a4.56,4.56,0,0,1,.85-2.5c.41-1.68.85-3.35,1.36-5,2.1-6.87,6.63-14.08,6.61-21.37a5,5,0,0,1,.37-2,4.63,4.63,0,0,1-.64-.29,145.06,145.06,0,0,0,4.6-30.29c.18-3.82-4-5.65-7-4.61a5.27,5.27,0,0,0-1.93.66,5.59,5.59,0,0,0-3.09,1.82,4.2,4.2,0,0,0-.9,1c-2,3.27-2,6.71-1.85,10.44l0,.84a17.57,17.57,0,0,0-.58,3.23c-.31,3.53-.77,7-1.35,10.45a5.36,5.36,0,0,0-.57,1.46c-.34,1.43-.68,2.86-1,4.3a5.4,5.4,0,0,0,0,2.49q-.81,3.63-1.77,7.23a278.8,278.8,0,0,1-14.87,33.67,88.47,88.47,0,0,0-5.54,10.12A5.28,5.28,0,0,0,7.69,153c.08,4.73,6.84,7.88,9.11,2.79L24.72,138A5.43,5.43,0,0,0,26.65,137.82Z" fill="url(#linear-gradient-5)"/>
      <path id="star" d="M35.91,55.67l-4.32-19L13.48,29.44l16.74-10L31.49,0,46.16,12.84,65.06,8,57.38,26,67.79,42.44,48.37,40.68Z" fill="url(#linear-gradient-6)"/>
      <path id="head" d="M64.77,38.12c-5.19-5.52-11.37-9.78-12-17.91a4.16,4.16,0,0,1,1.1-3.11c-3.1-1.94-7.74-1-10.42,2a21.53,21.53,0,0,1-3.57,3.69,26.35,26.35,0,0,0-3.26,2.12,13,13,0,0,0-3.69,8.87q-.07,1.35,0,2.7a5.84,5.84,0,0,0-1,1.48,5.12,5.12,0,0,0,2.67,7.22,36.41,36.41,0,0,0,5,9.76c1.7,2.35,5.87,3.17,8,1.19,6.44.1,15.76-1,19.61-5.61a4.38,4.38,0,0,0,.52,0H69l3.61.63a6,6,0,0,0,1,.08C70.6,47,67.71,42.51,64.77,38.12Z" fill="url(#linear-gradient-7)"/>
    </g>
  </g>
</svg>
