<svg xmlns="http://www.w3.org/2000/svg" xmlns:xlink="http://www.w3.org/1999/xlink" viewBox="0 0 132.54 315.2">
  <defs>
    <linearGradient id="linear-gradient" x1="74.22" y1="151.95" x2="108.5" y2="312.86" gradientUnits="userSpaceOnUse">
      <stop offset="0" stop-color="#8e0000"/>
      <stop offset="1" stop-color="#42210b"/>
    </linearGradient>
    <linearGradient id="linear-gradient-2" x1="62.46" y1="148.56" x2="22.58" y2="294.78" gradientUnits="userSpaceOnUse">
      <stop offset="0" stop-color="#0071bc"/>
      <stop offset="1" stop-color="#2e3192"/>
    </linearGradient>
    <linearGradient id="linear-gradient-3" x1="75.74" y1="52.88" x2="151.3" y2="128.44" gradientUnits="userSpaceOnUse">
      <stop offset="0" stop-color="#e5e500"/>
      <stop offset="1" stop-color="#ed1c24"/>
    </linearGradient>
    <linearGradient id="linear-gradient-4" x1="65.69" y1="108.37" x2="42.6" y2="10.42" gradientUnits="userSpaceOnUse">
      <stop offset="0" stop-color="#0c8"/>
      <stop offset="1" stop-color="#009245"/>
    </linearGradient>
    <linearGradient id="linear-gradient-5" x1="39.16" y1="57.68" x2="7.68" y2="146.53" gradientUnits="userSpaceOnUse">
      <stop offset="0" stop-color="#d320ed"/>
      <stop offset="0.84" stop-color="#772ba0"/>
      <stop offset="1" stop-color="#662d91"/>
    </linearGradient>
    <linearGradient id="linear-gradient-6" x1="31.75" y1="-11.72" x2="54.14" y2="33.75" gradientUnits="userSpaceOnUse">
      <stop offset="0" stop-color="#179b00"/>
      <stop offset="1" stop-color="lime"/>
    </linearGradient>
  </defs>
  <title>bend3</title>
  <g id="Layer_2" data-name="Layer 2">
    <g id="bend3">
      <path id="leftLeg" d="M111.13,224.09c-1.39-4.48-2.77-9-4.17-13.43-3.41-10.91-7.37-21.3-11.82-31.82-3.6-8.48-6.84-17.24-7.17-26.46-6.38-7.81-9.07-18.19-9.28-28.26-.87.47-1.77.93-2.69,1.33-1.14.65-2.26,1.32-3.37,2-2.5-2.29-7.67-1.52-8.38,2.29a74.38,74.38,0,0,0-1.17,19.53A5.26,5.26,0,0,0,66,153.53a28.17,28.17,0,0,0,.94,3.64c2.7,7.89,5.37,15.36,6.65,23.67a3.9,3.9,0,0,0,3.15,3.52,5.05,5.05,0,0,0,2,1.09q7.17,44.64,16.09,89a211.9,211.9,0,0,1-7.48,39.71c0,.08,0,.16,0,.24a5,5,0,0,1,2,.8A37.81,37.81,0,0,0,103,308.36c-.06-.19-.13-.37-.19-.56,8.34-18.39,4.52-40.17,6.59-60.25a5.2,5.2,0,0,0,0-1.25C110.18,238.9,110.79,231.48,111.13,224.09Z" fill="url(#linear-gradient)"/>
      <path id="rightLeg" d="M75.2,179.65c-5.52-15.28-10.56-31.83-9.45-48.27A4.94,4.94,0,0,1,70,126.65c-2.06-.45-4.13-.9-6.22-1.25a23.53,23.53,0,0,0-11.67.82h0c-3-2-7.71-.93-7.64,3.83,0,1.79,0,3.57-.1,5.36a4.9,4.9,0,0,0-.31,2.2c0,.42.07.83.1,1.25-.5,6.7-1.5,13.35-2.2,20a132.11,132.11,0,0,1,3.2,19.81,3.93,3.93,0,0,1,1.58,3.94c-.17,1.38-.36,2.75-.57,4.13a34.87,34.87,0,0,1-.91,10c0,3-.16,6-.47,9l.21,1.27c-.21.74-.42,1.47-.64,2.21a72.59,72.59,0,0,1-1.5,7.44,4.89,4.89,0,0,1-1.4,2.4c-.15.54-.31,1.07-.47,1.61-.27.94-.55,1.88-.83,2.82-.55,2.68-1.1,5.35-1.63,8a4.15,4.15,0,0,1-1.17,2.21,170.77,170.77,0,0,1-7.2,19.53c-7.68,17.48-19.87,32-30.14,47.79,0,7,2.43,12.5,10,11a30.61,30.61,0,0,0,6.13-5.23,4.91,4.91,0,0,0,1.21,0,4.74,4.74,0,0,0,5.3-1C39.14,289.45,49,266.18,57.47,244.92a316.93,316.93,0,0,0,15.36-50.86,108.57,108.57,0,0,0,2.91-13.3A5.2,5.2,0,0,1,75.2,179.65Z" fill="url(#linear-gradient-2)"/>
      <path id="leftArm" d="M92.14,84.89a4.28,4.28,0,0,1,3.77,1.57,114.81,114.81,0,0,0,8.25,8.26c8.4,5.5,17.26,10.32,25.2,16.49,2.56-1.07,4.29-3.92,2.34-6.89a65.12,65.12,0,0,0-8.94-10.84,4.67,4.67,0,0,0-1.39-4.17c-8.8-7.71-17.66-15.38-26.4-23.16-1-.88-2-1.77-3-2.67A113.73,113.73,0,0,1,78.58,40.6C77,37,73,37.58,70.77,40a4.58,4.58,0,0,0-1.28-.08c-.29-.29-.57-.59-.85-.89-4.53-4.58-11.6,2.49-7.07,7.08l1.11,1.16a5.56,5.56,0,0,0,.91,1.56L74.94,62.59c4.6,6.61,9.51,13,14.63,19.23C90.42,82.85,91.29,83.87,92.14,84.89Z" fill="url(#linear-gradient-3)"/>
      <path id="torso" d="M78.46,64.71Q71.68,54,65.51,42.86a33.16,33.16,0,0,0-2.89-6.7,4.94,4.94,0,0,0-4.32-2.48A31.89,31.89,0,0,0,40,40.33c-3.4-3.4-10,1.25-7.65,6.46A109.35,109.35,0,0,1,39.76,66.9a326.28,326.28,0,0,0,3.7,35,4,4,0,0,0,2.77,3.37v.11c0,2.73,0,5.58-.13,8.4q-1.22,5.49-2.63,10.93c-1,3.81,2.94,6.87,6.12,6.28a27.56,27.56,0,0,0,23.12,1.57A5.13,5.13,0,0,0,76,128.11l.06-.3a5.68,5.68,0,0,0,.64-3.75,46,46,0,0,0,.4-5l.38-.07c.1-9.56.5-19.13,2.3-28.54,1-5,3-9.81,4.82-14.65A61.05,61.05,0,0,1,78.46,64.71Z" fill="url(#linear-gradient-4)"/>
      <path id="rightArm" d="M26.65,121.74c1.94-4.53,4-9,5.76-13.62a4.59,4.59,0,0,1,.85-2.51c.41-1.67.85-3.35,1.36-5,2.1-6.87,6.63-14.09,6.61-21.37a5,5,0,0,1,.37-2A6.22,6.22,0,0,1,41,77a145.06,145.06,0,0,0,4.6-30.29c.18-3.82-4-5.66-7-4.62a5.29,5.29,0,0,0-1.93.67,5.53,5.53,0,0,0-3.09,1.82,4.2,4.2,0,0,0-.9,1c-2,3.27-2,6.71-1.85,10.44l0,.84a17.27,17.27,0,0,0-.58,3.23c-.31,3.53-.77,7-1.35,10.44A5.56,5.56,0,0,0,28.3,72c-.34,1.43-.68,2.86-1,4.29a5.4,5.4,0,0,0,0,2.49q-.81,3.64-1.77,7.24a279.36,279.36,0,0,1-14.87,33.66,89.46,89.46,0,0,0-5.54,10.13,5.28,5.28,0,0,0,2.62,7.08c.08,4.73,6.84,7.88,9.11,2.78l7.92-17.79A5.43,5.43,0,0,0,26.65,121.74Z" fill="url(#linear-gradient-5)"/>
      <path id="head" d="M64.77,22c-5.19-5.51-11.37-9.78-12-17.9A4.2,4.2,0,0,1,53.88,1c-3.1-1.94-7.74-1-10.42,2a21.11,21.11,0,0,1-3.57,3.68A27.55,27.55,0,0,0,36.63,8.8a13,13,0,0,0-3.69,8.88q-.07,1.35,0,2.7a6,6,0,0,0-1,1.47,5.13,5.13,0,0,0,2.67,7.23,36.56,36.56,0,0,0,5,9.76c1.7,2.35,5.87,3.16,8,1.19,6.44.1,15.76-1,19.61-5.61.17,0,.34,0,.52,0H69l3.61.62a5.12,5.12,0,0,0,1,.09C70.6,30.87,67.71,26.43,64.77,22Z" fill="url(#linear-gradient-6)"/>
    </g>
  </g>
</svg>
