<svg xmlns="http://www.w3.org/2000/svg" xmlns:xlink="http://www.w3.org/1999/xlink" viewBox="0 0 100.51 238.58">
  <defs>
    <linearGradient id="linear-gradient" x1="70.64" y1="224.19" x2="76.24" y2="126.94" gradientUnits="userSpaceOnUse">
      <stop offset="0" stop-color="#8e0000"/>
      <stop offset="1" stop-color="#42210b"/>
    </linearGradient>
    <linearGradient id="linear-gradient-2" x1="10.89" y1="208.03" x2="68.25" y2="146.46" gradientUnits="userSpaceOnUse">
      <stop offset="0" stop-color="#0071bc"/>
      <stop offset="1" stop-color="#2e3192"/>
    </linearGradient>
    <linearGradient id="linear-gradient-3" x1="84.49" y1="78.44" x2="74.7" y2="12.67" gradientUnits="userSpaceOnUse">
      <stop offset="0" stop-color="#e5e500"/>
      <stop offset="1" stop-color="#ed1c24"/>
    </linearGradient>
    <linearGradient id="linear-gradient-4" x1="73.99" y1="26.45" x2="48.1" y2="137.69" gradientUnits="userSpaceOnUse">
      <stop offset="0" stop-color="#0c8"/>
      <stop offset="1" stop-color="#009245"/>
    </linearGradient>
    <linearGradient id="linear-gradient-5" x1="77.07" y1="99.14" x2="26.7" y2="34.08" gradientUnits="userSpaceOnUse">
      <stop offset="0" stop-color="#d320ed"/>
      <stop offset="0.84" stop-color="#772ba0"/>
      <stop offset="1" stop-color="#662d91"/>
    </linearGradient>
    <linearGradient id="linear-gradient-6" x1="75.6" y1="35.58" x2="56.01" y2="-0.8" gradientUnits="userSpaceOnUse">
      <stop offset="0" stop-color="#179b00"/>
      <stop offset="1" stop-color="lime"/>
    </linearGradient>
  </defs>
  <g id="Layer_2" data-name="Layer 2">
    <g id="bend2">
      <path id="leftLeg" d="M100.42,165.93q-3.6-20-6.06-40.09a5.19,5.19,0,0,0-2.83-4.09l-.42-3.84c-.58-5.24-7.41-6.3-9.44-2.65-2.22,0-4.31,1.22-4.54,3.76-3.23-3.51-9.68-1.28-8.52,4.42.18.87.38,1.74.56,2.62a5.34,5.34,0,0,0-1.72,4.85,39.52,39.52,0,0,0,6,14.85q.76,2.27,1.47,4.56a5,5,0,0,0,.3,4.06l3.65,7.2.18.91c.71,4.06-.34,9,.48,13.22a43.32,43.32,0,0,1-4.87,1.94,4.46,4.46,0,0,1-4-.65,5.08,5.08,0,0,0,.12,1.58l-3.72,18.29L62.91,201a4.8,4.8,0,0,0-4.67,1.2,96.87,96.87,0,0,0-9.6,10.64,5.33,5.33,0,0,0-.71,5.68l-1.22,2a4.61,4.61,0,0,0-.61,1.58l-1,1.23c-3.85,5,2.14,11.47,7.08,7.07.41-.36.8-.74,1.2-1.11,2.44-4.39,6-8.15,9.52-11.69l1.7-1.68c1.41-1.38,2.79-2.78,4.17-4.18h0q3.54-3.58,7-7.28h0q1.82-2,3.6-3.93,2.58-2.87,5.07-5.78l.46-1,.86-.57c4.45-5.26,8.71-10.63,12.86-16.1a5.05,5.05,0,0,0-1-.57,4.33,4.33,0,0,0,.12-2.33,12,12,0,0,0,.69-3.17A5,5,0,0,0,100.42,165.93Z" fill="url(#linear-gradient)"/>
      <path id="rightLeg" d="M83.41,170.78a5,5,0,0,0-1.14-1.45,46.35,46.35,0,0,1-1-4.75,15.72,15.72,0,0,0-.38-2.52,4.44,4.44,0,0,0-3.45-3.36c-.22-.68-.44-1.37-.67-2a4.36,4.36,0,0,0,.75-4.32q-4.92-15.57-9.83-31.14c-1.28-3.93-5.73-4.25-8.2-2.32a4.05,4.05,0,0,0-5-2c-2.33-1.93-6-.87-7.5,1.46a4.51,4.51,0,0,0-.6.48,5.65,5.65,0,0,0-3.62,2.77L41.28,121a4.25,4.25,0,0,0-4.92,1.45,4.79,4.79,0,0,0-2,6.76l4.44,8.34a4.52,4.52,0,0,0,2.67,2.33q7.39,10.41,14.77,20.83,5.06,9.36,10.58,18.46c-1.19.92-2.38,1.83-3.59,2.72a4.38,4.38,0,0,1,.07-2,28.87,28.87,0,0,1-3.22,2.95,4.42,4.42,0,0,1,.62.85l-.58.39a29,29,0,0,0-9.29,5.55c-2.65,1.19-5.39,2.26-8.17,3.28a116.78,116.78,0,0,1-14,9.57c-1.82,1.55-3.64,3.1-5.44,4.66a5.11,5.11,0,0,1-4.18,1.2c-4.23,5.35-9.29,10-13.27,15.49-2.07,2.87-3.88,5.88-5.78,8.82a5.71,5.71,0,0,0,2.67,2.05A5.17,5.17,0,0,0,10,238a102.14,102.14,0,0,0,11.71-7.44,4.3,4.3,0,0,0,4.5-1.37l6.93-7.8c16.12-4,30.09-13.57,42.58-24.34,2.35-2,1.88-4.8.21-6.61A13.94,13.94,0,0,0,83.41,170.78Z" fill="url(#linear-gradient-2)"/>
      <path id="leftArm" d="M97.67,90.89c-.66-1.16-1.31-2.32-2-3.48a5.84,5.84,0,0,0-.45-1.64c-.24-.56-.51-1.12-.76-1.67a47.55,47.55,0,0,0-3.09-8.83,4.12,4.12,0,0,0-3.1-2.56,6.11,6.11,0,0,0-.49-.52l-4.5-8.49c0-2,0-4,0-5.94a76.67,76.67,0,0,0,2.36-9.53,10.23,10.23,0,0,0,.61-4.06,4.78,4.78,0,0,0-1.9-3.58,56.76,56.76,0,0,1,.76-7.78c1.06-6.27-7.59-8.87-9.64-2.66a20.37,20.37,0,0,1-3.62,6.68,5.41,5.41,0,0,0,1.46,8l0,11.55-.11.35a4.06,4.06,0,0,0-3,4.5l.38,2.9a6.18,6.18,0,0,0,2.61,4l.24,1.17a4.86,4.86,0,0,0,.27.89,4.83,4.83,0,0,0,.84,2.48c.42.66.86,1.31,1.29,2a5,5,0,0,0,.62,5.87,91.53,91.53,0,0,1,6.69,8.58l.3.7c.31.78.64,1.55,1,2.32a3.92,3.92,0,0,0,2,2.09l0,0a4.65,4.65,0,0,0,3,2.29C93.52,100.54,100.77,96.39,97.67,90.89Z" fill="url(#linear-gradient-3)"/>
      <path id="torso" d="M75.66,74.58a5,5,0,0,0-1.93-2.82c0-.06,0-.12,0-.18,2.68-9.7,7-18.75,11.81-27.61l-1.78-2.61a5.67,5.67,0,0,1-4.6-2.06c-1-1.38-2-2.79-3-4.23a24.92,24.92,0,0,1-6.54-5.74q-14,8.41-28.6,16c-.44,1.13-.87,2.27-1.26,3.42l-.06,2.36c-.4.53-.79,1.06-1.16,1.59-.48,1.72-.88,3.46-1.19,5.24a4.06,4.06,0,0,1-1.89,2.9c0,.24,0,.49,0,.73a5.14,5.14,0,0,0,3.81,4.73l-.09,3.17a4.32,4.32,0,0,1,2.2.43,5.58,5.58,0,0,0-2.61,4l-.3,2.35c-.5,1-1,1.91-1.42,2.88a4.59,4.59,0,0,0-2.73,3.23c-.77,2.83-1.4,5.69-1.91,8.55L31.51,95c-1.17,4.49-2.14,9.06-3,13.63a5,5,0,0,0,2.39,5.42,12.74,12.74,0,0,0,.93,4.9c1.56,3.85,7.63,4.61,9.38,1.37,1.29,0,2.75,0,4.14.09A4,4,0,0,0,49,121.75l10.24-1.07c5.41.34,10.82.9,16.2,1.71a5.45,5.45,0,0,0,6.09-4.19,5.53,5.53,0,0,0,2.59-5.59A273.14,273.14,0,0,0,75.66,74.58Z" fill="url(#linear-gradient-4)"/>
      <path id="rightArm" d="M78.47,90.36C73.71,88.07,67,85.47,63,82.11,58,74,48.92,68.26,42,61.6c-1.19-5.24,4-8.72,6.54-12.71,1.26-4.47,7-8,6.32-12.62,1.29-2.56,1-5.75-1.55-7.1-2.87-4.65-8-2.07-10.36,1.89h0c-2.7,5.37-7.77,8.89-10.66,14.25C26,46.79,26,55.49,22.84,60c-4.09,4.36-.32,12.13,5.05,9.91,2.26,2.77,5.3,4.65,8.21,6.54C35,81.62,43.7,84.11,47,86.6c7.48,6.5,16.89,10.57,25.48,15.65a4.1,4.1,0,0,0,.61-3C78.92,102.15,84.22,93.78,78.47,90.36Z" fill="url(#linear-gradient-5)"/>
      <path id="head" d="M64.09,38.67a16.51,16.51,0,0,0,6-.66h.22c0,.22-.09.45-.14.67a6,6,0,0,0,0,2.15c4.24,1.26,9-.46,12.87-3.33a5.2,5.2,0,0,0-.06-4.3A41.9,41.9,0,0,0,85,25a10.84,10.84,0,0,0,1.07-7.34,4.39,4.39,0,0,0-1.69-2.8q1-1.34,1.92-2.7c-1.09-1.74-2.19-3.48-3.14-5.26a5.89,5.89,0,0,1-.56-1.58,14.88,14.88,0,0,0-7.07-4.22A4.94,4.94,0,0,1,73.19,0c-.15.4-.29.8-.43,1.21a10,10,0,0,0-7-.7,4.74,4.74,0,0,0-3.49,5.63,11.78,11.78,0,0,0-1.8,1.52,26,26,0,0,0-5.09,4.25C54.3,13,52.69,15.44,51.09,16.8c-.94.49-1.9,1-2.87,1.43-4.62,2.15-2.41,7.74,1.47,9a6.71,6.71,0,0,0,2.25,6.48,6.3,6.3,0,0,0,2.24,2.85,7.43,7.43,0,0,0,6.69,1.25A8.89,8.89,0,0,0,64.09,38.67Z" fill="url(#linear-gradient-6)"/>
    </g>
  </g>
</svg>
