<svg xmlns="http://www.w3.org/2000/svg" xmlns:xlink="http://www.w3.org/1999/xlink" viewBox="0 0 115.23 322.27">
	<defs>
		<linearGradient id="linear-gradient" x1="115.95" y1="302.98" x2="76.08" y2="143.47" gradientUnits="userSpaceOnUse">
			<stop offset="0" stop-color="#8e0000"/>
			<stop offset="1" stop-color="#42210b"/>
		</linearGradient>
		<linearGradient id="linear-gradient-2" x1="9.4" y1="299.27" x2="66.07" y2="154.45" gradientUnits="userSpaceOnUse">
			<stop offset="0" stop-color="#0071bc"/>
			<stop offset="1" stop-color="#2e3192"/>
		</linearGradient>
		<linearGradient id="linear-gradient-3" x1="111.81" y1="110.05" x2="71.93" y2="20.5" gradientUnits="userSpaceOnUse">
			<stop offset="0" stop-color="#e5e500"/>
			<stop offset="1" stop-color="#ed1c24"/>
		</linearGradient>
		<linearGradient id="linear-gradient-4" x1="58.94" y1="32.19" x2="81.48" y2="138.02" gradientUnits="userSpaceOnUse">
			<stop offset="0" stop-color="#0c8"/>
			<stop offset="1" stop-color="#009245"/>
		</linearGradient>
	</defs>
	<title>stand</title>
	<g id="Layer_2" data-name="Layer 2">
		<g id="stand">
			<path id="leftLeg" d="M113.41,285.1c-.29-2.89-.6-5.78-.91-8.67.43-22.46,0-44.94-3.63-67.17a185.06,185.06,0,0,0-12-42.77c-1.53-3.62-3.22-7.17-4.93-10.71a188.69,188.69,0,0,0-9.69-27.44A52.79,52.79,0,0,1,76,131.72c-1.23.7-2.43,1.41-3.62,2.15a36.62,36.62,0,0,1-3.58,3.3c.84,1.82,1.69,3.63,2.54,5.45q12.3,88.6,31.41,176.09c1.13,5.19,8.08,4.28,9.64,0C116.39,307.71,115.62,296.3,113.41,285.1Z" fill="url(#linear-gradient)"/>
			<path id="rightLeg" d="M63.77,131.67a23.89,23.89,0,0,0-12.68,1.15A974.77,974.77,0,0,1,5.38,286.16C.81,293.69-5.88,321.52,10,318.31c10.34-6.66,14.36-17.91,17.26-29.25,29.48-46.16,54.91-98.35,53.43-154C75,134.25,69.48,132.64,63.77,131.67Z" fill="url(#linear-gradient-2)"/>
			<path id="leftArm" d="M107.08,76.8c-2-14.28-5.42-28.21-12.38-41-1.62-3-4.81-3-7-1.49C85,34,82,35.81,82,39.12a53,53,0,0,0,4.46,20.33c.36,4.4,2.8,8.57,4.36,12.64,2,5.29,3.78,10.67,5.32,16.11a4.69,4.69,0,0,0,2.13,2.87c.94,10.2,1.82,20.4,2.75,30.6.57,6.29,10,6.54,10,0C111,107,110.63,91.17,107.08,76.8Z" fill="url(#linear-gradient-3)"/>
			<path id="torso" d="M84.86,33.38c-3-.93-5.92-2-9-2.07a5,5,0,0,1-2.53-.73,40.36,40.36,0,0,0-8.58.39,7.8,7.8,0,0,0-6.64,5.77,13.55,13.55,0,0,0-2.77,6.41c-3.43,6.05-3.57,14.27-3,22.14-.68,5.45-.81,11-.94,16.3q-.69,26.52-1.37,53a4.68,4.68,0,0,1,3.62,1.45c2.41,2.39,5.18,5.15,8.71,5.58,3.87.47,7.57-2.16,10.68-4.14a86.85,86.85,0,0,1,10-5.84A40.64,40.64,0,0,1,84.48,125a29.9,29.9,0,0,1,1.1-7.7l.94-10.36Q91.8,84.18,95.9,61.18C91.17,52.45,88.74,42.74,84.86,33.38Z" fill="url(#linear-gradient-4)"/>
			<path id="rightArm" d="M63.56,35.1a5.33,5.33,0,0,0-8-1.39A135.6,135.6,0,0,0,39.34,49.8c-4.3,5.08-8.53,9.71-9.12,16.56-1.37,16-5.81,30.83-10.82,46a4.81,4.81,0,0,0-.24,2.11,4.84,4.84,0,0,0-.63,2.58,18.21,18.21,0,0,0,2.33,8.71c1.69,3.11,7,3.42,8.64,0,.63-1.34,1.23-2.7,1.82-4.07a104.26,104.26,0,0,1,3.31-14.79c2.1-6.87,6.63-14.09,6.6-21.37A4.53,4.53,0,0,1,44,81.14c1-7,3.53-13.25,9.94-17.33a17.23,17.23,0,0,0,.36-2.17,5.24,5.24,0,0,1,4-4.91c.26-.83.53-1.65.85-2.47C61,49.68,65,45.42,64.79,40.31a4.4,4.4,0,0,1,1.41-3.6A4.36,4.36,0,0,0,63.56,35.1Z" fill="#d320ed"/>
			<path id="head" d="M89.3,17.91c2.06-2.84,3.56-6,3-9a6.42,6.42,0,0,0-.28-1.07c1-2.63,0-6-3.2-6.57-5.65-1-15.1-2.35-21.31.41a8,8,0,0,0-5.3,2.67C60,7,59.1,11.14,58,14.41c-1.48,4.55-2.7,9.16-3.74,13.83-1.2,5.35,4.94,8,8.43,4.67a5.15,5.15,0,0,0,1.14-.34C68,36.85,73.82,40,79.52,40.4c2.31.17,4.1-1.69,4.82-3.67a12.56,12.56,0,0,0,.42-1.41,4.27,4.27,0,0,0,2-3.93C86.36,26.61,88.21,22.33,89.3,17.91Z" fill="#179b00"/>
		</g>
	</g>
</svg>
