<?xml version="1.0" encoding="utf-8"?>
<!-- Generator: Adobe Illustrator 19.0.0, SVG Export Plug-In . SVG Version: 6.00 Build 0)  -->
<svg version="1.0" id="Layer_1" xmlns="http://www.w3.org/2000/svg" xmlns:xlink="http://www.w3.org/1999/xlink" x="0px" y="0px"
	 width="1400px" height="980px" viewBox="0 0 1400 980" enable-background="new 0 0 1400 980" xml:space="preserve">
<rect id="XMLID_1_" x="18.4" y="11.2" fill="#608DA2" width="1364.2" height="956.6"/>
<g id="XMLID_375_">
	<g id="XMLID_5_">
		<path id="XMLID_162_" fill="#DBA97F" d="M1063.6,764.8c0,0,7.5,7.9,8.7,15.6c0,0-4.3,1.7-6.5-2.1c0,0-2.1,3.4-6-1.4
			c-3.9-4.8-9.9-4.9-11.8-4l0-5.8L1063.6,764.8z"/>
		<path id="XMLID_161_" fill="#EEC19C" d="M1026.3,676.5l2.5,35.7c0,0,1.1,19.7,14.6,47.7l-13.4,7.2c0,0-13.2-21-15.5-54.2
			l-2.9-39.1L1026.3,676.5z"/>
		<path id="XMLID_160_" fill="#EEC19C" d="M1030,767.1c0,0,7,7.2,13.5,9.6c6.5,2.4,8.7,8.1,12.7,4c4.1-4.1-5.8-5.3-7-12
			c0,0,10.5-6,16.3,1.9c5.8,7.9,10.1,5.2,10.1,5.2s-4.4-12.2-10.8-14.6c-6.5-2.4-21.4-1.4-21.4-1.4L1030,767.1z"/>
		<path id="XMLID_41_" fill="#FFFFFF" d="M1025,763.3c0,0-3.4-8.1-6.8-18.3c-3.6-10.6-7.1-23.5-6.6-31.7l-8.8-47.8l19.4-14.8
			l8.1,60.8l7.3,25.9l5,17.7L1025,763.3z"/>
		<path id="XMLID_30_" fill="#E6E7E8" d="M1025,763.3c0,0-3.4-8.1-6.8-18.3l19.5-7.6l5,17.7L1025,763.3z"/>
		<circle id="XMLID_21_" fill="#A7A9AC" cx="1026.3" cy="757.8" r="1.1"/>
		<path id="XMLID_65_" fill="#FFFFFF" d="M1032.7,868.6l45.4,20.5c0.1-1.1-0.2-2.4-0.8-3.8c-4.7-11-28-27-28-27l-6.6-3l-8.1,10.7
			L1032.7,868.6z"/>
		<path id="XMLID_64_" fill="#D1D3D4" d="M1032.7,868.6l45.4,20.5c0.1-1.1-0.2-2.4-0.8-3.8l-42.7-19.3L1032.7,868.6z"/>
		<path id="XMLID_2_" d="M1005.9,755.2c0,0,49.6,16.7,64.3,25.3c0,0-3,49.8-14.7,81.1l-17.5-4.6l9.6-61.2l-63.3-18.3L1005.9,755.2z"
			/>
		<path id="XMLID_61_" fill="#FFFFFF" d="M984.1,930.6h-49.8c0.4-1.1,1.2-2.1,2.3-3.1c8.8-8.1,36.7-13.1,36.7-13.1h7.3l2.9,13.1
			L984.1,930.6z"/>
		<path id="XMLID_60_" fill="#D1D3D4" d="M984.1,930.6h-49.8c0.4-1.1,1.2-2.1,2.3-3.1h46.9L984.1,930.6z"/>
		<path id="XMLID_58_" d="M942.2,755.5c17.3,50.2,76.2,31.7,74,0.5C988.5,740.8,953.5,746,942.2,755.5z"/>
		<path id="XMLID_10_" fill="#FFFFFF" d="M939.5,750.5l2.7-78.5l4.5-27.4c0,0,34.7-25,75.6,6.1l-6,14.7l6,86.2
			C1022.3,751.6,979.5,760.5,939.5,750.5z"/>
		<path id="XMLID_46_" fill="#DBA97F" d="M989.1,644.6h-20c-0.5,0-0.8-0.4-0.8-0.8v-23.7c0-0.5,0.4-0.8,0.8-0.8h20
			c0.5,0,0.8,0.4,0.8,0.8v23.7C989.9,644.2,989.6,644.6,989.1,644.6z"/>
		<path id="XMLID_44_" fill="#DBA97F" d="M969.4,642.2c0,0-5.1,3.2-1.2,7.9c5,6.1,8,11.6,11.4,11.6c3.2,0,5.2-2.4,9.1-10.4
			c4.9-10-0.1-9.1-0.1-9.1H969.4z"/>
		<path id="XMLID_34_" fill="#A7A9AC" d="M1022.3,756c-24.3,5.2-68.4,4.3-82.9-0.6l0.1-4.9c10,1.5,50.2,5.9,82.8,1.1V756z"/>
		<polygon id="XMLID_33_" points="948.3,766.6 965.1,917.2 984.1,917.2 982.5,780.8 		"/>
		<polygon id="XMLID_47_" fill="#9E1D21" points="976.5,654.9 982.5,654.9 986.8,661.7 983.4,667.7 975.7,667.7 971.8,661.7 		"/>
		<polygon id="XMLID_11_" fill="#9E1D21" points="975.7,667.7 970.8,740.1 979.9,751.6 989,740.2 983.4,667.7 		"/>
		<rect id="XMLID_4_" x="992.1" y="693.4" fill="#E6E7E8" width="16.8" height="2.5"/>
		<path id="XMLID_36_" fill="#E6E7E8" d="M989.9,633.6c0,0-2.9,13.7-7.4,21.3c0,0,4.3,6.8,6.6,12.9c0,0,10-18.6,7.2-30.5
			C996.3,637.2,993,635.6,989.9,633.6z"/>
		<rect id="XMLID_48_" x="970.8" y="723.4" fill="#FBB040" width="10.1" height="2.5"/>
		<path id="XMLID_37_" fill="#E6E7E8" d="M968.7,633.6c0,0,3.5,15,7.8,21.3c0,0-6.5,9.1-7,13.8c0,0-11.6-16.4-7.9-30.5
			C961.6,638.2,965.6,635.6,968.7,633.6z"/>
		<path id="XMLID_122_" fill="#DBA97F" d="M1013,601.7L1013,601.7c-4.3,0-7.9-3.6-7.9-7.9l0-9.3c0-4.3,3.6-7.9,7.9-7.9h0
			c4.3,0,7.9,3.6,7.9,7.9l0,9.3C1020.9,598.2,1017.4,601.7,1013,601.7z"/>
		<path id="XMLID_118_" fill="#EEC19C" d="M990,633.5l-4.6,0c-18.9-0.1-38.8-13.2-38.8-29.1l0.2-44.6c0.1-15.9,13.2-28.9,29.1-28.9
			l13.3,0.1c15.9,0.1,28.9,13.2,28.9,29.1l-0.2,39.9C1017.9,618.5,1008.5,633.6,990,633.5z"/>
		<path id="XMLID_117_" fill="#352312" d="M977.9,590.3L977.9,590.3c-1.3,0-2.3-1-2.3-2.3l0-3c0-1.3,1-2.3,2.3-2.3l0,0
			c1.3,0,2.3,1,2.3,2.3l0,3C980.2,589.3,979.1,590.3,977.9,590.3z"/>
		<path id="XMLID_116_" fill="#352312" d="M1004.8,590.5L1004.8,590.5c-1.3,0-2.3-1-2.3-2.3l0-3c0-1.3,1-2.3,2.3-2.3l0,0
			c1.3,0,2.3,1,2.3,2.3l0,3C1007.1,589.4,1006.1,590.5,1004.8,590.5z"/>
		<path id="XMLID_115_" fill="#DBA97F" d="M994.9,594c0,0,7.1,8-2.6,9.5C992.3,603.5,1005.7,603.5,994.9,594z"/>
		
			<ellipse id="XMLID_114_" transform="matrix(1 3.775900e-03 -3.775900e-03 1 2.2651 -3.6557)" fill="#EFCAAC" cx="969.3" cy="598.1" rx="5.8" ry="3.5"/>
		
			<ellipse id="XMLID_113_" transform="matrix(1 3.775900e-03 -3.775900e-03 1 2.266 -3.8153)" fill="#EFCAAC" cx="1011.6" cy="598.2" rx="5.3" ry="3.5"/>
		<path id="XMLID_112_" fill="#5F3F2B" d="M987.1,573.7c0,0-12.3-6.9-23.9-0.5c0,0,6.8-11.9,24.8-3.2L987.1,573.7z"/>
		<path id="XMLID_111_" fill="#5F3F2B" d="M999.9,573.2c0,0,7.7-7.2,17-0.2c0,0-2.1-11.8-17.9-3.4L999.9,573.2z"/>
		<path id="XMLID_86_" fill="#AE7450" d="M1017.8,556.2c-0.3-3.9-2.5-8.5-2.5-8.5s-12.4,7.3-30.6,0.3c-18.3-6.9-23.6,3.2-23.6,3.2
			s-2.7,5.7-2.8,16.5c-0.2,29.2-4.1,39.6-4.1,39.6s1.5-6.7,1-19.8c-0.4-10.5-8.4-11.1-8.4-11.1c-2.5,0-5.9,2.6-5.9,2.6
			c-1.7-10.3-2.5-19.2-1.6-27.2c5.7-6,15.7-13,29.7-10.7c20.9,3.5,44.2,14.4,47.9-5.1C1018.3,546.8,1017.8,556.2,1017.8,556.2z"/>
		<g id="XMLID_85_">
			<polygon id="XMLID_138_" opacity="0.56" points="963.2,579.8 963.2,588 965.7,595 969.4,598.3 975.2,599.7 981.4,598.6 
				985.4,595 988.1,586.7 988.1,581.3 986.2,578.9 977.9,576.6 971.7,576.6 			"/>
			<polygon id="XMLID_137_" opacity="0.56" points="1020.6,580 1020.6,588.2 1018,595.2 1014.3,598.5 1008.5,599.9 1002.3,598.7 
				998.3,595.1 995.7,586.7 995.7,581.3 997.7,578.9 1005.9,576.7 1012.2,576.8 			"/>
			<path id="XMLID_90_" fill="#21170E" d="M1023.3,579.6c-0.2-2.6-4.1-2.5-4.1-2.5c-13.4-5.5-24.1,2.3-24.1,2.3
				c-0.3,0.2-0.7,0.3-0.9,0.5c-0.6,0.2-1.3,0.3-2.1,0.3c-1.9,0-3.4-0.9-3.4-0.9s-10.7-8-24.1-2.5c0,0-3.9-0.2-4.1,2.4
				c-0.2,2.6,1.2,1.6,1.7,6.1c0.5,4.5,1.2,15.1,13.1,15.5c13,0.5,14.1-13.1,14.1-13.1s0.8-2.6,1.8-2.7l1.5,0c1,0.1,1.8,2.7,1.8,2.7
				s1,13.7,14,13.3c11.9-0.4,12.7-11,13.2-15.4C1022.1,581.2,1023.5,582.2,1023.3,579.6z M984.7,594.3c-2.8,4.6-13.9,6.9-17.7,0.7
				c-3.6-5.9-3.2-13.9-1.9-14.8c9.2-6.4,21.2-0.3,22,1.3C987.9,583,987.5,589.6,984.7,594.3z M1016.8,595.2
				c-3.9,6.2-15,3.8-17.7-0.8c-2.8-4.7-3.1-11.2-2.3-12.8c0.9-1.6,12.8-7.6,22-1.1C1020.1,581.3,1020.5,589.3,1016.8,595.2z"/>
		</g>
		<polygon id="XMLID_79_" fill="#21170E" points="964.6,576.9 946.7,576.3 946.7,578.7 963.2,580.9 		"/>
		<path id="XMLID_110_" fill="#EEC19C" d="M946.6,601.5L946.6,601.5c-4.3,0-7.9-3.6-7.9-7.9l0-9.3c0-4.3,3.6-7.9,7.9-7.9h0
			c4.3,0,7.9,3.6,7.9,7.9l0,9.3C954.6,597.9,951,601.5,946.6,601.5z"/>
		<path id="XMLID_109_" fill="#DBA97F" d="M950.6,595.9c0,0,2.8-13.2-3.7-15.3c0,0,2.9,4.4,1.4,7.7c0,0-2.4,0.2-2.5,4.3
			C945.6,596.7,949.4,597.5,950.6,595.9z"/>
		<g id="XMLID_139_">
			
				<ellipse id="XMLID_142_" transform="matrix(1 9.725212e-03 -9.725212e-03 1 5.4594 -9.5178)" fill="#FFFFFF" cx="981.4" cy="556.6" rx="71.7" ry="8.9"/>
			
				<ellipse id="XMLID_141_" transform="matrix(1 9.725212e-03 -9.725212e-03 1 5.403 -9.512)" fill="#E6E7E8" cx="980.8" cy="550.8" rx="41.9" ry="5.8"/>
			<path id="XMLID_140_" fill="#F1F2F2" d="M938.8,550.4c0,0-3-44.7,18.1-39.7c0,0,38.8-13.5,61.5,4.3c0,0,5.9,15.2,4.3,36.2
				C1022.7,551.2,975.7,560.6,938.8,550.4z"/>
		</g>
		<path id="XMLID_13_" fill="#EEC19C" d="M919.1,754.1l-1.5,6.4c0,0,7.4,1.5,8.2,10.7c0.8,9.2-4.2,8.5-4.7,2.6s-3.8-6.1-3.8-6.1
			s-5.2,13.9,3.1,20.5c0,0,3.1,4.5-2.8,4.1c0,0-4,0.4-7.4-2.6c-3.5-3-10.5-16.4-3.9-28.7l2.1-1.7l1.3-7.2L919.1,754.1z"/>
		<path id="XMLID_19_" fill="#FFFFFF" d="M946.7,678.4l-18.3,60.3l-4.9,16.3l-17.2-3.4c0.9-6.1,1.9-12,3-17.8
			c8.8-46.4,22.8-81.4,22.8-81.4c5.1-6.8,29.6-14.2,29.6-14.2C966.7,648.5,946.7,678.4,946.7,678.4z"/>
		<path id="XMLID_17_" fill="#E6E7E8" d="M928.4,738.8l-4.9,16.3l-17.2-3.4c0.9-6.1,1.9-12,3-17.8L928.4,738.8z"/>
		<circle id="XMLID_6_" fill="#A7A9AC" cx="912" cy="746.4" r="1.1"/>
		<path id="XMLID_3_" fill="#5F3F2B" d="M990.6,621.6c0,0-5.2-6.4-14.1-3.2l0.3,1.2c0,0,7.3-3,12.8,3.2L990.6,621.6z"/>
	</g>
	<g id="XMLID_183_">
		<g id="XMLID_262_">
			<path id="XMLID_290_" fill="#164C8E" d="M608.2,166.5c0.9-0.9,1.2-2.1,0.7-2.7c-0.5-0.5-1.7-0.2-2.6,0.7
				c-0.9,0.9-1.2,2.1-0.7,2.7C606.1,167.8,607.3,167.5,608.2,166.5z M606.2,166.6c-0.3-0.3-0.1-1,0.4-1.6c0.5-0.6,1.3-0.8,1.6-0.4
				c0.3,0.3,0.1,1-0.4,1.6C607.2,166.7,606.5,166.9,606.2,166.6z"/>
			<path id="XMLID_287_" fill="#6F8BC6" d="M608.2,166.5c0.5-0.5,0.8-1.1,0.9-1.6c0-0.2-0.1-0.4-0.3-0.6c-0.5-0.5-1.7-0.2-2.6,0.7
				c-0.5,0.5-0.8,1.1-0.9,1.6c0,0.2,0.1,0.4,0.3,0.6C606.1,167.8,607.3,167.5,608.2,166.5z M608.3,165.3c0.1,0.4-0.1,0.9-0.5,1.3
				c-0.5,0.6-1.3,0.8-1.6,0.4c-0.2-0.2-0.2-0.4-0.1-0.7c-0.1-0.4,0.1-0.9,0.5-1.3c0.5-0.6,1.3-0.8,1.6-0.4
				C608.4,164.7,608.4,165,608.3,165.3z"/>
			<g id="XMLID_269_">
				<g id="XMLID_270_" enable-background="new    ">
					<g id="XMLID_283_" enable-background="new    ">
						<defs>
							<path id="XMLID_177_" enable-background="new    " d="M614,164c-0.1-1.1-0.3-2.1-0.4-3.2c0-0.1,0-0.2,0-0.3l0.4,3.2
								C614,163.8,614,163.9,614,164z"/>
						</defs>
						<clipPath id="XMLID_377_">
							<use xlink:href="#XMLID_177_"  overflow="visible"/>
						</clipPath>
						<g id="XMLID_285_" clip-path="url(#XMLID_377_)" enable-background="new    ">
							<path id="XMLID_178_" fill="#42547B" d="M614,164l-0.4-3.2c0-0.1,0-0.2,0-0.3l0.4,3.2C614,163.8,614,163.9,614,164"/>
						</g>
					</g>
					<g id="XMLID_277_" enable-background="new    ">
						<defs>
							<path id="XMLID_173_" enable-background="new    " d="M605.7,161.8c0.1,1.1,0.3,2.1,0.4,3.2c-0.1-1,0.3-2,1.3-2.7L607,159
								C606,159.8,605.5,160.8,605.7,161.8z"/>
						</defs>
						<clipPath id="XMLID_378_">
							<use xlink:href="#XMLID_173_"  overflow="visible"/>
						</clipPath>
						<g id="XMLID_279_" clip-path="url(#XMLID_378_)" enable-background="new    ">
							<path id="XMLID_176_" fill="#506591" d="M607.4,162.3L607,159c-0.7,0.5-1.1,1.1-1.2,1.8l0.4,3.2
								C606.3,163.4,606.7,162.8,607.4,162.3"/>
							<path id="XMLID_175_" fill="#4E628E" d="M606.1,164l-0.4-3.2c0,0.2-0.1,0.4-0.1,0.5l0.4,3.2
								C606.1,164.4,606.1,164.2,606.1,164"/>
							<path id="XMLID_174_" fill="#4C608B" d="M606.1,164.6l-0.4-3.2c0,0.1,0,0.3,0,0.4l0.4,3.2
								C606.1,164.9,606.1,164.7,606.1,164.6"/>
						</g>
					</g>
					<g id="XMLID_275_">
						<path id="XMLID_172_" fill="#647DB3" d="M607.4,162.3c-1.6,1.3-1.8,3.3-0.3,4.5c1.5,1.2,4,1.2,5.6,0c1.1-0.8,1.5-2,1.3-3
							c0-0.2-0.3-3,2.4-5.1c1.4-1,1.6-1.2,1.6-1.2l-2-1.7L607.4,162.3z"/>
					</g>
					<g id="XMLID_273_">
						<polygon id="XMLID_171_" fill="#405278" points="617.9,157.4 617.5,154.2 615.5,152.5 615.9,155.8 						"/>
					</g>
					<g id="XMLID_271_">
						<polygon id="XMLID_170_" fill="#556B99" points="615.9,155.8 615.5,152.5 607,159 607.4,162.3 						"/>
					</g>
				</g>
			</g>
			
				<ellipse id="XMLID_169_" transform="matrix(-2.958152e-02 0.9996 -0.9996 -2.958152e-02 792.6922 -440.0732)" fill="#4C71B5" cx="610" cy="164.8" rx="2" ry="2.4"/>
			<polygon id="XMLID_168_" fill="#164C8E" points="608.2,158.4 608.5,161 610.1,159.7 609.7,157.3 			"/>
			<polygon id="XMLID_167_" fill="#002E69" points="610.1,159.7 609.1,160.5 609,158.7 609.8,158.1 			"/>
			<polygon id="XMLID_166_" fill="#3262A7" points="609,158.7 608.2,158.4 608.5,161 609.1,160.5 			"/>
			<polygon id="XMLID_165_" fill="#002E69" points="615.7,153.1 617.3,154.3 617.7,157 616.1,155.7 			"/>
			<polygon id="XMLID_164_" fill="#00184C" points="617.3,154.3 616,155.4 615.7,153.1 			"/>
		</g>
		<path id="XMLID_163_" fill="#FFFFFF" d="M634.8,193.7c0,0-42.6,21-50.7,32.7c-8.2,11.8-13.7,46.2,57.1-5.8
			C641.2,220.7,645.7,195,634.8,193.7z"/>
		<path id="XMLID_24_" fill="#DBA97F" d="M807.4,171.8c0,0,8.4-7,16.1-7.7c0,0,1.4,4.4-2.5,6.3c0,0,3.2,2.3-1.8,5.9
			s-5.5,9.5-4.7,11.5l-5.8-0.3L807.4,171.8z"/>
		<path id="XMLID_23_" fill="#EEC19C" d="M719,197.1l33.7,6.2c0,0,19.7,0.1,48.5-11.7l6.4,13.8c0,0-21.8,11.9-55,12.2l-37.8-7
			L719,197.1z"/>
		<path id="XMLID_22_" fill="#EEC19C" d="M807.6,205.4c0,0,7.6-6.5,10.3-12.9c2.8-6.3,8.6-8.2,4.8-12.5s-5.6,5.4-12.4,6.3
			c0,0-5.4-10.9,2.8-16.2c8.2-5.3,5.8-9.8,5.8-9.8s-12.4,3.6-15.2,9.9c-2.8,6.3-2.7,21.2-2.7,21.2L807.6,205.4z"/>
		<path id="XMLID_20_" fill="#FFFFFF" d="M803.6,210.2c0,0-8.3,3-18.7,5.7c-10.8,2.9-23.9,5.6-32.1,4.6l-52.3-4.4l-7.2-28.6
			l58.9,14.1l26.3-5.7l18-3.9L803.6,210.2z"/>
		<path id="XMLID_158_" fill="#FFFFFF" d="M685,475.4h49.7c-0.4-1.1-1.2-2.1-2.3-3.1c-8.8-8.1-36.6-13.1-36.6-13.1h-7.3l-2.9,13.1
			L685,475.4z"/>
		<path id="XMLID_157_" fill="#D1D3D4" d="M685,475.4h49.7c-0.4-1.1-1.2-2.1-2.3-3.1h-46.7L685,475.4z"/>
		<polygon id="XMLID_156_" fill="#DBA97F" points="636.6,447.6 634.4,459.2 641.7,459.2 644.2,447.6 		"/>
		<path id="XMLID_155_" fill="#FFFFFF" d="M595.6,475.4h46.2l0-3.1l-0.1-13.1h-7.3c0,0-27.8,4.9-36.6,13.1
			C596.8,473.3,596,474.3,595.6,475.4z"/>
		<path id="XMLID_154_" fill="#D1D3D4" d="M595.6,475.4h46.2l0-3.1h-43.9C596.8,473.3,596,474.3,595.6,475.4z"/>
		<polygon id="XMLID_153_" fill="#DBA97F" points="696.9,447.6 695.9,459.2 688.6,459.2 688.6,447.6 		"/>
		<polygon id="XMLID_152_" points="711.2,300.9 702.4,459.8 684.1,461.3 678.4,308.2 		"/>
		<polygon id="XMLID_151_" points="675.4,313.1 646.5,459.8 630.4,459.8 644.2,302.2 		"/>
		<path id="XMLID_150_" d="M638.8,294.6c6.4,60,78.9,34.6,76.7,0.5C686.8,278.6,650.5,284.3,638.8,294.6z"/>
		<path id="XMLID_147_" fill="#A4A4A5" d="M655.6,179.4c0,0,9.8-2.2,25.2,0l-1.3,6.2h-22.2L655.6,179.4z"/>
		<path id="XMLID_146_" fill="#FFFFFF" d="M635.7,214.2c0,0,13.5,28.2-0.9,81.5c0,0,48.3,24.2,86.7,3.4c0,0,0.1-69.8-28.3-111.6
			l-13-3.6l-21.9,0.4c0,0-15.2,2.3-23.6,9.3L635.7,214.2z"/>
		<path id="XMLID_145_" fill="#DBA97F" d="M658.4,184.4c0,0-4.3,0-0.7,5.8c5.7,9.4,19.4,22.1,25.1,12.1c7-12.1-2.5-18.4-2.5-18.4
			L658.4,184.4z"/>
		<polygon id="XMLID_107_" fill="#FFFFFF" points="673.6,191.3 678,205.8 684,191.7 685.7,192.3 684,207.4 678.4,212.1 667.1,201.7 
					"/>
		<path id="XMLID_95_" fill="#9E1D21" d="M672.5,193.8c0,0,6.1-1.7,11.5,0l1.7,5.8l-4.5,6.9l-5.8,0.3l-5.5-7.2L672.5,193.8z"/>
		<path id="XMLID_94_" fill="#9E1D21" d="M675.4,206.8c0,0,1.8,66.3-0.1,81.8l10.3,10.8l9.1-8.8c0,0-8-63.8-13.6-84.1L675.4,206.8z"
			/>
		<path id="XMLID_92_" fill="#E6E7E8" d="M683.6,192.6l2.9,9.7l2.6-10.6c0,0-1.7-2.7-8.3-12.3l-1.6,4.6
			C679.2,184,682.9,188.2,683.6,192.6z"/>
		<path id="XMLID_39_" fill="#EEC19C" d="M593.2,195.5c0,0-21.3,42.7-9.1,51.1c12.2,8.3,12.5-14.6,18.7-51.1H593.2z"/>
		<path id="XMLID_38_" fill="#DBA97F" d="M608.4,163.1c0,0-8.9-5-13.4-2c-4.5,3-8.3,14.4-6.4,22L608.4,163.1z"/>
		<path id="XMLID_29_" fill="#FFFFFF" d="M605.3,201.7c-0.3,3.7-0.7,7.2-1.1,10.5c-3.2,26.3-8.9,39.7-20.6,36.3
			c-9.1-2.7-3.5-26.3,0.8-40.7c2-6.5,3.7-11.2,3.7-11.2C593.5,201.5,605.3,201.7,605.3,201.7z"/>
		<g id="XMLID_186_">
			<path id="XMLID_18_" fill="#E6E7E8" d="M648.9,210.8c-4.4,0-8.5-0.9-12.4-2.8c-19.6-9.5-25.6-39.1-25.9-40.4l1.7-0.3
				c0.1,0.3,6.1,30.1,24.9,39.2c8.7,4.2,18.3,3.7,29.6-2.1l0.8,1.5C660.8,209.3,654.9,210.8,648.9,210.8z"/>
		</g>
		<path id="XMLID_16_" fill="#EEC19C" d="M591.7,193.7c0,0-7.5-15,0.2-22.8c7.7-7.8,16.1-11.9,20-7.1c3.8,4.8-1.6,7.9-1.6,7.9
			s3.6,4.3,0.9,8.6c0,0,2.3,10.2-9.2,20.1C602,200.3,594.1,200.2,591.7,193.7z"/>
		<path id="XMLID_211_" fill="#DBA97F" d="M633.2,144.6L633.2,144.6c-4.5,0-8.2-3.7-8.2-8.2v-9.7c0-4.5,3.7-8.2,8.2-8.2h0
			c4.5,0,8.2,3.7,8.2,8.2v9.7C641.5,140.9,637.8,144.6,633.2,144.6z"/>
		<path id="XMLID_209_" fill="#DBA97F" d="M707.4,144.6L707.4,144.6c-4.5,0-8.2-3.7-8.2-8.2v-9.7c0-4.5,3.7-8.2,8.2-8.2h0
			c4.5,0,8.2,3.7,8.2,8.2v9.7C715.6,140.9,711.9,144.6,707.4,144.6z"/>
		<path id="XMLID_208_" fill="#DBA97F" d="M680.4,188.9h-20c-0.5,0-0.8-0.4-0.8-0.8v-23.7c0-0.5,0.4-0.8,0.8-0.8h20
			c0.5,0,0.8,0.4,0.8,0.8V188C681.2,188.5,680.8,188.9,680.4,188.9z"/>
		<path id="XMLID_207_" fill="#EEC19C" d="M672.4,177.8h-5.2c-16.6,0-33.9-13.6-33.9-30.2v-46.4c0-16.6,13.6-30.2,30.2-30.2h13.9
			c16.6,0,30.2,13.6,30.2,30.2v41.5C707.4,162.1,691.7,177.8,672.4,177.8z"/>
		<path id="XMLID_206_" fill="#352312" d="M653.7,133L653.7,133c-1.3,0-2.4-1.1-2.4-2.4v-3.2c0-1.3,1.1-2.4,2.4-2.4l0,0
			c1.3,0,2.4,1.1,2.4,2.4v3.2C656.1,131.9,655,133,653.7,133z"/>
		<path id="XMLID_204_" fill="#352312" d="M688.7,133L688.7,133c-1.3,0-2.4-1.1-2.4-2.4v-3.2c0-1.3,1.1-2.4,2.4-2.4l0,0
			c1.3,0,2.4,1.1,2.4,2.4v3.2C691,131.9,690,133,688.7,133z"/>
		<path id="XMLID_203_" fill="#DBA97F" d="M671.4,134.7c0,0,7.4,8.3-2.7,9.9C668.7,144.6,682.7,144.6,671.4,134.7z"/>
		<path id="XMLID_201_" fill="#5F3F2B" d="M663.9,115.2c0,0-16.3-5.6-25.8,4.1c0,0,4.1-14.8,26.3-7.9L663.9,115.2z"/>
		<path id="XMLID_200_" fill="#5F3F2B" d="M679.9,114.6c0,0,13.1-5.4,23.3,3.2c0,0-2.8-14.3-24.4-7.2L679.9,114.6z"/>
		<polygon id="XMLID_199_" fill="#AE7450" points="636.1,99.2 634.4,125 630.6,118.9 628.2,100 		"/>
		<polygon id="XMLID_198_" fill="#AE7450" points="704.8,96.2 705.7,122.5 710.1,118.9 712,94.7 		"/>
		<ellipse id="XMLID_197_" fill="#EFCAAC" cx="647.2" cy="146.8" rx="6.1" ry="3.6"/>
		<ellipse id="XMLID_196_" fill="#EFCAAC" cx="694.4" cy="146.8" rx="6.1" ry="3.6"/>
		<g id="XMLID_189_">
			<polygon id="XMLID_195_" opacity="0.56" points="637.7,123.4 637.7,131.6 640.8,138.6 645.3,141.9 652.2,143.3 659.7,142.2 
				664.5,138.6 667.7,130.2 667.7,124.8 665.3,122.4 655.4,120.2 647.9,120.2 			"/>
			<polygon id="XMLID_194_" opacity="0.56" points="706.8,123.4 706.8,131.6 703.7,138.6 699.3,141.9 692.3,143.3 684.8,142.2 
				680.1,138.6 676.9,130.2 676.9,124.8 679.2,122.4 689.1,120.2 696.6,120.2 			"/>
			<path id="XMLID_190_" fill="#21170E" d="M710.1,123c-0.2-2.6-4.9-2.4-4.9-2.4c-16.1-5.5-29,2.4-29,2.4c-0.4,0.2-0.8,0.4-1.1,0.5
				c-0.7,0.2-1.6,0.3-2.5,0.3c-2.3,0-4.1-0.9-4.1-0.9s-12.9-7.9-29-2.4c0,0-4.7-0.2-4.9,2.4c-0.2,2.6,1.4,1.6,2,6.1
				c0.6,4.5,1.5,15.1,15.9,15.5c15.6,0.5,16.9-13.2,16.9-13.2s1-2.6,2.2-2.7h1.8c1.2,0.1,2.2,2.7,2.2,2.7s1.3,13.7,16.9,13.2
				c14.3-0.4,15.2-11,15.9-15.5C708.6,124.6,710.3,125.6,710.1,123z M663.6,137.8c-3.3,4.6-16.7,7-21.3,0.8
				c-4.4-5.8-3.9-13.9-2.3-14.8c11.1-6.4,25.5-0.3,26.5,1.2C667.4,126.6,667,133.1,663.6,137.8z M702.2,138.5
				c-4.7,6.2-18,3.8-21.3-0.8c-3.4-4.7-3.8-11.2-2.8-12.8c1-1.6,15.4-7.6,26.5-1.2C706.1,124.7,706.7,132.7,702.2,138.5z"/>
		</g>
		<ellipse id="XMLID_188_" fill="#FFFFFF" cx="670.8" cy="98.6" rx="71.7" ry="8.9"/>
		<ellipse id="XMLID_187_" fill="#E6E7E8" cx="670.1" cy="92.8" rx="41.9" ry="5.8"/>
		<path id="XMLID_185_" fill="#F1F2F2" d="M628.2,92.9c0,0-3.5-44.7,17.7-39.9c0,0,38.7-13.9,61.6,3.7c0,0,6,15.1,4.6,36.1
			C712,92.9,665.2,102.7,628.2,92.9z"/>
		<polygon id="XMLID_106_" fill="#E6E7E8" points="655.6,179.4 673.6,191.3 668.2,205.5 653.1,184.8 		"/>
		<path id="XMLID_15_" fill="#A7A9AC" d="M721.5,299.2v5.4c0,0-35.1,20-87.1-3.7l0.4-5.1C634.8,295.7,678.7,318.8,721.5,299.2z"/>
		<rect id="XMLID_14_" x="675.4" y="275.1" fill="#FBB040" width="9.7" height="3.4"/>
		<rect id="XMLID_12_" x="692.1" y="236.3" fill="#E6E7E8" width="16.8" height="2.5"/>
		<g id="XMLID_143_">
			<path id="XMLID_84_" fill="#352312" d="M683.8,156.1c-2.1,2.2-4,3.8-5.8,5c-7.1,4.8-12.3,2.8-15.5-0.3c-3.1-2.9-4.6-6.8-4.6-6.8
				C666.4,160.4,683.8,156.1,683.8,156.1z"/>
			<path id="XMLID_83_" fill="#BE1E2D" d="M677.9,161.1c-7.1,4.8-12.3,2.8-15.5-0.3c1.6-1.2,3.8-2.1,6.2-2.4
				C672.5,158,675.9,159.1,677.9,161.1z"/>
		</g>
		<path id="XMLID_26_" fill="#E6E7E8" d="M605.3,201.7c-0.3,3.7-0.7,7.2-1.1,10.5c-9.5,2.3-17-2.3-19.8-4.4c2-6.5,3.7-11.2,3.7-11.2
			C593.5,201.5,605.3,201.7,605.3,201.7z"/>
		<circle id="XMLID_9_" fill="#A7A9AC" cx="600.8" cy="209.7" r="1.1"/>
		<path id="XMLID_8_" fill="#E6E7E8" d="M803.6,210.2c0,0-8.3,3-18.7,5.7l-6.4-19.9l18-3.9L803.6,210.2z"/>
		<circle id="XMLID_7_" fill="#A7A9AC" cx="798.2" cy="208.6" r="1.1"/>
	</g>
	<g id="XMLID_25_">
		<path id="XMLID_130_" fill="#FFFFFF" d="M1017.7,186.4c0,0,17.2,9.1,22.4,15c0,0,20.1,29,29.2,58.4l-18.8,8.9
			c0,0-14.1-34-20.2-42.7L1017.7,186.4z"/>
		<path id="XMLID_129_" fill="#FFFFFF" d="M973.4,194.8l-8.9,7.7c0,0-26.1,43.9-30.5,63.5l20.1-7.9l11.3-25.2L973.4,194.8z"/>
		<path id="XMLID_128_" fill="#FFFFFF" d="M962.4,476.4h-49.8c0.4-1.1,1.2-2.1,2.3-3.1c8.8-8.1,36.7-13.1,36.7-13.1h7.3l2.9,13.1
			L962.4,476.4z"/>
		<path id="XMLID_127_" fill="#D1D3D4" d="M962.4,476.4h-49.8c0.4-1.1,1.2-2.1,2.3-3.1h46.9L962.4,476.4z"/>
		<path id="XMLID_126_" fill="#FFFFFF" d="M1006.2,476h49.8c-0.4-1.1-1.2-2.1-2.3-3.1c-8.8-8.1-36.7-13.1-36.7-13.1h-7.3l-2.9,13.1
			L1006.2,476z"/>
		<path id="XMLID_125_" fill="#D1D3D4" d="M1006.2,476h49.8c-0.4-1.1-1.2-2.1-2.3-3.1h-46.9L1006.2,476z"/>
		<polygon id="XMLID_124_" fill="#A1A1AA" points="1022.1,370.5 1017.1,459.8 1009.8,459.8 1008.1,370.5 		"/>
		<path id="XMLID_123_" d="M1036.4,300.8c-17.3,50.2-76.2,31.7-74,0.5C990.1,286.2,1025.1,291.4,1036.4,300.8z"/>
		<path id="XMLID_121_" fill="#FFFFFF" d="M1039.1,295.9l-3.2-72.1l-18.2-37.4c0,0-22.9-15.8-53.2,16.1l-2.2,32.3l-6,62.1
			C956.3,297,999.1,305.8,1039.1,295.9z"/>
		<path id="XMLID_120_" fill="#DBA97F" d="M989.5,190h20c0.5,0,0.8-0.4,0.8-0.8v-23.7c0-0.5-0.4-0.8-0.8-0.8h-20
			c-0.5,0-0.8,0.4-0.8,0.8v23.7C988.7,189.6,989,190,989.5,190z"/>
		<path id="XMLID_119_" fill="#DBA97F" d="M1009.2,187.5c0,0,5.1,3.2,1.2,7.9c-5,6.1-8,11.6-11.4,11.6c-3.2,0-5.2-2.4-9.1-10.4
			c-4.9-10,0.1-9.1,0.1-9.1H1009.2z"/>
		<path id="XMLID_108_" fill="#B0B38C" d="M1017.4,460.2h-7.7c0,0-0.3-7.5-0.2-15.7l8.4,0.4L1017.4,460.2z"/>
		<path id="XMLID_104_" fill="#A7A9AC" d="M956.3,301.4c24.3,5.2,68.4,4.3,82.9-0.6l-0.1-4.9c-10,1.5-50.2,5.9-82.8,1.1V301.4z"/>
		<polygon id="XMLID_103_" points="1035.3,303.9 1022.1,460.6 1006.2,460 1003.9,321.4 		"/>
		<polygon id="XMLID_102_" points="966.6,311.5 946.1,460.2 962.4,463.1 997.7,321.4 		"/>
		<circle id="XMLID_101_" fill="#A7A9AC" cx="946.7" cy="312.6" r="1.1"/>
		<polygon id="XMLID_100_" fill="#9E1D21" points="1002.1,200.3 996,200.3 991.8,207 995.1,213.1 1002.9,213.1 1006.8,207 		"/>
		<polygon id="XMLID_99_" fill="#9E1D21" points="1002.9,213.1 1007.8,285.5 998.7,297 989.6,285.6 995.1,213.1 		"/>
		<rect id="XMLID_98_" x="969.6" y="238.7" fill="#E6E7E8" width="16.8" height="2.5"/>
		<path id="XMLID_97_" fill="#E6E7E8" d="M988.7,183.6c0,0,2.9,9.1,7.4,16.7c0,0-4.3,6.8-6.6,12.9c0,0-8.5-12.4-5.7-24.3
			C983.8,188.8,985.6,185.6,988.7,183.6z"/>
		<rect id="XMLID_91_" x="997.7" y="268.8" fill="#FBB040" width="10.1" height="2.5"/>
		<path id="XMLID_89_" fill="#E6E7E8" d="M1011,181.5c0,0-4.6,12.4-9,18.7c0,0,6.5,9.1,7,13.8c0,0,12.3-13.5,8.6-27.7
			C1017.7,186.4,1014.1,183.6,1011,181.5z"/>
		<path id="XMLID_88_" fill="#DBA97F" d="M993.1,233.8c0,0-2.7-7.2-7-7.7c-4.3-0.5-12.5,4.1-15.4,9.3L993.1,233.8z"/>
		<path id="XMLID_87_" fill="#252A26" d="M1001.1,243L1001.1,243c-0.4,0.4-1,0.4-1.3,0l-23.6-22c-0.4-0.4-0.4-1,0-1.3l0,0
			c0.4-0.4,1-0.4,1.3,0l23.6,22C1001.5,242,1001.5,242.6,1001.1,243z"/>
		<path id="XMLID_82_" fill="#EFCAAC" d="M967,242.9c0,0,3.3-12.2,12-12.8c8.7-0.6,15.9,1.2,15.7,5.8s-5.1,3.7-5.1,3.7
			s-0.1,4.2-4,5.3c0,0-2.6,8-14.7,8C971.1,252.8,965.1,247.7,967,242.9z"/>
		<path id="XMLID_81_" fill="#A97C50" d="M1026.1,227.6l8.6,43.9c0.3,1.6-0.8,3.1-2.4,3.4l-31.9,5.4c-1.4,0.2-2.7-0.6-3.2-1.9
			l-14.6-41.1c-0.6-1.6,0.4-3.4,2.1-3.8l37.9-8.2C1024.2,225,1025.8,226,1026.1,227.6z"/>
		<path id="XMLID_80_" fill="#EFCAAC" d="M1060.9,271.6c0,0-10.4,1.2-25.6-3.9l2.8-8.9l25.2-2.4c0,0,8,2.5,4.4,10.5
			C1065.4,272,1060.9,271.6,1060.9,271.6z"/>
		<path id="XMLID_78_" fill="#EFCAAC" d="M1041.7,260.5c0,0,0.2-6.6-6-9.8c-6.2-3.2-4.9-9.9-4.9-9.9s-5.9,0.8-2.2,8.9
			c0,0,2.7,3,1.3,4.9c0,0-22.3-2.5-26,3.5c0,0,3.8,3,11.5,1.4c0,0-10,1.3-10.4,3.3c-0.4,2,3.8,2.9,3.8,2.9s2.1,2.6,4.9,3.1
			c2.8,0.5,12.1,4.1,23.3-2.1C1037,266.7,1041.4,264.8,1041.7,260.5z"/>
		<polygon id="XMLID_77_" fill="#EFCAAC" points="971.1,252.8 966.6,256.3 961.1,247.8 967,242.9 		"/>
		<path id="XMLID_76_" fill="#FFFFFF" d="M940.2,275.7c5.4,2.5,15.8-5.9,22.9-12.7c4.4-4.2,7.6-7.8,7.6-7.8l-7.2-11.6
			c-3.9,1.9-7.4,3.7-10.5,5.5C931.8,261.1,928.8,270.4,940.2,275.7z"/>
		<path id="XMLID_75_" fill="#FFFFFF" d="M1040.1,271.7c0,0,6.7,1.7,13.6,1.9c6.7,0.2,13.6-1.1,14.9-6.8c2.8-11.6-4.6-10.5-4.6-10.5
			s-3.6-0.4-8.1-0.6c-4.1-0.2-9.1-0.1-13,0.6C1042.9,256.3,1042.4,268,1040.1,271.7z"/>
		<path id="XMLID_74_" fill="#EDEDED" d="M952.9,249l10.2,13.9c4.4-4.2,7.6-7.8,7.6-7.8l-7.2-11.6C959.5,245.4,956,247.2,952.9,249z
			"/>
		<path id="XMLID_73_" fill="#EDEDED" d="M1040.1,271.7c0,0,6.7,1.7,13.6,1.9c2.9-5.6,2.6-13.9,2.2-18c-4.1-0.2-9.1-0.1-13,0.6
			C1042.9,256.3,1042.4,268,1040.1,271.7z"/>
		<circle id="XMLID_72_" fill="#D1D3D4" cx="1046.8" cy="270" r="1.3"/>
		<circle id="XMLID_71_" fill="#D1D3D4" cx="962.3" cy="256.6" r="1.3"/>
		<path id="XMLID_70_" fill="#DBA97F" d="M965.1,148.5L965.1,148.5c4.3,0,7.9-3.6,7.9-7.9l0-9.3c0-4.3-3.6-7.9-7.9-7.9l0,0
			c-4.3,0-7.9,3.6-7.9,7.9l0,9.3C957.2,145,960.8,148.6,965.1,148.5z"/>
		<path id="XMLID_69_" fill="#EEC19C" d="M988.2,180.4l4.6,0c18.9-0.1,38.8-13.2,38.8-29.1l-0.2-44.6c-0.1-15.9-13.2-28.9-29.1-28.9
			l-13.3,0.1C973,77.9,960,91,960,106.9l0.2,39.9C960.3,165.3,969.6,180.4,988.2,180.4z"/>
		<path id="XMLID_68_" fill="#352312" d="M1000.3,137.2L1000.3,137.2c1.3,0,2.3-1,2.3-2.3l0-3c0-1.3-1-2.3-2.3-2.3l0,0
			c-1.3,0-2.3,1-2.3,2.3l0,3C998,136.1,999,137.2,1000.3,137.2z"/>
		<path id="XMLID_67_" fill="#352312" d="M973.3,137.3L973.3,137.3c1.3,0,2.3-1,2.3-2.3l0-3c0-1.3-1-2.3-2.3-2.3l0,0
			c-1.3,0-2.3,1-2.3,2.3l0,3C971,136.3,972.1,137.3,973.3,137.3z"/>
		<path id="XMLID_66_" fill="#DBA97F" d="M983.2,140.8c0,0-7.1,8,2.6,9.5C985.8,150.3,972.4,150.4,983.2,140.8z"/>
		
			<ellipse id="XMLID_63_" transform="matrix(-1 3.775900e-03 -3.775900e-03 -1 2018.243 285.9315)" fill="#EFCAAC" cx="1008.9" cy="144.9" rx="5.8" ry="3.5"/>
		
			<ellipse id="XMLID_148_" transform="matrix(-1 3.775900e-03 -3.775900e-03 -1 1933.684 286.4104)" fill="#EFCAAC" cx="966.6" cy="145" rx="5.3" ry="3.5"/>
		<path id="XMLID_62_" fill="#5F3F2B" d="M991,120.5c0,0,12.3-6.9,23.9-0.5c0,0-6.8-11.9-24.8-3.2L991,120.5z"/>
		<path id="XMLID_57_" fill="#5F3F2B" d="M978.3,120c0,0-7.7-7.2-17-0.2c0,0,2.1-11.8,17.9-3.4L978.3,120z"/>
		<path id="XMLID_56_" fill="#AE7450" d="M960.3,103c0.3-3.9,2.5-8.5,2.5-8.5s12.4,7.3,30.6,0.3c18.3-6.9,23.6,3.2,23.6,3.2
			s2.7,5.7,2.8,16.5c0.2,29.2,4.1,39.6,4.1,39.6s-1.5-6.7-1-19.8c0.4-10.5,8.4-11.1,8.4-11.1c2.5,0,5.9,2.6,5.9,2.6
			c1.7-10.3,2.5-19.2,1.6-27.2c-5.7-6-15.7-13-29.7-10.7c-20.9,3.5-44.2,14.4-47.9-5.1C959.9,93.7,960.3,103,960.3,103z"/>
		<g id="XMLID_45_">
			<polygon id="XMLID_55_" opacity="0.56" points="1014.9,126.6 1014.9,134.8 1012.4,141.8 1008.7,145.1 1003,146.5 996.7,145.5 
				992.8,141.9 990.1,133.5 990,128.1 992,125.7 1000.2,123.4 1006.4,123.4 			"/>
			<polygon id="XMLID_54_" opacity="0.56" points="957.5,126.8 957.6,135 960.1,142 963.8,145.3 969.6,146.7 975.9,145.5 
				979.8,141.9 982.4,133.6 982.4,128.1 980.4,125.7 972.2,123.6 966,123.6 			"/>
			<path id="XMLID_50_" fill="#21170E" d="M956.5,132.5c0.5,4.5,1.3,15.1,13.2,15.4c13,0.4,14-13.3,14-13.3s0.8-2.6,1.8-2.7l1.5,0
				c1,0.1,1.8,2.7,1.8,2.7s1.1,13.7,14.1,13.1c11.9-0.5,12.6-11.1,13.1-15.5c0.5-4.5,1.8-3.5,1.7-6.1c-0.2-2.6-4.1-2.4-4.1-2.4
				c-13.4-5.4-24.1,2.5-24.1,2.5s-1.5,0.9-3.4,0.9c-0.8,0-1.5-0.1-2.1-0.3c-0.3-0.2-0.6-0.4-0.9-0.5c0,0-10.8-7.9-24.1-2.3
				c0,0-3.9-0.2-4.1,2.5C954.7,129,956,128,956.5,132.5z M991.1,128.3c0.8-1.6,12.8-7.7,22-1.3c1.3,0.9,1.8,8.9-1.9,14.8
				c-3.9,6.2-15,3.9-17.7-0.7C990.6,136.4,990.2,129.9,991.1,128.3z M959.4,127.2c9.2-6.4,21.1-0.4,22,1.1c0.9,1.6,0.5,8.1-2.3,12.8
				c-2.7,4.6-13.8,7-17.7,0.8C957.7,136.1,958.1,128.1,959.4,127.2z"/>
		</g>
		<polygon id="XMLID_43_" fill="#21170E" points="1013.5,123.7 1031.4,123.1 1031.5,125.5 1014.9,127.7 		"/>
		<path id="XMLID_42_" fill="#EEC19C" d="M1031.5,148.3L1031.5,148.3c4.3,0,7.9-3.6,7.9-7.9l0-9.3c0-4.3-3.6-7.9-7.9-7.9l0,0
			c-4.3,0-7.9,3.6-7.9,7.9l0,9.3C1023.6,144.8,1027.2,148.3,1031.5,148.3z"/>
		<path id="XMLID_40_" fill="#DBA97F" d="M1027.6,142.7c0,0-2.8-13.2,3.7-15.3c0,0-2.9,4.4-1.4,7.7c0,0,2.4,0.2,2.5,4.3
			C1032.5,143.5,1028.7,144.3,1027.6,142.7z"/>
		<g id="XMLID_27_">
			
				<ellipse id="XMLID_32_" transform="matrix(-1 9.725212e-03 -9.725212e-03 -1 1994.4967 197.1152)" fill="#FFFFFF" cx="996.8" cy="103.4" rx="71.7" ry="8.9"/>
			
				<ellipse id="XMLID_31_" transform="matrix(-1 9.725212e-03 -9.725212e-03 -1 1995.6753 185.5099)" fill="#E6E7E8" cx="997.4" cy="97.6" rx="41.9" ry="5.8"/>
			<path id="XMLID_28_" fill="#F1F2F2" d="M1039.3,97.2c0,0,3-44.7-18.1-39.7c0,0-38.8-13.5-61.5,4.3c0,0-5.9,15.2-4.3,36.2
				C955.5,98,1002.4,107.4,1039.3,97.2z"/>
		</g>
		<path id="XMLID_49_" fill="#5F3F2B" d="M998.7,162c0,0-2.7,6.6-12.9,4.6v1.5c0,0,10.1,2.3,13.9-4.8L998.7,162z"/>
	</g>
	<g id="XMLID_35_">
		<path id="XMLID_251_" fill="#EEC19C" d="M254.1,653.2l-3.6,0.5c0,0,0.4,7.5-8.3,10.7s-9.3-1.9-3.7-3.9c5.6-2,4.9-5.2,4.9-5.2
			s-14.7-1.5-19.1,8.2c0,0-3.6,4.1-4.7-1.6c0,0-1.4-3.7,0.6-7.8c2-4.1,13.3-14.3,26.8-11l2.2,1.6l6-0.9L254.1,653.2z"/>
		<path id="XMLID_250_" fill="#FFFFFF" d="M250.9,641.9l3,15.6l15.8,0.7l73.3,3.2c0,0,20.2-16.5,18.1-28.4l-94,7.6L250.9,641.9z"/>
		<polygon id="XMLID_249_" fill="#E6E7E8" points="250.9,641.9 253.9,657.5 269.7,658.2 267,640.5 		"/>
		<circle id="XMLID_248_" fill="#A7A9AC" cx="260.3" cy="654.9" r="1.1"/>
		<path id="XMLID_247_" fill="#FFFFFF" d="M379,925.9h49.8c-0.4-1.1-1.2-2.1-2.3-3.1c-8.8-8.1-36.7-13.1-36.7-13.1h-7.3l-2.9,13.1
			L379,925.9z"/>
		<path id="XMLID_246_" fill="#D1D3D4" d="M379,925.9h49.8c-0.4-1.1-1.2-2.1-2.3-3.1h-46.9L379,925.9z"/>
		<polygon id="XMLID_245_" fill="#A1A1AA" points="397.5,820.4 392.5,909.7 385.2,909.7 383.5,820.4 		"/>
		<path id="XMLID_244_" fill="#B0B38C" d="M392.8,910.1h-7.7c0,0-0.3-7.5-0.2-15.7l8.4,0.4L392.8,910.1z"/>
		<path id="XMLID_243_" fill="#FFFFFF" d="M369.9,925.4h-49.8c0.4-1.1,1.2-2.1,2.3-3.1c8.8-8.1,36.7-13.1,36.7-13.1h7.3l2.9,13.1
			L369.9,925.4z"/>
		<path id="XMLID_242_" fill="#D1D3D4" d="M369.9,925.4h-49.8c0.4-1.1,1.2-2.1,2.3-3.1h46.9L369.9,925.4z"/>
		<polygon id="XMLID_241_" fill="#A1A1AA" points="354,819.9 359,909.2 366.3,909.2 368,819.9 		"/>
		<path id="XMLID_240_" d="M338.1,750.3c17.3,50.2,76.2,31.7,74,0.5C384.5,735.6,349.4,740.8,338.1,750.3z"/>
		<path id="XMLID_239_" fill="#FFFFFF" d="M335.5,745.3v-87.2l18.3-24.4c0,0,12.3-4.6,42.8-1.8l15.7,28.3l6,86.2
			C418.2,746.4,375.5,755.3,335.5,745.3z"/>
		<path id="XMLID_238_" fill="#DBA97F" d="M385.1,639.4h-20c-0.5,0-0.8-0.4-0.8-0.8v-23.7c0-0.5,0.4-0.8,0.8-0.8h20
			c0.5,0,0.8,0.4,0.8,0.8v23.7C385.9,639,385.5,639.4,385.1,639.4z"/>
		<path id="XMLID_237_" fill="#DBA97F" d="M365.4,637c0,0-5.1,3.2-1.2,7.9c5,6.1,8,11.6,11.4,11.6c3.2,0,5.2-2.4,9.1-10.4
			c4.9-10-0.1-9.1-0.1-9.1H365.4z"/>
		<path id="XMLID_236_" fill="#B0B38C" d="M358.7,909.7h7.7c0,0,0.3-7.5,0.2-15.7l-8.4,0.4L358.7,909.7z"/>
		<path id="XMLID_235_" fill="#A7A9AC" d="M418.2,750.8c-24.3,5.2-68.4,4.3-82.9-0.6l0.1-4.9c10,1.5,50.2,5.9,82.8,1.1V750.8z"/>
		<polygon id="XMLID_234_" points="344.3,761.5 354,910 369.9,909.5 373.9,771.4 		"/>
		<polygon id="XMLID_233_" points="407.1,761.9 397.3,910.5 381.4,909.9 377.4,771.9 		"/>
		<path id="XMLID_232_" fill="#EEC19C" d="M498.1,652.2l3.6,0.5c0,0-0.4,7.5,8.3,10.7c8.7,3.1,9.3-1.9,3.7-3.9
			c-5.6-2-4.9-5.2-4.9-5.2s14.7-1.5,19.1,8.2c0,0,3.6,4.1,4.7-1.6c0,0,1.4-3.7-0.6-7.8c-2-4.1-13.3-14.3-26.8-11l-2.2,1.6l-6-0.9
			L498.1,652.2z"/>
		<polygon id="XMLID_231_" fill="#9E1D21" points="372.5,649.7 378.5,649.7 382.8,656.5 379.4,662.6 371.7,662.6 367.8,656.5 		"/>
		<polygon id="XMLID_230_" fill="#9E1D21" points="371.7,662.6 366.8,734.9 375.9,746.4 384.9,735.1 379.4,662.6 		"/>
		<rect id="XMLID_229_" x="388.1" y="688.2" fill="#E6E7E8" width="16.8" height="2.5"/>
		<path id="XMLID_228_" fill="#E6E7E8" d="M385.9,628.4c0,0-2.9,13.7-7.4,21.3c0,0,4.3,6.8,6.6,12.9c0,0,10-18.6,7.2-30.5
			C392.3,632,389,630.4,385.9,628.4z"/>
		<rect id="XMLID_227_" x="366.8" y="718.2" fill="#FBB040" width="10.1" height="2.5"/>
		<path id="XMLID_226_" fill="#E6E7E8" d="M364.7,628.4c0,0,3.5,15,7.8,21.3c0,0-6.5,9.1-7,13.8c0,0-11.6-16.4-7.9-30.5
			C357.6,633,361.6,630.4,364.7,628.4z"/>
		<path id="XMLID_225_" fill="#FFFFFF" d="M501.4,640.9l-3,15.6l-15.8,0.7l-73.3,3.2c0,0-14.9-16.5-12.8-28.4l88.7,7.6L501.4,640.9z
			"/>
		<polygon id="XMLID_224_" fill="#E6E7E8" points="501.4,640.9 498.4,656.5 482.6,657.2 485.2,639.5 		"/>
		<circle id="XMLID_223_" fill="#A7A9AC" cx="492" cy="653.9" r="1.1"/>
		<path id="XMLID_222_" fill="#DBA97F" d="M409,596.5L409,596.5c-4.3,0-7.9-3.6-7.9-7.9l0-9.3c0-4.3,3.6-7.9,7.9-7.9h0
			c4.3,0,7.9,3.6,7.9,7.9l0,9.3C416.9,593,413.4,596.6,409,596.5z"/>
		<path id="XMLID_221_" fill="#EEC19C" d="M386,628.4l-4.6,0c-18.9-0.1-38.8-13.2-38.8-29.1l0.2-44.6c0.1-15.9,13.2-28.9,29.1-28.9
			l13.3,0.1c15.9,0.1,28.9,13.2,28.9,29.1l-0.2,39.9C413.9,613.3,404.5,628.4,386,628.4z"/>
		<path id="XMLID_220_" fill="#352312" d="M373.8,585.2L373.8,585.2c-1.3,0-2.3-1-2.3-2.3l0-3c0-1.3,1-2.3,2.3-2.3l0,0
			c1.3,0,2.3,1,2.3,2.3l0,3C376.1,584.1,375.1,585.2,373.8,585.2z"/>
		<path id="XMLID_219_" fill="#352312" d="M400.8,585.3L400.8,585.3c-1.3,0-2.3-1-2.3-2.3l0-3c0-1.3,1-2.3,2.3-2.3l0,0
			c1.3,0,2.3,1,2.3,2.3l0,3C403.1,584.3,402.1,585.3,400.8,585.3z"/>
		<path id="XMLID_218_" fill="#DBA97F" d="M390.9,588.8c0,0,7.1,8-2.6,9.5C388.3,598.3,401.7,598.4,390.9,588.8z"/>
		
			<ellipse id="XMLID_217_" transform="matrix(1 3.775900e-03 -3.775900e-03 1 2.2412 -1.375)" fill="#EFCAAC" cx="365.3" cy="592.9" rx="5.8" ry="3.5"/>
		
			<ellipse id="XMLID_216_" transform="matrix(1 3.775900e-03 -3.775900e-03 1 2.2421 -1.5347)" fill="#EFCAAC" cx="407.6" cy="593" rx="5.3" ry="3.5"/>
		<path id="XMLID_215_" fill="#5F3F2B" d="M383.1,568.5c0,0-12.3-6.9-23.9-0.5c0,0,6.8-11.9,24.8-3.2L383.1,568.5z"/>
		<path id="XMLID_214_" fill="#5F3F2B" d="M395.8,568c0,0,7.7-7.2,17-0.2c0,0-2.1-11.8-17.9-3.4L395.8,568z"/>
		<path id="XMLID_213_" fill="#AE7450" d="M413.8,551c-0.3-3.9-2.5-8.5-2.5-8.5s-12.4,7.3-30.6,0.3c-18.3-6.9-23.6,3.2-23.6,3.2
			s-2.7,5.7-2.8,16.5c-0.2,29.2-4.1,39.6-4.1,39.6s1.5-6.7,1-19.8c-0.4-10.5-8.4-11.1-8.4-11.1c-2.5,0-5.9,2.6-5.9,2.6
			c-1.7-10.3-2.5-19.2-1.6-27.2c5.7-6,15.7-13,29.7-10.7c20.9,3.5,44.2,14.4,47.9-5.1C414.2,541.7,413.8,551,413.8,551z"/>
		<g id="XMLID_149_">
			<polygon id="XMLID_212_" opacity="0.56" points="359.2,574.6 359.2,582.8 361.7,589.8 365.4,593.1 371.2,594.5 377.4,593.5 
				381.4,589.9 384.1,581.5 384.1,576.1 382.1,573.7 373.9,571.4 367.7,571.4 			"/>
			<polygon id="XMLID_210_" opacity="0.56" points="416.6,574.8 416.6,583 414,590 410.3,593.3 404.5,594.7 398.2,593.5 
				394.3,589.9 391.7,581.6 391.7,576.1 393.7,573.7 401.9,571.6 408.2,571.6 			"/>
			<path id="XMLID_159_" fill="#21170E" d="M419.3,574.4c-0.2-2.6-4.1-2.5-4.1-2.5c-13.4-5.5-24.1,2.3-24.1,2.3
				c-0.3,0.2-0.7,0.3-0.9,0.5c-0.6,0.2-1.3,0.3-2.1,0.3c-1.9,0-3.4-0.9-3.4-0.9s-10.7-8-24.1-2.5c0,0-3.9-0.2-4.1,2.4
				c-0.2,2.6,1.2,1.6,1.7,6.1c0.5,4.5,1.2,15.1,13.1,15.5c13,0.5,14.1-13.1,14.1-13.1s0.8-2.6,1.8-2.7l1.5,0c1,0.1,1.8,2.7,1.8,2.7
				s1,13.7,14,13.3c11.9-0.4,12.7-11,13.2-15.4C418.1,576,419.5,577,419.3,574.4z M380.7,589.1c-2.8,4.6-13.9,6.9-17.7,0.7
				c-3.6-5.9-3.2-13.9-1.9-14.8c9.2-6.4,21.2-0.3,22,1.3C383.9,577.9,383.5,584.4,380.7,589.1z M412.7,590c-3.9,6.2-15,3.8-17.7-0.8
				c-2.8-4.7-3.1-11.2-2.3-12.8c0.9-1.6,12.8-7.6,22-1.1C416,576.1,416.4,584.1,412.7,590z"/>
		</g>
		<polygon id="XMLID_144_" fill="#21170E" points="360.6,571.7 342.7,571.1 342.7,573.5 359.2,575.7 		"/>
		<path id="XMLID_136_" fill="#EEC19C" d="M342.6,596.3L342.6,596.3c-4.3,0-7.9-3.6-7.9-7.9l0-9.3c0-4.3,3.6-7.9,7.9-7.9h0
			c4.3,0,7.9,3.6,7.9,7.9l0,9.3C350.5,592.8,347,596.3,342.6,596.3z"/>
		<path id="XMLID_135_" fill="#DBA97F" d="M346.5,590.7c0,0,2.8-13.2-3.7-15.3c0,0,2.9,4.4,1.4,7.7c0,0-2.4,0.2-2.5,4.3
			C341.6,591.5,345.4,592.3,346.5,590.7z"/>
		<g id="XMLID_131_">
			
				<ellipse id="XMLID_134_" transform="matrix(1 9.725212e-03 -9.725212e-03 1 5.3804 -3.6438)" fill="#FFFFFF" cx="377.4" cy="551.4" rx="71.7" ry="8.9"/>
			
				<ellipse id="XMLID_133_" transform="matrix(1 9.725212e-03 -9.725212e-03 1 5.3239 -3.6381)" fill="#E6E7E8" cx="376.7" cy="545.6" rx="41.9" ry="5.8"/>
			<path id="XMLID_132_" fill="#F1F2F2" d="M334.8,545.2c0,0-3-44.7,18.1-39.7c0,0,38.8-13.5,61.5,4.3c0,0,5.9,15.2,4.3,36.2
				C418.7,546,371.7,555.4,334.8,545.2z"/>
		</g>
		<path id="XMLID_59_" fill="#FFFFFF" d="M395.1,607.4c0,0-11.2,4.4-20.7,0C374.4,607.4,384,617.5,395.1,607.4z"/>
	</g>
	<g id="XMLID_252_">
		<path id="XMLID_320_" fill="#EEC19C" d="M765,743.1l5.3,3.1c0,0,12.4-8.6,13.9,2.5s-9.4,13.3-9.4,13.3s-2.8-7,4.7-11.8l-11.8,5.6
			l-7.8-3.9L765,743.1z"/>
		<path id="XMLID_319_" fill="#EEC19C" d="M779.9,746.7c0,0,9.9,0.6,9.4,8s-7.2,14.1-12.8,11c-5.6-3.1-9.4-5.8-11.2-12.9
			L779.9,746.7z"/>
		<path id="XMLID_318_" fill="#DBA97F" d="M619.6,771.6c0,0,5.7,15.2-6.4,13.6L619.6,771.6z"/>
		<path id="XMLID_317_" fill="#EEC19C" d="M620.5,754.5l-3.4,8.7c0,0,6.3,12.1-0.7,19.5c-7,7.4-10.3-0.4-10.3-0.4s-5.6-1.6-5.3-5.4
			c0,0-4.8-3.2-3.9-7.2c0.9-4,7.9-11.7,11.2-12l4-8.8L620.5,754.5z"/>
		<polygon id="XMLID_316_" fill="#C3C3C4" points="669.8,636.8 697,639.9 696.9,646.6 670.3,645 		"/>
		<polygon id="XMLID_315_" fill="#EEC19C" points="645.9,877.9 625.7,892.6 620.1,884.9 638.2,870.1 		"/>
		<path id="XMLID_314_" fill="#FFFFFF" d="M605.8,891.9l29.9,37.4c0.6-1,0.9-2.2,1-3.6c0.8-11.5-12.1-35.4-12.1-35.4l-4.4-5.5
			l-11.6,5.6L605.8,891.9z"/>
		<path id="XMLID_313_" fill="#D1D3D4" d="M605.8,891.9l29.9,37.4c0.6-1,0.9-2.2,1-3.6l-28.1-35.2L605.8,891.9z"/>
		<polygon id="XMLID_312_" fill="#EEC19C" points="740.3,885.2 744.5,909.8 735.2,911.3 730,888.5 		"/>
		<path id="XMLID_311_" fill="#FFFFFF" d="M735.1,927.2l46.8-10.1c-0.6-0.9-1.6-1.7-2.8-2.4c-9.9-5.8-37.1-4.8-37.1-4.8l-6.8,1.5
			l-0.1,12.9L735.1,927.2z"/>
		<path id="XMLID_310_" fill="#D1D3D4" d="M735.1,927.2l46.8-10.1c-0.6-0.9-1.6-1.7-2.8-2.4l-44,9.5L735.1,927.2z"/>
		<path id="XMLID_309_" d="M684.2,776.3c31.3,53,47.3,137.9,47.3,137.9l15.6-4.3c-5.4-79.1-37.1-154.1-37.1-154.1L684.2,776.3z"/>
		<path id="XMLID_308_" fill="#DBA97F" d="M719.3,603L719.3,603c-4.3,0-7.9-3.6-7.9-7.9l0-9.3c0-4.3,3.6-7.9,7.9-7.9h0
			c4.3,0,7.9,3.6,7.9,7.9l0,9.3C727.3,599.4,723.7,603,719.3,603z"/>
		<path id="XMLID_307_" d="M647.3,755.7c11.2,59.1,80,39.8,72.1-2.1C692.3,738.2,657.8,745.2,647.3,755.7z"/>
		<path id="XMLID_306_" fill="#FFFFFF" d="M712.7,688.9c5.8,45.6,8.4,67.4,8.4,67.4c-19.4,4.5-52.7,8.7-76.1-0.4
			c0,0-0.3-17.4,2.1-56.7c2.3-38.5,9.9-60.1,32.1-59.8l8.5,2.1C705.5,640.8,708.5,655.3,712.7,688.9z"/>
		<polygon id="XMLID_305_" fill="#DBA97F" points="695.8,647.2 673.7,646.5 674.7,622.5 697,622.5 		"/>
		<path id="XMLID_304_" fill="#EEC19C" d="M696.3,634.8l-4.6,0c-18.9-0.1-38.8-13.2-38.8-29.1l0.2-44.6
			c0.1-15.9,13.2-28.9,29.1-28.9l13.3,0.1c15.9,0.1,28.9,13.2,28.9,29.1l-0.2,39.9C724.2,619.7,714.8,634.9,696.3,634.8z"/>
		<path id="XMLID_303_" fill="#352312" d="M684.2,591.6L684.2,591.6c-1.3,0-2.3-1-2.3-2.3l0-3c0-1.3,1-2.3,2.3-2.3l0,0
			c1.3,0,2.3,1,2.3,2.3l0,3C686.5,590.6,685.4,591.6,684.2,591.6z"/>
		<path id="XMLID_302_" fill="#352312" d="M711.1,591.7L711.1,591.7c-1.3,0-2.3-1-2.3-2.3l0-3c0-1.3,1-2.3,2.3-2.3l0,0
			c1.3,0,2.3,1,2.3,2.3l0,3C713.4,590.7,712.4,591.7,711.1,591.7z"/>
		<path id="XMLID_301_" fill="#DBA97F" d="M701.2,595.2c0,0,7.1,8-2.6,9.5C698.6,604.7,712.1,604.8,701.2,595.2z"/>
		
			<ellipse id="XMLID_300_" transform="matrix(1 3.775900e-03 -3.775900e-03 1 2.2677 -2.5468)" fill="#EFCAAC" cx="675.6" cy="599.3" rx="5.8" ry="3.5"/>
		
			<ellipse id="XMLID_299_" transform="matrix(1 3.775900e-03 -3.775900e-03 1 2.2686 -2.7064)" fill="#EFCAAC" cx="717.9" cy="599.5" rx="5.3" ry="3.5"/>
		<path id="XMLID_298_" fill="#5F3F2B" d="M693.4,574.9c0,0-12.3-6.9-23.9-0.5c0,0,6.8-11.9,24.8-3.2L693.4,574.9z"/>
		<path id="XMLID_297_" fill="#5F3F2B" d="M706.2,574.4c0,0,7.7-7.2,17-0.2c0,0-2.1-11.8-17.9-3.4L706.2,574.4z"/>
		<polygon id="XMLID_296_" points="691,785.4 684.7,857.2 628.2,900.8 617.2,884.4 659.2,844.9 657.5,768.4 		"/>
		<polygon id="XMLID_295_" fill="#E6E7E8" points="694.4,647.2 699.1,659.8 699.4,644.3 697,639.9 		"/>
		<path id="XMLID_294_" fill="#FFFFFF" d="M668.8,641.4c-9.5,12.5-10.8,43.5-10.8,43.5l-30.4,62.1l-7.1,14.6l-14.8-7.1l4.8-14.2
			l28.9-86.1L668.8,641.4z"/>
		<path id="XMLID_293_" fill="#FFFFFF" d="M768.4,743l-6.8,13.5l-12-6.4l-31.1-16.5l-12.6-42.8c0,0,5.1-30.6-6.3-46.6l17.6,14.1
			l14.3,57.6l25.7,18.7L768.4,743z"/>
		<polygon id="XMLID_292_" fill="#9A1C1F" points="691,647.2 694.4,647.2 697.6,655.8 696,660.9 691.5,661.2 687.7,656.7 		"/>
		<polygon id="XMLID_291_" fill="#9A1C1F" points="691.3,659.8 689.3,743 699.1,754.1 705.8,739.6 696,659.4 		"/>
		<path id="XMLID_289_" fill="#AE7450" d="M724.2,557.4c-0.3-3.9-2.5-8.5-2.5-8.5s-12.4,7.3-30.6,0.3c-18.3-6.9-23.6,3.2-23.6,3.2
			s-2.7,5.7-2.8,16.5c-0.2,29.2-4.1,39.6-4.1,39.6s1.5-6.7,1-19.8c-0.4-10.5-8.4-11.1-8.4-11.1c-2.5,0-5.9,2.6-5.9,2.6
			c-1.7-10.3-2.5-19.2-1.6-27.2c5.7-6,15.7-13,29.7-10.7c20.9,3.5,44.2,14.4,47.9-5.1C724.6,548.1,724.2,557.4,724.2,557.4z"/>
		<g id="XMLID_284_">
			<path id="XMLID_288_" fill="#352312" d="M707.3,616.3c-2.3,1.9-4.4,3.4-6.3,4.4c-7.6,4-12.5,1.5-15.4-1.9
				c-2.8-3.2-3.9-7.2-3.9-7.2C689.6,618.8,707.3,616.3,707.3,616.3z"/>
			<path id="XMLID_286_" fill="#BE1E2D" d="M701,620.7c-7.6,4-12.5,1.5-15.4-1.9c1.7-1,4-1.7,6.5-1.7
				C695.8,617,699.2,618.5,701,620.7z"/>
		</g>
		<polygon id="XMLID_282_" fill="#FBB040" points="688.4,728.2 688.4,731.5 697.5,731 697.5,728.2 		"/>
		<path id="XMLID_281_" fill="#A7A9AC" d="M645,755.8l0,6.4c0,0,33.8,11.1,77.4,0l-1.3-6C721.1,756.3,681,764.2,645,755.8z"/>
		<g id="XMLID_267_">
			<polygon id="XMLID_280_" opacity="0.56" points="669.6,581 669.5,589.2 672,596.2 675.7,599.6 681.5,601 687.8,599.9 
				691.7,596.3 694.4,588 694.4,582.5 692.5,580.1 684.3,577.9 678,577.8 			"/>
			<polygon id="XMLID_278_" opacity="0.56" points="726.9,581.3 726.9,589.4 724.3,596.4 720.6,599.7 714.8,601.1 708.6,600 
				704.7,596.3 702,588 702.1,582.5 704,580.2 712.3,578 718.5,578 			"/>
			<path id="XMLID_268_" fill="#21170E" d="M729.6,580.8c-0.2-2.6-4.1-2.5-4.1-2.5c-13.4-5.5-24.1,2.3-24.1,2.3
				c-0.3,0.2-0.7,0.3-0.9,0.5c-0.6,0.2-1.3,0.3-2.1,0.3c-1.9,0-3.4-0.9-3.4-0.9s-10.7-8-24.1-2.5c0,0-3.9-0.2-4.1,2.4
				c-0.2,2.6,1.2,1.6,1.7,6.1c0.5,4.5,1.2,15.1,13.1,15.5c13,0.5,14.1-13.1,14.1-13.1s0.8-2.6,1.8-2.7l1.5,0c1,0.1,1.8,2.7,1.8,2.7
				s1,13.7,14,13.3c11.9-0.4,12.7-11,13.2-15.4C728.4,582.5,729.8,583.5,729.6,580.8z M691,595.5c-2.8,4.6-13.9,6.9-17.7,0.7
				c-3.6-5.9-3.2-13.9-1.9-14.8c9.2-6.4,21.2-0.3,22,1.3C694.2,584.3,693.8,590.8,691,595.5z M723.1,596.4c-3.9,6.2-15,3.8-17.7-0.8
				c-2.8-4.7-3.1-11.2-2.3-12.8c0.9-1.6,12.8-7.6,22-1.1C726.4,582.5,726.8,590.6,723.1,596.4z"/>
		</g>
		<polygon id="XMLID_266_" fill="#21170E" points="670.9,578.2 653.1,577.6 653,579.9 669.5,582.2 		"/>
		<path id="XMLID_265_" fill="#EEC19C" d="M653,602.7L653,602.7c-4.3,0-7.9-3.6-7.9-7.9l0-9.3c0-4.3,3.6-7.9,7.9-7.9h0
			c4.3,0,7.9,3.6,7.9,7.9l0,9.3C660.9,599.2,657.3,602.7,653,602.7z"/>
		<path id="XMLID_264_" fill="#DBA97F" d="M656.9,597.1c0,0,2.8-13.2-3.7-15.3c0,0,2.9,4.4,1.4,7.7c0,0-2.4,0.2-2.5,4.3
			C652,597.9,655.7,598.7,656.9,597.1z"/>
		<g id="XMLID_259_">
			
				<ellipse id="XMLID_263_" transform="matrix(1 9.725212e-03 -9.725212e-03 1 5.4576 -6.6616)" fill="#FFFFFF" cx="687.7" cy="557.8" rx="71.7" ry="8.9"/>
			
				<ellipse id="XMLID_261_" transform="matrix(1 9.725212e-03 -9.725212e-03 1 5.4012 -6.6558)" fill="#E6E7E8" cx="687.1" cy="552" rx="41.9" ry="5.8"/>
			<path id="XMLID_260_" fill="#F1F2F2" d="M645.1,551.6c0,0-3-44.7,18.1-39.7c0,0,38.8-13.5,61.5,4.3c0,0,5.9,15.2,4.3,36.2
				C729,552.5,682,561.9,645.1,551.6z"/>
		</g>
		<polygon id="XMLID_258_" fill="#E6E7E8" points="669.8,636.8 691,647.2 686.6,659.8 665.6,642.8 		"/>
		<polygon id="XMLID_257_" fill="#E6E7E8" points="627.6,746.9 620.5,761.5 605.7,754.4 610.4,740.2 		"/>
		<circle id="XMLID_256_" fill="#A7A9AC" cx="609.7" cy="752" r="1.1"/>
		<polygon id="XMLID_255_" fill="#E6E7E8" points="768.4,743 761.6,756.6 749.5,750.2 757,734.7 		"/>
		<circle id="XMLID_254_" fill="#A7A9AC" cx="759.9" cy="752" r="1.1"/>
		<rect id="XMLID_253_" x="705" y="685.7" fill="#E6E7E8" width="7.7" height="2.5"/>
	</g>
	<g id="XMLID_321_">
		<path id="XMLID_374_" fill="#EEC19C" d="M293.1,104.9c0,0-4.4-39.1-10.7-37.6c-6.3,1.5-1.1,19-0.6,26.9c0,0-21,3.9-18.8,16.7
			c2,11.9,10.4,17.8,14.8,17.7L293.1,104.9z"/>
		<polygon id="XMLID_373_" fill="#EEC19C" points="280,136.1 277.7,128.6 289.3,125.9 291.4,134.3 		"/>
		<path id="XMLID_372_" fill="#FFFFFF" d="M377.7,476.7h49.8c-0.4-1.1-1.2-2.1-2.3-3.1c-8.8-8.1-36.7-13.1-36.7-13.1h-7.3l-2.9,13.1
			L377.7,476.7z"/>
		<path id="XMLID_371_" fill="#D1D3D4" d="M377.7,476.7h49.8c-0.4-1.1-1.2-2.1-2.3-3.1h-46.9L377.7,476.7z"/>
		<polygon id="XMLID_370_" fill="#A1A1AA" points="396.2,371.2 391.2,460.5 383.9,460.5 382.2,371.2 		"/>
		<path id="XMLID_369_" fill="#B0B38C" d="M391.5,461h-7.7c0,0-0.3-7.5-0.2-15.7l8.4,0.4L391.5,461z"/>
		<path id="XMLID_368_" fill="#FFFFFF" d="M368.6,476.2h-49.8c0.4-1.1,1.2-2.1,2.3-3.1c8.8-8.1,36.7-13.1,36.7-13.1h7.3l2.9,13.1
			L368.6,476.2z"/>
		<path id="XMLID_367_" fill="#D1D3D4" d="M368.6,476.2h-49.8c0.4-1.1,1.2-2.1,2.3-3.1H368L368.6,476.2z"/>
		<polygon id="XMLID_366_" fill="#A1A1AA" points="352.8,370.7 357.7,460 365,460 366.7,370.7 		"/>
		<path id="XMLID_365_" d="M336.9,301.1c17.3,50.2,76.2,31.7,74,0.5C383.2,286.4,348.2,291.6,336.9,301.1z"/>
		<path id="XMLID_364_" fill="#DBA97F" d="M336.7,146L336.7,146c-4.5,0-8.2-3.7-8.2-8.2v-9.7c0-4.5,3.7-8.2,8.2-8.2h0
			c4.5,0,8.2,3.7,8.2,8.2v9.7C344.9,142.3,341.2,146,336.7,146z"/>
		<path id="XMLID_363_" fill="#FFFFFF" d="M334.2,296.2l1.4-81.8l17.2-22.6c0,0,27.4-13.4,47.1,3.3l11.1,40l6,62.1
			C417,297.2,374.2,306.1,334.2,296.2z"/>
		<path id="XMLID_362_" fill="#DBA97F" d="M410.9,146L410.9,146c-4.5,0-8.2-3.7-8.2-8.2v-9.7c0-4.5,3.7-8.2,8.2-8.2h0
			c4.5,0,8.2,3.7,8.2,8.2v9.7C419.1,142.3,415.4,146,410.9,146z"/>
		<path id="XMLID_361_" fill="#DBA97F" d="M383.8,190.2h-20c-0.5,0-0.8-0.4-0.8-0.8v-23.7c0-0.5,0.4-0.8,0.8-0.8h20
			c0.5,0,0.8,0.4,0.8,0.8v23.7C384.6,189.9,384.2,190.2,383.8,190.2z"/>
		<path id="XMLID_360_" fill="#EEC19C" d="M375.8,179.2h-5.2c-16.6,0-33.9-13.6-33.9-30.2v-46.4c0-16.6,13.6-30.2,30.2-30.2h13.9
			c16.6,0,30.2,13.6,30.2,30.2v41.5C410.9,163.4,395.1,179.2,375.8,179.2z"/>
		<path id="XMLID_359_" fill="#DBA97F" d="M364.1,187.8c0,0-5.1,3.2-1.2,7.9c5,6.1,8,11.6,11.4,11.6c3.2,0,5.2-2.4,9.1-10.4
			c4.9-10-0.1-9.1-0.1-9.1H364.1z"/>
		<path id="XMLID_358_" fill="#352312" d="M357.2,134.3L357.2,134.3c-1.3,0-2.4-1.1-2.4-2.4v-3.2c0-1.3,1.1-2.4,2.4-2.4l0,0
			c1.3,0,2.4,1.1,2.4,2.4v3.2C359.6,133.3,358.5,134.3,357.2,134.3z"/>
		<path id="XMLID_357_" fill="#352312" d="M392.1,134.3L392.1,134.3c-1.3,0-2.4-1.1-2.4-2.4v-3.2c0-1.3,1.1-2.4,2.4-2.4l0,0
			c1.3,0,2.4,1.1,2.4,2.4v3.2C394.5,133.3,393.4,134.3,392.1,134.3z"/>
		<path id="XMLID_356_" fill="#DBA97F" d="M374.8,136.1c0,0,7.4,8.3-2.7,9.9C372.2,146,386.1,146,374.8,136.1z"/>
		<path id="XMLID_355_" fill="#DBA97F" d="M369.2,159.5c0,0,9.3,2.9,16.1-1.8C385.3,157.7,379.4,165.3,369.2,159.5z"/>
		<path id="XMLID_354_" fill="#5F3F2B" d="M367.3,116.6c0,0-16.3-5.6-25.8,4.1c0,0,4.1-14.8,26.3-7.9L367.3,116.6z"/>
		<path id="XMLID_353_" fill="#5F3F2B" d="M383.3,116c0,0,13.1-5.4,23.3,3.2c0,0-2.8-14.3-24.4-7.2L383.3,116z"/>
		<path id="XMLID_352_" fill="#B0B38C" d="M357.4,460.5h7.7c0,0,0.3-7.5,0.2-15.7l-8.4,0.4L357.4,460.5z"/>
		<path id="XMLID_351_" fill="#A7A9AC" d="M417,301.6c-24.3,5.2-68.4,4.3-82.9-0.6l0.1-4.9c10,1.5,50.2,5.9,82.8,1.1V301.6z"/>
		<polygon id="XMLID_350_" points="343,312.3 352.8,460.8 368.6,460.3 372.7,322.2 		"/>
		<polygon id="XMLID_349_" points="405.8,312.8 396,461.3 380.1,460.8 376.1,322.7 		"/>
		<polygon id="XMLID_348_" fill="#AE7450" points="339.5,100.6 337.9,126.4 334.1,120.3 331.6,101.4 		"/>
		<polygon id="XMLID_347_" fill="#AE7450" points="408.3,97.6 409.2,123.9 413.5,120.3 415.5,96.1 		"/>
		<ellipse id="XMLID_346_" fill="#EFCAAC" cx="350.7" cy="148.2" rx="6.1" ry="3.6"/>
		<ellipse id="XMLID_345_" fill="#EFCAAC" cx="397.9" cy="148.2" rx="6.1" ry="3.6"/>
		<g id="XMLID_338_">
			<polygon id="XMLID_344_" opacity="0.56" points="341.2,124.8 341.2,132.9 344.2,139.9 348.7,143.3 355.6,144.7 363.2,143.6 
				367.9,139.9 371.1,131.6 371.1,126.1 368.7,123.8 358.9,121.5 351.3,121.5 			"/>
			<polygon id="XMLID_343_" opacity="0.56" points="410.2,124.8 410.2,132.9 407.2,139.9 402.7,143.3 395.8,144.7 388.2,143.6 
				383.5,139.9 380.3,131.6 380.3,126.1 382.7,123.8 392.6,121.5 400.1,121.5 			"/>
			<path id="XMLID_339_" fill="#21170E" d="M413.5,124.3c-0.2-2.6-4.9-2.4-4.9-2.4c-16.1-5.5-29,2.4-29,2.4
				c-0.4,0.2-0.8,0.4-1.1,0.5c-0.7,0.2-1.6,0.3-2.5,0.3c-2.3,0-4.1-0.9-4.1-0.9s-12.9-7.9-29-2.4c0,0-4.7-0.2-4.9,2.4
				c-0.2,2.6,1.4,1.6,2,6.1c0.6,4.5,1.5,15.1,15.9,15.5c15.6,0.5,16.9-13.2,16.9-13.2s1-2.6,2.2-2.7h1.8c1.2,0.1,2.2,2.7,2.2,2.7
				s1.3,13.7,16.9,13.2c14.3-0.4,15.2-11,15.9-15.5C412.1,125.9,413.7,127,413.5,124.3z M367.1,139.2c-3.3,4.6-16.7,7-21.3,0.8
				c-4.4-5.8-3.9-13.9-2.3-14.8c11.1-6.4,25.5-0.3,26.5,1.2C370.9,127.9,370.4,134.5,367.1,139.2z M405.7,139.9
				c-4.7,6.2-18,3.8-21.3-0.8c-3.4-4.7-3.8-11.2-2.8-12.8c1-1.6,15.4-7.6,26.5-1.2C409.6,126,410.1,134.1,405.7,139.9z"/>
		</g>
		<path id="XMLID_337_" fill="#EEC19C" d="M426,316l0.3,3.7c0,0-7.4,1.2-8.7,10.4c-1.2,9.2,3.8,8.7,4.6,2.8c0.7-5.9,4.1-5.9,4.1-5.9
			s4.6,14.1-4,20.4c0,0-3.2,4.3,2.6,4.2c0,0,3.9,0.5,7.5-2.3s11.2-16,5.1-28.5l-2-1.8l-0.4-6L426,316z"/>
		<path id="XMLID_336_" fill="#FFFFFF" d="M437.8,314.4l-14.6,3l-2.1-13.6l-6.7-43.5l-1.7-12.4l0,0c-3.9-1.8-13.8-11.2-12.9-52.8
			c9,7.5,26.7,25.2,31.1,61c0,0,4.3,23,6.1,45.5C437.4,305.9,437.7,310.2,437.8,314.4z"/>
		<path id="XMLID_335_" fill="#E6E7E8" d="M437.8,314.4l-14.6,3l-2.1-13.6l15.9-2.2C437.4,305.9,437.7,310.2,437.8,314.4z"/>
		<circle id="XMLID_334_" fill="#A7A9AC" cx="426.6" cy="312.8" r="1.1"/>
		<polygon id="XMLID_333_" fill="#9E1D21" points="371.2,200.5 377.2,200.5 381.5,207.3 378.1,213.4 370.4,213.4 366.5,207.3 		"/>
		<polygon id="XMLID_332_" fill="#9E1D21" points="370.4,213.4 365.5,285.7 374.6,297.2 383.7,285.9 378.1,213.4 		"/>
		<rect id="XMLID_331_" x="386.8" y="239" fill="#E6E7E8" width="16.8" height="2.5"/>
		<path id="XMLID_330_" fill="#E6E7E8" d="M384.6,183.8c0,0-2.9,9.1-7.4,16.7c0,0,4.3,6.8,6.6,12.9c0,0,8.5-12.4,5.7-24.3
			C389.5,189,387.7,185.9,384.6,183.8z"/>
		<rect id="XMLID_329_" x="365.5" y="269" fill="#FBB040" width="10.1" height="2.5"/>
		<ellipse id="XMLID_328_" fill="#FFFFFF" cx="374.2" cy="100" rx="71.7" ry="8.9"/>
		<ellipse id="XMLID_327_" fill="#E6E7E8" cx="373.5" cy="94.2" rx="41.9" ry="5.8"/>
		<path id="XMLID_326_" fill="#F1F2F2" d="M331.6,94.2c0,0-3.5-44.7,17.7-39.9c0,0,38.7-13.9,61.6,3.7c0,0,6,15.1,4.6,36.1
			C415.5,94.2,368.6,104.1,331.6,94.2z"/>
		<path id="XMLID_325_" fill="#FFFFFF" d="M362.9,183.8c0,0-36.9-3.8-54.1-10.4c0,0-9.4-20.7-16.7-40.4l-16.2,3.1
			c0,0,5.8,27.4,15.7,50.6l44,27.7L362.9,183.8z"/>
		<path id="XMLID_324_" fill="#E6E7E8" d="M363.4,179.2c0,0,3.5,15,7.8,21.3c0,0-6.5,9.1-7,13.8c0,0-11.6-16.4-7.9-30.5
			C356.3,183.8,360.3,181.3,363.4,179.2z"/>
		<path id="XMLID_323_" fill="#DBA97F" d="M276.7,124.2c0,0-2.8-6,2.5-10.7c0,0-6.8,2.6-8.9-2.6c0,0,1.2-6.8,10.8-9.2l0.6,13.2
			l-5,9.9L276.7,124.2z"/>
		<path id="XMLID_322_" fill="#EEC19C" d="M289.3,125.9c0,0,9.6-8.1,4.8-19s-21-4.5-23,4.1c0,0,2.8,5.8,13.4-2.1
			c0,0-11.4,7.1-6.8,19.7C277.7,128.6,284.3,129.5,289.3,125.9z"/>
	</g>
</g>
</svg>
