<svg xmlns="http://www.w3.org/2000/svg" xmlns:xlink="http://www.w3.org/1999/xlink" viewBox="0 0 487.4 678.15">
  <defs>
    <linearGradient id="linear-gradient" x1="189.28" y1="729.04" x2="221.43" y2="729.04" gradientTransform="matrix(0.99, -0.14, -0.14, -0.99, 126.61, 783.68)" gradientUnits="userSpaceOnUse">
      <stop offset="0" stop-color="#82422e"/>
      <stop offset="1" stop-color="#602a17"/>
    </linearGradient>
    <linearGradient id="linear-gradient-2" x1="372.74" y1="245.25" x2="404.91" y2="245.25" gradientTransform="matrix(0.89, 0.46, 0.46, -0.89, -221.31, 83.8)" xlink:href="#linear-gradient"/>
    <linearGradient id="linear-gradient-3" x1="184.52" y1="706.18" x2="205.02" y2="706.18" xlink:href="#linear-gradient"/>
    <linearGradient id="linear-gradient-4" x1="311.91" y1="1549.93" x2="360.13" y2="1549.93" gradientTransform="matrix(0.86, -0.51, -0.51, -0.86, 715.41, 1546.01)" xlink:href="#linear-gradient"/>
    <linearGradient id="linear-gradient-5" x1="530.05" y1="1459.34" x2="567.07" y2="1459.34" gradientTransform="matrix(0.63, -0.78, -0.78, -0.63, 1022.15, 1396.44)" xlink:href="#linear-gradient"/>
    <linearGradient id="linear-gradient-6" x1="188.57" y1="727.44" x2="209.72" y2="727.44" xlink:href="#linear-gradient"/>
    <linearGradient id="linear-gradient-7" x1="1194.02" y1="-60.15" x2="1213.68" y2="-60.15" gradientTransform="translate(713.27 1128.23) rotate(-110.8)" xlink:href="#linear-gradient"/>
    <linearGradient id="linear-gradient-8" x1="366.57" y1="1307.15" x2="384.34" y2="1307.15" gradientTransform="matrix(0.79, -0.61, -0.61, -0.79, 723.72, 1326.12)" xlink:href="#linear-gradient"/>
    <linearGradient id="linear-gradient-9" x1="201.45" y1="710.89" x2="214.44" y2="710.89" gradientTransform="matrix(0.99, -0.15, -0.15, -0.99, 125.46, 794.22)" xlink:href="#linear-gradient"/>
    <linearGradient id="linear-gradient-10" x1="194.42" y1="558.46" x2="205.69" y2="558.46" gradientTransform="matrix(1, -0.02, -0.02, -1, 30.41, 635.61)" xlink:href="#linear-gradient"/>
    <linearGradient id="linear-gradient-11" x1="302.13" y1="1259.38" x2="343.99" y2="1259.38" gradientTransform="matrix(0.85, -0.53, -0.53, -0.85, 611.87, 1294.45)" xlink:href="#linear-gradient"/>
    <linearGradient id="linear-gradient-12" x1="1641.52" y1="-34.42" x2="1619.79" y2="-56.15" gradientTransform="translate(1418.95 1253.78) rotate(-130.91)" xlink:href="#linear-gradient"/>
    <linearGradient id="linear-gradient-13" x1="1861.53" y1="37.54" x2="1837.93" y2="13.95" gradientTransform="translate(2073.46 637.41) rotate(-162.02)" xlink:href="#linear-gradient"/>
    <linearGradient id="linear-gradient-14" x1="1184.47" y1="-267.2" x2="1222.81" y2="-228.87" gradientTransform="translate(1114.94 998.78) rotate(-118.55)" xlink:href="#linear-gradient"/>
    <linearGradient id="linear-gradient-15" x1="347.55" y1="196.55" x2="347.55" y2="241.09" gradientTransform="matrix(1, 0.07, 0.07, -1, -43.99, 269.18)" xlink:href="#linear-gradient"/>
    <linearGradient id="linear-gradient-16" x1="205.9" y1="717.51" x2="237.72" y2="717.51" xlink:href="#linear-gradient"/>
    <linearGradient id="linear-gradient-17" x1="290.09" y1="389.77" x2="307.93" y2="407.6" gradientTransform="matrix(1, 0, 0, -1, -0.63, 453.22)" xlink:href="#linear-gradient"/>
    <linearGradient id="linear-gradient-18" x1="321.01" y1="419.53" x2="299.28" y2="397.8" gradientTransform="matrix(1, 0, 0, -1, -0.63, 453.22)" xlink:href="#linear-gradient"/>
    <linearGradient id="linear-gradient-19" x1="290.88" y1="398.15" x2="266.54" y2="373.81" gradientTransform="matrix(1, 0, 0, -1, -0.63, 453.22)" xlink:href="#linear-gradient"/>
    <linearGradient id="linear-gradient-20" x1="259" y1="386.2" x2="295.66" y2="422.87" gradientTransform="matrix(1, 0, 0, -1, -0.63, 453.22)" xlink:href="#linear-gradient"/>
    <linearGradient id="linear-gradient-21" x1="310.29" y1="424.75" x2="286.61" y2="401.08" gradientTransform="matrix(1, 0, 0, -1, -0.63, 453.22)" xlink:href="#linear-gradient"/>
    <linearGradient id="linear-gradient-22" x1="276.84" y1="394.36" x2="315.18" y2="432.7" gradientTransform="matrix(1, 0, 0, -1, -0.63, 453.22)" xlink:href="#linear-gradient"/>
    <linearGradient id="linear-gradient-23" x1="220.14" y1="743.62" x2="282.8" y2="743.62" xlink:href="#linear-gradient"/>
  </defs>
  <title>right1</title>
  <g id="Layer_2" data-name="Layer 2">
    <g id="Layer_1-2" data-name="Layer 1">
      <g id="right1">
        <path id="pelvis" d="M292,296.33c-2.12-5.55,2.19-12.15-39-20.58-19.1-3.92-24.64-4.32-37.37-7s-32.43,11.12-40.95,35,42.16,72.5,62.86,76.79,57.78-50.32,59.54-53.53S294.08,301.89,292,296.33Z" fill="#4c3f26"/>
        <path id="pants_leg_l" data-name="pants leg l" d="M390.21,458.77c-1-10.8,1.85-21.5-5.15-30s-47.37-73-60.37-90.54-44.27-57.67-60-31.4c-10.71,17.9-27.5,43.89-24,56.9s29.78,50,50.78,58.54,40.72,30.46,42.22,35.46c-12.13,6-15.73,13.37-20.8,35.87-2,8.76,1.78,37.16,8.15,68.17,5.68,27.63,2.77,37.43,2.3,38.59l26.72,4.41S391.21,469.57,390.21,458.77Z" fill="#4c3f26"/>
        <path id="shoe_l" data-name="shoe l" d="M371.38,655.07C368.91,649.46,349.51,640.5,344,638c1.46-8.37.27-30.81.73-31.65l11.6-21.5-37.52-8.13s-3.31,15.88-6.77,22-11.1,11.06-16.34,19-11.11,28.58-11.11,28.58l25.48,9.9s2.36-5.16,9-2.94,7.89,14.72,11.32,16,35.92,8.84,35.92,8.84S373.85,660.68,371.38,655.07Z" fill="#1c1c1c"/>
        <path id="shoe_rim_l" data-name="shoe rim l" d="M319.69,568l-9.84,27.09L357.4,606.9l5-31.64Z" fill="#1c1c1c"/>
        <path id="pants_thigh_highlight_l" data-name="pants thigh highlight l" d="M361.69,428.48c-2.15,4.2-1.44,8.38-.53,12.29s10.75,2.19,17.13-.54S367.12,417.88,361.69,428.48Z" fill="#aa8b4d"/>
        <path id="pants_leg_r" data-name="pants leg r" d="M187.62,306.47c-18.43-5-28.51,49.9-35.31,82.2s9.59,73.69-4.85,79.83-45.2,28.09-46.94,34.37-14.13,36-29,46.82S15,612.54,15,612.54L48.37,619c11.18-20.75,102.08-79.45,118.41-87.48s23.6-21.88,29.92-33.41S236,409,242.41,382.78,202.15,310.45,187.62,306.47Z" fill="#aa8b4d"/>
        <path id="pants_shin_shadow_r" data-name="pants shin shadow r" d="M153.52,521.51c-.24,4.71,2.13,8.23,4.57,11.42s10.7-2.42,15.39-7.53S154.12,509.62,153.52,521.51Z" fill="#4c3f26"/>
        <path id="pants_calf_shadow_r" data-name="pants calf shadow r" d="M112.45,512.27C104.76,500.66,67.5,560,71.94,572.56c3.28,9.3,27.24-3.86,39-8.2S120.13,523.88,112.45,512.27Z" fill="#4c3f26"/>
        <path id="pants_thigh_shadow_r" data-name="pants thigh shadow r" d="M174.26,317c-4,7.81-8.78,24.52-9.54,29.72s25.82-31.9,28.75-33.87S178.7,308.48,174.26,317Z" fill="#4c3f26"/>
        <path id="shoe_r" data-name="shoe r" d="M46.64,637.08C48,627.41,69.08,608,69.08,608l-37-18.63S9.36,618.93,6.72,623.21.78,638,0,646.67l15.08,23.22,53,4.76s-.46-25.65-2.5-28.09S53.61,637.7,46.64,637.08Z" fill="#1c1c1c"/>
        <path id="shoe_rim_r" data-name="shoe rim r" d="M80.14,592.44c-13.62,3.18-24.36-14.54-26.09-25.86-.78-5.15-20.87,11.57-30,20.78-.42,15.69,24.51,36.31,40.63,34.79,0,0,15.59-23.71,17.49-26.21S80.14,592.44,80.14,592.44Z" fill="#1c1c1c"/>
        <path id="shoe_highlight_r" data-name="shoe highlight r" d="M46.06,638.87c-6.56-1.59-29,2-27.37,7.58,1.36,4.48,40.08,3.6,44.19,2.63S52.61,640.46,46.06,638.87Z" fill="#203f4f"/>
        <path id="arm_shadow_l" data-name="arm shadow l" d="M416.82,121.56c-1.88-2.43-21,12.53-31.83,16.55-10.3,3.83-28.61,2.25-36.45,12.61-3.5-.12-45.56-15.81-55-21.43-18.44-10.95-37.34-15.65-53.51-.36-4.36,4.11-7.53,23.56-8.12,32.21-.79,11.63,15.67,5.65,41.44,13,36.53,10.45,66.88,19.9,73.18,20,8.3.14,35.24-11.52,43.48-16.33,11.34-6.62,34.7-29.22,34.68-31.28S418.69,124,416.82,121.56Z" fill="#dd7243"/>
        <path id="arm_l" data-name="arm l" d="M408.87,128.05c-3.08,1-29.88,17.4-43.55,17.4-3.91,0-12.32,9.71-18,14.25,17.48-7.45,22.28,6.3,27.49,2.57,13.47-9.67,39.71-25.21,39.71-25.21S412,127,408.87,128.05Z" fill="#ffca8a"/>
        <path id="arm2_l" data-name="arm2 l" d="M349.46,162.71c-4,7-28.5-6-53-11.54s-45.8,6.57-44.5-3.42c3-23,30-14,55.5-12.67S353.46,155.71,349.46,162.71Z" fill="#ffca8a"/>
        <path id="glove_shadow_l" data-name="glove shadow l" d="M447.14,101.08S431,108.47,427.82,110s-12,9.22-12,9.22c-10.75,6.84-3,27.18,1.58,29.08s24.41-.51,33.13-3S447.14,101.08,447.14,101.08Z" fill="#1c1c1c"/>
        <path id="palm_shadow_l" data-name="palm shadow l" d="M483,127c-2.5-1.65-15.34-13.85-15.34-13.85l-21.45-2.34c-.77,2.4.67,6.3,3.11,10.27a32.72,32.72,0,0,0-5.41.44c-5.66,1-9.56,3.43-7.53,6.77,0,0,11.84,8.65,11.7,12,2.6,5.09,12.2,3.18,14.31,1.19,1.84-1.74,4.1-3.75,4.93-6.82,3.7-1,4.74-5,6.18-5,1.83-.06,5.17,2.39,6.29,3.39s5.71,2.5,7.21,1.05S485.49,128.63,483,127Z" fill="#dd7243"/>
        <path id="index_l" data-name="index l" d="M467.55,108.15c-.09-.09-.21-.18-.34-.29-.87-1.91-3.06-3.6-4.07-4.78-1.47-1.72-12.93-3.16-14.34-1.91s-4.4,7.33-2.6,9.63,7.26,2.32,7.26,2.32a62.88,62.88,0,0,0,7-.21c.38,2.44,1.44,8.36,3.09,9,2.07.8,3.45-2.14,4.4-3.26S468.52,109.15,467.55,108.15Z" fill="#ffca8a"/>
        <path id="middle_l" data-name="middle l" d="M477.65,117.15c0-1.71-7-9-8.64-9.11s-7.12,1.28-7.21,3.48,3.63,5.31,3.63,5.31,8.35,7.4,10.85,6.56S477.68,118.85,477.65,117.15Z" fill="#ffca8a"/>
        <path id="ring_l" data-name="ring l" d="M477.05,117.5c-1.07-.87-5.31-2.44-6.15-1s.57,5.14.57,5.14,3,8.68,5,9.27,2.57-2.31,3.16-3.45S478.13,118.36,477.05,117.5Z" fill="#ffca8a"/>
        <path id="thumb_l" data-name="thumb l" d="M453.68,117.15c-3.19,1.51-8.47-.47-13,1.61-4.79,2.2-6.38,6.06-4.26,9.4s6.52,1.43,13.51-2S456.88,115.66,453.68,117.15Z" fill="#ffca8a"/>
        <path id="shirt_back" data-name="shirt back" d="M181.69,134.15c-6.57,2.75-8.1,20.35-7.55,38.17s40.31,71.13,43.43,61.83S198.36,127.15,181.69,134.15Z" fill="#bca675"/>
        <path id="torso_skin" data-name="torso skin" d="M287.7,35.37H241.47l2.16,36.31s-6.56,15.94-8.56,19.94S197.23,111.4,191,117s-12.86,71.67-3.4,93.91,87.17,17.27,94.07,7.77,8-45.3,2.64-57.42-32-46.16-32-46.16L287.7,90.45Z" fill="#ffca8a"/>
        <path id="torso_shadow" data-name="torso shadow" d="M278.14,129.57c-2.5-3.5-14.07-6.7-14.07-6.7-.25-5.25,13.58-17.21,13.58-17.21L255.82,55.87s-5.75,30.25-7.25,36.75c-10,3.5-22.5,20.75-22.5,20.75a54.37,54.37,0,0,0-20.5,0c30.5,10,34.25,36.75,31.25,56.25-4-15.75-29.25-15.75-31.25,0S211.07,216,252,216,280.64,133.07,278.14,129.57Z" fill="#dd7243"/>
        <path id="shirt_torso" data-name="shirt torso" d="M277.8,125.92c2.75,5.5-2.06,23.28-11.23,23.7s-29.94-26.94-35.69-38.69c-3.5-3.75-31.64-12.81-42.28-7.16,42.84,2.73,61.06,40.38,56.4,69.68s-41.33,40-61.2,27c.63,14.65,10.87,34.72,11.2,41s10,23-12.11,43.67c23.23,15.33,66.81,18.48,106.15,3.82,0,0-7.6-29.82-9.6-37.82s21.49-47.25,22.2-65.84S288.8,143.67,277.8,125.92Z" fill="#ffe8ae"/>
        <path id="shirt_abs_shadow" data-name="shirt abs shadow" d="M294.21,193.43c-2.6-12-36.88,6.85-48.33,10.18s-25.63,93.08-25.63,93.08c22.55,6.21,65.1-3.57,68.4-7.57s-5.3-28.5-9.45-37S296.81,205.43,294.21,193.43Z" fill="#bca675"/>
        <path id="hair_tail11" data-name="hair tail11" d="M241.11,12.46c-3.49-11.62-21.85,1.61-28.54,7.79s5.33,30.53,22,36.39c0,0-14.07-15.32-5-32.26C232.76,18.5,242.54,17.21,241.11,12.46Z" fill="url(#linear-gradient)"/>
        <path id="hair_tail10" data-name="hair tail10" d="M232.5,25c-9,1.16-13.31,28-3.11,42.4,0,0-2.61-20.63,14.61-29.18,6-3,14.7,1.63,16.29-3.07C264.16,23.62,241.53,23.8,232.5,25Z" fill="url(#linear-gradient-2)"/>
        <path id="hair_tail9" data-name="hair tail9" d="M227.57,35.74c-2.1.55-15.32,3.39-6.94-16.22-8.24,9.51-18.53,32.32-4.12,47.56,12,12.68-.75,28.65-.75,28.65,17.51-14.38,4.45-31.7,6.69-45.91C224.3,38.15,226.75,36.1,227.57,35.74Z" fill="url(#linear-gradient-3)"/>
        <path id="hair_tail8" data-name="hair tail8" d="M224.23,14c-16.33,12.64-7.65,23.31-7,33.64.45,12.48-10.45,17.54-16.49,21.12,16.92-4.27,19.75-12,19.44-19S212.07,23.89,224.23,14Z" fill="url(#linear-gradient-4)"/>
        <path id="hair_tail7" data-name="hair tail7" d="M237.1,48c-2.09-5-14.95-12.08-8.79-22.41-8.44,13.43.65,18.83,3.83,26.12,3.63,8.88.69,18.32-2.71,22.5C239.56,61,239.18,53,237.1,48Z" fill="url(#linear-gradient-5)"/>
        <path id="hair_tail6" data-name="hair tail6" d="M230.79,23.23c-2.24-7.47-14,1-18.34,5s.75,18.07,11.46,21.84c0,0-2.42-15.35-.51-19.19S231.71,26.28,230.79,23.23Z" fill="url(#linear-gradient-6)"/>
        <path id="hair_tail5" data-name="hair tail5" d="M235.65,11.39c-2.9.62-.63,6.18-2.9,9.46s-15.85,8.22-15.85,8.22c7.89,7,21.64,4.78,22.93-.5S242.74,9.85,235.65,11.39Z" fill="url(#linear-gradient-7)"/>
        <path id="hair_tail4" data-name="hair tail4" d="M222.9,56.73c-3.54-9.61-2.55-12.21-2.08-12.83-1.35,1.31-10.16,9-12.12-9.34-2.21,10.69-.35,32.31,17,37.75,14.44,4.53,11.55,22,11.55,22C244.44,76,227.22,68.44,222.9,56.73Z" fill="url(#linear-gradient-8)"/>
        <path id="hair_tail3" data-name="hair tail3" d="M228.68,45.6c-1.32.36-9.7,2.25-4.5-10.23C219,41.44,212.63,56,221.85,65.53c7.67,8-.31,18.15-.31,18.15,11-9.21,2.63-20.11,4-29.13C226.62,47.15,228.16,45.83,228.68,45.6Z" fill="url(#linear-gradient-9)"/>
        <path id="hair_tail2" data-name="hair tail2" d="M221.81,52.55c-5.13,4.64-12.27,16.39-5.43,25.68C222.06,85.94,214,93.8,214,93.8c10.52-6.67,4.55-17,6.73-24.6,1.8-6.26,3.28-7.2,3.74-7.33C223.34,62,215.92,62.7,221.81,52.55Z" fill="url(#linear-gradient-10)"/>
        <path id="hair_tail" data-name="hair tail" d="M228.45,28c-14,11.2-6.29,20.32-5.59,29.27.57,10.82-8.81,15.36-14,18.56,14.61-4,16.95-10.68,16.58-16.78S218.05,36.75,228.45,28Z" fill="url(#linear-gradient-11)"/>
        <path id="hair_side4_l" data-name="hair side4 l" d="M326.4,31.67c-7.76-1.44-20.87,6.32-21.92,8s9.48,24.13,16,31.06S335.86,33.44,326.4,31.67Z" fill="url(#linear-gradient-12)"/>
        <path id="hair_side3_l" data-name="hair side3 l" d="M322.92,15.8c-7.36-3-22.95,7.27-24.62,12.43-.62,1.93,22.61,35.7,31.28,39.6C340,72.52,336.14,21.22,322.92,15.8Z" fill="url(#linear-gradient-13)"/>
        <path id="hair_side2_l" data-name="hair side2 l" d="M331.73,36.63c-3-2.57-11.42-.12-11.42-.12s.28,18.61-10.26,33.5-14.31,44-14.31,44,16.78-14.11,27.9-29S336.46,40.73,331.73,36.63Z" fill="url(#linear-gradient-14)"/>
        <path id="hair_side_l" data-name="hair side l" d="M322.31,75C321.59,64,324,46,324,46s-7,5.31-8.06,8.56c-2.89,8.67-5.12,12.54-6.57,14.11,2.7,1.34,8.35,8.16,17.6,33C327,101.66,323,86,322.31,75Z" fill="url(#linear-gradient-15)"/>
        <path id="face_shadow" data-name="face shadow" d="M316.79,78.15a39.69,39.69,0,1,0-56.58,5.12c.89,8,3.71,17.37,9.51,21.09,9.64,6.2,22.32,10.11,24.82,8.4s17.25-19.14,17.25-19.14c3.32-.3,7.68-2.78,8.43-3.39s-2.78-6.51-3.35-9.29A10,10,0,0,1,316.79,78.15Z" fill="#dd7243"/>
        <path id="face" d="M316,79.53A36.55,36.55,0,1,0,263.83,83c.63,7.42,3,16.07,8.26,19.63,8.74,5.92,20.32,9.8,22.66,8.29s16.3-17.22,16.3-17.22a19.82,19.82,0,0,0,7.84-2.94c.7-.55-2.42-6-2.88-8.62A9.22,9.22,0,0,1,316,79.53Z" fill="#ffca8a"/>
        <path id="face_nose_shadow" data-name="face nose shadow" d="M316.57,86.49c-1.29-.58-9.54,4.8-8.57,5.39,2.35,1.43,10.93-.15,10.91-1.16S317.86,87.06,316.57,86.49Z" fill="#dd7243"/>
        <path id="face_toplip_shadow" data-name="face toplip shadow" d="M307,95.43s-5.28,1.94-7.92,1.73a11.75,11.75,0,0,0,5.59.19c1,.34,2,.72,3,1.15,0,0,2.51-1.58,2.36-2.74S307.65,95.93,307,95.43Z" fill="#dd7243"/>
        <path id="face_chin_shadow" data-name="face chin shadow" d="M304.38,101.06c-.53-.63-4.46-.76-5.32.31s.91,3.12,2,3.28S304.91,101.68,304.38,101.06Z" fill="#dd7243"/>
        <path id="face_eye_shadow_r" data-name="face eye shadow r" d="M319.31,65c-1.27-1.25-13.6,1-16.4,6.56-1,2.08,9.61,7.12,10.93,5.76S320.59,66.24,319.31,65Z" fill="#dd7243"/>
        <path id="face_shadow_r" data-name="face shadow r" d="M326.1,49.15c-.2.72-3.51,2.16-8.09,3.7a10.81,10.81,0,0,1-1.78,3.75c-1.63,1.85-9.89,5.8-25.28,9.74-4.87,7.14-10.46,14.89-13.78,18-6.83,6.52-26.89,15.82-26.89,15.82,4.39-3.18,8.21-6.22,11.6-9.21.47-2.41,1.4-6.94,2.79-12.47a12.66,12.66,0,0,1-2.33,3.24c-4.75,4.3-16.47,5.56-16.47,5.56s9.83-3.35,14.29-7.45,6.77-26,11.89-35c4.48-7.86,17.25-18.08,26.22-22.42,1.84-2.27,3.54-3.82,5-4.31,7.5-2.59,20,13.42,20.12,18.84C325.47,42.39,326.43,48,326.1,49.15ZM303,57c-2.11.45-4.15.82-6,1.07l-.9.6-2.3,3.48,1.51-.73C297.72,60.15,300.37,58.65,303,57Z" fill="#dd7243"/>
        <path id="eye_white_r" data-name="eye white r" d="M314.08,70.47c-1.57-.72-6.76,0-6.54.64s.55,3.3,5.52,4.35C314.75,74.22,316.39,71.52,314.08,70.47Z" fill="#f9dacf"/>
        <path id="eye_shadow_r" data-name="eye shadow r" d="M314.76,69.65s-6.61,0-8,.88l.7,1.61a16.44,16.44,0,0,1,6.43-.59C315.2,71.91,314.76,69.65,314.76,69.65Z" fill="#d1bbb4"/>
        <path id="eye_lash_r" data-name="eye lash r" d="M315.67,70.62s-.15-.48,1.16-.84c-2.55-1.24-7.56-.5-9.58.33a5.47,5.47,0,0,1-2.75.23s3.71,4.71,8.72,5.13c-5.23-1.09-5.28-4.09-5.28-4.09a11.08,11.08,0,0,1,5.36-.4c2.85.4,3.34,1,3.42,1.19A4.68,4.68,0,0,0,315.67,70.62Z" fill="#1c1c1c"/>
        <path id="eye_iris_r" data-name="eye iris r" d="M311.68,71a1.92,1.92,0,0,0,1,2.52l.05,0a2,2,0,0,0,2.52-1.23,1.92,1.92,0,0,0-1-2.52l0,0A2,2,0,0,0,311.68,71Z" fill="#1c1c1c"/>
        <path id="eye_reflection_r" data-name="eye reflection r" d="M310,71.84c-1.51-.12-2.75,0-2.76.28s1.21.61,2.72.73,2.74,0,2.75-.27S311.52,72,310,71.84Z" fill="#fcf7f5"/>
        <path id="brow_r" data-name="brow r" d="M321,71.65c-.59-.4-8.54-9.58-9.74-10s-7.1.09-7.1.09a27.7,27.7,0,0,1,5.08,2.31c1.42.9,7.65,8.64,8.93,9S321.58,72,321,71.65Z" fill="#1c1c1c"/>
        <path id="hair_back" data-name="hair back" d="M317.4,15.44c-2.88-6.2-31.51-14-37.71-15.34s-36.38,10.76-39.12,11.49S234.42,21.73,233.38,25,235,68,236.14,72.5s.92,6.44,9.88,7.53l7.37-14.37S262.31,73,266.83,74,320.29,21.65,317.4,15.44Z" fill="url(#linear-gradient-16)"/>
        <path id="hair_side6_r" data-name="hair side6 r" d="M295.53,57.43c-10,4.63-25.63,8.71-25.63,8.71,29.16-4.21,44.32-10.4,46.65-12.91s3.65-11.17,3.65-11.17S305.49,52.81,295.53,57.43Z" fill="url(#linear-gradient-17)"/>
        <path id="hair_side5_r" data-name="hair side5 r" d="M318.3,24.23c-7.54-6-35.13,29.75-25.63,30.13S326,48,326.61,46.05,324.48,29.15,318.3,24.23Z" fill="url(#linear-gradient-18)"/>
        <path id="hair_side4_r" data-name="hair side4 r" d="M293.61,40.27C281.9,64.62,274.42,78,249.45,95.06c0,0,20.31-8.76,27.31-15.09s24.17-31.88,24.17-31.88Z" fill="url(#linear-gradient-19)"/>
        <path id="hair_side3_r" data-name="hair side3 r" d="M272.69,40.31C267.33,49.15,264.45,71,259.88,75s-14.49,7.06-14.49,7.06S257.14,81.12,262,77s10.47-24.68,18-33.57,22.06-17.16,22.06-17.16l1-9C294.28,19.85,278.05,31.46,272.69,40.31Z" fill="url(#linear-gradient-20)"/>
        <path id="hair_side2_r" data-name="hair side2 r" d="M304.58,14.42c-9.19,2.9-31.62,49.46-22.33,47.46s41.94-26.05,41.94-28.08C324.19,28.39,312.15,12,304.58,14.42Z" fill="url(#linear-gradient-21)"/>
        <path id="hair_side_r" data-name="hair side r" d="M311.58,19.32c-5.87-2.18-30.9,13.43-38.62,30.32S260.9,88,260.9,88s23.76-17.27,31.77-33.65,24.49-25.07,24.49-25.07S315.25,20.69,311.58,19.32Z" fill="url(#linear-gradient-22)"/>
        <path id="hair_top" data-name="hair top" d="M277.51,2.26c-3.51.16-40.59,13.69-37,13.21,16-2.12,26.06,6.67,26.06,6.67s22.3-11.24,36.29-11.51C302.85,10.63,281,2.09,277.51,2.26Z" fill="url(#linear-gradient-23)"/>
        <path id="cheek_highlight_r" data-name="cheek highlight r" d="M289.29,76.15c-1.14.23-.5,5.62.33,6.64s7.88-6.08,8.29-6.89S291.21,75.78,289.29,76.15Z" fill="#fce7ca"/>
        <path id="shoulder_highlight_r" data-name="shoulder highlight r" d="M212.63,105.31c-2.61.51-11.89,3.38-10.95,4.18s13.47,6,14,4.32S214.18,105,212.63,105.31Z" fill="#fce7ca"/>
        <path id="neck_highlight_r" data-name="neck highlight r" d="M210.72,107.67c-1.53.8,7.64,1,9.44.64S233,97.15,233.36,96.15,212.09,107,210.72,107.67Z" fill="#fce7ca"/>
        <path id="arm_r" data-name="arm r" d="M259.3,163.33c-16.93,8.71-18.9,16-28,18.44s-13.84.84-31.3,7.16c5.56-10.76,2.37-9.29,8.32-21s1.64-14.48,6.29-16.68,10.16-42.87-.07-46.21c-11.27-3.68-21.07-2.94-25.94-1.25-11.39,4-20.86,24.2-21.07,28.36s-11.65,16-14.53,24.74-7.87,39.25-8,45-9.08,29.79-8,36.42-.84,17.78,12.76,16.69c19.71-1.58,35.82-3.83,54.22-15.68,12.44-8,67.34-51.62,71.07-55.09Z" fill="#ffca8a"/>
        <path id="shoulder_shadow_r" data-name="shoulder shadow r" d="M184.78,110.66c-3.25-1.26-10,6.7-12.13,11.7s-2.74,11.46-7.46,16.34-4,16.07-1.69,17.26,15.8-19.44,16.47-21.88S188.86,112.24,184.78,110.66Z" fill="#dd7243"/>
        <path id="forearm_shadow_r" data-name="forearm shadow r" d="M260.94,183.15c-2.25-1.08-9.48,9.59-13.9,12.47s-50.42,25.53-59,29-18,12-23.59,8.57-6-1.71-16.16-2.78c-4.11-.44-7.71,15.37-5.39,19.51s34.66-3.32,49-7.48,50.2-38.4,54-38.81,14.69-9,16.56-10.63S263.2,184.27,260.94,183.15Z" fill="#dd7243"/>
        <path id="arm_shadow_r" data-name="arm shadow r" d="M163.71,147.31c-17.59,12-21.38,74.62-21.38,74.62,5.93-8.26,35.1-28.61,55.61-30.82,4.64-8.42,11.52-27.63,11.68-35.74C200.41,161.06,167.77,167.89,163.71,147.31Z" fill="#dd7243"/>
        <path id="armpit_shadow_r" data-name="armpit shadow r" d="M205.18,141.8c-2.56,2.37-1.53,6.75-1.26,11.41s6.46-3.73,8.33-6.34S208.58,138.65,205.18,141.8Z" fill="#dd7243"/>
        <path id="shoulder_highlight_r-2" data-name="shoulder highlight r-2" d="M215.39,107.29c-2.49-.9-11.92-3.23-11.53-2s8.43,12.11,9.76,10.91S216.88,107.83,215.39,107.29Z" fill="#fce7ca"/>
        <path id="forearm_highlight_r" data-name="forearm highlight r" d="M206.83,193.54c-11.59,1.92-34.08,7.29-38.69,10.46-3.29,2.26,7.79,7.34,12.61,9.35S218.43,191.62,206.83,193.54Z" fill="#fce7ca"/>
        <path id="index_r" data-name="index r" d="M284.26,142.71c-2.91,2-3.21,7.82-1.36,9.61,2,1.94,11.92-1.88,12.27-2.94C297.74,141.67,284,143.48,284.26,142.71Z" fill="#dd7243"/>
        <path id="middle_r" data-name="middle r" d="M299.28,150.93c-1-2.6-11.66-3.16-12.43-2.33s4.63,10.59,6.28,10.68C297,159.51,300.29,153.54,299.28,150.93Z" fill="#dd7243"/>
        <path id="ring_r" data-name="ring r" d="M293.58,156.07c-2.31,1.59-.37,12.08.62,12.64s9.22-7,8.93-8.59C301.21,149.32,293.45,156.15,293.58,156.07Z" fill="#dd7243"/>
        <path id="pinky_r" data-name="pinky r" d="M304.78,163.21c-1.13-3.72-6.49-2.75-8.59-.9s1.07,12,2.11,12.47S305.26,164.79,304.78,163.21Z" fill="#dd7243"/>
        <path id="thumb_r" data-name="thumb r" d="M271.38,150.78c-3.58.76-8.95,14.93-8.43,15.94s14.87-3.69,15.92-5.57C281.36,156.7,275,150,271.38,150.78Z" fill="#dd7243"/>
        <path id="glove_r" data-name="glove r" d="M281.92,142.84c-3.06,1.39-23.27,14.21-28.54,23.31,3.26,1.39,13.93,15,13.3,21,0,0,4.13,3.95,8,2.72,1.24,1.29,7,2,12.22.31s16.58-11.8,17.13-16.8S290.36,146.15,281.92,142.84Z" fill="#203f4f"/>
        <path id="glove_shadow_r" data-name="glove shadow r" d="M300.76,169.94c-3.47-4.78-11.08-2.37-17.55,2.38s-17.15,7.65-15.87,10.83c2.28,5.67,15,9.43,19.52,7C297.15,184.62,304.13,174.57,300.76,169.94Z" fill="#1c1c1c"/>
      </g>
    </g>
  </g>
</svg>
