<svg xmlns="http://www.w3.org/2000/svg" xmlns:xlink="http://www.w3.org/1999/xlink" viewBox="0 0 447.79 673.79">
  <defs>
    <linearGradient id="linear-gradient" x1="1004.17" y1="-18.1" x2="1036.34" y2="-18.1" gradientTransform="matrix(0.23, 0.97, 0.97, -0.23, 27.07, -968.84)" gradientUnits="userSpaceOnUse">
      <stop offset="0" stop-color="#82422e"/>
      <stop offset="1" stop-color="#602a17"/>
    </linearGradient>
    <linearGradient id="linear-gradient-2" x1="477.89" y1="173.84" x2="510.06" y2="173.84" gradientTransform="matrix(0.8, 0.61, 0.61, -0.8, -263.03, -118.97)" xlink:href="#linear-gradient"/>
    <linearGradient id="linear-gradient-3" x1="244.66" y1="505.39" x2="265.15" y2="505.39" gradientTransform="matrix(0.99, 0.12, 0.12, -0.99, -93.6, 521.49)" xlink:href="#linear-gradient"/>
    <linearGradient id="linear-gradient-4" x1="730.66" y1="40.29" x2="778.89" y2="40.29" gradientTransform="matrix(0.51, 0.86, 0.86, -0.51, -193.29, -616.17)" xlink:href="#linear-gradient"/>
    <linearGradient id="linear-gradient-5" x1="214.63" y1="696.51" x2="251.68" y2="696.51" gradientTransform="matrix(0.99, -0.13, -0.13, -0.99, 87.59, 760.01)" xlink:href="#linear-gradient"/>
    <linearGradient id="linear-gradient-6" x1="366.84" y1="299.67" x2="387.98" y2="299.67" gradientTransform="matrix(0.9, 0.43, 0.43, -0.9, -244.12, 133.89)" xlink:href="#linear-gradient"/>
    <linearGradient id="linear-gradient-7" x1="722.76" y1="33.92" x2="742.42" y2="33.92" gradientTransform="translate(46.7 729.73) rotate(-77.46)" xlink:href="#linear-gradient"/>
    <linearGradient id="linear-gradient-8" x1="242.94" y1="488.11" x2="260.71" y2="488.11" gradientTransform="matrix(0.99, 0.11, 0.11, -0.99, -88.6, 502.36)" xlink:href="#linear-gradient"/>
    <linearGradient id="linear-gradient-9" x1="526.52" y1="134.11" x2="539.51" y2="134.11" gradientTransform="matrix(0.77, 0.64, 0.64, -0.77, -279.12, -190.32)" xlink:href="#linear-gradient"/>
    <linearGradient id="linear-gradient-10" x1="235.29" y1="901.33" x2="246.55" y2="901.33" gradientTransform="matrix(0.91, -0.41, -0.41, -0.91, 384.1, 974.2)" xlink:href="#linear-gradient"/>
    <linearGradient id="linear-gradient-11" x1="1113.97" y1="-32.29" x2="1155.8" y2="-32.29" gradientTransform="matrix(0.07, 1, 1, -0.07, 177.6, -1112.91)" xlink:href="#linear-gradient"/>
    <linearGradient id="linear-gradient-12" x1="1758.23" y1="113.28" x2="1736.49" y2="91.55" gradientTransform="translate(1399.53 1436.75) rotate(-130.91)" xlink:href="#linear-gradient"/>
    <linearGradient id="linear-gradient-13" x1="1887.87" y1="229.66" x2="1864.28" y2="206.07" gradientTransform="translate(2054.99 826.33) rotate(-162.02)" xlink:href="#linear-gradient"/>
    <linearGradient id="linear-gradient-14" x1="1328.27" y1="-149.49" x2="1366.6" y2="-111.16" gradientTransform="translate(1096.05 1179.4) rotate(-118.55)" xlink:href="#linear-gradient"/>
    <linearGradient id="linear-gradient-15" x1="350.29" y1="391.22" x2="350.29" y2="435.76" gradientTransform="matrix(1, 0.07, 0.07, -1, -44.56, 461.61)" xlink:href="#linear-gradient"/>
    <linearGradient id="linear-gradient-16" x1="99.18" y1="381.01" x2="131" y2="381.01" gradientTransform="matrix(1, 0.04, 0.04, -1, 125.47, 412.34)" xlink:href="#linear-gradient"/>
    <linearGradient id="linear-gradient-17" x1="232.53" y1="38.32" x2="250.37" y2="56.15" gradientTransform="matrix(0.98, 0.18, 0.18, -0.98, 60.78, 60.67)" xlink:href="#linear-gradient"/>
    <linearGradient id="linear-gradient-18" x1="263.39" y1="68.13" x2="241.66" y2="46.4" gradientTransform="matrix(0.98, 0.18, 0.18, -0.98, 60.78, 60.67)" xlink:href="#linear-gradient"/>
    <linearGradient id="linear-gradient-19" x1="233.29" y1="46.72" x2="208.95" y2="22.38" gradientTransform="matrix(0.98, 0.18, 0.18, -0.98, 60.78, 60.67)" xlink:href="#linear-gradient"/>
    <linearGradient id="linear-gradient-20" x1="201.4" y1="34.78" x2="238.06" y2="71.45" gradientTransform="matrix(0.98, 0.18, 0.18, -0.98, 60.78, 60.67)" xlink:href="#linear-gradient"/>
    <linearGradient id="linear-gradient-21" x1="252.63" y1="73.39" x2="228.95" y2="49.72" gradientTransform="matrix(0.98, 0.18, 0.18, -0.98, 60.78, 60.67)" xlink:href="#linear-gradient"/>
    <linearGradient id="linear-gradient-22" x1="219.25" y1="42.94" x2="257.59" y2="81.27" gradientTransform="matrix(0.98, 0.18, 0.18, -0.98, 60.78, 60.67)" xlink:href="#linear-gradient"/>
    <linearGradient id="linear-gradient-23" x1="253.93" y1="932.85" x2="316.6" y2="932.85" gradientTransform="matrix(0.99, -0.14, -0.14, -0.99, 127.6, 974.27)" xlink:href="#linear-gradient"/>
  </defs>
  <title>right2</title>
  <g id="Layer_2" data-name="Layer 2">
    <g id="Layer_1-2" data-name="Layer 1">
      <g id="right2">
        <path id="pelvis" d="M299.91,294.89c-2.12-5.56,2.19-12.16-39-20.59-19.1-3.92-24.64-4.32-37.36-7s-32.44,11.12-41,35,42.16,72.5,62.86,76.79,57.86-50.3,59.59-53.53S302,300.44,299.91,294.89Z" fill="#4c3f26"/>
        <path id="pants_leg_l" data-name="pants leg l" d="M427.54,462.21c-2.1-10.65-.38-21.58-8.21-29.31S364.69,365.12,350,349.06s-50-52.8-62.91-25c-8.81,18.9-22.83,46.49-18,59.06s34.77,46.71,56.54,53,43.64,26.1,45.65,30.92c-11.45,7.26-14.27,14.93-17,37.83-1.06,8.92,5.6,36.78,15.13,67,8.5,26.9,6.62,36.94,6.27,38.14l27,1.64S429.65,472.85,427.54,462.21Z" fill="#4c3f26"/>
        <path id="shoe_l" data-name="shoe l" d="M445,646.5c-4.11-4.55-25.35-7-31.32-7.59-1.25-8.4-9.44-29.33-9.27-30.27s4.25-24.06,4.25-24.06l-38.18,4.09s1.84,16.12.52,23.06-7.05,14-9.51,23.22-1.55,30.62-1.55,30.62l27.3,1.38s.62-5.64,7.63-5.62,12.06,11.39,15.72,11.58S447.47,670,447.47,670,449.09,651.05,445,646.5Z" fill="#1c1c1c"/>
        <path id="shoe_rim_l" data-name="shoe rim l" d="M367.88,570.63l-7,28,48.52,6.89,1.7-32Z" fill="#1c1c1c"/>
        <path id="pants_thigh_highlight_l" data-name="pants thigh highlight l" d="M396.05,435c-1.71,4.39-.56,8.48.74,12.27s10.92,1.08,17-2.3S400.37,423.92,396.05,435Z" fill="#aa8b4d"/>
        <path id="pants_leg_r" data-name="pants leg r" d="M190.49,302.09c-18.31-5.46-29.62,49.24-37.14,81.38s.88,70.13-13.69,75.94S100.89,490.24,99,496.48s-14.93,35.64-30,46.16S26.85,592,26.85,592L61,618.35c11.63-20.49,87.05-84,103.56-91.7s24.11-21.35,30.68-32.71,41.25-88.23,48.29-114.33S204.92,306.39,190.49,302.09Z" fill="#aa8b4d"/>
        <path id="pants_shin_shadow_r" data-name="pants shin shadow r" d="M161.2,503.05c.18,4.71,2.86,8,5.57,11s10.44-3.36,14.65-8.87S160.73,491.14,161.2,503.05Z" fill="#4c3f26"/>
        <path id="pants_calf_shadow_r" data-name="pants calf shadow r" d="M113.28,504.66c-8.69-10.87-40.51,51.54-35,63.67,4.1,9,26.78-6.28,38.06-11.64S122,515.54,113.28,504.66Z" fill="#4c3f26"/>
        <path id="pants_thigh_shadow_r" data-name="pants thigh shadow r" d="M174,312.56c-3.34,8.14-6.56,25.21-6.86,30.46s22.88-34.08,25.62-36.31S177.62,303.64,174,312.56Z" fill="#4c3f26"/>
        <path id="shoe_r" data-name="shoe r" d="M65.34,646c-2.25-2.25-11.77-11.84-18.77-11.84.5-9.75,18.77-26.91,18.77-26.91L26.84,592s-20,31.5-22.25,36S0,643.25,0,652l10.13,21.79H70.34S67.59,648.29,65.34,646Z" fill="#1c1c1c"/>
        <path id="shoe_rim_r" data-name="shoe rim r" d="M75,590.79c-13.3,4.43-25.58-12.26-28.31-23.38-1.25-5.06-19.76,13.38-28.1,23.38,1,15.67,27.67,34,43.59,31,0,0,13.41-25,15.08-27.67S75,590.79,75,590.79Z" fill="#1c1c1c"/>
        <path id="shoe_highlight_r" data-name="shoe highlight r" d="M45.17,640.12c-6.66-1-28.75,4.64-26.58,10,1.76,4.34,40.25,0,44.25-1.33S51.84,641.12,45.17,640.12Z" fill="#203f4f"/>
        <path id="arm_shadow_l" data-name="arm shadow l" d="M340.86,212.26c-17.51-.66-37.85,10.65-46.15,13.11s-24.95-3.71-33.2-.92c13.44-11.77,18.77-21,23.91-31.92s3.82-21,8-23.15,8.09-39.75-1.41-42.52c-10.48-3-25.55,4.21-29.51,6.81S252,155.16,251.93,159s-10,11.59-12.37,19.69-8.72,34.06-8.67,39.36-7.48,27.69-6.29,33.75,2.64,15.08,15.15,16.26,37.43-6.21,49.7-12.12,54.2-19.9,58.77-21Z" fill="#dd7243"/>
        <path id="palm_shadow_l" data-name="palm shadow l" d="M386,215.73a1.48,1.48,0,0,0,.42,0,17.17,17.17,0,0,1,2.36,1.42c1,.72,4.78,1.6,5.88.32s-1.59-4.22-3.73-5.37c-.55-.3-1.71-1.12-3.12-2.16a24.63,24.63,0,0,0-1.64-4.06c-.1-.5-.21-1-.24-1.33-.15-1.38-6.27-6.71-7.62-6.71a5.19,5.19,0,0,0-1.18.19l-.29-.2c-.83-1.47-2.72-2.68-3.62-3.56-1.31-1.27-10.64-1.61-11.68-.5a5.48,5.48,0,0,0-.84,1.39c-.32-.85-.51-1.33-.51-1.33s-12.43,7.11-14.91,8.55c-2,1.14-6.43,5.66-8.22,7.5l1,.63c.65,4.83,2.17,3.52,3.65,2.83,2.59-1.21,0,4,0,4s5.42,2.64,7,11c-2.25-.16,3,2.66,1,3-4.58.78,6.35-1.7,8,1,0,0,3.49-4.92,3.37-2.25a5,5,0,0,0,3.71,2.46c3,.58,6.75-.43,7.87-1.49,1.49-1.41,3.32-3,4-5.53,3-.8,3.82-4,5-4.05,1.48,0,4.18,1.93,5.08,2.74s4.62,2,5.83.84-1.21-4.34-3.23-5.68c-.8-.53-2.93-2.41-5.21-4.49a5.84,5.84,0,0,1,1.16.31A1.87,1.87,0,0,0,386,215.73Z" fill="#dd7243"/>
        <path id="glove_shadow_l" data-name="glove shadow l" d="M361,230.11c.12-2.67-9.45-9.66-9.45-9.66-1.65-2.7,1.5-4.7,6.08-5.48a27.57,27.57,0,0,1,6.48-.29c-1.57-8.35-3.86-16.22-3.86-16.22s-13,6-15.62,7.19a44.74,44.74,0,0,0-6.65,4.88c-1.71,1.41-3,2.57-3,2.57-8.68,5.54-2.39,22,1.29,23.52s19.73-.42,26.78-2.43a2.82,2.82,0,0,0,1.69-1.62A5,5,0,0,1,361,230.11Z" fill="#1c1c1c"/>
        <path id="index_l" data-name="index l" d="M376.75,204.17a1.49,1.49,0,0,0-.27-.23c-.7-1.55-2.47-2.91-3.29-3.87-1.19-1.39-10.45-2.56-11.59-1.54s-3.56,5.93-2.11,7.79,5.88,1.87,5.88,1.87A52.86,52.86,0,0,0,371,208c.3,2,1.16,6.76,2.49,7.28,1.68.65,2.8-1.74,3.56-2.64S377.54,205,376.75,204.17Z" fill="#ffca8a"/>
        <path id="middle_l" data-name="middle l" d="M385.05,212.79c-.05-.51-.12-1-.13-1.35,0-1.39-5.64-7.24-7-7.37s-5.76,1-5.83,2.81,2.93,4.3,2.93,4.3a51.43,51.43,0,0,0,4.83,3.74l0,.14s2.46,7,4.08,7.5,2.08-1.87,2.56-2.79C386.94,219,385.92,214.79,385.05,212.79Z" fill="#ffca8a"/>
        <path id="thumb_l" data-name="thumb l" d="M365.55,211.47c-2.59,1.21-6.86-.38-10.5,1.29-3.87,1.79-5.16,4.9-3.45,7.6s5.28,1.17,10.92-1.57S368.13,210.25,365.55,211.47Z" fill="#ffca8a"/>
        <path id="shirt_back" data-name="shirt back" d="M189.64,132.68c-6.57,2.76-8.1,20.35-7.55,38.17S222.4,242,225.52,232.67,206.31,125.69,189.64,132.68Z" fill="#bca675"/>
        <path id="torso_skin" data-name="torso skin" d="M295.65,33.92H249.42l2.16,36.31S245,86.17,243,90.17,205.18,110,199,115.53s-12.85,71.67-3.4,93.91,87.17,17.27,94.07,7.77,8-45.3,2.64-57.42-31.95-46.16-31.95-46.16L295.69,89Z" fill="#ffca8a"/>
        <path id="torso_shadow" data-name="torso shadow" d="M286.09,128.12c-2.5-3.5-14.07-6.7-14.07-6.7-.25-5.25,13.58-17.21,13.58-17.21L263.77,54.42S258,84.67,256.52,91.17c-10,3.5-22.5,20.75-22.5,20.75a54,54,0,0,0-20.5,0c30.5,10,34.25,36.75,31.25,56.25-4-15.75-29.25-15.75-31.25,0s5.5,46.37,46.38,46.37S288.59,131.62,286.09,128.12Z" fill="#dd7243"/>
        <path id="shirt_torso" data-name="shirt torso" d="M285.75,124.47c2.75,5.5-2.05,23.29-11.23,23.7s-41.41-32.63-47.16-44.38c-3.5-3.75-25.89,2-36.53,7.63,42.85,2.73,66.78,31.25,62.11,60.58s-41.33,40-61.2,27c.63,14.65,10.87,34.72,11.2,41s10,23-12.11,43.67C214.06,299,257.65,302.15,297,287.49c0,0-7.6-29.82-9.6-37.82s21.49-47.25,22.21-65.84S296.75,142.22,285.75,124.47Z" fill="#ffe8ae"/>
        <path id="shirt_abs_shadow" data-name="shirt abs shadow" d="M302.17,192c-2.61-12-36.88,6.85-48.33,10.18s-25.64,93.08-25.64,93.08c22.55,6.21,65.1-3.57,68.4-7.57s-5.3-28.5-9.45-37S304.77,204,302.17,192Z" fill="#bca675"/>
        <path id="hair_tail11" data-name="hair tail11" d="M256.11,10.79C249.33,4.72,226.23,19,222,36.13c0,0,13.93-15.45,31.65-8,6.15,2.59,8.36,12.2,12.95,10.33C277.8,33.87,262.89,16.79,256.11,10.79Z" fill="url(#linear-gradient)"/>
        <path id="hair_tail10" data-name="hair tail10" d="M235.45,22.38c-9.1-.44-18,25.21-10.51,41.2,0,0,1.06-20.77,19.51-26.17,6.41-1.87,14.19,4.19,16.57-.16C266.86,26.61,244.54,22.79,235.45,22.38Z" fill="url(#linear-gradient-2)"/>
        <path id="hair_tail9" data-name="hair tail9" d="M230.34,15.4c-10.4,7.07-26.21,26.47-16.21,44.9C222.45,75.64,206,87.79,206,87.79c20.63-9.39,12.46-29.49,18.28-42.64C229.06,34.36,232,33,232.85,32.86,230.71,32.86,217.21,32.19,230.34,15.4Z" fill="url(#linear-gradient-3)"/>
        <path id="hair_tail8" data-name="hair tail8" d="M221.1,17C208.63,17.41,203.57,6.5,200,.46c4.26,16.93,12,19.76,19,19.46s25.88-8.08,35.73,4.09C242.1,7.67,231.43,16.35,221.1,17Z" fill="url(#linear-gradient-4)"/>
        <path id="hair_tail7" data-name="hair tail7" d="M228.48,43.79C225,52.71,216.31,57.51,211,58.18c16.47-2.57,21.72-8.6,23.66-13.64s-2.45-19.07,9.15-22.27C228.38,26.17,231.22,36.35,228.48,43.79Z" fill="url(#linear-gradient-5)"/>
        <path id="hair_tail6" data-name="hair tail6" d="M222.36,16c-5.78,1-9.31,15.51-2.44,24.55,0,0,6.42-14.15,10.12-16.32s9.48.72,10.39-2.33C242.67,14.38,228.13,15,222.36,16Z" fill="url(#linear-gradient-6)"/>
        <path id="hair_tail5" data-name="hair tail5" d="M251,14.64c-2.76-1.07-3.93,4.82-7.63,6.31s-17.75-1.84-17.75-1.84c2.73,10.2,15.45,15.88,19.43,12.18S257.77,17.25,251,14.64Z" fill="url(#linear-gradient-7)"/>
        <path id="hair_tail4" data-name="hair tail4" d="M223.4,15.22c-9,6.2-22.59,23.11-13.81,39.05,7.3,13.25-6.87,23.88-6.87,23.88,17.84-8.26,10.63-25.65,15.61-37.09,4.09-9.39,6.59-10.58,7.36-10.71C223.81,30.36,212.1,29.86,223.4,15.22Z" fill="url(#linear-gradient-8)"/>
        <path id="hair_tail3" data-name="hair tail3" d="M235.49,32c-8,.21-23,5.13-24,18.39-.82,11-13.74,11.88-13.74,11.88C212,64.31,214.49,50.79,222.1,45.77c6.28-4.13,8.27-3.84,8.79-3.61C229.72,41.43,222.72,36.44,235.49,32Z" fill="url(#linear-gradient-9)"/>
        <path id="hair_tail2" data-name="hair tail2" d="M233.23,51.18c-.77-6.47.23-7.9.61-8.21-1,.6-7.6,4.1-6.1-7.54-2.94,6.27-5,19.87,4.94,25.77,8.23,4.91,3.88,15.27,3.88,15.27C243.67,66.24,234.17,59,233.23,51.18Z" fill="url(#linear-gradient-10)"/>
        <path id="hair_tail" data-name="hair tail" d="M218.83,24.05c-9.83-4.55-9.47-15-9.88-21-3.33,14.77,1.54,20,7.1,22.5s23.19,3.87,26.06,17.15C238.73,25.07,227.07,27.61,218.83,24.05Z" fill="url(#linear-gradient-11)"/>
        <path id="hair_side4_l" data-name="hair side4 l" d="M342.18,29.72c-7.75-1.44-20.86,6.32-21.92,8.05s9.48,24.13,16,31.06S351.65,31.49,342.18,29.72Z" fill="url(#linear-gradient-12)"/>
        <path id="hair_side3_l" data-name="hair side3 l" d="M338.7,13.85c-7.35-3-22.95,7.28-24.61,12.43-.63,1.93,22.61,35.7,31.28,39.6C355.79,70.57,351.92,19.27,338.7,13.85Z" fill="url(#linear-gradient-13)"/>
        <path id="hair_side2_l" data-name="hair side2 l" d="M347.51,34.68c-3-2.57-11.42-.12-11.42-.12s.28,18.61-10.26,33.5-14.3,44-14.3,44,16.77-14.11,27.89-29S352.25,38.79,347.51,34.68Z" fill="url(#linear-gradient-14)"/>
        <path id="hair_side_l" data-name="hair side l" d="M338.09,73.05c-.71-11,1.67-29,1.67-29s-7,5.31-8.06,8.56c-2.89,8.67-5.12,12.55-6.56,14.11,2.69,1.34,8.34,8.16,17.59,33C342.73,99.71,338.81,84,338.09,73.05Z" fill="url(#linear-gradient-15)"/>
        <path id="face_shadow" data-name="face shadow" d="M302,12.74a39.68,39.68,0,0,0-38.34,61.32c-1.35,8-1.17,17.72,3.39,22.88,7.58,8.6,18.72,15.82,21.59,14.86s21.81-13.71,21.81-13.71a20.65,20.65,0,0,0,9-1c.85-.42-.9-7-.69-9.84a10.15,10.15,0,0,1,.68-2.72A39.68,39.68,0,0,0,302,12.74Z" fill="#dd7243"/>
        <path id="face" d="M304,19.17a36.53,36.53,0,0,0-36.67,55.56c-1.42,7.31-1.48,16.27,2.6,21.13,6.78,8.08,16.86,15,19.53,14.15S309.84,97.9,309.84,97.9a20.1,20.1,0,0,0,8.34-.69c.83-.33-.67-6.48-.41-9.07a8.88,8.88,0,0,1,.69-2.48A36.53,36.53,0,0,0,304,19.17Z" fill="#ffca8a"/>
        <path id="face_nose_shadow" data-name="face nose shadow" d="M317,92.5c-1.09-.91-10.49,2-9.72,2.85,1.87,2,10.56,2.84,10.81,1.86S318.12,93.41,317,92.5Z" fill="#dd7243"/>
        <path id="face_toplip_shadow" data-name="face toplip shadow" d="M305.38,98.49s-5.61.43-8.09-.5a11.72,11.72,0,0,0,5.33,1.71,31.59,31.59,0,0,1,2.55,1.93s2.85-.85,3-2S305.88,99.15,305.38,98.49Z" fill="#dd7243"/>
        <path id="face_chin_shadow" data-name="face chin shadow" d="M301.34,103.19c-.34-.75-4.09-1.94-5.2-1.15s0,3.25,1,3.7S301.67,103.94,301.34,103.19Z" fill="#dd7243"/>
        <path id="face_eye_shadow_r" data-name="face eye shadow r" d="M325.54,72.57C324.66,71,312.2,69.77,308,74.4c-1.57,1.72,7.3,9.48,8.95,8.52S326.43,74.11,325.54,72.57Z" fill="#dd7243"/>
        <path id="face_shadow_r" data-name="face shadow r" d="M334.05,47.72c-.2.72-3.51,2.16-8.09,3.7a11,11,0,0,1-1.78,3.75c-1.63,1.85-9.89,5.8-25.28,9.74-4.87,7.14-10.46,14.89-13.77,18-6.84,6.52-26.9,15.82-26.9,15.82,4.39-3.17,8.21-6.22,11.6-9.21.47-2.41,1.4-6.94,2.79-12.47a12.83,12.83,0,0,1-2.33,3.24c-4.75,4.3-16.47,5.56-16.47,5.56s9.83-3.35,14.29-7.45,6.77-26,11.89-35c4.48-7.87,17.25-18.08,26.22-22.43,1.84-2.27,3.54-3.82,5-4.31,7.5-2.59,20,13.42,20.12,18.84C333.43,40.94,334.38,46.58,334.05,47.72ZM311,55.52c-2.11.46-4.15.82-6,1.07l-.9.6c-.71,1.08-1.48,2.25-2.3,3.48l1.52-.73C305.67,58.79,308.32,57.2,311,55.52Z" fill="#dd7243"/>
        <path id="eye_white_r" data-name="eye white r" d="M319,76.41c-1.32-1.12-6.52-1.82-6.47-1.17s-.38,3.33,4.12,5.69C318.64,80.2,321,78.06,319,76.41Z" fill="#f9dacf"/>
        <path id="eye_shadow_r" data-name="eye shadow r" d="M312,74.48l.23,1.74a16.28,16.28,0,0,1,6.35,1.19c1.13.69,1.32-1.6,1.32-1.6S313.52,74.05,312,74.48Z" fill="#d1bbb4"/>
        <path id="eye_lash_r" data-name="eye lash r" d="M321.85,76.5c-2.11-1.89-7.14-2.55-9.31-2.29a5.63,5.63,0,0,1-2.71-.54s2.29,5.55,7,7.32c-4.73-2.48-4-5.38-4-5.38a10.88,10.88,0,0,1,5.26,1.09c2.63,1.16,2.94,1.88,3,2.06A4.42,4.42,0,0,0,320.5,77S320.49,76.49,321.85,76.5Z" fill="#1c1c1c"/>
        <path id="eye_iris_r" data-name="eye iris r" d="M316.56,76.26a1.92,1.92,0,0,0,.28,2.7l0,0a2,2,0,0,0,2.77-.5,1.91,1.91,0,0,0-.27-2.69.1.1,0,0,0-.05,0A2,2,0,0,0,316.56,76.26Z" fill="#1c1c1c"/>
        <path id="eye_reflection_r" data-name="eye reflection r" d="M314.72,76.62c-1.42-.53-2.64-.75-2.73-.49s1,.92,2.42,1.45,2.64.75,2.72.49S316.14,77.16,314.72,76.62Z" fill="#fcf7f5"/>
        <path id="brow_r" data-name="brow r" d="M325.34,79.43c-.46-.54-5.6-11.55-6.66-12.23s-6.85-1.85-6.85-1.85A28.25,28.25,0,0,1,316.09,69c1.11,1.25,5,10.4,6.12,11.12S325.8,80,325.34,79.43Z" fill="#1c1c1c"/>
        <path id="hair_back" data-name="hair back" d="M332.14,22.36c-1.73-6.62-28.5-19.44-34.37-21.83s-37.72,4.11-40.54,4.34-7.86,8.88-9.47,11.87S241.68,59.33,242,64s-.24,6.5,8.37,9.17l9.82-12.83s7.47,8.78,11.74,10.61S333.87,29,332.14,22.36Z" fill="url(#linear-gradient-16)"/>
        <path id="hair_side6_r" data-name="hair side6 r" d="M303.13,59.79c-10.63,2.77-26.77,4-26.77,4,29.45,1,45.46-2.34,48.2-4.39s5.58-10.34,5.58-10.34S313.76,57,303.13,59.79Z" fill="url(#linear-gradient-17)"/>
        <path id="hair_side5_r" data-name="hair side5 r" d="M331.46,31.17c-6.36-7.24-39.87,23-30.59,25.07s33.93-.33,34.87-2.12S336.66,37.09,331.46,31.17Z" fill="url(#linear-gradient-18)"/>
        <path id="hair_side4_r" data-name="hair side4 r" d="M304.3,42.55c-15.86,21.87-25.6,33.67-53.22,46,0,0,21.54-5,29.56-10s29.47-27,29.47-27Z" fill="url(#linear-gradient-19)"/>
        <path id="hair_side3_r" data-name="hair side3 r" d="M283.71,38.85c-6.85,7.75-13.59,28.75-18.79,31.85s-15.52,4.37-15.52,4.37,11.73,1.16,17.26-2.07,14.71-22.42,23.71-29.82,24.77-12.95,24.77-12.95l2.61-8.68C308.61,22.58,290.57,31.11,283.71,38.85Z" fill="url(#linear-gradient-20)"/>
        <path id="hair_side2_r" data-name="hair side2 r" d="M319.71,19.07c-9.56,1.21-39.94,43-30.44,42.72s45.91-18.16,46.27-20.15C336.51,36.31,327.59,18.07,319.71,19.07Z" fill="url(#linear-gradient-21)"/>
        <path id="hair_side_r" data-name="hair side r" d="M325.72,25.14c-5.39-3.2-32.8,7.7-43.41,22.94S263.6,83.69,263.6,83.69s26.46-12.75,37.27-27.45,28.56-20.3,28.56-20.3S329.08,27.14,325.72,25.14Z" fill="url(#linear-gradient-22)"/>
        <path id="hair_top" data-name="hair top" d="M285.47.79C282,1,244.87,14.48,248.47,14c16-2.12,26.06,6.67,26.06,6.67s22.3-11.24,36.29-11.51C310.8,9.18,289,.64,285.47.79Z" fill="url(#linear-gradient-23)"/>
        <path id="cheek_highlight_r" data-name="cheek highlight r" d="M293.61,75.13c-1.16-.09-2,5.28-1.49,6.48s9.23-3.7,9.85-4.37S295.56,75.28,293.61,75.13Z" fill="#fce7ca"/>
        <path id="neck_highlight_r" data-name="neck highlight r" d="M221.64,104.62c-.35-.52-.72-.83-1.06-.76-2.61.51-11.89,3.38-11,4.18s13.47,6,14,4.32c.28-.91-.16-3.35-.87-5.38a39.94,39.94,0,0,0,5.36-.12c1.8-.32,12.83-11.19,13.2-12.15C241.61,93.94,227.9,101.26,221.64,104.62Z" fill="#fce7ca"/>
        <path id="arm_r" data-name="arm r" d="M236.55,197.42c-19-1.43-24.5,3.79-33.51,1.07S190.8,192,172.62,188.21c10.37-6.25,6.88-6.68,18.09-13.55s9-11.49,14.08-10.93,31.09-31.22,24.12-39.41c-7.68-9-16.42-13.53-21.46-14.64-11.77-2.59-30.45,9.71-32.79,13.11s-18.32,7.59-25.32,13.51S122.09,165.66,119,170.5s-23.36,20.64-25.9,26.86-10,14.71,2.15,20.9c17.62,9,32.53,15.48,54.41,15,14.79-.32,84.39-8.76,89.39-9.77Z" fill="#ffca8a"/>
        <path id="forearm_shadow_r" data-name="forearm shadow r" d="M227.56,215.22c-1.36-2.1-13.1,3.21-18.38,3.35s-56.33-4.62-65.41-6.23-21.65.76-24.63-5-4.2-4.58-12.31-10.82C103.55,194,92.22,205.58,92,210.33s31.28,15.29,45.7,19.27,62.87-6.46,66.32-4.82,17.24,0,19.67-.41S228.92,217.31,227.56,215.22Z" fill="#dd7243"/>
        <path id="arm_shadow_r" data-name="arm shadow r" d="M163.46,133.79c-21.28,1-57.26,52.42-57.26,52.42,9.38-3.94,44.89-6,63.52,2.82,8.36-4.75,24.28-17.52,28.66-24.35C187.55,164.68,156.16,153.43,163.46,133.79Z" fill="#dd7243"/>
        <path id="armpit_shoulder_r" data-name="armpit shoulder r" d="M221.1,145.28c-3.43.68-4.84,5-7,9.07s7.46.19,10.42-1S225.64,144.37,221.1,145.28Z" fill="#dd7243"/>
        <path id="collar_highlight_r" data-name="collar highlight r" d="M247.85,121.21c-1.66-2.07-8.47-9-8.76-7.78s.86,14.73,2.62,14.41S248.84,122.45,247.85,121.21Z" fill="#fce7ca"/>
        <path id="shoulder_highlight_r" data-name="shoulder highlight r" d="M202.14,114.61c-2.37-2.66-15.38,1.91-21.42,5.71s-11.59,9.71-20.18,12.24-16.4,13.54-14.95,15.71,31.11-11.48,33.67-13.48S205.12,118,202.14,114.61Z" fill="#fce7ca"/>
        <path id="forearm_highlight_r" data-name="forearm highlight r" d="M194.21,199.28c-18.67-6.21-56.57-15.74-66.48-14.55-7.07.86,4.88,9.58,9.75,16.43S212.88,205.49,194.21,199.28Z" fill="#fce7ca"/>
        <path id="glove_streak6" data-name="glove streak6" d="M286.24,181.34c-78,16.83-142,27.32-141.15,29.83s66.17-3.9,144.16-20.73,139.1-37.65,138.27-40.19S364.23,164.52,286.24,181.34Z" fill="#203f4f"/>
        <path id="glove_streak5" data-name="glove streak5" d="M250.34,200.12c-66.41,14.32-120.24,25.29-120.08,25.78s54.25-9.68,120.67-24,120-27.38,119.84-27.87S316.76,185.79,250.34,200.12Z" fill="#203f4f"/>
        <path id="glove_streak4" data-name="glove streak4" d="M228.2,209.43c-66.41,14.36-120.2,25.29-120.07,25.78s54.25-9.67,120.66-24,120-27.39,119.84-27.88S294.62,195.11,228.2,209.43Z" fill="#203f4f"/>
        <path id="glove_dot4" data-name="glove dot4" d="M206.89,207.2c-3.13.82-5,3.14-4.19,5.19s4,3,7.17,2.23,5-3.15,4.18-5.2S210,206.38,206.89,207.2Z" fill="#203f4f"/>
        <path id="glove_dot3" data-name="glove dot3" d="M219,210.42c-1.3.34-2.07,1.31-1.73,2.16s1.67,1.26,3,.92,2.07-1.31,1.73-2.16S220.29,210.08,219,210.42Z" fill="#203f4f"/>
        <path id="glove2_r" data-name="glove2 r" d="M373.7,155.79c-4.15-1.54-27.62,11.7-27.62,11.7,3.24,1.95,4.12,6.73,6.14,9.78s19.52,2.31,22.4,1.78,8.4-7.46,8.91-10S377.85,157.38,373.7,155.79Z" fill="#203f4f"/>
        <path id="skin_dot6" data-name="skin dot6" d="M77.54,197.22a2,2,0,0,0-2.1,1.89v.11a2.17,2.17,0,0,0,2.43,1.7A2,2,0,0,0,80,199v-.1A2.17,2.17,0,0,0,77.54,197.22Z" fill="#fce7ca"/>
        <path id="skin_dot5" data-name="skin dot5" d="M83.15,203.24a1.36,1.36,0,0,0-1.43,1.31v0a1.48,1.48,0,0,0,1.65,1.16,1.38,1.38,0,0,0,1.44-1.32v0A1.48,1.48,0,0,0,83.15,203.24Z" fill="#fce7ca"/>
        <path id="skin_dot4" data-name="skin dot4" d="M182.21,114.73c-3,.18-5.28,2.29-5.06,4.73s2.84,4.26,5.85,4.08,5.28-2.29,5.06-4.72S185.22,114.55,182.21,114.73Z" fill="#fce7ca"/>
        <path id="shirt_streak2" data-name="shirt streak2" d="M373.41,156.85c-6.83,2.41-87.3,21.32-100.68,24.44,50.43-5.46,99.78-22.88,102.85-23.23s10,1.08,10,1.08C383.17,157.28,380.23,154.45,373.41,156.85Z" fill="#fce7ca"/>
        <path id="glove_streak3" data-name="glove streak3" d="M270.82,196.28c-78,16.83-142,27.32-141.15,29.83s66.17-3.9,144.16-20.73,139.09-37.68,138.26-40.19S348.81,179.46,270.82,196.28Z" fill="#203f4f"/>
        <path id="glove_streak2" data-name="glove streak2" d="M234.92,215.06c-66.42,14.32-120.24,25.29-120.08,25.73s54.25-9.68,120.67-24,120-27.38,119.84-27.87S301.33,200.73,234.92,215.06Z" fill="#203f4f"/>
        <path id="glove_streak" data-name="glove streak" d="M212.78,224.37C146.36,238.7,92.54,249.66,92.7,250.15s54.25-9.67,120.67-24,120-27.39,119.84-27.88S279.19,210.05,212.78,224.37Z" fill="#203f4f"/>
        <path id="highlight_streak" data-name="highlight streak" d="M286.59,184.29c-66.41,14.33-120.24,25.29-120.08,25.78s54.25-9.67,120.67-24,120-27.38,119.82-27.88S353,170,286.59,184.29Z" fill="#fff"/>
        <path id="glove_dot2" data-name="glove dot2" d="M191.46,222.13c-3.13.82-5,3.15-4.18,5.2s4,3,7.16,2.23,5-3.15,4.19-5.2S194.6,221.32,191.46,222.13Z" fill="#203f4f"/>
        <path id="glove_dot" data-name="glove dot" d="M203.57,225.36c-1.3.34-2.08,1.3-1.74,2.15s1.67,1.27,3,.93,2.08-1.31,1.74-2.16S204.87,225,203.57,225.36Z" fill="#203f4f"/>
        <path id="glove_r" data-name="glove r" d="M254.37,196.68c-5.87-2.19-39.08,16.55-39.08,16.55,4.58,2.75,5.82,9.53,8.69,13.84s27.61,3.26,31.69,2.52,11.88-10.55,12.6-14.08S260.24,198.86,254.37,196.68Z" fill="#203f4f"/>
        <path id="skin_dot3" data-name="skin dot3" d="M62.12,212.16a2,2,0,0,0-2.1,1.89v.11a2.16,2.16,0,0,0,2.42,1.7,2,2,0,0,0,2.1-1.9v-.1A2.16,2.16,0,0,0,62.12,212.16Z" fill="#fce7ca"/>
        <path id="skin_dot2" data-name="skin dot2" d="M67.73,218.18a1.37,1.37,0,0,0-1.44,1.32v0A1.5,1.5,0,0,0,68,220.68a1.37,1.37,0,0,0,1.43-1.31v0A1.47,1.47,0,0,0,67.73,218.18Z" fill="#fce7ca"/>
        <path id="skin_dot" data-name="skin dot" d="M172.64,133.79c-.22-2.44-2.84-4.27-5.85-4.09s-5.28,2.29-5.06,4.72,2.83,4.27,5.85,4.09S172.86,136.19,172.64,133.79Z" fill="#fce7ca"/>
        <path id="shirt_streak" data-name="shirt streak" d="M358,171.79c-6.82,2.4-87.29,21.32-100.67,24.44,50.43-5.46,99.78-22.88,102.85-23.23s10,1.08,10,1.08C367.75,172.22,364.8,169.39,358,171.79Z" fill="#fce7ca"/>
        <path id="face_streak" data-name="face streak" d="M314.05,80.6c0-.75-36.62-1.36-81.79-1.36s-81.79.61-81.79,1.36S187.09,82,232.26,82,314.05,81.35,314.05,80.6Z" fill="#ffe8ae"/>
      </g>
    </g>
  </g>
</svg>
