<svg xmlns="http://www.w3.org/2000/svg" xmlns:xlink="http://www.w3.org/1999/xlink" viewBox="0 0 368.42 682">
  <defs>
    <linearGradient id="linear-gradient" x1="-414.59" y1="2366.8" x2="-382.43" y2="2366.8" gradientTransform="matrix(1, 0, 0, -1, 564, 2394)" gradientUnits="userSpaceOnUse">
      <stop offset="0" stop-color="#82422e"/>
      <stop offset="1" stop-color="#602a17"/>
    </linearGradient>
    <linearGradient id="linear-gradient-2" x1="-1013.69" y1="1662.54" x2="-981.52" y2="1662.54" gradientTransform="matrix(0.82, 0.58, 0.58, -0.82, 30.28, 1980.79)" xlink:href="#linear-gradient"/>
    <linearGradient id="linear-gradient-3" x1="-419.37" y1="2343.98" x2="-398.88" y2="2343.98" xlink:href="#linear-gradient"/>
    <linearGradient id="linear-gradient-4" x1="-445.84" y1="2368.37" x2="-397.62" y2="2368.37" xlink:href="#linear-gradient"/>
    <linearGradient id="linear-gradient-5" x1="418.23" y1="2553.13" x2="455.28" y2="2553.13" gradientTransform="matrix(0.84, -0.54, -0.54, -0.84, 1177.09, 2420.82)" xlink:href="#linear-gradient"/>
    <linearGradient id="linear-gradient-6" x1="-415.33" y1="2365.22" x2="-394.19" y2="2365.22" xlink:href="#linear-gradient"/>
    <linearGradient id="linear-gradient-7" x1="1838.95" y1="574.91" x2="1858.61" y2="574.91" gradientTransform="translate(11.31 1954.91) rotate(-102.65)" xlink:href="#linear-gradient"/>
    <linearGradient id="linear-gradient-8" x1="45.59" y1="2501.03" x2="63.36" y2="2501.03" gradientTransform="matrix(0.95, -0.32, -0.32, -0.95, 912.44, 2436.24)" xlink:href="#linear-gradient"/>
    <linearGradient id="linear-gradient-9" x1="-388.68" y1="2348.95" x2="-375.69" y2="2348.95" gradientTransform="matrix(1, -0.01, -0.01, -1, 564.37, 2396.44)" xlink:href="#linear-gradient"/>
    <linearGradient id="linear-gradient-10" x1="-572.01" y1="2192.83" x2="-560.75" y2="2192.83" gradientTransform="matrix(0.99, 0.12, 0.12, -0.99, 447.96, 2309.68)" xlink:href="#linear-gradient"/>
    <linearGradient id="linear-gradient-11" x1="-110.65" y1="2482.94" x2="-68.81" y2="2482.94" gradientTransform="matrix(0.97, -0.23, -0.23, -0.97, 810.84, 2436.11)" xlink:href="#linear-gradient"/>
    <linearGradient id="linear-gradient-12" x1="2098.32" y1="1027.03" x2="2076.59" y2="1005.29" gradientTransform="matrix(-0.54, -0.84, 0.84, -0.54, 526.79, 2358.42)" xlink:href="#linear-gradient"/>
    <linearGradient id="linear-gradient-13" x1="1642.03" y1="2081.89" x2="1618.44" y2="2058.3" gradientTransform="matrix(-0.97, -0.24, 0.24, -0.97, 1347.78, 2445.65)" xlink:href="#linear-gradient"/>
    <linearGradient id="linear-gradient-14" x1="2054.06" y1="1001.95" x2="2092.4" y2="1040.29" gradientTransform="matrix(-0.54, -0.84, 0.84, -0.54, 526.79, 2358.42)" xlink:href="#linear-gradient"/>
    <linearGradient id="linear-gradient-15" x1="-307.56" y1="2291.06" x2="-307.56" y2="2335.61" xlink:href="#linear-gradient"/>
    <linearGradient id="linear-gradient-16" x1="-395.85" y1="2356.63" x2="-364.03" y2="2356.63" xlink:href="#linear-gradient"/>
    <linearGradient id="linear-gradient-17" x1="-338.09" y1="2327.87" x2="-320.25" y2="2345.7" xlink:href="#linear-gradient"/>
    <linearGradient id="linear-gradient-18" x1="-307.14" y1="2357.6" x2="-328.87" y2="2335.86" xlink:href="#linear-gradient"/>
    <linearGradient id="linear-gradient-19" x1="-337.29" y1="2336.24" x2="-361.64" y2="2311.89" xlink:href="#linear-gradient"/>
    <linearGradient id="linear-gradient-20" x1="-369.2" y1="2324.31" x2="-332.54" y2="2360.98" xlink:href="#linear-gradient"/>
    <linearGradient id="linear-gradient-21" x1="-317.84" y1="2362.8" x2="-341.52" y2="2339.12" xlink:href="#linear-gradient"/>
    <linearGradient id="linear-gradient-22" x1="-351.35" y1="2332.47" x2="-313.01" y2="2370.81" xlink:href="#linear-gradient"/>
    <linearGradient id="linear-gradient-23" x1="-381.59" y1="2382.73" x2="-318.94" y2="2382.73" xlink:href="#linear-gradient"/>
  </defs>
  <title>stand</title>
  <g id="Layer_2" data-name="Layer 2">
    <g id="Layer_1-2" data-name="Layer 1">
      <g id="stand">
        <path id="pelvis" d="M220.08,282.37c-3.21-5-.33-12.34-42.33-12.25-19.5.05-25,.78-38,.78s-29.5,17.47-33,42.55,56,62.42,77.14,62.42,46.36-61,47.44-64.5S223.28,287.38,220.08,282.37Z" fill="#4c3f26"/>
        <path id="pants_leg_l" data-name="pants leg l" d="M338.25,480.31c-1-10.81,0-20.31-7-28.81s-45.5-85-58.5-102.5-44.28-57.66-60-31.39c-10.71,17.89-27.5,43.89-24,56.89s32,47.5,53,56,38.5,33,40,38c-8.5,13-7,49-7.5,55.5s9,33,15,64.5,0,54.5,0,54.5h30.5S339.25,491.11,338.25,480.31Z" fill="#4c3f26"/>
        <path id="pants_thigh_highlight_l" data-name="pants thigh highlight l" d="M309.75,439.63c-2.16,4.19-1.44,8.37-.53,12.28s10.75,2.2,17.12-.54S315.18,429,309.75,439.63Z" fill="#aa8b4d"/>
        <path id="shoe_rim_l" data-name="shoe rim l" d="M331.08,607h-49l3-28.67,43.2-3.24Z" fill="#1c1c1c"/>
        <path id="shoe_l" data-name="shoe l" d="M364.75,658.68c-4.33-4.33-25.67-5.67-31.67-6-1.66-8.33-10.9-28.82-10.78-29.77s3-24.24,3-24.24l-37.92,6s2.66,16,1.66,23-6.33,14.33-8.33,23.67,0,30.66,0,30.66H308s.34-5.66,7.34-6,12,6,15.66,6h37.34S369.08,663,364.75,658.68Z" fill="#1c1c1c"/>
        <path id="pants_leg_r" data-name="pants leg r" d="M117.69,313.58C98.69,312.15,99.25,368,98.75,401s23.5,70.5,10.5,79.29-39,36.21-39.5,42.71-7,38-19.5,51.5S6.75,647,6.75,647h34c7-22.5,85-97.5,99.5-108.5s19-26,23-38.5,21.5-95,22.81-122S132.71,314.7,117.69,313.58Z" fill="#aa8b4d"/>
        <path id="pants_calf_shadow_r" data-name="pants calf shadow r" d="M83.25,529.82c-9.76-9.93-35,55.43-28.23,66.93,5,8.5,26-9,36.66-15.5S93,539.75,83.25,529.82Z" fill="#4c3f26"/>
        <path id="pants_shin_shadow_r" data-name="pants shin shadow r" d="M125.33,531c.67,4.67,3.67,7.67,6.67,10.33S142,537,145.66,531,123.65,519.25,125.33,531Z" fill="#4c3f26"/>
        <path id="pants_thigh_shadow_r" data-name="pants thigh shadow r" d="M106.6,326.37c-2.48,8.44-3.94,25.75-3.69,31s19.25-36.25,21.75-38.75S109.32,317.12,106.6,326.37Z" fill="#4c3f26"/>
        <path id="shoe_r" data-name="shoe r" d="M67.5,654.25c-2.25-2.25-12.75-7.75-19.75-7.75.5-9.75,19.75-31,19.75-31L29,600.25s-20,31.5-22.25,36S0,673.25,0,682H72.5S69.75,656.5,67.5,654.25Z" fill="#1c1c1c"/>
        <path id="shoe_rim_r" data-name="shoe rim r" d="M77.13,599.42C63.85,603.8,51.57,587.11,48.84,576c-1.24-5.06-19.76,13.38-28.09,23.38,1,15.67,27.67,34,43.58,31,0,0,13.42-25,15.09-27.66S77.13,599.42,77.13,599.42Z" fill="#1c1c1c"/>
        <path id="shoe_highlight_r" data-name="shoe highlight r" d="M47.33,648.71c-6.67-1-28.75,4.63-26.58,10C22.5,663,61,658.71,65,657.37S54,649.71,47.33,648.71Z" fill="#203f4f"/>
        <path id="arm_shadow_l" data-name="arm shadow l" d="M292.85,191.81c-1.33-1.56-14-20.1-17-20.77S253.52,192.71,245,197s-14.8.67-25.42,8.16c-3.3-1.18,0-22.28,2.37-30.08s-1.08-32.41-3-38.08-11.83-7.37-20.38-8.75c-11.51-1.86-14.29,48.42-14.29,75.22s24.29,43.53,25.28,45.86,21-1,28.67-6.66,21.67-18.34,26.67-25S294.18,193.37,292.85,191.81Z" fill="#dd7243"/>
        <path id="arm_l" data-name="arm l" d="M275.85,171c-3.28,1.82-25.38,27-29.69,28.33s-15.08,3.34-20.53,9.67c7.22-3.33,20.22,4.67,27.22,2.33S284.18,180,284.18,180,279.13,169.22,275.85,171Z" fill="#ffca8a"/>
        <path id="glove_shadow_l" data-name="glove shadow l" d="M299.81,146s-14.17,8.33-16.67,10.84-8.07,12.78-8.07,12.78c-7.73,10.12,6.57,26.54,11.49,26.76s22.75-8.88,30.08-14.22S299.81,146,299.81,146Z" fill="#1c1c1c"/>
        <path id="index_l" data-name="index l" d="M311.51,148c-.66-1.76-5.24-6.76-8-5.93s-4.79,5.93-4.79,5.93-5,11.65-2.67,13.86,6.37-.45,8.5-1.19S312.16,149.8,311.51,148Z" fill="#ffca8a"/>
        <path id="middle_l" data-name="middle l" d="M313.89,147.73c-2.63.2-5.37,4.32-5.37,4.32s-6.63,9.35-5,11.74,5.71.82,7.73.56,8.84-8.17,8.59-9.85S316.52,147.52,313.89,147.73Z" fill="#ffca8a"/>
        <path id="ring_l" data-name="ring l" d="M317.36,156.42c-2.63.2-5.37,4.32-5.37,4.32s-6.64,9.35-5,11.74,5.71.82,7.74.56,8.83-8.17,8.59-9.85S320,156.21,317.36,156.42Z" fill="#ffca8a"/>
        <path id="pinky_l" data-name="pinky l" d="M322.46,166c-1.94-1-5.71.65-5.71.65s-8.86,3.62-8.77,6,3.66,3.13,5.2,3.86,9.88-1.82,10.46-3.11S324.41,167,322.46,166Z" fill="#ffca8a"/>
        <path id="palm_shadow_l" data-name="palm shadow l" d="M296.9,157.86s3.07,11.34,1.24,13.31c-1,4.47,6.18,8.14,8.59,8s5.38-.27,7.7-2.48C324.29,167.28,298.12,149.42,296.9,157.86Z" fill="#dd7243"/>
        <path id="thumb_l" data-name="thumb l" d="M312,163.79c-2.8-.86-5.12-5.73-9-7-4.16-1.32-7.16.66-7.54,4.58s3.38,5.24,9.54,7S314.81,164.64,312,163.79Z" fill="#ffca8a"/>
        <path id="shirt_back" data-name="shirt back" d="M117,131.38c-6.57,2.76-8.11,20.35-7.55,38.17s40.3,71.16,43.42,61.82S133.66,124.39,117,131.38Z" fill="#bca675"/>
        <path id="torso_skin" data-name="torso skin" d="M223,33H176.77l2.17,36.31s-6.56,15.94-8.56,19.94S132.54,109,126.31,114.61s-12.85,71.68-3.39,93.91,87.17,17.27,94.07,7.78,8-45.3,2.64-57.42-32-46.17-32-46.17L223,88.09Z" fill="#ffca8a"/>
        <path id="torso_shadow" data-name="torso shadow" d="M199.38,120.12c-.25-5.25,13.57-17.2,13.57-17.2l-21.82-49.8s-5.75,30.25-7.25,36.75c-10,3.5-22.5,20.75-22.5,20.75a54.37,54.37,0,0,0-20.5,0c30.5,10,34.25,36.75,31.25,56.25-4-15.75-29.25-15.75-31.25,0s5.5,46.38,46.37,46.38,21.38-85.13,18.88-88.63A12.81,12.81,0,0,0,199.38,120.12Z" fill="#dd7243"/>
        <path id="shirt_torso" data-name="shirt torso" d="M206.13,124.62c2.75,5.5,4.92,21.84-4.25,22.25s-23.25-18.75-29-30.5c-3.5-3.75-28.44-12.59-39.08-6.93,42.85,2.73,51.16,31.93,46.49,61.27s-41.33,40-61.19,26.95c.62,14.64,10.86,34.71,11.19,41.05s10,23-12.1,43.66c23.22,15.34,61.44,18.67,100.77,4,0,0-9.33-28.66-11.33-36.66s20.69-49.25,21.41-67.84S217.13,142.37,206.13,124.62Z" fill="#ffe8ae"/>
        <path id="shirt_abs_shadow" data-name="shirt abs shadow" d="M209.51,249.37c-4.15-8.5,9.15-55.5,6.55-67.5s-49.4,22.61-60.85,26S150.56,294,150.56,294c22.55,6.2,65.1-3.58,68.4-7.58S213.66,257.87,209.51,249.37Z" fill="#bca675"/>
        <path id="hair_tail11" data-name="hair tail11" d="M181.53,8.56c-1.81-12-21.86-1.5-29.36,3.66s1,31,16.62,39.14c0,0-11.75-17.16-.34-32.64C172.41,13.35,182.27,13.46,181.53,8.56Z" fill="url(#linear-gradient)"/>
        <path id="hair_tail10" data-name="hair tail10" d="M173.38,18.3c-9.11-.12-17.14,25.81-9.09,41.54,0,0,.34-20.8,18.6-26.82,6.34-2.09,14.32,3.7,16.56-.72C204.91,21.46,182.48,18.43,173.38,18.3Z" fill="url(#linear-gradient-2)"/>
        <path id="hair_tail9" data-name="hair tail9" d="M160.25,12.64c-9.5,8.25-22.92,29.37-10.81,46.5,10.06,14.25-4.81,28.25-4.81,28.25,19.37-11.75,8.89-30.75,13.13-44.5,3.48-11.28,6.2-13,7.07-13.21C162.67,29.93,149.18,30.86,160.25,12.64Z" fill="url(#linear-gradient-3)"/>
        <path id="hair_tail8" data-name="hair tail8" d="M143.16,32.43c-6,10.94-18,9.71-25,9.7,16.72,5,23.1-.19,26.44-6.39s6.28-26.37,21.78-28.62C145.91,9.62,147.91,23.23,143.16,32.43Z" fill="url(#linear-gradient-4)"/>
        <path id="hair_tail7" data-name="hair tail7" d="M174.2,40.77c-.39-5.39-10.34-16.2-1.21-24-12.27,10.06-5.37,18.06-4.67,26,.62,9.58-5.17,17.6-9.73,20.48C172.4,53.85,174.59,46.17,174.2,40.77Z" fill="url(#linear-gradient-5)"/>
        <path id="hair_tail6" data-name="hair tail6" d="M169.79,17.75c-1.16-7.71-14-1-18.87,2.36s-1.82,18,8.25,23.25c0,0-.22-15.54,2.21-19.07S170.26,20.91,169.79,17.75Z" fill="url(#linear-gradient-6)"/>
        <path id="hair_tail5" data-name="hair tail5" d="M176.28,6.72c-3,.21-1.51,6-4.22,9s-16.85,5.89-16.85,5.89c6.79,8,20.79,7.76,22.79,2.71S183.51,6.21,176.28,6.72Z" fill="url(#linear-gradient-7)"/>
        <path id="hair_tail4" data-name="hair tail4" d="M158,44.54c-.3-10.24,1.46-12.39,2.11-12.83-1.7.81-12.52,5.35-8.52-12.71-5.5,9.43-10.61,30.53,4.12,41.21,12.25,8.88,4,24.54,4,24.54C172.25,69.68,158.33,57,158,44.54Z" fill="url(#linear-gradient-8)"/>
        <path id="hair_tail3" data-name="hair tail3" d="M163.67,27.42c-6,5.28-14.35,18.74-6.59,29.52,6.47,9-2.88,17.93-2.88,17.93,12.21-7.56,5.46-19.54,8.07-28.27,2.14-7.2,3.86-8.26,4.4-8.41C165.32,38.36,156.75,39,163.67,27.42Z" fill="url(#linear-gradient-9)"/>
        <path id="hair_tail2" data-name="hair tail2" d="M158.89,44.09c-5.74,3.87-14.48,14.49-9,24.64,4.53,8.45-4.52,15.09-4.52,15.09,11.36-5.11,6.91-16.18,10.15-23.39,2.66-6,4.26-6.67,4.74-6.74C159.06,53.69,151.62,53.3,158.89,44.09Z" fill="url(#linear-gradient-10)"/>
        <path id="hair_tail" data-name="hair tail" d="M157.74,45.06c-2.89,10.43-13.23,11.76-19.17,13.15,15.12.9,19.48-4.75,21.06-10.64s.08-23.51,12.72-28.49C155.54,25.26,159.93,36.35,157.74,45.06Z" fill="url(#linear-gradient-11)"/>
        <path id="hair_side4_l" data-name="hair side4 l" d="M265.38,38.26c-7.47-2.53-21.55,3.29-22.84,4.85s6,25.24,11.43,33S274.5,41.35,265.38,38.26Z" fill="url(#linear-gradient-12)"/>
        <path id="hair_side3_l" data-name="hair side3 l" d="M262.83,21.12c-7.55-2.46-22.36,8.94-23.64,14.2-.48,2,25.17,34,34.1,37.2C284,76.43,276.41,25.55,262.83,21.12Z" fill="url(#linear-gradient-13)"/>
        <path id="hair_side2_l" data-name="hair side2 l" d="M273.15,41.25c-3.15-2.35-11.4.71-11.4.71s1.64,18.55-7.78,34.17-11,45-11,45,15.7-15.3,25.7-30.95S278.17,45,273.15,41.25Z" fill="url(#linear-gradient-14)"/>
        <path id="hair_side_l" data-name="hair side l" d="M257.15,80.47c-1.52-10.88-.47-29.07-.47-29.07s-6.56,5.81-7.4,9.13,2.18,19.41,14.45,46.19C263.73,106.72,258.67,91.34,257.15,80.47Z" fill="url(#linear-gradient-15)"/>
        <path id="face_shadow" data-name="face shadow" d="M249.27,82.93a39.7,39.7,0,1,0-56.73-3c-.27,8.09,1.21,17.72,6.42,22.23,8.67,7.5,20.67,13.16,23.38,11.83s19.79-16.5,19.79-16.5c3.33.17,8-1.67,8.83-2.17s-1.83-6.83-2-9.66A9.66,9.66,0,0,1,249.27,82.93Z" fill="#dd7243"/>
        <path id="face" d="M248.32,84.16a36.54,36.54,0,1,0-52.13-4c-.43,7.43.7,16.33,5.4,20.6,7.8,7.09,18.71,12.58,21.24,11.41s18.58-14.73,18.58-14.73a19.92,19.92,0,0,0,8.18-1.79c.78-.44-1.53-6.33-1.62-8.94A8.82,8.82,0,0,1,248.32,84.16Z" fill="#ffca8a"/>
        <path id="face_nose_shadow" data-name="face nose shadow" d="M247.88,91.12c-1.2-.75-10.13,3.41-9.25,4.13,2.12,1.75,10.84,1.4,11,.4S249.07,91.88,247.88,91.12Z" fill="#dd7243"/>
        <path id="face_toplip_shadow" data-name="face toplip shadow" d="M237.13,98.62s-5.5,1.17-8.09.59a11.73,11.73,0,0,0,5.51,1,30.35,30.35,0,0,1,2.78,1.56s2.71-1.21,2.72-2.38S237.71,99.21,237.13,98.62Z" fill="#dd7243"/>
        <path id="face_chin_shadow" data-name="face chin shadow" d="M233.75,103.82c-.44-.7-4.31-1.39-5.31-.45s.45,3.22,1.51,3.53S234.18,104.51,233.75,103.82Z" fill="#dd7243"/>
        <path id="face_eye_shadow_r" data-name="face eye shadow r" d="M253.64,70.23c-1.08-1.41-13.59-1-17.16,4.17-1.33,1.92,8.5,8.42,10,7.25S254.73,71.65,253.64,70.23Z" fill="#dd7243"/>
        <path id="face_shadow_r" data-name="face shadow r" d="M261.19,40.87c0-5.42-12-21.78-19.57-19.4-1.43.45-3.18,2-5.08,4.16-9.09,4.09-22.14,13.93-26.85,21.67-5.38,8.83-8.3,30.7-12.88,34.67s-14.5,7-14.5,7,11.75-.93,16.63-5.09a13.08,13.08,0,0,0,2.42-3.16c-1.55,5.48-2.61,10-3.15,12.37a140.46,140.46,0,0,1-11.85,8.9s20.31-8.73,27.33-15c3.4-3.07,9.21-10.66,14.28-17.66,15.5-3.49,23.87-7.21,25.55-9a11,11,0,0,0,1.89-3.7c4.61-1.41,8-2.76,8.19-3.47C264,52,263.17,46.34,261.19,40.87ZM232.5,64.47l-1.54.68c.85-1.2,1.66-2.34,2.4-3.4l.92-.58c1.85-.2,3.9-.5,6-.89C237.61,61.87,234.91,63.35,232.5,64.47Z" fill="#dd7243"/>
        <path id="eye_white_r" data-name="eye white r" d="M247.29,74.2c-1.55-.85-6.81.39-6.61,1.18s.44,4.25,5.41,5.33C247.84,79,249.58,75.44,247.29,74.2Z" fill="#f9dacf"/>
        <path id="eye_shadow_r" data-name="eye shadow r" d="M248,73.1s-6.65.41-8.05,1.57l.65,2c1.56-.76,5.21-1.5,6.49-1.1S248,73.1,248,73.1Z" fill="#d1bbb4"/>
        <path id="eye_lash_r" data-name="eye lash r" d="M250.08,73.16c-2.52-1.47-7.59-.24-9.65.94a4.47,4.47,0,0,1-2.78.44s3.58,5.91,8.6,6.18c-5.22-1.13-5.17-5-5.17-5a9.17,9.17,0,0,1,5.41-.79c2.85.36,3.32,1.14,3.4,1.35a5.88,5.88,0,0,0-1-2S248.75,73.7,250.08,73.16Z" fill="#1c1c1c"/>
        <path id="eye_iris_r" data-name="eye iris r" d="M248.16,77.06c-.61,1.74-1.93,2.86-2.94,2.5s-1.33-2-.72-3.78,1.92-2.86,2.94-2.5S248.77,75.33,248.16,77.06Z" fill="#1c1c1c"/>
        <path id="brow_r" data-name="brow r" d="M256.29,71.62c-.66-.25-10.5-7.38-11.75-7.46s-6.89,1.71-6.89,1.71A26.93,26.93,0,0,1,243.13,67c1.58.55,9.41,6.66,10.75,6.75S257,71.87,256.29,71.62Z" fill="#1c1c1c"/>
        <path id="hair_back" data-name="hair back" d="M258.78,20.92c-2-6.55-29.2-18.38-35.16-20.54s-37.54,5.5-40.35,5.83-7.52,9.17-9,12.21-4.5,42.79-4,47.46,0,6.5,8.7,8.85l9.34-13.19s7.79,8.5,12.12,10.17S260.75,27.47,258.78,20.92Z" fill="url(#linear-gradient-16)"/>
        <path id="hair_side6_r" data-name="hair side6 r" d="M231.55,60.54c-10,4.61-25.64,8.67-25.64,8.67,29.17-4.17,44.34-10.33,46.67-12.83s3.67-11.17,3.67-11.17S241.53,55.93,231.55,60.54Z" fill="url(#linear-gradient-17)"/>
        <path id="hair_side5_r" data-name="hair side5 r" d="M254.38,27.38c-7.53-6-35.18,29.69-25.68,30.08s33.34-6.32,33.95-8.25S260.55,32.29,254.38,27.38Z" fill="url(#linear-gradient-18)"/>
        <path id="hair_side4_r" data-name="hair side4 r" d="M229.66,43.38C217.91,67.71,210.41,81,185.41,98.09c0,0,20.32-8.73,27.34-15S237,51.21,237,51.21Z" fill="url(#linear-gradient-19)"/>
        <path id="hair_side3_r" data-name="hair side3 r" d="M208.75,43.38c-5.38,8.83-8.3,30.69-12.88,34.66s-14.5,7-14.5,7S193.12,84.16,198,80s10.51-24.67,18.06-33.54,22.1-17.13,22.1-17.13l1-9C230.37,23,214.12,34.54,208.75,43.38Z" fill="url(#linear-gradient-20)"/>
        <path id="hair_side2_r" data-name="hair side2 r" d="M240.67,17.54C231.49,20.42,209,67,218.27,65s42-26,42-28C260.26,31.54,248.26,15.17,240.67,17.54Z" fill="url(#linear-gradient-21)"/>
        <path id="hair_side_r" data-name="hair side r" d="M247.66,22.46c-5.86-2.2-30.91,13.37-38.66,30.25s-12.13,38.35-12.13,38.35,23.79-17.23,31.83-33.6,24.53-25,24.53-25S251.33,23.83,247.66,22.46Z" fill="url(#linear-gradient-22)"/>
        <path id="hair_top" data-name="hair top" d="M221.16,2.21C217.66,1.87,179,10,182.65,10c16.16.17,24.85,10.29,24.85,10.29s23.66-8,37.56-6.25C245.06,14.08,224.66,2.54,221.16,2.21Z" fill="url(#linear-gradient-23)"/>
        <path id="cheek_highlight_r" data-name="cheek highlight r" d="M222.33,77c-1.16.07-1.29,5.5-.61,6.63s8.66-4.91,9.19-5.65S224.29,76.93,222.33,77Z" fill="#fce7ca"/>
        <path id="neck_highlight_r" data-name="neck highlight r" d="M146,104.92c-1.52.8,7.64,1,9.44.64s12.83-11.19,13.2-12.15S147.39,104.2,146,104.92Z" fill="#fce7ca"/>
        <path id="arm_r" data-name="arm r" d="M228.08,158.62c-16.2,10-27.7,32.5-33.7,39.75s-24.75,11.75-30.5,19.25c5-18.75,4.25-30.25,2.25-43.25s-9.25-21.25-6.75-25.75-16.75-40.75-27-37.5c-11.31,3.59-20.5,19.25-22.5,24s3.5,25.75,5.75,29.25-2,16.5.75,25.25,12.75,36,16,40.75,10,29.5,14.75,34.25,11.5,12,23.5,5.5,30-28.25,37.5-41,36.85-50.75,40.3-54.5Z" fill="#ffca8a"/>
        <path id="shoulder_shadow_r" data-name="shoulder shadow r" d="M128.5,160.25c-.87-2.38-11.39-22-15.62-20.88-3.38.88-2.38,7.7-1.21,13s5.46,12.36,4.47,19.08,2,6.4,4.55,6S129.38,162.62,128.5,160.25Z" fill="#dd7243"/>
        <path id="forearm_shadow_r" data-name="forearm shadow r" d="M237.38,175.12c-2.5,0-3.22,5.94-6,10.44s-33.53,47.31-38.53,55.06-13.5,13.25-20,13.75-12.36-7.81-21.25-2.75c-3.6,2,2.69,17,7,19s26.15-7.75,35.4-19.5,36.51-55.89,39.76-57.89,8.14-7.67,9.14-9.92S239.88,175.12,237.38,175.12Z" fill="#dd7243"/>
        <path id="arm_shadow_r" data-name="arm shadow r" d="M118.19,186c3.33,24.18,20.38,51.61,20.38,51.61-.08-1.71,2.09-12.61,5.05-16.8C138.9,219.34,129.33,214,118.19,186Z" fill="#dd7243"/>
        <path id="armpit_shadow_r" data-name="armpit shadow r" d="M159.05,153.65c.93-4.54,8.7-3.22,8.7,0s-.13,13.63-3.06,10S158.35,157.07,159.05,153.65Z" fill="#dd7243"/>
        <path id="shoulder_highlight_r" data-name="shoulder highlight r" d="M139.85,112.35c-2.55.72-11.57,4.33-10.57,5.06s13.92,4.92,14.3,3.17S141.37,111.92,139.85,112.35Z" fill="#fce7ca"/>
        <path id="forearm_highlight_r" data-name="forearm highlight r" d="M191.41,203.87c-10.25,5.75-29.57,18.45-32.82,23-2.33,3.25,9.82,4.25,15,4.5S201.66,198.12,191.41,203.87Z" fill="#fce7ca"/>
        <path id="index_r" data-name="index r" d="M251.31,134.77c-2.44,2.56-1.51,8.41.67,9.8,2.36,1.5,11.26-4.38,11.39-5.5C264.28,130.9,251.17,135.6,251.31,134.77Z" fill="#ffca8a"/>
        <path id="middle_r" data-name="middle r" d="M268.11,140.68c-1.53-2.34-12.07-.66-12.64.31s6.73,9.39,8.36,9.14C267.68,149.54,269.64,143,268.11,140.68Z" fill="#ffca8a"/>
        <path id="ring_r" data-name="ring r" d="M274.06,150.29c-4.14-10.15-10.29-1.85-10.19-2-1.92,2,2.16,11.89,3.25,12.23S274.68,151.82,274.06,150.29Z" fill="#ffca8a"/>
        <path id="pinky_r" data-name="pinky r" d="M275.59,153.83c-1.89-3.41-6.93-1.34-8.59.9s3.55,11.56,4.66,11.76S276.38,155.27,275.59,153.83Z" fill="#ffca8a"/>
        <path id="thumb_r" data-name="thumb r" d="M235.1,141.71c-3.35,1.49-5.64,16.46-4.92,17.35s13.77-6.72,14.4-8.77C246.09,145.42,238.45,140.22,235.1,141.71Z" fill="#ffca8a"/>
        <path id="glove_r" data-name="glove r" d="M246.67,133.47c-2.7,2-19.8,18.75-23,28.75,3.47.69,16.75,11.75,17.38,17.75,0,0,4.87,3,8.35,1,1.48,1,7.27.5,12-2.25s13.75-15,13.25-20S255.62,135,246.67,133.47Z" fill="#203f4f"/>
        <path id="glove_shadow_r" data-name="glove shadow r" d="M274.66,159.22c-3.83-4.49-11.33,0-16.66,6s-15.17,11.05-13.26,13.9c3.41,5.07,14.09,1.43,19,0S278.5,163.71,274.66,159.22Z" fill="#1c1c1c"/>
      </g>
    </g>
  </g>
</svg>
