<svg xmlns="http://www.w3.org/2000/svg" viewBox="0 0 168.09 166.98"><defs></defs><title>full_17</title><g id="poca"><g id="_17" data-name="17"><path id="shoulder_left" d="M135.19,143.74c2,.69,4-1.05,6-.07.55,1.26,1.76,2.07,2.3,3.35,2.06,6.44,4.73,12.83,1.45,19.65l-9.89,0c-1.67-1.5-1-4-2.53-5.61a6.49,6.49,0,0,1-.61-2,28,28,0,0,0-4.7-12.11,6.43,6.43,0,0,1-.76-1.09c-.46-1.23-1.47-2.18-1.77-3.5.1-.48.08-2,.5-2.19a2.4,2.4,0,0,1,2,.15c.34-.11,1.59,1.39,1.84,1.64A28.38,28.38,0,0,0,135.19,143.74Z" fill="#cc5e60"/><path id="shoulder_shadow_left" d="M143.63,145.38c-1,0,2.29,21.56,1.26,21.6-.3-.41-4.67-22.31-4.4-22.74a1.68,1.68,0,0,1,2,.23Z" fill="#b54449"/><path id="shirt_dark_left" d="M145,166.67a48.84,48.84,0,0,0-3-20.87c0-1.88,1.18-1.08,1.95-.71,2.66,1.29,5.47,2.26,8,3.75l1.17.68c1.17,1,2.77,1.31,4,2.26l0,0c1.42,2.19,4.3,3.15,5.07,5.91.24,3.09,1.06,6.25-1.18,9Z" fill="#fbac88"/><path id="shirt_light_left" d="M161,166.66c0-3.29,0-6.57,0-9.86,1.71-.62,2.16,1,3.14,1.74a7.44,7.44,0,0,0,1.22,2.16c.58.82.62,1.94,1.44,2.63.64,1,1.5,1.95,1.18,3.3Z" fill="#f9b8ad"/><path id="shoulder_right" d="M45.18,166.65c-13.95,0-27.9,0-41.85.21C.66,166.89,0,166,0,163.43.12,153.3,0,143.16.07,133c0-1.6-.36-3.43,1.68-4.27,2.54-1.8,5.54-2.66,8.29-4l-.06,0c8.1-1.3,15.77-.27,22.92,4a37,37,0,0,0,5.84,2.75,20.61,20.61,0,0,1,5.19,2.73,2.2,2.2,0,0,1,.62,1.33v.76c0,.51-.09,1-.12,1.53s0,1,0,1.58c0,4.94.1,9.87,0,14.8,0,2.63-.43,5.31,1.29,7.65C46.28,163.57,46.44,165.19,45.18,166.65Z" fill="#cc5e61"/><path id="neck" d="M109.06,166.66l-26,0c-3.76-1.18-7.45-2.6-11.31-3.48-7.13-1.63-12.81-5.17-15.44-12.43-3.25-5.13-2.9-10.7-2-16.34,1.76-2.22,3.5-4.48,5.08-6.86a6,6,0,0,1,1.11-.89l.64-.29c8.23-.94,13.48-6.62,18.66-12.13,4.23-4.5,10-7.07,13.87-12,.81-1,2-1.76,2.71-2.92,1.55-2.24,4-3.41,6-5.17a16.89,16.89,0,0,0,5.51-8.05c.37-1.21.14-3.17,1.69-3.2s1.64,1.8,1.76,3.11a12.74,12.74,0,0,0,.9,4.8A24.26,24.26,0,0,1,113.33,101c-.45,7.89-.62,15.81-2,23.62-1.85,5-.36,10.53-2.28,15.56a6.39,6.39,0,0,0-.09,1.47c.15-.63,0-1.29.11-1.92.21-1.25,0-2.72,1.7-3.22a12.7,12.7,0,0,1,5.4,6.21,43.73,43.73,0,0,0,4.41,7.72c2.45,3.35,2.06,7.17,1.07,11C118.58,165.86,113.29,165,109.06,166.66Z" fill="#cc5e61"/><path id="necklace_left" d="M133,158.83c0,.65,0,1.29.05,1.94.81,2,1.57,3.91,0,5.86h-4c-2.59-1.47-5.33-2.65-7.79-4.35-.13-.19-.25-.39-.37-.59,1.34-5.82-1.25-10.59-4.15-15.26-2-3.17-4-6.34-5.94-9.51a3.32,3.32,0,0,1-.58-1.23,3,3,0,0,1,.51-2,3.17,3.17,0,0,1,1.25-.64c4,.13,9.87,3.43,12.28,6.75,1.74,1.72-.62,1.94,1.53,3.44.73.47.58,2,1.2,2.58h0C129.71,149.84,130.72,154.64,133,158.83Z" fill="#578aa1"/><path id="necklace_right" d="M45,135.52a17.74,17.74,0,0,1,9.89-1.29c0,5.62-.38,11.29,2.13,16.58,1.29,2.56,2,5.43,3.91,7.64a1.82,1.82,0,0,1,.34,1.28,3.51,3.51,0,0,1-.92,1,10.33,10.33,0,0,1-1.82,1C55,163.2,51.93,165.83,48,166.66H45.18l-.24-4.72c-1.79-2.08.06-5.1-1.83-7.15l.2-16.93C43.83,137,44.51,136.34,45,135.52Z" fill="#578aa1"/><path id="face" d="M112.24,46.74l-.68,0a4.78,4.78,0,0,0-.44-.46l-.33-.22-.67-1.34a7.7,7.7,0,0,0-1.81-2.46c-.7-.45-1.37-1-2.28-.48-1,.29-2.32-.6-2.94.74a2.7,2.7,0,0,0-.82,1L102,44.9c-.9,1.92-1.79,3.83-2.68,5.75a5.7,5.7,0,0,1-.52.46c-1,.39-1.72,1.23-2.82,1.38l-.18-.07c-1.36-4.36-3-8.55-6.66-11.68-1.26-.86-2.93-.87-4.09-2l-3.21-1.88C80.35,35,77.9,34.75,76,33.55a22.56,22.56,0,0,1-2.2-1.1l-.48-.34c-.31-.25-.61-.5-.93-.72a9.37,9.37,0,0,0-1-.68,16.59,16.59,0,0,1-3.22-2.87C66.71,26.42,65.28,24.9,63,24.9c-.83-3.52-4.56-4-6.94-6a11.21,11.21,0,0,0-6.51-1.22,8.9,8.9,0,0,0-1.43.31l-3.39,1.09c-3.71,1.46-7.54,2.66-10.85,5C31.62,26,29.15,27.8,28,30.76l0,0a5.9,5.9,0,0,0-.87,1.12l.06-.05a1.9,1.9,0,0,0-.58,2.25c-.07.14-.16.26-.23.4a31.11,31.11,0,0,0-2.18,4.64c-.72,3.6-.72,7.31-1.8,10.84-.22.43-.15.72.37.8,1.82,1.57,3.3.46,4.78-.6-1.19,1.29-3.27,1.67-3.77,3.68a5.07,5.07,0,0,0-.19,1.45C24,57.19,24.67,59,25,60.87l0-.06c1.47,2.71,4.63,1.91,6.76,3.26.64.41,1.68.67,1.44,1.61s-1.33.69-2.06.9c-2,.52-4.17.77-4.58,3.41.21,2.07-.73,4.05-.47,6.12,0,.73.34,1.4.46,2.12.89,2.19,1.75,4.39,2.77,6.53a5.68,5.68,0,0,0,.81,1.54c0,.18,0,.37,0,.55a29.05,29.05,0,0,1,7.9,11.75,11,11,0,0,0,4.54,6.19c.49.27,1,.57,1.42.88q3.56,5.6,7.09,11.21c1.14,1.82,1.95,3.9,4.11,4.86a3.2,3.2,0,0,0,3.32.29c.2.09.39.2.6.29,4.52.48,8.43-1.23,12.23-3.36a10.21,10.21,0,0,0,1.14-.81l.53-.44c3.6-1.56,5.91-4.62,8.56-7.29,1.65-2,3.91-3,6-4.26,4.42-3.77,9.15-7.15,13.7-10.77,3.33-2.66,6.09-5.65,6.79-10.06a22.17,22.17,0,0,0-.52-8.74c-.87-3.28.18-4.94,3.61-5,3.22-1.9,4.57-4.92,5-8.46a18.29,18.29,0,0,0,.45-2.2l.22-.29c0-1.92,0-3.84,0-5.76A11.3,11.3,0,0,0,112.24,46.74Z" fill="#cc5e61"/><path id="_neck_shadow" data-name=" neck_shadow" d="M97,99.79c-3.6,4.44-7.28,8.82-12.46,11.5a4.56,4.56,0,0,0-1.7,1.3C78.63,118,73.27,122.13,67.7,126c-2,1.39-4.44.19-6.6.81-1-2.7.07-4.36,2.74-5,3.07-.71,5.63-2.38,8.21-4l0,0c.26-.21.36-.42.28-.64s-.16-.34-.25-.34c3.94-1.13,5.81-4.9,9-7a75.24,75.24,0,0,0,7.08-4.54C91.16,103.56,92.77,99.51,97,99.79Z" fill="#c35155"/><path id="neckline" d="M110,124.81c.71,2.91-.92,6.06.91,8.86a.85.85,0,0,1-.35.42,6.27,6.27,0,0,0,0,1.56l.24,1.27c-1.38,2.2-.75,4.73-1.16,7.09-.11.64.06,1.37-.87,1.2a1.37,1.37,0,0,1-.69-1.12C108.82,137.67,108.37,131.14,110,124.81Z" fill="#bc484d"/><path id="jawline" d="M109.51,75.87c-.57-2.2-.34-3.79,1.61-5-5.52-.28-6.13.21-4.83,5.73a47.33,47.33,0,0,1,.76,9.23c-1.18,4-4.07,6.56-7.17,9.2-4.27,3.64-9.49,6.16-12.92,10.78a7.89,7.89,0,0,0-5.93,4c3.32.75,4.46-2.34,6.57-3.72a.81.81,0,0,0,.45-.26c3.35-1.48,5.37-4.95,9-6,.48-1.13,1.65-1.5,2.46-2.25,3.36-3.15,7.86-5.43,8.59-10.7,1.24-.63.63-2.09,1.35-3,1.1,1,.42,2.27.58,3.41s-.26,2.69,1.13,3.55A49,49,0,0,0,109.51,75.87Z" fill="#b43e47"/><path id="chin" d="M55.24,121.74h3.83c4.59-.46,8.72-2.41,13-4-1.71,2.64-4.43,3.77-7.23,4.57-2.37.69-3.59,2-3.72,4.46l-.06,0a.59.59,0,0,1-.9,0C61.66,122.11,56.75,123.55,55.24,121.74Z" fill="#b54248"/><path id="lips" d="M67.73,86.28c-.37,6.34-9,14.63-17.17,16.57-3.37.8-8.91-2.91-9.14-6.13-.13-1.73,5.33-7.49,7.48-7.86,5.92-1,12.12-.61,17.67-3.55C67.32,84.91,67.75,85.47,67.73,86.28Z" fill="#c63847"/><path id="nostril_right" d="M42.05,85.8,40.8,84.45c-.14.21-.43.48-.37.61.24.62.8.7,1.36.74a1.41,1.41,0,0,0,1.35.77c.11,0,.18-.24.27-.37Z" fill="#ba4b50"/><path id="notril_left" d="M48.63,81.83c-.29,1.12-1.31,1.74-2.18,2.39-.54.4-.82-.17-.63-.75a3.18,3.18,0,0,1,1.7-2.28C48,81,48.44,81.19,48.63,81.83Z" fill="#ba494e"/><path id="eye_right" d="M31.9,67.62a10.36,10.36,0,0,0-4.9,2c-.22.56-.52.63-.91.15-.7-2.33-3.21-4.4-.95-7.12a7.23,7.23,0,0,1,4.94,0A7,7,0,0,1,31.76,65C32.08,65.84,32.49,66.71,31.9,67.62Z" fill="#271419"/><path id="eye_lashes_right" d="M31.9,67.62c-.29-.61-.58-1.22-.86-1.83,2-1.73-.9-1.12-.91-1.9-1.32-1.81-3.34-.75-5-1.22-.05-.62-.09-1.24-.13-1.86,2.4,1.55,5.57.49,7.87,2.27,1.07.83,3.26,1,2.72,2.92C35.17,67.52,33.47,67.82,31.9,67.62Z" fill="#6b2429"/><path id="eye_white_right" d="M30.13,63.89c1.31,0,2.83.12,3.08,1.59.1.59-1.39.34-2.17.31C30.73,65.16,30.43,64.53,30.13,63.89Z" fill="#cfa4a0"/><path id="brow_right" d="M22.77,50.81a6.45,6.45,0,0,0,4.5-1.54c.59-.44,1.6-1.25,2.1-.55.71,1-.5,1.7-1.12,2.32-1.51,1.52-4.44,1.75-4.23,4.79.59,1,1,1.83-.76,1.81Z" fill="#7a1b22"/><path id="eye_left" d="M60.17,55c-2.45,3.54-5.44,3.23-8.75,1.33-1.26-.72-1.64-1.43-.85-2.77,2.27-3.84,12.89-6.65,16.85-4.31.72.42.3,1.14-.29,1.59-1,.67-2.14.3-3.23.33-1.39.57-4.57-1.18-3.41,2.67A1.39,1.39,0,0,1,60.17,55Z" fill="#2e0709"/><path id="eye_lashes_left" d="M63.93,49.88l3.2,1L63,53.63a1.37,1.37,0,0,1-1.22-1.35C62,51.07,63.25,50.72,63.93,49.88Z" fill="#551f24"/><path id="eye_line_bottom_left" d="M61.94,52.75l1,.88L60.17,55,60,53.86C60.35,52.94,60.91,52.45,61.94,52.75Z" fill="#481218"/><path id="eye_white_left" d="M61.94,52.75,60,53.86c-1.07-.37-2.65-.63-2.66-1.78s1.61-1.38,2.7-1.61c1.27-.27,2.57-.4,3.85-.59C64.3,51.55,62.66,51.83,61.94,52.75Z" fill="#b7959a"/><path id="brow_left" d="M62.38,37.11A11.42,11.42,0,0,0,60,37l.21.19A.54.54,0,0,1,60,37c-5.14.82-9.74,3.14-14.41,5.25-.82.37-2.78-.18-2.3,1.5.26.93,1.89,1.08,3.1,1.17,1.65.12,2.75-1,4.08-1.62,3.7-1.8,7-4.52,11.44-4.58.79,0,2,.52,2.23-.3S63.07,37.32,62.38,37.11Z" fill="#801b20"/><path id="ear_curve_left" d="M110.6,57.1a28.46,28.46,0,0,0-4.37-8.61c-.28-.36-.75-.72-.33-1.2a.88.88,0,0,1,.85,0c3.28,2.1,4.84,5.33,5.49,9,.51,2.89-1.16,5-3.12,6.83-.79.72-2.14,1.48-3.05,1.29-1.43-.3-1.28-2-1.51-3.27a6.62,6.62,0,0,1,0-2.43c.17-1-2.53-1.78-.36-2.61,1.64-.63,2,1.24,2.6,2.36.51,1-1.7,3.05.73,2.9C109.29,61.19,110.16,59.05,110.6,57.1Z" fill="#bd4d51"/><path id="hair" d="M58.11,11.27C60.72,9,61.41,5.82,61.92,2.6,69.45-.56,77.21-.49,85.07,1c1.05.6,2.31.21,3.4.69L91,1.93c-2.46,1.88-5.43.79-8.14,1.3a73.42,73.42,0,0,0-23.77,9.12c-.5.3-1,1.24-1.6.55S57.64,11.69,58.11,11.27ZM27.3,32.87l.4-.54c.26-.36.52-.73.77-1.1a7.67,7.67,0,0,0,.6-1.22c2.09-4.71,4.6-9.1,8.89-12.24,1.22-.9,2.53-1.95,2.27-3.77A7.24,7.24,0,0,0,47,16.65a.93.93,0,0,1,.1,0v.22h0c-5.11-.27-9.58,1-12.81,5.28-.74,1-1.61,1.83-.06,2.8l10.88-5c.41-.66,1.39-.37,1.84-1a1.31,1.31,0,0,0,.3.27,1.72,1.72,0,0,0,1-.27l.44.07.43-.13c-.08-1.06.18-2.23-.91-2.95l.09-.08A4.48,4.48,0,0,0,47.68,14a8,8,0,0,1,2.23,2.78c.68,1.43,2,1.56,3.23.49a18.94,18.94,0,0,0,1.26-1.43,4,4,0,0,0,.64-1c-.21-1.79.77-3,1.77-4.38,1.32-1.82,3.25-3.58,2.45-6.28-2,1.4-4.65,1.54-6.7,2.76-3,1.78-7.21.45-9.47,3.86-.23-.11-.45-.23-.67-.36-1.9-.72-3.79-1.52-5.88-.72-1.81,0-3.76-.34-4.57,2a2.63,2.63,0,0,1-1,1.13h0c-5.93,5.28-9.78,12-12.42,19.31-1.46,4-2.15,8.26.93,12.21C20.81,46,21.46,48.09,22.4,50c2.61-3.27,2.54-7.21,2.76-11.09C26.07,37,25.52,34.51,27.3,32.87ZM58.88,15.21c.43,1.14,1.65.11,2.55,0,16-2.6,32-4.9,47.6,2,1.84.82,1.87-.53,2.14-1.66-4.29-4.37-8-9.41-14-11.78-13-.07-25.29,2.39-36.34,9.62C60.08,13.87,58.48,14.14,58.88,15.21ZM56,121.11c-1.93-.7-2.54-2.54-3.5-4.07-2.89-4.62-5.54-9.42-9.61-13.18-2.28-1.13-2.57-4.09-4.81-5.26-3.49,8.53-7,17.05-14,23.46,1.38,3.29,8.14,6.89,13.56,7.2.43-.28.63-.89,1.27-.82-.49,0-.74.35-1,.64.56,3.49,4.61,3.32,6.09,5.84a1.16,1.16,0,0,1,0,.78,1.85,1.85,0,0,0,1.36.6c3.21-.63,6.51-.79,9.58-2.07,3.29-.87,3.54-4.14,5-6.41a3.08,3.08,0,0,0,.73-1.35C62,122.16,58.39,122.17,56,121.11Zm92-29.45a1.07,1.07,0,0,0,.73,0c1.32-.4.94-2.1.63-3.1-1.68-5.36-2.05-11.1-4.14-16.28-2.62-6.52-4.28-13.74-10.58-18.16-4.61-4.59-10.91-6.11-16.53-8.73-2.34-1.09-5.35-3.89-8.5-1-.23,1.25.53,1.85,1.5,2.32l0,0a6.91,6.91,0,0,0,.93,1,50.53,50.53,0,0,1,6.4,4.27,1.39,1.39,0,0,0-1-.15c-1.58.32-1.34,2-1.25,3.26a9,9,0,0,1-.08,5.08,1,1,0,0,0-.2.76c-.51.52-.31,1.57-.78,2.11-.34,3.12-2,5.55-4,7.81-3.36.69-3.49,3.14-2.77,5.67a77,77,0,0,1,2.79,14.32c1.49,11.39.17,22.68-1.12,34-.35,3-1.66,6.14.91,8.86,3.83.72,7.65,1.47,10.21,4.86a6.44,6.44,0,0,0,3.06,2.13,3.24,3.24,0,0,0,2.5-.59l0,.55a3,3,0,0,0,1.3,1.71,6,6,0,0,0,1.32.53,50.4,50.4,0,0,1,5.79,1.67c2,.59,3.95-.06,5.91-.16a2.36,2.36,0,0,0,2-1.53c6-6,7.08-13.88,8.15-21.75-.08-2.8.79-5.48.91-8.27A44.72,44.72,0,0,0,148,91.66ZM119.31,45c4.9,2.27,10.2,3.68,14.72,6.77-1.43-7-5.66-12.52-9.28-18.36-6-9.71-14.4-16-26-17.7A107,107,0,0,0,59,17.8c-2-.83-3.1-.24-3,2.05,2.06,2.35,5.44,3.11,7.12,5.92,2.16.16,2.95,2.41,4.75,3.12a12.6,12.6,0,0,1,4.06,3v0a4.38,4.38,0,0,1,1.1.91h0c.52.59,1.52.39,1.93,1.18a12.36,12.36,0,0,0,6.85,2.93l.28,0c-.7,1.7,1.38,1.71,2.27,2.44a9.81,9.81,0,0,1,4.24,2.23A9.68,9.68,0,0,1,92.21,46c1.09,2.6,1.7,5.56,4,7.59,1.71.58,1.83-1.16,2.67-1.85,2.74-2.36,3-5.86,4.17-9h0c.69-1,2.48.21,3-1h0l2,1.07C112.22,41.32,115.83,43.42,119.31,45Z" fill="#110001"/><path id="hair_lines" d="M153,111a26,26,0,0,1-1.83,10.14c-.28-1.75-.76-3.33-.39-5.29,1.21-6.43.13-13.11-1.52-19.08-1.22-4.37-4.11-8.87-6.72-13.07-.71-1.14-2-2.38-1.06-4.06,1.25.72,1.42,2.16,2.14,3.23,1.39,2.06,2.64,4.2,4,6.26.39.57,0,1.71,1.14,1.66a4,4,0,0,0,.1-1.84c-2.82-9.58-4.33-19.55-9.58-28.41-1.46-2.47-4.13-3.25-5.25-5.68a84.07,84.07,0,0,0-21.34-10.18c-.92-.31-1.75-1.07-2.59.06A3.06,3.06,0,0,1,108,42.82c.71-1.75,2.23-2,3.69-1.53,7.28,2.28,14.86,4,20.8,9.1l-.07-.14c-3-7.68-7.69-14.29-12.43-20.91-6.25-8.73-15.41-11.73-25.38-12.81a101.85,101.85,0,0,0-30.71,1.54,18.66,18.66,0,0,1-3.94.51A5.79,5.79,0,0,1,57.8,18,3.11,3.11,0,0,0,56,19.85a16.72,16.72,0,0,0-7-1,3.1,3.1,0,0,1-1-3,10.41,10.41,0,0,0-6-4.05l1-.95a11.24,11.24,0,0,1,7.75,5.43c1.12,1.94,1.67.57,2.25-.43a13.33,13.33,0,0,0,1-1h.55l0-.05c-1-4.46,3.48-6.65,4.3-10.35l.18-.66A3.9,3.9,0,0,1,61.92,2.6c1.18,1.52.69,3.13.24,4.73-.32,1.12-1.19,2-1.65,3,1-.66,2-1.17,3-1.75A51.49,51.49,0,0,1,91,1.93,11.64,11.64,0,0,1,97.2,3.74c-4,2.61-8.66,1.47-13,2.25a70.39,70.39,0,0,0-21,7.32c-.32.17-.72.18-1,.43l2-.39a103.7,103.7,0,0,1,35.58-.77c3.93.64,7.4,2.87,11.44,2.94,9.8,9.7,18.86,19.89,23.62,33.23,2,5.61,6.27,10.15,8.27,15.81C148.35,79.6,152.87,94.8,153,111ZM38.05,128.81c-4-1.53-8-3-12-4.66-.82-.35-1.36-1.38-2-2.09L22,123c-1.08,2.11.68,2.06,1.87,2.46a95.47,95.47,0,0,1,15.24,7.27L44,134.92C43.59,131.33,39.3,131.54,38.05,128.81ZM88.47,1.66A4.24,4.24,0,0,0,85.07,1C86,2.12,87.25,1.84,88.47,1.66ZM25.16,38.92c1.14-1.14,1.38-2.68,1.83-4.13.07-1,.13-1.94.2-2.91C23.74,33.43,25.35,36.44,25.16,38.92Zm93.9,34.88c-.61.06-.63.71-1,1,4.43,9.89,9.87,19.41,11.9,30.22,2.19,11.66,5.42,23.46-2.85,34.27-.08.11,0,.33,0,.5,4.43-1.5,5.91-5.06,5.92-9.22,0-8.05,1-16.13-.91-24.13C129.29,94.93,126,83.65,119.06,73.8Zm0-20a2.32,2.32,0,0,0,2,1c1.33,4.18,5,6.3,8,9v0c-2-3.58-3.48-7.64-8-9-1.64-4.11-4.84-6.51-8.81-8.07L117,54.88c.14-.75,0-1.86.48-2.17C118.3,52.14,118.69,53.2,119.07,53.79Zm-81,75h0Zm3.66-2.66c.07-.15-.31-.68-.34-.67a7.45,7.45,0,0,0-3.12,2.9,1.89,1.89,0,0,0-.2.43A4,4,0,0,0,41.71,126.15ZM40.06,13.82c-1,1.77-2.75,2.81-4.16,4.17-3.67,3.55-7.15,7.35-7.87,12.77l6.15-5.86c1.1-2.75,3.33-4.32,5.76-5.8,2.19-1.32,5,0,7-2A1.25,1.25,0,0,0,47,15.82C44.4,16.24,42.54,13.94,40.06,13.82Zm-2,0h0a2,2,0,0,0-2-1h-1a1.94,1.94,0,0,0-2,1h0A3.34,3.34,0,0,0,38,13.82Z" fill="#1f1314"/></g></g></svg>
