<svg xmlns="http://www.w3.org/2000/svg" viewBox="0 0 159.71 158.47"><defs></defs><title>full_3</title><g id="poca"><g id="_3" data-name="3"><path id="shoulder_left" d="M105.58,144.91h2.08c4.86,2.07,9.66,5.05,14.92,1,3,3.37,3.68,7.57,4.22,11.81l-13.13.05c-3.91-2-4.86-6.31-7.44-9.34l-.42-.52a5,5,0,0,1-.66-1.16A1.93,1.93,0,0,1,105.58,144.91Z" fill="#cd5f61"/><path id="shirt_dark_left" d="M127.61,139.71l1.06-.56c1.32.59,2.93.55,4,1.79.59.59,1.55.4,2.12,1a1.3,1.3,0,0,1,.91,0,2.88,2.88,0,0,0,1.39.85.67.67,0,0,1,.55.09c.39.3.4,1.05,1.13.93a4.09,4.09,0,0,1,.84.26c.8,1.24,2.13,2,3,3.23,1.62,3.53,4.07,6.93,1.53,11-3.69.07-7.38,0-11.07,0-1.93,0-3.87,0-5.81,0-3.28-3.31-2.78-8.24-5.1-12C123.18,143.55,124.74,141.08,127.61,139.71Z" fill="#fbac89"/><path id="shirt_light_left" d="M144.67,157.75,141.58,147c.7-.69,1.39-.07,2.08,0l6,7c.63,1.38,2.66,2.53.73,4.34C148.46,158.2,146.46,159,144.67,157.75Z" fill="#f7b9b1"/><path id="shoulder_right" d="M25.64,143l6.17,2.2a13.42,13.42,0,0,1-.06,12.56l-14.14.33-3.94-.06h-12c-2.18-3.88-.31-8.15-1.16-12.15.1-2.89.2-5.77.31-8.66,4.06-2.56,7.79.52,11.57,1A33,33,0,0,1,25.64,143Z" fill="#cc5d61"/><path id="neck" d="M99.44,152.63a11,11,0,0,1,1.19-1.44c1-.82,1.82-1.73,1.65-3.15-.24-1,.34-2.21-.62-3.09,0-.34,0-.68,0-1a3.06,3.06,0,0,0-1.05-.73L100,143c-7.46-3.81-13.94-8.75-18.32-16.08-2.85-2.5-6.08-4.68-8.45-7.58-3.31-4-6.21-8.5-5.63-14.28.17-1.69.75-3.68-.89-5.15a15.77,15.77,0,0,0-.8,2.34A79.8,79.8,0,0,1,54.6,132.58c-2.77,4.3-5.76,8.42-10.89,10.25-2.34,2.92.43,5.16,1,7.68a12.21,12.21,0,0,1,1.84,5.36,3.91,3.91,0,0,0,1,1.87l9,.36,11,0,27-.31a10.79,10.79,0,0,0,1.7-1.53,2.92,2.92,0,0,0,.39,1.56l4.93.22.14-.32c1-2.27-.68-3.51-1.88-4.94A1.17,1.17,0,0,0,99.44,152.63Z" fill="#cc5e61"/><path id="necklace_left" d="M101.79,157.69c-.05-1.91-2.28-2.79-2.25-4.74a1.73,1.73,0,0,1,.11-2.13c.66-.94,2.13-1.33,2-2.84,1.09-1.29,2.29-2.23,4.06-1.16l.23,0c.16.4.36.45.61.08l7.14,10.83Z" fill="#5e879d"/><path id="necklace_right" d="M31.75,157.8l.06-12.56c3.81-1.58,7.87-1.92,11.9-2.41-.71,3,2.43,5.12,2,8.08,1.32,1.44.49,3.69,1.9,5.09l0,1.74-9.85.34Z" fill="#59889f"/><path id="face" d="M129.73,136.26c-.25,1-1.51,1.63-1.06,2.89,0,.84-.53,1.07-1.22,1.18-.49.09-1.08.2-1.32.6-4.78,7.63-11.37,7.33-18.61,4.29-3.81-3-7.87-5.73-11.87-8.52-7-6.37-15.17-11.25-21.76-18.15-3.7-3.88-5.73-8-5.5-13.31.16-3.65,0-7.31.08-11,0-1.51-.59-1.18-1.38-.54a6.15,6.15,0,0,1-1.17.66,3.91,3.91,0,0,1-1.36.21,4.11,4.11,0,0,1-1.33-.41,8.2,8.2,0,0,1-1.13-.83c-.18-.15-.34-.32-.52-.48a9.65,9.65,0,0,1-1-1,23.12,23.12,0,0,1-4-7.78c-1.09-5.3-3-10.67,1.26-15.54a4.65,4.65,0,0,1,3.61-1.31c3.88,2.63-.33,5.49.2,8.23,0,.18-.18.38,0,.47.55.37-.66.25,0,.06.17,0,.07-.6.15-.91.74-2.82,1.37-5.66,1.92-8.53a7.08,7.08,0,0,1,4.07-3.29c2-.49,3.45.38,4.47,2.08,1.56,2.26,1.54,6.41,4,6.79,1.6.26,2.51-4.13,4.1-6.24C83.87,61.07,89.13,58,93,53.38c1.44-1.24,2.41-2.92,3.82-4.21,10.72-5.33,22-9.13,33.33-13a33.33,33.33,0,0,0,5.09-.18c4.26.31,8.2,1.86,12.23,3.09,4.92,2.4,5.16,7.47,6.73,11.78a11.16,11.16,0,0,1,.41,1.36c.54,2.69,1.13,5.38,1.71,8.07a12.15,12.15,0,0,1,.35,1.35,24.54,24.54,0,0,1,.51,6.28c0,.93.13,2-1.12,2.29-2.1-.28-3.27-2.14-5.05-3,1.23,1.69,3.16,2.59,4.58,4.06a3.17,3.17,0,0,1,.57.82c.08,1.16,0,2.32,0,3.48a10.1,10.1,0,0,0-1.74,5.77c-.48,1.36-.12,2.79-.31,4.17a11.22,11.22,0,0,1-6.92,3.29c-.32,0-.65,0-1,0-.51.05-.57.06-.16.07a2,2,0,0,1,.48,0c2.5.68,4.43-2.27,7-1.1l.31,3c.62,1.52.26,3.09.3,4.64-2.17,4.83-4.45,9.62-6.4,14.55l0,0a3.53,3.53,0,0,0-2,2.22,5.34,5.34,0,0,0-1.08,2.2,1.32,1.32,0,0,1-.8,1.55c-2.34,1.36-3.22,3.75-4.26,6q-3,4.48-5.9,9a1.9,1.9,0,0,1-2.07.32c-2.29-1.5-1.2-3.46-.75-5.34,1-2.37,3.11-4.71,1-7.37-2.3-2.91-5.53-2.66-8.7-1.91-2.76.65-5.53,1.48-7.65,3.45-1.38,1.29-4.87,1.34-3.54,4.4s2.3,6.59,6.45,6.69c3.74.09,7.48,2.14,11.24.13a2.84,2.84,0,0,1,2.06.5C132.21,133.79,130,134.55,129.73,136.26Z" fill="#cc5e61"/><path id="neck_shadow" d="M101.65,143.93h-1c-3,1.09-4.8-1.68-6.45-2.94-5-3.84-11.47-6.64-12.56-14,4.44,3.19,9.24,5.93,13,10C96.6,139.65,100.86,140.06,101.65,143.93Z" fill="#c45355"/><path id="jawline" d="M124.15,141.09c-4.25,6.08-6.07,5.69-12.81,4.07-1.26-.3-2.38-1.09-3.68-.25-2.46-4.47-7.48-5.81-11-9-7.37-6.64-16-11.76-22.78-19.16a14.38,14.38,0,0,1-4.26-10.68c.13-4.48.06-9,.07-13.46,0-1.2.23-2.67-1.65-1-.87.76-2,1.2-2.32,2.47,1.76,1.71.33,4,1,5.86-.94,7.65,0,14.8,5.87,20.46a82.86,82.86,0,0,0,8,7.31c4.93,3,9.21,6.95,14.19,9.87.76,3.13,4.77,3.53,5.83,6.42a5.33,5.33,0,0,0,.82,1.07c.09,0,.18.06.27.09.08.87-1,1.74-.29,2.62-1.36,1.42-3.52,4.19-3.52,4.86-2.47.67-2.52,3-3.25,5.15l2.09,0,1.75-4.25c.29,0,.77-.6,1.07-.59,0-.56,1.67-3.47,2.41-5.06l3.74-1.07,0-.34c2.45,2.21,7.61,2,10.46,2.47s5.34.18,6.45-3c1.68-2.06,3.35-4.13,5-6.2C125.83,139,125.57,139.05,124.15,141.09Z" fill="#b03f45"/><path id="lips" d="M129.68,131.94c-2.54,3.22-5.48.39-8.15.66-6.3.64-8.74-3.23-10.92-7.86-.5-1-1.33-2.26,0-3.1,4.88-3,9.5-6.52,15.69-6.8,3.47-.16,6.21,1.3,7.53,3.77s.39,5.41-2.2,7.29c-1.88-1.4-3.88-2.18-6.22-1.15a7.25,7.25,0,0,1-2.82.16,15,15,0,0,1-2.12-.19c-2.06-.86-4.63.06-6.39-1.84,1.75,1.92,4.29,1.27,6.42,2a10.68,10.68,0,0,1,1.9.51c.73.3.64,2.21,2.1,1.05C127.62,127,131.43,126.88,129.68,131.94Z" fill="#c43b49"/><path id="lips_shadow_bottom" d="M125.68,123.86c2.78-1.63,5.07-1.81,6,2,.33,1.68-1.14,3.38.05,5,0,.32-.05.64-.06,1l-2,0c.61-4.78-3.81-3.55-6-5a1,1,0,0,1-.3-.8c0-.29.11-.43.18-.44C123.87,124.61,126.3,126,125.68,123.86Z" fill="#b33946"/><path id="teeth" d="M125.68,123.86c.67,0,1.33,0,2,.11s1.42.08,1.42,1-.88.87-1.48.92c-1.32.11-2.66.1-4,.15-.32.41-.64.42-.95,0-2.61-.11-5.25,0-7.72-1.14-.59-.27-1.39-.4-1.39-1.16,0-1,.94-.76,1.45-.7,1.89.22,4-.8,5.66.76.56.7,1.18.9,1.9.24Z" fill="#d17387"/><path id="nostril_left" d="M135.27,109.11a8.51,8.51,0,0,1-3.68,2.65c-.29.11-.75-.26-1.13-.41,1.23-1,2.42-2.08,3.7-3C134.51,108.08,135.05,108.33,135.27,109.11Z" fill="#bc494f"/><path id="nostril_right" d="M126.24,107a2.31,2.31,0,0,1,1.84,2.4c0,.3-.59.94-.86.91a2.64,2.64,0,0,1-2.24-2.19C124.79,107.39,125.48,107.05,126.24,107Z" fill="#b8464c"/><path id="eye_left" d="M153.5,87.83c-3,1.54-5.9,3.73-9.44,1.33-.38-.25-.86-.59-.95-1-.14-.58.35-.83.89-.63,3.42,1.3,6.26-1.23,9.45-1.43.41.06.59.2.52.41s-.17.38-.28.38A5.66,5.66,0,0,1,153.5,87.83Z" fill="#3d0a0d"/><path id="brow_left" d="M156.64,67.88c-.19.69-.09,1.54-1,1.85-1.06-2-3.21-2.81-4.81-4.23-.52-.47-1.08-1.58-1.93-.7a1.85,1.85,0,0,0,.06,2.33,22.85,22.85,0,0,0,6.63,5.12l.15,3.42.65.18.57-3a7.12,7.12,0,0,1,.52-1.87l.12-3.07C157.3,67.47,157,67.45,156.64,67.88Z" fill="#811b20"/><path id="eye_right" d="M101.07,78.21c2.05,1,4.13,2.06,6.2,3.12,2.83,1.44,5.62,2.94,9,1.82.7-.24,1.73-.5,2,.67.18.82-.62,1.05-1.16,1.39-2.23,1.37-4.46,2-7.06.81a43.48,43.48,0,0,1-9.15-6c-.54-.42-1.06-.84-.72-1.58C100.25,78.3,100.74,78.3,101.07,78.21Z" fill="#3a0b0d"/><path id="eye_lid_top_right" d="M108,72a20.39,20.39,0,0,1,6.47,2.49c.57.38,1,1,.69,1.65s-1.14.47-1.67.06c-1.74-1.36-3.82-1.76-5.88-2.26-.76-.19-2.26.63-2.05-1C105.69,72.09,106.81,71.94,108,72Z" fill="#bf4d52"/><path id="brow_right" d="M103.63,62.9c3.58-4.87,8.81-3.09,13.32-2.81,5,.31,9.87.86,14.84.56.59,0,1.4-.54,1.51.5,0,.38-.35.86-.64,1.23-1.74,2.21-4.2,1.68-6.46,1.48a59.15,59.15,0,0,1-7.82-1.23,30.14,30.14,0,0,0-14.71.32Z" fill="#7c161b"/><path id="ear_curve_right" d="M64.07,83a8.44,8.44,0,0,1,2.59-5c.1,2,0,4-1.5,5.45C64.83,83.69,64,83.42,64.07,83Zm4.27-6.27c-1.44-1.12-1.45.33-1.67,1.23.84.44,2.3,1.4,2.42,1.25C69.91,78.18,69,77.17,68.34,76.69Zm-5.69.72c0,.62.11,1.57-.58,1.64-1,.11-1.29-.86-1.34-1.71a15,15,0,0,1,.53-4.87c.36-1.42,2.12-2.85.51-4.52.63-1.07,1.77-1,2.76-1.19C63.66,70.26,62.62,73.74,62.65,77.41Z" fill="#bc4c52"/><path id="hair" d="M159.59,46.61c-.53-3.27-2.77-6.19-1.92-9.74,1.17-1.31.53-2.41-.39-3.47-2.46-2.86-4.76-5.89-8.24-7.64A25.34,25.34,0,0,0,141,22a3.05,3.05,0,0,0,.83-2.36c-2.75-3.62-6.47-6.28-10.19-8.61C125.23,7,119.06,2.22,111,1.78c-3.13-.2-6.22-1.57-9.32-1C94,2,86.33,3.43,79.72,8c-1.11.77-3.41.87-2.8,2.74a1.62,1.62,0,0,0,.84,1,26.52,26.52,0,0,0-12.3,6l0,0c-5.81,5.73-9.61,12.94-14.3,19.49-1.2,1.68-3.49,3.51-1.18,6,.55-.25,1.1-.52,1.65-.79A52.41,52.41,0,0,0,47.34,46c-5,6.4-7.81,13.94-11.3,21.12-.36.61-.7,1.23-1,1.85-.22,2.81-1.82,5-3.15,7.36a34.59,34.59,0,0,0-3,5.35c-.67,1.23.51,3-1.15,3.93a2.43,2.43,0,0,0-.79,1A3.43,3.43,0,0,0,27.45,90c1.53.64,2.56-.34,3.49-1.24C37.51,82.33,45.13,77.4,53,72.8h0c0,.89-1.21.95-1.83,1.35C45.22,78,39.1,81.71,34,86.65a238.53,238.53,0,0,0-23.18,26.21c-2.66,3.49-5.38,7-7.19,11.08-.32.32-.64.63-.95,1l-2,2c2.05,2.68-.69,5.37,0,8.06,5.51,2.95,11.81,3.21,17.62,5.15a9.12,9.12,0,0,0,1.48-.08,24.27,24.27,0,0,0,4.06-1.76c-.8.57-1.61,1.13-2.45,1.65.28,2.42,2.84,2.48,4,3.93A12.5,12.5,0,0,0,32.06,146c3.9-.44,7.73-1.3,11.61-1.85,5.7-1.94,9.14-6.37,12.18-11.16,6.49-10.25,9.82-21.66,12-33.47-.29-2,1.19-4.63-2.12-5.44l.05,0A1.61,1.61,0,0,1,63.65,94h0a4.57,4.57,0,0,0-1-1h0c-.27-.35-.53-.71-.79-1.07l-4-7.4a13.91,13.91,0,0,0-.64-3.84c-.79-4-1.3-8.13,1.5-11.75l3.12-1c.78-.72,2.18,0,2.76-1.19l3.19-2.68c1.32-.51,2.62-1.07,3.91-1.66a3.36,3.36,0,0,0,0,3.61c.15,2.22,1.53,4,2.29,6,.46,1.19.64,3,2,3.16s1.7-1.79,2.16-2.88A30,30,0,0,1,87.88,60.1a25,25,0,0,0,6-5.88c-.26-1.51-.92-1.8-1.66-1.68,1-.36,1.91-.69,2.89-1,.79-.24,1.15-1.18,1.92-1.53l33.65-13.1c1.89-.54,3.78-1.11,5.68-1.56a7.11,7.11,0,0,0-1.6,1.52L147.43,40c3.78-.2,4.23-.72,2.45-3.86,1.38.51,2.39,1.61,3.66,2.28a4,4,0,0,0,1.16.27,3.63,3.63,0,0,1-.51.28,4.66,4.66,0,0,0-1,.72,2.75,2.75,0,0,0-.78,1.66c0,.1.09.2.13.31a2.48,2.48,0,0,0-.75,3.78c1.37,2,1.18,4.38,1.82,6.55l0,0a2.22,2.22,0,0,0,1.24.57,2.05,2.05,0,0,0,.41.16,1.2,1.2,0,0,0-1,1c1.11,2.26.66,4.84,1.41,7.18h0c-.26,2.4.67,4.64,1,6.95h.48l.48.06.41-1.59a2.85,2.85,0,0,0,0-1.2l-.43-.28c.59-.41.48-1.27.79-1.85.38-3.7,1.37-7.32,1.1-11.08A28.74,28.74,0,0,0,159.59,46.61Z" fill="#110000"/><path id="hair_lines" d="M4.67,123.67c-.38.56-.81,1.08-1.24,1.6-.72.8-1.28,1.81-2.52,1.91-1-.46-.61-1.48-.91-2.22,6.26-10.21,13.78-19.5,21.07-29a13.89,13.89,0,0,0,2.61-4.76C25.51,84.61,29,78.77,32.55,73c1,1.3.77,2.62.11,4l-3,5c-1.19,1.11.09,2.86-1.05,4q-.43,0-.87.12c-1.26,1.16-.46,2.78-.83,4.16-.18.67.39-.46.76-.27,7.65-6.94,15.59-13.49,25-18,.89-.27,1.22.17,1,1a4.33,4.33,0,0,1-2.23,2.57C31.59,87.34,17.84,105.23,4.67,123.67ZM149,25.76l-7.24-6.14c-.43.91-.86,1.81-2.12,1.74-5.82-.31-11.55-1-17.48-.86-15.14.26-29.4,3.91-43.48,8.53-10.22,3.34-20.14,7.65-29,13.9-1.92.74-3.21,1.78-2,4.06A58.53,58.53,0,0,1,64.86,36.17c16.46-6.26,33-12.46,50.94-13.46,10.69-.58,21.22-2,31.27,3.07C147.59,26,148.38,25.78,149,25.76Zm-75.33-12c-3.26.68-4.83,4.11-8.25,3.95A54.69,54.69,0,0,1,103,0,17.21,17.21,0,0,1,111,1.78a54.24,54.24,0,0,0-22.81,3c-3.5,1.22-6.14,3.86-9.68,4.8-.38.1-.64.65-1,1a4,4,0,0,0,1.29.36c1.3-.12,2.6-.39,3.91-.52,12-1.2,23.68-.23,34.89,4.52-.07.61-.71.63-1,1C102.55,11.15,88.27,10.75,73.71,13.77ZM153.77,39a1,1,0,0,0-.1-1.09,6,6,0,0,0-3-3c-7-2.23-13.76-2.92-20,2a3.79,3.79,0,0,0,4.08,0c4.85-2.54,9.85-2.52,15-.92.62,2.1.84,4-2.24,4.06,4.23,2.88,4,8,6.17,12,.13-2.09.31-4.2-.93-6a3.38,3.38,0,0,1,0-4v0C151.85,40.49,153,39.82,153.77,39ZM71.61,66c-.25-3.29,1.88-4.79,4.51-5.77a135.94,135.94,0,0,0,12.82-5.42c1.49-.74,3.07-2,4.89-.62A7.64,7.64,0,0,0,97,50,91.13,91.13,0,0,0,67.72,64.08C69.76,63.25,70.57,64.86,71.61,66Zm-24,41.89c-5.11,5-8,11.56-12.15,17.28-4.22,5.88-8.89,11.07-15.84,13.72-.07,0-.15.1-.23.31a.59.59,0,0,0,.21.65l2,.06a12.2,12.2,0,0,0,2.25-.87c8.28-5.3,13.72-13.18,18.51-21.41,1.83-3.15,5.48-5.47,5.22-9.75,3.53-3.72,5.61-8.31,7.71-12.88.1-.23-.46-.76-.72-1.14C52.14,98.47,48.28,102.38,47.66,107.92Z" fill="#1a1419"/></g></g></svg>
