<svg xmlns="http://www.w3.org/2000/svg" viewBox="0 0 161.82 162.91"><defs></defs><title>full_9</title><g id="poca"><g id="_9" data-name="9"><path id="shoulder_right" d="M39.32,162.73c-11.8,0-23.6,0-35.39.18-2.49,0-3.7-.6-3.52-3.29.17-2.48,0-5,0-7.46C-.38,148.61.24,145,0,141.46v-4.31c0-1.62,0-3.24,0-4.86,3.25-2.83,7.72-.77,11.22-2.87a12.18,12.18,0,0,1,7.21-1.48c3.52-.16,6.41,1.8,9.58,2.84.45.19.89.42,1.32.65,3.12,2.08,7.07,3,9.11,6.59C39.31,146.24,39,154.49,39.32,162.73Z" fill="#cc5e61"/><path id="shoulder_left" d="M127.47,157.89c-1-2.52-1.78-5.15-3.87-7.07-1.18-1.1-.83-2.94-2-4.06a20.67,20.67,0,0,0-4-7.66c1.6-1.83,3.42-1,5-.14,1.94,1.08,4.13,1.27,6.11,2.12,3.92,3.16,7.2,6.56,8.13,12,.38,2.26-1.8,5,1.09,6.94.39.27.36,1.91-.42,2.75l-1-.06a.71.71,0,0,0-.94,0h-6C127.89,161.51,129.21,159,127.47,157.89Z" fill="#cd5d61"/><path id="shoulder_shadow_left" d="M137.53,162.75c0-1.17.33-2.51-.14-3.46-.78-1.58-.85,1.49-1.7.47a1.92,1.92,0,0,1-.13-1.45c1.4-6.19-.74-10.95-5.7-14.67a8.06,8.06,0,0,1-1.4-2c0-.83.44-1.09,1.17-1.09a3.8,3.8,0,0,1,2.86,2.34l0,0c.34.32.68.64,1,.95,3.77,3.9,4.47,8.93,5,14,.18,1.62,0,3.28.73,4.81Z" fill="#b54449"/><path id="shirt_dark_left" d="M151.73,147.85l1.76,1.13a21.18,21.18,0,0,1,1,13.78l-15.15-.12c-2.22-1.09-1.93-3.21-2.12-5.13-.44-4.62-1.55-9-4.34-12.86a6.07,6.07,0,0,1-.62-1.43l0-.78c.77-1.53,2-1.44,3.3-.89,3.25,1.4,6.82,1.81,10,3.3l0,0c.57.76,1.59.42,2.28.91C149.08,146.5,150.44,147.1,151.73,147.85Z" fill="#fbac89"/><path id="shirt_light_left" d="M154.49,162.76l-1-13.78,4,2.84A1.76,1.76,0,0,1,158,153c.65,3.44,5.08,5.52,3.54,9.75Z" fill="#fbb6a6"/><path id="necklace_right" d="M39.32,162.73c-3.18-8.36-1.39-17-1.69-25.6a3.94,3.94,0,0,1,2.3-2.24c3.15-1,6.32-2.45,9.45.06-.58,5.78,1.13,11.25,2.25,16.8,1.19,1.12.73,3,1.88,4.13a6.56,6.56,0,0,1,.11.89,3.49,3.49,0,0,1,.73,2.93c-1,2.88-3.9,2-5.82,3Z" fill="#568aa2"/><path id="necklace_left" d="M115.48,156.86a8.62,8.62,0,0,1-2-5.9c-1-1.17-1-3-2.42-3.86-1.16-2.15-2.17-4.4-3.91-6.18-.39-2.48-2.5-3.64-4-5.26a6.29,6.29,0,0,1,.23-2.89c4.65-1.29,8.11,1.91,12.07,3.22a25.56,25.56,0,0,1,2.92,2.26,16.3,16.3,0,0,1,4.36,8c.09,1.57.44,3,1.92,3.94,1.56,2.64,3.77,5,4.18,8.2.05,1.58-.05,3.11-1.23,4.33H113.68c-.05-1.24.68-1.73,1.78-1.88C117,159.52,116.54,158.19,115.48,156.86Z" fill="#5789a1"/><path id="neck" d="M116.45,156.87c-.7-2-1.58-3.89-2.32-5.85-.6-1-1.43-1.75-2.06-2.69-1.43-2.27-2.85-4.55-4.18-6.88-1.47-1.3-1.7-4.18-4.63-3.61-1.6,3.34-1.22,7.1-2.19,10.57a2,2,0,0,0,.14,1.28c-.46-.38-.22-.89-.17-1.31.74-6.07,2.07-12,3.17-18a9.41,9.41,0,0,0,.18-1.4,40.64,40.64,0,0,0,0-4.13A152.36,152.36,0,0,0,107.61,99l-.12-1c-.26-1.7.39-3.47-.41-5.12q-.78,2.49-1.54,5a10.82,10.82,0,0,1-4,4.06c-.8,1.37-1.32,2.94-3.42,3-1.79.06-3,.15-3.88,1.59-.66,0-1.08,1.33-1.74,1.35.89,1.12-1.75-.31-2.39.29-.07-.08-2,.94-2.11.86-3.29-1.12-1.83,2-4.23,3.44-9.18,5.43-17.83,11.9-28.71,13.73-3,2.45-4.2,6.1-6.39,9.08-1.54,5.51.09,10.62,2,15.71,1.61,1.32,1.75,3.2,2,5.05a4.59,4.59,0,0,0,.58,1.2c2.68,3.29,6.43,4.55,10.37,5.48l.44.08.45-.09a.78.78,0,0,1,1,0h48.18c.81-.82,2.11-1.1,2.57-2.31A6.16,6.16,0,0,0,116.45,156.87Z" fill="#cc5e61"/><path id="face" d="M118.49,57.77a27.79,27.79,0,0,0-7.75-4.48,3.91,3.91,0,0,0-3.47.88c-2.27,2.19-3.31,5.32-5.72,7.4-2.16.65-2.64-.87-2.64-2.39,0-6-1.54-10.8-5.24-14.82-1.64-1.8-6.36-1.65-7.31-4.16a5.71,5.71,0,0,0-.92-1,43.67,43.67,0,0,0-5.8-3.87c-6.53-2.91-7.35-7.76-11-12.7a5.74,5.74,0,0,0-.69-2.13,9.46,9.46,0,0,0-5.14-3.58c-4.15-.76-8.21,0-12.34.38-11.53,1.08-18.93,6.3-20,18.55.48,2.36-1.72,4.69.62,7.34.89,1-1.4,4.22-1.34,6.63-.43,2.1.52,4,.92,6,.48.75.07,1.77.77,2.45a6.46,6.46,0,0,0,3,.85,4.68,4.68,0,0,1,1.61.68c.28.27.54.57.81.86a3.5,3.5,0,0,1,.27.56,3.48,3.48,0,0,0-.43-.22c-.61.25-1.31.42-1.25,1.31a3.3,3.3,0,0,0,.38.37h-.38c-4-.23-5.51,2.18-6.35,5.48-.21,1.63.1,3.29-.25,4.91.86,2.93,1.73,5.86,2.59,8.79,1.56,4.55,3.38,9,2.8,14,.18,3.06,1.37,5.84,2.33,8.69a22.2,22.2,0,0,1,2.07,6,8.44,8.44,0,0,0,.5,1.35c2.12,3.67,1.68,8.9,6.65,10.82,7.48.41,15.12,1,21.7-3.32a78.43,78.43,0,0,1,9.5-5.31c8-3.39,15.47-7.92,23.41-11.45,3-1.84,4.55-4.64,5.42-8a56.34,56.34,0,0,0,1.76-10.75c.22-3.4,1.67-3.8,4.32-2.35,6.22-1.49,8-6.93,10.45-11.75C124.19,63.56,123.58,61.59,118.49,57.77Z" fill="#cc5e61"/><path id="neck_shadow" d="M55.37,126.8c.42-2.47,0-4.09-3.14-3.86-2.18.16-4.55.66-6.47-1.08,4.41-.17,8.89,0,13.22-.63,3.48-.53,7.16-1.2,9.69-4.38,2-2.46,5.45-2.25,7.89-4,4.52-.32,9.58-2.59,13.68-4,1.22-.43,8.52-5.31,9.93-4.78-3.72,3.13-7.29,5.74-9.34,6.44-4.37,1.53-6.38,3.17-9.66,5.25-5.44,2.44-6.72,3-11.62,6.84C65.65,125.66,60.38,126.35,55.37,126.8Z" fill="#c35154"/><path id="neckline" d="M103.56,129.86c0,1.07,0,2.13.08,3.2l0,2.73c.62.73,0,1.4-.12,2.1q-1,5.78-2,11.54c-.08.51.29,1.33-.66,1.33a2.35,2.35,0,0,1-.31-1.33C101.25,142.86,101.2,136.18,103.56,129.86Z" fill="#b64b50"/><path id="jawline" d="M108.25,86.86c.28-2.26-.15-5.1,3.22-6-1.08-1.27-.8-1.29-2.15-.87-1.51.46-1.61,1.16-2.32,2.29-1.15,1.82-.67,3.76-1,5.63-.77,5.1-1.63,10.14-5.59,14-1.06.79-3.25,1.08-3.82,1.69-5.27,5.57-14,3.69-20.08,9.34,2.27,1.62,4-.34,5.84-1,3.41-1.23.34-.07,3.72-1.42.61.52,7.12-2.9,7.9-3.09,3-1.56,3.15-1.2,6.42-3.47.08,0,1.29-1.51,1.38-1.51a6.4,6.4,0,0,0,4.6-4.47c.26-1.52.52-3,.8-4.56" fill="#a23439"/><path id="lips" d="M57.54,93.86c-4.34-3.24-9.43-4.22-14.64-4.67-2.32-.21-3.75,1.46-4.07,3.5-.29,1.81-1.64,4.39,1.7,5.17.6,1.18,1.21,2.26,0,3.55-1.71,1.86-.29,3.48.93,4.66,2.59,2.54,8.52,2.32,12.06-.19,1.31-3.19-1.24-3.28-3.13-4.15-1.22-.57-2.85,1.35-3.66-.72-.51-.93-1.53-1.18-2.35-1.71l-.69-.45a4.7,4.7,0,0,0,.74.18c4.21.69,8.33-.45,12.5-.64C61.1,97.39,57.74,95.42,57.54,93.86Z" fill="#c43c48"/><path id="lips_shadow_bottom" d="M53.54,105.88c-.82-4.64-4.53-2.47-7.09-3-.68-.15-1.81.57-1.92-.62,0-.31,1.3-.75,2-1.13,3.3-2.32,7.17-2.68,11-3.25,1.72-1.36.07-1.7-.69-2.38-1.3-1.17-.5-1.5.71-1.62.63.15,1.43.11,1.86.49,1.51,1.31,3.29-1.65,3.68-.36.47,1.59-1.51,3-2.55,4.48A27,27,0,0,1,53.54,105.88Z" fill="#b53a46"/><path id="teeth" d="M57.52,97.86a24.36,24.36,0,0,1-11,3.25c-1.08-.27-2.39.06-3.06-1.23a1.4,1.4,0,0,1,.07-2c3.69,0,7.39.25,11-.84C55.62,96.73,56.82,96.57,57.52,97.86Z" fill="#eb9f9f"/><path id="nostril_left" d="M46.15,81.91a26,26,0,0,1-2.25,1.43.66.66,0,0,1-1-.61C43,81.45,44,80.81,45,80.28,45.38,80.07,45.92,80.24,46.15,81.91Z" fill="#ba4a4f"/><path id="nostril_right" d="M39.66,84.14c0,.71-.56.71-1,.62a2.35,2.35,0,0,1-2-2.38c0-.44.21-1.2.8-.72A19.21,19.21,0,0,1,39.66,84.14Z" fill="#b8474e"/><path id="eye_left" d="M72.51,53.33c-2.72-1.86-5.86-1.76-9-1.45l-2,.09c-1.28.89-2.91,0-4.2.8-1.57.2-3.69,1.4-2.95,2.4,1.3,1.76,3.72,2.69,4.07,5.29l4-1.68c.67-1.22-.94-2.38-.1-3.62.2-.32.42-.63.65-.93,1.51,1.23,3.44.81,5.22,1a7.35,7.35,0,0,1,3.29.79C73.31,55.64,75.3,55.23,72.51,53.33Z" fill="#3b1417"/><path id="eye_lid_top_left" d="M67,50.17c-1.09-1-3.48.88-3.92-1.6-.09-.49,1.11-.81,1.65-.47,1.32.84,3.53.18,4,2.18C68.85,50.7,67.66,50.4,67,50.17Z" fill="#b84950"/><path id="eye_line_bottom_left" d="M69.41,54a1.44,1.44,0,0,0-.39,1c-2.4-.67-5.15,1.39-7.34-.84-2.62,2-.46,3.28.77,4.68l7.94-2.09A1,1,0,0,0,71.51,56C71.41,54.71,71,53.75,69.41,54Z" fill="#6c242b"/><path id="eye_white_left" d="M69.41,54l-.21,1.69a13.29,13.29,0,0,0-5.31,1.06c-2.82.94-2.67-.73-2.21-2.6a2.42,2.42,0,0,0,.86-.28Z" fill="#ddb5b4"/><path id="brow_left" d="M73.4,41.33a3.63,3.63,0,0,0-.84-.49c-3.66-3.65-7.88-4.9-12.78-3.19a2.55,2.55,0,0,0-.39.13c-3.43-.24-6.93.69-10.32-.54-.63-.23-1.47-.39-1.82.21-.57,1,.43,1.37,1,1.87,3.27,2.77,6.8,1.35,10.28.63,4.74,0,9.64-1.11,14,1.92.66,1,1.28,2.82,2.54,2C75.82,43.32,74.15,42.11,73.4,41.33Z" fill="#7c1a20"/><path id="eye_right" d="M31.58,62.59a3.25,3.25,0,0,0-.86.3c-.25-1.75-1.8-3.29-.81-5.24l.44-.52.34-1.39.94,1.94c.52,1,2.2.56,2.51,1.88a3.31,3.31,0,0,1,.07,1.33C33.85,62.25,32.64,62.3,31.58,62.59Z" fill="#18171a"/><path id="eye_lashes_right" d="M36.52,58.87a3.32,3.32,0,0,0-1.1-.79l-3.79-.4,2.13,2.41a1,1,0,0,0,.89.35.79.79,0,0,0,.78-.51l1.09-1.06Z" fill="#411217"/><path id="eye_line_bottom_right" d="M33.72,60.73l-2.14,1.86c1.16.26,2.31.51,3-.83a.75.75,0,0,0,.14-1A.81.81,0,0,0,33.72,60.73Z" fill="#411217"/><path id="eye_white_right" d="M36.73,61a1.62,1.62,0,0,1-1.32,1.24,2.46,2.46,0,0,0-.84-.52c0-.3-.06-.6-.12-.9-.28-.45-.18-.73.36-.82l.69-.06Z" fill="#f6d1ca"/><path id="brow_right" d="M28.79,42c1.41-1.47.85-3.94,2.67-5.2a8.53,8.53,0,0,1-.37,3.85c-.17.54-1.09,1.72.66,1.35.68-.14,1.24-1.54,2-.6s0,2.07-.75,2.56c-2.09,1.45-2.11,3.89-3.18,5.82C29.44,47.19,29.12,44.6,28.79,42Z" fill="#7c2931"/><path id="ear_curve_left" d="M117.19,65.9c-.91-.41-1,.89-1.42,1.48-2.92,4.36-3.21,4.36-6.41,0a1.85,1.85,0,0,0-.73-.45c.07-1.11,3.86-.39,1.42-2.43-1.17-1-4.15-.27-4.39.58-.5,1.79,1.55,1.69,2.86,2-.18,2.41.15,4.77,3,5.12s4.33-2,5.69-4C117.67,67.53,117.88,66.21,117.19,65.9Z" fill="#bb4a4f"/><path id="hair" d="M151,78.81c-1.22-7.73-1.74-15.75-5.38-23a144.35,144.35,0,0,0-15.89-33.94c-4-6.38-8.68-12-15.15-16-.71-.55-1.62-.85-2.07-1.71-4-3.23-8.62-3.9-13.54-3.43a.92.92,0,0,0-.6-.08c-11.57-1.59-23,.07-34.4,1.83-2.54.39-5.11,2.57-7.46-.81-.61-.88-2.34.23-3.35,1.07-6.65,2-11.9,6.24-16.82,10.92C28,21.55,22.92,30.34,28.79,42c2.48-.91,1.48-3.62,2.67-5.2.73-2.55,1.41-5.12,2.21-7.65,1.38-4.35,3.8-7.39,8.64-8.62A75.51,75.51,0,0,1,63.49,18l4.57,4.84a6.15,6.15,0,0,0,1.08,2.71C73.25,31.87,79.32,36,85.67,39.72l0,0c1,1.76,2.76,2.4,4.47,3.15,2.44,1.21,4.77,2.62,7.1,4-1.2-.08-1.45,1-1.4,2.39,1.34,3.42,2.88,6.75,3.23,10.53.13,1.47.23,4.37,3.4,2.89L107.57,55a2.65,2.65,0,0,0,0-2.43,11.77,11.77,0,0,0,1.49.58,2.71,2.71,0,0,1,1.37.9,58.73,58.73,0,0,0,6.17,4c5.2,2.51,6.5,6.46,4.82,11.71a47.26,47.26,0,0,1-3.29,5.39c-1.85,2.31-3,5.57-6.7,5.77-4.18-.46-3.48,3-3.9,5.19-.78,4.19.06,8.54-1,12.73-.69,10.09-2.69,20-2.94,30.18a1.05,1.05,0,0,1,0,.9,2.45,2.45,0,0,0,.08,3.2l12,3.78c4.05,2.14,5.31,2.36,7.45.18a2.3,2.3,0,0,0,.3,1.83,4.09,4.09,0,0,0,4.36,1.79,24.16,24.16,0,0,1,5.94-.29,2.25,2.25,0,0,0,1.67-1.13l3.32-2.89c5.15-4.85,7.84-11.27,11.1-17.33l-.05.07c.56-2.41.38-5,1.75-7.21C153.6,100.81,152.65,89.73,151,78.81ZM106.17,6.14h0a2.05,2.05,0,0,0,.36-.24C106.67,6.1,106.77,6.25,106.17,6.14Zm11.21,18.63a5.55,5.55,0,0,1-.81-.51c-1.07-1-2.74-.6-3.79-1.62,1.27.88,3,.72,4.17,1.81a4,4,0,0,0,.52.37ZM123.19,27c-1.75-.69-3.61-1.1-5.3-2,1.27.35,2.4,1.21,3.81,1l0,0a1.71,1.71,0,0,0,1,.39l.22-.15.44.43-.09,0S123.21,26.85,123.19,27ZM55.37,126.8c-2,2.68-2.84,6.29-6,8.15-3.38-.77-6.54.65-9.81,1-3.68.58-6.15-1.54-8.61-3.68a1.26,1.26,0,0,1-.54.1,3,3,0,0,1-1.93-.39h0c-3.58-.3-6.31-3.12-9.92-3.35-1.45-1.4-3.85-.94-5.16-2.63q1.53-2.5,3.05-5c3.66-7.66,9.12-14.22,13.13-21.66,1.18-2.18,2.61-4.24,3.92-6.35,2.68-.42.72,2.32,2,2.89-.12,3.16,2.34,5.71,2.13,8.89a8.24,8.24,0,0,1,2,6.06h0c1.69,1.86,2.05,4.33,2.83,6.58.66,1.91,1.49,3.53,3.31,4.52,2.31,1.09,4.76.46,7.13.45C56.65,122.31,57.1,123.9,55.37,126.8Z" fill="#110000"/><path id="hair_lines" d="M68.59,22.72a2.92,2.92,0,0,1-.93-.15l-.24-1.45c-1.39-2.79,1.1-4.27,2.11-6.26.74-1.85,2-2.69,4-2a.64.64,0,0,1,1,0l1-1c3.41-.25,6.28-3.22,10-2-3.62,2.28-7.76,3.38-11.67,5-.74.31-1.78.49-1.51,1.47.2.75,1.14.43,1.73.2,1-.38,2.38-.85,2.5.29.19,1.88-1.61.84-2.52,1C71.19,18.34,68.36,18.78,68.59,22.72Zm-4.52-9.47C62.91,11,63,7.53,59.52,6.87c1.42,3.66,4.52,6.72,4,11.09l3.93,3.16c.7-2.09,1.4-4.17,2.11-6.26C65.93,17.54,66.2,17.4,64.07,13.25ZM110.47,54l-1-1.21a12.64,12.64,0,0,1-1-.94c-1.67-.65-3.09-1.94-5-2,.72,2.2,4.27,2.16,4,5.11C108.45,54.4,109.32,53.76,110.47,54Zm7.17,85.08c3.77.15,7.18,1.83,10.82,2.52l1.07-.71c1.16-2.37,3.64,1,4.87-1.13a6.53,6.53,0,0,0-6.13-.3,3.27,3.27,0,0,1-4-1c-1.24-1.51.69-2.18,1.31-3.18,2-3.2,4-6.38,3-10.43-1.54,2-1.44,4.57-2.4,6.78-2.47,5.62-4.84,6.83-10.5,5.2Zm4.19-53c-.83-2.06-.41-5.2-3.31-6.3-.15,4.65,2.23,8.55,4.11,12.46,2.42,5,2.31,11,5.91,15.57C127.43,100.28,124.67,93.15,121.83,86.14ZM98.52,47.86c1.66.72,3.11,1.94,5,2A46.44,46.44,0,0,0,90.32,42q3.12,3.41,6.25,6.79C96.63,47.18,97.45,47.4,98.52,47.86Zm25.37,14.83a2.14,2.14,0,0,0,.46,1.31c.86.74,1.89,1.29,2.78,2,1.73,1.38,3.24,3.09,5.63,3.37-.36-2.53-3.11-2.52-4.42-4.11-1-1.22-2-2.64-3.67-3.1C124.37,62.37,123.88,62.55,123.89,62.69Zm21.64,22.18c-.68-3.56-3-6.16-5.28-8.73-.27-.3-.94-.62-1.18-.49-.53.3-.3.93.08,1.22,2.79,2.15,2.93,6.39,6.37,8Zm-47-78c-3.76-1.44-6.76.91-10,2C92,9,95.45,8.82,98.53,6.87Zm-2,11a3.1,3.1,0,0,0,2.38,1.58c1.93.23,3.88,1.59,5.86.15-1.28-1.58-3.32-.42-4.87-1.39-.86-.54-2.22-.26-3.36-.35Zm-11-1.41c-1.34-1.33-3-.37-4.48-.55-.77-.1-2-.13-2,.88.12,1.52,1.38.9,2.68.63A6.44,6.44,0,0,0,85.53,16.46Zm11,1.4c-2.1-1.68-4.62-1-7-1.16a3.46,3.46,0,0,0-.25.84c2.24.31,4.46.87,6.74.5a2.22,2.22,0,0,0,.47-.17Zm52,72c.26-2.42-.94-4-3-5h0c-.25,2.42,1,4,3,5Zm-31-65c-1.24-2.42-3.67-2.37-5.86-2.81-.1,0-.36.28-.36.29,1.34,1.69,3.54,1.5,5.26,2.38a3,3,0,0,0,1,.13ZM107.3,6.67c.82-.21-.36-.61-.77-.82-1.63.53-3.71-1.09-5,1C103.47,6.87,105.49,7.16,107.3,6.67Zm10.22,18.2h0a11.69,11.69,0,0,0,6,3.05v-1c-.07-.61-.63-.71-1-1l-1,0A6.69,6.69,0,0,0,117.52,24.87Z" fill="#211618"/></g></g></svg>
