<svg xmlns="http://www.w3.org/2000/svg" viewBox="0 0 166.12 165.96"><defs></defs><title>full_12</title><g id="poca"><g id="_12" data-name="12"><path id="shoulder_left" d="M135.6,143.08c1-.21,2.19.49,3-.68l-.91-.47c-4.44-.62-9-.09-13.32-1.81-.91-.36-1.89.27-2.67.91.23,3.22,2.07,5.64,4,8,1.27.91,1,2.28,1.08,3.54a3.46,3.46,0,0,0,.91,2.47c-.48,2.14,1.84,3.12,2.07,5,1.63,1.22.36,3.64,2,4.84l8,0,1.22-.06A30.15,30.15,0,0,0,135.6,143.08Z" fill="#cb5e61"/><path id="shirt_dark_left" d="M138.55,142.4l.91-.89a4.29,4.29,0,0,0,3.88,3.26c3.81.61,7,2.55,10.3,4.3a4.59,4.59,0,0,0,2.09,1.88h0c4.49,4.28,5.44,9,2.86,14.35-4.37.46-8.75.09-13.12.21h-4c-2.39-1-1.25-3.16-1.35-4.72-.41-6.18-2.69-11.79-4.77-17.49C136.11,141.86,137.48,142.65,138.55,142.4Z" fill="#faac86"/><path id="shirt_light_left" d="M158.66,164.88c.17-4.88,0-9.69-2.92-13.92,2.83.64,4.18,3,5.87,5,.1.78.72,1.2,1.18,1.73s.52,1,.94,1.33l-.07-.06a8.87,8.87,0,0,0,1.11,1.1l.76,1a1.35,1.35,0,0,0,.21,2l-.06-.07a1.63,1.63,0,0,1-.15,2.37C163.22,165.36,160.87,166.17,158.66,164.88Z" fill="#f6bbaf"/><path id="shoulder_right" d="M6.7,125.88c1.43-1.14,3.25-1.06,4.87-1.57a48.27,48.27,0,0,0,9.68.53c7.55,2,14.84,4.56,21,9.52.31,4.77-1.82,9.26-1.32,14.12.41,3.91,0,7.89,1.4,11.72A5.27,5.27,0,0,1,42,165c-1,.79-2.12.56-3.24.31L.62,164.91c-.91-3.62-.22-7.31-.43-11-.12-8,.24-16-.19-24A5.06,5.06,0,0,1,3.12,128C4.43,127.49,5.83,127.12,6.7,125.88Z" fill="#cc5e61"/><path id="neck" d="M117,155.5a8.22,8.22,0,0,1-2.06-6.53c-.39-6.72-4.93-11-9.17-15.37l-.72-.13a2.91,2.91,0,0,0-1.4.46,8.53,8.53,0,0,0-1,4.23,11.84,11.84,0,0,1,.85-4.95,10.07,10.07,0,0,0,1-2.09,8.48,8.48,0,0,0,.39-1.56c.29-6.15,1-12.27,1.79-18.37a8.41,8.41,0,0,0,.3-1.65c.29-8.07.28-16.14-.09-24.22a8.54,8.54,0,0,0-1-2.79c-.41-.67-.78-1.64-1.78-1.38s-.74,1.3-.81,2.07a24.64,24.64,0,0,1-.11,3.1l-3,8.84c-2.23,2-4.82,3.46-7.13,5.33a25.56,25.56,0,0,1-3,2.6c-6.9,5.27-14.52,9.5-21.16,15.19a29.65,29.65,0,0,1-11.69,6.14c-2.77,2.58-3.69,6.42-6.23,9.15-1.3,7,1.05,13.36,3.64,19.66a3.91,3.91,0,0,1,2.12,4.1,3.92,3.92,0,0,0,.82,1.89c6.15,4.69,13.84,4.32,20.8,6.3,5.47,0,11,0,16.44,0,6.76-.27,13.57.63,20.3-.65a6.36,6.36,0,0,0,3.17-2.75C119.29,159.64,118.68,157.48,117,155.5Z" fill="#cc5e61"/><path id="necklace_left" d="M130.85,160.47c-.22-2-1.46-3.55-2.43-5.21-.59-.92-1.39-1.73-1.43-2.91a19.43,19.43,0,0,0-.47-3.3c-1.3-2.64-3-5.07-4-7.83a2.44,2.44,0,0,0-1-.93c-4.09-2.6-8.08-5.37-12.89-6.55-.28,0-.56-.1-.84-.16l-2.15.44c1.53,1.58,2.53,3.6,3.8,5.34,2,2.77,4.64,5.66,4.26,9.64,1.33,2.2,1.46,4.75,2.09,7.16,2.28,1.45,1.72,3.73,1.72,5.85-1.3,0-1.75.8-1.8,2l1,1.14,5.93-.12,7.1-.09A5.4,5.4,0,0,0,130.85,160.47Z" fill="#5589a1"/><path id="necklace__right" data-name="necklace)_right" d="M67.66,164.07c-3.06-1.26-6.56-1.12-9.47-2.86a1.13,1.13,0,0,1,0-.18,2,2,0,0,0-.51-1.18.61.61,0,0,0,0-.86c0-.6-.08-1.21-.11-1.81-1.13-.76-.82-2.39-1.92-3.15-2-6.91-4.52-13.73-3.77-21.13a1.18,1.18,0,0,0-.54-1.33c-2.63-.89-5.07.25-7.58.7a3.83,3.83,0,0,0-2.33,1.93A55,55,0,0,0,42,165l-3.23.34c9.27,1.07,18.56.58,27.84.43a1,1,0,0,0,0-.78Z" fill="#568aa2"/><path id="face" d="M103.09,86.32l-3,8.84c-2.18,1.64-4.37,3.27-6.68,4.74-6.44,4.06-13,7.9-19.73,11.45-7.44,6.54-15.67,11.22-26,11-6.09-.59-6.63-6-8.77-10-.91-3.41-3.27-6.4-2.95-10.16.66-1.84,2.2-1.79,3.7-1.6,7.21,1,12.45-2.19,16.53-7.83.22-.31.65-.41,1-.6-.49-.15-.94.09-1.42.12a46.59,46.59,0,0,1-11.84-.66c-4.68-.93-6,.35-5.55,5.12.17,1.93.42,3.77-2.34,3.89-.79-.28-1-1-1.33-1.67q-1.53-4.73-3.08-9.47c-.54-1.5-.57-3.22-1.85-4.41a.78.78,0,0,1-.24-.74c0-2-1.29-3.52-1.89-5.3a5.44,5.44,0,0,1-.73-3.86c.61-2,.16-4.09.3-6.13,0-1.45-.33-3.07,1.56-3.76a26.83,26.83,0,0,1,3.69-.5c1-.2,1.33-.68.46-1.5-1.38-1.1-3.16-.87-4.69-1.45a2,2,0,0,1-.92-.91,15.22,15.22,0,0,1-.13-2c-.15-1.68-1.33-2.88-1.95-4.35,0-1.36-.88-2.72-.06-4.09s4.07-2,1-4.77c-1.19-1.1.39-4.08.43-6.23,1.07-3.78,1.65-7.74,4-11a7.66,7.66,0,0,1,4.65-3.41c3.6-.54,6.91-2,10.31-3.17,3.86-1.33,7.3-4.78,11.31-2.29,2.93.73,2.85,5.62,5.27,6,5.34,2.73,8.21,8.5,13.73,11.09,2.36,1.11,4.56,2.61,7,3.73a27.47,27.47,0,0,1,12,14.38c.56,1.48.48,3.27,1.9,4.35a1.83,1.83,0,0,0,1.16-.87c.19-.34.38-.65.57-1,.27-.56.52-1.12.78-1.68,1.56-2.49,2.43-5.88,6.55-5.06,1.78.76,3.67,1.39,4.5,3.41-.45,2,.5,3.8,1.08,5.67.88,2.89.63,5.54-2.18,7.42-.92.61-1.77.88-2.63,0-.69-.71-.11-1.71-.51-2.5.4,1.37-.62,4.29,2.45,3a5.47,5.47,0,0,0,3.37-6c-.21-2.15-2-3.86-1.46-6.12a1.94,1.94,0,0,1,1.25-.63,10.61,10.61,0,0,1,2.89.64c4.3,1.45,4.55,4.92,4.32,8.63a11.38,11.38,0,0,1-.26,2.1,7,7,0,0,1-.43,1.27,18.15,18.15,0,0,1-2,3.24A15.16,15.16,0,0,0,114.43,73c-.4.75-.78,1.5-1.21,2.23a7.1,7.1,0,0,1-.8,1.09c-1.67,1.77-3.48,3.19-6.15,2.28-4.59-1.17-2.3,2.74-3,4.3-.45,1,0,2.28-.14,3.43" fill="#cc5e61"/><path id="neck_shadow" d="M93.66,101A52.47,52.47,0,0,1,82.06,110c-4.14,2.37-7.58,5.93-11.54,8.65s-7.71,6.33-13.09,6.33c-1.38-1.7-3.25-1.66-5.22-1.7-1.78,0-4,.47-4.74-2,9.46-.45,17.9-3.25,24.4-10.58.35-.4,1.21-.36,1.84-.53,4.55-.57,7.77-3.88,11.73-5.66C88.14,103.2,90.22,100.44,93.66,101Z" fill="#c25054"/><path id="neckline" d="M104.59,134c-1.9,2.69-.52,5.74-.91,8.59-.15,1.14-.07,2.3-.2,3.43a1.15,1.15,0,0,1-1.3,1.15c-.22,0-.5-.81-.47-1.22.4-4.69-1.12-9.53,1.08-14.08a.71.71,0,0,1,.87.21h0a6.53,6.53,0,0,1,1,1.06l0,0c.28.19.38.38.29.58S104.69,134,104.59,134Z" fill="#bd5053"/><path id="jawline" d="M106.52,78.41c-1-1-2.29-2.46-3.55-1.91-1.08.46-.36,2.36-.43,3.62a19.19,19.19,0,0,0,0,4.42c.28,1.55-.81,3.07-.25,4.58-1,.33-1.83,5.38-3.28,5.7a2.38,2.38,0,0,0-.87.47c-7.49,6-16.36,9.78-24.47,14.78.86,3.09,2.32.56,3.13.13,5.66-3,11.23-6.09,16.82-9.17,1.88-1.85,4.69-2.46,6.26-4.7.93-1.33,4.13-5.25,3-6.89,1.45-1.46.2-3.4.65-5,.19-.67-.62-1.83.63-1.88.38,0,.81,1.26,1.22,1.94C106.13,82.51,104.51,80.13,106.52,78.41Z" fill="#b13d44"/><path id="lips" d="M36.65,102a1.69,1.69,0,0,1-.81-2c2.22-.36,2-1.79,1.42-3.33-1.56-4.33.57-7.33,5-6.63A58.6,58.6,0,0,0,58,90.8c.46,0,1-.33,1.13.32a1.09,1.09,0,0,1-.36.8c-4.16,4.06-7.27,9.39-14,10.09C42,102.29,39.32,100.71,36.65,102Z" fill="#c63645"/><path id="nostril_left" d="M39.52,84.34c-.67,0-.8-.46-.75-1,.11-.94.86-1.32,1.62-1.63.53-.22,1-.06,1,.53A2.81,2.81,0,0,1,39.52,84.34Z" fill="#b9474b"/><path id="nostril_right" d="M36.89,85.29c-.19.72-.65.7-1.08.64A2.23,2.23,0,0,1,34,84.55c-.24-.51,0-1.06.59-.78A15.86,15.86,0,0,1,36.89,85.29Z" fill="#bd4b4f"/><path id="eye_left" d="M53.68,59.06c-2.83.67-4-2-5.75-3.18-1-.66.31-2,1.34-2.68,4.44-3,9.3-2.94,14.29-2,.22.86-.31,1.26-1,1.6-2.5,1.21-6.48-.07-7.15,4.25A4.53,4.53,0,0,1,53.68,59.06Z" fill="#2d0b0d"/><path id="eye_lashes_left" d="M62.45,52.15l1.11-1c1.13.29,2.55.54,2.68,1.81.14,1.48-1.54,1.48-2.5,1.9-3.31,1.46-6.7,2.78-10.06,4.16l1.13-2.21C56.67,54.17,59.85,53.64,62.45,52.15Z" fill="#5d1c22"/><path id="eye_white_left" d="M62.45,52.15c-1.48,3.3-5,3.33-7.64,4.7-.72-2.16-.87-3.94,2.23-4.09C58.85,52.67,60.64,52.36,62.45,52.15Z" fill="#cba7a7"/><path id="brow_left" d="M61.55,39.14c-2-.72-4.08-1.46-6.29-1.06-3.56.64-7.13,1.3-10.67,2.06-1.48.32-4.34.35-4,1.56.52,1.94,3,2.07,5.08,1.49,1.75-.49,3.52-.92,5.27-1.37,2.87-.74,5.64-2,8.7-1.69a2.57,2.57,0,0,0,2.2.92c1.93-.12,3.27,2.33,5.41,1.21C66,40,63.79,39.54,61.55,39.14Z" fill="#7f1b21"/><path id="eye_right" d="M26.82,64l0-2.91a.62.62,0,0,1,1-.34l-.08.17c1.2.86,3.18,1.1,2.61,3.34a2.12,2.12,0,0,1-.79,1.09A2.07,2.07,0,0,1,26.82,64Z" fill="#0c070d"/><path id="eye_line_bottom_right" d="M29.64,66c0-.28,0-.56.07-.83l0-.16c.41-.42.57-1,.95-1.44a7.13,7.13,0,0,1,1.46-.91c.51-.23,1.11-.23,1.55-.63,1.29.57,2.27,1.47,1.8,3s-1.85,1-2.91,1.07S30.61,66.05,29.64,66Z" fill="#8a3f45"/><path id="eye_lashes_right" d="M30.71,64.1l-1,.93c.45-1.88-1.06-2.84-1.93-4.1,2.07-.15,4.12-.24,5.89,1.12l-.92,1a1.32,1.32,0,0,1-.9.38c-.24.05-.34-.64-.67-.13A.77.77,0,0,1,30.71,64.1Z" fill="#34080e"/><path id="eye_white_right" d="M30.71,64.1l.21-1.1.29-.32.41.14,1.11.2C32.59,64.37,31.6,64.13,30.71,64.1Z" fill="#efd0cf"/><path id="brow_right" d="M25,45.19c1.18-1.57.76-3.93,2.59-5.17,0,.81-.29,1.75,0,2.4.45.91-4.36,6.13,2,2.55,1.23-.7,1.16.77.83,1.35-1.05,1.87-2.37,3.52-4.71,3.86a.7.7,0,0,1-.38-.74c.07-.29.15-.43.24-.43C25.4,47.74,25.2,46.46,25,45.19Z" fill="#76222c"/><path id="ear_curve_left" d="M109.73,54a1.69,1.69,0,0,1,2,.88c-1.87,1.71.12,3,.55,4.39,1.19,3.93.14,7-3.27,8.9-2.1,1.18-4.36,1.72-3.38-1.86.54-2-2.36-4.14-.59-4.52,2.88-.63,1.07,2.55,1.73,3.93s1.5,1,2.31.33a5,5,0,0,0,1.76-5.26C110.35,58.55,109.16,56.39,109.73,54Z" fill="#b54b4f"/><path id="hair" d="M57.43,124.93c-2.16,2.43-1.64,6.73-5.52,8a2,2,0,0,1-.38-.78l-7.84.92-2.23,1.16c-6.93-2.77-13.34-6.8-20.76-8.31a3.64,3.64,0,0,1,0-.66l-.2,0a1.36,1.36,0,0,1,.19-1.89,105.66,105.66,0,0,0,14-24.45L35.84,100c.56.54.25,1.43.81,2q1.58,4.89,3.16,9.78c1.24,1.17,1.35,2.86,2,4.27,1.17,2.37,2.07,5.28,5.62,5.15,2.17,1.85,4.77,1,7,.68C57.53,121.37,57.87,122.56,57.43,124.93Zm94.19-22.77.45-.15c1-4.81-.41-9.45-1-14.14a1,1,0,0,0-.31-.89A128.74,128.74,0,0,0,139,48.92c-1.56-1.73-2.07-4-3.23-6-4-6.73-6.56-14.59-13.91-18.88h0c1.23-.06,1-.6-.11-3.31C117.38,14.8,112.6,9.3,105.79,6a10.22,10.22,0,0,0-3.64-1.13l.25-.66-.92-.88L98.73,3c.47-1-.44-1.46-1-2.07C96.89-.23,95.64.14,94.52.09A110.81,110.81,0,0,0,56.16,5.33c-4.58,1.45-9,3.43-14,2.75-1.61-.22-2.81.86-4.06,1.66-5.95,3.81-9.69,9.46-12.93,15.54-3.52,6.63-5.37,13.23-.14,19.91,2.29-1,1.46-3.58,2.59-5.17.66-2.05,1.43-4.08,2-6.16.88-3.54,2.45-6.48,6.1-7.82,4.89-2.45,10.3-3.56,15.25-5.83a3.17,3.17,0,0,0-.77-2.66,1.71,1.71,0,0,0,2.28-.73c1.41-2.07-1.44-3.62-2.6-5.35.64-.42.34.44.65.48a1.28,1.28,0,0,0,1.32.24c5,6.23,5,6.18,10.94.33.56-.55,1.29-1.6,2-1.06.94.77-.48,1.21-.77,1.85-.19.41-.61,1-.47,1.21.33.51.89.21,1.26-.12a5.39,5.39,0,0,1,3.06-1.48c.57-.06,1.3-.68,1.51.32.08.34-.36.87-.69,1.2-.9.92-3.37,1.56-2.94,2.1,1,1.28,2.58-.66,4.06-.5a19.6,19.6,0,0,0,2.3,0l-.41.29a17.61,17.61,0,0,0-1.45,1.13c-.37-.09-.73-.18-1.1-.3-3.77.46-7.71.55-9.89,4.5.13,2,1.34,3.2,2.84,4.24,1.33,1.25,2.72,2.44,4,3.77,4.73,5,9.94,9.3,16.68,11.37a25.54,25.54,0,0,1,9.09,9.66,64.53,64.53,0,0,1,3.34,8.82c.63,1.92,1.4,1.93,2.56.5.62-.49.38-1.49,1.12-1.9l0,0A6,6,0,0,1,99.65,57c1.93-2,1.45-6.49,6-5.81l4.1,2.83c.44.82,1.35.54,2,.88l0,.06c.47.69,1.2.57,1.88.61,3.42,2.22,6.94,4.29,10.34,6.55a10.29,10.29,0,0,0-4.13-1.36c-.94.42-1.17,1.31-1.47,2.16a2.27,2.27,0,0,0,0,1.29c0,.07,0,.13.05.2l-.61.64-.33,1.91h0c-1.1.74-1.34,2-1.82,3.1-.77.93-1.13,2.16-2.13,2.92l-1.05,2c-2,1-2.89,3.93-5.82,3.09-3.55,1.43-1,4-1.12,6.06.68,9-.17,18,0,26.95l.06,0a8.32,8.32,0,0,0-.33,1.68,104.24,104.24,0,0,0-1.7,18.32h0a3.28,3.28,0,0,0-.27,1l.18.47a3.1,3.1,0,0,0,.66.74l.43.25a2.65,2.65,0,0,0,.94.3l.11.36a2.11,2.11,0,0,0,1.83.51c.7-.66,1.28-.6,1.73.26,4.43,1.23,7.64,5,12.26,5.86,1.75-.74,3.79-.69,5.34-2,2.91-2.81,3.85-6.18,4-10.26.32-9.29-2.16-18-4.61-26.75a4.48,4.48,0,0,0-.65-1.22c-.75-.33-.46-.94-.43-1.48a4.84,4.84,0,0,0-.74-2.2,4.52,4.52,0,0,1-.74-1.51,4.92,4.92,0,0,0-.38-1,12.72,12.72,0,0,1-.65-1.46,10.15,10.15,0,0,0-.45-.94c-.28-.5-.1-1-.16-1.57a6.2,6.2,0,0,0-.58-1c-.65-1.54-1.4-3-2-4.63a15.51,15.51,0,0,1-.69-1.49,6.14,6.14,0,0,0-.37-.84s.28-.23.28-.23-.1.35-.12.31c.21.49.45,1,.72,1.52s.49,1.19.71,1.79c.3,1,.89,1.9,1.26,2.88.22.59.63,1.08.9,1.64a10.22,10.22,0,0,0,.31,1.21c.23.6.34,1.25.57,1.85.71,2,1.75,3.82,2.57,5.75,3.19,10.79,6.09,21.64,5.2,33.1-1,.56,2.19,1.37-.11,1.82-1.18,1.77-3,3.18-3.27,5.49,2.29,3.75,6.44,1.07,9.36,2.69a3.65,3.65,0,0,0,1.25.35c.69,0,1.07-.55,1.5-1a16.19,16.19,0,0,0,6.23-8.75l.41-.15v-.43c.2-.42.39-.83.58-1.25a1.33,1.33,0,0,0,.6-.84c4.52-4.52,3.12-10.35,3.47-15.79.6-1,.21-2.19.63-3.22a22.43,22.43,0,0,0,.39-6.69,5.75,5.75,0,0,0,.35-1.43A1,1,0,0,0,151.62,102.16Z" fill="#110000"/><path id="hair_lines" d="M130.68,68c-3.47-2.65-7-5.27-11-7-.6.51-.41,1.4-.92,2l0,1.06c.36.94-.1,1.11-.9,1-.14-3.59.78-7.67-4.22-9a.58.58,0,0,1-.31-.58c0-.22.11-.34.18-.34,5.28,1.22,9,5.19,13.39,7.87,1.7,1,3.87,1.93,4.81,4.05A1.8,1.8,0,0,1,130.68,68Zm-61-50c1.44,0,3,.08,3-2a3.06,3.06,0,0,0-3.16-.87c-.78.15-1.47.56-2.25.72a5.79,5.79,0,0,0,2.06-1.11c.75-.78.91-2.56.27-2.45-2.8.51-5.66-3.42-8.33.18-2.43,3.29-5,4-7.83.32A2.5,2.5,0,0,0,51.67,12c-.33-.34-.66-.68-1-1s-.39-.95-1-1c-1.44.21-2.47.65-.79,2s3.41,3.09,2.59,4.57c-.66,1.18-2.78-.93-4.34-1.3A20,20,0,0,0,44.67,15h0c.55,1.39,1.73,1.79,3,2.18s2.91.91,3,2.82c2.46.36,5.35-1.06,7.23,1.74l1.62.53C62.09,19,66,18.8,69.67,18Zm58,121c1.33-1.68,2.65-3.36,4-5h0c.84-12.47-1.54-24.4-6-36-.64.51-.61,1.36-1,2,2.35,6.48,4.38,13.15,4.8,20,.4,6.5,2.14,13.65-3.82,19C126.28,141.16,127,140,127.69,139.07Zm3-71a6.69,6.69,0,0,1,1,1,29.13,29.13,0,0,1,7,7c.34.31.66.64,1,1l0,1h0a3.24,3.24,0,0,1,2,2,10.38,10.38,0,0,1,1,1v0c.34.31.66.64,1,1l1,2c-.07,0-.14.11-.2.34a.62.62,0,0,0,.23.65l1,1c.34.32.66.65,1,1,.63,1,.88,2.32,2,3q.5.7,1,0c-3.54-9.59-10.3-16.67-18-23l-1,1Zm-9.16,72.25a3.72,3.72,0,0,0,.14.74,36,36,0,0,0,16,.9c-1.17-1-1.84-2.35-4.16-1.38a5.56,5.56,0,0,1-5.79-1.48c-.68,0-1.39,1.19-2,0C123.86,138.08,122.53,138.7,121.51,140.29ZM118.68,23c-3.73-3.26-8.27-4.39-13-5C109.54,20.9,114.25,21.6,118.68,23Zm-18-6c-2.34-1.82-5.32-.95-7.93-1.86-1.32-.46-3.8-1-4.42.64C88,16.77,91,15.13,91.67,17Zm23,75c-.34-.32-.66-.65-1-1l0-1-.5-.38-.5.38,0,1c-.08,0-.15.11-.23.33a.63.63,0,0,0,.24.66c0,.33,0,.67,0,1,.33.32.66.65,1,1l0,1c.65.5.39,1.45,1,2l1,2c-.07,0-.14.11-.21.34a.65.65,0,0,0,.22.65h0a2,2,0,0,0,1-2C125,96,124.34,94,123.67,92Zm-6-10,0,1a13,13,0,0,1,1,1,11.62,11.62,0,0,0,3,6h0c.08,0,.17-.11.26-.32a.61.61,0,0,0-.23-.67l-1-4c-.34-.32-.66-.65-1-1l-1-3C117.77,80.78,117.32,81,117.64,82Zm-73-67c-1.45-1.57-3.24-1-5-.78a.62.62,0,0,0,0,.33c1.63.52,3.24,1.39,5,.44Zm55-10c-4.87-.71-9.59-.4-14,2,4.72.34,9.27-1.68,14-1V5ZM80.93,16.53c1.4-.66,3.15-.62,4.74-.89-1.53-1.32-3.35-.24-5-.62-1.68.28-3.62-.7-5,1C77.42,16.05,78.93,17.46,80.93,16.53ZM85.68,7c-2.19-.32-4.15.59-6.16,1.17-.61.18-1.35.63-1.06,1.29.4.89,1.44.42,2.21.54C82,8.42,84.58,9,85.68,7Z" fill="#1a1012"/></g></g></svg>
