<svg xmlns="http://www.w3.org/2000/svg" viewBox="0 0 159.73 162.15"><defs></defs><title>full_6</title><g id="poca"><g id="_6" data-name="6"><path id="shoulder_left" d="M127.52,141.05l-6,.14-1.1-.19c-.8-.72-1.92-.14-2.77-.68l-2.22-.3c-1.16,1.37-.93,2.72.06,4.07.53,1.09,2.14,1.47,2,3,1.22,1,.66,3,2.1,3.9h0c.91.85.81,2.33,1.92,3h0c1,1.17.68,3,1.92,4.05l0,0c1.11,1.05.68,2.91,2,3.83h7.92l1,.07C134.87,154.11,131.92,147.33,127.52,141.05Z" fill="#cd5e61"/><path id="shirt_dark_left" d="M127.52,141.05c1.27.08.79-1.51,1.68-1.78,3.68,3.87,8.78,5,13.44,7,2.27,1,4.54,1.95,6.81,2.92,1.18,1.12,2.54,2.1,3.06,3.77.4,3.08,1.21,6.21-1,9l-16.95.07C132.59,154.87,129.83,148,127.52,141.05Z" fill="#faac88"/><path id="shirt_light_left" d="M151.48,161.91q0-4.91,0-9.81a1.4,1.4,0,0,1,2.06,0l0,0a9,9,0,0,0,2.2,2.86,10.86,10.86,0,0,0,1.87,3.16l0,0a19.9,19.9,0,0,0,2,3l0-.07a.69.69,0,0,1,0,.92Z" fill="#fcb9ad"/><path id="shoulder_right" d="M15.56,135.06c7.16,2.82,13.57,7,20.17,10.88,1.34,5.25,2.84,10.48,1.73,16-11,0-22.1,0-33.14.21-3.07.06-4.19-.88-3.92-3.88.18-2,0-4,0-5.92-.86-3.16-.19-6.39-.4-9.57,0-1.09,0-2.19.05-3.28.09-.14.15-.38.26-.41C5.45,137.86,10.63,136.91,15.56,135.06Z" fill="#cc5e61"/><path id="neck" d="M108.62,120.27c-1,3.94-2,7.85-2.83,11.83-.29,1.45-1.73,3-.21,4.54.59,1.1-.16,1.82-.74,2.58-2.39,4.62-3.29,9.7-4.58,14.65-.17.65-.2,1.32-.43,1.95a12,12,0,0,0,.46-1.83c.86-3.16,1.09-6.52,3.15-9.28,3-.61,3.5,2.06,4.76,3.72a16.29,16.29,0,0,0,1.89,3.69c.86,3.34,4,5.94,3.2,9.83H53.71a7.48,7.48,0,0,1-3.37-5.49,7.76,7.76,0,0,0-1.49-4.64,6.58,6.58,0,0,1-.28-3.7c2-3.82,2.64-8,3.54-12.16a4.74,4.74,0,0,1,1.12-1.88c3.14-.33,4.62,3.06,8,3.16a28,28,0,0,0,14.23-3.37C86,128.41,96.94,123.59,107,117.08a1.8,1.8,0,0,1,1.38-.17C109.39,118,109.11,119.1,108.62,120.27Z" fill="#cc5e61"/><path id="necklace_left" d="M107.52,149.08c-1.89-.85-1.43-3.86-3.88-4.19a7.49,7.49,0,0,1,.2-6.79,1.64,1.64,0,0,0,1.74-1.46c2.42-.39,4.19,1,6,2.19,1.6,1.41,2.9,3.12,4.45,4.58a5.36,5.36,0,0,1,2.36,3c.29,1.37.17,2.87,1.21,4a4.71,4.71,0,0,1,.57,1.06c.3.84.21,1.91,1.3,2.33a2.57,2.57,0,0,1,.77.93,9.36,9.36,0,0,0,1.44,2.81,4.47,4.47,0,0,1,.59,1.2,3.19,3.19,0,0,1-.69,3.15l-10.33,0c-2.1-2.92-2.62-6.48-3.88-9.73C108.61,151.28,108.36,150,107.52,149.08Z" fill="#5689a2"/><path id="necklace_right" d="M37.46,161.94a40.15,40.15,0,0,1-1.73-16,9.18,9.18,0,0,1,5.85,2c.22.43.5.5.85.14h6.8l.34,4c1.29,1.06.63,3,1.91,4.1-.43,2.38,2.49,3.46,2.23,5.78Z" fill="#5888a0"/><path id="face" d="M132.83,70.93c-.83-.44-1.36,0-1.83.62a6.81,6.81,0,0,0-.43,3.23,51.39,51.39,0,0,1-.54-6c-1-1.8-2.1-3.36-4.53-2.76l0,0c-.47.84-.68,1.92-1.89,2.08l0,0c-1.23,1.49-1.86,3.65-4.26,3.83-3.36,1.21-1.64-1.41-1.66-2.37-.06-4.72,1.29-9.74-3.13-13.44l-.31.3.24-.37c-3.81-6.05-9.24-10.55-14.56-15.15C96,37,92,33.17,92.55,27a3,3,0,0,0-2.24-2.77,102.92,102.92,0,0,0-18.75-5,1.36,1.36,0,0,0-2-.12h-1c-3-.89-6-1.47-9,.07l-7.88,4c-2.25.83-2.31,3.09-3.17,4.84l0,.05a3.27,3.27,0,0,1-.91,1l0,0c-.63,1-1.23,2.07-1.91,3.05a23.54,23.54,0,0,1-3,6c.88,3.23,3.65,1.67,5.59,2.23.42.12,1.32-.37,1.14.49-.07.33-1.17.45-1.71.84a2.43,2.43,0,0,0-.36.5c-5.87-.49-6.35,0-6.72,5.77,0,.66,0,1.33,0,2,1.6,2.51.94,5.35,1.13,8.06l5.73,1.2C48.41,60.92,50.89,61,51.75,63c-.59.44,1.08,1.36-.33,1.64a2.83,2.83,0,0,0-1.58-.22,6.65,6.65,0,0,0-1.68.51l-.58.14c-3.08.08-5.14-2.43-7.92-3.1-.09,1.64-.17,3.28-2,4.06-.28,1.73.22,3.62-1,5.15-.42,3.36,1.53,6.51.87,9.9,3.34,15.73,9.14,30.7,14,46,1.53,5,5.42,6.26,10,6.28a44.24,44.24,0,0,0,11.21-1.85c11.53-2.94,21.38-9.58,32.14-14.2a18,18,0,0,0,8.91-8.09c2.75-5,3.07-10.81,4.78-16.16.59-.89.93-2.14,2.47-1.06a3.8,3.8,0,0,0,4.44,0c3.5-3.68,7-7.37,8.53-12.4C135,76.54,135.49,73.5,132.83,70.93Z" fill="#cc5e61"/><path id="neckline_left" d="M103.84,138.1c-.07,2.27-.13,4.53-.2,6.79-1,3.44-2,6.89-3,10.34-.18.62-.25,1.33-1.09,1.35a2.64,2.64,0,0,1-.16-1.24C100.67,149.55,101.27,143.57,103.84,138.1Z" fill="#b5484c"/><path id="neck_shadow" d="M53.61,134.13c0-.66.18-1.67.89-1.41,9.91,3.73,18.76-.06,27.53-3.93,8.56-3.77,17-7.79,25.51-11.71-.51,3.53-4,3.68-6.17,4.85-10.18,5.51-20.59,10.58-31,15.61C65.12,140.08,57.11,138.27,53.61,134.13Z" fill="#c45255"/><path id="jawline" d="M51.5,127.05c5.15,6.83,12.06,5.63,18.88,3.87,12.9-3.33,24.2-10.41,36.18-15.91,2.87-1.32,5-3.62,7.24-5.82-.21,3.29-3.28,5.06-4.21,8a1.71,1.71,0,0,0-2-.07h0a185.5,185.5,0,0,1-35.39,16.86c-6,2.14-12.34,1.85-18.54.19-.09.74-.18,1.47-.26,2.21C51.86,133.42,51.78,130.22,51.5,127.05Z" fill="#ad3b41"/><path id="lips" d="M61.74,117.16c-4.25-.28-8.23-.39-11.31-3.53-.73-.75-1.53-.91-.19-2,2.28-1.89,1.4-4.6,1-7-.87-4.83,2.66-8.79,7.46-7.94,3.91.7,7.85,1.53,10.35,5.17a6.27,6.27,0,0,0,1.54,1.23c5.79,4.27,5.91,5.08.38,10C68.31,115.43,65.75,118.47,61.74,117.16Z" fill="#c33c49"/><path id="eye_lid_top_left" d="M86.82,55.09a5.31,5.31,0,0,1,1.83.22c1,.38,2.75.56,2.23,2-.38,1.08-1.72-.12-2.64-.15a32.64,32.64,0,0,1-4-.08c-1.32-.2-2.62,2-3.57.2-.18-.34,2.16-2.23,4-2.19Z" fill="#bf4f54"/><path id="teeth_bottom" d="M70.49,108a13.89,13.89,0,0,1-14,1l0,0a2.21,2.21,0,0,1-1.15-1.92c2.56-1.51,5,.5,7.52.27,1.88-.17,3.84.72,5.65-.42a2.16,2.16,0,0,1,1,0A3.44,3.44,0,0,1,70.49,108Z" fill="#c6818c"/><path id="teeth" d="M68.57,107c-4.36,2.61-8.78.21-13.17.15-1.14-1.37-.57-1.48.86-1.32C60.36,106.31,64.47,106.65,68.57,107Z" fill="#eca59d"/><path id="nostril_left" d="M62.73,89.06a1.71,1.71,0,0,1-2,.83c-.48-.13-1-.42-.69-1,.39-.9,1.23-.87,2-.74C62.47,88.23,63.05,88.35,62.73,89.06Z" fill="#b44349"/><path id="nostril_right" d="M56.86,90c0,.83-.53,1-.91.7-1.18-.84-2.47-1.65-2.83-3.21,0-.2.42-.73.51-.7C55.25,87.38,55.72,89.1,56.86,90Z" fill="#ba4a4e"/><path id="eye_left" d="M91.64,62c-4.55-2.1-9.3-1.13-14-.82-.91,0-2.13.49-1.93,1.76.39,2.42,3.77,2.43,4.22,5.11.16,1,1.69,0,2.6,0A6.59,6.59,0,0,0,83.39,67c.71-3.59,4-2.31,6.09-3.22.23-.1.45-.2.66-.31a1.38,1.38,0,0,0,.4.15,1.54,1.54,0,0,0,1.06-.52l.93-1A1.31,1.31,0,0,0,91.64,62Z" fill="#250b0c"/><path id="eye_lashes_left" d="M93.56,65.12c-.63-.37-1.27-.73-1.91-1.09l-.4-.38a1.1,1.1,0,0,1,.34-1,3.41,3.41,0,0,0,.94-.55C94.78,62.46,95.35,63.38,93.56,65.12Z" fill="#60171c"/><path id="eye_line_bottom_left" d="M93.56,65.12a2.07,2.07,0,0,0-2.28-1.42c-2.43.87-5.38.46-7.15,2.93a.49.49,0,0,0,0,.12,1.44,1.44,0,0,0-1.4,0l-.18,1.34,1.9-.08h0C87.57,67.3,90.72,66.68,93.56,65.12Z" fill="#8b4046"/><path id="brow_left" d="M93.48,47.14c-.22-.08-.38-.14-.56-.19-.08-.57-.8-.82-1.34-1h0c-1.09-1.4-2.7-1.66-4.31-2.05a90.81,90.81,0,0,0-13.6-2.07c-1.19-.1-2.85-1.74-3.4-.15-.49,1.41,1.51,2.45,2.82,3A13.13,13.13,0,0,0,77,45c4.9.3,9.93-.32,14.57,1.95l1,.11h0c0,.64.44.92,1,1h0c.87,1.6,2,2.84,4,3l0,0A8.58,8.58,0,0,0,93.48,47.14Z" fill="#781217"/><path id="eye_white_left" d="M84.53,67.15l-1.81-.43c-.68-2.91.31-4.32,3.44-3.91,1.12.15,2.25.13,3.38.19l1,.28a6.61,6.61,0,0,1,1,.7l0,.05C89.71,66.06,86.5,65.18,84.53,67.15Z" fill="#d3b2b4"/><path id="eye_right" d="M51.66,62.62a.57.57,0,0,0-.08-.13,4.23,4.23,0,0,1-.84-.85,4.33,4.33,0,0,1-1.18-.7,4.38,4.38,0,0,1-2.26-1.79,5.41,5.41,0,0,1-1.12-.24,5.16,5.16,0,0,1-.92-.19,5.4,5.4,0,0,1-1.51-.3,5.55,5.55,0,0,1-.87-.2l-.34-.06a5.38,5.38,0,0,1-1.34-.29l-.19,0a3.73,3.73,0,0,0-.3.26c-.13,1.36-1.38,2.41-1.11,3.88a5.35,5.35,0,0,1,.74.25,4.38,4.38,0,0,1,1.27.6l.21.11a4.34,4.34,0,0,1,1.59.9,4.82,4.82,0,0,1,1.06.55,5.16,5.16,0,0,1,.86.36,5,5,0,0,1,.9.25,5.09,5.09,0,0,1,.81.12c.17,0,.33,0,.51,0h0a2.07,2.07,0,0,0,.29-.3,2,2,0,0,1,1.92-.88A4.66,4.66,0,0,0,51,63.66a1.56,1.56,0,0,0,.73-.83A1.72,1.72,0,0,1,51.66,62.62Z" fill="#3c161b"/><path id="eye_lashes_right" d="M51.75,63c1.51,1.08,2.94,2.43.32,3.55-1.62.68-.39-1-.66-1.5-.46-.55-1.33-.87-1.08-1.83Z" fill="#611b21"/><path id="eye_white_right" d="M47.38,64.17c-.81-.29-1-1.06-.51-1.5,1-.86,1.76.23,2.6.6C49.42,65.08,48.4,64.63,47.38,64.17Z" fill="#e4d1d5"/><path id="eye_white_shadow_right" d="M47.38,64.17c.74-.2,1.59-.15,2.09-.9a2.07,2.07,0,0,1,.86,0c.24.68,1.26.9,1.08,1.83l-2,.08a1.32,1.32,0,0,1-1.9-.12l.07.06A1.41,1.41,0,0,0,47.38,64.17Z" fill="#cea3a7"/><path id="eye_lid_top_right" d="M49.55,58.06c-.41-1.76-3.14-1.77-3-4C47.66,55.34,51.22,54.72,49.55,58.06Z" fill="#c1434f"/><path id="brow_right" d="M42.57,38.13c2.3,1.92,5,.62,7.51,1,1.1.15,3.05-.94,3,1.25-.07,1.47-1.63,1.85-3,1.82-.82,0-1.64,0-2.46,0-4.35.76-5.62,4.33-7.07,7.74l-.87-1.23-.14-5.65a2.29,2.29,0,0,0,.19-1,4,4,0,0,1,1.88-3Z" fill="#7b181e"/><path id="ear_curve_left" d="M129.51,69.1a3.12,3.12,0,0,0,2,3c.65,4.24.18,8.13-3.53,11-.53.41-1.1.91-1.73.51-.78-.48-.4-1.3.07-1.67,3.91-3.09,3.82-7,2.35-11.17C128.44,70.06,129,69.51,129.51,69.1Zm-6,13.11c1.37.57,1.32-1,1.72-1.72a8,8,0,0,0,.66-2.35c.24-1.29-.63-1.82-1.65-2s-2.67-.61-3.08.61c-.52,1.49,1.15,1,1.94,1.32,1.25.42.63,1.22.32,2.38C123.37,80.8,122.46,81.78,123.52,82.21Z" fill="#bc4a51"/><path id="hair" d="M53.35,136.34c-1.1,4-.64,8.56-4.12,11.72-1.76,1.7-3.93,1.26-6,1.18a6.84,6.84,0,0,1-1.49-.33,50.35,50.35,0,0,0-6.22-2.18c-6.84-3.29-13.11-7.64-20-10.82-1.77-.76-3.74-1.11-5.17-2.56-.8-1.33.18-2.89-.54-4.24a59.83,59.83,0,0,1,6.87-17.28C23.71,100.64,29.75,89,35.7,77.18c2.48.26,1.91,2.72,2.92,4,3.44,15.62,9.71,30.37,14,45.73A77.67,77.67,0,0,1,53.35,136.34ZM150,97c-.12.79.16,1.88-.86,2.06s-1.19-.93-1.48-1.65c0-.1-.07-.21-.11-.32a23.21,23.21,0,0,1-1.94,16.23c-1.67,6.27-6,11-9.34,16.32-2.15,3.36-4.72,6.44-7.1,9.64,0,1.17-.37,2.1-1.68,2.35a17.94,17.94,0,0,1-5.75.45,7,7,0,0,1-1.27-.28,14,14,0,0,0-3.14-.62,10.82,10.82,0,0,1-2-.37c-1.27-.4-2.6-.62-3.87-1a40.48,40.48,0,0,0-7-2.65c-1.23-6,1.89-11.11,3-16.64.44-1.13.82-2.29,1.21-3.45.75-3.1,3.29-5.32,4.12-8.39,2.41-5,2.27-10.76,5-15.62,2.11-1.93,3.62-1.34,4.32,1.24l.24.87a3.85,3.85,0,0,1,2-4c3-3.14,6.19-6.08,7.83-10.24,1.21-3.07,1.72-6.08-.25-9-1.63-2-2.42-4.84-5.45-5.4a7.85,7.85,0,0,0-1,.64c-.44.44-.86.88-1.29,1.33s-.59.64-.9,1c-1.38,1.23-2.48,2.77-4.16,3.65-3.79.49-2.73-2.52-2.91-4.31-.36-3.72.5-7.63-1.92-11-.27-.38-.54-.77-.82-1.15-3.81-6.17-9.86-10.22-14.69-15.43C96.41,37.62,93,34.6,92.46,30l-1.4-5c-6.45-.7-12.45-3.34-18.81-4.44a6.35,6.35,0,0,0-3.33-.84,6.09,6.09,0,0,1-1.41-.29c-.92-.39-2.05-.8-2-1.89a.67.67,0,0,1,.08-.33c-1.75.77-3.46,1.64-5.17,2.56a66.46,66.46,0,0,1-8.07,4.1c-1.8.55-3.39,1.71-5.33,1.9,0,0,0,0,0,0,1.31-.4,1.93.21,2.15,1.44a3.16,3.16,0,0,1-.29,1.21,8.22,8.22,0,0,1-.7,1l-.38.49a8.57,8.57,0,0,0-1.4,2.74,13.49,13.49,0,0,1-2.76,5.37,4.4,4.4,0,0,0-2.73,2.12,5.27,5.27,0,0,0-1,2.9,3.18,3.18,0,0,1-.16.32l.16.23a6.31,6.31,0,0,0,.09.76,5.83,5.83,0,0,0,.13,1.72,5.67,5.67,0,0,0-.34,2.35l-.18.25-.82.4c-.46-1.63-.92-3.27-1.39-4.9h0c-.33-.69-.24-1.55-.84-2.12l0-.06c-.91-.75,0-2.22-1.11-2.87-3.34-8.91-1-15.62,6-20.93C48.18,13.11,54.91,8,63.4,6a41.37,41.37,0,0,1,17.43-.72c-.79-.52-.71-1.23.72-2.08,2.55-.62,9.64-2.19,12.31-2,10.5-1.43,24.54,3.49,30.8,11.65.26.34.53,1,.37,1.29-.46.68-1.15.11-1.75.06a26.29,26.29,0,0,0-14.91,2.41c2.4-.7,5-.65,7.34-1.25,9.51-2.43,15.65,1.43,19.78,9.76,2.94,5.91,7.17,11.18,8.76,17.76a2.8,2.8,0,0,1-.52,1.32,2.05,2.05,0,0,1-2.44-.68,4.18,4.18,0,0,1-.5-.69c.11.74.76,1.1,1.16,1.66,5.66,3.87,7,10.19,7.76,16.09C151.2,72.62,151.85,84.83,150,97ZM47,25.78a.73.73,0,0,1-.77.19C46.48,26.18,46.73,26.12,47,25.78Z" fill="#110001"/><path id="hair_lines" d="M145.55,90.07c1.67,1.77,1.58,4.27,2.63,6.29.28.55.59,1.6.84,1.58.9-.06.44-.94.49-1.46a167.49,167.49,0,0,0,0-33.73,29.87,29.87,0,0,0-8.92-18.68c.31-.35.34-1,1-1l2,1h0c.61-2.55-1.24-4.56-2.23-6.32-3.73-6.69-7-13.71-12.14-19.56a5.9,5.9,0,0,0-5.25-2.13c-5.12.38-10.25.68-15.37,1a1.6,1.6,0,0,1-2,.19c-.32-2.26,1.62-2.21,2.88-2.61a33.92,33.92,0,0,1,8.28-1.8c1.5-.1,3,.11,4.48,0-.5-1.62-2-2.41-3-3.64-4.45-5.68-10.7-6.09-17.2-5.85-2.29.09-1.78,1.21-1.25,2.62,1.25,3.26,1.68,6.47-1,9.3a1.67,1.67,0,0,1-1.38-.12,4.58,4.58,0,0,1-.81-3.25C97.66,7.16,95.73,4,90.87,3A2.42,2.42,0,0,1,89.3,2C96-.56,103,0,110,.22c2.58.1,5,1.76,7.06,3.41a88.84,88.84,0,0,1,30.74,46c4.95,17.13,4.38,34.47,2.59,51.85-.43,4.15-2.51,8.16-4.7,11.87,0-1.14-.33-2.5.15-3.4,3.71-6.92.64-13.32-1.26-19.83C144.86,89.66,145.2,89.66,145.55,90.07ZM68.83,4.12A8.48,8.48,0,0,0,63.4,6,51.47,51.47,0,0,1,89.54,9.08c-1.67-2.52-4.3-3.46-7.05-3.94-1.58-.27-1.42-.91-.94-1.94A66.9,66.9,0,0,1,68.83,4.12ZM91.61,26.9c.12-1.17-.7-1.89-1.3-2.72,2.38-1.82,3.22-7.63,1.52-11.36a35.57,35.57,0,0,0-2.3-3.75c3.25.34,3.6,2.9,4,5.33a36.54,36.54,0,0,1,.07,3.92c0,.77-.25,1.81.71,2.13,1.21.4,1-.87,1.41-1.46.91-1.33,1.89-2.62,2.85-3.92h1c1,1-1,4.29,2.51,3.52l.51.48c-1.09,2.19-3.29,2.52-5.29,3.26-.94.34-1.76,1.06-1.3,2.27.35.93,1.21.66,2,.82,2.34.48,4.8-1.18,7,.44-2.06,2.47-4.8.89-7.21,1.14-2.19.23-4.51-.2-4.29,3.13C90.92,30.18,92.77,27.67,91.61,26.9Zm10.93-7.82h0c2.15-.21,4.72.8,6-2l-2,0C104.37,16.09,102.91,16.52,102.54,19.08Zm-35.67-1.7c3.16.25,5.37-2.48,8.61-2.09,2.22.26,5,.57,7-1.22h0c-8.55-2.33-15.77,1.44-23,5l9-.07C68.65,17.85,66.29,17.33,66.87,17.38Zm15.66-3.31c2.79-.07,3,2.67,4.45,4.09,1.23,1.23,1.07,3.47,3,4.26.5-2.11-.79-4-1.79-5.23-1.25-1.52-1.81-5.8-5.62-3.11Zm58,67a7,7,0,0,0-3.11-5.27c-.09-.06-.63.32-.61.4a7.09,7.09,0,0,0,3.7,4.89Zm5,9h-1a24.22,24.22,0,0,1-3-7h0C144.44,84.51,144.14,87.78,145.55,90.07Zm-4-7a2,2,0,0,1-1-2l0,0a2,2,0,0,1,1,2ZM121.59,94.85a48,48,0,0,1,2.77,18.7c0,.74-.61,2.71,1.14,2.62,1,0,1-1.54,1-2.53A45.07,45.07,0,0,0,124,98.06c-.83-2.39-1.38-4.62,1.47-6.07-1.57.13-3.08.68-4.55-.74-4.19-4.08-1.66,1-2.36,1.78C120.53,92.09,121,93.09,121.59,94.85Zm1,30.23c0-.16,0-.32,0-.49a6.63,6.63,0,0,1,2-5.72c.07-.06.45.21.69.33-1.06,1.89,0,4.76-2.74,5.87Zm0,0c0,1.25.24,2.63-1.2,3.38-.07,0-.36-.12-.37-.21a3.37,3.37,0,0,1,1.58-3.16Z" fill="#160b0f"/></g></g></svg>
