<svg xmlns="http://www.w3.org/2000/svg" viewBox="0 0 167.56 163.89"><defs></defs><title>full_15</title><g id="poca"><g id="_15" data-name="15"><path id="shoulder_left" d="M140.76,141.92c-.82.07-1.74-.06-2.14,1,.85,5.12,3.14,10,2.51,15.37-.23,1.94.32,4-1.56,5.48l-7.74,0c-.13-7.48-3.55-13.9-7.15-20.06-.94-1.61-.77-2.9-1.14-4.32.22-.71.8-1.25,1.43-1.05,5.07,1.62,10.44,1.51,15.56,2.81A1.17,1.17,0,0,1,140.76,141.92Z" fill="#ca5e62"/><path id="shoulder_shadow_left" d="M139.57,163.72c-.12-5.66,1.8-11.48-1.71-16.86a2.9,2.9,0,0,1,.76-4,26.68,26.68,0,0,1,4.07,14c.1,2.29.46,4.57.7,6.85Z" fill="#b54449"/><path id="shirt_dark_left" d="M140.76,141.92l8.75,2.89c.43.43,1,.65,1.47,1.08,1.19.78,2.57,1.21,3.75,2l1,.74c1.34,1.37,2.65,2.77,3.89,4.23h0c2,3.64,2.26,7.26-.09,10.87l-16.11-.06a4.27,4.27,0,0,1-1.89-3.29c.26-6.16-2-11.81-3.33-17.66C138.71,141.43,139.54,141.07,140.76,141.92Z" fill="#faac89"/><path id="shirt_light_left" d="M159.5,163.74l.09-10.87c2.84.59,4.36,2.77,5.93,4.89a1.33,1.33,0,0,0-.14,1.57c.56.45.32,1.52,1.3,1.63,1.23,1.47,1.37,2.71-.93,2.87C163.68,164,161.59,163.78,159.5,163.74Z" fill="#f2b9ae"/><path id="shoulder_right" d="M11.46,122.69a3.8,3.8,0,0,1,3.15-.59c2,.62,4,.24,6,.25,9,1.1,16.94,4.33,23.5,10.68-1.24,6.08-1.9,12.18-.23,18.29-.23.69-1.19.22-1.43.9a1.83,1.83,0,0,1,1.19.35c1.87,3.6,1.36,7.39.95,11.18l-44.12,0c-.95-4-.17-8.1-.42-12.14.3-7.94-.64-15.91.51-23.84a11.1,11.1,0,0,1,4-2.61A50.85,50.85,0,0,0,11.46,122.69Z" fill="#cc5e61"/><path id="neck" d="M109.54,163.73l-32,.09a87.42,87.42,0,0,1-16.22-5.23,8.83,8.83,0,0,1-1.74-1.23c-2.88-4.4-4.82-7.18-5.4-12.44-.08-1.19-.93-1.69-.58-2.21.47-1.3-.39-3.72-1.27-3.68-2.58-3.23.52-3.65,1.07-7a8.55,8.55,0,0,1,1.37-2.31,16.85,16.85,0,0,0,1.88-2.56c.2-.37.42-.73.64-1.09a8.83,8.83,0,0,1,2-2.51c.92-.58,2-.86,2.93-1.37a7.21,7.21,0,0,1,1.25-.53c1.45-.26,3-.2,4.19-1.26C76,113.14,85.67,107.3,93,98.7c2.08-2.2,4.76-3.59,7.2-5.28,3.88-2.69,6-6.07,5.44-10.92a9,9,0,0,1,.16-3c.14-.67.44-1.38,1.11-1.49,1-.17,1.41.72,1.61,1.52.59,2.41.36,5,1.23,7.34,1,13.62-.32,27.1-2.38,40.53-.42,1.59-.73,3.18.34,4.67a7.91,7.91,0,0,1,.69,1.11c1.05,1.46,1.29,3.5,3.14,4.41a2.4,2.4,0,0,1,.79.94c.26,1.46.74,2.72,2.56,2.76,2.12,1.12,1.87,3.17,2,5.06a8.3,8.3,0,0,0,1.27,5.27c1.41,3,2.38,6.06,0,9.08C116,163.72,112.35,162.59,109.54,163.73Z" fill="#cc5e61"/><path id="necklace_left" d="M117.52,160.84a13.05,13.05,0,0,0,0-8.93c-1.22-1.46-.69-3.6-1.93-5-.49-1.74,1-4.24-2-5-1.52-.84-.61-3-2.12-3.87h0c-1.12-1.84-2.66-3.35-3.91-5.09l0-.05a1.92,1.92,0,0,1-.77-2.07,2.4,2.4,0,0,1,.54-1,2,2,0,0,1,1.1-.22,11.07,11.07,0,0,1,1.58.58l1,.42c.52.18,1,.36,1.58.52a5.52,5.52,0,0,1,1,.42,15.11,15.11,0,0,1,1.41,1c.48.29,1,.58,1.46.84s1,.51,1.5.79a6.11,6.11,0,0,1,1,.63c.31.23.6.49.89.75l.43.4c.31.25.61.52.92.79s.32.26.49.38c1,.82,2.21,1.47,2.69,2.81,2.49,5.6,6,10.75,7.5,16.79.62,2.46,1.42,4.8-.13,7.17l-14.29,0A2.07,2.07,0,0,1,117.52,160.84Z" fill="#578aa1"/><path id="necklace_right" d="M44.62,163.75c-2.18-3.7.07-8.16-2-11.87l-.05.06c.9-2.41-1.14-4.3-1.07-6.75a43.94,43.94,0,0,1,1.88-12.35,1.22,1.22,0,0,1,.48-1.43c3.54-.52,7.15-3.17,10.57.34-.36,3.4-1.64,6.82.19,10.18l-.05,0c1.78,5.14,3,10.52,6,15.18-2.73,3.76-7.44,4.27-11,6.68Z" fill="#5789a2"/><path d="M115,49.19a5.23,5.23,0,0,0-1.17-.16l-1.17-1.14-1.06.09,0,1.59a2.49,2.49,0,0,0-.77.07,1.77,1.77,0,0,0-.14-2,3.48,3.48,0,0,0-.09-.79A26.09,26.09,0,0,1,106.09,45c-1.26-.72-2.65-.88-3.53.32-1.77,2.42-4.18,4.69-3.17,8.12,0,.08-.1.15-.14.23l0,0a1.25,1.25,0,0,0-.54-.27c-2-.84-2.1-2.87-2.83-4.47-2.72-6-6.54-10.73-13.48-12C75.74,35.34,71,30.88,66.43,26.2l-1.69-.46h0a.56.56,0,0,0,0-.08l-.17-.12c-4.17-4.12-7.8-9.25-14.9-7.91-5.59-.52-10,1.82-14,5.51a6,6,0,0,1-4,2.87V26c-2,2-3.79,4.05-3.39,7a7.3,7.3,0,0,0-.46,1.08,25.66,25.66,0,0,1-1.16,3.06,30.64,30.64,0,0,0-1.8,5,4.93,4.93,0,0,0,.2,2,10.35,10.35,0,0,0,.22,2.72c.56.59,1.26.05,1.87.22a9.43,9.43,0,0,0-1.85,1.41,3.4,3.4,0,0,0-.44.82c-.46,1.22.24,2.36.22,3.55a3.23,3.23,0,0,0,.46,2.1v-.08c1,1.11,1.19,2.56,1.67,3.89a1.92,1.92,0,0,0,.87.82c.7.27,1.46.32,2.17.6.42.47.08,1,.07,1.46.73.65.13,1.23-.09,1.82l-.49.81a4.44,4.44,0,0,0-1.32.52c-3.56,2.49-.56,6.1-1.53,9,.44,5.52,3.7,10,5.5,15,1.39.15.34,1.62,1.14,2.1l0-.06c1.32,1.22,1.58,2.94,2.06,4.55l.08.2a62.67,62.67,0,0,0,3.51,6.88,69.7,69.7,0,0,1,5.61,11.07c1.54,3.63,3.8,6.64,8,7.46,9.18-.06,16.14-5.12,23.06-10.26a201.78,201.78,0,0,1,20.77-14.5c7.21-4.33,10.5-9.81,9.2-18-.61-3.83.22-6,4.59-5.44a5.22,5.22,0,0,0,1.32-.59,9.82,9.82,0,0,0,2.87-4.83,5.47,5.47,0,0,1,.29-1.3,3.61,3.61,0,0,0,.64-1.39c.17-.28.35-.55.55-.82,1.36,0,.8-1.65,1.41-2.29V54C117.19,52.1,117.38,50,115,49.19Z" fill="#cc5e61"/><path id="jawline" d="M93.53,99.87c-4.13,0-5.81,3.89-8.92,5.54s-5.36,4.3-9,4.49c7.35-6.67,16-11.59,24-17.29,3.52-2.5,5.29-5.26,5-9.48-.3-3.78.57-7.61-.58-11.36-.23-.76.44-2.17,1-1.11,1.53,3,3.85.41,5.55,1.28.34,1.7-1.36,2.07-2,3.1-1.45.91.39.71.41,1.13,1.3,2.21.54,4.74,1.14,7.06a4.62,4.62,0,0,1,0,1.39,2,2,0,0,1-1.53,1.3c-1.72-1.64-.58-3.78-1-5.65a13.25,13.25,0,0,0-.46-1.34c-.17.37-.53.78-.47,1.11,1.64,9.75-5.16,14-11.87,18.28C94.21,98.66,93.93,99.35,93.53,99.87Z" fill="#b13e45"/><path id="lips" d="M39.91,94.69c-.22-5.15,5.5-8.88,11.88-7.52a19.78,19.78,0,0,0,10.47-.39,2,2,0,0,1,1.32-.07A.76.76,0,0,1,63.83,88c-4.93,5.33-8.24,12.68-17.11,13C42.39,101.05,40.11,99.26,39.91,94.69Z" fill="#c73947"/><path id="nostril_left" d="M45.84,80a21.63,21.63,0,0,1-2.28,2.12c-.65.46-.87-.26-.7-.69.42-1,.69-2.23,2.06-2.43C45.43,78.93,45.87,79.06,45.84,80Z" fill="#b24147"/><path id="neck_shadow" d="M62.56,122.9c-.66,1.21-1.83,1-2.9,1-2-2-5.86-.76-7.35-3.87,8.1-.18,14.56-4.18,20.67-8.94a4.42,4.42,0,0,1,2.6-1.21A98.75,98.75,0,0,0,88.9,101c1.38-1.05,2.6-2.7,4.63-1.17A62.68,62.68,0,0,1,78.7,112.78c-3.26,2-5.26,5.45-8.71,7.42-2.41,1.38-4.4,3.25-7.43,2.7Z" fill="#c25054"/><path id="eye_left" d="M53.52,56.93a5,5,0,0,0-1-1c-5-2.71-5-2.7-.1-6.1.93-.73,2.25,0,3.14-.88l1.72-.2c1.52-.3,3.06-.85,4.44.4,0,1.75-1.47,1.53-2.51,1.9a3.4,3.4,0,0,0-1.66.67c-.49.8-.19,1.66-.2,2.49a4.35,4.35,0,0,1-.3,1.33C56.16,56.73,55.15,57.61,53.52,56.93Z" fill="#370b0e"/><path id="eye_lashes_left" d="M66.5,49.94c-1,2.05-3,2.33-4.83,3.07-.76.53-1.09,0-1.41-.56a2,2,0,0,1,.28-1.18c.36-.47.87-.85,1-1.48-1.15-1.44-2.87-.59-4.26-1C60.64,46.93,63.54,48.61,66.5,49.94Z" fill="#51171b"/><path id="eye_line_bottom_left" d="M56.59,53.86l4-1.84,1,1a4.19,4.19,0,0,0-.24.76L56.69,55C56.65,54.63,56.62,54.25,56.59,53.86Z" fill="#763139"/><path id="eye_line_top_left" d="M55.56,48.94c-.8,1.2-2,1-3.14.88C53.26,48.76,54.42,48.9,55.56,48.94Z" fill="#51171b"/><path id="eye_white_left" d="M58.13,53.48a3,3,0,0,1,.42-.16,4.35,4.35,0,0,1,1.14-.57,4.63,4.63,0,0,1,.94-.75l-.1-.15C60.65,49.69,59,50.7,58,50.42a4.7,4.7,0,0,0-1.44.22c-1.32,1.07-.57,2.14,0,3.21A4.64,4.64,0,0,1,58.13,53.48Z" fill="#d1acaa"/><path id="eye_white_shadow_left" d="M60.53,51.85c-.74-1.32-2.12-.81-3.21-1.11a.55.55,0,0,1,.56-.68l3.66-.27C62.83,51.28,61.66,51.55,60.53,51.85Z" fill="#bf9492"/><path id="brow_left" d="M59.76,37.79c-3.26-.49-6.52,1.93-10.17,2.82-.77.19-1.42.92-2.19,1.09-1.95.41-4.63,1-5.23-1.17-.43-1.54,2.33-1.22,3.69-1.6,4-1.1,7.7-3,11.92-3a17.69,17.69,0,0,1,3.93.31c.87.2,2.46.44,2.24,1.46-.28,1.27-1.6,0-2.46.2A9.43,9.43,0,0,1,59.76,37.79Z" fill="#801a20"/><path id="eye_right" d="M30.78,63a2.77,2.77,0,0,0,0,.91c-.23.54-.83.67-1.17,1.08l-.07.28c-1,.09-2,.5-2.9-.33-1-2-2.49-4,.06-6,.31-.5.59-.48.84,0v0c1.17.95,2.7.07,3.93.76,2,1.44-1.22,1.18-.71,2.14a.71.71,0,0,1,.27.73C30.93,62.84,30.86,63,30.78,63Z" fill="#261318"/><path id="eye_lashes_right" d="M29.58,65l1.17-1.08c1,.13,1.93.5,2.84-.21.65-.52,1-2,2.21-.64a1.12,1.12,0,0,1,.24.9c-.31,1-1.2.86-2,.87C32.55,64.83,31.06,64.91,29.58,65Z" fill="#4c0c11"/><path id="eye_white_right" d="M30.75,63.88c0-.38,0-2,0-2.4.54.2,3.21-.69,3.72.51C34.45,63.71,31.31,63.83,30.75,63.88Z" fill="#e1d3d0"/><path id="brow_right" d="M25.64,49.15V46.73c1.77-.16,3.22-3.61,4.25-2,1.19,1.83-1.82,2.89-3.39,3.94C26.22,48.83,25.92,49,25.64,49.15Z" fill="#881e23"/><path id="ear_curve_left" d="M110.55,51.89c3.38,4,2.22,10.49-2.25,12.55-1.23.57-2.16.52-2.7-1-.69-2,.39-4.27-1.3-6a1.68,1.68,0,0,1,.68-1c.35-.12,1.17.12,1.22.34a25.44,25.44,0,0,1,.38,2.91c.13,1.06-.49,2.66,1.13,2.84,1.19.13,2-1.11,2.58-2.09,1.7-2.77.87-5.64.27-8.5Z" fill="#b7464b"/><path id="hair" d="M87.16,38.51c6.31,1.08,12.1,3.66,17.74,6.63-.92.88-2.73,2-5.18,7.79a4.29,4.29,0,0,0-.18,1c-.9.47-1.58,2.92-2.82.42-.88-1.77-1.53-3.66-2.26-5.51C92.38,43.57,91.33,41,87.16,38.51ZM57,120.88c-1.6.14-3.27.25-4.69-.83-3.64-1.13-5.2-4.17-6.66-7.28-1.78-3.82-3.18-7.84-6-11.1-1-2.25-1.64-4.71-4-6l-.14,1.21a74,74,0,0,1-14,24c-.32.36-.65.71-1,1.06-.11,0-.21.12-.31.36s.07.42.46.57a88,88,0,0,1,22.68,10,1.78,1.78,0,0,0,.27-.77c3.61.35,7.14-1.66,10.78-.32l1.17-1.84a3.59,3.59,0,0,0,2-3h0c1.26-.59,1.17-2.15,2.11-3C59.67,122.13,59.38,120.68,57,120.88Zm69.07-64.63c.68-.73,1.17-1.34,2.36-.46,2.44,1.8,5.28,3,7.63,5h0a2.06,2.06,0,0,1,.47-.9,9.56,9.56,0,0,1,3.87,2.7c4,3.95,2.9,0,3.23-1.8-2-1.12-1.21-3.38-2.08-5-2.11-5.88-4.26-11.73-7.71-17-1.86-1.58-2.79-3.82-4.1-5.8-.73-.12-1.5-.19-1.05-1.26-1.88-4.26-5.1-7.4-8.61-10.3a8.18,8.18,0,0,0-1.2-.73c-.63-.36-1.27-.71-1.93-1a42.89,42.89,0,0,0-7.32-3c-7.32-1.77-14.59-3.58-22.25-4s-15,1.28-22.44,2l-5.09,1c-3.44.65-2.92,2.52-.72,4.38s4.74,3.62,6.4,6.17c4.55,5.39,9.57,10.1,16.77,11.71a36.41,36.41,0,0,1,4.83.52c-.39-.23-.81-.46-1.26-.7,1.95,1,3.54,1,6.59,1.53,4.21,1.39,4.78,2.17,13,4.88a2.06,2.06,0,0,1-.62.92c1.49.78,3,1.58,4.44,2.39a10.07,10.07,0,0,0,1.1.85,5.65,5.65,0,0,0,1.31.51,8.25,8.25,0,0,0,1.38.22c3.77.54,7.15,1.75,9.39,5,.94.74,1.88,1.48,2.81,2.23A2.82,2.82,0,0,0,126.07,56.25ZM96.13,13.45c4.55,1,9.12,1.87,13.53,3.26l2,.5c1.67.4,3.58,1.41,4-1.53A93.33,93.33,0,0,0,104.45,5c-1.38-.92-2.4-2.32-4-2.9a15.83,15.83,0,0,0-2.91-.42c-.5,0-1-.07-1.5-.06a13.19,13.19,0,0,0-1.54,0c-.38,0-.76,0-1.13-.05C92.5,0,91.09,0,89.42,0,84.16.14,78.91.07,73.66.08c-1.79,1.51-4,.48-6,1L67.39.71c-5.54.36-10.78,2-16,3.68a.73.73,0,0,0-.7.4L39.4,6.35a.66.66,0,0,0-.67.52c-10.19,6.16-15.66,15.3-17,27a11.23,11.23,0,0,0,1.94,9c.25.39.72.65.76,1.17a.7.7,0,0,0,1.11-.11c0-.65.07-1.29.11-1.94a36.47,36.47,0,0,1,5.74-15.32l.3-.66c0-.13.07-.25.1-.38,3-3.29,3.66-11.43,25.63-7.09.14-.33-.95-.67.56-2.47a26.75,26.75,0,0,1,5.4-1.18L65,14.75C75.25,12.79,85.54,11.11,96.13,13.45Zm55.51,87.49a82.94,82.94,0,0,0-8-40.13h0l0,0h0c.4,1.39,1.07,3-.21,4.06-1.65,1.35-2.51-.74-3.69-1.36A15.5,15.5,0,0,1,137,61.56c-.13-.21-.28-.42-.4-.65l-.47-.11h0l0,0c-3.53-.91-5.67-4.58-9.5-4.89.24.59.32,1.39.75,1.74a68,68,0,0,1,15.23,17.22,1.37,1.37,0,0,0-.18.16c-.06-.11-.13-.22-.2-.33-4.25-7.42-10.32-13.1-16.83-18.35a2.92,2.92,0,0,1-2.45-1.71c-.11-.19-.24-.34-.36-.52l-.83-.64c-1.75-1.35-4-2.28-5,1-.15,2.21-.05,4.42-.08,6.63a17.87,17.87,0,0,1-.4,4.61c.68,1,0,1.23-.78,1.32a2.67,2.67,0,0,0-.23,2.54c1.57,2.56,2.46,5.42,3.64,8.14,5.6,12.89,11.42,25.72,12.89,39.88q-2.56-9.85-5.14-19.7c-.37-.29-.63-.69-1-1a181,181,0,0,0-9-23l-1-1c0-.33,0-.66,0-1l-1.72-1.24-.27,2.21a.61.61,0,0,1-1,0h0l-1.1-1.06c-.3,0-.61.08-.91.1-.69,1.27-3.08.87-2.91,3-.09,0-.17.12-.24.35s0,.43.33.62c1.7,2.54.12,5.74,1.68,8.3l0,.48-.88,1.26c1,14.44-.83,28.69-2.82,42.93.43.81.81,1.67,2,1.47a.82.82,0,0,0-.14-.54l1,.28a.49.49,0,0,0,.55-.45s.33.17.33.17l-.27.25a.8.8,0,0,0,.46.62l1,.26c.52.58,1.38.37,2,.82a.82.82,0,0,0,.81.25,4.41,4.41,0,0,1,1.24.85,2,2,0,0,0,1.91,1.11c.59.54,1.56.32,2,1,.39.24.69.6,1.06.86l0,.06c.3.35.6.69.92,1h0c.56,1.36,1.86,1.8,3,2.45,5.62,1,11.19,2.47,17,1.76a2.46,2.46,0,0,0,1.12-2.18,4,4,0,0,1-2.05.61,6.36,6.36,0,0,0,2.05-.61c2-3.17,4.13-6.3,6.09-9.52,1.27-2.09,3.41-3.81,3.69-6.33C152.24,115.73,153.2,108.34,151.64,100.94Z" fill="#100102"/><path id="hair_lines" d="M83.56,3.9C77.08,6.64,70,7.82,64,11.75c-1.26.82-4,.86-3.39,2.68.46,1.34,2.58-.42,4-.67,14.57-2.55,29-3.3,43.41,1.31,2.4.77,5,3,7.71.61a3.33,3.33,0,0,1,2,1.82c.45,1.15.86,2.3-.12,3.4a96.28,96.28,0,0,0-22.66-6.32c-6.1-.82-12.13-1.59-18.44-.34-5.37,1.06-10.93,1.43-16.32,2.67-.61.14-1.68.21-1.74.49-.21,1,.86,1.17,1.48,1.67,2.52,2.07,5.49,3.73,6.57,7.13-.69.3-1.29.3-1.69-.46h0a11,11,0,0,1-4-2.84c-3.09-2.94-6.62-4.81-11-4.66-1.59-2.56-4-2.23-6-1.1-2.83,1.58-5.79,3.21-7.29,6.4-1.14,1.59-2.14,3.43-4.63,2.57-1.38-1.43-.49-2.76.28-4,2.79-4.43,6.81-8.14,11.47-9.58,3.88-1.19.44-2.51,1-3.5a2.27,2.27,0,0,1,1.87-.9A6,6,0,0,1,49.13,9a18,18,0,0,1,3,2.6c1.38,1.2,2.64,1.24,3.76-.35,1.53-2.19,3.8-3.7,5.3-5.9a12.79,12.79,0,0,1,.9-1,10.12,10.12,0,0,1,1-1A3.7,3.7,0,0,1,65,2.48,2.07,2.07,0,0,1,66.21,3c1.36,1.84,0,3.06-1,4.33a18.37,18.37,0,0,1-2,1.69c.74-.34,1.31-1,2.07-1.28,5.52-2.13,10.64-5.58,16.92-5.31A1.86,1.86,0,0,1,83.56,3.9Zm-.7,32.91c-.48,2.49,24.19,9.53,27.71,10C104.6,42.08,93.08,34.42,82.86,36.81Zm-54-8.49C26.7,32.62,24.63,37,25.63,42l1.95-5.12c.85-.86.12-2.18.88-3.07l-.05-.05c-.09-3.08,2.05-5.24,3.25-7.79C29.92,25.79,29.43,27.16,28.85,28.32ZM115.6,63.93a6.75,6.75,0,0,0-1.89,3.33c.09,1.94-2.15,2.74-2.25,4.58A1.94,1.94,0,0,0,112,72.9a2,2,0,0,0,1.1.41,1.56,1.56,0,0,0,.94-.58c.29-1.08,1.83-.23,2.07-1.36a3.65,3.65,0,0,0-.51-2.47,2,2,0,0,1,1-2h0a7.4,7.4,0,0,0,.89-5.22l-1.86,2.25ZM122.05,55c7.45,6.06,14.56,12.47,19.51,20.88a.66.66,0,0,0,1,0c0-.34,0-.68,0-1,.66-1.92-.74-3.13-1.65-4.42a62.85,62.85,0,0,0-13.7-14.35l-.66-.23c-1,0-2.12-.27-2.51-1.27-2.06-5.28-6.64-6.16-11.44-6.74-.66,2,1.56,1.11,2,2,2.19.52,1.47,3,2.82,4.12C119.48,52,120.84,54,122.05,55Zm5.43-1.08c-.6-.43-1.59-1.32-2.12-.51-.26.4.76,1.63,1.2,2.48h0C130,57.36,147,71,145,65.21c0-.34-1.21-3.75-1.21-4.09C141.24,58.45,130.43,56,127.48,53.93ZM115.17,73.19a10.4,10.4,0,0,0,.72,2c3.24,7.17,5.81,14.6,8.73,21.88.26.7.46,1.42.68,2.13a114.69,114.69,0,0,1,4.37,17.25c.28,1.75.2,4.13,2.89,4.49h0c1-3.46,0-6.8-.59-10.14-1.66-9.1-5.08-17.67-8.74-26-2.33-5.35-3.74-11.22-7.66-15.82l0,3A1.45,1.45,0,0,0,115.17,73.19Zm29.4,8.71a2,2,0,0,0-1-2A1.94,1.94,0,0,0,144.57,81.9Zm-99,35h0c-.32-.34-.69-.64-1-1h0c-2.44,3.36-5,6.68-7.27,10.14-.42.62.68.77,1.27.85,2.34-2.67,3.73-6.15,7-8A1.35,1.35,0,0,0,45.56,116.91Zm1-108,2,1c.47-.83,1.1-.87,1.94-.54,2.24.89,1.34-.52,1-1.47C49.56,6.62,48,7.21,46.57,8.91Zm0,110c.09,0,.18-.11.28-.32s0-.44-.28-.66-.67-.67-1-1c0,.66,0,1.33,0,2Zm0,0a.6.6,0,0,0,.94,0l-.94-1v1Zm1,1c0-.33,0-.67,0-1h-.94Z" fill="#1c0f10"/></g></g></svg>
