<svg xmlns="http://www.w3.org/2000/svg" viewBox="0 0 153.12 158.65"><defs></defs><title>full_5</title><g id="poca"><g id="_5" data-name="5"><path id="shoulder_left" d="M118.41,137.15c1.44-.21,2.57.67,3.81,1.14,4.58,4.54,8.66,9.35,8.76,16.3.44.75-2.86,1.9.26,2.38.49.86.28,1.4-.72,1.57-4,0-8,0-12,0-4.27-.46-5.45-4.35-7.77-7a8.83,8.83,0,0,0-1.38-2.76c-.28-.28-.54-.58-.8-.88-.55-.59-1.14-1.15-1.65-1.78a8.48,8.48,0,0,1-.67-1.08c-.58-1.16-1.55-2.14-1.77-3.49.69-5.71,1-6,5.34-5.37C112.67,136.47,115.43,137.79,118.41,137.15Z" fill="#cd5f61"/><path id="shirt_dark_left" d="M130.37,155.05c-.46-6.68-5.35-11.21-8.15-16.76l11.1,2.71c.55.65,1.5.52,2.1,1.07l0-.07c.51.69,1.46.52,2.06,1l-.07,0c.51.68,1.47.51,2,1.07l0-.06c.51.67,1.46.5,2,1h-.06a6.37,6.37,0,0,1,1.27,1.84c1.74,2.76,2.72,5.92,4.64,8.61.75,1,1.26,2.46-.73,3.06H133.77c-.84-.06-1.77.2-2.4-.64l-.93-.85A1.29,1.29,0,0,1,130.37,155.05Z" fill="#fbac89"/><path id="shirt_light_left" d="M147.37,157.9a45.53,45.53,0,0,1-6-11c2.67-1.13,3.24,1.7,4.85,2.58a6.51,6.51,0,0,1,1.17.61l-.07-.05c.43.46,1.06.68,1.46,1.18a5.86,5.86,0,0,1,.56,1.12c.49,1.11.6,2.51,2.15,2.8a5.37,5.37,0,0,1,1.6,3.06C151.18,158.67,149.24,159,147.37,157.9Z" fill="#f6b8b0"/><path id="shoulder_right" d="M13.34,138.07c4.35.83,7.8,3.61,11.6,5.58,2.81,1.46,5.84,2.33,8.61,3.83a10.38,10.38,0,0,1-.17,10.8c-5.31.6-10.65.11-16,.27-5.62-.28-11.27.6-16.87-.47q0-11,0-22C5,135.55,9.16,136.83,13.34,138.07Z" fill="#cc5e61"/><path id="neck" d="M99.57,152c-.4.49-.85.95-1.27,1.43.38-.84.72-1.7,1.08-2.55a3.53,3.53,0,0,0,.74-2.31c-1-1,.36-1.65.85-2.73,1.48-3.24,2.91-6.5,4.36-9.76-.92-.92-1.83-.4-2.7.06a59.35,59.35,0,0,0-8.12,4.78c-6.42,4.78-16.94,3.05-21.81-3.26-2.43-3.15-4.94-6.26-7.23-9.47-1.94-2.73-5.32-4.66-5.47-8.55A6.79,6.79,0,0,0,59,118c-1.75-2-2.65-6.43-5.24-5.55-2.07.7-.81,5-.45,7.67.07,5.27.21,10.54.18,15.8,0,5.05-1.75,9.35-6.07,12.32,1.21,3.11,2.28,6.25,2.13,9.66l6.8.39H66.39l28.91-.38a10.13,10.13,0,0,0,1.7-2,3.56,3.56,0,0,0,.41,2.08l3.91.31,2-.36C101.83,156.05,101.6,153.46,99.57,152Z" fill="#cc5e61"/><path id="necklace_left" d="M101,149c.47-.8.94-1.6,1.42-2.4.52-.34.43-.92.54-1.41.32-.8.69-2.63,1.64-3,1.08.55,1.88,2,2.69,3a8.13,8.13,0,0,1,.13.84,9.58,9.58,0,0,0,2,2.05h0a10.5,10.5,0,0,0,1.87,2.12l5.9,7.8-13.91-.06c-2.29-1.17-3.26-3.38-4.33-5.52a3.34,3.34,0,0,1-.18-1.29C99,149.75,100.11,149.5,101,149Z" fill="#5889a2"/><path id="necklace_right" d="M43.29,148.14c1.35,1.29,2.75-.35,4.11.06,3.18,2.67,4.3,5.8,2.13,9.66l-12.05.37-4.07-.3q.06-5.24.14-10.45C36.8,147.68,40,148.54,43.29,148.14Z" fill="#5a889f"/><path id="face" d="M138.19,83.19c-1.55-.56-2,1.29-2.72,2.33-.44.62-.53,2-1.44,1.63-.72-.3-1.22-1.61-1.33-2.45-.15-1.1,1.27-1.83,1.43-3a5,5,0,0,0-.17-2.86c-.09-.13-.16-.26-.24-.4,1.6-7.4-1.58-14.3-2.53-21.44-.74-1.31,0-2.88-.73-4.19A5.74,5.74,0,0,0,129.09,48c-.26-.6-.21-1.31-.7-1.82-.45-1.39-.91-2.78-1.36-4.17,0,0-.06-.08-.08-.12l0-1c0-1.51-.86-2.64-1.62-3.82l0,0c-1.66-2-3.33-4-5-6-2.4-3.61-6.71-3.19-10.08-4.75a8.72,8.72,0,0,0-3.41-.2l-.67.12c-6.59-1.18-12.55,1.84-18.81,2.87l-21.82,12a3.2,3.2,0,0,0-1.14,1h0A13.69,13.69,0,0,0,61.5,46.3c-.92,2.29-2,4.52-3,6.74-2.28,4.72-5.26,9.19-5.36,14.71-.21,2.53.79,5.24-1.14,7.51h0c.24-.65.28-1.47.47-2.11a11.22,11.22,0,0,0,.19-3.43,19.92,19.92,0,0,0-2.37-8.6c-.77-.9-1.09-2.46-2.84-1.88l-1.92,1.87C42.44,69,45,76.6,47,84.08c1.19,4.37,3.73,8.27,3.49,13.16-.13,2.74-.7,5.65.36,8.41C57.22,118,67,127.52,77.16,136.6c.6.38,1.21.75,1.83,1.08a11.39,11.39,0,0,0,1.26.63,13.75,13.75,0,0,0,11.12.79,54.61,54.61,0,0,0,9.8-4.88c.55-.39,1.11-.75,1.68-1.1.38-.2.77-.4,1.14-.62a33.18,33.18,0,0,0,3.41-1.88,5.84,5.84,0,0,1,2.07-1.48,27,27,0,0,0,13.84-17.89c.81-3.18,2.35-6.18,3.58-9.25.3-.75.52-1.9,1.07-2.12,6.21-2.47,7.8-8.45,10.51-13.58C138.87,85.19,139.36,83.61,138.19,83.19Z" fill="#cc5e61"/><path id="neckline_left" d="M103.77,145.55l1-2a6.67,6.67,0,0,1,.61-1.49c.67-2.19-.69-6,4-5a1.9,1.9,0,0,0-.62-1.81c-2.69-2.41.08-4.14.75-6.13a2,2,0,0,0-2.17.9c-2.14,1.31-2.26,3.72-3.09,5.73-1,2.61-2.75,4.88-3.51,7.6-.39,1.39-1.37,2.78-1.09,4.19-2,2.89-4.22,7.86-4.31,10.3l2.11.06L99.57,152l1.88-2.87Z" fill="#ac4448"/><path id="neck_shadow" d="M105.33,136.08c-5.92,2-10.18,7-16.24,8.85-4.27,1.28-14.37-2.33-16.91-5.9a175.06,175.06,0,0,0-11.81-15.14c-1.29-1.44-1.1-2.44-1-3.82,5.19,2.47,8,7.54,12.15,11.15,2.62,2.28,4.77,5.11,8.17,6.38,9.48,4.9,16.53-.51,23.67-5.57a5.79,5.79,0,0,1,4-2Z" fill="#c45255"/><path id="jawline" d="M103.34,132c-.32,0-.64.05-1,.05-.31.36-.7.63-1,.95-6.91,3.63-13.66,8.15-22,4v0a11.58,11.58,0,0,1-1-1c-1.24-1.07-2.52-2.11-3.73-3.23-8.58-8-16.5-16.53-22.45-26.71.63,4.63-.82,9.43,1.12,14,1.16-2.32-1.08-5,.68-7.23a24.48,24.48,0,0,1,5,6.35c.15.28.28.58.42.87,2.25,2.4,4.28,5.06,6.78,7.15,4.38,3.65,7.2,9.22,13.23,10.84,7.69,3.82,18.13,1.75,24.23-4.82C104,132.82,103.82,132.35,103.34,132Z" fill="#b23f44"/><path id="lips" d="M89.69,115.74a19,19,0,0,1-2.61-.24c.91,0,2,.38,2.52-.78a2,2,0,0,0-.72-1.17c-1.81-1-3.73-.76-5.66-.48-.83-.46-2.67,1.84-2.65-.94a1.88,1.88,0,0,0,.1-1c2.5.27,5,.82,7.47,1.07a10.46,10.46,0,0,1,2.49.29c.38.12.76.24,1.16.34.56.15,1.12.28,1.69.4,1.09.17,1.43,1.1,1.92,1.88,2.86,1,3.32-1.13,4-3C95.53,102,88,99.27,80.16,106.36c-1,.86-2.33,1.32-2.81,2.69-1.93.2-3.09,1.06-2.79,3.2.63,4.47,5.27,9.61,9.56,10.58,9.47,2.17,9.47,2.17,14.22-4.78a10.25,10.25,0,0,0-4.72-2.33A9.3,9.3,0,0,1,89.69,115.74Z" fill="#c23b48"/><path id="lips_shadow_bottom" d="M95.36,114.24c2.62,1.66,2.19-2.32,4-2.17,2.45,2.47,1.45,4.35-1,6a5,5,0,0,1-5-2c-1,.3-1.22-.23-1.25-1a2.55,2.55,0,0,1,1.46-1.47A1.52,1.52,0,0,1,95.36,114.24Z" fill="#b23944"/><path id="lips_shadow_top" d="M81.37,112.06l1,2c-2.21,2.34-3.43-.12-3.92-1.31s1.42-.38,2.12-.84A1.35,1.35,0,0,1,81.37,112.06Z" fill="#9f3136"/><path id="lips_highlight_bottom" d="M92.31,115.19l1,.9c-2.63,2.29-5.13-.74-7.78-.33-.41.06.57-.62.92-.66a26.71,26.71,0,0,1,3-.08A1.93,1.93,0,0,1,92.31,115.19Z" fill="#cb4467"/><path id="mouth" d="M92.09,113.43c-.76.22-1.74-.18-2.48.17l-.23-.29c-2.65-.53-5.24-1.44-8-1.25-.57,1.11.1,1.61,1,2h6.89c0,.31.14.7.18,1l2.88.17,1-1A2,2,0,0,0,92.09,113.43Z" fill="#76151a"/><path id="teeth" d="M93.27,112.19h0l-1.85-.2h0v0a2,2,0,0,0-2-.77c-3.13,0-6.22-2.19-9.39-.18l.54.86a2.11,2.11,0,0,0,1.13,1c2.51.14,5,.54,7.47.79a2.52,2.52,0,0,0,2.18-.31,1.7,1.7,0,0,0,.1-.14.4.4,0,0,0,.53.15.62.62,0,0,0,.4.61,5.66,5.66,0,0,1,.9.23l2.09,0C96.11,112.08,94.57,112.26,93.27,112.19Z" fill="#e7a3a3"/><path id="nostril_right" d="M87.22,96.7c-.54,1.13-1.16.67-1.67.41-.81-.42-2-.71-1.45-2,.25-.62,1.08-1,1.59-.59A10.27,10.27,0,0,1,87.22,96.7Z" fill="#b04247"/><path id="nostril_left" d="M95.64,97.15c0,1.39-1.44.77-2.09,1.31-.44.36-1.44.69-1.47-.12,0-1,1-1.63,1.9-2C94.63,96.11,95.21,96.47,95.64,97.15Z" fill="#b9484c"/><path id="eye_left" d="M125.34,73.8c-1.65,1.77-3.86,2.57-6,3.52a10.79,10.79,0,0,1-9.92-1.56c-.79-.55-1.76-1.43-1.36-2.43.3-.75,1.51-.5,2.28-.3,4,1.08,7.91-.15,11.86-.06.65-.44,1.49-.3,2.15-.73a2.26,2.26,0,0,1,1-.19c1.07-.45,1.19.07,1,.94l0,0A2,2,0,0,1,125.34,73.8Z" fill="#360d0f"/><path id="eye_lashes_left" d="M126.3,73l-1-.94c.74-1.09,1.88-.83,2.94-.88v-.06c.26.2.35.4.27.61s-.15.32-.24.32l0,0a11.12,11.12,0,0,1-1,1Z" fill="#5f1518"/><path id="eye_lid_top_left" d="M117.89,63.6c4.08-.82,6.31.67,7.37,3.89.16.52-.24,1.22-.38,1.83-.39-.24-1-.39-1.14-.72-1.85-5-5.46-3.54-9-2.55-.87.24-2.12,1.35-2.67.36-.81-1.46,1.22-1.52,1.84-2.35C115.17,62.35,117.14,64.52,117.89,63.6Z" fill="#c24d52"/><path id="brow_left" d="M127.23,57.11l-3.87-3c-4.37-2.53-9.56-2.63-14.11-4.75-1.13-.52-3.78-1.56-3.94-.62-.27,1.65,1.4,3.19,3.25,3.87a4.47,4.47,0,0,0,1.45.36c4.22-.07,8.11,1.52,12.16,2.33,1.63,1.23,2.81,3.31,5.35,2.81Z" fill="#7e1b20"/><path id="eye_right" d="M70.35,71.11l-2-.06a2.46,2.46,0,0,0-1.27-.85,2.64,2.64,0,0,1-2.3-1.61c-.62-1.93-3.48-3.58-2-5.45.66-.84,3,1.73,4.63,2.61,2,1.07,4,2.23,6,3.35a2,2,0,0,0,1.3.79.82.82,0,0,1,.68.23c.11.91-.18,1.38-1.18,1.07l-1.84-.27A1.37,1.37,0,0,0,70.35,71.11Z" fill="#2e080a"/><path id="eye_lashes_right" d="M74.17,71.19l1.18-1.07a3.73,3.73,0,0,1,3.4,1.36c.06.07-.43.76-.77.88C76.45,72.92,74.8,73.63,74.17,71.19Z" fill="#460f11"/><path id="eye_line_bottom_right" d="M70.35,71.11c.57-1,1.22-1.17,2-.19Z" fill="#460f11"/><path id="brow_right" d="M72.62,42.63c4.22,1.09,8.54,2.18,12.84,3.31.58.16,1.39.19,1.38,1.1s-.74,1-1.29,1.31c-2,1.2-3.93,0-5.65-.71a42,42,0,0,0-9-2.59c-.87-.16-2.41.64-2.48-.47s1.65-1.3,2.65-1.75A5.72,5.72,0,0,1,72.62,42.63Z" fill="#80191e"/><path id="ear_curve_left" d="M133.3,82.07c3,1.34,2.38-2.58,4.21-3,3.35-.5,2.19,1.69,2,3.32,0,1.37.11,2.79-1,3.88-.06-.65.12-1.56-.23-1.91-1.16-1.15-1.15.44-1.4.86-.57,1-.77,2.17-1.39,3.08s-1.47,2-2.82,1.25.1-1.88-.1-2.38C131.77,85.24,130.71,83.47,133.3,82.07Z" fill="#be5457"/><path id="ear_curve_right" d="M54.21,68l-1.8,3v.19l-.08-.09-.93-1.07a9.06,9.06,0,0,1-.07,1.48c-.26,1.33.8,3.51-1,3.78-1.57.24-.72-2.11-1.45-3.12a14.48,14.48,0,0,1-1-2.13c-1,.67-.4,1.68-.51,2.53a6,6,0,0,0,.91,4.25c.87,1.25.78,3.8,2.81,3.45,1.79-.32-.32-2.72,1-3.85.28-.25.19-.94.27-1.42l.14-.19c.83.24,1.84.81,1.85-.81C54.35,72,54.26,70,54.21,68Z" fill="#bf5153"/><path id="hair" d="M146.76,50.36c.29-9.68-4.47-16.92-9.23-24.41-2.16-2-3.92-2.25-5.31-.69a8.57,8.57,0,0,0-1-5.72C127,12.62,121.11,7.46,114.36,3.16c-2.65-1.35-5.29-2.84-8.32-3A56.52,56.52,0,0,0,81.22,3.77c-.28,1,0,1.54.56,1.84A29,29,0,0,0,68.3,9.45C60,14,53.89,20.82,48,27.91L47.36,29c-.7,3.85-3.39,6.74-4.93,10.19-6,13.41-11,27.22-17,40.62a17.6,17.6,0,0,0-.65,2.14,3,3,0,0,0,.34,2.13,1.85,1.85,0,0,0,1.36.36l.63-.33L11.3,108.72c-3.11,5-5.05,10.81-9.28,15.17-2.59,2.34-2.2,5.23-1.49,8.18,0,.63,0,1.26,0,1.89C4,137.39,9,136.81,13,139c7,2.84,13.15,7.36,20.48,9.4a18.78,18.78,0,0,0,9.11.81c2.8-1.39,6-2.33,6.49-6.17.22-.39.47-.76.71-1.14.94-1.29,3-1.91,2.89-3.8-.5-7.68.5-15.44-1.16-23.05a13.06,13.06,0,0,0-.66-1.29c-.69-2-.13-3.95-.07-5.93.18-7.13.51-14.27-2.36-21.08-.63-1.49-1.38-2.71-3.12-2.78a1.74,1.74,0,0,0-.87.16c1.1-5.84,1.35-11.75-.51-17.66-.64-2,.14-3.17,1.74-4.1a7.9,7.9,0,0,0,2.49-2.65c.25-.41.53-.81.79-1.21a17.06,17.06,0,0,1,.4,2.63c.48,3,2.4,5.76,2.06,9,.4.49.57,1.22,1.37,1.27,1.76-.57.61-2.37,1.41-3.34-.25-3.08,1.33-5.63,2.36-8.36,1.71-4.56,4.92-8.43,6-13.27-.59-1.07-1.19-.58-2-.13-1,.58-1.93,1.18-2.81,1.79a60.63,60.63,0,0,1,6.16-5c.43-.16.86-.33,1.28-.51s.87-.33,1.3-.53c7.07-4.4,14.59-8,21.81-12.13a53.4,53.4,0,0,1,18.8-5.46,3,3,0,0,0-1,1.79l.08-.06c.93.66,2.22,0,3.11.84l11,4.05c2.14-2.43.39-4.26-1.45-5a27.48,27.48,0,0,0-4.31-1.41c.7.08,1.41.18,2.12.31,2.84.52,5.74.76,6,4.64,0,.8.57,1.64,1.64,1.42A2.32,2.32,0,0,0,126,29.36c0,.38,0,.77,0,1.17-.11,1.61.82,2,2.2,1.17-.91,1.73-1.23,3.83-3.18,4.88a3.3,3.3,0,0,0,.27,1.38q.45,1.07.93,2.13l.24.91c0,.21,0,.41,0,.61a10.13,10.13,0,0,0,.06,1.23,20.54,20.54,0,0,0,1.28,3.49,6.54,6.54,0,0,1,.78,2.43c.51,1.52.86,3.09,1.39,4.6a12.26,12.26,0,0,1,.36,4.43c1,7.15,2.44,14.22,3.29,21.38-.08,1-.17,1.94-.26,2.9L130,97a17.05,17.05,0,0,0-6.14,9.24c-2.83,9-6.56,17.38-15.23,22.41-1.27,2.09-3.43,4.06-.85,6.64a2.72,2.72,0,0,0,2.64-1.18c11.74-4.82,22.15-11,26.14-24.25a11.21,11.21,0,0,1,1.53-2.55c5.28-8.31,6.05-18,8.11-27.24C148.07,70.21,146.46,60.26,146.76,50.36Z" fill="#110001"/><path id="hair_lines" d="M137.53,26c-2.52-1.08-4.45-.85-5.59,2.07a20.48,20.48,0,0,1-2.42,3.68,3.67,3.67,0,0,1-.9,1.14c-2.91,1.8,4.92.74.7,2.54-1.32.56-3.29-.45-4,1.71-3.24-.67-4.08-3.55-5.49-5.92-1-4.28-6.94-6.94-12.07-5.36-.77.23-1.41.81-2.19,1.1-4.55.67-9.16.92-13.53,2.6-1.51.58-3.23.87-4.69-.4a46.93,46.93,0,0,1,28.46-5.73,29.51,29.51,0,0,1,4.39.81c1.81.51,3.43,1.31,3.62,3.56.08.84-1.46,2.52.66,2.3,1.1-.12,1-2,.7-3.1-.86-3.41-4.56-4.75-5.83-7.88-2.65.46-4.42-1.45-6.2-2.71-6.08-4.33-12.84-3.48-19.5-2.81-3.9.39-7.7,1.67-11.57,2.47a5.19,5.19,0,0,1-1.88-.35,9.57,9.57,0,0,1,1.68-.87c5.4-1.51,10.81-3,16.52-2.75,1.36.07,2.91.26,2-2a16.33,16.33,0,0,1-8.28-1.32c-13.34-5.21-23.85.18-33.47,8.69-3.08,2.71-6.4,5.37-8.17,9.31A2.08,2.08,0,0,1,48,27.91c5.42-10.18,14-16.85,24.32-21.4,2.83-1.25,6-1.84,8.94-2.74,4.5,2.3,9.76,2,14.3,4.2,1.58.76,3.52.7,4.83,2.09,7,1.66,13.83,3.56,19,9,.8-.46,4,2.12,2.13-1.74-.69-1.43-2.25-2.41-2.14-4.24a1.94,1.94,0,0,1-1-2c-2.37-.3-2.84-2.36-3.68-4-.13-.26.42-.5.73-.23,1.38,1.14,2.93,2.17,3,4.26a2,2,0,0,1,1,2c4.85,4.37,7.15,10,7.71,16.34,0,.59-.89,1.39-.24,1.78.87.53,1.37-.5,1.85-1.07,4.2-5,3.9-8.87-1.12-14.31A146,146,0,0,0,114.36,3.16a35.43,35.43,0,0,1,15.73,13C132.39,19.62,134.31,23.26,137.53,26ZM57.91,46.55c-4.16,3.56-8.47,7.26-10.5,12.69l1.94,1.85c3.88-5.37,7.22-11.23,13.21-14.72a5.13,5.13,0,0,0,1.87-4.24C60.66,41.13,59.8,44.92,57.91,46.55ZM33.36,76.07c0,4.31-4,6-6,9l-1-1,7-8c.69-3.7,4.58-5.1,6-8.3a.7.7,0,0,1,1.21-.1c.14.24-.25.84-.47,1.23A21,21,0,0,1,33.36,76.07Zm18.81,30.06a7.79,7.79,0,0,1-.68-2.33c.28-7-.18-13.52-3.47-20.17-3.39-6.85-3.28-14.82-2.53-22.52-2.26.8-4.78,2.34-4,4.68,1.76,5.64,2.65,10.1,1.95,14.56a309.33,309.33,0,0,1-8,35.72c.32,1.8-.93,3.28-1,5a3,3,0,0,0,2-3c1-.57,1-1.65,1.28-2.59Q41,101.23,44.35,87c.17-.73-.3-1.81.75-2.08.85-.21,2,.45,1.92,1.14-.54,3.22,2.35,5.36,2.36,8.39,0,5.58.56,11.18-.23,16.73-.24,1.66-.16,2.91,1.21,3.93a3.41,3.41,0,0,0,.49-2.31c0,.81.16,1.64-.49,2.31,1.81,5.42.48,11,.93,16.54.3,3.72,1.05,7.82-2.93,10.46h0a9.19,9.19,0,0,1-5.07,6.07c1.33,3.06,3.32.92,5.06.63a12.67,12.67,0,0,0,6.29-10.61,99,99,0,0,0-.28-18.22C52.94,115.44,54.8,110.43,52.17,106.13ZM33,126.69c-1.78,3.42-4.8,5.87-7.16,8.85-.72.92-1.8.51-2.47-.48,3.9-2.53,6.48-6.25,9-10C33,125.43,33.34,126,33,126.69Z" fill="#1b1416"/></g></g></svg>
