<svg xmlns="http://www.w3.org/2000/svg" viewBox="0 0 166.62 164.89"><defs></defs><title>full_18</title><g id="poca"><g id="_18" data-name="18"><path id="shoulder_left" d="M129.36,141.06c4,.3,7.91,2.83,12.11.87a2.47,2.47,0,0,1,.75,1.22,52.3,52.3,0,0,1,3.17,15.44c.17,2.31.43,4.69-1.92,6.25l-10-.06a11.47,11.47,0,0,1-.95-1c-2.42-3-2.1-7.07-4-10.26a9.44,9.44,0,0,0-1.64-3.74,9,9,0,0,1-.66-2.86c-.07-1-5.8-6.5-6.07-7.43C119,135.62,126.41,140,129.36,141.06Z" fill="#cb5f60"/><path id="shoulder_shadow_left" d="M143.47,164.84c.25-13.83-2.27-19.28-4.34-22.14l.74-.12c1.17,1,3-.33,4,1l3,1.9c-1.87,0-4.34-.53-2.43,2.77C145,149.31,143.52,163.72,143.47,164.84Z" fill="#b54449"/><path id="shirt_dark_left" d="M143.47,164.84c1.47-6.64.48-13-2-19.24-.39-.95-1.11-1.69,0-2.54a.83.83,0,0,1,1.08-.36,5.7,5.7,0,0,0,2.26,1.18,6.33,6.33,0,0,0,2.28,1.13,2.24,2.24,0,0,1,2.33.87c.28,1.28,1.57,1.49,2.36,2.23.21.26-.3,1.63.82.53a2,2,0,0,1,1.09.16,19,19,0,0,0,1.91,1.19l0,0c.22.24.44.48.64.73s.43.5.63.76c0,0,.32.38.33.38.25.24.48.49.72.75s.25.25.39.37.55.52.82.79.27.3.41.44a6.14,6.14,0,0,1,.72,1,7.81,7.81,0,0,1,.54,1.22c.88,3,1.78,6-1.27,8.43Z" fill="#fbac86"/><path id="shirt_light_left" d="M159.49,164.86c1.83-3.28.49-6.57.06-9.86a1.26,1.26,0,0,1,1.94.07c2.13,1.37,3.2,3.5,4.07,5.76.65,1.28,1.3,2.55,1,4.06Z" fill="#f7b7a9"/><path id="shoulder_right" d="M43.46,164c-13.22,0-26.44,0-39.66.1-2.63,0-3.52-.89-3.37-3.4.13-2.14,0-4.29,0-6.44-.8-3.86-.15-7.77-.36-11.65V131.75c0-.78,0-1.57.06-2.35a3.57,3.57,0,0,1,2.26-1.88,37.54,37.54,0,0,1,8.84-4c2,.08,4-.83,6.1-.43a18.9,18.9,0,0,0,6.08.69c7,1.05,12.37,5.69,18.58,8.49a5.1,5.1,0,0,1,2.3,2.2c1,4.05-2,7.54-1.43,11.66.53,3.91-.05,7.92,1.51,11.76A5.36,5.36,0,0,1,43.46,164Z" fill="#cc5e61"/><path id="neck" d="M108.73,164.67c-11.66.31-23.31,0-35-.57-4.38-1.74-9.48-1-13.49-4a6.17,6.17,0,0,1-1.56-1.58c-.83-1.45-2-2.72-2.28-4.46a10,10,0,0,0-1.69-4.55c.19-3.69-2.59-6.65-2.53-10.31,0-2,0-4,1-5.76,1-1.54,2.45-2.79,3.52-4.31a9.62,9.62,0,0,1,.92-1c.83-.76,1.51-1.66,2.36-2.39a5.14,5.14,0,0,1,1.23-.64c5.4-.79,9.4-3.36,13.43-7.36,6.4-6.34,13.16-12.41,19.79-18.55a7.75,7.75,0,0,1,1-.89,12.71,12.71,0,0,0,4.17-4.08c2.08-2.89,5-5.12,6.44-8.49.68-1.34.22-2.93.94-4.26.61-.86,1-2,2.48-1.46a3.24,3.24,0,0,1,1.15,2.14c1.14,15.33,2.06,30.65-.93,45.88-.83,3.67-2.37,7.19-2.35,11a2.45,2.45,0,0,1-.26.95c.3-.23.22-.59.29-.9.32-1.53-.36-3.41,1.52-4.41,3.08.27,4.43,2.64,5.48,5,1.94,4.31,5,8.06,6.28,12.69a15.2,15.2,0,0,1-.35,6,7.8,7.8,0,0,1-2.34,2.76c-2.45,1.63-5.45,1.83-8,3.09A7.68,7.68,0,0,1,108.73,164.67Z" fill="#cc5e61"/><path id="necklace_left" d="M133.25,164c-4.77.36-7.79-3.35-11.69-5-2.14-1.9.08-5.08-2-7-3.48-5.57-5.16-12.23-10.13-16.91a2.46,2.46,0,0,1-.59-1.13,2.31,2.31,0,0,1,.62-1.77,1.44,1.44,0,0,0,.09-.58c4.57,1.21,9,2.7,12.1,6.58,3.33,2,3.93,5.9,5.91,8.83l.15,2.81c.79,1,.85,2.33,1.82,3.18C131.69,156.38,131.91,160.4,133.25,164Z" fill="#5889a1"/><path id="necklace_right" d="M43.46,164c.46-5.6-2.31-10.74-2.09-16.46.18-4.55,1.5-8.71,2.13-13.06,3.56-3.65,6.93-3.94,11-.94-1.28,3.65-1.83,7.1.56,10.74.92,1.41.36,3.79.48,5.73,1.26,1.09.62,3,1.87,4.11,0,1.7,2.39,2.12,2,4-2.93,2.65-6.87,3.58-10,5.89Z" fill="#578aa2"/><path id="face" d="M115.43,55.08c0-.32,0-.63,0-1v0c-.87-.92.41-2.78-1.43-3.28l-.13.08a1.82,1.82,0,0,0-.15-.23c.52-1.53-.15-2.11-1.73-2l-.16-.17,0,0,0-.06a3.91,3.91,0,0,0-.54-2.11c-.9-1.21-1.8-2.43-3.6-1.47l0,0a.21.21,0,0,0,0-.06l.15-.21c-.09-.19-.19-.37-.28-.56L104,42.33c-1.66-.83-2.35-.18-2.46,1.34a3.76,3.76,0,0,0-.34.35l-.61.07a3.7,3.7,0,0,1,0,1.41,5.78,5.78,0,0,1-2,3.07c-1.26,1.59-2.25,2-3.55-.18-1.86-3.2-3.26-6.77-6.35-9.13-4.53-2.83-9.74-4-14.57-6.17l-.16,0a2.51,2.51,0,0,0-.1-.44A125.38,125.38,0,0,0,60.85,21.49c-2.2-1.19-4.38-2.39-6.68-3.37l-.69,0c-2.3-.71-4.64-.28-7-.27C41.2,20.13,35.65,22,31,25.59A11.49,11.49,0,0,1,28.8,26c-2.71.73-4.1,2.66-4.79,5.25a122.67,122.67,0,0,0-3.54,17.1c.1.83.12,1.79.84,2.26,1.42.93,1.46.86-.1,2.46a1.91,1.91,0,0,0-.37.91.76.76,0,0,0,.59,1,.77.77,0,0,1,.29,1.05.79.79,0,0,0,.68.93,2.29,2.29,0,0,1,1,1.44c.05,1.07.09,2.13.13,3.19.16.9.86,1,1.58,1.07,2.23-.21,5-.95,6,1.55.49,1.25-2.26,1.23-3.42,2a6.25,6.25,0,0,0-2.53,1.84c-1.4,3.39-.1,6.7.31,10,1.35,1.4,1.19,3.39,2,5l0,0a43.6,43.6,0,0,1,3.65,5.29c.78,1.57,2,2.91,2.4,4.68,1.63.67,1.82,2.28,2.39,3.65,1.63,5.16,5.37,8.92,8.68,13,1.91,3.37,4.38,6.38,6.45,9.64a7.76,7.76,0,0,0,2.75,2.37,7,7,0,0,0,2.17.53c7.6,0,14-3.18,19.63-8,2-1.49,3.45-3.61,5.32-5.27l.52-.42c.37-.27.73-.52,1.09-.8,4.67-3.69,9.26-7.48,14-11.14,4.46-3.8,9.76-7,10.34-13.71a23.19,23.19,0,0,0-.81-7.42c-1-3.37.38-4.93,3.76-5A6.07,6.07,0,0,0,112.55,67a34.69,34.69,0,0,1,1.22-3.74A18.66,18.66,0,0,0,115,59.58,12,12,0,0,0,115.43,55.08Z" fill="#cc5e61"/><path id="neckline" d="M109.25,133.94c0,.39.09.79.14,1.18a5.34,5.34,0,0,0-.8,1.72,10.87,10.87,0,0,1-1.49,5.59c-1.18-1.84-.67-3.92-.47-5.8.27-2.56.42-5.24,1.78-7.59l.18,3C109.1,132.56,109,133.31,109.25,133.94Z" fill="#bb4b50"/><path id="neck_shadow" d="M94.88,97.34c0,.46,0,.92,0,1.38-2-.64-3,1.47-4.27,2.39-3.31,2.35-6,5.59-10,6.92-2.35,1-3.05,3.61-5,5-3.1,4.39-8,6.15-12.46,8.52-1.81,1-4.51,1.4-2.53,4.49,3.11-.08,6-1.19,8.9-1.94,3.87-1,4-4.51,6.4-6.22,6.22-4.34,11.36-9.89,16.6-15.29,1-1,2.89-1.42,3-3.22,2.49-.47,3.78-2.4,5-4.37C98.25,94.88,97.13,97.39,94.88,97.34Z" fill="#c35255"/><path id="jawline" d="M109.37,70a5.34,5.34,0,0,1-1.94-.16c-3.31-1.67-3.09,0-3,2.62.14,3.58,1.64,7,1.15,10.62-.58,6.47-6.2,9-10,13l-14,11a7.87,7.87,0,0,1-1,1h0c1.09,1.53,1.85.25,2.82-.23,4.56-2.24,7.34-6.93,12.15-8.8h0a2,2,0,0,0,.72-1.64c2,.55,2.74-1.85,4.28-2.38,1.89-3.06,5-5.27,6.06-8.91,1.46-1.08.8-2.68,1-4.07,1.7-2.67-1.29-5.29-.1-8A4.7,4.7,0,0,1,109.37,70Z" fill="#a93a3f"/><path id="chin" d="M75.53,113c.33,2.51-1.51,3.64-3.26,4.44-3.61,1.65-6.57,4.48-10.43,5.66-1.51.47-1.2,1.79-1.3,2.91h0a.91.91,0,0,1-1.21.12c-.61-2.2-3.22-2.85-3.89-5C63.46,121.73,69.47,117.31,75.53,113Z" fill="#b14147"/><path id="lips" d="M59.5,97c-2.84,4.38-7.65,3.64-11.81,4.25-1.46.22-4,1-4.91-1.33-1.61-4.33-2.38-8.61,3.27-10.82,5.06-2,10.64-1.27,15.76-3a2.07,2.07,0,0,1,1,0c1.68.29,3-2.39,3.3-1.82.9,1.75-.92,3.28-1.64,4.88-1.28,2.85-2.58,5.74-5,7.92Z" fill="#c73946"/><path id="nostril_left" d="M47.18,81.53c-.48.81-1,1.67-2.07,1.78a1.78,1.78,0,0,1-.43-1.17c.18-1,.77-1.83,1.93-1.76C47.12,80.41,47.26,81,47.18,81.53Z" fill="#b54249"/><path id="eye_left" d="M58.49,53c-1.83,4.21-5.47,3.19-8.58,2.59-2.51-.48-1.74-2.19-.36-3.56a5.66,5.66,0,0,0,.92-1.09h0c1.51-1,3-1.52,4.67-.27a12,12,0,0,1,1.09.52,9.45,9.45,0,0,1,2,1.31Z" fill="#0e0102"/><path id="eye_line_top_left" d="M55.59,52c-1.81.2-3.12-2.21-5.14-1a13.75,13.75,0,0,1,12.06-3.88c.08,2.42-2.17,1.83-3.36,2.61A6.53,6.53,0,0,0,55.59,52Z" fill="#3d1013"/><path id="eye_lashes_left" d="M58.53,48.84c.95-1.45,3.11-.16,4-1.77,1.16-.11,2.32-.23,3.08.94-1.06.47-.26.76.11,1.09A10.61,10.61,0,0,1,58.49,53l.07.09a1.14,1.14,0,0,1-.35-1.2C59,50.94,59.78,50,58.53,48.84Z" fill="#4f1519"/><path id="eye_white_left" d="M58.53,48.84c1.2.19,3.39-.49,3.41.41,0,1.56-2.13,2-3.34,2.9a1.47,1.47,0,0,1-1.81,0l-1.2-.2C54.33,48.8,57.52,49.85,58.53,48.84Z" fill="#c8adb0"/><path id="brow_left" d="M66.06,37.79a13.85,13.85,0,0,1-2.37.22C58,37.38,53.07,39.49,48.4,42.49c-1.09.71-2.27,1.53-3.65,1.38s-3.18-.37-3.34-1.49c-.2-1.34,1.69-1,2.71-1.41,2.92-1.11,5.77-2.4,8.66-3.59A15.11,15.11,0,0,1,64.33,37C64.77,37.21,65.18,37.41,66.06,37.79Z" fill="#841e24"/><path id="eye_right" d="M23.56,61.62l1.88.29c1.44-.56,2,.68,2.86,1.35a3.65,3.65,0,0,1,.95,1.86A2.18,2.18,0,0,1,28.49,67l-2,.85c-1.14-.53-2.79,1.66-3.6-.68C21.39,65.1,22,63.3,23.56,61.62Z" fill="#22171d"/><path id="eye_lashes_right" d="M27.59,64l-2.15-2.1a2.53,2.53,0,0,1,2.71-.84c2,.61,5,.64,5.14,3.1.16,2.79-2.9,2.32-4.8,2.82,0-.69.05-1.38.07-2.07.32-.23.43-.52.23-.81C28.45,63.65,28,63.75,27.59,64Z" fill="#66272e"/><path id="eye_white_right" d="M27.59,64c.91-1.74,2.06-.91,3.12-.24.32.2.79.64.16,1.08s-1.54.14-2.31.07Z" fill="#d1b2b2"/><path id="brow_right" d="M19.78,50.35l1.56-1.22c1.93,3.12,2.62-.87,4.08-.73.6.05,1-1.54,1.85-.43.21.29-.26,1.21-.59,1.72-1.41,2.15-3.89,2.88-5.84,4.32C20.49,52.79,20.13,51.57,19.78,50.35Z" fill="#831c23"/><path id="ear_curve_left" d="M107.52,47.05c.89,2.12,1.89,4.19,2.64,6.36A7.85,7.85,0,0,1,108.94,61c-.79,1.05-1.71,2.33-3.25,1.84s-1.81-1.72-1.46-3.23c.14-.6-.21-1.31,0-1.9.28-1-3.37-.16-.93-1.84,1.43-1,1.9.5,2.26,1.67s-.65,3.43,1.4,3,2.72-2.86,2.51-4.94c-.32-3.24-2.56-5.69-3.92-8.51a.63.63,0,0,1,1,0l1,0Z" fill="#b94b50"/><path id="hair" d="M59.51,126c-.46,1-.27,2.14-1,3q-.43.11-.87.18c-.15,2.06-1.52,3.25-3.06,4.33-3.81-1.18-7.45-.35-11,.94-.79-.26-1.64-.44-2-1.33,0-1.06.23-2.19-.75-2.94a2.22,2.22,0,0,1-.08.65c-.85,1-1.76.64-2.63.08a86.84,86.84,0,0,0-12.71-6.57c-1.32-.57-3-1.13-1.83-3.2,4.45-6,9.39-11.62,11.13-19.19.37-1.61,1.12-3.12.73-4.84-.25-1,.08-1.31,1-.84l9.09,12.88,6.25,9.68,1.92,2.06h0l1.78.25C57.26,122.38,60.59,122.35,59.51,126Zm90.92-27.51c-1.2-1.58-1.74-.83-1.81-.91-.26-.64-.23-1.07-.49-1.71L147.55,93c.43-4.83-2.44-9.17-2.09-14-.29-.34-.6-.67-.91-1-.07-1.09.2-2.3-1-3l0-2-.95-1c0-.33,0-.66,0-1-.61-.54-.37-1.47-.95-2l-.12-2a9.46,9.46,0,0,0-.89-1l0,0c-.63-.52-.39-1.45-1-2l-1.06-3c-.31-.33-.62-.67-.92-1,0-.33-.07-.66-.11-1-.29-.34-.6-.66-.91-1L136.5,58c-.32-.32-.64-.64-.95-1l-1-1c-.59-2.1-2.28-3.09-3.88-4.18a3.86,3.86,0,0,0,.68,0,3.22,3.22,0,0,0,1.29-.55c.07,0,.14-.14.2-.42a.91.91,0,0,0-.27-.82l0-.06c-.63-.5-.38-1.44-1-2l-.18-2c-2.07-3.17-4.51-6-6.33-9.46-2.65-5-5.62-10.07-10.28-13.49h0c.54-1-6-7-6.24-8C102.58,9.38,96.25,4.17,88.47,1c-8.58.05-17.16-.35-25.64,1.69C60,3.4,58.07,4,57.32,7.17,57,8.71,57,11.58,54.83,11.42c-.95-.08,1.39-2.69.71-4.39-3.22-1.76-5.92,1.28-9,1l-.05,0c-.52.62-1.45.39-2,1l-.6.69a2.68,2.68,0,0,1,.87,1.52A24.15,24.15,0,0,0,36.54,8c-4.21-2.09-6.67,1-8.74,3.51-5.45,6.63-10,13.62-11.91,22.44-1.37,6.52-.07,11.55,3.89,16.38a1.73,1.73,0,0,0,1.56-1.22c1.26-5.6,2.55-11.19,3.74-16.8.54-2.56,1.5-4.67,4.31-5.35,5.67-3.06,11.3-6.19,17.23-8.75a2.84,2.84,0,0,0,.1-.45c1.3,0,3.86-.05,4.43-.08,0,.17,2.34.21,2.33.38h0c2.37,1.34,5.07,2.13,6.93,4.28C64.72,26,68.66,30.08,73.51,33c1.41.48,2.82.94,4.24,1.38,3.2,1.76,10.52,5.45,10.65,5.82a47.91,47.91,0,0,1,6.27,10.59c1,2.19,2,3,3.4.22A19,19,0,0,1,99.39,49a9.9,9.9,0,0,0,2.4-6.28c.65-1.59,3,.06,5.71,1.42a4.94,4.94,0,0,1,.18.76c1.42.15,2.13,1.37,3.16,2.1a23.22,23.22,0,0,1,5.49,3.21A7.9,7.9,0,0,0,115,53.72a3.8,3.8,0,0,0,.53,1.3,12.14,12.14,0,0,1-.5,9.87c-.75,1.57-1.69,3.23-.62,5.06l-.54-.36c-3.59-.07-6.06,3.52-4.86,7.26.5,1.56,1.59,2.9,1.56,4.66-.13,10,1.26,19.93.38,29.84-.56,6.39.81,13-1.86,19.2a2.1,2.1,0,0,0,1.42,2.31c4.26.94,7.28,4,10.93,6a6.34,6.34,0,0,0,1.44.21,5.68,5.68,0,0,0,4.37-2.2,12,12,0,0,0-1.13,2.47c.62,1.59,2.16,1.93,3.51,2.52,3.84,1,7.6,3.06,11.66.78,1-.62.57-1.86,1.12-2.67l3.33-3.62c4.25-9.85,4.41-20.28,4.23-30.72C149.84,101.18,152.17,102.43,150.43,98.51Z" fill="#110001"/><path id="hair_lines" d="M109.66,15c9.63,8.31,17.52,17.9,21.92,30a.72.72,0,0,1-.11,1.24c-4.09-1.23-6-5-7.32-8.19-4.87-11.86-14.35-17.4-25.94-20.49-11.85-3.17-23.73-1.93-35.62-.28-3.22.45-6.57,1.95-9.27-1.27,0-1.67,1.38-1.84,2.55-2.2a104.46,104.46,0,0,1,41.75-1,40,40,0,0,1,8.88,3c1.31.57,1.74.2,2-1A.9.9,0,0,1,109.66,15Zm21.26,32.7a12.66,12.66,0,0,0,.86,2.13c.16.34.32.69.5,1s.31.68.48,1,.3.7.47,1a14.91,14.91,0,0,1,.78,2.78,4.35,4.35,0,0,0,.83,1.54c.24.3.49.59.76.87l.36.42c.22.3.41.6.62.91s.33.64.52,1l.74,1.45c.3.67.6,1.33.94,2s.66,1.27,1,1.92c.14.32.28.64.44,1s.24.65.36,1c.14.5.27,1,.46,1.5a17.33,17.33,0,0,1,.66,2,9.59,9.59,0,0,0,.32,1c.2.52.37,1,.54,1.58a16.67,16.67,0,0,0,.48,1.67c.34,1,.6,2,.86,2.94a14.21,14.21,0,0,1,.35,1.93c0,4,2,7.61,2.61,11.51,0,.41.37.73.31,1.14-.35-.17-.06-.56-.26-.74-.48-3.38-2.15-6.35-3.66-9.37-.69-1-1.21-2.16-2.74-2-.1,0-.19.14-.28.41s0,.53.32.79c.95,4.37,3.23,8.21,5.18,12.13,3.49,7,3.76,14.35,3.42,21.93-.32,6.91-2.08,13.54-3.43,20.25a18,18,0,0,0,3.8-9.5C153,97.54,147.57,70.11,131.58,45l-.21,1.06A1.73,1.73,0,0,0,130.92,47.67ZM59.56,13.29c1.41-.54,3.26-1.16,2-3-1.08-1.6-2.7-.56-4,.26-6.07,4-6.06,4-11.44-.62-.12-.62.27-.91.72-1.16s.7-.24,1.05-.37c2.48-.64,5-1.15,7.24-2.53.2-.08.21-.45.52-.36-.22.63.1-.16-.25.41A12.83,12.83,0,0,0,54.7,7.1a11.26,11.26,0,0,0-.56,1.28c-.22,1.34-1.81,3,.17,3.89,1.65.7,3.09-1.15,3.23-2.39.64-6,5.35-5.61,9.43-6.52,4.6-1,9.22-1,13.88-1,2.47,0,5,.42,7.35-.79A.88.88,0,0,0,88.48.21C74-.46,59.66.23,46.17,6.37A18.78,18.78,0,0,1,36.54,8c3.38,1.9,6.91,3.54,10,6,.51.41,1.56.74,1.25,1.33-.52,1-1.44.14-2.06-.16-5.47-2.56-10-.76-13.87,3.18-1.44,1.46-2.38,3.43-3.54,5.16,2.53,0,3.36-2.27,4.77-3.7,4.57-4.59,7.82-5.69,13.45-2,2.29,1.49,4.66.9,7,.31a1.54,1.54,0,0,0,0-2.08c.68-1.25,1.9-1,3-1A12.39,12.39,0,0,1,59.56,13.29ZM21.54,123c-.64,2,1.27,1.17,1.92,1.74,6.64,1.43,11.79,6.09,18,8.37.82-1.39,1.31-2.68-1-3.1a1.26,1.26,0,0,1-2.07.33c-3.51-2.6-7.67-4-11.43-6.12-1.38-.78-3.3-1-3.53-3.09Zm93-53a56.13,56.13,0,0,1,2.12-5.87c1.18-3.37,2.47-7.1-1.24-10-.13,4.64-2.08,8.72-3.88,12.86l-2.16,3c-1.84.77-3.2,1.87-2.94,4.12.37,2.07.49,4.22,2.14,5.82a3.2,3.2,0,0,1,.78,2.27c1.32,15.65,1.75,31.28-.94,46.84a4.27,4.27,0,0,0-.29,2.66,1,1,0,0,0,1.09.56l.3-.62c1.77-1.94,2.08-4.25,2.06-6.81-.08-14.28,0-28.56-.06-42.84,0-1.76.44-3.58-1.12-5.14-2.5-2.48,1.08-4,1.24-6.15s2.16.72,2.9-.68ZM88.4,40.24c4-1.8,7.66.28,11.38,1.17,1,.24.65,1.73.78,2.68.35.39.66.38.91-.1l0,0c2.35-2.15,4.29.54,6.46.53,2.59-.17,5.52,2.11,7.69-1.07-3.53-3.9-8.65-3.8-13.18-5C94,36.1,85,36.33,76.79,32.65a2.92,2.92,0,0,0-3.28.39,7.36,7.36,0,0,0,.21.93ZM114.53,70c2.08,3.93,3.86,8.07,6.33,11.74,2.21,3.28,2.07,7.82,5.68,10.26h0c0-5.53-3.66-9.63-5.8-14.28-1.35-2.94-2.73-6.3-6.2-7.74Zm12,22c-.16.47-.53,1-.45,1.39,1.15,6.09,3.66,11.83,4.46,18,.07.52.42,1,.83.5a2.21,2.21,0,0,0,.57-1.77c-1.45-3.54-1.24-7.43-2.39-11-.79-2.46-.92-5.2-3-7.1ZM115.41,54.1c.26-1.79.89-1.62,2.14-.61,2.85,2.31,4.52,5.88,8,7.53.1-.22.19-.45.28-.67-2.44-6.26-7.37-10.26-12.72-13.83a1.82,1.82,0,0,0-2.25.46l1,1.75A2.26,2.26,0,0,1,113.6,51C114.91,51.61,114.08,53.48,115.41,54.1Zm15.34,77.48c.34-.88,1.32-2.08.33-2.58-.69-.34-1.09,1.29-1.57,2.08-1.78,3-2.29,7.2-7.15,7,1.14,1.15,2.65.87,4,1A22.5,22.5,0,0,0,130.75,131.58Zm10.17-51.75A10.3,10.3,0,0,0,140.2,78c-.71-1.37-1.3-2.85-3-3.24l-.62.23c.7,2.7,1.55,5.32,4,7l0-1.09A1.28,1.28,0,0,0,140.92,79.83ZM136.53,75c1.21-3.29-1-4.79-3.3-6.2l-.7.21a7.67,7.67,0,0,0,4,6Zm-4-6c1-2.4-.18-3.24-2.36-3.42l-.64.42c0,2,1.73,2.27,3,3ZM129,64.44c0-2.27-.9-3.67-3.43-3.41h0c.08,2,1.38,3.14,3,4C128.68,64.83,128.82,64.63,129,64.44ZM45.52,114c-2.76,2.79-2.89,6.9-5,10,4-1.67,5.21-5,5-9ZM37.2,127.08c-.13.87.7.87,1.33.93.33-1,.66-2,1-3A2.17,2.17,0,0,0,37.2,127.08ZM133.54,52c-.47-.75-1.51-.3-2-1h-2c.71,2.62,3.25,3.41,5,5C135.44,54.37,135,53.07,133.54,52ZM60.42,22.35c-1.52-2.7-3.7-4.34-6.93-4.28C55.26,20.38,58,21.18,60.42,22.35ZM118.53,45c2.93,3.36,7,4.56,11,6C127,46.88,122.4,46.65,118.53,45ZM64.29,7.72c-1,0-1,1-1.39,1.66-.24.37-.11,1.12.41.94a8,8,0,0,0,1.93-1.51C64.84,8.32,64.58,7.73,64.29,7.72Z" fill="#180d10"/></g></g></svg>
