<svg xmlns="http://www.w3.org/2000/svg" viewBox="0 0 164.4 165.13"><defs></defs><title>full_11</title><g id="poca"><g id="_11" data-name="11"><path id="shoulder_left" d="M128.91,163.31a67.08,67.08,0,0,0-4.65-13.84c-1.38-2.89-3-5.67-3.4-8.95.12-.33.32-.77.56-.75,4.5.42,9.1-.34,13.51,1.13a.76.76,0,0,1-.05,1.25,37.57,37.57,0,0,1,5.22,21.1Z" fill="#cb5e60"/><path id="shirt_dark_left" d="M143.23,144.19c3.86.91,6.58,4.29,10.58,4.9,1,.77,2.17,1.21,3,2.18l.16-.06a2.78,2.78,0,0,1,.62,1.22c.74,3.62,2.18,7.27-.6,10.69l-16.88.13c-1.24-1.09-1.3-2.59-1.47-4.07-.58-4.94-1.28-9.84-4-14.18-.67-1.06-1.51-2.38.25-3.36,2.22-.18,4,1.28,6.18,1.48H141C141.56,143.83,142.56,143.65,143.23,144.19Z" fill="#fbab87"/><path id="shirt_light_left" d="M157,163.12c1-3.64,0-7.28,0-10.92a.67.67,0,0,1,1,0h0a12.91,12.91,0,0,1,1,1l0,0c.78.91.44,2.57,2,3,.63,1.75,2.79,2.46,3,4.48a2.35,2.35,0,0,1,.18,2.37Z" fill="#efbbb6"/><path id="shoulder_right" d="M.15,164.17c0-9.95-.12-19.9-.15-29.85,0-5.59,3.3-8.86,9-9.18,3.26-.18,6.62.9,9.76-.78a60.2,60.2,0,0,1,19,7.4A7.72,7.72,0,0,1,40.3,137c.73,8.47-.89,17,1,25.47.59,2.62-1.78,2.07-3.31,2.19H13.6C9.12,164.38,4.6,165.26.15,164.17Z" fill="#cc5e61"/><path id="neck" d="M117.43,157.87c-1.69-3.44-2-7.33-3.86-10.7-1.53-2.48-2.46-5.38-4.35-7.56s-3.09-5.9-7.11-5.68a3.43,3.43,0,0,0-.59.7c.46-3.8,1-7.58,1.81-11.31,1.79-13.33,2.59-28.27,1.26-41.73-1.3-.43-1.82,1-2.31,1.31l-.64,1.49c-.2.19,2.31,9.54-7.7,13.68A38.38,38.38,0,0,1,89,102.72Q76.46,110.31,64.66,119c-3.6,2.23-8.28,2.81-10.61,7A50.89,50.89,0,0,0,50,133a17.15,17.15,0,0,0,.15,7.9c1.69,2.47,1.54,5.29,1.54,8.08a8.8,8.8,0,0,0,.59,2.87,8.09,8.09,0,0,1,1.58,5,5.47,5.47,0,0,0,.51,1.9,1.77,1.77,0,0,0,1,.77c1.35-.15,1.45,1.37,2.38,1.75,4.8,2.68,10.34,1.34,15.36,2.83,13.94,0,27.88.29,41.8-.54C116.83,162.17,118.79,160.65,117.43,157.87Z" fill="#cc5e61"/><path id="necklace_left" d="M129.46,159.68c-1.94-6.66-5-12.89-7.63-19.25a8,8,0,0,0-1.27-1.89,10.29,10.29,0,0,0-6.6-3.78,8.74,8.74,0,0,1-.87-.14c-2.07-2.42-5.07-3-9.78-1.84a1,1,0,0,0-.37,1.43c3.38,3.26,6.48,6.74,8,11.27a2.13,2.13,0,0,0,2,1.74,29.74,29.74,0,0,0,1.05,4.7c.75,3.8,4.87,7.51.88,11.67,4.67-.1,9.36.6,14-.28C130,162.24,129.87,161.08,129.46,159.68Z" fill="#588aa1"/><path d="M61.27,162.92c-.62,0-2.44-1.24-3.05-1.25L56,159.46h0l-1-2.27h0a9.34,9.34,0,0,0-1.93-5.06h0l-.12-2.88h0c-.35-2.76.16-4.7-1.87-8.09-.05-3.08-.11-6.15-.16-9.22-3.47-1.11-6.63.32-9.86,1.21l-3.86-.66c.71,1.23,2,2.16,2,3.76.22,8.84-1.72,17.76,1.2,26.52.6,1.8-1.53,1.16-2.37,1.67V165l9,0c5.7.15,11.41.58,17.06-.63A3.6,3.6,0,0,0,61.27,162.92Z" fill="#568aa2"/><path id="face" d="M102.29,82.89q0-1.29,0-2.58c-.1-2.9,1.37-2.36,3-1.45,5.49-.52,12.15-7.7,12.86-13.94.48-4.15-.47-7.62-4.79-9.34a4.77,4.77,0,0,0-1.59-.25c-1.15.19-2.09.53-2.14,1.61-.6-1.53-1.27-3-3-3.77a7.84,7.84,0,0,0-1.33-1.37,6.71,6.71,0,0,0-2.38-1,2.85,2.85,0,0,0-1.29.24,4.23,4.23,0,0,0-1.49,1.36A25.51,25.51,0,0,1,98,55.76c-.83,1-1.33,2.67-2.87,2.41-1.27-.21-1.31-1.79-1.69-2.86a22.78,22.78,0,0,0-4.79-8.66,71.37,71.37,0,0,0-9.49-8.12c-6.77-3-12-7.89-16.82-13.27C59,21.68,55.67,17.9,49.91,19a12.92,12.92,0,0,0-2,.26,9.11,9.11,0,0,0-1.26.37,21.44,21.44,0,0,1-2.94.74,7.58,7.58,0,0,0-1.14.37c-.74.29-1.51.49-2.27.72a7.55,7.55,0,0,0-1.14.46c-.8.35-1.62.7-2.39,1.12C32.9,25.2,29.24,27.54,28,32.15c-1,3.54-2.28,7-2.8,10.63-.23,2.08,1,2.82,2.78,3.16-1.1,1.13-2.71,1.75-3.36,3.34-.38.92.07,1.94-.33,2.86,0,.13-.14.27-.1.37a4.18,4.18,0,0,0,.37.65c2,1.26,1.53,3.6,2.4,5.36l-.64,1.36c.55,1.29,1.78,1.26,2.89,1.48a5.35,5.35,0,0,1,2.92.91c1.18,3.18-1.17,1.91-2.48,2-1.72,0-3.1.41-3.14,2.52-.68,3.27-.07,6.55,0,9.84v3.19c.37,2.24,2.21,4,2.18,6.34,1.43,1.79,1.69,4,2.26,6.1l0,0a25.71,25.71,0,0,1,1.58,3.46c0,1.44.84,2.54,1.43,3.74a1.5,1.5,0,0,0,1.29-.3c1-1.33.68-2.83.5-4.31-.41-3.32,1.61-5,4.37-4.52a92,92,0,0,0,13.34,1c1.69,0,1.54.62.63,1.64-4.62,5.16-9.17,10.45-17.31,7.29a1.63,1.63,0,0,0-2.17.58,3.44,3.44,0,0,0-.19,1.42,24.24,24.24,0,0,0,.72,2.91c1.35,3.88,2.34,7.87,3.77,11.73.94,2.55,2.22,4.79,5.18,5.41a21.13,21.13,0,0,0,13.52-2.61c.62-.38,1.24-.75,1.89-1.08l1.29-.54c5.58-1.64,9-6.79,14.25-8.91,5.25-2.76,19.32-11.28,24.48-14.21Z" fill="#cc5e61"/><path id="neck_shadow" d="M90,102.18c-.43,3.86-4.27,4-6.57,5.38-6.43,3.82-12,8.83-18.41,12.62-1.9-.61-5,.84-5-3,5.5-1.72,8.85-6.79,14-9,4,0,6.66-3.27,10.15-4.5C86,103,87.54,100.76,90,102.18Z" fill="#c45255"/><path id="neckline" d="M103.16,133.05c-.07.38-.14.77-.22,1.16-2,2.85-.47,6.06-1,9.07-.14.85.37,2.26-1.13,2.19-1-.05-.83-1.23-.84-2a79.3,79.3,0,0,1,2-19.3c.89,2.61-1.39,5.61,1,8a.55.55,0,0,1,.31.52C103.26,132.94,103.22,133.05,103.16,133.05Z" fill="#bf5254"/><path id="jawline" d="M90,102.18c-4.59,1.41-8.55,4.13-12.82,6.19-.83.4-2.33,3-3.15-.18Q85.27,102,96.52,95.83c4.18-2.3,3.72-6.66,4.4-10.42.38-2.08,0-4.29.09-6.44,0-1.24-.58-3,1.06-3.47,2-.58,2.18,1.49,2.93,2.66-1.44,1.07-.66,2.71-1.06,4-1.66,1.4-2,3.28-2,5.33.21,6.11-2.21,10.41-8.29,12.37A6.6,6.6,0,0,0,90,102.18Z" fill="#b24046"/><path id="chin" d="M60,117.2c.7,2.63,3.79,1.23,5,3-3.36,2-7.54,2.6-10,6,1.25-3.8.22-5.08-3.91-4.13-2.27.53-4.91,1-7.08-.85a25.83,25.83,0,0,0,14-3c.33-.34.71-.61,1-1Z" fill="#b7484c"/><path id="lips" d="M35,101.14a1.88,1.88,0,0,1-.89-2c1.3-1.05.84-2.32.56-3.64-1-4.7,2-8.07,6.42-6.66,5,1.57,10,1.13,15,.79,1.4-.1,2,.11,1.36,1.48C55,96.35,45.33,102.25,39.94,102.28,38.06,102.29,36.85,100.48,35,101.14Z" fill="#c63946"/><path id="nostril_left" d="M39.51,81.55c-.33,1.27-1.31,1.56-2.2,1.89s-1.25-.19-.88-.92a2.61,2.61,0,0,1,2.12-1.75C38.87,80.76,39.22,81.3,39.51,81.55Z" fill="#b6454a"/><path id="eye_left" d="M53.91,58l-3.13,1.42c-.58-2-3-2.77-3.49-4.3-.73-2.47,2-3.24,3.76-3.66,3.19-.78,6.53-1.38,9.83-.15-.6,2.84-3.22,1.58-4.81,2.39a9,9,0,0,0-1.08.63C53.91,55.38,54.6,56.91,53.91,58Z" fill="#370f13"/><path id="eye_lashes_left" d="M55,53c1.6-1.84,4.3.15,5.9-1.69,1.58-.16,3.39.21,3.67,1.69.31,1.7-1.87,1.39-2.91,1.89-2.5,1.2-5.14,2.1-7.73,3.11-.64-1.62-2-3.26.23-4.75.93,1.24,2.15,1.12,3.43.73C56.62,53.92,55.55,54.12,55,53Z" fill="#5a181e"/><path id="eye_white_left" d="M55,53c.33,0,.65,0,1,.08,1.15.17,3.39-.31,3.21.54-.3,1.47-2.48,2.12-3.9,2.31-2.14.28-1.36-1.49-1.12-2.68A1.27,1.27,0,0,0,55,53Z" fill="#e4b9b7"/><path id="brow_left" d="M53.69,37.73a5.4,5.4,0,0,1,1.45,0c1.71.51,4.86.35,4.76,1.71-.12,1.73-2.44-.4-4,.15-3.72,1.25-7.67,1.79-11.49,2.76a5.65,5.65,0,0,1-3.83-.22c-.43-.19-1.07-.48-1.13-.81-.14-.76.46-1.11,1.18-1.23C45,39.41,49.16,37.68,53.69,37.73Z" fill="#79171c"/><path id="eye_right" d="M26.32,59.89l3.67.26a3.37,3.37,0,0,1,1,1.55c.18.78.35,1.58.48,2.38A1.28,1.28,0,0,1,31,65.15c-1.36.14-2.92-.52-3.94,1-.29.48-.58.49-.87,0C26.82,64.07,23.75,61.92,26.32,59.89Z" fill="#2a161d"/><path id="eye_line_bottom_right" d="M31,65.15a7.5,7.5,0,0,1-.11-.81,13.74,13.74,0,0,1,.73-2.07,2.6,2.6,0,0,1,1.29-1c1.25.67,2.25,2,1.69,3.06A2.42,2.42,0,0,1,31,65.15Z" fill="#85353f"/><path id="eye_lashes_right" d="M32.89,61.27l-1,1A1.24,1.24,0,0,1,30,62.16c0-.67,0-1.34-.05-2A4.54,4.54,0,0,1,32.89,61.27Z" fill="#541218"/><path id="eye_white_right" d="M30,62.16l1.85.11c1,1.36.53,2-1,2.07A1.69,1.69,0,0,1,30,62.16Z" fill="#e3adab"/><path id="brow_right" d="M24.18,45.43,26,43.17c.22,1.2.37,2.52,2.1,1.29.62-.44,1.24-1.44,2-.48.93,1.13-.27,1.81-.9,2.43-1.8,1.78-4.61,2.69-4.93,5.74C23.6,49.92,22.22,47.7,24.18,45.43Z" fill="#892630"/><path id="ear_curve_left" d="M110,58.17c0-1.37.75-2,2-2.05-1.66-1.71-4-2-6.06-2.85-.19.57-.53,1.68-.09,1.65,2.51-.22,3,1.91,4.1,3.26-.3,2.42.81,5-.87,7.24-.66.87-1.4,2.31-2.64,1.87-.92-.32-.4-1.77-.49-2.72s0-1.66-.19-2.46-.56-1.36-1.26-1.27a2.92,2.92,0,0,0-1.58,1c-.64.71-.16,1.19.58,1.37,1.23.31,1.33,1.24,1.46,2.28.16,1.32-.68,3.4,1.66,3.44a4.44,4.44,0,0,0,4.09-2.42C112.14,63.66,113.49,60.66,110,58.17Z" fill="#b94c4f"/><path id="hair" d="M151.87,90.32A137.85,137.85,0,0,0,136.94,44.2c-1-1.15-1.28-2.69-2-4h0c-3.49-5.8-7-11.61-12.16-16.07h0c.79-.42.71-1.25.21-2a1.89,1.89,0,0,1-.91-1.11c-.55-.18-.94-.48-.91-1.13A22.67,22.67,0,0,1,117,15.2h0c-.33-.34-.64-.7-1-1C106.08.6,92.44-1.81,77,1.09c-4.35-.41-8.53.53-12.69,1.66C58.75,4.26,53.2,6.81,47.58,7c-6.22.18-10,3.25-13.88,7.1-8.51,8.84-14.35,18.48-9.52,31.36,1.59,0,1-1.63,1.79-2.26.49-1.75,1.12-3.48,1.46-5.26,1.25-6.53,4.19-11.77,10.65-14.44.35-.92,1.34-.76,2-1.18.73-1.09,2.1-.3,3-1,1.05-1.33,2.84,0,4-1.1h0c.57-.62,1.34-.51,2.07-.53a2.54,2.54,0,0,0,1.08-.27,1.62,1.62,0,0,0,.16-1.1,2.51,2.51,0,0,0-.78-.84q-.75-.48-1.53-.9c-.35-.2-.7-.4-1.06-.57l-1-.52a1.48,1.48,0,0,0,.21-.32l1.79.07c.37.29.76.84,1.11.82,1.16-.07,2.35,1.8,3.28.36.78-1.22-.35-2.33-1.33-3.2-.35-.31-.68-.64-1-1l0,0h0a1.69,1.69,0,0,0,.2-1.2c1.1,2.11,3,3.66,4.23,5.68,1.39,2.23,3.13,1.94,4.92.45,1.67-1.25,3.54-2.3,4.36-4.43.28-.26.14-.37.06-.4l.21,0c-.11.37-.4.68-.33,1.08,1.74,2.16,3.29.14,4.77-.38,1.06-.39,2.1-.82,3.14-1.26-2,.91-4,1.86-6,2.76-1,.44-2.67.84-2.26,2.22a1.32,1.32,0,0,0,.85,1c-1.34.46-2.68,1-4,1.52-4,3.68,1.55,4.48,2,6.8C66.54,31.94,71.72,37,79,39.35c2.91,1.46,5.8,3,8.69,4.46a1,1,0,0,0-.61.63c-.35,1.07.43,1.84,1,2.62,1.24,2.3,2.42,4.65,3.76,6.9s.56,6.51,3.09,6.55c2.77,0,3.8-4,5.55-6.34a6,6,0,0,0,.64-1.85,1.29,1.29,0,0,0-.13-1.38c-.37-.38-.76-.71-1.15-1q1.55.74,3.12,1.44l0-.05c.65.41,1.57.27,2.07,1l1,1c1.53,2,4.13,1.71,6.06,2.85l.95.06a147.63,147.63,0,0,1,16.63,10.66c-2.73-1.75-5.2-3.91-8.21-5.25-2.15-1-3.39-.43-3.29,1.81.13,3.23-1.61,5.68-3,8.24-1,1.77-1.46,3.48-.51,5.18,2.63,4.66,3.84,9.89,6.1,14.7,5.4,11.46,9,23.26,8.51,35.76a39,39,0,0,0-.38-5.62c-2-15.36-8.57-29.25-14.36-43.38-.2-.51-.55-2.12-1.49-.87-1.88,2.53-6.35,1.83-7,5.77h0c2.08,1.65-.71,2.82-.53,4.64.42,4.4-.3,8.76,1.31,13.28,1.14,3.2-1.08,7-1.39,10.36-.63,6.94-1.14,13.88-2.41,20.75a4.86,4.86,0,0,0,.19.84c3.86.24,7.74.42,11,3,2.6-.18,3.76,2.22,5.72,3.2,1-.27,1.29-2.1,2.28-1.63,4,1.89,4.75-1.14,5.82-3.67a16.65,16.65,0,0,0,1.18-4.88,56.57,56.57,0,0,1-.78,6.24c-.34,1.9.28,3.32,2.16,3.93,1.73.55,3.31,1.61,5.2,1.63a2.84,2.84,0,0,0,1.31-.65c1.46-1.07,3.54-1.37,4.44-3.08,2.86-5.42,6.73-10.32,8.46-16.31A71.34,71.34,0,0,0,151.87,90.32ZM82.52,7.79a48.75,48.75,0,0,0-8.08,2.68A38.27,38.27,0,0,1,82.27,7.8,4,4,0,0,1,84,7.53,9,9,0,0,0,82.52,7.79ZM132.15,68.7l-.19-.21.24.17c.46.68,1.1,1.22,1.62,1.86A16,16,0,0,1,132.15,68.7ZM55.91,121.31c1.56,1.72-.59,3.24-1,4.88-1.48,1.82-1.52,4.66-4,5.75a70.25,70.25,0,0,1-9.73,2.1c-1.63.26-2.64-1.07-4-1.55a87.33,87.33,0,0,0-15.89-6.3c-1.14-.31-2.26-.43-2.55-1.83A99.83,99.83,0,0,0,33,99.23c.3-.49.62-.54,1-.06l.11,0c.7.48.3,1.46.89,2,.08.35.15.7.23,1,.26.62.19,1.38.76,1.87,1.24,3.89,2.4,7.81,3.76,11.67.79,2.24,1.19,4.91,4.21,5.48,2.41.93,4.85.41,7.3.25C52.82,121.35,54.62,119.88,55.91,121.31Z" fill="#120101"/><path id="hair_lines" d="M135.94,140.16l-1,1a47.38,47.38,0,0,1-14.06-.62l-1-1.24c.14-1,.49-2.36,1.51-2.32,6,.19,6-4.43,6.28-8.21.63-8.1-1.4-15.89-3.88-23.51-2.41-7.44-5.61-14.6-8.4-21.9-1.51-3.94-3.24-4.37-6.32-2A13.65,13.65,0,0,1,107,82.75c-.15.26-.87.09-.63.4s.82.26,1.06.73c-.38,5.74-1.69,11.52.78,17.14a2.56,2.56,0,0,1,.1,1.48c-2,9.34-1.3,19.09-4.29,28.28-.26.8-.65,1.54-1.68,1.54-1.49-2.66-.85-5.4-.32-8.14,1.65-13.94,2.73-27.91,2-42-1-1.7-1.55-3.29,1.06-4,6.56-.82,13.84-11.72,12-17.85-.65-2.19-2.83-2.63-4-4.13,1.3-.23,1.9-1.44,3.87.41,4.79,4.5,10.67,7.82,16.11,11.61a1.37,1.37,0,0,1-2,0c-3.91-.68-6-4.41-9.76-5.61-1.89-.61-2.29-.7-2.23,1.27.1,3.47-1.37,6.33-3.46,9-1.3,1.66,0,3.13.58,4.59C121,89,126.94,100.32,129.26,112.85c1.37,7.47,2.37,15.1.08,22.65-.52,1.72,0,2.66,1.69,2.74C132.92,138.34,134.19,139.82,135.94,140.16ZM46,16.2c.34.32.7.63,1,.95.32,0,.63,0,1,0,.34.32.68.64,1,.94.33,0,.65.05,1,.09.08,0,.16.1.24.31s0,.4-.28.59c-.31,0-.62.06-.93.08-.11,0-.22.08-.33.23s0,.36.26.56c4.32-.42,8.11.46,10.85,4.19A12,12,0,0,0,62,26.07c0-1.41-.94-2.31-1.85-3.21s-1.65-1.68-.18-2.67c1-.7,2.82-.79,2-2.71-.55-1.31-1.37-2.36-3-1.29-1.6,1.37-2.9,1.87-4.12-.6A12.39,12.39,0,0,0,50,10.1c-1.24.66-.11,1.39,0,2.08,0,.22,0,.44,0,.67.09.77,1.12,1.68.58,2.12-.75.62-1.76-.36-2.7-.42a2.09,2.09,0,0,0-1.88.59l-.93,1Zm57,35.14c-5.34-4.75-11.9-7.42-18.37-10-1.77-.7-3-3.82-5.62-2l9.11,7.71c-.24-2.71-.07-3,.88-2.32,4,2.67,9.18,3.36,12.16,7.58ZM97,16.18c-.51-.76-1.31-.84-2.14-1-9.81-2.08-19.4-.41-29,1.59a6.68,6.68,0,0,1-1.82.13c-.2-1.09.86-1.13,1.47-1.44A101.75,101.75,0,0,1,84.87,7.71a14.51,14.51,0,0,0,2.2-1c-.8-1-1.74-.4-2.63-.23C78.09,7.71,72.31,10.57,66.38,13c-1,.41-2.24,1.37-2.38-.82h0l-5,4c3,.66,2.87,2.11,1,4C72,15.87,84.4,15,97,16.18Zm21,6a21.49,21.49,0,0,0-14-5C108.32,19.79,113.33,20.51,118,22.18ZM131.46,69c1.52,1.32,2.33,3.55,4.74,3.73-.15-2.18-2.65-2.68-3.23-4.55l-2,0A3,3,0,0,0,131.46,69Zm8.26,7.51c.57,1.13.84,2.5,2,3.18a.6.6,0,0,0,.86-.71c-.64-1.25-1.47-2.39-2.16-3.47C139.55,75.66,139.47,76.05,139.72,76.53ZM104,17.18c-1-1.53-2.64-.83-4-1C101,17.7,102.61,17,104,17.18Zm-5-1c-.68-1.21-1.36-.06-2,0C97.67,17.28,98.35,17.2,99,16.18Z" fill="#190a0c"/></g></g></svg>
