<svg xmlns="http://www.w3.org/2000/svg" viewBox="0 0 165.3 165.01"><defs></defs><title>full_13</title><g id="poca"><g id="_13" data-name="13"><path id="shoulder_left" d="M140,154c.2,3.64,1.54,7.18,1,10.89l-11.81-.06c-.06-7.11-3.34-13.18-6.59-19.16-.81-1.51-1.61-2.76-1.5-4.47.48-.77,1.4-1.3,2.06-1,4.79,2.58,4.8,1.41,9.74,1.81.58,0,2.27-.48,2.6,0,.15.54-.07.75-.4,1.2-1.34-.06,1.23-1.11,0,.63C136.8,147.24,137.22,151.19,140,154Z" fill="#ca5f61"/><path id="shoulder_shadow_left" d="M140.19,154c-.61.12,1.65,10.77,1,10.89.08-3.81-8.06-16.59-5.93-21C138.76,146.38,138.87,150.49,140.19,154Z" fill="#b54449"/><path id="shirt_dark_left" d="M152.08,149a2.86,2.86,0,0,1,.91.2,18.13,18.13,0,0,0,4,2.89h0c2.16,4.11,4.15,8.23,1,12.76l-17,.05c-2-3-1.49-6.6-2.36-9.87-.38-4.06-2.48-7.52-3.93-11.21,1-2.45,2.82-1.52,4.52-1.21,1.62.55,3.11,1.43,4.72,2,.9.86,2.25.7,3.23,1.39l1.81,1.07c.37.28.73.57,1.08.88h0A3.53,3.53,0,0,0,152.08,149Z" fill="#fbac86"/><path id="shirt_light_left" d="M158,164.85c.63-4.33-.22-8.54-1-12.76,4.37,2.71,6.13,7.24,8.07,11.64a.82.82,0,0,1,0,1.11Z" fill="#f4bbb0"/><path id="shoulder_right" d="M41.21,164.85,3.38,165c-1.65,0-3.4.3-3.32-2.36.36-11.23-.65-22.5.54-33.72A28.26,28.26,0,0,1,18.3,125c.55,0,1.1,0,1.64,0a46.15,46.15,0,0,1,21.81,9.46c-.48,6-1.83,11.93-1.25,18,.26,2.8-.62,5.69,1.42,8.31C42.79,161.88,42.3,163.62,41.21,164.85Z" fill="#cc5e61"/><path id="neck" d="M116.85,155.72c-.33-.75-.63-1.51-1-2.25a13.27,13.27,0,0,1-2-4,6.65,6.65,0,0,0-.61-1.11c-1.08-1.22-.95-2.72-1-4.18-.06-2-.63-3.68-2.63-4.56-1.66-.39-2.66-1.58-3.72-2.8l-2.18-6a20.6,20.6,0,0,0,.71-3.9,279.79,279.79,0,0,0,2-41.22l-5.59,7.75c-.2.26-.4.52-.62.77-1.86,2.16-4.31,3.53-6.64,5.11-3.11,2.12-6,3.56-9.43,6.17-8.4,7.15-16.66,14.53-27.17,18.62-2.63,1.13-2.69,4.08-4.22,6-.11.19-.24.38-.35.57s-.24.39-.35.58c-.25.38-.49.77-.72,1.16a12,12,0,0,0-.69,1.2,10.37,10.37,0,0,0,.18,8.35c.19.44.37.87.59,1.3.9,3.39-.75,7.43,2.6,10.2,1.52,1.07,1.7,2.78,2.09,4.38,1.44,3.43,4.27,4.78,7.73,5.55,3.09.69,6.36,0,9.32,1.4h39.88C118.76,162.66,119.33,161.28,116.85,155.72Z" fill="#cc5e61"/><path id="necklace_left" d="M105.18,134.1c6-.66,10.46,2.66,14.95,5.87a3.8,3.8,0,0,1,1.71,1.41,97.34,97.34,0,0,1,7.65,16.43c.79,2.4,1.41,4.75-.26,7H113.08c3.29-2.29,5.65-4.77,2.36-8.9-.53-.67-.35-1.91-.5-2.88-1.14-1.14-.54-3-1.81-4.12l0,0c-1.39-1-.53-3.11-1.94-4.12A5,5,0,0,0,109,140C107.14,138.43,105.29,136.83,105.18,134.1Z" fill="#5889a1"/><path id="necklace_right" d="M41.21,164.85c-2.47-6.62-1.71-13.56-2.22-20.4-.29-3.81,2.18-6.75,1.92-10.34,2.38-3.59,6.18-2.28,9.47-2.78a2.24,2.24,0,0,1,1.67,1.6,11,11,0,0,0,.06,9.09l-.06-.05c1.69,1.75.81,4,1,6s.36,3.79,2.06,5.07a5.5,5.5,0,0,1,1,3.49c-.17,1.21.56,2.35.25,3.57a27,27,0,0,1-9.24,4.77Z" fill="#568aa2"/><path id="face" d="M112.11,54.27l-2.5-.58c-.86-2-2.76-2.63-4.58-3.36a3.82,3.82,0,0,0-4,1.33c-2,2.29-3.26,5.17-5.34,7.43-1-3-1.64-6.05-3.72-8.53a5.25,5.25,0,0,1-2.16-3.12,18.87,18.87,0,0,0-7.5-7.22c-9.08-3.91-16.06-10.4-22.15-18-2.42-1.86-4.82-3.77-8.17-3.47a12.75,12.75,0,0,0-2.3.25C38,21.33,27.71,25.34,26,39.33c-.08,2-1.31,4.35-.33,5.71,2,2.81-.3,3.89-1.36,5.55-.69,3.69,1.21,6.78,2.31,10.07.61,1.24,1.81,1.27,2.95,1.45.62.07,1.23.16,1.84.28.13.13.5-.1.48.28a3.18,3.18,0,0,0-1.16.31,8.38,8.38,0,0,0-1.68,1,8.08,8.08,0,0,0-2.19,3c-1.36,4.15-.61,8.28.17,12.4l2.27,5.24C30.43,86,30.44,87.8,31,89.39L33.18,98a2.3,2.3,0,0,0,2.2,1.56,2.91,2.91,0,0,0,1.31-.54l-1.38,3.22c.31,5.41,3.51,9.85,5,14.86A6.81,6.81,0,0,0,44,121c5,1.85,9.67,1.11,14.58-.71,5.76-2.14,10.54-5.62,15.32-9.25,8.79-5.51,18.23-10,26.24-16.73.28-.24.33-.67.71-.82l5.59-7.75c-.12-3.4.7-5.87,3.75-8a20.82,20.82,0,0,0,7.46-10.36C120,60.82,118.21,56.71,112.11,54.27Z" fill="#cc5e61"/><path id="neckline" d="M102.17,130.81l1.9,3.12a4.56,4.56,0,0,1-1,3c0,2.81,0,5.61-.11,8.41,0,.82-.26,1.82-1.3,1.74-.77-.06-.64-1-.61-1.59C101.27,140.59,100.38,135.6,102.17,130.81Z" fill="#b54449"/><path id="neck_shadow" d="M85.08,106c-.22,4.55-5.18,3.69-7.3,6.39-2.89,3.69-7.45,5.81-11.22,8.6-2.49,1.85-5.69,4.68-9.73,3.9-2.1-2.21-4.73-2.6-7.6-2.2-2.34.33-4.59.44-5.19-2.65,10.51,2.43,18.9-1.73,26.46-8.5A5.53,5.53,0,0,1,74.06,110c2.42-.21,4-2.15,6.13-2.95C81.74,106.45,83.08,104.54,85.08,106Z" fill="#c25154"/><path id="jawline" d="M85.08,106a26,26,0,0,0-8.62,4.12c-.91.61-1.65,1-2.4-.13,6.52-4.87,14.07-8,20.82-12.52,2-1.35,4.39-2.43,5.48-4.93.29-.68,1-1.68,1.83-1s-.09,1.54-.52,2.18c-3.1,4.66-8.37,6.37-12.73,9.3C87.59,104,85.77,104.25,85.08,106Z" fill="#b33f45"/><path id="lips" d="M36.05,102c-1-.71-1-1.79-1.1-2.85L36.06,99l0,0c.25-.77.9-1.42.59-2.34-1.61-4.88-.06-6.94,4.88-6.71,5.26.24,10.52.32,15.78.49.45,0,1.15,0,1.29.31.35.65-.13,1.23-.58,1.73C52.52,98.7,47,104.83,37.27,101.28,37,101.18,36.46,101.73,36.05,102Z" fill="#c63745"/><path id="nostril_left" d="M40.83,81.53c-.35-.21-1.12-.34-1.35-.07-1.06,1.28-2.1,2.08-2.16,3.26l.92,1c1.68-.56,1.74-1.69,3.2-3.11C41.54,82.56,41.16,81.73,40.83,81.53Z" fill="#be4c4f"/><path id="nostril_right" d="M36.24,85.06a4.22,4.22,0,0,1-2.32-1.48c-.18-.19-.56.7-.33,1.11.7,1.24,2,1.55,3.37,2.06Z" fill="#be4c4f"/><path id="eye_left" d="M53.06,59c-2.77.82-3.64-2.23-5.74-3-.79-.27.1-2,1.16-2.71C53,50.27,57.86,50,63,51.17c.21.87-.34,1.26-1,1.6-2.67.85-6.31.07-7,4.21A4.51,4.51,0,0,1,53.06,59Z" fill="#2a090b"/><path id="eye_lashes_left" d="M61.9,52.09,63,51.17c1.13.26,2.48.53,2.68,1.81s-1.25,1.35-2.06,1.7c-3.48,1.5-7,2.87-10.52,4.29l1.09-2.08C56.05,54.18,59.25,53.57,61.9,52.09Z" fill="#5d1c21"/><path id="eye_white_left" d="M61.9,52.09c-1.52,3.32-5,3.47-7.75,4.8-.82-2.57-.29-4.2,2.8-4.28C58.6,52.56,60.25,52.27,61.9,52.09Z" fill="#c6a1a3"/><path id="brow_left" d="M62.36,39.26a4,4,0,0,0-1.44-.13c-5.63-2.62-10.93.53-16.36,1-1.6.16-4.87.57-4.57,1.48.84,2.45,3.59,1.48,5.62,1.25a33.62,33.62,0,0,0,4.27-1.2c3-.77,5.95-2,9.16-1.66.76,1.09,2,.94,3.09,1.11,1.51.22,3.53,2.51,4.07,1.11S63.93,40,62.36,39.26Z" fill="#7c161d"/><path id="eye_right" d="M26.94,62.31l.26-1.44,3.91.29a2.16,2.16,0,0,1-.29,2c-.2.3-.42.59-.63.88A2.83,2.83,0,0,1,28.05,66l-1-1-.3-2.25Z" fill="#0d0101"/><path id="eye_lashes_right" d="M30.07,63l1-1.81.94.49a.9.9,0,0,1,.07,1.09l-.1.42A1.47,1.47,0,0,1,30.07,63Z" fill="#5d1c21"/><path id="eye_white_right" d="M30.07,63l2,.19c-.27,1-1.14.79-1.83.92Z" fill="#e4cacb"/><path id="brow_right" d="M24.3,44.21C25.7,43.12,25.47,41,27,40a9,9,0,0,1-.46,3.87c-.7,2-1,3.57,1.86,1.65.39-.26,1-.46,1.24.15A1.71,1.71,0,0,1,29.45,47c-1.05,1.48-2.23,2.84-4.16,3.21-1,.17-1.53-.21-1.32-1.3l0,.07c.8-.46.55-1.47,1.09-2.07Z" fill="#7a2229"/><path id="ear_curve_left" d="M109.16,53.94a2,2,0,0,1,2.06.92c-1.27,1.67.17,3,.52,4.53.46,2,.7,3.92-.31,5.77s-2.82,3.79-4.92,3.53c-2.49-.31-1.12-2.94-1.42-4.56a3,3,0,0,0-1-2.13h0c2.33-1.6,1.77.51,2,1.57s-.58,2.71,1,2.91,2.46-1.37,3.06-2.73c.89-2,0-3.86-.61-5.68C109.1,56.67,108.07,55.43,109.16,53.94Z" fill="#b84a4f"/><path id="hair" d="M54.38,126.35c-.29,1.6-.31,3.29-1.19,4.76h0a4.59,4.59,0,0,1-2.23,1c-3.27,1.09-6.94.21-10.08,2-6.9-2.81-13.34-6.76-20.74-8.36a1.06,1.06,0,0,1-.11-1.76l1-.81c4.59-6.47,8.72-13.18,11.17-20.82A15,15,0,0,0,33.18,98L35,99.12a1.36,1.36,0,0,1,.79,1.36,5.64,5.64,0,0,0-.48,2.27,5.72,5.72,0,0,0,.42,2.08c0,.08.06.16.08.24a7.61,7.61,0,0,0,1,3.39,33.58,33.58,0,0,0,1.41,3.19,1.28,1.28,0,0,0,.1.17.31.31,0,0,1,0,.08c1.06,3.57,2.16,7.4,5.66,9.32a13.22,13.22,0,0,0,7.74,1.18l.49.21C53.92,122.33,54.71,124.55,54.38,126.35ZM146.72,128a19.55,19.55,0,0,0-1.4,4.2h0c-2.72,2.76-3.3,7-6.53,9.41-3.25.8-6.57.23-9.85.38-2.33.11-4.3-1-2.18-3.6,5-6,3.49-12.84,2.86-19.44a80.71,80.71,0,0,0-4.8-19.57,79.75,79.75,0,0,0-3.24-8.17c1,3,2.65,5.71,3.3,8.82,3.36,9.51,5.59,19.21,5.18,29.4-.25,6.42-3.09,10-9.35,11.28-5.18-1.55-9.36-5.78-15.17-5.65a7.13,7.13,0,0,1-1.42-.46c-1.64-.76-1.35-2.52-2-3.81a227.33,227.33,0,0,0,3-37.12c0-2,0-4,0-6,0-4.4-1.73-9.07,4.68-11.49,2.83-1.07,4.8-5,6.08-8.26,2.18-5.68,2.72-10.62-4.73-13.1-.66-.38-1.63,0-2.06-.92L105,51.11c-2.32-.79-3.13.84-4.13,2.42-1.66,2.61-2.9,5.53-5.33,7.61-2-2.5-2-5.82-3.51-8.48-.33-.55-.62-1.12-.92-1.69-1.07-.78-1.37-2.06-2-3.13C87.42,44.9,84.74,43,82,41,72.52,37.8,65.86,31,60,23.3c-1.85-2-.67-3.14,1.1-4.12a17.4,17.4,0,0,1,4-1.52,1.49,1.49,0,0,1-.87-1.08c-.52-1.69,1.35-2.32,2.61-3,.92-.49,1.77-1.11,2.69-1.59a8.58,8.58,0,0,0-4.9,2c-.48.4-1.1,1.14-1.66.51s.33-1.08.7-1.56,1.62-1.46,1-2c-1.08-.9-1.72.59-2.18,1.22-1.38,1.93-3.28,3.26-5,4.84-.83.77-1.65,1.13-2.45,0l-3.88-4.85a1.13,1.13,0,0,1-.58.1c2.21,2.75.63,5.24-.53,7.76-3.15,1-6.27,2-9.44,2.9C32,25.34,28.59,31.93,27,40c-1.06,1.31-.26,3.82-2.73,4.22-4-7.5-2.62-17,3.51-23.74,1.56-1.73,3.49-3.18,4.83-5,4.18-5.87,9.06-10,16.93-8.36,1.54.33,3-.46,4.27-1.17C66-.83,79.19-.1,92.32.15A13,13,0,0,1,100.12,3l-.26.29a1.62,1.62,0,0,1,.17.48l.18-.1a7.55,7.55,0,0,1,1.25.19.45.45,0,0,1,.6.32c.57,1.27,2,1.19,3,1.87,3.35,1.83,7,3.21,9.18,6.7,1.26,3,4.09,4.62,6.06,7,1,1.17,2.87,1.94,2,4a17.55,17.55,0,0,1-1.79-.28c1.68,1,3.29,2.11,4.92,3.18,4.16,3.64,5.89,8.93,9,13.27,7.43,15,14.44,30.26,16.24,47.2.68,6.41.43,12.92.6,19.38C152.23,114.21,149.08,121,146.72,128ZM120.83,89.35c-.73-1.85-1.58-3.64-2.41-5.44C119.2,85.73,120,87.56,120.83,89.35Z" fill="#120101"/><path id="hair_lines" d="M105,6c-1.39,0-2.83.12-3-1.87A5.07,5.07,0,0,1,105,6ZM66.5,11.62c-.49.17-.89-.1-1.62-.63-2.44-1.77-2.21-.58-4,1.32s-3.43,3.58-6,4.15c-1.41.76-3,1.41-2.76,3.46,3.45-.79,5.26,2.26,7.89,3.38-.61-1.45-.17-2.26,1.3-3,2.49-1.22,5.2-1.56,7.79-2.34.55-.55,1.63-.84,1-2-1.81-.54-4.6,1.69-4.88.55-.56-2.3,3.1-1.24,4.06-3,.35-.65,1.2-1,1.83-1.52C69.65,10.59,68.1,11.08,66.5,11.62ZM51.07,12c-1.24-.2-2.2-2.59-3.23-1.34s1.68,1.56,1.92,2.81,2,3.16,1.35,3.13c-5.65-.29.16,2.61-1,3.4l2-.09,3-2.92C55.3,14.08,53.31,13,51.07,12ZM128.75,141c-1.69.34-2.53-.08-1.25-2.08,1.4-2.19,3.47-4.12,3.55-7,.34-11.38-.79-22.51-6-32.89-.59.07-.67.67-1,1,2.57,8.85,5.33,17.64,5,27.07-.26,8.77-1,10.11-9,12.9.33.42.67.83,1,1.24,5.85,1.8,11.86.86,17.81,1.07L139,141C135.6,141,132.2,140.28,128.75,141ZM83.89,17c14.77-.25,28.74,2.49,41.17,11-.14-2.18-1.75-3.45-3-4.94-1.47,1-2.45-.33-3.49-.85-15.46-7.66-31.76-8.63-48.5-6.19l-1,2C74,16.68,78.93,17.07,83.89,17Zm64.69,72c-3.11-8.29-9.25-14.3-15.39-20.3-.27-.26-1.13-.41-1.24-.26-.56.74.22,1.14.64,1.53a71,71,0,0,1,15.06,20.11,6.38,6.38,0,0,0,.92,1.11l.43-1.1Zm-27.5,1h0c-.12,3.67,2.36,6.56,3,10l1-1C124.84,95.5,123.19,92.65,121.08,90Zm0,0c.28-2.82-1.87-4.89-2.36-7.49-.06-.32-.79-.82-1-.74-.63.23-.29.81-.12,1.26.91,2.46,1.46,5.09,3.5,7ZM46.94,16.46a1.52,1.52,0,0,0-.72-1,.61.61,0,0,0-.8.77,3.69,3.69,0,0,0,.65,1C46.87,17.38,47.06,16.93,46.94,16.46ZM39.57,14.1c-.26,0-.53.26-.8.4.27.14.53.4.8.4s.54-.25.81-.4C40.11,14.36,39.84,14.1,39.57,14.1Zm3.2.9c-.28.28-.2.64.19.7a.87.87,0,0,0,.74-.35c.1-.17-.1-.51-.17-.8A3.55,3.55,0,0,0,42.77,15ZM99.64,5.9c1.33.06.5-1.2.43-1.9-4.54,1.08-9.33.42-13.8,2-3.15,1.13-6.86,1-9.2,4C84.51,8.19,91.79,5.54,99.64,5.9ZM76.07,11c-2.11-1.87-3.7-1.14-5,1C72.87,12.33,74.35,11.08,76.07,11Z" fill="#1b1113"/></g></g></svg>
