<svg xmlns="http://www.w3.org/2000/svg" viewBox="0 0 167.85 158.11"><defs></defs><title>full_1</title><g id="poca"><g id="_1" data-name="1"><path id="shoulder_left" d="M123.05,157l-13.9,0a32.41,32.41,0,0,1-7.62-8.91c-.11-2.69,1.89-4.3,3.23-6.24a3.21,3.21,0,0,1,1.35-.44c3.85.91,6.5,3.92,9.69,5.93a32.73,32.73,0,0,0,6.63,3.11C122.5,152.68,124,154.74,123.05,157Z" fill="#cd5f61"/><path id="shirt_dark_left" d="M123.05,157c-.26-2-2.55-3.66-1-6a2.5,2.5,0,0,1,2.16-.89c4.77.84,7.23-1.77,8.8-5.76a2.35,2.35,0,0,1,1.26-1.38l2.78,1c3.93,3.62,4.8,7.94,3,12.88Z" fill="#faab8a"/><path id="shirt_light_left" d="M140.05,156.93c.11-4.54-.56-8.91-3-12.88,5.82,1.82,8.28,7.13,11.82,11.32,1.05,1.24.31,1.69-1,1.68C145.32,157,142.68,157,140.05,156.93Z" fill="#f9baae"/><path id="shoulder_right" d="M7.19,140c6.55,1.34,12.9,4,19.79,3.1,2.66,4.63,1.27,9.77,1.86,14.66-8.59.1-17.18.12-25.77.33-2.49.06-3.09-1-3-3.21.17-4.29.13-8.59.18-12.88C1.79,138.65,4.5,139.38,7.19,140Z" fill="#cd5d61"/><path id="neck" d="M41.17,142.37c6-.94,8.72-6,11.62-10.21A175.21,175.21,0,0,0,71.12,96.37c.3-.78.66-1.53,1-2.29.81-1.22,1.67-2.93,3.31-2.21,1.94.86.31,2.47.16,3.8-.46,4.31-2.27,8.51-1.15,13,.53,4,3.71,6.57,5.45,9.91,2.33,5.9,6.77,10.32,11.09,14.61,3.7,3.68,7,7.81,11.39,10.82.33,2.27-1.67,3.74-2,5.8a35.76,35.76,0,0,0-3.08,7.3c-17.49.37-35,1.12-52.47.56A2.61,2.61,0,0,1,42,155.06a9.68,9.68,0,0,0-1.7-4.5A12.91,12.91,0,0,1,39.8,146,4.6,4.6,0,0,1,41.17,142.37Z" fill="#cc5e61"/><path id="necklace_left" d="M102.14,147.87c2.52,2.92,5.59,5.41,7,9.17a72,72,0,0,1-11.84,0c-1.07-3,.59-5.31,1.81-7.75C100,148.47,100.76,147.57,102.14,147.87Z" fill="#658297"/><path id="necklace_right" d="M28.84,157.78c-3-4.58-1-9.8-1.86-14.66,3.88-2.43,8.1-.86,12.17-1,1.31,1,.48,3,1.79,4.07l.27,4.74c1.16,1.15.54,3.09,1.86,4.16,0,1.29,1,1.86,1.77,2.55A113.92,113.92,0,0,1,28.84,157.78Z" fill="#588aa1"/><path id="face" d="M159.86,92.26c.08,4.58-1.35,8.79-3.31,12.85-2.16,1.47-2.47,4.14-3.92,6.07a17.64,17.64,0,0,1-1.45,3l.11,0a8.48,8.48,0,0,0-3,4,5.66,5.66,0,0,0-1.14,2.3,70.38,70.38,0,0,1-6.74,9.62c-1.61.77-2.63.52-2.27-1.5.21-1.16,1.16-2,1.76-3,1.58-2.64.57-4.34-2.2-4.51-6-.37-11.27,2.25-16.51,4.75-1,.46-.67,1.31-.42,2.16a11.58,11.58,0,0,0,9.45,7.73c1.78.17,3.7-.22,5.17,1.26a2.24,2.24,0,0,1-.27,2.08l0-.06c-.81.62-.56,1.77-1.23,2.46-2.83,9.57-7.8,11.39-17.06,6.63-3.56-1.84-6.4-4.58-9.76-6.62a11.6,11.6,0,0,1-1.21-.75c-.38-.27-.74-.56-1.09-.86l-.53-.45c-3.51-2.43-6.24-5.82-9.88-8.12q-7.31-6.31-14.28-13a19.49,19.49,0,0,1-6.09-10.53,35.45,35.45,0,0,1,2.33-14.41c.22-.61.64-1.41.27-1.86-.74-.89-1.39.16-2,.46-2.31,1.1-4.64,1.61-7.12.63-4.1-4-5.88-9.11-6.58-14.62-.33-2.64.34-5,3.3-5.92,2.89-.62,4.13.84,4.91,3.47.65,2.17.84,5.16,4.42,4.76,2.28-.55.24-6.43,4.89-4,.28.15.25.55.36.18s-.08-.34-.25-.43c-4.79-2.46-2.73,4.43-5.84,4.26-4.53-3.46-5-6-2.06-10.09,4-1.83,7.72-4.85,12.45-2.07,2.23,2.09,1.8,5.56,4,7.69,1.79-2.12,3.24-4.49,5.31-6.42,2.56-2.38,5.89-3.68,8.36-6.16,6.39-5.94,15.06-8,22-12.94,2.15-1.16,4.38-2.16,6.5-3.39,4.51-2,8.86-4.53,14.06-4.31,5.35.62,10.85.64,15.67,3.6a10,10,0,0,1,2.06,2.48c2.15,4.3,2.26,9,2.51,13.63v2.8c.3,1.31-.67,2.83.65,4a4,4,0,0,1,.67,3.75c-2.42,1.47-3.38-.76-4.76-1.89-.34-.28-.55-.73-1-.82a2.4,2.4,0,0,0,.71,1.23c1.29,1.67,3.36,2.59,4.36,4.54.24.39.49.78.76,1.15l-4.86,7.71c-1.5,1.9-4.41,1.23-5.86,3.22-.28.31-.58.61-.85.93-.55,2.55,1.3,1.46,2.25,1.39C157.4,90.3,159.19,89.9,159.86,92.26Z" fill="#cc5e61"/><path id="neck_shadow" d="M102.08,144.08A9.49,9.49,0,0,1,96.9,141c-3.35-3.67-7.16-6.93-10.42-10.67-2.94-3.38-6.06-6.76-7.37-11.26,2.15-1.43,3,.62,4,1.66a99.7,99.7,0,0,0,12,10.35c4.15,1.62,6.59,5.35,9.9,8a5.64,5.64,0,0,1-.69,3.22C103.8,143.12,103.76,144.68,102.08,144.08Z" fill="#c25154"/><path id="jawline" d="M90,125.9c-5.48-5.48-12.61-9.65-14.91-17.81-.19-6.17,1.72-11.94,3.4-17.75.18-.64.56-1.35-.09-1.78s-1.28,0-1.73.52a9.45,9.45,0,0,1-8.51,3c.76,1.76,3,.7,4,2,1-.55,2.36-1.8,2.81-1.52,1.35.83-.37,1.83-.39,2.82-.09,4.58-3.07,9.07-.48,13.75-.31,4.32,3.69,6.46,5.06,9.93,3.38.61,4.81,3.69,7.08,5.68,2.79,2.45,5.36,5.14,9,6.33C93.78,129,91.72,127.63,90,125.9Z" fill="#b54449"/><path id="chin" d="M134.24,142.13c.1-.2.2-.4.29-.6l-.43-.51c-.5.41-1.22.73-1.46,1.26-3.84,8.32-7,9.16-15.1,4.89-3.8-2-6.68-5.18-10.5-7l-.93-.16a5.33,5.33,0,0,1-1-.89h0c-1.24.69-.93,1.91-1,3l-2,2c-.94,1.77-2.49,3.2-3,5.24l3-1.45c0-2.46,3.1-3.24,3-5.72l.9-.14c1.77,1.21,3.39,2.86,5.35,3.56,3.84,1.36,5.84,6.21,10.69,5.49,8.38.43,9.25-.14,12.22-8A1.85,1.85,0,0,1,134.24,142.13Z" fill="#b54449"/><path id="lips" d="M135.3,137.18c-6.9.81-12.38-1-15.46-7.87-1.07-2.38-1.74-3.93,1.64-5,4.32-1.39,8.28-3.89,13-4.19a13.26,13.26,0,0,1,2.89-.32c1.9.31,4.37.12,5,2.45.49,1.76-.55,3.41-1.71,4.94-.45.6-4.45,1.81-.21,3a18.28,18.28,0,0,1-4.1,7.81A1.09,1.09,0,0,1,135.3,137.18Z" fill="#c43749"/><path id="lips_shadow_bottom" d="M128.15,129.28c2.7-.78,5.43.8,8.12-.13,1.07,4.66-3.05,1.57-4.25,2.84C131,130.68,128.75,131.16,128.15,129.28Z" fill="#a1404a"/><path id="teeth" d="M128.15,129.28a3.12,3.12,0,0,0-2.24-.71.83.83,0,0,1-1.06-.72.71.71,0,0,1,.83-.85c3.62.27,7.48-.63,10.59,2.15C133.6,131.65,130.87,129.87,128.15,129.28Z" fill="#da9497"/><path id="nostril_left" d="M143.64,116.8c-.48-.2-.88-.24-1-.45a.92.92,0,0,1,.12-.86,3,3,0,0,1,1.22-.81c1.58-.44,2.44-2.26,4.25-2.18,0,0,.16.68,0,.78C146.71,114.5,145.12,115.68,143.64,116.8Z" fill="#b4464b"/><path id="nostril_right" d="M139.69,114.69a20.11,20.11,0,0,1-2-2.4c-.32-.5.21-1,.78-.83a3.29,3.29,0,0,1,2.32,2.32C141,114.36,140.57,114.68,139.69,114.69Z" fill="#b9454b"/><path id="eye_left" d="M153.13,88.15c1.13-3.61,4.34-2.8,7-3.26,2,2.51-.7,4.89-.22,7.37-1.81-2.35-3.92-.07-5.87-.38-1-.17-2.45.45-2.78-1.17s.28-2.53,2-2.63a.72.72,0,0,1,.37.79,1.51,1.51,0,0,1,.09.41s.23-.34.22-.33-.15-.36-.15-.35A.93.93,0,0,1,153.13,88.15Z" fill="#29151a"/><path id="eye_pit_left" d="M154,90c-.26.88-.81,1.49-1.6.69s-.28-1.4.59-1.79C153.62,89,153.66,89.64,154,90Z" fill="#cc5e61"/><path id="eye_white_left" d="M154,90a1.23,1.23,0,0,1-1-1.1,1.11,1.11,0,0,0,.24-.86l-.06.07,1,.24.13.51Z" fill="#f7c1b6"/><path id="brow_left" d="M164.9,75.09c0-.71,0-1.41,0-2.12-2.37,0-3.23-1.93-4.49-3.39-.75-.86-1.11-3.08-2.7-1.8-1.19,1-.65,2.82.53,4,1.89,1.79,3.9,3.47,5.85,5.19a1.49,1.49,0,0,0,.84.26Z" fill="#7a1d23"/><path id="eye_right" d="M129.16,83c1.68-.21,3.31,1,5,.15.38-.68.66-.65.84.12,2.11,1.5,3.64,2.79-.31,4-2.5.78-4.4,3.88-7.57,1.73a7.13,7.13,0,0,1-1.25-1,2,2,0,0,1-.14-1,3.22,3.22,0,0,0-.08-1.54c-.33-.85-1.25-1.62-.35-2.63A5,5,0,0,1,129.16,83Z" fill="#24090a"/><path id="eye_line_bottom_right" d="M126.06,87l1,2c-2.07-.28-4-.87-5.06-2.87l.12-.15a2,2,0,0,1,1.15-.53A3.36,3.36,0,0,1,126.06,87Z" fill="#591e23"/><path id="eye_lashes_right" d="M129.16,83c-1.35.28-2.9-.43-4,.82a1.44,1.44,0,0,1-1.37.83c-.39.07-.89-.26-1.15.33,0,0,0,.43,0,.44s-.14.43-.14.43-.35.29-.35.29c-.32-.06-.73,0-1-.2-1.67-1.37-5.35-1.88-4.33-4.47.91-2.33,3.8-.26,5.71.19C124.7,82.22,127.18,81.42,129.16,83Z" fill="#441518"/><path id="eye_lid_top_right" d="M135,83.3h-.43l-.41-.13c-1.51-3.88-3.89-6.45-8.52-5.7-.76.12-1.87.36-1.74-.9.09-.81,1.1-.45,1.71-.5C132,75.56,134.35,77.35,135,83.3Z" fill="#c04e54"/><path id="eye_white_right" d="M126.06,87l-3-1.11a10.81,10.81,0,0,1-1-.7l-.1-.12c-.15-1,.13-1.51,1.23-1.21l1.85-.05c1,.36,2.45.4,1.88,2.16a5.19,5.19,0,0,1-.91,1Z" fill="#caacae"/><path id="eye_white_shadow_right" d="M123.26,83.9,122,85.11c-.86-.2-1.78-1-1.35-1.55C121.34,82.69,122.43,83.37,123.26,83.9Z" fill="#97838b"/><path id="brow_right" d="M145.57,67.34c-.38-1.33-1.82-.39-2.53-.15a15.44,15.44,0,0,1-7,.32c-5-.67-9.79,0-14.65.64a5.21,5.21,0,0,0-4.25,1.92l.06.06a1.6,1.6,0,0,0-1.08.93,2.08,2.08,0,0,0,2-.82c1.16,0,2.36.13,3.23-1a83.18,83.18,0,0,1,12.2.67c3.25.5,6.78,1.23,10-.54C144.46,68.89,145.85,68.35,145.57,67.34Z" fill="#841d22"/><path id="ear_curve_right" d="M80.65,79.35c-.91-1.79-.41-4.82-3.1-5-2.22-.18-3.17,1.91-3.64,4a8.92,8.92,0,0,1-.82,1.78c-4-3.39-4.37-5.1-2-8.84l-1.91-.06C68,72.31,66.07,71.55,65.1,73c3.38-.31,2.86,2.77,4.05,4.46s.85,5.85,5,3.63c1.7-.65,2.32-8.42,5.31-.82.08.19.79.33.82.28C80.44,80.17,80.79,79.63,80.65,79.35Z" fill="#be4e52"/><path id="hair" d="M166.65,49.17c2.18-4.64,1.16-7.12-1.34-10.29a1.93,1.93,0,0,0-.54.26,9.08,9.08,0,0,1-4.84-5.89L149.15,22.92c-9.07-9.05-20.53-14.51-31.47-20.71a17.86,17.86,0,0,0-11.13-2C90.27,2.34,75.94,8.84,64.3,20.47c-9.1,9.1-15.74,20.1-22.24,31.13C35.82,62.2,30.32,73.14,27.12,85.1a2.15,2.15,0,0,0-.5,1.84c.16,1.4-2.06,2.85-.32,4a1.61,1.61,0,0,0,1.4.23,104.26,104.26,0,0,0-13.06,12.11C9.12,108.44,5.55,115.15.77,120.88c-1.41,5.7-.43,11.48-.53,17.23,1.77,2.52,4.87,2,7.24,3.1,6.33,2.4,12.75,4.2,19.63,2.87,3.77-.91,7.61-.47,11.43-.64.8,0,1.59,0,2.39-.08,3.77-.2,6.42-2.24,8.83-5,6.89-7.87,11.36-17.19,16-26.37,2.92-5.75,5.95-11.52,6.87-18.06-.76-2.4-3.31-.56-4.51-1.89a25.51,25.51,0,0,1-5.91-14.33c-.2-2.16-.3-4.49,2.86-4.72,1.42-1.07,3.65.42,4.81-1.5,3.36-2.58,7.33-3.61,11.37-4.49l2.52-.56c-1,.53-1.54,1.3-.71,2.68a46.87,46.87,0,0,0,1.45,4.72c.62,1.51.57,4.06,2,4.29,2.18.34,2-2.54,3.17-3.82a71.82,71.82,0,0,1,5.21-5.26c1.94-1.78,4.56-2.7,6.24-4.83,1.35-1.6,1.14-2.45.2-2.65a72.87,72.87,0,0,0,10.85-4.86c1.63-.9,3.68-1.31,4.06-3.58,2.78,1,4.58-1.42,6.89-2.07a16.11,16.11,0,0,0,5.92-2.93,39.17,39.17,0,0,1,9.34-4.56c7.46.67,14.88,1.52,21.95,4.21a3.27,3.27,0,0,0-.2,1.19q1.51,7,3,14h0c0,1,0,2,0,3A4.4,4.4,0,0,0,164,66c0-1,0-2,0-3h0C164.72,58.35,164.85,53,166.65,49.17Z" fill="#110000"/><path id="hair_lines" d="M35.15,87.4C27.51,91.83,21.3,98,15,104a144.13,144.13,0,0,0-12,15.2C2.45,120,2,120.92.77,120.88c3.86-7,8-13.82,14.12-19.11a30.37,30.37,0,0,1,3.29-3.58c4.34-3.47,6.92-8.07,8.94-13.09.63,1.82-1.43,4.5-.32,5,1.75.84,3.33-1.61,5-2.56,5.48-3.07,10.87-6.32,16.29-9.49,1.58-.47,3.15-1,4.74-1.39s2.64-2.2,4.5-1.15c-1.08,1.37-2.75,1.78-4.21,2.48C47,80.94,41,84,35.15,87.4ZM160.33,32.84a44.1,44.1,0,0,0-11.18-9.92,5.47,5.47,0,0,0,.59,1.79c.62.73,1.76,1.35,1,2.38s-1.78-.24-2.7,0l-1,0c-.73-1.22-1.92-.95-3-1l-1-.05c-.33-.34-.72-.61-1-1L140.16,25c-10.07-5.45-20.47-9.92-32-11-1.41-1.68-3.32-.74-5-1h-4c-6.28.09-12.59-.62-18.8.94-1,.24-2.45.12-2.33,1.26.14,1.32,1.55.69,2.4.52,6.87-1.39,13.8-.72,20.71-.78l-.3-.29a.7.7,0,0,1,.3.29c12.85.27,24.58,4.56,36,10-.7,1.24-1.93.93-3,1h-2l-5,0h-8a115,115,0,0,0-40,8.92c-8.77.75-16.35,5-24.29,8.23-.52.22-1.29.57-.82,1.37.1.17.89,0,1.31-.1,3.28-1.13,6.55-2.3,9.83-3.45a101.77,101.77,0,0,1,14-5c13.08-3.89,26.16-7.79,40-8h18.06a.56.56,0,0,1,1,0h2c.68.05,1.36,1.21,2,0l1.88,0-.08.12a1.8,1.8,0,0,0,1.51,1.73c4.68.9,9.13,2.62,13.73,3.81a1.89,1.89,0,0,0,.77-.4c-.49,3.76,1.06,5.83,5,5.88l.38-.35C164.52,36.15,162.53,34.41,160.33,32.84Zm.79,8.2a2,2,0,0,0-2-.93c-3.31,0-6.63-.18-9.93,0a32.48,32.48,0,0,0-20.05,8c4.73-1.21,8.84-4.56,14.06-4.09,4.51-1.6,9.14-.46,13.71-.6,2.67-.08,2.93,1.54,2.16,3.64.17.76.34,1.53,1.16,1.89,2.29-1.74,4.19-3.71,3.91-6.9Zm-45,12c-2.39,2.37-5.37,3.71-8.43,5C100,61.21,92,63,84.08,65.1c-5.2,1.41-10.48,2.75-14.93,6.06a1.51,1.51,0,0,0,1.91.06c3.94-1.09,7.43-4.77,12-2.09.27-.58.38-1.46.83-1.7,5.19-2.68,11-3.39,16.51-5.17,1.78-.58.69,1.2.75,2a70.71,70.71,0,0,1,13.19-7.74c3-1.43,6.59-2.48,8.81-5.42C120.47,50.53,118.62,53,116.09,53.07ZM61.56,90.35c-5.15,9.89-13.27,17.6-19.44,26.73A20.72,20.72,0,0,1,40.59,119q-8.22,8.3-16.48,16.55c-.55.56-1.68,1.26-1.24,1.88.69,1,1.44-.14,1.95-.64C31,130.68,37.72,125,43.11,118.08c.65-.5,1.52-.87,1.91-1.53,5.35-8.9,13.26-16,17.72-25.52.33-.69,1.56-1.49.89-2C62.54,88.21,61.92,89.67,61.56,90.35Z" fill="#1f1d22"/></g></g></svg>
