<svg xmlns="http://www.w3.org/2000/svg" viewBox="0 0 163.52 158.71"><defs></defs><title>full_2</title><g id="poca"><g id="_2" data-name="2"><path id="shoulder_left" d="M122.63,149.83l2.88,8.84-13.88-.07c-3.48-2.76-5-7.23-8.59-9.88a4,4,0,0,1-.33-2.14c2.26-4.85,2.82-5.14,6.56-2A21.34,21.34,0,0,0,122.63,149.83Z" fill="#cc5f61"/><path id="shirt_dark_left" d="M123.51,149.73a4.83,4.83,0,0,0,4-2c1-2.54,1-5.75,4.43-6.67.45.11.91.2,1.37.28.81.78,2.07.89,2.79,1.82a13.24,13.24,0,0,0,4.29,3.86,4,4,0,0,1,.88,1c1.46,3.5.49,7,.13,10.55l-15.93.07c-2.22-2.53-3.78-5.3-3.29-8.84A.8.8,0,0,1,123.51,149.73Z" fill="#fbac89"/><path id="shirt_light_left" d="M141.44,158.6c-2.22-3.45.69-7.32-.91-10.82,4.33-1.14,4.41,3.74,7.07,5l0,0a10.67,10.67,0,0,0,1.91,2.52c.44.47.64,1.1,1.11,1.54l-.06-.05a7.59,7.59,0,0,0,1.06,1.06l0-.07a.74.74,0,0,1,0,1Z" fill="#fab7aa"/><path id="shoulder_right" d="M.67,137.66c9.79,2.16,19.13,6.06,29.05,7.74a16.14,16.14,0,0,1,.08,13.18l-29.28.09c-1-2.26-.24-4.64-.46-6.95v-8C.3,141.72-.52,139.59.67,137.66Z" fill="#cc5d61"/><path id="neck" d="M102.08,144.93a8,8,0,0,0-3.84-4.35c-9.61-4.92-15.11-14-21.82-21.83-1.54-2.61-3.34-5.09-4.18-8.06a6.4,6.4,0,0,1-.75-2c-.12-.49-.21-1-.29-1.49-.31-3.19,2.33-6.9-1.68-9.44a111.76,111.76,0,0,1-12,30c-.57.52-.29,1.5-1,1.92l0,0c-.21.43-.58.75-.83,1.16a42.9,42.9,0,0,1-5.39,7.69c-2.35,2.67-4.62,5.26-8.54,5.28-.74,5.48.12,10.53,4,14.76l47.92,0a5.35,5.35,0,0,0,2.12-1.38,2.34,2.34,0,0,0-.18,1.43l4.24,0c-.78-.95,1.1-3.76-2.11-3a6.18,6.18,0,0,0-1.1.63c.39-.52.76-1.06,1.14-1.59a9.29,9.29,0,0,0,.66-1.09c.56-1.11,1-2.26,1.68-3.32.21-.36.42-.72.62-1.08s.46-.71.67-1.07c.11-.19.24-.37.35-.55a5,5,0,0,0,.48-1.23A3.89,3.89,0,0,0,102.08,144.93Z" fill="#cc5e61"/><path id="necklace_left" d="M103.55,148.37c4.27,2.17,6.07,6.29,8.08,10.23H99.78c-1.47-.49-.71-2.9-2.6-3a1.54,1.54,0,0,1,.42-1.79h0a5.75,5.75,0,0,0,1.46-2.54,1.87,1.87,0,0,1,.68-.91,7.24,7.24,0,0,0,1.18-1.29,2.82,2.82,0,0,1,1.49-.91A2,2,0,0,1,103.55,148.37Z" fill="#5c889f"/><path id="necklace_right" d="M29.8,158.58l-.08-13.18a15.77,15.77,0,0,1,12-1.56c.67,4.12,1.38,8.2,3.5,11.91a8.64,8.64,0,0,1,.5,2.85Z" fill="#58899f"/><path id="face" d="M161.08,66.64c-.29-1.51-.29-3.09-.62-4.6-.54-2.52-1.71-4.59-2.69-6.93-1.35-3.2-1-7-3.29-9.84-3.83-4.67-12.77-5.06-18.29-4.89-6.63.2-13.42,4-19.53,6.47s-13,4.59-17.82,9.44c-4.13,4.15-9,7.7-12.9,12.08-1.09,1.23-2.2,4.63-3.88,5-2.21.46-2.59-2.21-3.09-3.67-.6-1.76-1.42-4.49-3.41-5.14s-5.46,1.28-6.92,2.72a8.84,8.84,0,0,0-2.15,4,1.6,1.6,0,0,0-.16-.48c-1.13-2-4.6-.9-6,.18-4.41,3.51-1.32,13.79.94,17.9,1.4,2.54,3.73,6.11,7,5.82a6.74,6.74,0,0,0,3.65-1.54c.6-.49,1.63-2.53,2.37-2.61-3.9,5-4.36,15.87-1.74,21.37,3.21,6.71,9.46,11.48,15.16,16,4.87,3.85,9.66,7.83,14.58,11.59,4.2,3.21,8.09,7,13,9.19a18.48,18.48,0,0,0,8.33,1.8c3.19-.17,3.55-1.14,4.44-4s2.69-5,4-7.54l5.74-10.76c1.11-2.27,4.08-4.34,5.52-6a30.92,30.92,0,0,0,4.32-7,3,3,0,0,1,.95-1.31,7.08,7.08,0,0,1,1-1,29.54,29.54,0,0,0,2.91-6.73c.94-2.8,2.41-5.38,3.07-8.37.38-1.72,1.49-6.48-.15-7.93l2.16-6.41a34.67,34.67,0,0,0,2.23-3.61c.55-1.27-.29-3,.83-4,1.67-2.31-2.26-4.17-3.46-5.74,1.5.26,4.13,4,5,.72C162.41,69.69,161.29,67.72,161.08,66.64Z" fill="#cc5e61"/><path id="neck_shadow" d="M99.54,136.76c.65,1.1,1,2.58,2,3.22,3,2.05,1.84,3.86,0,5.79a9.88,9.88,0,0,0-6.07-5.15c-4.09-1.3-6.2-5.14-9-8-3.61-3.72-6.62-8-10.5-11.5-.47-.42-.32-1.54-.45-2.33q9.58,7.83,19.16,15.68A8.64,8.64,0,0,0,99.54,136.76Z" fill="#c25357"/><path id="jawline" d="M106.79,141.6c-2.23-1.83-4.22-4.14-7.23-4.84l0-1c-.37-.31-.66-.69-1-1-3.29-2.51-6.69-4.88-9.84-7.56-6.28-5.35-13.39-10-16.19-18.44-.58-5.93.57-11.66,2-17.36.16-.64.93-1.64-.07-2.1-.73-.34-.95.69-1.32,1.18a8.52,8.52,0,0,1-6.82,3.39c1.09,1.26,3.92,1.08,3.2,3.85,2.25,3.5.4,7.39,1.06,11,0,.33,0,.65,0,1a5.17,5.17,0,0,1,.9,1.08c.1,3.28,2.66,5.31,4.07,7.92,5.55,7.22,13.37,11.88,20.15,17.7a3.49,3.49,0,0,0,3.3.73l.54-.42c-.79,1.67.31,2.81,1.18,4a5.23,5.23,0,0,1,.84,5c0,.33,0,.67,0,1l-1,1h0c-.34.32-.66.66-1,1l-.09,1s-.1.05-.15.14a5.22,5.22,0,0,0-1.75,3.86c-2.17.9-2.49,3.34-4,4.8l1.94,0,2.13-3c0-.6,0-1.2-.07-1.8,2,0,1.94-1.52,2-2.92l1-.32a.72.72,0,0,0,.54-.67l1.4-1.57c.52-.39.51-1.13,1-1.55,1.14-2.69,2-4.66,5.28-1.47,3.68,3.53,8.33,5.75,13.82,4.54l.88-.1C117,149,111.75,145.65,106.79,141.6Z" fill="#b54449"/><path id="chin" d="M131.47,142c-2.66,1.34-1.2,4.63-3.92,5.78-.6-.09-1.72-.27-1.27-.89,1.91-2.63,2.3-6.25,5.31-8.14.16-.13.94-1.27,1.09-1.4.16.12-.14,1.39-.14,1.39l-.19.79C132,140.82,132,141.56,131.47,142Z" fill="#b65255"/><path id="lips" d="M139.31,124.45c-1.44-7.34-1.19-6-8.72-5.72-5.4.17-9.25,4.2-14.23,5.4-.84.21-.68,1.31-.49,2.18,1.23,5.64,5,8.86,10.74,10.07,2,.43,5,0,7.83-.56l1.23-1.1,1.89-3.63c.52-1.31-.21-1.62.91-2.52C139.64,127.3,139.92,125,139.31,124.45Z" fill="#c33b47"/><path id="lips_shadow_bottom" d="M130.5,129l3-.29a2.83,2.83,0,0,1-2.95,2c-.48,0-1.45.32-1.13-.77C129.58,129.59,130.14,129.33,130.5,129Z" fill="#9d3541"/><path id="teeth" d="M127.61,126.66a3.1,3.1,0,0,0-2.73-.84c-1.47.16-3.13-.91-4.4.65,1.46,1,2.78,2.43,4.82,1.43l1.3,1a.7.7,0,0,0,.94,0l3,.14a2.43,2.43,0,0,0,3-.29C131.89,127.08,129.52,127.54,127.61,126.66Z" fill="#d3798a"/><path id="nostril_left" d="M137.55,114.77c.08-.14.14-.34.27-.42,1.08-.61,1.86-1.79,3.28-1.73a1.64,1.64,0,0,1,0,.86c-.84,1.34-2.2,1.31-3.55,1.28Z" fill="#bb4a50"/><path id="nostril_right" d="M131.88,111.56c-.13-.73,0-1.34.51-1.1a5.48,5.48,0,0,1,1.68,1.55c.31.37.14,1.24-.17,1.1A9.36,9.36,0,0,1,131.88,111.56Z" fill="#b34249"/><path id="eye_left" d="M155.57,91.62c-.3-1.89-1.46-.8-2.15-.5a5.43,5.43,0,0,1-4.78-.23c-.78-.37-1.67-.73-1.47-1.66.1-.45,1-.84,1.59-1,2.29-.8,5-.14,6.92-2.25.18-.59.46-.67.86-.17h0c.31.3.61.62.9.94,1.53,2.07-1.85,3.06-1.09,5C156,92.19,155.79,92.17,155.57,91.62Z" fill="#3e1519"/><path id="eye_lid_top_left" d="M155.54,83.79a7.7,7.7,0,0,1,0,1,20.72,20.72,0,0,1-2.48-3c-.73-1.31-2.41.79-2.74-.94,0-.2.68-.71,1.12-.82,1.56-.41,3-.24,3.79,1.4A8.28,8.28,0,0,1,155.54,83.79Z" fill="#c15154"/><path id="brow_left" d="M162.13,70l-1.69,1.09a2.84,2.84,0,0,0-.38,0c-1.14-1.19-2.28-2.39-3.46-3.54-.44-.42-1.2-.86-1.67-.27a2,2,0,0,0-.22,1.78A9,9,0,0,0,159.15,73c.57.89,1.35,1.7,1.16,2.9A6.11,6.11,0,0,0,162.13,70Z" fill="#7a191f"/><path id="eye_line_bottom_right" d="M118.79,82.59c-.86.17-1.77.23-2.26,1.13.8.64,1.73,1.22,1.22,2.5-2.07-1-4.38-1.78-5.35-4.23-.15-1.13.15-1.79,1.46-1.42A9.49,9.49,0,0,1,118.79,82.59Z" fill="#4e171c"/><path id="eye_lashes_right" d="M113.86,80.57,112.4,82c-.38-.31-.78-.6-1.13-.94-.57-.53-1.68-1.1-1.23-1.83s1.46,0,2.15.32S113.31,80.23,113.86,80.57Z" fill="#691218"/><path id="eye_white_shadow_right" d="M117.75,86.22c-.4-.83-.81-1.67-1.22-2.5,2.46.13,4.07,1.15,4,3.88Z" fill="#896b73"/><path id="eye_right" d="M118.79,82.59c3.09.61,6.18,1.18,9.26,1.85.7.15,1.86-.08,1.88,1.07,0,.94-1,1.25-1.65,1.69-2.48,1.62-5.1.91-7.71.4-.78-2.07-3.49-2.24-4.24-4.35C116.9,82.09,117.82,82.24,118.79,82.59Z" fill="#2b0c0e"/><path id="eye_lid_top_right" d="M120.48,74.57c3,0,6,1,7,4.83.23.85,1.43,2.06.31,2.57a2.06,2.06,0,0,1-2.66-1.63c-.21-3.82-2.84-4.21-5.71-4.61-.95-.14-2.38.89-2.71-.67C116.69,74.78,118.66,74.12,120.48,74.57Z" fill="#c14f55"/><path id="brow_right" d="M139.55,64.63c-.18-1.69-2.37,0-3.59.07-7.09.49-14.2-1.38-21.27.19-2.23,1.37-4.86,2.24-6.1,4.84,3.09-.4,5.25-2.78,8-3.83a38.89,38.89,0,0,1,9.91.65,38.29,38.29,0,0,0,8.87.92C137.2,67.46,139.73,66.31,139.55,64.63Z" fill="#78141b"/><path id="ear_curve_right" d="M69.42,81.41c0,.45-1.57.56-1.86.33a21.42,21.42,0,0,1,.83-13.19,2,2,0,0,0-2.81.32L63.5,70.69c.73.45,3-.54,2,1.39-2.09,4.14-.21,7.25,1.85,10.45a6.47,6.47,0,0,1-1.06-.42c0,.4,0,.8,0,1.19,4,3.77,4.05.08,4.62-2.45S72,76.67,74,80.06c.21.37,1,2,1.23.69.45-2.46-1.22-4.87-2.55-6.68-.84-1.13-2.13,1.23-2.94,2.37-1,1.38-.5,2.77-.37,4.3Z" fill="#bd4d51"/><path id="hair" d="M162.71,41a6.26,6.26,0,0,0-.07-1.42.54.54,0,0,0-.18-.76c-3.91-5.49-8.33-10.4-14.75-12.31.68-.21,1.17-.76,1.15-1.92l0,0c-.77,0-1-.53-1.14-1.16a3,3,0,0,0-1.77-1.71c-5.55-3.84-10.32-8.74-16.33-11.93-1.37-.63-3-.81-4-2.05a38.45,38.45,0,0,0-10.73-5C111,1.7,107.13.19,103.12,1.05A104.23,104.23,0,0,0,76,10.6c-1.42.75-3.46,1.45-2.67,3.53a1.75,1.75,0,0,0,.66.93,39.89,39.89,0,0,0-8.78,4.58,3.29,3.29,0,0,0-1.77,1.94A148,148,0,0,0,49.88,41.14c-.59,1-1.35,2.11-.5,3.21a1.42,1.42,0,0,0,1.19.65,31.88,31.88,0,0,0-9,11.32c-4.09,6.47-7.11,13.47-10.27,20.4-4.31,12.5-12,22.65-20.85,32.37-6,6.61-11.35,14.5-10.07,24.57a8.05,8.05,0,0,0-.16,4,2.55,2.55,0,0,0,1.7,1.71C11.23,141,19.74,146,29.45,146c3.92-.59,7.82-1.44,11.83-1.33a7.76,7.76,0,0,0,6-1.72A30.67,30.67,0,0,0,56,132.3c.29-.61.58-1.22.88-1.83.22-.38.45-.75.65-1.14.48-.77,1-1.49,1.54-2.23A89.35,89.35,0,0,0,70.65,97.4c.14-3.13-2.35-3-4.33-3.51A27.69,27.69,0,0,1,59.7,75.68c0-2.72,1.06-4.45,3.8-5,.92-.64,2.23-.44,3-1.41,2.18-2.6,4.58-4.87,8.26-5A2.09,2.09,0,0,0,76,63.79a8.17,8.17,0,0,1,8.36-3.24l.24,0-3,1c-2.73,1-5.68,2.55-4.2,6.56.7,2.19,1.41,4.38,2.11,6.57.26.79.46,1.82,1.31,2,1.15.18,1.66-.94,2-1.79,2.36-5.15,6.68-8.48,10.87-12,1.77-1.46,3.73-2.74,4.93-4.8,0-1.24-.35-1.68-1-1.74q2.57-1.12,5.06-2.43l28.77-12c1.81-1,3.91-1,5.82-1.64-.11.68.74,1,2.11,1a23.57,23.57,0,0,1,9.06,1.67,9.11,9.11,0,0,0,4.65,2l2.37,5.82a1.06,1.06,0,0,0,.81.34.86.86,0,0,0-.11.92c.2.54.36,1.09.57,1.62s.29,1.13.53,1.66c.4.91.73,1.84,1.06,2.78a.66.66,0,0,0,.15.75c.56.58.46,1.41.81,2.07,1.51,1.39-.06,3.47,1.1,5v0a5.17,5.17,0,0,0,.86-.22v0l.26.26C164.72,57.65,163.2,49.29,162.71,41Z" fill="#110000"/><path id="hair_lines" d="M57.74,73.29c.31.75-.47,1-1,1.39-5,3.28-10.8,5-15.57,8.68a24.61,24.61,0,0,1-4,2.08l-.89-.18c.2-.38.3-.9.61-1.12A114,114,0,0,1,56.44,73.33C56.89,73.13,57.5,72.75,57.74,73.29Zm98.93-39.93c1.77,2,3.85,3.63,5.79,5.43-2.46-6.72-8.32-10.2-13.6-14.23-5.1,2.7-9.6.23-13.85-2.06-1.82-1-3.39-1.91-5.46-1.74a10.23,10.23,0,0,0-7-3,8.57,8.57,0,0,1-1-1C106.64,12.34,91.64,9.57,76.19,14c-.75.22-1.67.9-2.16-.09s.39-1.56,1.15-1.93c3.55-1.75,7-3.85,10.72-5.08C95.27,3.83,104.61,0,114.84,2.64A17.64,17.64,0,0,0,101.69.39,103.57,103.57,0,0,0,82,6.8c-3.85,1.58-8.24,2.65-10.63,6.7l-.11.1a22.46,22.46,0,0,0-6,6c.5,0,1.12.15,1.47-.09,7.38-5,15.89-5.21,24.29-5.76,12-.78,23.25,2.56,34.5,6a7.75,7.75,0,0,1,1,.94l2,0a5.87,5.87,0,0,0,1.14.89c1,.44,2.72.29,2.11,2-.45,1.26-1.72.19-2.63.19a160.14,160.14,0,0,0-21.08,1.78c-19.8,2.58-38.8,7.52-56.09,17.9-.53.32-1.47.74-1.77.51-.94-.71-.05-1.53.34-2.12,3.38-5.09,5.86-10.75,10.11-15.27,1.31-1.4,2.93-2.78,2.81-5.05-.61.54-1.27,1-1.83,1.61-8.94,9.34-14.27,20.94-20.2,32.17a.93.93,0,0,0,.24,1.48c4.06-5.43,8.2-10.68,14.44-14,10.48-5.49,21.62-9,33-11.85,13.67-3.45,27.49-5.76,41.65-5.24,3.46.13,6.9.69,10.35.94C147.06,27.18,152.47,28.72,156.67,33.36Zm-.11,6.39a6.36,6.36,0,0,0-5.26-2c-3.57,0-7.15,0-10.72,0l-9,4.1c5.74-1,11.34.45,17,1-2.31-2.24-5.25-2.13-8.15-2.13-1.29,0-.9-.4-.57-.79a3,3,0,0,1,1.76-.84c5.19-1.24,10,.36,14.94,1.64L156.43,43v.75a4.11,4.11,0,0,0,.91-.65,3.33,3.33,0,0,1-.8,1.65c1.31,2.4,1.57,2.33,4-1C159.58,42.07,159.21,39.78,156.56,39.75Zm-81,24-1,.06c-.08,0-.16.14-.23.4a.8.8,0,0,0,.25.79c1.72.33,1.67,2.26,2.83,3.09,0-4.1,3.4-5,6.2-6.13,3.66-1.51,7.47-2.63,11.25-3.83,1.22-.39,2.52-2.22,3.82-.07l4.11-4.17c-6.74.92-12.66,4.5-19.25,5.93C80.75,60.83,77.24,60.45,75.54,63.72ZM46.8,112.27c-.78-.2-1.1.42-1.48,1a148.88,148.88,0,0,1-22.6,25.49c-.32.29-.77.88-.67,1.09.29.61.88.23,1.25,0a22.75,22.75,0,0,0,2.4-1.72c6.21-5,10.64-11.68,16.15-17.36,2.15-2.2,3.66-5,5.42-7.5C47.06,112.79,47,112.31,46.8,112.27Zm5.31-6.68c-.55.92-.66,2.18-1.91,2.58a.83.83,0,0,1-.23-1.23c.55-.92.65-2.29,1.94-2.51C52.33,104.36,52.36,105.18,52.11,105.59Z" fill="#19131a"/></g></g></svg>
