<svg xmlns="http://www.w3.org/2000/svg" viewBox="0 0 165.47 165.68"><defs></defs><title>full_14</title><g id="poca"><g id="_14" data-name="14"><path id="shoulder_left" d="M136.05,142.73a35.39,35.39,0,0,1,5,22.81l-10-.12c-.91-1.15-.7-2.83-1.86-3.85.76-3.31-2.46-5.6-2.27-8.77-.8-1-.88-2.3-1.79-3.19a8.55,8.55,0,0,1-.17-.88c-.88-.88-.91-2.28-1.86-3.12-.11-1.62-2.77-2-2-4,2.85-1,5.28.72,7.9,1.17v0a5.32,5.32,0,0,0,4.25,0C134.16,142.92,135.08,141.54,136.05,142.73Z" fill="#ca5e5f"/><path id="shoulder_shadow_left" d="M136.59,143c-.14-.31-.8-.14-.83.2-.25,2.51,6.14,23.47,4.79,22.31C145.63,164.44,137.82,145.74,136.59,143Z" fill="#b54449"/><path id="shirt_dark_left" d="M136.05,142.73a2,2,0,0,1,1-.06c.89.62,2,.12,3,.59s1.92.71,2.9,1c1,.69,2.15,1.09,3.12,1.82a6.79,6.79,0,0,1,2.09,1,3.86,3.86,0,0,1,1.1.32,16.89,16.89,0,0,0,1.94,1.2l-.05,0c.5.69,1.46.5,2,1.07l0-.07a17.58,17.58,0,0,1,2.52,2.2c2.81,4.22,4.54,8.63,2.41,13.72l-17,0a4,4,0,0,1-1.18-2.69c.08-6.26-.88-12.26-4.07-17.79A2,2,0,0,1,136.05,142.73Z" fill="#fbab86"/><path id="shirt_light_left" d="M158,165.5c-.21-4.77-.55-9.51-2.91-13.82.33-.43.68-.47,1,0,1.71,1.5,4.36,2,5,4.69.82,2,2.68,3.44,2.93,5.72a15.41,15.41,0,0,0,1.06,1.61v-.07a1.33,1.33,0,0,1-.07,1.94Z" fill="#f8b8aa"/><path id="shoulder_right" d="M8.08,125.7l2-.74a30.7,30.7,0,0,0,9.66-.29c8.26,1.6,16.29,3.71,22.27,10.27.39,4.7,1.33,9.41-.92,14-.8,1.61,1.34,2.48,1.3,4.14-.08,3.11.12,6.22-.05,9.34a4.63,4.63,0,0,1-1.3,3.1c-12.63.06-25.26.07-37.89.2-2.32,0-3.21-.63-3.18-3.07.11-10.14.05-20.28,0-30.43,0-1.54,0-3.06,1.92-3.52A26,26,0,0,0,8.08,125.7Z" fill="#cc5e61"/><path id="neck" d="M110.09,165.43l-35.06,0c-5.38-1.43-11.22-1-16.2-4.08a9.59,9.59,0,0,1-1.9-1.28,5.18,5.18,0,0,1-1-1.27c-4.12-7.72-5.08-16-4.11-24.53.67-3.12,2.57-5.64,4.09-8.35,2.25-4.26,7-4.18,10.61-6.09A17.13,17.13,0,0,0,72.79,116a44.68,44.68,0,0,1,11.61-8.37,9.28,9.28,0,0,0,4.89-4.68c1.6-2,4-2.8,6-4.25,3.16-2.33,6.45-4.45,8.07-8.34.62-1.5,1.8-3.09,3.55-.78a52,52,0,0,1,.23,15.85c-1,8-.59,16.21-2.51,24.15a3.38,3.38,0,0,0,.7,2.81c1.71,2.45,4.33,4.31,4.87,7.51a6.05,6.05,0,0,0,1.37,3.65c1.74,2.26,2.4,5.05,3.72,7.52a5.42,5.42,0,0,1,.59,1.21c.36,2,.63,4.06,1.91,5.78a5.67,5.67,0,0,1-.16,4.39C115.76,165.05,112.72,164.73,110.09,165.43Z" fill="#cc5e61"/><path id="necklace_left" d="M108,133.72c4.46,2,9.14,3.61,12.85,7a2.87,2.87,0,0,1,.91.89c.37,1.44,1.86,2.22,2.21,3.69a6.75,6.75,0,0,0,1.52,3.27,6.94,6.94,0,0,1,.53,1.14,13,13,0,0,0,1.79,3.4c1.08,2.57,2.69,5,2.52,7.93-.14,1.57.88,3.47-1.26,4.48l-14,0c-.54-1.72,1.48-1.85,1.86-3,0-1.62,0-3.23.07-4.85-1.75-1.67-.11-4.42-1.94-6.06h0c-1.48-3-1.49-6.63-4.12-9.08a8.54,8.54,0,0,1-1.81-2c-.08-2.94-2.77-4.26-4-6.47C105.94,132.58,107,133.1,108,133.72Z" fill="#568aa2"/><path id="necklace_right" d="M41.15,134.48c3.85-.79,7.67-2,11.68-1,.05,2.62.19,5.26.11,7.88a29.89,29.89,0,0,0,3.76,15.28,8.67,8.67,0,0,1,.43,2.89c-1.64,4.91-6.45,4.43-10.09,5.95h-4c-1.07-.69-1.06-2.1-1.95-2.91A207.49,207.49,0,0,1,41.15,134.48Z" fill="#558aa2"/><path id="face" d="M115.61,55.21A6.15,6.15,0,0,0,111.25,54l-4.19-2.88a5.4,5.4,0,0,0-1-.95c-3-1.69-4.92-.54-6.38,2.16-.63,1.14-1.18,2.31-1.82,3.45-.88,1.55-1.73,2.64-2.76.1-.31-.76-.28-1.83-.9-2.38C90.53,48.4,87.61,41.54,80.7,40.7c-4.67-2.24-9.35-4.49-12.59-8.78a7.43,7.43,0,0,0-1-.87c-1-.66-1-1.8-2.15-2.11-.38-.07-1.43-1.89-1.44-1.59-.53-.31-2-1.34-1.89-1.49.22-.58-3.46-4-3.77-4.52-.3-.29-3.09-1.37-3.45-1.58-2.08-1.87-8.91,1.25-16,4.1-3.17,1.27-.67,1.33-4.12,1.79a7.67,7.67,0,0,0-4.52,3.66,33.78,33.78,0,0,0-5.19,16.87,15.69,15.69,0,0,0,.08,2.17c.67,1.08,1.64.18,2.45.38a17.18,17.18,0,0,0-2.22,1.67,3,3,0,0,0-.3,1.29,18.77,18.77,0,0,1-.22,4c.7,1.58.14,3.62,1.76,4.86.68,2,2.81,1.82,4.24,2.75a4,4,0,0,1-.58,1.45c-.35,1.75-3,.46-3.19,2.39,0,.74,0,1.48,0,2.22.3,2.67-.64,5.27-.49,7.94a15,15,0,0,0,.59,3.11C28.15,82,28.41,84.13,29,86.1a.31.31,0,0,0,.13.45c.26.4.61.73.86,1.13.72.51.51,1.49,1.06,2.09l3.08,7.74c.64.85.35,1.9.57,2.84,1.55,6.29,4.42,12.08,6.93,18a8.41,8.41,0,0,0,6.58,5.48c6.8.36,12.64-2.19,18.1-5.93,2.72-2.3,5.24-4.89,8.61-6.31,6.92-4.24,13.86-8.44,20.72-12.78,6.24-4,9.24-9.51,8.58-16.7-.39-4.23.88-5.58,4.88-4.62,4.65-2.71,6.39-7.56,8.77-11.94a9.53,9.53,0,0,0,.44-2.31C118.43,60.22,118.35,57.27,115.61,55.21Z" fill="#cc5e61"/><path id="jawline" d="M109,76.61c-2.11,1.12-3.41,2.51-3,5.26a40.74,40.74,0,0,1,0,6.81c-3.42,7-10.21,10.45-16,15-3.64,3.34-8.13,5.36-12.31,7.84-1.2.72-3,1.73-3.64-.82,7.15-4.45,14.3-8.92,21.48-13.34C101,94,103.34,89,103.06,82.74c0-1,0-2,0-3C103,75,103,75,107.48,76.55A5.64,5.64,0,0,0,109,76.61Z" fill="#af3e45"/><path id="chin" d="M66,116.67c.22.7.72,1.3,0,2.09-1.44,1.52-.11,1.7,1,1.89-1.89.93-3.73,2.45-5.7,2.63-2.46.23-3.09,2-4.39,3.33.26-2.56-.13-4-3.4-3.13-1.72.48-3.9.8-5.56-.77A30.7,30.7,0,0,0,66,116.67Z" fill="#b34247"/><path id="lips" d="M38.16,101.55c-.27-3.3-3.63-6.46-.18-10,1.12-1.14,1.87-1.87,3.67-1.73,5.67.45,11.34,1.61,17.05.51,1-.19,1.14.21.91,1C57.71,97.88,46.17,104,39.37,102c-.14,0-.22-.24-.33-.37A.53.53,0,0,0,38.16,101.55Z" fill="#c63645"/><path id="nostril_left" d="M39.06,85.65a6.32,6.32,0,0,1,.53-1.87A3,3,0,0,1,41.83,82c.24,0,.69.28.71.45.11,1.31-1.25,1.34-1.88,2A8.48,8.48,0,0,1,39,85.63Z" fill="#b34146"/><path id="nostril_right" d="M39,85.63a1.75,1.75,0,0,1-2.53.67c-.59-.3-1.41-.86-1.12-1.44.66-1.31,1.18.15,1.78.3s1.26.33,1.89.49Z" fill="#b6464c"/><path id="neck_shadow" d="M74.1,110.67c1.27,1.72,2.38.13,3.42-.29,4.41-1.78,8-5.2,12.53-6.73-.79,1.84-1.54,3.28-3.77,4.32a42.1,42.1,0,0,0-14,10.29c-1.46,1.67-3.37,1.86-5.23,2.39-3.08-.09-3.11-.19-1-4C68.53,114.42,70.85,111.92,74.1,110.67Z" fill="#c45356"/><path id="eye_left" d="M61.21,51.54,64,52a1.72,1.72,0,0,1,.94.71l0,0c.41.78-.06,1.32-.52,1.86L64,55a3,3,0,0,1-1.38.15c-2-1-4.08-1.85-6.37-.89-.95.69-.7,1.72-.76,2.67A2.1,2.1,0,0,1,55,58.1c-.92.64-1.85,1.22-3,.6a5.18,5.18,0,0,0-1-1c-1.19-.65-3.31-.3-3.36-2.14s2.1-2.13,3.38-3c.61-.5,1.47-.33,2.1-.79l2.8-.28A8.69,8.69,0,0,1,61.21,51.54Z" fill="#300f12"/><path id="eye_lashes_left" d="M65,54.67l-1-.21,1-1.76C66.44,53.35,65.74,54,65,54.67Z" fill="#511f25"/><path id="eye_line_bottom_left" d="M63.16,54.76c-2.49-3.09-5.38-2.89-8.48-1a2.12,2.12,0,0,0,.89.69c1.57,1.1-.74.94-.51,1.62-.09.2-.18.41-.28.62a2.42,2.42,0,0,1,.23,1h0l-3.07,1.1a1,1,0,0,0,0,.88l.14.14a2.8,2.8,0,0,0,1,.22L55,58.5c2.69-.85,5-2.83,8-2.89A.61.61,0,0,0,63.16,54.76Z" fill="#55161c"/><path id="eye_line_top_left" d="M61.21,51.54l-5.36,0A4.8,4.8,0,0,1,61.21,51.54Z" fill="#511f25"/><path id="eye_white_left" d="M54.53,56.76c-.26-.94-.87-1.9-.49-2.88a23.15,23.15,0,0,1,2.44-.44c1.05.05,2.72-.68,3,.48S57.91,55.18,57,55.74A25.61,25.61,0,0,1,54.53,56.76Z" fill="#e8c9c9"/><path id="brow_left" d="M60.83,39a6,6,0,0,0-.94-.27c-6.58-.81-12.63,1.91-19,2.83-.48.07-1.1.09-1,.7a1.57,1.57,0,0,0,.86,1,6.1,6.1,0,0,0,4.32.43c3.61-1.14,7.28-2.11,10.92-3.15a40.56,40.56,0,0,1,4.94.24c1.8.28,3.4,1.61,5.38,1.08C65.09,39.88,62.7,40,60.83,39Z" fill="#7d181e"/><path id="eye_right" d="M30.19,64.74c0,.71,2.08,2.23-.76,1.76a8.57,8.57,0,0,0-2.34.23c-.87-1.31-2-2.55-1.19-4.32l.21-1.83c1.34,1.19,3.1.66,4.61,1.14.86.28,2.47.31,1.34,2a.88.88,0,0,1-.89.26c-.22.06-.33-.64-.63-.09A.87.87,0,0,1,30.19,64.74Z" fill="#1d0709"/><path id="eye_white_right" d="M31.1,63.45l1,.29c-.27,1-1.1.94-1.87,1l.13-1.18A.46.46,0,0,1,31.1,63.45Z" fill="#f0cfce"/><path id="brow_right" d="M25.11,50.86l0-2.35c1.72-.34,3.42-3.48,4.15-2.24,1.18,2-1.52,3.27-3.27,4.28A4.65,4.65,0,0,1,25.11,50.86Z" fill="#801b20"/><path id="ear_curve_left" d="M106.16,51.57c1.89.61,3.82,1.14,5.09,2.84-1.2,1.76-.24,3.52.31,5.07a5.78,5.78,0,0,1-.82,5.64c-1,1.44-2.07,3.6-4.07,3.07s-2.47-2.44-1.77-4.5a1.5,1.5,0,0,0-.26-1.34c-.52-.41-2-.15-.84-1.44a2,2,0,0,1,1.33-.57c1.14-.05,1.23,1,1.36,1.72.23,1.4-1.65,3.94.81,4s2.71-2.72,2.79-5C110.22,57.22,107.67,54.63,106.16,51.57Z" fill="#b6464c"/><path id="hair" d="M117,65.53l.26-1.94c1.1-1.88-.94-5.05,1.29-5.83,1.91-.67,3.52,2.05,5.29,3.23A70.27,70.27,0,0,1,149.13,91.1c1.13,2.49.12,5.34,2.06,7.44,2.34,14.5-1.86,27.58-8.73,40.08a4.51,4.51,0,0,1-3.17,2.21c-1.12.36-.54,2.07-1.82,2.31a4.11,4.11,0,0,1-1.26.16,15.91,15.91,0,0,0-3.15.35,11.5,11.5,0,0,1-3.26-.14,8.26,8.26,0,0,1-1.29-.37c-1-.44-2.23-.62-2.78-1.79.39-1.69,1.89-2.68,2.64-4.14a11.6,11.6,0,0,0,2-5c.39-2.22,0-4.49.25-6.73-.32,1.89,0,3.81-.17,5.7a13.6,13.6,0,0,1-2.11,6,19.16,19.16,0,0,1-3.5,4,5.7,5.7,0,0,1-3.79.39q-6.88-3.72-13.94-7.11c-5.68-3-3-8.43-2.19-12,1.51-6.46.92-12.88,1.43-19.28A82.85,82.85,0,0,0,106,83.8c-.52-3.37,4-8.84,7.21-9.14,1.57-.15,1.76,1.28,2.39,2.16,3.35,4.66,5.1,10.11,7,15.38,2.48,6.83,5.5,13.54,6.33,20.9.06.56,0,1.28.64,1.68a8.11,8.11,0,0,1-.64-2A138.69,138.69,0,0,0,116,77.42c-1.3-2.5-3.55-5.07.24-7.68C117.39,69,117,67,117,65.53Zm.87-8.52c.71-.76,1.17-.53,1.47.36,7.65,6.3,16,11.82,22.63,19.3.55.62,2,1.22,1.78,1.57-2.16,4.41,2,6,3.71,8.72a1.32,1.32,0,0,0,1.11-.63c.29-2.28-.92-4.45-.45-6.73a128.43,128.43,0,0,0-23.82-52c-.72-.44-1-1.24-1.61-1.81a3.44,3.44,0,0,0-.88-.82,8.7,8.7,0,0,0-1-.56,10.09,10.09,0,0,0-1-.52c-.52-.27-1-.55-1.52-.84-.34-.2-.69-.4-1-.57-1.51-.72-3-1.49-4.51-2.19a4.42,4.42,0,0,0-1.24-.26,1.82,1.82,0,0,0-1.56.76c0,.41-.26.9-.46.77-4.71-3-10.91-.48-15.42-4.24a2.83,2.83,0,0,0-2.43-.13c-3.93,1.31-7.48,0-11-1.42C73,14.7,66,16.82,59,19.05a2.32,2.32,0,0,0-1.71,2.21c.75,3.2,3.64,4.41,5.83,6.26v0a8.92,8.92,0,0,0,4,4h0A39.87,39.87,0,0,0,80.2,41c1.53.59,2.84,1.81,4.63,1.66C92.12,44.8,99,48,106,50.81c.07.25.12.51.17.76,1.55,1.21,3,2.66,5.09,2.84l3.69,1.28C115.9,56.13,116.68,57,117.82,57Zm-65,76.47c1.93-2,2.66-4.63,4.11-6.87,1.06-3.09,1.35-5.29-3.23-3.69a7.85,7.85,0,0,1-5.73-.21c-3.86-.78-5-4-6.27-7-2.24-5.34-4.44-10.7-6.66-16.06-.34-.41-.64-.41-.92.07-2.05,9.63-8.1,16.87-14.35,24a1.38,1.38,0,0,0,.34,1.89c7.51,1.79,14.36,5.15,21,8.93C45.16,135.57,49,134.72,52.83,133.48Zm50-116c-4.43-.38-8.72-1.87-13.23-1.55a2,2,0,0,1-1.44-.3c.66,0,1.3.17,2,.19a66.73,66.73,0,0,1,13.1,1.94,46,46,0,0,1,8.84,2.9h0c2.06.9,4.43,1.15,6,3h0a1.82,1.82,0,0,0,2,.24c.74-2.37-1-3.58-2.33-5-2.22-2.42-4.82-4.47-6.73-7.18a3.75,3.75,0,0,0-2.1-2c-4.57-4-9.5-6.83-15.89-4.62-.51.09-1,.15-1.54.21-4.77.79-9.56,1.5-14.1,3.26-.69.29-1.35.61-2,.86A60.88,60.88,0,0,0,68.57,12c-2.11,1.29-4.37,2.31-6.47,3.62-.67.41-1.37,1.06-.79,2a1.44,1.44,0,0,0,1.77.51c2.5-1,5.16-1,7.74-1.49a46.38,46.38,0,0,1,10.78-.88c.41,0,.32.47-.2.57-.14,0-.24.21-.36.33,2.79,2.28,6,3.3,9.32,1.73,4.08-1.92,6,3.17,9.19,2.66a12.53,12.53,0,0,1,10.56,2.68c.42.34.87.65,1.27.28.61-.57.18-1.16-.22-1.7s-.75-1.08-1.12-1.63C108.27,18.18,105.08,18.87,102.82,17.47Zm-65.4,7.61c0-.6-.15-1.19-.18-1.79,1.27-2.9,3.85-4,6.68-4.71A4.1,4.1,0,0,0,45,18a1.28,1.28,0,0,0-.35-1.84c-.32-.34-.31-.31.05,0,.53.4-.27-.14.27.16,1.77,1.08,3.61,2,5.73.74,1-1.1.42-2.16-.09-3.23A8.33,8.33,0,0,0,47,10.93c-.58-.29-1.17-.58-1.77-.82a5.51,5.51,0,0,0-1.26-.3c-1.49,0-3,.27-4.43.39a2,2,0,0,0-1,.68A30.32,30.32,0,0,0,36.63,14c0,.4-.09.61-.43.62,0-.29.32-.57.06-.86a2,2,0,0,0-1.73-.63c-4.1,1.39-4.46,6.2-7.66,8.41l0,0c-.79,1.29-.62,3.07-2.1,4l0,0a8.76,8.76,0,0,1-1.71,4.18c-3.36,5.89-1.33,11.43,1.11,17l.65-.08c1.13-3.8,2.18-7.63,3.41-11.39s2.65-7.14,6.78-8.46C35.65,25.84,37.16,26.39,37.42,25.08ZM55.31,7.91a2.46,2.46,0,0,0,.88.45c2.16.48,6.86-2.42,4.81,3.7-.27.8,1,1.17,1.83,1.09a4,4,0,0,0,4-3.13,5.87,5.87,0,0,1,5.08-4.67c2.74-.54,5.43-1,8.24-1.34,6.23-.68,12.5-.09,18.7-1l.44-.56C98.19,1,96.62.81,94.93.56,81.79-1.36,69.39,2,57,5.68,56.55,6.5,54.13,5.82,55.31,7.91ZM46.27,21c1.53-.84,4.77-.56,4.54-1.8-.45-2.5-3.28-1.84-5.33-1.8-.15,0-.29.15-.44.23h-1c-2.92,1.68-6.34,2.69-8,6l1.13,1.05,6.92-2.9C44.62,20.94,45.62,21.38,46.27,21ZM55,18.65c2.51-1,2.81-5.93,7-4a11.8,11.8,0,0,1,1-1l1,0c.52-.63,1.47-.37,2-1l1,0c.51-.65,1.49-.34,2-1h0c.31-.36.68-.66,1-1h1c.52-.64,1.48-.38,2-1l1,0c.7-1.21,1.9-.94,3-1,.7-1.22,1.91-1,3-1,.52-.62,1.45-.41,2-1h0a.6.6,0,0,1,1,0h1c.35-.32.34-1,1-1l4,0c.3-.37.69-.63,1-1h10c.08,0,.15-.1.22-.29s0-.38-.22-.57L98.85,2.73c-7.46-1.4-15-.29-22.38.29-4.29.34-10.63.38-11.14,7.65-.1,1.49-2.53,1.89-3.08,1.56-1.35-.83.4-1.42.81-2.09.56-.91,1.18-1.83-.12-2.44s-2.1-2.8-3.74-1.15c-1.29,1.29-2.7,1-4.15,1.08l0,0c-.79,1-2,.75-3,1l-1,.06c-.83.82-1.65,1.65-1,3l0,2a3.53,3.53,0,0,1,2.3,2.2c.2.81-.74.72-1.31.8C51.36,19.33,54.29,16.82,55,18.65ZM84.75,41.82c2.18-1,3.86.71,5.5,1.42,5.33,2.32,11.35,3.29,15.74,7.57-2.89-1.28-4.51.15-5.65,2.64a4.71,4.71,0,0,1-.39.89c-1.36,1.92-1.63,5.42-4,5.52-1.61.07-1-3.79-2.68-5.28C91.56,49.57,87.34,46.23,84.75,41.82ZM77,9.65v-1c-1.37-.78-2.62-1.22-3,1a2,2,0,0,1,2,1Zm16-3c0-.66,0-1.33,0-2a1.47,1.47,0,0,0-2,0c.34.66.67,1.33,1,2Zm-57,8a.72.72,0,0,0,1,0c1.07-1.13,2.44-2.11,2-4-2,.08-3.12,1.39-4,3Z" fill="#110000"/><path id="hair_lines" d="M119,56.63c9.22,6.06,18,12.64,25.4,20.93.7.77.73.84-.64,1.72-.56.36-.63.8-.33,1.08,2,1.79,1.95,5,4.57,6.29.61.67.38,1.57.61,2.33,0,.41.14.57.46.47-.26-.12-.49-.26-.51-.6-.1-.76.08-1.58-.55-2.21.51-2.34-3-4.71,0-7a48.55,48.55,0,0,1,3.12,18.94c-3-1.56-2.51-5.11-3.54-7.53-5.78-13.67-15.88-23.2-27.63-31.47-1.51-1.06-2.1-1.45-2,.84.06,1.13-4.66-6.46-5.75-5.61-1.83-2.06-31.52-11-29.6-14.05,2.43-1.43,30.21,10.73,30.92,11.41C114,51.82,118.72,56.29,119,56.63ZM43.13,8.58c-.77,2,1.47,1.19,1.9,2.06h0c.33.34.7.63,1,1l4,2,.43-.47a2.26,2.26,0,0,0-.09-1.8c-.48-.73-.46-1.31.44-1.64.37-.13.75-.26,1.12-.42A21.79,21.79,0,0,0,54.67,8.1c.12-.16.25-.32.38-.47l2-1.95C52.23,5.84,48,8.72,43.13,8.58ZM101,3.65H98.8c-2,.17-4.12-.63-5.93.82a1.78,1.78,0,0,0,.18,2.17,16.42,16.42,0,0,1,3.73-1.06c4.94-1.08,8.17,2.54,12.14,4.11A20.42,20.42,0,0,0,101,3.65Zm4,124.12c.31-3.59,1.68-7.07,1.86-10.53.54-10.59.79-21.23.33-31.82-.18-4.21.5-6.58,4.22-8.66,2.19-1.23,2.6-1.1,3.74,1C122,90,125.68,103.41,129,116.92c.17.68-.44,2,.84,1.85s1.15-1.42,1-2.43a139,139,0,0,0-8.34-26.88A144.58,144.58,0,0,0,116,75.52c-.87-1.6-2.09-3.3.92-4.42.33-.13,3.8-3.68,0-5.57-2.82,3.58-4,8.31-8,11.08-1.77.69-4,.82-4.16,3.47-.14,2.94-1,6,1.21,8.6.42,13.16-.85,26.21-2.43,39.25-.26,2.13-1.49,4.72,1.53,6.11l2.9-.32C105.38,132.56,104.79,130.47,105,127.77Zm23,9.88c2.33-2.43,4.13-10,2.94-12.35a3.81,3.81,0,0,0-.5-.64c-.15.46-.47.93-.41,1.35.55,4.1-1,7.82-2,11.63Zm0,0h0a6.13,6.13,0,0,0-3,2.94c.36.3.72.6,1.07.91C126.7,140.17,128.23,139.34,128.05,137.65ZM59.2,20.14C66.34,18,73.51,16.24,81,16.65c1.2-.28,3.14.7,3.4-.88.13-.81-2.17-1.16-3.27-1-5.83.65-11.71.95-17.39,2.56-.63.18-1.25.45-1.88,0,.44-.4.82-1,1.34-1.18A12.84,12.84,0,0,0,69,12.64l-.4-.45a3,3,0,0,0-1.75-.3,5.71,5.71,0,0,0-1.11.41,7.26,7.26,0,0,1-1.7.46,6.32,6.32,0,0,0-1.12.43,2.41,2.41,0,0,1-1.76.24c-3.24-.47-4.53,2.12-6.26,4l-.45.46c-.32.28-.64.55-1,.85a2.89,2.89,0,0,0-.73,1c1.59,1,3.68.76,5.12,2.11C58.12,21.15,58.08,20.47,59.2,20.14ZM103,17.65c2,1.84,4.84,1.63,7,3l2,0a12.79,12.79,0,0,0-9-3Zm15,6c-.86-3.3-3.54-2.94-6-3A11.09,11.09,0,0,0,118.05,23.65Zm0,0a2,2,0,0,0,2,1v-1ZM91.42,4.47a2.52,2.52,0,0,0-1.2-.31c-.6.07-1.18.2-1.77.32a25.1,25.1,0,0,0-2.85.42c-.54.16-1.06.36-1.58.56L83,5.77a10.1,10.1,0,0,0-1.07.32c-.18.06-.36.11-.53.18a16.55,16.55,0,0,1-2.32.4c-1.1.2-2.11.51-2.44,1.78A1.79,1.79,0,0,0,77,9.65c5-1.12,9.85-2.73,15-3C92.62,5.69,92,5.09,91.42,4.47ZM103,17.64c-4.83-2.29-10.14-2.09-15.27-2.87-.38-.06-1.13.25-1.21.53-.33,1.2.72.78,1.23.83,5.08.53,10.17,1,15.25,1.52ZM74.66,8.86a4.85,4.85,0,0,0-1.37.1c-.86.24-1.71.52-2.55.82a5,5,0,0,0-1.19.62,3.82,3.82,0,0,0-.82,1c0,.22-.06.45-.1.67l.42.53h0l7-2C76.56,9.29,75.51,9.14,74.66,8.86ZM52.81,19.79l1.32-.25c.3-.31.6-.61.92-.9h0c0-2.54-2.12-1.51-3.33-2h-.66c-2.45.49-4.6-1.19-7-1h0c.34.67.67,1.34,1,2a4.53,4.53,0,0,0,.9.35c1.4.21,3.94.24,3.9.94-.07,1.46-2.3.51-3.41,1.41-.68.55-1.92.35-2.34,1.45A37.19,37.19,0,0,0,52.81,19.79ZM36,23.65c2.35-2.43,5.91-3.25,8-6C40.13,18,37.09,19.49,36,23.65Zm15-7c1,.53,2.09.77,2-.71a2.29,2.29,0,0,0-3-2.29l0,0,1,3Z" fill="#1d1215"/></g></g></svg>
