<svg xmlns="http://www.w3.org/2000/svg" viewBox="0 0 161.48 163.81"><defs></defs><title>full_8</title><g id="poca"><g id="_8" data-name="8"><path id="shoulder_left" d="M123.13,156.61c-.59-4.55-3.21-8.06-5.89-11.56-1-1.26-2.62-2.21-2.19-4.21,1.26-1.13,2.6-.92,4-.22l6,2.08a5.94,5.94,0,0,1,5.36,3.6,124.09,124.09,0,0,1,5.22,12.23c1,2.46-.26,4.1-2.56,5.05l-6.24,0c.56-1.68-2.29-1.21-1.8-2.85C123.65,159.72,124.52,157.65,123.13,156.61Z" fill="#cb5f61"/><path id="shoulder_shadow_left" d="M136.1,157.64c-.44-4-2.27-7.5-4.23-10.92-.27-.36-.53-.73-.78-1.1l-1.83-2.8-.25-.48a3.78,3.78,0,0,1-1-.49l-3,.85c2.4,1.36,5,2.79,5.42,5.75a23.27,23.27,0,0,0,3.28,8.11c1.72,2.93,1.16,4.84-.69,7l3-.06.43.09.44-.07C136.82,161.55,137.67,159.43,136.1,157.64Z" fill="#b54449"/><path id="shirt_dark_left" d="M153,163.61l-16.08-.07c-1.45-1.54-.92-3.68-1.64-5.44a45.53,45.53,0,0,0-4-10.27c-.35-.6-.7-1.19-1.1-1.76-.55-1.17-2.22-2.16-.63-3.69,2-.17,3.7,1.27,5.72.93,3.25,1.23,6.63,2.12,9.86,3.42l-.09,0c.54.66,1.48.5,2.08,1l-.07,0c.54.66,1.48.51,2.08,1l-.06,0a23,23,0,0,1,3,2.54C154.86,155.18,155.42,159.29,153,163.61Z" fill="#fbac89"/><path id="shirt_light_left" d="M153,163.61c.15-4.38.53-8.79-2-12.75a.87.87,0,0,1,1.11-.34,29.79,29.79,0,0,1,5,5.23l0-.05c1.05,1.43,1.5,3.25,2.87,4.47.46.48.68,1.14,1.17,1.59l0-.07a1.37,1.37,0,0,1,0,1.94Z" fill="#fabab0"/><path id="shoulder_right" d="M36.92,163.59c-11.28.06-22.57,0-33.86.21-2.45,0-3.12-.88-3.06-3.19.17-6.3.16-12.61.22-18.91,5.94-4.9,12.54-7.85,20.45-7,5,2.61,10.43,4.42,15.14,7.63A160.3,160.3,0,0,1,36.92,163.59Z" fill="#cc5e61"/><path id="neck" d="M113.26,155.19c-1.53-3.85-3.69-7.41-5.42-11.17a21.88,21.88,0,0,1-2.19-3.66,1.52,1.52,0,0,0-1.81-.71,10.23,10.23,0,0,0-1.9,3,37.76,37.76,0,0,1,3.58-8.92,68.45,68.45,0,0,0,4.92-21.06,27.74,27.74,0,0,0-.32-4.09c0-.23,0-.45,0-.68-.44-.78,0-3.08-2-1.14l.08.1c-3.46,1.24-5.34,4.69-8.48,6.39-2.47,2.84-6,4.1-9.12,5.86-9.36,5.23-18.58,10.69-29.21,13.3-3.37.83-7.05-1.33-10,1.41a20.12,20.12,0,0,0-5.08,6.19,5.13,5.13,0,0,0,.12,3.6,7.39,7.39,0,0,1,1.33,5.23c0,.94,0,1.87.05,2.81a7.9,7.9,0,0,0,.55,2.72,12.12,12.12,0,0,1,1.78,3.49,5.21,5.21,0,0,0,.61,1.17c1.7,2.06,3.44,4.07,6.29,4.53H112.9C115.25,160.9,114.38,158,113.26,155.19Z" fill="#cc5e61"/><path id="necklace_left" d="M105.08,136.67a22.29,22.29,0,0,1,8.85,3.15,7.55,7.55,0,0,1,1.82,1.15c3.54,4.67,7.73,9,8.51,15.21,0,1.47,0,3,1.14,4.15,0,1.28,3.18,1.22,1.44,3.28H112.9c1.25-6.36-2.5-11.23-5-16.45a8.83,8.83,0,0,1-1-3.23c-.81-.95-1-2.24-1.91-3.14l-1-.73C102,138.24,102.09,137.78,105.08,136.67Z" fill="#5789a1"/><path id="necklace_right" d="M36.92,163.59c-2.74-7-1.64-14.37-2-21.6,2.39-4,8.58-5.24,12-2.47,0,1.41.09,2.82.13,4.23,1.12,1.14.92,2.59,1,4s-.44,3,.89,4.12l.24,2.77c.82.94.88,2.3,1.8,3.18.06.3.1.6.13.9.35,1.69,2.68,2.56,2,4.71A105.92,105.92,0,0,1,36.92,163.59Z" fill="#5689a2"/><path id="face" d="M31.28,64.7a1.86,1.86,0,0,1,.93-1.63c1.9-1.9,3.14.29,4.67.74a3.54,3.54,0,0,0,2.23.7,1.42,1.42,0,0,0,.73-1.15,4.11,4.11,0,0,0-.15-.93,8.39,8.39,0,0,0-.42-.85,3.73,3.73,0,0,0-1-1c-.32-.15-.63-.3-.95-.43-.55-.16-1.1-.28-1.66-.4a4.32,4.32,0,0,1-3.15-2c-.67-1.58.94-3.7-1.18-4.93l-.14-1c.08-2.79.15-5.61,2.27-7.78,1.58-1.62-.23-2.11-.9-3a4.19,4.19,0,0,1-.12-1.41c.23-1.21.36-2.43.55-3.64,3.7-13.81,13.88-20.66,28.43-19.17a31.52,31.52,0,0,0,6.47,1,7.21,7.21,0,0,1,1.37.41,16.6,16.6,0,0,1,5.51,4.29,78.17,78.17,0,0,0,12,15.08C88.8,40.5,92.05,42,95,43.8c6.63,4.14,11.58,9.37,12.55,17.55.15,1.2-.07,3.05,1.53,3.33,1.4.24,2.2-1.32,3-2.29,2.2-2.57,4.16-5.61,8-2.4a49.42,49.42,0,0,1,5.64,4.34,7.92,7.92,0,0,1,2.29,3.82,15.13,15.13,0,0,1-1.78,10.33c-2.33,3.3-4.19,7-7.53,9.47a4.41,4.41,0,0,1-1.36.57,3.59,3.59,0,0,1-3.3-1.23c-.67-.64-1.43-1.84-1.72.23-.57,4.13-2.2,8.06-2.7,12.16-.73,5.94-4.12,9.71-9,12.4-8.75,4.85-18.07,8.46-27.38,12-4.35,1.67-8.78,3.09-13.24,4.45a12.86,12.86,0,0,1-2.21.42c-2.33-.06-4.51,1-6.85.88-6-.67-7.05-5.7-9-10-3-9.92-7.74-19.3-9-29.74.08-1.79-.69-3.51-.47-5.31-.7-2.39-.2-5-1.63-7.28a3.93,3.93,0,0,1-.55-2.74c.63-2.67-.42-5.48.62-8.12l0,0A1.59,1.59,0,0,0,31.28,64.7Z" fill="#cc5e61"/><path id="neck_shadow" d="M51.85,134.69c.26-2.05,3.72-4.56-.86-5.9,2.41.09,4.58-1.48,7-1,.28,1.92-.92,1.46-2,1.24,1,.61,1.87.06,2.74-.34s1.55-.52,2.32-.79c11.81-3.4,23-8.37,34.25-13.21,1.48-.64,2.92-1.71,4.69-.86a3,3,0,0,1-1.77,2.77c-6.81,3.35-13.16,7.56-19.9,11-5.89,3-12.39,4.83-18.74,6.77C57.23,135.06,54.39,132.59,51.85,134.69Z" fill="#c45255"/><path id="neckline" d="M105.08,136.67c-1.35.82-2.42,1.72-1,3.38a30.23,30.23,0,0,0-2.48,9.52c0,.72-.13,1.46-.9,1.39-.93-.08-.59-1-.6-1.61-.09-5.56,1.61-10.67,4-15.59A4.93,4.93,0,0,0,105.08,136.67Z" fill="#b54449"/><path id="jawline" d="M113.05,84c-.93-1.24-1.6-1.1-1.64.49-.14,5.51-2.5,10.59-3.18,15.94-.54,4.29-2.76,7-6,9.25-5.74,4-12.37,6.35-18.76,9.06-7.72,3.27-15.66,6-23.5,9H58l-2.19,1.72a3.49,3.49,0,0,0,2.83,0c.78-.25,1.57-.45,2.36-.68a63.63,63.63,0,0,0,6.59-1.86c10.84-4.31,21.62-8.72,32.43-13.1,3.53-1.33,8.49-5.59,10.09-6.9s3.6-13.35,4.85-20.08C115.18,85.64,113.75,84.88,113.05,84Z" fill="#ad3c42"/><path id="lips" d="M61.24,100.49c-.15-3.23-4-1.82-4.18-3.76-2.93-2.13-5.84-4-9.76-4-3.07,0-5.57,1.3-6.57,3.65s1,4,3.27,5.46c.75-.68,2.68,3.24,1.08,2.9l-2,6.06c1,3.28,3.82,1.61,5.72,1.87,6.13.81,11.49-.55,14.31-6.88C61.82,106.31,62.52,100.1,61.24,100.49Z" fill="#c43a47"/><path id="lips_shadow_bottom" d="M57.06,96.73c3.27-.38,5.81,1.78,7.9,3.43,2.82,2.22.09,4.14-1.9,5.6-3.31,3.43-7.59,3.79-12,3.63A18.37,18.37,0,0,0,43,110.77c-1.46-3.18,1.76-5.85,1-9,.46-3.54,3.24-2.46,5.23-2.4C52.25,99.49,55.07,99.47,57.06,96.73Z" fill="#b8414d"/><path id="teeth" d="M46.93,103.85c.67-2.29,2.51-.9,3.76-1.1,2.89-.46,5.83-.63,8.76-.83.68,0,1.75-.59,2,.56a1.76,1.76,0,0,1-1.2,1.92c-2,.77-3.93,1.64-6.14,1.43C51.35,106.47,49.07,105.42,46.93,103.85Z" fill="#f3b3ad"/><path id="nostril_right" d="M40.39,83.28c1,1.17,1.9,2.14,2.73,3.16.31.38.35,1.11-.24,1A3.6,3.6,0,0,1,40.2,84.8,4.39,4.39,0,0,1,40.39,83.28Z" fill="#b4454a"/><path id="nostril_left" d="M49.29,83.45c-.71.12-1,.68-1.27,1.3-.76.11-1.62.11-1.53,1.24a.45.45,0,0,0,.32.32c1.13.08,1.13-.77,1.24-1.54.62-.06,1.32,0,1.61-.74C49.71,83.9,49.39,83.43,49.29,83.45Z" fill="#b6474d"/><path id="eye_line_bottom_left" d="M66,64.65c.08-.71.15-1.43.23-2.14a7.14,7.14,0,0,1,2-1.12c.35-.17.71-.32,1.06-.48.54-.25,1.08-.49,1.64-.72a6.62,6.62,0,0,1,1.18-.32c.41,0,.82-.06,1.24-.07A4.94,4.94,0,0,1,75.2,60a2,2,0,0,1,.93.84C72.78,62.24,69.78,64.53,66,64.65Z" fill="#73262d"/><path id="eye_lid_top_left" d="M66,53.9c-.89.17-2.2.9-2.24-.65s1.46-1.48,2.57-1.46,3-.41,3,.66C69.38,54.7,67.08,53.25,66,53.9Z" fill="#bf4f53"/><path id="eye_left" d="M75.14,57.7c-3.34-2.05-7.12-.83-10.68-1.35-1.77-.25-4,.36-4.87,1.93s1.36,2.35,2.19,3.48c1,1.4.89,4.71,4.18,2.89A3.18,3.18,0,0,0,67.09,63a11.33,11.33,0,0,0,.3-1.31c1.33-3,4.53-1,6.47-2.38l.18-.12a1.09,1.09,0,0,0,0,.18,2.55,2.55,0,0,0,1.12,1.34,1.66,1.66,0,0,1,1,.16c1-.38,2.69-.57,2.52-1.78C78.39,57.16,76.51,57.74,75.14,57.7Z" fill="#280a0b"/><path id="eye_white_left" d="M73.85,58.91l.18-.14c-1.78-.09-3.57-.11-5.34-.3-2.81-.29-2.91,1.22-2.33,3.28a2.07,2.07,0,0,0,2.68,0,3.33,3.33,0,0,0,2.39-.87l.32,0,.28-.17a2.62,2.62,0,0,1,1.56-.62C74,59.8,74.63,59.51,73.85,58.91Z" fill="#d3b8bb"/><path id="brow_left" d="M80.7,47.35a7.91,7.91,0,0,0-3.76-3.51,16.68,16.68,0,0,0-10.81-4.22c-3.27,0-6.54-.67-9.82-.95-1.21-.1-3-1.79-3.4-.33s1.65,2.71,3.22,3.18a16,16,0,0,0,3.93.18,2.47,2.47,0,0,0,.9.1c1.53,1.4,3.42.8,5.15.79A20.16,20.16,0,0,1,76,44.81a6.25,6.25,0,0,0,4.42,3.3C80.48,48.12,80.79,47.5,80.7,47.35Z" fill="#831c21"/><path id="eye_right" d="M37,64.74c-2,.68-2.75-2.47-4.83-1.67,0-1.78-1.69-3.25-.92-5.16a1.2,1.2,0,0,1,1.82-.34c1.12,1,2.59.89,3.91,1.29a2.93,2.93,0,0,0,1.25.73,1.26,1.26,0,0,1,.64.32c.48.6.12,1.12-.16,1.65a17.6,17.6,0,0,0-.93,2.24A2.38,2.38,0,0,1,37,64.74Z" fill="#2f171c"/><path id="eye_white_right" d="M37,63.84c0-1.16-.69-2.53,1-3.09.54.59,1.58.23,2,1.06l0-.07c.65.55.45,1.52,1,2.1l-1.09,1.07C38.51,65.74,37.79,64.66,37,63.84Z" fill="#d8b2b3"/><path id="brow_right" d="M31,42l1.94-1.29c1.06,1.5,2.08-1.18,2.85-.13s0,2.36-.76,3.11C32.84,46,32.21,49,31.18,51.77c-.77-1.68-1.39-3.31-.35-5.17A4.35,4.35,0,0,0,31,42Z" fill="#831c21"/><path id="ear_curve_left" d="M121.93,69.52c0-.51-1.16-1.66.56-2,.19,0,.7,1.28.93,2,1.09,3.63-9.37,7.48-9.37,5.54,0-.92,1.91-2-.07-2.76-.86-.34-2.25-.16-2.21-1.36s1.25-.56,2-.67a2.16,2.16,0,0,1,2.69,2.15c.14,1.53-1.34,4.46.66,4.2,2.35-.3,5.32-2.17,4.92-5.83C122,70.51,122,70.18,121.93,69.52Z" fill="#bb4b50"/><path id="hair" d="M51.85,134.69c-2,1.28-2.21,4.31-4.91,4.83-4.36-1-8.23.45-12,2.47-5.59-.53-9.71-4.5-14.75-6.32-2.26-.71-4.49-1.5-6.74-2.23-1.36-.86-3.63-1.09-2.56-3.65l3-7.38c1.15-5.77,4-10.76,7.38-15.43A97.38,97.38,0,0,0,32.18,88.87c.85-.4,1.29.06,1.61.77,2.1,10.32,6.73,19.87,9.27,30.07,2.28,3.34,2.33,8.63,7.93,9.08C55.36,130.18,55.38,130.27,51.85,134.69Zm100-33c1.06,11.35-3.45,21-9.49,30.07-2.88,4.3-7.59,6.81-12.17,9.2-.46.39-.71,1-1.26,1.32a5.77,5.77,0,0,1-1.18.49,7.57,7.57,0,0,1-3.27.41c-2.09-.4-4.21-.71-5.9-2.19-.83-1-1.06-2-.15-3-.3.31-.57.62-.88.91a4.66,4.66,0,0,1-3.43,1.68,51.37,51.37,0,0,1-9.29-3.38c-.86-1-1.77-2-.75-3.46a80.87,80.87,0,0,0,5-20.91c1-1.58.13-3.4.64-5a5.46,5.46,0,0,1,.79-1.26c2.1-4.11,2-8.82,2.71-13.15.6-3.61,1.62-5.11,4.79-5.73l0,0c1.33-.56,2.64-2.17,4-.08a.71.71,0,0,1,.32.68c.11-.59-.56-.78-.67-1.28-.25-3.36,2.73-5.34,3.45-8.27,1.58-3.5,2.73-7.07,2-11a1.86,1.86,0,0,1,.85-.45c-1-.86-1.91-1.7-2.91-2.51a16.82,16.82,0,0,1-5-3.9c-2.5-1.71-4.39-1.6-6.27,1.22-1.42,2.12-3.36,5.59-5.54,5.08s-1.65-4.53-2.08-7c-1.18-6.8-5.39-11.13-10.76-14.76-3.38-2.29-7.59-3.54-9.57-7.59A39.37,39.37,0,0,1,74.08,22.7a.8.8,0,0,1-.35-.75c0-.28.11-.42.19-.43a5.7,5.7,0,0,1,3.15-1.2c.68-.09-.11-.45-.17-.72a1.66,1.66,0,0,1-.05-1.18A4.18,4.18,0,0,1,78.17,17a27.78,27.78,0,0,1,4.31-2.12c2.69-.47,5.39-.89,8.07-1.43-1.63.3-3.28.57-4.91.88-6.22,1.19-7.42-.51-5.12-6.68l.17-.24a1.86,1.86,0,0,1-.37-1c0-.49-.16-.65-.31-.58-1.25,3.51-1.66,7.43-5,9.92-1.26.92-2.79,4.35-3.37-.48-.18-1.49-1.46-2.73-1.62-4.33a1.67,1.67,0,0,1-.41-.16c.54,1.77,1.12,3.52,1.5,5.31.35,1.6.68,3.55-2.19,2.72h0a31.52,31.52,0,0,0-2-2.68,1.54,1.54,0,0,1-.13,1.44c-.84,1.45-3.25.74-5,.26-4.27.31-8.52.19-12.75,1.53C40.4,22.14,35.67,28,34,36.7c-.82.89-.13,2.19-.83,3.11a2.22,2.22,0,0,0-.21.87c-.36.87-.81,1.6-1.94,1.29A6.35,6.35,0,0,1,28.94,39a3.2,3.2,0,0,0-.88-1.3c-.84-1.38-.56-2.81-.19-4.24a15.5,15.5,0,0,1,3.5-9.67C37.9,15.19,45.17,7.23,56,3.71,59.79,3.43,63.9,2,66.93,5,67.06,4.12,68,3.59,70,3.42a61,61,0,0,0,10-1.66C90.9.09,101.7-1.53,112.44,2.62A17.13,17.13,0,0,1,119,6.86a131.65,131.65,0,0,1,11,12.78,1.56,1.56,0,0,1,.39,1.27l.21.22c3.41,2.3,3.82,6.69,6.57,9.45a42.74,42.74,0,0,0,3.83,7.19,9.73,9.73,0,0,1,2.06,4.71c1,6.5,3.9,12.47,5.51,18.82,1,3.83.44,7.92,2.36,11.5C152.83,82.4,155.21,92,151.84,101.73Z" fill="#110001"/><path id="hair_lines" d="M80.05,1.76c-2.92,2.15-6.46,2-9.76,2.28C67.16,4.27,67.4,5.69,68,7.76,65.32,2.53,60.35,4,56,3.71a1.74,1.74,0,0,1,1.62-.89C65.11,3.21,72.56,2.07,80.05,1.76ZM69.9,15.91c.27,1,1.53,2.65-.93,2.92l5.12,3.87c0-.29,0-.58.06-.88-.44-2.33,2.55-1.44,2.88-3.06v0c.33-.33.68-.64,1-1a5.66,5.66,0,0,0,4-2c-1.88-1.95-1.88-1.95-6.6-.9-2.12,1.56-2.17,1.54-3.1-1A6.33,6.33,0,0,0,70,10.75c-.62-1-.87-2.31-2-3C67.74,10.68,69.2,13.2,69.9,15.91Zm69.2,62.84c-3.62-5.76-7.57-11.19-14.14-14,.68,1,1.37,2,2.06,3,4.27,3.08,7.62,7.08,11,11A.6.6,0,0,0,139.1,78.75ZM99.23,11.84c.59-.27,1.56-.4,1.27-1.12s-1.18-.12-1.78,0c-4.68,1-9.34,2-14,2.91-2.76.54-4.94.37-4.07-3.53A22.81,22.81,0,0,1,81,7.76v-2a.71.71,0,0,0-1,0h0c-2.76,2.79-3.83,6.42-5,10,2.33,1,4.65-2.31,7,0C87.89,15,93.77,14.34,99.23,11.84ZM60,9.75c1.2,2.19,3.3,3.56,4.88,5.39.51.59,1.39,1.39,1.27,1.9-.31,1.28-1.59.47-2.44.65a13.85,13.85,0,0,1-1.94.17c2.29,1.05,4.75.81,7.16,1-1.31-4.67-4.84-7.16-8.94-9.08ZM88.25,21.08c-.56.44.28.58.63.63a113.47,113.47,0,0,1,19,4.85c.38.12.89-.18,1.34-.28a5,5,0,0,0-1.08-.9C102.53,23,96.56,21.94,90.5,20.7,89.8,20.8,88.8,20.65,88.25,21.08Zm57.87,71.54A2.83,2.83,0,0,0,149,94.75c-3.09-5.47-4.56-12-9.94-16h-1C141.16,83.13,144.42,87.42,146.12,92.62ZM79.31,20.74a7.34,7.34,0,0,0,.89-.33c-.37-.21-.73-.57-1.12-.62a2.48,2.48,0,0,1-2-1c-1.35.66-4.28-.17-2.88,3.06C75.87,21.46,77.59,21.11,79.31,20.74Zm69.73,75c-1.15,2-.54,3.59,1,5A8.4,8.4,0,0,0,149,95.75ZM119.28,138c3.63-3.17,4.86-7.79,7-11.84a14,14,0,0,0,1.76-8.1,11.05,11.05,0,0,0-.36-1.4,3.53,3.53,0,0,0-.59,1.22c-.35,3.67-2.12,6.92-3.4,10.24-1.89,4.87-4.07,9.84-9.75,11.7l1.12,1,4-.22C118.55,139.69,118.3,138.85,119.28,138Zm6.82-33.15c0,.61.12,1.43,1,1.34s1-.86.84-1.47c-.56-2.37-1.19-4.72-1.86-7.07-.09-.35-.48-.62-.73-.93-.13.46-.25.92-.38,1.41A16,16,0,0,1,126.1,104.85ZM60,9.76c1-2-.32-2.08-1.76-2-.59,0-1.62,0-1.45.68.42,1.68,2,1.21,3.22,1.31Z" fill="#1f181c"/></g></g></svg>
