<svg xmlns="http://www.w3.org/2000/svg" viewBox="0 0 151.98 157.74"><defs></defs><title>full_4</title><g id="poca"><g id="_4" data-name="4"><path id="shoulder_left" d="M120.46,138a5,5,0,0,1,.13.77c1.59,4.83,5.1,8.77,6.29,13.83.4,1.71,1,3.32.65,5.1H115.31c-2.37-.59-3.64-2.33-4.56-4.41a8,8,0,0,0-1.35-2,5.66,5.66,0,0,1-.69-1,28.14,28.14,0,0,0-1.75-2.6,5.65,5.65,0,0,1-.42-1.3,5.29,5.29,0,0,1,.3-2.81c.87-1.33,1.94-2.23,3.67-1.75,1.5,1,3.06,2.4,3.48-.9.14-1.13.44-2.24.67-3.35.88-.49,1.18-1.92,2.56-1.6C117.57,137.84,119.07,137.82,120.46,138Z" fill="#cd5f62"/><path id="shirt_dark_left" d="M145.44,157.7l-16.88,0c-1.91-6-3.88-12-7.81-17.1a6.15,6.15,0,0,1-.54-1.3c0-.23,0-.47-.07-.71s.21-.42.32-.63h4.09c.69.52,1.51.33,2.28.4a2,2,0,0,1,1.1.45c.81.84,2,.27,2.92.89a23.35,23.35,0,0,0,4.74,2.1l-.06,0c.53.68,1.48.51,2.07,1.06l-.07-.06a2.84,2.84,0,0,0,1.41,1.05.54.54,0,0,1,.56.08A20.31,20.31,0,0,1,145.44,157.7Z" fill="#faab88"/><path id="shirt_light_left" d="M145.44,157.7l-5.94-13.78,4,2.91a3.72,3.72,0,0,0,2.38,1.95,1.72,1.72,0,0,1,1.59,1,30.55,30.55,0,0,0,4.09,6.1l0,0a1.39,1.39,0,0,1,.13,1.84Z" fill="#f7b7ad"/><path id="shoulder_right" d="M15.53,139.85a67.45,67.45,0,0,0,17.33,6.42c2.78,3.68,2.25,7.52.54,11.41l-32.93,0C-.42,154.2.27,150.6.05,147c.05-2.64-.12-5.28.1-7.92,2.11-2.73,5.2-1.63,7.9-2C11,136.67,13.15,138.63,15.53,139.85Z" fill="#cc5e61"/><path id="neck" d="M99.57,151.2c.2-.43.41-.86.64-1.28a5.92,5.92,0,0,0,.27-1.38c-.13-1.53-.22-3.33-2.46-2.63-3.58,1.1-5.79-.85-8.35-2.87-6.8-5.37-10.76-13.18-17-19.09-2.66-2.54-6-4.81-6.91-8.83-1.18-3-3.84-5.32-4.37-8.7-.13-.81-.59-1.71-1.52-1.57s-.68,1.26-.92,2c-.76,2.27-.56,4.77-1.62,7-.65,3.54-1.17,7.1-2,10.61-1.75,7.62-2.5,15.77-10,20.64-1.32,1.48-1.18,3.2-.77,4.95.59,1.45,1.72,2.64,2.06,4.21a5.38,5.38,0,0,0,.66,1.14,12.31,12.31,0,0,0,2.24,2.32h45l8.68,0C101.73,155.65,99.89,153.78,99.57,151.2Z" fill="#cc5e61"/><path id="necklace_left" d="M111.4,151.93c.49,2.48,2.52,3.91,3.91,5.78l-12-.06c-3.73-1.45-5.38-3.89-3.73-7.89a1.21,1.21,0,0,0,0-.73c1.34-1.21.56-3.27,1.84-4.51a3.33,3.33,0,0,1,2.08-.59c2.14-.13,2.89,1.67,4,2.9a4.68,4.68,0,0,1,.16.83c.75,1,.75,2.39,1.92,3.1h0C110,151.56,110.8,151.55,111.4,151.93Z" fill="#5e869e"/><path id="necklace_right" d="M33.4,157.68c-.56-3.78.34-7.64-.54-11.41l12.57-1.21c.06,1.9.11,3.79.17,5.69,1.27,1.09.44,3.13,1.9,4.13l.07-.06a2.05,2.05,0,0,1,0,2.87Z" fill="#5688a1"/><path id="face" d="M137.61,104.19c-1.63,4.61-5.26,8.1-7,12.65-.67.55-.57,1.45-1,2.12v-.09c-1.19,1.09-1.17,2.77-1.95,4-.24.33-.48.66-.7,1s-.38.67-.56,1-.39.65-.57,1c-.37.41-.77.79-1.14,1.2a1.08,1.08,0,0,0-.39.92,23.44,23.44,0,0,1-4.75,4.79,4.62,4.62,0,0,0-2,2.12v0a5.08,5.08,0,0,0-1.91,3.78c-1.22,1.92.34,7.21-5,4.14a1.65,1.65,0,0,1-.13-2.2,10.72,10.72,0,0,0,.84-.67c-.34-.57.26.2-.18-.3,0,0,0,0,0,0,0,.23,0,.35.09.35a9.15,9.15,0,0,1-1,.67,14.19,14.19,0,0,1-3.57,2.64,2.9,2.9,0,0,1-2,0,1,1,0,0,0-1.8,0,15.57,15.57,0,0,1-13.4-5.3c-4.21-4.5-9-8.38-13.43-12.67-1.29-1.64-3.06-2.79-4.56-4.22-1.18-1.14-2.38-2.27-3.46-3.5-4-4.48-7.51-9.09-7-15.66A13,13,0,0,0,60,95.76c-5.55-3.7-7.72-9.52-9.77-15.43-1.4-5.69-1.84-11.36.26-17a8.3,8.3,0,0,1,4.91-4.07A3.61,3.61,0,0,1,59,60.46a34.43,34.43,0,0,1,3.51,8.48c.22.7,0,1.45.16,2.17a6,6,0,0,1,.77-2.29,7.9,7.9,0,0,1,1.14-1.56c2.69-2.86,3.75-6.66,5.72-9.93a8,8,0,0,1,.88-1,7.14,7.14,0,0,0,1.52-1.89,5.89,5.89,0,0,1,.67-1,20.06,20.06,0,0,0,1.57-1.62c.23-.31.48-.59.73-.88a7,7,0,0,0,1.13-2.81,13.56,13.56,0,0,1,8-8.93c9.08-4.07,18.06-8.37,27.82-10.62a8.92,8.92,0,0,1,5.16.84c5,2.44,10.46,3.53,15.53,5.74,1.68,1.73,4.37,2.3,5.46,4.71,0,.48-.16.76-.67.77a1.37,1.37,0,0,0,1.21-.17l.59.31a3.91,3.91,0,0,1,.64,1.21c1.42,4.53,2.08,9.26,3.78,13.71a7.25,7.25,0,0,1,.36,1.46c.11,1.79.27,3.59-1.36,4.89-4.32,0-6.85-3.7-10.53-5-.46-.16-1.25-.68-1.29-.58-.37.86.51,1,1,1.32,2.25,1.43,4.81,2.32,7,3.76,2.9,1.86,6.14,3.5,7,7.39-.79,6.67-1.43,13.35-2.09,20A19.53,19.53,0,0,1,143,91.84c-1.48,1-.47,3-1.41,4.19a1.9,1.9,0,0,1-.78,1.83c-.83.47-.72,1.43-1.12,2.12l0,0C138,100.9,138.2,102.73,137.61,104.19Z" fill="#cc5e61"/><path id="neck_shadow" d="M72.51,121.87a6.8,6.8,0,0,0,3,3c6.24,6.4,12.06,13.23,19.83,18,2,1.23,4.73.06,6.29,2.24-.15,1.58.29,3.48-2,3.94-.43-.77.27-3.28-1.17-2.16-3.46,2.69-5.45-.1-7.7-1.4a26.85,26.85,0,0,1-8.27-7.95c-4.49-6.45-10.06-11.86-15.31-17.58-1-1.14-2.91-2-1.61-4.08Z" fill="#c35255"/><path id="jawline" d="M106.53,142.79h-2a.8.8,0,0,0-1.08,0c-7-.14-12-3.77-16.45-8.84a63.3,63.3,0,0,0-10.39-9.14c-.49-2.24-2.59-2.84-4.11-4a10.35,10.35,0,0,0-1.17-1.59c-5.3-5.18-10-10.54-9-18.84.24-1.83-.64-3.79-1-5.69-2.52,6.13-3.45,12.6-4,19.15,1.59-2,1.86-4.41,2.14-6.82a7,7,0,0,1,.41-1.3,4.73,4.73,0,0,1,.74,1.16,26.77,26.77,0,0,0,4.85,9c1.77,2.69,3.25,5.72,7,6.1-.19,2.1.79,3.05,2.85,2.92-.33,2,1.25,2.9,2.32,4.11,3.3,3.74,7.26,6.78,10.65,10.43a16.91,16.91,0,0,0,13.29,5.67l1.94-.36c.92-.82,2.25.15,3.16-.73.06,0,.1-.15.13-.43A1,1,0,0,0,106.53,142.79Z" fill="#ae3d45"/><path id="chin" d="M106.51,143.79c0-.33,0-.66,0-1,1.1-1.95,2.93-2.65,5-2.95l0,0-1,2c-1,.64-2.34.91-3,2.09A.64.64,0,0,1,106.51,143.79Z" fill="#bb4a4e"/><path id="lips" d="M118.46,117.87c-.87-6-2.74-8.94-6.54-8.57s-8.3.15-11.38,3.55c-.89,1.48-1.47,2.86-.09,3.6-4.58-1.09-3.61,2.69-3.88,5.38a3.9,3.9,0,0,0,.27,1.45c2.19,3.41,11.89,7.33,15.28,5.61,1.55-.78,4.87-1.61,3.47-5a2.8,2.8,0,0,0-2.51-2l0,0s0-.06-.2,0c-.63.21-.27-.1.39-.16a3.91,3.91,0,0,0,2.1-.68c1-1.23.81-2.17-.72-2.75l-1,0C115,117.59,117.07,119,118.46,117.87Z" fill="#c53e4d"/><path id="lips_shadow3" d="M114.45,120.93l-2.92,1.91c-.83-.06-2-.09-2.09-.94-.19-1.69,1.3-.87,2-1A19.5,19.5,0,0,1,114.45,120.93Z" fill="#91323f"/><path id="lips_shadow_bottom" d="M113.54,118.61c1.26-2.7,3.25-.66,4.92-.74a5.28,5.28,0,0,1-2.87,6,6.62,6.62,0,0,0-4.06-1.06c-.3-2.58,2.29-.75,2.92-1.91,1-.63,1.27-1.31.14-2.09C114.12,119.36,113.76,119.29,113.54,118.61Z" fill="#b13b46"/><path id="lips_shadow_top" d="M100.54,112.85c4.14.1-2.12,2.55.68,3,1.46.24,3.38-.85,4.21,1.35a3.94,3.94,0,0,1,.1.47c-1.94,1.51-3.43.28-5-.81-2,.25-4,.31-2.41,3.3.3.55-.8,1.33-1.6,1.66C94,116.68,94.09,116.37,100.54,112.85Z" fill="#b53d48"/><path id="teeth" d="M113.54,118.61l1,.23c-4.66,2.3-11.63,1.32-14-2,1.7,0,3.19,1.22,5,.81A14.83,14.83,0,0,0,113.54,118.61Z" fill="#eba6a2"/><path id="nostril_left" d="M116.85,103.84c-.55.77-1.09,1.6-2.11,1.7-.57.06-.74-.46-.39-.89.58-.72,1.15-1.53,2.22-1.54C116.66,103.11,116.75,103.58,116.85,103.84Z" fill="#b6484b"/><path id="nostril_right" d="M108.37,100.94c.92.27,1.81.7,1.82,1.89a.74.74,0,0,1-1,.7c-.9-.37-1.82-.9-1.94-2C107.19,101,107.82,100.92,108.37,100.94Z" fill="#b03f44"/><path id="eye_left" d="M136.53,83.87c-2.67,1.7-5.33,2.19-7.94-.14,1-2.74,3.32-.72,4.9-1.36a2.77,2.77,0,0,0,2-.46l1.68-.25c1.11-.42,1.42.1,1.28,1.12l0,0C138,83.47,137,83.22,136.53,83.87Z" fill="#410f11"/><path id="eye_lashes_left" d="M138.48,82.78l-1.28-1.12c.11-.12.19-.31.32-.36,1.28-.44,3-2.39,3.59-1.32C141.89,81.31,139.7,82.07,138.48,82.78Z" fill="#4c1113"/><path id="eye_line_top_left" d="M134.53,82.84c-2,.38-4.17-.81-5.94.89-.85-.23-1.62-.77-1.6-1.6,0-1.26,1-.78,1.77-.68,1.92.25,3.85.45,5.78.67l.29.36Z" fill="#4e1415"/><path id="eye_lid_top_left" d="M138.53,73.85c-.86-2.5-2.72-1-4.16-1-1.11,0-3.07-.12-2.89,1,.25,1.57,1.67-.11,2.61,0,1.45.12,3,.37,4.47.36a2.1,2.1,0,0,0,1.29,2c.08,0,.36-.18.37-.29.09-1.21-.8-1.68-1.69-2.13Z" fill="#b94b4e"/><path id="brow_left" d="M145.44,64.84a2.52,2.52,0,0,1,.11,3,30.3,30.3,0,0,0-10-7A35.34,35.34,0,0,1,132,59.06c-1.74-1-4.27-2.33-3.05-4.27s3,.58,4.47,1.32a46.81,46.81,0,0,1,9.2,5.72C144.13,62.28,144.76,63.58,145.44,64.84Z" fill="#851b1f"/><path id="eye_right" d="M85.73,72.63c3.65,2.63,7.48,4.75,12.22,4.43.7,0,1.8-.47,2.08.63s-.77,1.28-1.44,1.69c-2.41,1.51-4.67,1.93-7.32.14-2.47-1.66-5-3.13-6.81-5.59C84.27,72.9,84.69,72.46,85.73,72.63Z" fill="#380e10"/><path id="eye_lashes_right" d="M85.73,72.63l-1.27,1.3c-.93-.62-2.32-1.47-1.32-2.51S85,71.85,85.73,72.63Z" fill="#6d1a1e"/><path id="eye_lid_top_right" d="M101.14,73.25c.15.77-.07,1.3-.9,1.41a1.27,1.27,0,0,1-1.54-.94c-1-3.81-3.62-5.71-7.3-6.51-.41-.09-.73-.6-1.09-.91a5.14,5.14,0,0,1,.9-.33C95.12,65.41,100.8,69.59,101.14,73.25Z" fill="#bb4d50"/><path id="brow_right" d="M93.58,49.88c4.61.91,10,2.57,15.75,2,.53,0,1.55-.27,1.4.77a2.53,2.53,0,0,1-1.14,1.46c-1.79,1.19-3.83,1-5.79.63-3.9-.67-7.77-1.49-11.65-2.26a13.88,13.88,0,0,1-1.92-.5c-1.31-.45-2.51,1.63-3.85.16,1.39-1.2,2.8-2.34,4.79-2.28C91.67,49.89,92.17,49.88,93.58,49.88Z" fill="#7f191e"/><path id="ear_curve_right" d="M61,79.08c-.2,1.45-.61,2.88-2.23,3.37-.74.22-1-.54-1.21-1.21-.62-2.13,2.55-1.76,2.35-3.61C60.73,77.75,60.68,78.51,61,79.08Zm-4.82-1.75c.46.34.86-.48.53-.8-1.69-1.61.37-4.45-1.78-5.63-.56-.3-.18,1.33-.42,1.91C54.45,74.64,54.77,76.27,56.21,77.33Z" fill="#bb4d50"/><path id="hair" d="M77.51,7.17c-2.06,3.33.63,1.47-3.67,3.12-8.63,3.3-14.6,9.88-20.21,16.86a18.32,18.32,0,0,1-3.85,6.18c-1.19,1.4-3,3.67-2.28,4.83-.78,1.29-1.71.81-1.41,2.21a4.46,4.46,0,0,0-.71,1.41c-5.49,4.39-5.22,9.24-7.89,15.29-.73,1-1,2.24-2,3.06,0,.31,0,.62-.06.94-.72,1.31-.62,3-1.92,4.06l-.06,1c-.67,1-.57,2.46-1.89,3.06,0,.31-.07.63-.09.94-.79,1.29-.67,3-2,4.06,0,.3-.05.61-.05.91-.76,1.3-.62,3-2,4l0,0c-.47,1.28-1.32,2.69,1,3,1.36-1.21,2.66-2.5,4.08-3.62,1.88-1.49,3.07-3.87,5.27-4.93l0,0c-8.3,7.9-15.21,16.94-21.58,26.41A154.52,154.52,0,0,0,.45,130.94c-.09,1.42-.62,2.81-.19,4.25a6.47,6.47,0,0,0,2.82,1.49c.41.14.82.27,1.24.37a11,11,0,0,0,2.55.48,1.47,1.47,0,0,0,1-.67,1.73,1.73,0,0,0-.27-1.54,1.37,1.37,0,0,1,.16.18c2.16,2.47,5.51,3.34,7.73,5.74a44.84,44.84,0,0,0,17.57,6.2,35.85,35.85,0,0,0,12.36-1.28c4.54-1.85,6.63-5.73,8.23-10,2.7-7.16,3.53-14.72,4.79-22.2.8-6.38,2.42-12.63,2.87-19.07-3.73-1.49-5.65-4.61-7.22-8-.87-1.93-1.72-3.87-2.58-5.8-1.59-2.45-1.51-5.19-1.62-8-.1-2.35,1.38-5.65-.82-6.84a2.92,2.92,0,0,0-1-.33,28.43,28.43,0,0,0,3.48-2.8l3.87-3a6.72,6.72,0,0,1,.78-.63c1.2-.87,2.18-2,3.4-2.86-.73,1-2.2,1.61-1.77,3.25a7.05,7.05,0,0,0,.49,1.4,49.43,49.43,0,0,0,2.3,6.46c1,1.89,0,5.17,2.15,5.54,1.16.2.85-3.76,2.47-5.28,2.06-3.67,3-8,6.12-11h0c1.12-.72,1.4-2,2-3h0a9.67,9.67,0,0,0,2.09-2v0a3.36,3.36,0,0,0,1.94-2.29,12.74,12.74,0,0,1,7.71-9c9-3.86,17.83-8.11,27.36-10.53q.84-.24,1.68-.45c6.13,1.82,17,4.39,19.42,6.27,1.78.31,5.5,7.31,7,8.21,1.37,3.87,1.78,8,3,11.9a.51.51,0,0,1,.12.63,31.74,31.74,0,0,1,.82,7.65,28.37,28.37,0,0,1,1.06,3.67,99.84,99.84,0,0,0-2.18,22c-.28.87.09,1.1.89.91,5.06-10.34,6.62-21.47,7.26-32.78.52-9.26-.22-18.28-6.07-26.09a12.27,12.27,0,0,0-2.35,3.6c.23-2.53-1.16-4.5-2.47-6.47a1.52,1.52,0,0,0,.78-.08c1.23-1,.65-2.22.25-3.39-2.7-5.69-7.75-9.35-12.16-13.45A41.93,41.93,0,0,0,104.9.92c-7.19.07-14.12,1.72-21,3.43-1.35.34-3.8-.44-5.16,1.36Z" fill="#110000"/><path id="hair_lines" d="M39.54,72.84c-7.32,8.32-15,16.34-21.18,25.61-.41.62-1.34.89-2,1.32L31.5,64.87c.85-.43,1.26.1,1.62.74A4.86,4.86,0,0,1,32.7,69a11.25,11.25,0,0,1-.57,1.22,16.5,16.5,0,0,0-1.54,3.62,10.63,10.63,0,0,1-.45,1.23c-.57,1.16-1.16,2.32-1.66,3.53-.15.4-.32.8-.49,1.19a42.75,42.75,0,0,1-2.35,5.4l-.19.2s.27-.18.28-.2c.95-1.3,1.24-3,2.44-4.09,2.17-2.29,4.37-4.56,6.7-6.69C36.14,73.25,37.36,71.49,39.54,72.84Zm71-58c-.41-.51-.71-1.23-1.24-1.49A63.87,63.87,0,0,0,84,6.84c-.92,0-2.53.41-2.59-.58-.1-1.54,1.58-1.2,2.67-1.42Q94.53,2.79,104.93.67c-4.82-1.67-9.47.22-14.11.92C74.83,4,61.87,11.35,53.49,25.67A.83.83,0,0,0,53.43,27c3.92-.31,5-4,7.21-6.25C67.51,14,75.18,8.8,85.22,9.66a65.58,65.58,0,0,1,19.29,4.67c1.86.76,3.81,2.26,5.94.59l.08-.07Zm30,14h0c-5.39-3.75-10.1-8.54-16.86-10.16-5.74-1.37-11.48-.85-17.24-.85a29.25,29.25,0,0,1-2.94-.29c.6-1.15,1.75-.45,2.59-.77,1.48-.58,3.22-.56,4.38-1.86l.08-.07h0c3.4.64,6.77,1.69,10.19,1.85,7.35.34,12.46,4.89,17.94,8.81a3.91,3.91,0,0,1,1.88,3.32Zm-93,9c5.08-2.54,9-7.28,15-8-4.31,4.36-10.26,6.27-15,10ZM99.6,18.23c-.45.92-1.38.57-2.09.76C85.7,22.12,74,25.66,62.54,29.85c2.34-3.47,6.4-4,9.84-5.29,8-3,16.51-4.57,24.83-6.62A7,7,0,0,1,99.6,18.23Zm42.06,7.31c-.27,1.13.16,2.51-1.12,3.29v0h0c-.78,2.1,1.58,3.14,1.67,4.94-.46-.54-.49-1.3-1-1.85a7.15,7.15,0,0,0-2.44-1.66c-.6-.27-1.23-.47-1.84-.72-7.3-3.07-14.87-2.52-22.45-1.66-1,.11-2.48.26-2,2.05,1.65.53,3.53-.41,5.06.82s3.44.26,5.06.93a30.7,30.7,0,0,1,11.81,1.4c2.35.7,3.77,2.06,3.54,4.68a5.43,5.43,0,0,0,1.67,3l0,0c1.17.69-.69,3.24,1.87,3.08a45.49,45.49,0,0,0,4-12A16.3,16.3,0,0,0,141.66,25.54ZM41.52,70.86c1.71,0,2.66-1.2,3.75-2.21S47.5,66,49,66.8c1.21.6.35,2.42.51,3.69C50,74,48.23,77.9,51.58,80.81a34.36,34.36,0,0,1,.09-17.92C47.66,64.75,44,67.05,41.52,70.86ZM62.67,54.57c1.2,1.5-1.7,2.16-2.82,3-1.29,1-1.25,2.2-1.41,3.47-.83-.74-1.65-1.48-2.9-1.17a6.28,6.28,0,0,1,2.64-3.43C59.7,55.66,61.64,53.29,62.67,54.57Zm8.14-6.16c.11.27.21.54.36.93-1.75,1.12-3.51,2.26-5.3,3.35-.08.05-.43-.33-.66-.52a7.83,7.83,0,0,1,1.56-1.84C68.05,49.57,69.46,49,70.81,48.41ZM27.19,138.5c-.56.47-1.82.82-1,1.76.72.77,1.5-.13,2-.7,2.86-3.14,6.61-5.53,8.27-9.7l-1-1A37.85,37.85,0,0,1,27.19,138.5Zm22-42.75c.11.3.38.63.32.88q-1.38,5.45-2.84,10.85c-.07.23-.47.37-.88.68a5.81,5.81,0,0,1-.17-2c.89-3.12,1.87-6.22,2.86-9.32A4.91,4.91,0,0,1,49.15,95.75Zm-7.62,24.11a15.68,15.68,0,0,1-5,10l-1-1C38.07,126.21,38.36,122.08,41.53,119.86Zm1.9-4.67a5,5,0,0,1-1.89,4.66v-.48c-.08-1.66.71-3.08,1.32-4.55C43.05,114.94,43.41,115.05,43.43,115.19Z" fill="#241c23"/></g></g></svg>
