<svg xmlns="http://www.w3.org/2000/svg" viewBox="0 0 163.96 164.15"><defs></defs><title>full_10</title><g id="poca"><g id="_10" data-name="10"><path id="shoulder_left" d="M123.67,149.94c-.06-.59-.13-1.18-.19-1.77-1.33-1-.52-3.08-2-4,0-1.72-2.83-2.1-1.94-4.21,2-1.27,3.73-.36,5.49.46a10.35,10.35,0,0,0,7.49.74l3.76.2a1.29,1.29,0,0,1,.07.82c-1.11.23-3.11-.4-1.91,2,0,1.11-1.44,2.78,1.14,2.88h0c1.69,5.5,4.73,10.86,2,16.88h-8c-1.37-.94-.72-2.89-1.95-3.89.58-2.71-1.81-4.49-2.16-6.9C124.56,152.24,124.47,150.89,123.67,149.94Z" fill="#cb5f61"/><path id="shirt_dark_left" d="M148.6,146.33l1,.77a3.71,3.71,0,0,0,2.13,1.89,3.71,3.71,0,0,1,.81.21c5.57,4.6,6.86,8.44,5,14.73l-17.94.09c-2.3-2.76-.75-6.3-1.88-9.34-.73-2-1-4.06-2-6a8.53,8.53,0,0,1-.67-1.22c-.27-.62-.48-1.27-.7-1.92-.19-.4-.36-.82-.54-1.23-.09-.21-.17-.42-.26-.64-.3-2.79,1.17-2.4,2.88-1.59,1.55,1.06,3.67.54,5.14,1.84,1.21,1,2.86.92,4.21,1.61a3,3,0,0,1,1.86.52l-.07-.06A.84.84,0,0,0,148.6,146.33Z" fill="#faac88"/><path id="shirt_light_left" d="M157.48,163.93c-.32-2.94-.86-5.88-.91-8.83s-3.65-3.31-4.07-5.9l4.05,2a13.32,13.32,0,0,0,1,.95l-.05-.06c.33.39.84.52,1.2.87s.49.87.86,1.21l0-.06a23.47,23.47,0,0,0,2,3l-.05,0a2.67,2.67,0,0,1,.51,1.75c.69,1,.81,2.31,1.55,3.31l0-.07a1.4,1.4,0,0,1,0,2Z" fill="#f9b9ad"/><path id="shoulder_right" d="M39.58,164c-11.92,0-23.84,0-35.76.19-2.63,0-3.53-.86-3.39-3.39s0-5,0-7.44c-.87-3.84-.17-7.74-.4-11.61v-5.94c0-1.32,0-2.65,0-4,.3-1.4,1.66-1.87,2.46-2.83s2-1.09,3-1.57c3.65-.3,7.19-1.51,10.89-1.46,8.33,1.41,16.18,3.94,22.58,9.81.3,7.72-.94,15.53,1.71,23.11A5,5,0,0,1,39.58,164Z" fill="#cc5e61"/><path id="neck" d="M115.31,163.94l-49.75,0c-3.25-.57-6.61-.75-9.41-2.82a4.9,4.9,0,0,1-1.07-1,28.36,28.36,0,0,1-2.48-5.11,10.51,10.51,0,0,0-1.72-5.17c.34-5.31-3.65-10.08-2-15.57,2.48-2.26,3.57-5.57,5.91-8,9.84-2.6,17.39-9.51,26.21-14,1.64-.84,3.19-1.82,3.8-3.74,3.57-3.55,8.83-4.16,12.66-7.32,2-1.65,4.49-2.7,5.8-5.12.44-.86.68-2.24,1.88-1.94,1.56.39,1.72,2,1.5,3.28a89,89,0,0,0-1,11.87,24.66,24.66,0,0,0-.1,3,52.78,52.78,0,0,1-1.88,19,72.52,72.52,0,0,0-2.2,15,3.64,3.64,0,0,1-.2,1.46c1-.39.24-1.13.2-1.59-.32-3,.91-5.83,1.18-8.77a2,2,0,0,1,2.44-1.86c5.08,3.54,6.77,9.25,9.27,14.45a16.1,16.1,0,0,0,2,5.77C117,158.66,117.71,161.52,115.31,163.94Z" fill="#cc5e61"/><path id="necklace_right" d="M61.17,163.87l-6.54-2.7a6.67,6.67,0,0,0,1-1.14c.3-2.07-1.25-3.36-2.1-4.94-1.68-1.3-.45-3.72-1.94-5.1.79-5.47-2.69-10.42-2-15.89-4-1.38-7.61.14-11.27,1.37-1,2-.51,4.2-.77,6.29-.94,7.55,1.6,14.78,2,22.2l8,0c1-.37,2.13-.61,3.19-.91a3.86,3.86,0,0,0-.49.83Z" fill="#568aa2"/><path id="necklace_left" d="M115.31,163.94c.71-2.91.19-5.85.19-8.78-1.56-1.33-.29-3.77-2-5-2.82-3.2-3.22-7.71-6-11-.79-.95-2.15-1.55-2.3-3-.43-.85-2.91-.6-1.36-2.52a19.49,19.49,0,0,1,15.53,4.68,4.26,4.26,0,0,1,.8,1.17c-.44,2.11,2.11,2.74,2.32,4.54.2,1.48-.12,3.12,1.39,4.16a4.8,4.8,0,0,1,.71,1.79,6.06,6.06,0,0,0,1.82,3.39,10.37,10.37,0,0,1,2.35,7,4.93,4.93,0,0,1-1.24,3.65Z" fill="#5789a2"/><path id="face" d="M28.8,59.75c.23-.47.45-1,.68-1.42-.85-2.27-.32-4.94-2.05-6.95a5.08,5.08,0,0,1-.35-2.75c.29-2.1,2.73-2.5,3.36-4.28,0,0-.43-.07-.43-.07l-.43.11a1.54,1.54,0,0,1-1-.18,2.19,2.19,0,0,1-.69-1.55,6.25,6.25,0,0,1,.17-1.29c.25-1.13.31-2.28.48-3.43a50,50,0,0,1,1.53-6.31c1.6-5.05,4.56-8.68,9.9-10.32a97.44,97.44,0,0,1,16.09-3.43,9.83,9.83,0,0,1,4.55,1,11.35,11.35,0,0,1,3.45,2.79c5,5.93,10,11.94,16.91,15.88,2.83,2,6,3.5,8.74,5.72C94,46.72,97,50.9,97.78,56.53c.14,1.11,0,2.76,1.14,3.1,1.5.44,2-1.37,2.87-2.27a32.31,32.31,0,0,0,2-2.83c.92-1.22,1.93-2.28,3.64-2.21A4,4,0,0,1,111,54.74c-.66,2.61,2.72,3.27,2.69,5.57,1.11,4.21,2.84,8.67-3.78,9.9-.31.06-.69-.14-.56,0a.79.79,0,0,0,.9.23c5.36-2.85,5.48-3.31,3.06-10.75,0-3.17,2.22-1.68,3.7-1.74,4.31,2.6,5.34,7,3,12.8a23.45,23.45,0,0,1-3.4,5.41c-1.58,1.62-3,3.42-5.1,4.46a4.6,4.6,0,0,1-2.18.11c-3.35-1.61-4.68-.63-4.51,3.14.18,4.08.35,8.23-1.41,12.13-2.17,4.08-6.15,6-10,7.89-4.18,2-8.29,4.19-12.61,5.92-.41.23-.84.44-1.26.65s-.83.43-1.25.64c-2.71,1-4.67,3.16-6.93,4.85a17.42,17.42,0,0,1-8.67,3.57c-.41.14-.84.25-1.27.36a10.06,10.06,0,0,0-3,1.26c-1.61,1-3.49,1.18-5.18,1.94-7.7,1.76-10.45.34-13.19-6.86-1.22-3.19-2.89-6.27-2.63-9.87a3.56,3.56,0,0,1,.89-2c1.05-1,2.31-.56,3.51-.56,5.35.44,10.12-.71,13.71-5,.49-.63.93-1.31,1.45-1.9,2.34-2.63.4-2.86-1.67-3a52.56,52.56,0,0,0-10.88-3.15c-2.77-.39-4.9.23-5.86,3.12-.87,3.3,3.31,6.22.72,9.63-.29.34-.6.66-.92,1a1.36,1.36,0,0,1-1.2-.36c-.64-.86-1.1-1.85-1.81-2.67-1.6-1.77-1.05-4.13-1.72-6.15C31.76,87.44,28.17,80.12,27.71,72a8.84,8.84,0,0,0,.07-5c-.1-.68-.06-1.3.72-1.58a12.14,12.14,0,0,1,3.91-1.78,1.5,1.5,0,0,0,.78-1.24C32.19,60.72,29.51,61.86,28.8,59.75Z" fill="#cc5e61"/><path id="neck_shadow" d="M55.49,127.09a4.37,4.37,0,0,1,.87-3c.25-3.2,4.88-1.8,5.19-4.94a29,29,0,0,0,13.38-7.59,5,5,0,0,1,3.62-1.41c2.42.31,4.27-3.17,7-1,0,1.33-.1,2.29-1.65,3.14-7,3.86-13.9,7.86-20.49,12.39C61,126.22,57.88,125.48,55.49,127.09Z" fill="#c45255"/><path id="neckline" d="M102.61,131.08l1.17,3.12c.11.93,1.56.84,1.47,1.93-3.12,2.82-2.18,6.72-2.72,10.23-.14.95-.24,1.91-.37,2.87a2.75,2.75,0,0,1-1.53-2.85C101.27,141.28,100.87,136,102.61,131.08Z" fill="#bb4f53"/><path id="jawline" d="M103.56,83.43c0,4.26.07,8.5-1,12.67-1.65,1.33-3.22,2.78-5,4-5.59,3.82-12.07,5.89-18,9.06-.37.3-.65.69-1,1h0c2.65,1.86,4.45-2,7-1a9.62,9.62,0,0,1,1.14-.88c5.93-3.24,12.56-5.4,16.92-11,.4-.67.87-2,1.21-1.93,1.47.14.76,1.5.64,2.15a53.74,53.74,0,0,0-.81,14.76c.19-.27.52-.51.55-.8A210.18,210.18,0,0,0,107,83.08c0-2.31.51-3,2.59-3C103.69,76.9,103.54,77,103.56,83.43Z" fill="#ae3a41"/><path id="chin" d="M61.55,119.11c1.57,1,3.08,2.07,0,2.92-1.82.5-3.74.64-5.2,2,0-2-1.73-1.54-2.84-2,1.27-1.67,3.59-.75,5-2,.83-.85,2.21,0,3-1Z" fill="#ad3d43"/><path id="lips" d="M55.05,96.94a4,4,0,0,1,.52-3.86C52,90.52,47.78,90,43.67,89.22c-3.57-.64-6.18.64-6.13,4.89C38.7,95.62,39,98.89,39.9,101l-.09.14c-1.12,2.25,1,2.75,1.72,4,5.88.15,11.47-.38,15-6C57.72,97.17,56.19,97.19,55.05,96.94Z" fill="#c53747"/><path id="lips_shadow_bottom" d="M55.57,93.08c-3.09.93-8.68,2.31-12.15,3.31-.77-3.1-4.17-1-5.88-2.28-1,.66-1.42,2-.6,2.5,3.24,2,1.55,4.91,1.6,7.49h0l3,1c-1.07-4.75-1.07-4.79,4.83-4.59a1.77,1.77,0,0,0,2-1.59c-1.23-1.65-3.65,0-4.85-1.77a.15.15,0,0,1,0-.07,35.1,35.1,0,0,0,4.81.24c2.06.37,4-.49,6.06-.42-.69,2.11,2.81.1,2.15,2.18.4-.49.84-1,1.2-1.46,1-1.43,2.37-2.66,2.46-4.58Z" fill="#b8444e"/><path id="teeth" d="M48.72,96.19a3.29,3.29,0,0,0-.16.44h-.38c-1.22.14-2.53-.37-3.66.48a1.18,1.18,0,0,1-1,.06c-.47.15-1.11.14-1.36.46-.64.8,0,1.23.72,1.26,1.82.09,3.66,0,5.49.05l.07,0c.67-.37,1.75-.08,2.15-.91a.78.78,0,0,0,.86.26,4.85,4.85,0,0,0,2.07-1.14,5.39,5.39,0,0,1,.86-.28C52.71,95.17,50.59,96.68,48.72,96.19Z" fill="#f5aea9"/><path id="nostril_left" d="M43.11,82.35a3.08,3.08,0,0,1-2.35,1.44c-.56.07-.75-.56-.35-1a6.45,6.45,0,0,1,1.9-1.4C42.81,81.22,43.19,81.69,43.11,82.35Z" fill="#b7464c"/><path id="nostril_right" d="M37.93,85c-.21.4-.35.85-.45.84-1.28-.14-1.91-1.15-2.55-2.08-.25-.38,0-1.18.46-.89A16.67,16.67,0,0,1,37.93,85Z" fill="#b9474e"/><path id="eye_left" d="M53.5,52.87l1.81.09A5.48,5.48,0,0,1,59.5,53a1.56,1.56,0,0,1,.21,1.26c-1.36,1.45.1,3.12-.34,4.65a19,19,0,0,1-3.15.94c-1.11-2.29-4-2.56-5.09-4.46C50.28,53.89,52.67,53.75,53.5,52.87Z" fill="#2d0d0f"/><path id="eye_line_top_left" d="M59.57,54c-1.17-1.37-2.85-.59-4.26-1,4.43-1.94,8.83-.53,13.23.1.77,2.07.77,2.07-2.92,3.11-.75.51-1.1.06-1.38-.57.15-2.49-1.28.44-1.59-.45C61.46,55.16,60.3,55.1,59.57,54Z" fill="#4f1519"/><path id="eye_line_bottom_left" d="M64.58,55.32c.34.29.69.57,1,.85a22.7,22.7,0,0,1-6.25,2.76c-1.27-1.39-3.26-2.67-.68-4.63,1.47,1.68,3.21.71,4.87.5A.8.8,0,0,1,64.58,55.32Z" fill="#672831"/><path id="eye_white_left" d="M63.59,55.2,61,56.49c-2.81,1.4-2.63-.31-2.28-2.19a2.32,2.32,0,0,0,.88-.35l4,.26c.36.19.49.41.39.64S63.71,55.2,63.59,55.2Z" fill="#d9b2b6"/><path id="eye_lid_top_left" d="M53.5,52.87l0,.06a5.73,5.73,0,0,1,.85-.07h.12a5.23,5.23,0,0,1,1.42-.2H56l.31,0A4.83,4.83,0,0,1,58,52.17,5.6,5.6,0,0,1,59.24,52h.1a5.27,5.27,0,0,1,.57,0,5.33,5.33,0,0,1,.82.07c.14,0,.26,0,.41,0a5.4,5.4,0,0,1,1.31.16h.29a5.32,5.32,0,0,1,1.76.29,4.93,4.93,0,0,1,1.49.29,4.92,4.92,0,0,1,1.68.33,3.22,3.22,0,0,1,.54.1l.33-.12C64.55,47.51,57.46,47.42,53.5,52.87Z" fill="#b55259"/><path id="brow_left" d="M69.83,42.68c-.36-1.93-1.9-2.67-3.42-3.43-1.88-1.43-4.08-1.22-6.21-1.11-4.44.23-8.88.49-13.29,1-1.3.15-3.54-1.43-3.68.38s2.11,2.71,4.1,2.62c1.31-.06,2.61-.29,3.92-.44C56,41.14,60.65,40,65.46,40.2h0C66.86,41.14,67.93,42.64,69.83,42.68Z" fill="#821c22"/><path id="eye_right" d="M28.8,59.75c1.89.52,4,.28,5.7,1.5.83.58,1.2,1.09.2,1.81l-.51,0a1.35,1.35,0,0,0-.71.68l-.06.51C32,65.55,30.23,65.4,28.5,65.41,29.6,63.58,24.56,61.42,28.8,59.75Z" fill="#2e151b"/><path id="eye_white_right" d="M34.56,63.05l-1.17,1.08c-1.08-.45-1.09-1.24-.3-1.82C33.65,61.9,34.33,62.27,34.56,63.05Z" fill="#b09ca4"/><path id="brow_right" d="M27.56,48.35,27.71,45c.42-.64,1.31-.43,1.78-1h0a7.6,7.6,0,0,0,1-.94c.52-.56,1.33-1.43,1.38.12C32,46.1,29.56,47.09,27.56,48.35Z" fill="#771a21"/><path id="ear_curve_left" d="M113.55,59.89c2.88,5.66,2.44,9-1.79,11.09-2.38,1.19-4.17.29-4.17-2.12,0-.84.18-1.85,1.13-2s.65.86.85,1.42c.83,2.49,2.14.7,2.92.11,3.05-2.28.38-5.72.65-8.46-.81-1.71-3.55-2.09-2.61-4.85a11.7,11.7,0,0,1,6.06,4C115.67,59.62,113.84,57.47,113.55,59.89Zm-7.52,4c-.35,1.07.66,1.17,1.47,1.19s1.67-.13,1.66-1.18c0-.67-.57-1.07-1.47-1.27C107.2,63,106.22,63.28,106,63.86Z" fill="#ba4c51"/><path id="hair" d="M151.48,97.27C149.35,90,145,84.24,141,78.17c-.36-.54-1.05-.85-1.13-1.59.17.62.72,1,1.06,1.47,3,4.33,6.09,8.66,8.75,13.24a1.66,1.66,0,0,0,1.38-.28c.51-.6.95-1.21.52-2-2.94-20.08-5.8-40.19-18.67-57-1.09-.25-.89-1.28-1.21-2l0-.07c-.61-.67-3.78.89-1.8-2.14.33-.5-.63-1.35-1.17-1.94A65.9,65.9,0,0,0,110.09,5.6a2.48,2.48,0,0,0-.71-.07c-.76-2.22-3.21-2.34-4.85-3.46l-.26-.25-.33.13a12.49,12.49,0,0,1-2.39-.67L98.63.86C97.68,0,96.49.17,95.36.12A107,107,0,0,0,58.46,5a1,1,0,0,0-.15,1.12c-1.55.14-3.54-.12-1.7,2.64s4.5,5.44,3.94,9.33c3-.23,4-3.09,6.14-4.52a2,2,0,0,0,1.44,1.78l-.08,0c-.87,1.23-.8,2.15.91,2.2.56,0,1.12,0,1.68,0a33.39,33.39,0,0,0-3.61.33c-2.36.38-4.74,1-3.57,4.38,4.61,6.43,9.61,12.43,17,15.82,1.1,1.83,3.11,2.44,4.79,3.42a24.69,24.69,0,0,1,9.26,8.77c1.89,3.19,2,6.95,3,10.45.49,1.82,1,2.53,2.38.74,1.62-2.07,3.65-3.85,4.65-6.38a3.16,3.16,0,0,0,.2-3,16.22,16.22,0,0,0,2.83,1l3,2c1.46,2.18,4.1,2.55,6.06,4,3,.52,3.12,2.84,3.32,5.22.4,4.65-2.28,8.07-4.47,11.71a2.88,2.88,0,0,0,.32,2.36c-.84-.23-2,.4-4.3,1.68l-1.92.09c-3.58-1.44-3.9.91-4,3.46-.29,9.51.74,19.07-.94,28.54a95.82,95.82,0,0,1-2,19c-1,1.57-.29,2.48,1.17,3.12a32.55,32.55,0,0,1,15.62,5c2.6,1.09,4.32-.08,6-2.05.09-.11.16-.22.25-.32-1.55,3.59-.24,4.27,5.4,5.12.49.07,1,.2,1.47.24,1.37.1,2.71.13,3.83-.87,9.82-7.09,14.23-17.07,15.36-28.8C151.55,107.45,153,102.51,151.48,97.27ZM69.34,14.62a1.35,1.35,0,0,0,.2-1.51,6.18,6.18,0,0,0,.79-.62c-.12.37-.25.73-.4,1.09a2.87,2.87,0,0,0,1,.16C70.38,14,69.86,14.32,69.34,14.62Zm36.93-8.74c.15,0,.26.2.39.3l.38.21a2.72,2.72,0,0,1-.82-.52Zm-.66-.17a9.28,9.28,0,0,0-3.24.06A7.39,7.39,0,0,1,105.61,5.71ZM74.38,17.16c-.34.08-.67.13-1,.18a9.47,9.47,0,0,0,1.71-.48,79,79,0,0,1,13.75-.13A64.91,64.91,0,0,0,74.38,17.16Zm14.53-.42a86.8,86.8,0,0,1,18.16,3.42A95.74,95.74,0,0,0,88.91,16.74ZM107.29,6.49l-.1,0,.12,0ZM109,20.77h0c2.92,1.82,6.45,2.1,9.45,3.71C115.43,23,111.92,22.65,109,20.77ZM121,26c-.47-.29-.93-.6-1.39-.91.43.29.89.54,1.33.83.27.18.81.31.81.39a.42.42,0,0,0,0,.14C121.61,26.55,121.23,26.2,121,26ZM57.14,123.52a7.34,7.34,0,0,1-1.65,3.57c-2.19,2.14-2,6.23-5.84,7-3.77.34-7.38,2-11.27,1.37-7.08-3.21-13.93-7-21.69-8.52-.76-.36-1.67-.61-1.18-1.8C22.08,115.49,29,106,33.62,95.2c1.75,1.59,1.43,4.16,2.76,6,1.14.7.2,2.2,1.14,3h0c.76.58.46,1.56.87,2.27.42,4.65,2.66,8.74,4.14,13.06.89,2.63,3.41,2.91,5.65,3.13a27.88,27.88,0,0,0,5.34-.47C55.24,121.27,56.64,121.22,57.14,123.52ZM58.74,14c.26,1,.61,2-.19,2.79s-1.9,0-2.7-.4c-1.9-1-3.62-2.29-5.57-3.2-.4-.19-.75-.57-1.27-.42.6-.05,1,.36,1.5.6A57,57,0,0,1,56,16.7c1,.62,1.33,1.41.49,2.43-5.18,1-10.4,1.78-15.5,3.24-5.53,1.58-8.58,5.1-9.8,10.54-.47,2.09-1.1,4.14-1.67,6.21-1,.8-.16,2.14-.92,3a1.91,1.91,0,0,0-.21.81,1.15,1.15,0,0,1-.91.72,1.71,1.71,0,0,1-1.08-.55c-3.88-6.93-2.46-13.5,1.21-20C31.08,17,35.32,11.66,41.42,8,49.16,3.52,56.6,6.11,58.74,14Z" fill="#110101"/><path id="hair_lines" d="M58.46,5l.08,1.09c-1.13,1.92,0,3.38,1,4.88,1.4,2,2.39,4.23,2,6.81a2.66,2.66,0,0,1-1,1.8l-4-.44c-1.31-3.52-5.06-3.87-7.6-5.79-.45-.35-1.28-.1-1.5-.89a4.88,4.88,0,0,1,1.89-.22,21.72,21.72,0,0,1,6.57,3.47c.57.43,1.48,1.23,2.16.51s-.26-1.5-.57-2.2c-3.18-7.19-6.7-8.5-16-6,1.49-2.28,3.63-3,6.27-2.91C51.28,5.19,54.87,5,58.46,5Zm92.07,86.12c-3.24-5-6.26-10.08-10.1-14.62-.58-.69-1.13-2.43-1.87-1.8-1,.84.31,2,1,2.87A68.76,68.76,0,0,1,147.63,90c3.37,7.15,4.4,14.72,4.05,22.54A43.37,43.37,0,0,0,151.61,89l-1.07,2.13ZM116.16,11.63c4.51,4.52,8.14,9.75,12.33,14.52a1.06,1.06,0,0,0,.21-1.48c-3.5-7.51-9.4-13-15.67-18.08-2.43-2-4.83-4.62-8.5-4.52l5,4C111.47,8.26,114.08,9.55,116.16,11.63Zm12.08,16.74c-.55.09-1.49-.5-1.72.08-.39,1,.92.95,1.37,1.49,1.25,1.51,2.54.8,3.8-.05a12.05,12.05,0,0,0-3-5.22l-.21,1.48C128.35,26.89,130.62,28,128.24,28.37Zm-8.66,111.54c2.7.71,5.38,1.45,8.09,2.11,1.74.43,3.58,1.08,4.89-.91a8.74,8.74,0,0,0-2.81-.72c-4.47-.16-4.82-.82-2.47-4.42,1.37-2.1,3-4.17,3.16-6.66.34-6.08.62-12.17-.87-18.21-3-12.38-7-24.37-14.13-35.11a16.25,16.25,0,0,0-4,4c.9.36,1.86,1.08,2.62-.12,1.34-2.12,1.74-.94,2.46.5a118,118,0,0,1,11.23,32c1.22,6.64,2.8,13.08-.52,19.81-1.82,3.7-3.62,6.44-7.85,7ZM63.46,22.3c.15-1.91,1.2-2.68,3.06-3.3,2.64-.88,5.64-.11,8-1.9h0c-1.24-.88-2.51,0-3.74-.1-.72,0-2.3,1.18-2.27-.93q.15,0,.3-.33c.09-.22,0-.44-.29-.66a2,2,0,0,1-1-2c-3.61-.13-4.76,3.2-7,5,0,.5,0,1,0,1.49A7.66,7.66,0,0,0,63.46,22.3Zm44.12,30.83c-2.06-1.85-4.17-3.62-7-4,1,2.24,4.9,2.54,4,6C105.63,54.57,106.05,53,107.58,53.13Zm-11-46,2.87-.35c-.37-1.42-1.51-.63-2.25-.66a28.67,28.67,0,0,0-6.36.64C83.46,8.09,76.63,11,69.54,13.11l-1,2c0,.33,0,.66,0,1A93.92,93.92,0,0,1,96.54,7.15Zm-22,10a5.18,5.18,0,0,0,3.84.44c6.63-1,13.08-.19,19.62,1.1,3.86.77,7.48,2.75,11.55,2.46h0a8.13,8.13,0,0,0-2-1.41,64.19,64.19,0,0,0-16.91-3.43c-5.33-.19-10.85-1.31-16.11.85Zm35,4c2.73,2.84,6.48,3.12,10,4h0c-2.68-3-6.33-3.53-10-4Z" fill="#1c1214"/></g></g></svg>
