<svg xmlns="http://www.w3.org/2000/svg" viewBox="0 0 167.73 166.49"><defs></defs><title>full_16</title><g id="poca"><g id="_16" data-name="16"><path id="shoulder_left" d="M139.77,144.19a10.52,10.52,0,0,1,1.71,3.09c-.54,4.32-1.36,6.93.79,10.81,1.35,2.45-.72,5.27,1.19,7.51a7.66,7.66,0,0,1,0,.83l-9.87-.05a3.23,3.23,0,0,1-.84-1,10.15,10.15,0,0,1-.42-2.57,6,6,0,0,0-1.43-3.35,46.18,46.18,0,0,0-2.16-4.62,9.66,9.66,0,0,0-1.74-4.07c-1.91-3.15-4.67-6-3.76-10.17a2.47,2.47,0,0,1,2-.61,14.15,14.15,0,0,1,2.71.83c4.45,1.37,6,3.05,10.66,3.06" fill="#cc5e61"/><path id="shoulder_shadow_left" d="M143.47,166.43c-.84-.07-1.34-2-1.14-2.54,0-6.56-2.49-6.6-2.68-11.29,0-.46.28-1.27.11-1.36-1.47-5.76-.29-4.84.82-6.59C144.11,151,145.87,159.27,143.47,166.43Z" fill="#b54449"/><path id="shirt_dark_left" d="M157.79,152.57l3.7,3.09c.51,3.82,3.46,8.09-2,10.83l-16.05-.06a2.53,2.53,0,0,1-.59-1.42c1.52-6.86-1.23-13.12-2.74-19.55.47-1.22,1.2-1.7,2.4-.83l10,5C154.52,150.14,156,151.7,157.79,152.57Z" fill="#faac88"/><path id="shirt_light_left" d="M159.52,166.49a6.76,6.76,0,0,0,1.72-7.16,4.2,4.2,0,0,1,.25-3.67l4,6c.74,1.27.83,2.89,2.06,3.91l-.05,0a.77.77,0,0,1,.05.94Z" fill="#f7bcb1"/><path id="shoulder_right" d="M.57,129.38c.32-.93,1.16-1.18,2-1.51,6.31-4.3,13.38-3.78,20.46-3.23,7.88,1.83,15.27,4.65,21.34,10.26a6.16,6.16,0,0,1,.48,1.62c.25,7.22.19,14.44.12,21.65a11,11,0,0,0,.93,6,1.44,1.44,0,0,1-.34,1.41c-13.9,0-27.8,0-41.7.1-2.64,0-3.51-.89-3.38-3.41s0-4.95,0-7.43C-.39,150.55.26,146.24.05,142v-7.27C.25,132.92-.42,131.07.57,129.38Z" fill="#cc5e61"/><path id="neck" d="M107.77,166.25c-10.65.25-21.3,0-31.94-.53-4.13-2.69-9.25-2-13.59-4A7.57,7.57,0,0,1,61,160.9a14.28,14.28,0,0,1-2.5-2.87c-3.3-7.2-5.24-14.65-4.15-22.66.65-2.83,2.52-5,4.22-7.17,1-1.33,2.42-3,4-2.61,3.84,1,5.34-1.92,7.56-3.68,5.17-4.11,10-8.63,15.39-12.49a8.45,8.45,0,0,0,2.67-4.07c5.94-5.27,13.43-8.75,18-15.63A43.15,43.15,0,0,0,107.8,84c.21-1.21,1-2.22,2.44-1,1.73,2.46,1.66,5.32,1.73,8.11.27,12,.12,24.09-1.66,36.05a27.13,27.13,0,0,0-.2,4.93c1.14,4.27,4,7.73,5.74,11.69.87,1.93,2.28,3.63,2.81,5.76.19,2.21.15,4.48,1.63,6.37a9.22,9.22,0,0,1,.18,5.55C117.73,167,112.47,165.9,107.77,166.25Z" fill="#cc5e61"/><path id="necklace_left" d="M108.68,133.72a22.93,22.93,0,0,1,14.84,7.36l4.14,9.37c1.14,1.16.52,3.09,1.85,4.16a5.51,5.51,0,0,1,2.14,4.9c.91.9.7,2.41,1.76,3.23,0,1,0,1.91,0,2.86-5.41,1.54-9.07-3.17-13.84-3.91l0-6.07c-1.81-1.61-.1-4.41-2-6C114.82,144.19,112.19,138.71,108.68,133.72Z" fill="#5789a0"/><path id="necklace_right" d="M59.68,158.52c-2.8-7.72-5-15.55-4.37-23.89a24.48,24.48,0,0,0-11.65.86c-.37,8-.35,16,0,24.07.31.43.54,1,1,1.17a16.43,16.43,0,0,0,.85,3.92c0,.3,0,.6,0,.91l5,0c3.68-1.66,7.5-3,11.06-5A1.89,1.89,0,0,0,59.68,158.52Z" fill="#568aa2"/><path id="face" d="M118.45,54.8A8.44,8.44,0,0,0,116.23,51q-.35-.19-.69-.42c-.4-4.5-4.61-5.14-7.85-6.74a6.44,6.44,0,0,0-1.51-.25,4.5,4.5,0,0,0-4.31,2.64c-.84,2.43-3.06,4.42-2.42,7.31C97.17,53,97,50.74,96,49.09c-1.09-1.84-1.32-4.54-4.32-4.59l-.09.08v0c.12-.12.23-.25.35-.38A2.31,2.31,0,0,0,91,41.7a37.81,37.81,0,0,0-6.48-3.93A58.28,58.28,0,0,1,68.16,27.45c-2.55-2.26-5.11-4.8-8.68-5.62-3.46-1.62-6.93-3.2-10.92-2.29-4.87-1-8.36,2.26-12.36,3.95a10.69,10.69,0,0,0-1.65,1.17l-.49.44q-.51.41-1,.84a9.74,9.74,0,0,0-1,.84c-1.17,1.39-3.79,1.9-2.78,4.6l.08,0a3.19,3.19,0,0,0-.48.66c-.58.87.37,2.66-1.61,2.67-1.44,2.16-1.68,4.77-2.64,7.11-.67,2.07-.15,4.25-.56,6.34a1.61,1.61,0,0,0,1.23,1.87c.79.21,1.48-.25,2.23-.26a20.49,20.49,0,0,0-2.05,1.39,3.28,3.28,0,0,0-.66.73,4.14,4.14,0,0,0-.76,1.91,4.67,4.67,0,0,0,.2,2.07c.73,2.71,1.58,5.34,3.95,7.13a9.16,9.16,0,0,0,3.21.82,3,3,0,0,1,2,1.21c.29,1.08-.52,1.15-1.19,1.35a17.34,17.34,0,0,0-2.67.46,6.26,6.26,0,0,0-1.33.64,3.93,3.93,0,0,0-1.67,2.58,35.62,35.62,0,0,0,.84,10c0,1,0,1.89,1,2.46.36.34.64.71.33,1.23,3.48,3.78,5.43,8.5,8,12.84.73,2.3,1,4.94,3.94,5.66,2.18-.13,2.6-1.37,2.51-3.37-.2-4.88,2.08-7.56,6.88-8.46A30.79,30.79,0,0,1,58,90.37c1.83.13,3.48-.94,5.31-.66-1.07,2.05-1.78,4.26-3.24,6.12-3,3.83-7.15,5.13-11.72,5.51-2.45.2-5-.23-7.17,1.33a3,3,0,0,0,.15,2.88c3,4.77,5.43,9.89,8.63,14.53a8.43,8.43,0,0,0,4.71,3.5A10.69,10.69,0,0,0,60,123.2c4.44-1.25,8.39-3.6,12.53-5.52,2.37-1.32,4.1-3.36,5.95-5.26,7.12-5.92,15.09-10.7,22.33-16.46,2.52-2,4.76-4.09,5.84-7.19,1.74-4,.89-8.07.23-12.14-.37-2.34-.42-4.57,3.11-3.34C116,71.18,120.18,62.1,118.45,54.8Zm-8.9-5.19-.12.08.08-.08Zm-.27.25c.32.85.65,1.69.94,2.54A14,14,0,0,0,109.06,50,.45.45,0,0,0,109.28,49.86Zm-2.2,14.37a.65.65,0,0,1-.59-.62c1,.81,1.81.49,2.63-.21a6.25,6.25,0,0,0,.78-.86s0,0,0,0C109.31,63.54,108.49,64.5,107.08,64.23ZM111,59.77a9.09,9.09,0,0,0,.12-1.29,16.39,16.39,0,0,0-.56-5A12.15,12.15,0,0,1,111,59.77Z" fill="#cc5e61"/><path id="neck_shadow" d="M59.51,128.61a3.17,3.17,0,0,1,1-3c.8-1.17.86-3.17,2.58-3.31,4.16-.32,6.24-3.88,9.45-5.65l5.07-5c2.91,0,3.94-3,6.33-3.93,1.58-.59,2.62-2.42,4.64-2.07a2.82,2.82,0,0,1-1.4,4.14c-4.63,1.74-6.56,6.66-10.89,8.71-1.55.73-2.81,2.22-4.16,3.4-2.64,2.28-4.94,5.74-9.37,4.74C61.12,126.26,60.6,128,59.51,128.61Z" fill="#c45155"/><path id="jawline" d="M109.54,72.58c-1-1.1-2.21-2.21-3.73-1.41s-.21,2.34-.25,3.54c-.15,4.63,2.2,9.26,0,13.9a15,15,0,0,1-5.39,6.27c-7.61,5.46-15.06,11.15-22.57,16.75,1.35,1.7,2.59.28,3.34-.46,2.27-2.26,5.06-3.73,7.63-5.54,6.83-4,13.06-8.73,18-15,2.36-2.17,1-5.7,3-8C110.54,79.26,107.21,75.92,109.54,72.58Z" fill="#af3b41"/><path id="chin" d="M72.51,116.63c-2.53,2.59-3.84,6.69-8.63,6.41-1.49-.08-2.2,1.76-3.4,2.55,0-1.67-1.09-2-2.49-2.06-1.18-.08-2.57.4-3.45-.9,4.55,0,8.6-1.62,12.53-3.75C68.79,118,70.44,116.75,72.51,116.63Z" fill="#b24145"/><path id="lips" d="M41.24,102.62a.87.87,0,0,1-.69-1c1.42-.11,2.18-.77,1.8-2.27-.33-1.31-2.6-2.26-1-3.87,1.81-1.86,2.68-4.56,5.51-5.56a17.15,17.15,0,0,1,7.68-1.08c3.55.45,6.8.44,9.9-1.49.36-.23,1.08-.4,1.31-.21.75.62.07,1.09-.34,1.58a5.08,5.08,0,0,0-1.13,1.61c-3,10.1-10.5,12.81-20,12.27C43.24,102.56,42.24,102.62,41.24,102.62Z" fill="#c63947"/><path id="nostril_left" d="M47.93,81.88c-.14,1.44-1.22,1.58-2,2-.45.22-1.08.19-1-.38.06-.94.39-2,1.43-2.22C46.77,81.15,47.41,81.67,47.93,81.88Z" fill="#b7464b"/><path id="eye_left" d="M54.56,59.88a2.77,2.77,0,0,0-2-3.05c-3.82-1.71-3.86-2.28-.55-4.8a4.72,4.72,0,0,1,1.4-.48,1.91,1.91,0,0,1,2.49.15c.8.79,1.48,1.68,2.21,2.54a3.64,3.64,0,0,1,.91,2.5c-.34,2-2.44,1.79-3.52,2.87h0A1.39,1.39,0,0,1,54.56,59.88Z" fill="#2e080b"/><path id="eye_lashes_left" d="M55.72,52.83a2.34,2.34,0,0,0-2.27-1.28c3.49-3.23,7.73-2,11.74-1.86,1.57.07,2.27,1.24,1.17,2.81-2.15,2.23-4.28,4.51-7.81,4.13l-1-1.82c.58-1.41,2.1-1.52,3.16-2.28A10.6,10.6,0,0,1,55.72,52.83Z" fill="#541a1e"/><path id="eye_white_left" d="M55.72,52.83A5.18,5.18,0,0,1,57,52.12c1.92-.48,3.83-1.67,5.81-.18-1.49,1.47-3,3-5.3,2.87Z" fill="#d5b4b7"/><path id="brow_left" d="M66,38.64a11.5,11.5,0,0,0-1.44,0,9.19,9.19,0,0,0-7.24-.67c-3.8,1.12-7.52,2.53-11.21,4-1,.38-2.92.09-2.75,1.38.2,1.53,2,1.26,3.35,1.34,1.61.1,2.76-.9,4.1-1.51,4-1.84,8-4,12.75-3.43a3,3,0,0,0,2.08,1c.88.21,2,.94,2.3-.51C68.12,39,66.9,38.8,66,38.64Z" fill="#831c22"/><path id="eye_right" d="M26.61,66.71a3.19,3.19,0,0,1-.87-3.19c.26-.53.44-1.11,1.07-1.34a1.44,1.44,0,0,1,1.07.37A12.88,12.88,0,0,0,29.74,64a4.83,4.83,0,0,1,1,1.42,2.37,2.37,0,0,1,.09,1.15c-.32.5-.92.68-1.28,1.14h0C28.22,68.5,27.35,67.8,26.61,66.71Z" fill="#08070c"/><path id="eye_lashes_right" d="M34.53,64.61c1.47,2.38,1.3,2.62-2.06,2.88a.91.91,0,0,1-.26-.69c0-.25.06-.37.11-.37A6.69,6.69,0,0,1,34,64.83Z" fill="#792e35"/><path id="eye_line_top_right" d="M32.44,62.77l-4-.54-1,.38a3.79,3.79,0,0,0,2.06,2,4.55,4.55,0,0,0,2.68-.43.94.94,0,0,0,.08.48,2,2,0,0,0,1.15.54,1.64,1.64,0,0,0,1.1-.58A2.25,2.25,0,0,0,32.44,62.77Z" fill="#350709"/><path id="eye_line_bottom_right" d="M32.47,67.49a4.17,4.17,0,0,0,0-.71,1.07,1.07,0,0,0-1.66-.25l-.88.85c-1-.28-2.35-.37-3.28-.67l0,1.85,1.09.26c.51-.31,1.34-.78,2-1.15Z" fill="#4a161d"/><path id="eye_white_right" d="M30.44,65.78c-.86-2.25,1.57-1.44,2.24-1.67.2.1.93,0,.84,1.06,0,.12.12.21.06.31C32.83,66.67,30.29,67.14,30.44,65.78Z" fill="#f1c4c1"/><path id="brow_right" d="M23.65,48.54a1.32,1.32,0,0,1,.71-.06c1.69,2,2.82-.11,4.16-.56.54-.18,1-1.15,1.6-.37.43.58-.17,1.22-.62,1.64-1.31,1.19-2.67,2.33-4,3.49a5.3,5.3,0,0,0-.8.84v2a.66.66,0,0,1-1.05,0c-.11-.55-.21-1.11-.31-1.67a7.4,7.4,0,0,1,.13-4.65A.45.45,0,0,1,23.65,48.54Z" fill="#831c22"/><path id="ear_curve_left" d="M108.53,49.6h1c3.32,5.12,3.17,12-.31,14.83-.93.74-1.9,1.6-3,.66s-.79-2.19-.47-3.24.89-1.31,1.17.18c.4,2.19,1.48,1.23,2.21.26a8,8,0,0,0,1.18-7.06C109.76,53.34,109.11,51.48,108.53,49.6Zm-3.25,8.13c-.45.06-1,.11-1.28.4s-.16.93.51.81a5.54,5.54,0,0,0,1.28-.62C105.59,58.07,105.41,57.72,105.28,57.73Z" fill="#bc4c4f"/><path id="hair" d="M61,125.08c-.58,1.14-.92,2.39-1.53,3.53l-4.2,6a19.75,19.75,0,0,1-11.65.86,2.16,2.16,0,0,1-.22-.72c-.81-2.14-3-2.39-4.66-3.31s-1.81-1.71-.56-3c1.64-2.23,3.72-4.11,5.34-6.37.3-.42.72-.77.76-1.34a5.54,5.54,0,0,1-.77,1.25,75.22,75.22,0,0,1-6.12,7c-5.4.39-9.56-3.74-14.76-4.08a.87.87,0,0,1-.35-.79c0-.29.09-.44.17-.44,7.72-7.47,12.82-16.32,14.26-27.1l3.8,5a1.24,1.24,0,0,1,.69,1c2.59,5.76,6.16,11,9.33,16.41a7,7,0,0,0,4,3.6C56.31,124.49,60.12,121,61,125.08ZM149.16,134c-1,4.06-4.58,5.95-6.92,8.88a1.19,1.19,0,0,1-.71-.12c-4.91,2.86-9.44.32-14.06-1a9.29,9.29,0,0,1,1.3-2.95,8.12,8.12,0,0,1-3.47,2l-1.78.31c-5-2.39-9.75-5.2-14.85-7.36-.72-6,1-11.87,1.3-17.82.64-11.11,1.29-22.21-.42-33.29-1.5-3.35-4.32-6.69,0-10,5.5-2.46,9.11-10.6,7.9-17.82-.35-.9-.77-2,.68-2.12h.16c-.5-1.06-1.43-2-1.28-3.25a1.84,1.84,0,0,1,.75-1.1,8.72,8.72,0,0,1,4.73,1c-4.44-3.09-9.23-5.25-15.09-4.6a1.44,1.44,0,0,1-.88-.23,33.39,33.39,0,0,1-5.77-.78c.4.17.79.36,1.18.56a1.48,1.48,0,0,1,.66,2.42l-2.75,6.95c-.85,1.07-1.35,3-2.94.36-1.84-3.11-2.33-7-5.23-9.48l-1.08-2c-.22-.82.25-1.47.92-1.36l2.06.39c-3-1-6-2.14-9-3a27.31,27.31,0,0,1-11-5.2c-4.76-3.76-9.39-7.69-14.07-11.54-.39-1.62-1.87-3.1,1.53-3.83,15.15-3.23,30.17-4,45.28.29,3.19.91,5.85,3.08,9.23,3.33l1,1a.55.55,0,0,1,.92,0l7.89,9.08L141.2,59.67c.24.94.52,1.89-.22,2.61.9.72.8,2.75,2.74,2.1l0,.07c.43,1.77.74,3.6,2,5.06C154.23,90.6,154.46,112.12,149.16,134ZM135.31,57.29c1.3,1.28,2.56,2.59,4,3.74A12.43,12.43,0,0,0,135.31,57.29Zm-9.07,2.58.14.3a6.32,6.32,0,0,0,1.15,1c1.64,1.61,3.39,3.12,4.87,4.87a65.41,65.41,0,0,0-5.58-5.59C126.55,60.25,126.39,60,126.24,59.87Zm6.37,6.48-.15-.19ZM127.9,52.4c1.57.9,3.21,1.67,4.73,2.64C131.44,53.56,129.68,53,127.9,52.4ZM132,131.22c.13-.28.29-.55.12-.68-.35-.29-.45,0-.24.47a1.31,1.31,0,0,0,.1.19s-.1,0-.15.27A19.88,19.88,0,0,1,130.6,136a7.27,7.27,0,0,0,1.25-4.27,1,1,0,0,1,.12-.46S132,131.25,132,131.22Zm3.77-60A15.42,15.42,0,0,0,133.81,68c.55,1.06,1.63,2,1.19,3.3A1.16,1.16,0,0,1,135.75,71.21ZM59.32,15.72c.68,2.33,3.12,1,4.81,1a8.48,8.48,0,0,0,1.48-.25c12.88-1.62,25.76-3.13,38.59.43a37.69,37.69,0,0,0,5.32,1.35c1.19.14,2.51.23,3-1.07.39-1-.4-1.89-1.11-2.6-1.87-1.86-4.19-3.25-5.76-5.44a14.93,14.93,0,0,0-4.86-3.7A11.94,11.94,0,0,0,92,3.17c-10.39.93-20.34,3.24-29.38,8.66C61.06,12.75,58.73,13.67,59.32,15.72ZM46.57,10.87A37.35,37.35,0,0,1,51.45,15c1.5,1.65,2.71,1.73,3.64-.51.85-2.07,1.86-3.45,4.33-1.65.42.3,1.82-.56,2.65-1.07C70.58,6.64,79.92,4.13,89.71,3c.77-.08.81-.92.89-1.57C78.36-1.79,66.81.78,55.54,5.66c-2.24,2.19-5.89,1.52-8,3.94C46.78,9.75,45.42,10,46.57,10.87ZM23.65,48.54c-.34-2.19-1.59-4-2.63-5.84-1.48-2.66-1.88-5.25-.61-8.05,1-9.59,5.11-17.45,13-23.16l0,0a11.13,11.13,0,0,0,3.38-.14c5.17-1.9,8.86-.05,11.68,4.28h0c1.46,0,3,.73,3.12,1.92.25,2.05-2.69.29-3.1,2L35.73,24.67a6.49,6.49,0,0,0-1.22.85l-.06.06a3.54,3.54,0,0,1-1,.9l-.08.07a1.57,1.57,0,0,1-.8-1.09c-4.38,4.54-6.09,10.24-7,16.29-.14,2.3-.18,4.62-1.28,6.73C24.17,49.06,23.93,49.05,23.65,48.54ZM39.29,18.29a21.2,21.2,0,0,1,6.76-2.36A10.86,10.86,0,0,0,39.29,18.29Z" fill="#110001"/><path id="hair_lines" d="M100.82,5.49C93.44,3.43,86.33,5,79.13,6.69A56.06,56.06,0,0,0,61.88,13.8c-.71.45-2.06.65-1.7,1.95a8.6,8.6,0,0,0,2.3-.14c7.18-.67,14.26-2,21.55-2.13a73.85,73.85,0,0,1,25.38,3.59c.78.27,1.76.88,2.28.14s-.55-1.36-1-2c-1.61-2.06-4.29-3.23-5-6a38.66,38.66,0,0,1,8,6.08c.44,2.24,3.53,3.63,2.07,6.47-1.65,1.06-3.23.36-4.76-.25-15.07-6-30.5-5.86-46.14-2.87a7.37,7.37,0,0,0-5.31,3.27c-3.48.05-6.62-2-10.14-1.67-.6-.25-1.43-.78-.86-1.3,1.82-1.68.4-2.32-.79-3.11-2.94-3.1-6.35-4.55-10.67-3.38a3,3,0,0,1-3.57-1C36.09,8.64,39,7.09,43,8.41c1.32.43,2.92,0,4.39-.05a1.91,1.91,0,0,1,.64,1.1c2.13,3,3.25,4.58,8.33,2.5,11-4.5,22-9.58,34.2-10.54C94.77.86,98.26,2,100.82,5.49ZM47.43,8.36l.09,1.24a25.25,25.25,0,0,0,8.31-3.07,4.88,4.88,0,0,0-.29-.87A28.68,28.68,0,0,0,47.43,8.36Zm70,46.4c.21-.53,0-1.52.82-1.44.45,0,.85.83,1.27,1.28,2.18-2.81-1.93-3.06-2-5a.83.83,0,0,0-.83-.41s-.24-.36-.24-.36l.37.14a.67.67,0,0,0,.71-.4l8,3c0-.26.11-.53.17-.79-3.78-4.77-9.17-6.38-14.8-7.4a3.48,3.48,0,0,0-3.51,1.27c3.11,1.85,6.89,2.89,8.17,6.89C116.86,52.25,116.4,54,117.44,54.76ZM32.54,24.6c-5.75,4.33-7.33,10.33-6.9,17.15,1.84-2.16.94-5.3,2.71-7.48,1.26-.6.29-2,1-2.81l-.07-.08c.21-2.59,3.09-2.92,4.1-4.83A2,2,0,0,0,32.54,24.6Zm10.9,110.17c.16-2.46-2-2.57-3.46-3.41-1.11-.65-2.5-1-1.43-2.75-.33-.44-.67-.42-1,0-5.31,0-9.47-4.35-14.88-4a2.94,2.94,0,0,0-.08,1C30.08,127.41,36.85,130.9,43.44,134.77Zm2.79-15.7a1.34,1.34,0,0,0-.24-1.81.92.92,0,0,0-1.49.65c-.81,4.56-5.61,6.5-7,10.69h1C42.2,126.31,44.34,122.78,46.23,119.07Zm94.54-42.48c-1.07-1.77-1.3-4.66-4.24-5,3.59,6.6,7.17,13.2,12,19C147.4,85.15,143.53,81.15,140.77,76.59Zm-7.24-9c-1.16-4.55-6.07-6.21-7.92-10.25-.11-.23-.82-.19-1.25-.28a5.19,5.19,0,0,0,.13,1.32c.28.75.69,1.46,1.05,2.19.35.32.69.66,1,1l7,6ZM133.94,56c-1.56-3.84-4.44-5.13-8.39-4.36l0,0c1.89,2.92,5.38,3.27,8,5Zm6.59,6.68c-1-3.56-2.29-6.77-7-6h0c2,2.38,3.57,5.28,7,6Zm-7,5h0c.34,1.33.68,2.67,1,4h2C136.47,69.57,135.16,68.47,133.53,67.61Zm15,23c0,.67,0,1.34,0,2C149.63,91.93,149.6,91.26,148.53,90.6ZM39.43,16.82c-2,2.72-5.91,4-6.9,7.79,4.83-3.63,9.07-8.55,16.16-7.32.38.07,0-1.09-.16-1.68C45.5,15.67,42.44,12.68,39.43,16.82Zm88,124.88c2.26-3,5.18-5.58,5.05-9.76,0-.8-.19-1.6-.29-2.4-1,.3-1,1.29-1.08,2-.66,3.94-2.88,6.83-5.85,9.28A2.37,2.37,0,0,0,127.47,141.7Zm-5.91-58.1c.36.74.78,1.47,1.07,2.24,4.47,11.92,9.54,23.69,8.93,36.84-.05,1.11-.19,3,1.06,2.91,1.66-.14.88-2.07.84-3.18a99.71,99.71,0,0,0-2-16.87,80.65,80.65,0,0,0-8.94-22.94C121.89,82.61,121.86,83.24,121.56,83.6Zm-.1-4.74c-.41-1.18-1.12-2.88-2.37-2.27-.91.44.57,1.89.9,2.91.45,1.39,1,2.73,1.57,4.1l1-1C122.19,81.35,121.89,80.08,121.46,78.86ZM106.51,44.47c-4.3-2.64-9.66-2.1-14-4.57a11.2,11.2,0,0,0-8-1.33l6,4c4.59-.34,8.8.43,12,4.13C103.61,45.44,104.58,44.1,106.51,44.47Z" fill="#180e12"/></g></g></svg>
