<svg xmlns="http://www.w3.org/2000/svg" xmlns:xlink="http://www.w3.org/1999/xlink" viewBox="0 0 113.76 285.71">
  <defs>
    <linearGradient id="linear-gradient" x1="85.74" y1="250.97" x2="70.34" y2="125.74" gradientUnits="userSpaceOnUse">
      <stop offset="0" stop-color="#8e0000"/>
      <stop offset="1" stop-color="#42210b"/>
    </linearGradient>
    <linearGradient id="linear-gradient-2" x1="37.54" y1="266.27" x2="63.43" y2="156.43" gradientUnits="userSpaceOnUse">
      <stop offset="0" stop-color="#0071bc"/>
      <stop offset="1" stop-color="#2e3192"/>
    </linearGradient>
    <linearGradient id="linear-gradient-3" x1="90.41" y1="99.88" x2="93.21" y2="4.03" gradientUnits="userSpaceOnUse">
      <stop offset="0" stop-color="#e5e500"/>
      <stop offset="1" stop-color="#ed1c24"/>
    </linearGradient>
    <linearGradient id="linear-gradient-4" x1="97.31" y1="25.75" x2="44.84" y2="121.6" gradientUnits="userSpaceOnUse">
      <stop offset="0" stop-color="#0c8"/>
      <stop offset="1" stop-color="#009245"/>
    </linearGradient>
    <linearGradient id="linear-gradient-5" x1="37.71" y1="108.89" x2="86.69" y2="3.24" gradientUnits="userSpaceOnUse">
      <stop offset="0" stop-color="#d320ed"/>
      <stop offset="1" stop-color="#662d91"/>
    </linearGradient>
    <linearGradient id="linear-gradient-6" x1="107.75" y1="40.17" x2="70.67" y2="-3.9" gradientUnits="userSpaceOnUse">
      <stop offset="0" stop-color="#179b00"/>
      <stop offset="1" stop-color="lime"/>
    </linearGradient>
  </defs>
  <g id="Layer_2" data-name="Layer 2">
    <g id="bend1">
      <path id="leftLeg" d="M107.14,201.41C104.71,173.61,87.8,150.78,80,124.6c-1.45-4.85-7.75-4.25-9.45-.75a5.74,5.74,0,0,0-2-.39c-2.36-5.42-11.41-2.79-9.45,3.17q7.52,22.77,15,45.55c2,6.19,4.09,12.47,5,18.94-.72,2.76-1.45,5.52-2.17,8.29a4.14,4.14,0,0,0-1.37,2.39q-1.32,6.44-2.62,12.88-1.11,4.2-2.2,8.4a5.13,5.13,0,0,0,0,2.63Q66,249.26,61.2,272.81a5,5,0,0,0,9.64,2.66q6.57-18.56,14.92-36.39,3.93-8.36,8.25-16.52,2.38-4.5,4.87-8.92c.75-1.35,1.52-2.68,2.29-4,.52-.91,3-3.36,1-3.21C104.65,206.22,107.39,204.27,107.14,201.41Z" fill="url(#linear-gradient)"/>
      <path id="rightLeg" d="M87.79,201.49c1.4-3.57.55-6.38-1-9.82-1.31-2.87-2.66-5.71-4-8.56Q76.66,161,70.57,138.92c-.09-.13-.19-.23-.28-.37a104.24,104.24,0,0,1-9.64-19c-.55.09-1.08.18-1.55.23-4.45.51-9,.38-13.13,1.63a12.8,12.8,0,0,1-.31-1.87c-.58-6.32-10.4-6.49-10,0a59.58,59.58,0,0,0,1.94,12.25,22.63,22.63,0,0,0,.77,6.4c1.1,3.83,3.64,7,5.11,10.64a6,6,0,0,0,1.15,1.86q1.56,7.31,3.14,14.6l-.05.1c.06.18.12.36.19.54l.05.25a5.39,5.39,0,0,0,.53,1.45,60.1,60.1,0,0,1,2.52,10C52.19,185,53.5,192.53,54.44,200a14.65,14.65,0,0,1-.93,7.55c0,.26,0,.53.07.79l-1,1.12a23.13,23.13,0,0,1-4.1,5.06l-.08.07c-3.53,6.25-8.72,11.2-13.13,16.8-5.33,6.78-9.34,14.51-14.25,21.57-4.54,6.52-10.62,11.7-15.23,18.1-2.07,2.88-3.88,5.89-5.78,8.83a5.63,5.63,0,0,0,2.67,2A5.15,5.15,0,0,0,10,285.08a100.71,100.71,0,0,0,11.71-7.43,4.3,4.3,0,0,0,4.5-1.37l8.34-9.4c3-2.62,6.31-5.05,9.22-7.75a103,103,0,0,0,15.68-18.77,4.64,4.64,0,0,0,.83-2.47l.21-.23a5.39,5.39,0,0,0,2.78.64c7.83-11.16,16.78-21.49,24.72-32.58a6.49,6.49,0,0,1,.72-.82C88.42,203.76,88.11,202.63,87.79,201.49Z" fill="url(#linear-gradient-2)"/>
      <path id="leftArm" d="M105.38,105.53A83.4,83.4,0,0,1,92.73,87.84a4.62,4.62,0,0,0-5.17-2.27,20.55,20.55,0,0,0-2.11-2.06q8.49-17.85,16.45-35.94c.07-.18.12-.36.18-.54L105.87,40c3-5.67-5.59-10.73-8.63-5.05-1.26,2.35-2.52,4.69-3.77,7-3.38,2.93-4.9,6.79-5.92,11.31a4.85,4.85,0,0,0,0,2.11Q84,63.21,80.34,71a4.25,4.25,0,0,0-3.86,3.58l-2.07,9.06a4.84,4.84,0,0,0,.1,2.46c-.12.68-.23,1.37-.35,2a5.18,5.18,0,0,0,6.1,6.13A5.75,5.75,0,0,0,80.84,96,64.5,64.5,0,0,0,93,112.39a4.87,4.87,0,0,0,5.88.72C103.47,116.55,109.59,110,105.38,105.53Z" fill="url(#linear-gradient-3)"/>
      <path id="torso" d="M95.34,73.1A4.67,4.67,0,0,0,94.07,72l1.28-3a136.61,136.61,0,0,0,7.7-12,108.64,108.64,0,0,1-4.22-26.43,4.21,4.21,0,0,0-3.19,1.62q-3.3,3.84-6.68,7.59a5.77,5.77,0,0,0-6.3-1.75c-2.08-4.73-3.74-9.66-5.5-14.59-4.09,2.78-7.31,6.92-10.91,10.29l-2.78,2.6c-2.56,6.36-5.64,12.55-8.83,18.68C53,69.66,44.44,82.07,39.75,95.83l-.06,2.36c-.4.53-.79,1-1.16,1.59-.48,1.72-.88,3.46-1.19,5.24a4.06,4.06,0,0,1-1.89,2.9c0,.24,0,.48,0,.73a5.15,5.15,0,0,0,3.81,4.73l-.09,3.17A4.62,4.62,0,0,1,42.83,118c2.42,2.39,5.18,5.15,8.72,5.58a7.78,7.78,0,0,0,1.67,0c-2.32,4.34,3.87,9.72,8.1,5.73l7.43-7a5.34,5.34,0,0,0,4.15-.64C77,104.16,87,88.86,95.34,73.1Z" fill="url(#linear-gradient-4)"/>
      <path id="rightArm" d="M55,55.44l9.33-9.77c3.11-3.25,6.3-6.45,9.33-9.77,2.19-2.41,4.2-5.11,2.89-8.54-.77-2-2.5-3.78-4.82-3.67l-.55,0h-.06a5.15,5.15,0,0,0-5.27.79q-10.06,8.07-19.8,16.54C44,42.79,42,44.56,40,46.4a4.64,4.64,0,0,0-1.53,2.75c-1.34,1.49-2.59,3.05-3.79,4.66l-.09-.1c-2.11,4.7-4.38,9.33-6.15,14.18a5.14,5.14,0,0,0,1.38,3.42c.66.72,1.3,1.47,1.94,2.21a4.5,4.5,0,0,1,2.19,2.53A197.47,197.47,0,0,1,46,91.78a5.05,5.05,0,0,0,3.43,2.14A140.91,140.91,0,0,1,56,110.26c2,6.08,11.47,3.57,9.64-2.65C61,91.77,55.59,76.17,50.14,60.59A60.19,60.19,0,0,1,55,55.44Z" fill="url(#linear-gradient-5)"/>
      <path id="head" d="M112.39,12.53l-.18-.2A5.08,5.08,0,0,0,111,8.89C108.1,5.61,104.34.86,99.6.43a7,7,0,0,0-3.8.6c-5.44-2.79-11.29.55-15.68,4.28a4.12,4.12,0,0,0-1.2,5.19c-1,.3-2,.61-3,1,0-.55.07-1.1.13-1.64-3.37,4.64-9,8.27-14.55,10.57a22,22,0,0,0,6.36,1.83,5.18,5.18,0,0,0,.67.94c-.37,2.79,1.52,6.16,4.87,6.24.9,0,1.78,0,2.65,0a3.86,3.86,0,0,0,2.76.69c-.09,3.77.44,7.79,3.19,9.28,1.63,2.49,5.39,3.76,7.81,1.07q1.88-2.09,3.89-4c4.23-2.69,10.07-2.77,14-6.23S116,17.43,112.39,12.53Z" fill="url(#linear-gradient-6)"/>
    </g>
  </g>
</svg>
