<svg xmlns="http://www.w3.org/2000/svg" xmlns:xlink="http://www.w3.org/1999/xlink" viewBox="0 0 366.46 681.39"><defs><linearGradient id="linear-gradient" x1="193.36" y1="-184.93" x2="225.53" y2="-184.93" gradientTransform="matrix(0.99, -0.14, 0.14, 0.99, 10.24, 245.95)" gradientUnits="userSpaceOnUse"><stop offset="0" stop-color="#82422e"/><stop offset="1" stop-color="#602a17"/></linearGradient><linearGradient id="linear-gradient-2" x1="113.63" y1="-36.9" x2="145.8" y2="-36.9" gradientTransform="translate(68.73 17.91) rotate(27.19)" xlink:href="#linear-gradient"/><linearGradient id="linear-gradient-3" x1="188.59" y1="-162.11" x2="209.08" y2="-162.11" xlink:href="#linear-gradient"/><linearGradient id="linear-gradient-4" x1="358.58" y1="-733.02" x2="406.81" y2="-733.02" gradientTransform="translate(222.9 867.86) rotate(-30.79)" xlink:href="#linear-gradient"/><linearGradient id="linear-gradient-5" x1="520.33" y1="-403.16" x2="557.38" y2="-403.16" gradientTransform="translate(165.78 722.36) rotate(-50.93)" xlink:href="#linear-gradient"/><linearGradient id="linear-gradient-6" x1="192.63" y1="-183.34" x2="213.78" y2="-183.34" xlink:href="#linear-gradient"/><linearGradient id="linear-gradient-7" x1="629.64" y1="149.74" x2="649.31" y2="149.74" gradientTransform="matrix(-0.36, -0.93, -0.93, 0.36, 560.14, 568.79)" xlink:href="#linear-gradient"/><linearGradient id="linear-gradient-8" x1="405.44" y1="-407.35" x2="423.21" y2="-407.35" gradientTransform="matrix(0.79, -0.61, 0.61, 0.79, 105.95, 638.35)" xlink:href="#linear-gradient"/><linearGradient id="linear-gradient-9" x1="206.87" y1="-160.09" x2="219.86" y2="-160.09" gradientTransform="translate(1.1 249.75) rotate(-8.68)" xlink:href="#linear-gradient"/><linearGradient id="linear-gradient-10" x1="164.3" y1="-92.13" x2="175.56" y2="-92.13" gradientTransform="translate(14.69 168.67) rotate(-1.15)" xlink:href="#linear-gradient"/><linearGradient id="linear-gradient-11" x1="346.49" y1="-429.49" x2="388.32" y2="-429.49" gradientTransform="matrix(0.85, -0.53, 0.53, 0.85, 96.26, 611.24)" xlink:href="#linear-gradient"/><linearGradient id="linear-gradient-12" x1="832.06" y1="135.26" x2="810.33" y2="156.99" gradientTransform="matrix(-0.65, -0.76, -0.76, 0.65, 928.51, 575.99)" xlink:href="#linear-gradient"/><linearGradient id="linear-gradient-13" x1="720.02" y1="241.46" x2="696.43" y2="265.05" gradientTransform="matrix(-0.95, -0.31, -0.31, 0.95, 1037.29, 19.67)" xlink:href="#linear-gradient"/><linearGradient id="linear-gradient-14" x1="525.28" y1="350.93" x2="563.62" y2="312.59" gradientTransform="matrix(-0.48, -0.88, -0.88, 0.48, 836.93, 379.75)" xlink:href="#linear-gradient"/><linearGradient id="linear-gradient-15" x1="286.77" y1="215.88" x2="286.77" y2="171.33" gradientTransform="translate(10.56 -139.15) rotate(4.2)" xlink:href="#linear-gradient"/><linearGradient id="linear-gradient-16" x1="209.97" y1="-173.35" x2="241.79" y2="-173.35" xlink:href="#linear-gradient"/><linearGradient id="linear-gradient-17" x1="253.65" y1="64.04" x2="271.49" y2="46.21" gradientTransform="translate(-0.38 -0.58) rotate(-0.1)" xlink:href="#linear-gradient"/><linearGradient id="linear-gradient-18" x1="284.6" y1="34.32" x2="262.87" y2="56.05" gradientTransform="translate(-0.38 -0.58) rotate(-0.1)" xlink:href="#linear-gradient"/><linearGradient id="linear-gradient-19" x1="254.43" y1="55.65" x2="230.08" y2="80" gradientTransform="translate(-0.38 -0.58) rotate(-0.1)" xlink:href="#linear-gradient"/><linearGradient id="linear-gradient-20" x1="222.54" y1="67.59" x2="259.2" y2="30.93" gradientTransform="translate(-0.38 -0.58) rotate(-0.1)" xlink:href="#linear-gradient"/><linearGradient id="linear-gradient-21" x1="273.88" y1="29.11" x2="250.21" y2="52.78" gradientTransform="translate(-0.38 -0.58) rotate(-0.1)" xlink:href="#linear-gradient"/><linearGradient id="linear-gradient-22" x1="240.39" y1="59.44" x2="278.72" y2="21.11" gradientTransform="translate(-0.38 -0.58) rotate(-0.1)" xlink:href="#linear-gradient"/><linearGradient id="linear-gradient-23" x1="224.23" y1="-199.44" x2="286.87" y2="-199.44" xlink:href="#linear-gradient"/></defs><title>Left3</title><g id="Layer_2" data-name="Layer 2"><g id="Left3"><path id="shirt_back" d="M145.17,134.13c-6.57,2.76-8.1,20.35-7.55,38.17s40.31,71.16,43.43,61.82S161.84,127.14,145.17,134.13Z" fill="#bca675"/><path id="hair_tail11_Zz8" d="M204.59,12.46C201.09.84,182.74,14.08,176,20.25s5.34,30.53,22,36.39c0,0-14.07-15.32-5-32.26C196.24,18.5,206,17.21,204.59,12.46Z" fill="url(#linear-gradient)"/><path id="hair_tail10_Zz-28" d="M196,25c-9,1.17-13.3,28-3.1,42.4,0,0-2.61-20.63,14.61-29.18,6-3,14.7,1.63,16.28-3.07C227.64,23.62,205,23.8,196,25Z" fill="url(#linear-gradient-2)"/><path id="hair_tail9_Zz9" d="M191.05,35.74c-2.1.55-15.32,3.39-7-16.22C175.87,29,165.58,51.84,180,67.08c12,12.68-.75,28.65-.75,28.65,17.51-14.38,4.44-31.7,6.69-45.91C187.77,38.16,190.23,36.1,191.05,35.74Z" fill="url(#linear-gradient-3)"/><path id="hair_tail8_Zz30" d="M187.71,14c-16.33,12.64-7.65,23.3-7,33.63.44,12.48-10.46,17.54-16.49,21.13,16.92-4.28,19.75-12,19.44-19S175.54,23.89,187.71,14Z" fill="url(#linear-gradient-4)"/><path id="hair_tail7_Zz51" d="M200.58,48c-2.09-5-15-12.08-8.79-22.41-8.44,13.44.65,18.83,3.83,26.12,3.63,8.88.69,18.32-2.72,22.51C203,61,202.66,53,200.58,48Z" fill="url(#linear-gradient-5)"/><path id="hair_tail6_Zz8" d="M194.27,23.23c-2.24-7.47-14.05,1-18.35,5s.75,18.07,11.47,21.84c0,0-2.42-15.35-.52-19.19S195.19,26.28,194.27,23.23Z" fill="url(#linear-gradient-6)"/><path id="hair_tail5_Zz110" d="M199.13,11.39c-2.9.63-.64,6.19-2.91,9.46s-15.84,8.23-15.84,8.23c7.89,7,21.64,4.77,22.93-.51S206.21,9.85,199.13,11.39Z" fill="url(#linear-gradient-7)"/><path id="hair_tail4_Zz38" d="M186.38,56.73c-3.54-9.61-2.55-12.2-2.08-12.83-1.36,1.31-10.17,9.05-12.12-9.34-2.21,10.69-.35,32.31,17,37.76,14.44,4.52,11.55,22,11.55,22C207.92,76,190.69,68.44,186.38,56.73Z" fill="url(#linear-gradient-8)"/><path id="hair_tail3_Zz9" d="M192.15,45.6c-1.31.36-9.69,2.26-4.49-10.23-5.17,6.07-11.55,20.59-2.33,30.16,7.66,8-.32,18.15-.32,18.15,11-9.21,2.64-20.11,4-29.13C190.09,47.12,191.64,45.83,192.15,45.6Z" fill="url(#linear-gradient-9)"/><path id="hair_tail2_Zz1.1" d="M185.29,52.56C180.16,57.19,173,69,179.85,78.23c5.69,7.72-2.33,15.57-2.33,15.57,10.52-6.67,4.55-17,6.73-24.59C186,62.94,187.52,62,188,61.87,186.82,62,179.4,62.7,185.29,52.56Z" fill="url(#linear-gradient-10)"/><path id="hair_tail_Zz31.8" d="M191.93,28c-14,11.2-6.29,20.32-5.59,29.28.57,10.81-8.81,15.36-14,18.56,14.61-4,17-10.69,16.58-16.79S181.53,36.76,191.93,28Z" fill="url(#linear-gradient-11)"/><path id="hair_side4_left_Zz-94.1" d="M289.87,31.68C282.12,30.23,269,38,268,39.72s9.49,24.14,16,31.06S299.34,33.44,289.87,31.68Z" fill="url(#linear-gradient-12)"/><path id="hair_side3_left_Zz-63" d="M286.39,15.81c-7.35-3-22.95,7.27-24.61,12.42-.62,1.93,22.61,35.7,31.28,39.6C303.49,72.52,299.61,21.22,286.39,15.81Z" fill="url(#linear-gradient-13)"/><path id="hair_side2_left_Zz73.6" d="M295.21,36.63c-3-2.56-11.42-.12-11.42-.12s.28,18.61-10.26,33.51-14.31,44-14.31,44,16.78-14.11,27.9-29S299.94,40.73,295.21,36.63Z" fill="url(#linear-gradient-14)"/><path id="hair_side_left_Zz85.8" d="M285.79,75c-.72-11,1.66-29,1.66-29s-7,5.31-8.05,8.56c-2.89,8.67-5.12,12.55-6.57,14.11,2.7,1.34,8.35,8.16,17.6,33C290.43,101.66,286.5,86,285.79,75Z" fill="url(#linear-gradient-15)"/><path id="pelvis" d="M255.44,296.34c-2.12-5.56,2.18-12.16-39-20.59-19.1-3.92-24.64-4.32-37.37-7s-32.43,11.12-41,35,42.16,72.5,62.86,76.79S258.8,330.22,260.56,327,257.56,301.89,255.44,296.34Z" fill="#4c3f26"/><path id="pants_leg_right" d="M156.5,303.56c-18.81-3.38-23.94,52.24-27.83,85s16.13,72.55,2.29,79.95-42.51,32-43.68,38.43S76.42,544,62.59,556.17s-50.72,67.65-50.72,67.65l33.82,3.49c9.28-21.66,94.57-88.25,110.13-97.7s21.57-23.91,26.83-35.93,31.15-92.29,35.23-119S171.32,306.22,156.5,303.56Z" fill="#aa8b4d"/><path id="pants_leg_left" d="M366.44,472.66c-1-10.8,1.85-21.5-5.15-30s-47.36-73-60.36-90.54-44.28-57.66-60-31.39c-10.71,17.89-27.51,43.89-24,56.89s29.78,50,50.78,58.54,40.73,30.46,42.23,35.46c-12.14,6-15.74,13.38-20.81,35.88-2,8.76,1.78,37.16,8.15,68.16,5.68,27.64,2.77,37.43,2.3,38.6l26.72,4.4S367.44,483.47,366.44,472.66Z" fill="#4c3f26"/><path id="arm_shadow_left" d="M318.43,173.38c-1.62-1.26-17.72-16.92-20.79-17S280.05,182.07,272.55,188s-14.37,3.59-23.3,13.05c-3.46-.5-4.42-21.84-3.64-29.95s-7.5-31.56-10.54-36.72-13.06-4.88-21.72-4.53c-11.65.47-4.38,50.29.94,76.56s32.45,37.84,33.89,39.93,20.39-5.15,26.78-12.23,17.59-22.27,21.17-29.8S320,174.65,318.43,173.38Z" fill="#dd7243"/><path id="arm_left" d="M297.64,156.4c-2.85,2.43-19.51,31.5-23.47,33.66s-14.12,6.27-18.2,13.56c6.41-4.7,20.74.55,27.14-3.12s24.48-36.93,24.48-36.93S300.49,154,297.64,156.4Z" fill="#ffca8a"/><path id="torso_skin" d="M251.17,35.37H204.94l2.17,36.31s-6.56,15.94-8.56,19.94S160.71,111.4,154.49,117s-12.86,71.67-3.4,93.91,87.17,17.27,94.07,7.78,8-45.3,2.64-57.43-32-46.16-32-46.16l35.33-24.63Z" fill="#ffca8a"/><path id="torso_shadow" d="M227.55,122.87c-.25-5.25,13.58-17.21,13.58-17.21L219.3,55.87s-5.75,30.25-7.25,36.75c-10,3.5-22.5,20.75-22.5,20.75a54.06,54.06,0,0,0-20.5,0c30.5,10,34.25,36.75,31.25,56.25-4-15.75-29.25-15.75-31.25,0S174.55,216,215.43,216s21.37-85.13,18.87-88.63A12.77,12.77,0,0,0,227.55,122.87Z" fill="#dd7243"/><path id="shirt_torso" d="M234.3,127.37c2.75,5.5,4.92,21.84-4.25,22.25s-23.25-18.75-29-30.5c-3.5-3.75-28.43-12.59-39.07-6.93,42.84,2.73,51.15,31.93,46.49,61.26s-41.34,40-61.2,27c.63,14.65,10.86,34.72,11.2,41s10,23-12.11,43.67c23.23,15.33,61.44,18.67,100.77,4,0,0-9.33-28.67-11.33-36.67s20.7-49.24,21.42-67.83S245.3,145.12,234.3,127.37Z" fill="#ffe8ae"/><path id="shirt_abs_shadow" d="M237.69,252.12c-4.15-8.5,9.15-55.5,6.55-67.5s-49.4,22.61-60.85,25.95-4.66,86.12-4.66,86.12c22.56,6.21,65.11-3.57,68.4-7.57S241.84,260.62,237.69,252.12Z" fill="#bca675"/><path id="arm_right" d="M260.29,158.59c-17,8.65-30.25,30.14-36.82,36.88s-25.62,9.71-32,16.72c6.5-18.29,6.69-29.81,5.75-42.93s-7.5-21.93-4.64-26.21-13.39-42-23.87-39.57c-11.56,2.66-22,17.52-24.37,22.1s1.4,26,3.36,29.62-3.34,16.28-1.3,25.22,9.78,36.92,12.64,41.92,7.57,30.21,11.92,35.33,10.49,12.89,23,7.39,32.19-25.72,40.7-37.82,40.85-47.6,44.59-51.05Z" fill="#ffca8a"/><path id="face_shadow" d="M280.26,78.18a39.69,39.69,0,1,0-56.57,5.13c.88,8,3.71,17.36,9.51,21.09,9.64,6.19,22.32,10.1,24.82,8.39s17.24-19.14,17.24-19.14c3.33-.3,7.69-2.78,8.44-3.39s-2.78-6.51-3.35-9.29A10,10,0,0,1,280.26,78.18Z" fill="#dd7243"/><path id="face" d="M279.5,79.53A36.54,36.54,0,1,0,227.33,83c.62,7.42,3,16.06,8.26,19.62,8.73,5.92,20.31,9.8,22.65,8.29s16.3-17.22,16.3-17.22a19.83,19.83,0,0,0,7.84-2.94c.71-.54-2.41-6-2.87-8.62A8.76,8.76,0,0,1,279.5,79.53Z" fill="#ffca8a"/><path id="face_nose_shadow" d="M280.05,86.49c-1.3-.58-9.54,4.8-8.58,5.39,2.36,1.43,10.94-.15,10.91-1.16S281.34,87.07,280.05,86.49Z" fill="#dd7243"/><path id="face_toplip_shadow" d="M270.47,95.44s-5.28,1.93-7.92,1.72a11.79,11.79,0,0,0,5.59.19c.34,0,3,1.16,3,1.16s2.51-1.59,2.35-2.75S271.13,95.93,270.47,95.44Z" fill="#dd7243"/><path id="face_chin_shadow" d="M267.86,101.06c-.53-.63-4.46-.76-5.32.31s.9,3.13,2,3.28S268.39,101.69,267.86,101.06Z" fill="#dd7243"/><path id="face_eye_shadow_right" d="M282.79,65c-1.27-1.25-13.6,1-16.4,6.56-1,2.08,9.61,7.13,10.93,5.76S284.07,66.24,282.79,65Z" fill="#dd7243"/><path id="shoulder_shadow_right" d="M160.9,152.13c-.68-2.44-9.57-22.82-13.88-22.07-3.43.59-3,7.48-2.26,12.88s4.44,12.75,2.91,19.37,1.46,6.54,4.05,6.38S161.58,154.57,160.9,152.13Z" fill="#dd7243"/><path id="forearm_shadow_right" d="M268.21,175.79c-2.49-.2-3.68,5.65-6.79,9.92s-37.26,44.43-42.87,51.75S204,249.57,197.5,249.54s-11.69-8.78-21-4.46c-3.75,1.75,1.31,17.15,5.44,19.5S208.67,259,218.84,248s40.93-52.75,44.33-54.48,8.74-7,9.91-9.14S270.7,176,268.21,175.79Z" fill="#dd7243"/><path id="shoe_rim_left" d="M338.62,581.66l-5,31.64-47.55-11.85,9.85-27.09Z" fill="#1c1c1c"/><path id="shoe_left" d="M364.8,657.77c-3.62-4.94-24.5-9.52-30.38-10.77-.37-8.49-6.36-30.15-6.1-31.06l6.71-23.5-38.39.14s.18,16.22-1.88,23-8.45,13.2-11.85,22.11S278.22,668,278.22,668l27,4.18s1.19-5.55,8.16-4.8,10.85,12.58,14.48,13.14,37,.89,37,.89S368.42,662.72,364.8,657.77Z" fill="#1c1c1c"/><path id="hair_back_Zz8.2" d="M280.88,15.45C278,9.24,249.37,1.4,243.16.1s-36.38,10.77-39.11,11.49S197.9,21.74,196.85,25s1.61,43,2.77,47.55.92,6.43,9.88,7.52l7.37-14.37S225.78,73,230.31,74,283.76,21.65,280.88,15.45Z" fill="url(#linear-gradient-16)"/><path id="hair_side6_right_Zz45" d="M259,57.44c-10,4.62-25.63,8.71-25.63,8.71C262.54,61.93,277.7,55.74,280,53.23s3.64-11.17,3.64-11.17S269,52.81,259,57.44Z" fill="url(#linear-gradient-17)"/><path id="hair_side5_right_Zz-135" d="M281.78,24.23c-7.54-6-35.13,29.76-25.63,30.13s33.33-6.38,33.94-8.31S288,29.13,281.78,24.23Z" fill="url(#linear-gradient-18)"/><path id="hair_side4_right_Zz-135" d="M257.09,40.27C245.38,64.63,237.9,78,212.93,95.06c0,0,20.3-8.76,27.31-15.09s24.17-31.88,24.17-31.88Z" fill="url(#linear-gradient-19)"/><path id="hair_side3_right_Zz45" d="M236.17,40.31C230.81,49.15,227.93,71,223.35,75s-14.48,7.06-14.48,7.06,11.74-.94,16.61-5.11,10.47-24.68,18-33.57,22.07-17.16,22.07-17.16l1-9C257.76,19.86,241.53,31.47,236.17,40.31Z" fill="url(#linear-gradient-20)"/><path id="hair_side2_right_Zz-134.9" d="M268.06,14.42c-9.19,2.9-31.62,49.46-22.33,47.47s41.94-26.06,41.94-28.09C287.66,28.39,275.63,12,268.06,14.42Z" fill="url(#linear-gradient-21)"/><path id="hair_side_right_Zz45.1" d="M275.05,19.33c-5.86-2.19-30.89,13.42-38.61,30.31S224.38,88,224.38,88s23.75-17.27,31.77-33.66,24.49-25.07,24.49-25.07S278.72,20.69,275.05,19.33Z" fill="url(#linear-gradient-22)"/><path id="hair_top_Zz0" d="M241,2.26c-3.51.16-40.59,13.69-37,13.21C220,13.35,230,22.14,230,22.14s22.29-11.24,36.29-11.51C266.33,10.63,244.5,2.09,241,2.26Z" fill="url(#linear-gradient-23)"/><path id="brow_right" d="M285.61,66c-.69-.15-11.44-5.82-12.69-5.72s-6.58,2.67-6.58,2.67a27,27,0,0,1,5.58.3c1.64.32,10.26,5.26,11.6,5.16S286.31,66.14,285.61,66Z" fill="#1c1c1c"/><path id="cheek_highlight_right" d="M252.77,76.17c-1.14.23-.51,5.63.33,6.64s7.88-6.07,8.29-6.89S254.68,75.79,252.77,76.17Z" fill="#fce7ca"/><path id="shoulder_highlight_right" d="M176.1,105.31c-2.6.52-11.88,3.38-10.94,4.19s13.47,6,14,4.32S177.66,105,176.1,105.31Z" fill="#fce7ca"/><path id="neck_highlight_right" d="M174.2,107.67c-1.53.8,7.64,1,9.44.64s12.82-11.19,13.2-12.15S175.57,107,174.2,107.67Z" fill="#fce7ca"/><path id="forearm_highlight_right" d="M220.07,200.71c-10.68,4.9-31,16-34.58,20.27-2.58,3.05,9.45,5,14.62,5.7S230.75,195.82,220.07,200.71Z" fill="#fce7ca"/><path id="glove_shadow_left" d="M316.14,127.08S303.91,138.06,302,141s-5.37,14.13-5.37,14.13c-5.57,11.46,11.71,24.71,16.58,23.94s20.52-13.22,26.65-19.9S316.14,127.08,316.14,127.08Z" fill="#1c1c1c"/><path id="index_left" d="M328,126.77c-1-1.6-6.48-5.59-9-4.22s-3.52,6.77-3.52,6.77-2.59,12.41.14,14.11,6.15-1.7,8.09-2.86S329,128.37,328,126.77Z" fill="#ffca8a"/><path id="middle_left" d="M337.48,131.45c-.57-1.61-4.66-6.18-7.19-5.45s-4.4,5.3-4.4,5.3-4.65,10.48-2.57,12.5,5.76-.34,7.7-1S338.05,133.05,337.48,131.45Z" fill="#ffca8a"/><path id="ring_left" d="M342.6,139.28c-.57-1.61-4.65-6.18-7.19-5.46s-4.4,5.31-4.4,5.31-4.65,10.47-2.56,12.5,5.76-.34,7.69-1S343.17,140.88,342.6,139.28Z" fill="#ffca8a"/><path id="pinky_left" d="M342.32,142.2c-2.11-.62-5.47,1.78-5.47,1.78s-8,5.3-7.4,7.66,4.21,2.34,5.87,2.74,9.32-3.74,9.63-5.12S344.43,142.83,342.32,142.2Z" fill="#ffca8a"/><path id="palm_shadow_left" d="M315.65,139.3s5.27,10.5,3.86,12.8c-.09,4.58,7.68,6.75,10,6.11s5.22-1.34,7.05-4C344.37,143.1,315.17,130.79,315.65,139.3Z" fill="#dd7243"/><path id="thumb_left" d="M331.64,142.11c-2.91-.28-6.15-4.59-10.24-5-4.35-.47-6.9,2.06-6.49,6s4.36,4.46,10.76,5S334.55,142.39,331.64,142.11Z" fill="#ffca8a"/><path id="index_right" d="M285.37,136.7c-2.64,2.35-2.18,8.26-.12,9.82,2.22,1.69,11.58-3.45,11.8-4.56C298.61,133.89,285.17,137.51,285.37,136.7Z" fill="#ffca8a"/><path id="middle_right" d="M301.64,144c-1.33-2.45-12-1.64-12.63-.72s6,9.91,7.6,9.79C300.5,152.75,303,146.41,301.64,144Z" fill="#ffca8a"/><path id="ring_right" d="M306.79,154c-3.3-10.46-10.11-2.68-10-2.79-2.07,1.87,1.2,12,2.25,12.45S307.28,155.59,306.79,154Z" fill="#ffca8a"/><path id="pinky_right" d="M308,157.66c-1.61-3.55-6.8-1.89-8.64.21s2.61,11.8,3.7,12.1S308.7,159.16,308,157.66Z" fill="#ffca8a"/><path id="thumb_right" d="M268.66,142.3c-3.46,1.21-7,15.95-6.32,16.89s14.27-5.57,15.07-7.57C279.31,146.89,272.11,141.09,268.66,142.3Z" fill="#ffca8a"/><path id="glove_right" d="M280.85,135c-2.85,1.77-21.25,17.08-25.3,26.78,3.41,1,15.74,13.07,15.88,19.1,0,0,4.61,3.39,8.24,1.68,1.4,1.12,7.21,1.09,12.16-1.27s14.93-13.83,14.83-18.86S289.65,137.25,280.85,135Z" fill="#203f4f"/><path id="glove_shadow_right" d="M306.67,163c-3.46-4.79-11.3-.93-17.1,4.62s-16,9.79-14.34,12.78c3,5.33,13.93,2.57,18.93,1.54S310.12,167.74,306.67,163Z" fill="#1c1c1c"/><path id="arm_shadow_right" d="M148.53,177c1.36,24.37,16.14,53.1,16.14,53.1.05-1.72,3.1-12.41,6.38-16.34C166.48,211.87,157.37,205.81,148.53,177Z" fill="#dd7243"/><path id="armpit_shadow_right" d="M187.23,156.39c-.7,3.43,2.7,6.38,5.63,10s3.07-6.8,3.07-10S188.15,151.86,187.23,156.39Z" fill="#dd7243"/><path id="pants_shin_shadow_right" d="M141.73,520.78c.18,4.71,2.86,8,5.57,11s10.44-3.36,14.66-8.88S141.27,508.88,141.73,520.78Z" fill="#4c3f26"/><path id="pants_thigh_highlight_left" d="M337.92,442.38c-2.15,4.19-1.43,8.37-.53,12.28s10.75,2.2,17.13-.54S343.36,431.78,337.92,442.38Z" fill="#aa8b4d"/><path id="pants_calf_shadow_right" d="M100,515.25c-8.69-10.88-40.51,51.53-35,63.67,4.1,9,26.79-6.28,38.07-11.65S108.69,526.12,100,515.25Z" fill="#4c3f26"/><path id="shoe_right" d="M65.34,653.18c-2.25-2.25-12.75-7.75-19.75-7.75.5-9.75,19.75-31,19.75-31l-38.5-15.25s-20,31.5-22.25,36S0,650.39,0,659.14l17.09,21.79H70.34S67.59,655.43,65.34,653.18Z" fill="#1c1c1c"/><path id="shoe_rim_right" d="M75,598c-13.28,4.38-25.56-12.31-28.29-23.43-1.25-5.06-19.76,13.38-28.1,23.38,1,15.67,27.67,34,43.59,31,0,0,13.41-25,15.08-27.67S75,598,75,598Z" fill="#1c1c1c"/><path id="pants_thigh_shadow_right" d="M144.14,315.28c-3.34,8.14-6.57,25.2-6.86,30.45s22.88-34.08,25.62-36.31S147.79,306.35,144.14,315.28Z" fill="#4c3f26"/><path id="shoe_highlight_right" d="M45.17,647.26c-6.66-1-28.75,4.64-26.58,10,1.76,4.34,40.25,0,44.25-1.33S51.84,648.26,45.17,647.26Z" fill="#203f4f"/><path id="eye_white_right" d="M277.56,70.47c-1.57-.72-6.76,0-6.54.64s.54,3.3,5.52,4.35C278.23,74.22,279.87,71.53,277.56,70.47Z" fill="#f9dacf"/><path id="eye_shadow_right" d="M278.24,69.65s-6.61,0-8,.88l.7,1.61a16.23,16.23,0,0,1,6.43-.59C278.68,71.91,278.24,69.65,278.24,69.65Z" fill="#d1bbb4"/><path id="eye_lash_right" d="M279.14,70.62s-.14-.48,1.17-.83c-2.55-1.25-7.56-.51-9.58.33a5.55,5.55,0,0,1-2.75.22s3.71,4.71,8.71,5.13c-5.22-1.09-5.27-4.09-5.27-4.09a11,11,0,0,1,5.36-.39c2.85.4,3.34,1,3.42,1.18A4.62,4.62,0,0,0,279.14,70.62Z" fill="#1c1c1c"/><path id="eye_iris_right" d="M278.74,72.3a2,2,0,0,1-2.53,1.24,1.93,1.93,0,0,1-1-2.55,2,2,0,0,1,2.52-1.23A1.92,1.92,0,0,1,278.74,72.3Z" fill="#1c1c1c"/><path id="eye_reflection_right" d="M276.2,72.58c0,.28-1.24.4-2.75.27s-2.73-.45-2.72-.73,1.24-.4,2.75-.28S276.21,72.3,276.2,72.58Z" fill="#fcf7f5"/></g></g></svg>
