<svg xmlns="http://www.w3.org/2000/svg" xmlns:xlink="http://www.w3.org/1999/xlink" viewBox="0 0 470.3 703.26"><defs><linearGradient id="hair_tail11" x1="318" y1="205.51" x2="350.17" y2="205.51" gradientTransform="matrix(0.23, 0.97, -0.97, 0.23, 307.43, -346.23)" gradientUnits="userSpaceOnUse"><stop offset="0" stop-color="#82422e" /><stop offset="1" stop-color="#602a17" /></linearGradient><linearGradient id="hair_tail10" x1="191.05" y1="145.43" x2="223.22" y2="145.43" gradientTransform="translate(101.71 -199.33) rotate(37.3)" xlink:href="#hair_tail11" /><linearGradient id="hair_tail9" x1="163.15" y1="67.85" x2="183.64" y2="67.85" gradientTransform="translate(-2.24 -36.36) rotate(6.75)" xlink:href="#hair_tail11" /><linearGradient id="hair_tail8" x1="231.91" y1="169.79" x2="280.13" y2="169.79" gradientTransform="translate(182.89 -294.55) rotate(59.25)" xlink:href="#hair_tail11" /><linearGradient id="hair_tail7" x1="173.69" y1="27.22" x2="210.74" y2="27.22" gradientTransform="translate(-25.38 36.88) rotate(-7.2)" xlink:href="#hair_tail11" /><linearGradient id="hair_tail6" x1="178.01" y1="101.94" x2="199.16" y2="101.94" gradientTransform="translate(40.32 -145.64) rotate(25.19)" xlink:href="#hair_tail11" /><linearGradient id="hair_tail5" x1="357.3" y1="228.73" x2="376.96" y2="228.73" gradientTransform="matrix(0.22, -0.98, -0.98, -0.22, 323.79, 429.56)" xlink:href="#hair_tail11" /><linearGradient id="hair_tail4" x1="164.48" y1="89.74" x2="182.25" y2="89.74" gradientTransform="translate(-5.8 -61.98) rotate(6.38)" xlink:href="#hair_tail11" /><linearGradient id="hair_tail3" x1="220.41" y1="167.14" x2="233.39" y2="167.14" gradientTransform="matrix(0.77, 0.64, -0.64, 0.77, 90.28, -225.63)" xlink:href="#hair_tail11" /><linearGradient id="hair_tail2" x1="193.81" y1="4.96" x2="205.07" y2="4.96" gradientTransform="translate(-9.54 131.36) rotate(-23.95)" xlink:href="#hair_tail11" /><linearGradient id="hair_tail" x1="327.23" y1="235.51" x2="369.07" y2="235.51" gradientTransform="translate(377.15 -341.04) rotate(86.07)" xlink:href="#hair_tail11" /><linearGradient id="hair_side4_left" x1="729.01" y1="195.2" x2="707.28" y2="216.93" gradientTransform="matrix(-0.91, -0.41, -0.41, 0.91, 994.05, 180.33)" xlink:href="#hair_tail11" /><linearGradient id="hair_side3_left" x1="713.03" y1="190.66" x2="689.44" y2="214.26" gradientTransform="matrix(-0.9, -0.43, -0.43, 0.9, 978.25, 183.05)" xlink:href="#hair_tail11" /><linearGradient id="hair_side2_left" x1="684.8" y1="220.32" x2="723.14" y2="181.98" gradientTransform="matrix(-0.91, -0.41, -0.41, 0.91, 994.05, 180.33)" xlink:href="#hair_tail11" /><linearGradient id="hair_side_left" x1="299.32" y1="8.99" x2="299.32" y2="-35.55" gradientTransform="matrix(0.84, -0.54, 0.54, 0.84, 26.65, 262.81)" xlink:href="#hair_tail11" /><linearGradient id="hair_back" x1="172.34" y1="61.43" x2="199.01" y2="61.43" gradientTransform="matrix(1, 0, 0, 1, 0, 0)" xlink:href="#hair_tail11" /><linearGradient id="hair_side6_right" x1="324.38" y1="-81.85" x2="342.22" y2="-99.68" gradientTransform="translate(163.87 418.86) rotate(-61.75)" xlink:href="#hair_tail11" /><linearGradient id="hair_side5_right" x1="263.74" y1="18.4" x2="242" y2="40.13" gradientTransform="translate(-6.02 86.47) rotate(-11.59)" xlink:href="#hair_tail11" /><linearGradient id="hair_side4_right" x1="520.21" y1="254.96" x2="495.86" y2="279.31" gradientTransform="matrix(-0.41, -0.91, -0.91, 0.41, 670.5, 436.83)" xlink:href="#hair_tail11" /><linearGradient id="hair_side3_right" x1="478.83" y1="263.71" x2="515.5" y2="227.04" gradientTransform="matrix(-0.43, -0.9, -0.9, 0.43, 656.48, 417.69)" xlink:href="#hair_tail11" /><linearGradient id="hair_side2_right" x1="253.02" y1="13.19" x2="229.35" y2="36.86" gradientTransform="translate(-6.02 86.47) rotate(-11.59)" xlink:href="#hair_tail11" /><linearGradient id="hair_side_right" x1="220.12" y1="43.2" x2="257.39" y2="5.94" gradientTransform="translate(-6.02 86.47) rotate(-11.59)" xlink:href="#hair_tail11" /><linearGradient id="hair_top" x1="190.95" y1="31.37" x2="251.11" y2="31.37" gradientTransform="matrix(1, 0, 0, 1, 0, 0)" xlink:href="#hair_tail11" /></defs><title>left2</title><g id="Layer_2" data-name="Layer 2"><g id="left2"><path id="arm_shadow_left" d="M416.66,135.85c-1.87-2.43-31,2.33-40.35.2s-60-8.41-67.84,2c-3.5-.12-44.52-6.63-52.66-6.21-21.4,1.11-37-11-53.18,4.28-4.36,4.12-7.54,23.56-8.12,32.21-.79,11.63,14.81,16.11,41.43,13,37.8-4.36,71.56-2.2,76.4,1.83,2,1.62,26.14-2.25,35-5.7,9.74-3.78,33.21-12.07,38.5-13.57,8-2.27,30.57.86,30.54-1.19S418.54,138.28,416.66,135.85Z"fill="#dd7243" /><path id="arm2_left" d="M284.41,139.82c-25.5-1.37-52.5-10.3-55.5,12.67-1.3,10,20-2.12,44.5,3.42s49,18.54,53,11.54S309.91,141.19,284.41,139.82Z" fill="#ffca8a" /><path id="arm_left" d="M408,137.58c-3.67-.72-48.59,4.37-57.84-.35-4-2-30.75-.1-39,1.22,21.75,2.5,35.92,14.77,43.25,14,19-2,54.14-2.62,54.14-2.62S411.68,138.31,408,137.58Z" fill="#ffca8a" /><path id="glove_shadow_left" d="M435.47,126.67c-3.53.21-14.52,4.18-14.52,4.18-12.5,2.43-12.73,24.2-9.19,27.64s22.9,8.47,31.92,9.36,13-42.37,13-42.37S439,126.45,435.47,126.67Z" fill="#1c1c1c" /><path id="palm_shadow_left" d="M436.72,146.83s7.84,12.39,6.49,15.41c.55,5.7,10.18,7.44,12.88,6.36s6.05-2.3,7.87-5.78C471.7,148,434.9,136.32,436.72,146.83Z" fill="#dd7243" /><path id="index_left" d="M465.17,129.05c-1.16-1.48-7-4.85-9.45-3.21S453,133,453,133s-1.22,12.62,1.68,14,5.92-2.37,7.73-3.73S466.33,130.53,465.17,129.05Z" fill="#ffca8a" /><path id="middle_left" d="M468.4,139.54c-.75-1.53-5.3-5.63-7.75-4.63s-3.79,5.75-3.79,5.75-3.48,10.92-1.19,12.7,5.69-1,7.54-1.82S469.14,141.07,468.4,139.54Z" fill="#ffca8a" /><path id="pinky_left" d="M470.21,151.1c-.75-1.53-5.3-5.63-7.74-4.64s-3.8,5.76-3.8,5.76-3.48,10.92-1.19,12.7,5.69-1,7.55-1.82S471,152.63,470.21,151.1Z" fill="#ffca8a" /><path id="ring_left" d="M465.9,140.84c-2.16-.39-5.25,2.36-5.25,2.36s-7.33,6.14-6.51,8.42,4.44,1.87,6.13,2.09,8.86-4.73,9-6.14S468.07,141.23,465.9,140.84Z" fill="#ffca8a" /><path id="thumb_left" d="M453.77,151.12c-2.92,0-6.62-3.89-10.73-3.89-4.37,0-6.63,2.81-5.8,6.67s4.82,4,11.24,3.79S456.69,151.09,453.77,151.12Z" fill="#ffca8a" /><path id="shirt_back" d="M117,150.73c-6.57,2.75-8.11,20.35-7.55,38.17s40.3,71.15,43.42,61.82S133.66,143.74,117,150.73Z" fill="#bca675" /><path id="hair_tail11" d="M197.48,10.3c-6.78-6.08-29.88,8.19-34.15,25.34,0,0,13.93-15.45,31.65-8,6.15,2.59,8.36,12.2,13,10.33C219.18,33.41,204.26,16.38,197.48,10.3Z" fill="url(#hair_tail11)" /><path id="hair_tail10" d="M176.82,21.91c-9.1-.43-18,25.21-10.5,41.2,0,0,1.05-20.77,19.51-26.16,6.4-1.88,14.18,4.19,16.56-.16C208.23,26.15,185.91,22.35,176.82,21.91Z" fill="url(#hair_tail10)" /><path id="hair_tail9" d="M171.72,14.94C161.31,22,145.5,41.4,155.5,59.84c8.33,15.34-8.1,27.49-8.1,27.49,20.63-9.39,12.46-29.49,18.29-42.65,4.78-10.79,7.67-12.15,8.56-12.29C172.08,32.39,158.58,31.73,171.72,14.94Z" fill="url(#hair_tail9)" /><path id="hair_tail8" d="M162.47,16.5C150,16.94,145,6,141.36,0c4.26,16.93,12,19.76,19,19.45s25.87-8.07,35.73,4.1C183.48,7.21,172.81,15.88,162.47,16.5Z" fill="url(#hair_tail8)" /><path id="hair_tail7" d="M169.85,43.36c-3.52,8.92-12.17,13.71-17.52,14.38,16.48-2.57,21.72-8.59,23.67-13.64S173.54,25,185.14,21.83C169.75,25.71,172.59,35.89,169.85,43.36Z" fill="url(#hair_tail7)" /><path id="hair_tail6" d="M163.73,15.49C158,16.45,154.42,31,161.3,40c0,0,6.41-14.15,10.12-16.31s9.47.72,10.39-2.34C184,13.92,169.5,14.54,163.73,15.49Z" fill="url(#hair_tail6)" /><path id="hair_tail5" d="M192.37,14.17c-2.76-1.06-3.93,4.82-7.62,6.31S167,18.64,167,18.64c2.73,10.2,15.45,15.89,19.43,12.18S199.14,16.78,192.37,14.17Z" fill="url(#hair_tail5)" /><path id="hair_tail4" d="M164.77,14.76c-9,6.2-22.59,23.11-13.81,39,7.31,13.25-6.87,23.89-6.87,23.89C161.93,69.43,154.73,52,159.71,40.6c4.08-9.39,6.59-10.59,7.36-10.71C165.18,29.9,153.47,29.4,164.77,14.76Z" fill="url(#hair_tail4)" /><path id="hair_tail3" d="M176.86,31.52c-8,.21-23,5.13-24,18.38-.82,11-13.73,11.88-13.73,11.88,14.21,2.06,16.73-11.45,24.35-16.47,6.27-4.13,8.27-3.84,8.78-3.61C171.09,41,164.09,36,176.86,31.52Z" fill="url(#hair_tail3)" /><path id="hair_tail2" d="M174.61,50.72c-.78-6.47.22-7.91.6-8.22-1,.61-7.6,4.1-6.1-7.53-2.93,6.26-5,19.86,4.94,25.77,8.23,4.91,3.88,15.26,3.88,15.26C185.05,65.78,175.54,58.57,174.61,50.72Z" fill="url(#hair_tail2)" /><path id="hair_tail" d="M160.2,23.58c-9.82-4.54-9.47-15-9.88-21-3.32,14.77,1.54,20,7.11,22.5s23.18,3.88,26,17.16C180.1,24.61,168.45,27.14,160.2,23.58Z" fill="url(#hair_tail)" /><path id="hair_side4_left" d="M255.63,49C248,51,239.29,63.48,239.06,65.49s18.68,18,27.49,21.57S265,46.7,255.63,49Z" fill="url(#hair_side4_left)" /><path id="hair_side3_left" d="M262.09,40.15c-6.91-3.93-23.7,4.27-26,9.17-.86,1.83,17.86,38.3,26,43.28C271.78,98.58,274.5,47.21,262.09,40.15Z" fill="url(#hair_side3_left)" /><path id="hair_side2_left" d="M263.78,47.35c-3.91-.27-9.2,6.78-9.2,6.78s11.42,14.69,12,32.93,15.06,43.77,15.06,43.77,4.91-21.37,4.84-39.94S270,47.77,263.78,47.35Z" fill="url(#hair_side2_left)" /><path id="hair_side_left" d="M271.57,89c-7.17-8.32-16.13-24.18-16.13-24.18s-2.38,8.44-1.29,11.69,12.35,15.13,37.17,31C291.32,107.49,278.74,97.3,271.57,89Z" fill="url(#hair_side_left)" /><path id="pelvis" d="M220.08,301.72c-3.21-5-.33-12.35-42.33-12.25-19.5,0-25,.77-38,.77s-29.5,17.48-33,42.55,56,62.43,77.14,62.43,46.36-61,47.44-64.5S223.28,306.73,220.08,301.72Z" fill="#4c3f26" /><path id="pants_leg_right" d="M178.19,389.72c-34.57-25.5-45.48-55.81-60.5-56.93-19-1.43-23.86,59.26-24.36,92.26s9,39.87-2,60c-7.52,13.77-29,47.22-31.25,53.35s-3.75,32.82-16.25,46.32-37.08,81.5-37.08,81.5h34c7-22.5,71.41-101.5,85.91-112.5s27.64-50.17,31.64-62.67S200,405.76,178.19,389.72Z"fill="#aa8b4d" /><path id="pants_leg_left" d="M324.16,526.38c-1-10.8.87-36.83-6.13-45.33s-37-86.38-50-103.88-39.61-74.79-55.34-48.52c-10.7,17.89-27.41,52.56-23.91,65.57s19.12,39.6,35.58,55.16C239.65,463.87,250,480.05,259,488.72c-8.5,13,5.4,49.21,8.66,54.85,8,13.81,15.59,33.15,21.59,64.65s0,54.5,0,54.5h30.5S325.16,537.19,324.16,526.38Z"fill="#4c3f26" /><path id="torso_skin" d="M223,52H176.77l2.17,36.31s-6.57,15.94-8.57,19.94-38.73,12.46-45,18-12,79-2.49,101.21,87.17,17.28,94.07,7.78,8-45.3,2.64-57.42-32-46.17-32-46.17L223,107.05Z" fill="#ffca8a" /><path id="torso_shadow" d="M221.31,138.74c-2.5-3.5-16.65-6-16.65-6-.25-5.25,8.29-10.51,8.29-10.51L191.12,72.47s-5.75,30.25-7.25,36.75c-10,3.5-22.49,20.75-22.49,20.75a54.08,54.08,0,0,0-20.5,0c30.49,10,34.24,36.75,31.24,56.25-4-15.75-29.24-15.75-31.24,0s5.5,46.37,46.37,46.37S223.81,142.24,221.31,138.74Z"fill="#dd7243" /><path id="shirt_torso" d="M219.69,136c2.75,5.5-10.22,30.64-19.4,31.05s-38.83-21.73-44.58-33.48c-3.5-3.75-4.05-20.88-22.5-11.32,24,2.51,16,35.48,19.12,64.79,3.12,29.54-13.37,43-33.23,29.95.62,14.64,5.9,33.66,6.23,40s5.93,20.38-7.14,44.72c23.22,15.33,61.43,18.66,100.77,4,0,0-9.34-28.67-11.34-36.67s29.82-48.25,30.54-66.83S230.69,153.76,219.69,136Z"fill="#ffe8ae" /><path id="shirt_abs_shadow" d="M233.33,212.38c-2.6-12-66.67,11.44-78.12,14.78s-4.65,86.13-4.65,86.13c22.55,6.21,69.76-5.24,73.06-9.24s.23-26.85-3.93-35.35S235.93,224.39,233.33,212.38Z" fill="#bca675" /><path id="arm_right" d="M198.87,143.89c-8.68,17-6,24.06-12,31.31s-10.75,8.76-21.25,24.07c-1.75-12-3.5-8.93-5.5-21.93s-7.12-12.72-4.62-17.22-16.75-40.75-27-37.5c-11.3,3.59-18.83,9.91-21.8,14.12-7,9.85-2.83,31.82-.58,35.32s-.11,19.83,2.64,28.58,16.49,36.48,19.74,41.23,10,29.5,14.75,34.25,9.69,14.94,20.1,6.12c15.1-12.78,26.87-24,34.91-44.36,5.43-13.76,24.6-81.2,25.61-86.19Z"fill="#ffca8a" /><path id="face_shadow" d="M262,73.12a39.69,39.69,0,1,0-69.49,26.2c-.27,8.09,1.21,17.72,6.42,22.23,8.66,7.5,20.67,13.17,23.38,11.83s19.79-16.5,19.79-16.5a14.35,14.35,0,0,0,7-1.38c.83-.5,0-7.62-.19-10.45a9.64,9.64,0,0,1,.31-2.78A39.55,39.55,0,0,0,262,73.12Z"fill="#dd7243" /><path id="face" d="M260.72,77C258.85,56.88,245.27,40,225.1,39.55a36.53,36.53,0,0,0-37.42,35.62c-.23,9.24-2.5,11.19,3,17.76-.43,7.43,6.21,22.9,10.91,27.17,7.8,7.1,18.71,12.58,21.24,11.42s18.58-14.74,18.58-14.74a11.08,11.08,0,0,0,6.25-1.56c.78-.44-1.87-6.18-2-8.8a42.66,42.66,0,0,1-.08-5.91C255.56,95.6,261.79,88.4,260.72,77Z"fill="#ffca8a" /><path id="face_nose_shadow" d="M243.35,113.1c-1.2-.76-6.91.87-6,1.59,2.12,1.75,8.9,1.92,9,.93S244.55,113.85,243.35,113.1Z" fill="#dd7243" /><path id="face_toplip_shadow" d="M232.88,120.23s-5.62.17-8.06-.86a11.57,11.57,0,0,0,5.24,1.94c.32.13,2.46,2,2.46,2s2.88-.71,3.1-1.86S233.35,120.91,232.88,120.23Z" fill="#dd7243" /><path id="face_chin_shadow" d="M226.07,122.81c-1.4.34-1.18,3-.41,3.81s4.86,0,4.82-.83S227.4,122.48,226.07,122.81Z" fill="#dd7243" /><path id="face_eye_shadow_right" d="M245.8,91.44c-1.17-1.35-14.72-.94-18.59,4-1.43,1.83,9.21,8,10.83,6.91S247,92.79,245.8,91.44Z" fill="#dd7243" /><path id="shoulder_shadow_right" d="M117.37,166.39c-.88-2.37-5.52-22.93-9.76-21.83-3.37.88-4.19,11.26-3,16.58s4.46,10.91,3.47,17.63,6.13,15.37,8.69,15S118.24,168.77,117.37,166.39Z" fill="#dd7243" /><path id="forearm_shadow_right" d="M211.78,159.08c-2.46.44-2.11,13.32-4,18.23s-26.07,50.15-31.07,57.9S169,255.46,162.5,256s-5.85,2.1-14.75,7.16c-3.59,2.05,2.7,17,7,19s26.22-22.91,35.47-34.66,18.39-60.47,21.24-63,6.65-15.9,7.24-18.29S214.25,158.63,211.78,159.08Z"fill="#dd7243" /><path id="shoe_rim_left" d="M326.73,599.17c-8.7,5.55-28.26.73-44.65-4.27-8.61,12.91-6.8,36-6.8,36l54.26.2S331.49,607.22,326.73,599.17Z" fill="#1c1c1c" /><path id="shoe_left" d="M362,679.93c-4.34-4.33-17.71-11.66-23.71-12-1.67-8.33-16.11-24.37-16-25.31l3-24.25-41.15,6.52s1,15.54,0,22.54-1.41,14.29-3.41,23.62,0,30.67,0,30.67h21.78s.33-5.67,7.33-6,12,6,15.67,6,40.13,1.54,40.13,1.54S366.33,684.26,362,679.93Z"fill="#1c1c1c" /><path id="face_shadow_right" d="M259.67,53.94c-.16-5.43-12.61-21.43-20.12-18.84-1.41.49-3.12,2-5,4.3-9,4.35-21.73,14.56-26.22,22.43-5.12,9-5.19,31.44-9.65,35.54s4.63,21,4.63,21-5.19-15.31-.44-19.61c.77-.7,3-8.59,6.13-6.67-1.39,5.52,1.75,1.31,1.28,3.72-3,2.63,4.23,15.32,3,20.49,4.58-7.5,23.42-38.13,29.4-43.83,3.32-3.17-3.17,29-4.19,39.41,9.52-17.92,10.32-37.56,12-39.41.7-.81,3.35-1.1,3.83-2.65,4.57-1.54,7.88-3,8.09-3.69C262.76,65,261.8,59.35,259.67,53.94Zm-28,24.4-1.52.73,2.3-3.47.91-.61c1.85-.25,3.88-.61,6-1.06C236.7,75.6,234,77.15,231.66,78.34Z"fill="#dd7243" /><path id="hair_back" d="M248.29,44.92c-1.65-6.55-24.47-18.38-29.46-20.54S187,35.1,184.6,35.43s-6.3,9.17-7.55,12.21-3.36,37.57-2.94,42.24,0,6.5,7.3,8.85l7.82-13.19s6.52,8.5,10.15,10.17S249.94,51.47,248.29,44.92Z" fill="url(#hair_back)" /><path id="hair_side6_right" d="M238.55,113.45c10.13-27.66,11.88-43.94,10.78-47.18s-8.1-8.51-8.1-8.51,2.48,18,1.82,29S238.55,113.45,238.55,113.45Z" fill="url(#hair_side6_right)" /><path id="hair_side5_right" d="M251.8,43.18c-8.59-4.36-28.5,36.16-19.12,34.63s31.39-12.88,31.61-14.9S258.83,46.76,251.8,43.18Z" fill="url(#hair_side5_right)" /><path id="hair_side4_right" d="M226.83,54.36S210.59,80.5,207.69,89.48s-2.55,31.1-2.55,31.1C210.47,90.8,219.57,78.5,237,57.82Z" fill="url(#hair_side4_right)" /><path id="hair_side3_right" d="M239.28,36l-7.7,4.77s-1.25,16.67-6.05,27.29-20.94,24.47-22.62,30.66,2.5,17.2,2.5,17.2-1.47-10.28.17-16.12S225.75,82,231.44,73.4,240.67,45.13,239.28,36Z" fill="url(#hair_side3_right)" /><path id="hair_side2_right" d="M236.4,36.3C228,41,215.26,91.07,224,87.26s35.91-33.88,35.5-35.87C258.39,46.09,243.35,32.45,236.4,36.3Z" fill="url(#hair_side2_right)" /><path id="hair_side_right" d="M242.34,39.4c-6.18-1-27.6,19.31-31.8,37.4S212.33,118,212.33,118s14.16-21.65,18.75-39.31S253.76,52,253.76,52,246.21,40,242.34,39.4Z" fill="url(#hair_side_right)" /><path id="hair_top" d="M219.66,21.54c-3.51,0-31.95,10.1-28.4,10.78,7.94,1.52,2.12,8.88,2.12,8.88s38-7.66,57.73-.62C251.11,40.58,248.33,21.54,219.66,21.54Z" fill="url(#hair_top)" /><path id="brow_right" d="M248.46,92.86c-.67-.25-10.5-7.38-11.75-7.46s-6.89,1.71-6.89,1.71a27.18,27.18,0,0,1,5.47,1.09c1.59.55,9.42,6.66,10.75,6.75S249.13,93.11,248.46,92.86Z" fill="#1c1c1c" /><path id="shoulder_highlight_right" d="M130.52,124C128,124.7,118.94,128.3,120,129s13.92,4.92,14.3,3.17S132,123.54,130.52,124Z" fill="#fce7ca" /><path id="cheek_highlight_right" d="M225.29,101.82c-1.17.06-1.3,5.49-.61,6.62s8.65-4.9,9.18-5.65S227.24,101.71,225.29,101.82Z" fill="#fce7ca" /><path id="collar_highlight_right" d="M170.45,129.72c-2.55.72-13.37,2-12.37,2.7s31.55,9.94,31.93,8.19S172,129.28,170.45,129.72Z" fill="#fce7ca" /><path id="neck_highlight_right" d="M146,124.26c-1.52.8,7.64,1,9.44.64s12.83-11.18,13.2-12.15S147.39,123.55,146,124.26Z" fill="#fce7ca" /><path id="forearm_highlight_right" d="M173.86,199c-8.3,8.32-23.44,25.8-25.34,31.06-1.35,3.76,10.61,1.42,15.7.24S182.16,190.71,173.86,199Z" fill="#fce7ca" /><path id="index_right" d="M207.12,112.58c-1.22,3.3,1.95,8.23,4.5,8.61,2.75.42,8.58-8.47,8.25-9.54C217.47,103.88,207.32,113.39,207.12,112.58Z" fill="#dd7243" /><path id="middle_right" d="M224.12,110.51c-2.34-1.53-11.32,4.23-11.46,5.35s9.93,5.9,11.33,5C227.28,118.8,226.46,112,224.12,110.51Z" fill="#dd7243" /><path id="ring_right" d="M232.6,115.73c-7.86-7.65-10.17,2.43-10.12,2.28-.95,2.63,6.75,10,7.87,9.9S233.78,116.88,232.6,115.73Z" fill="#dd7243" /><path id="pinky_right" d="M235.74,117.28c-3.09-2.37-6.88,1.55-7.5,4.28s7.89,9.15,9,8.9S237.05,118.28,235.74,117.28Z" fill="#dd7243" /><path id="thumb_right" d="M201.36,126.66c-2.47,2.7,1.43,17.34,2.45,17.86s9.92-11.67,9.68-13.81C212.92,125.65,203.83,124,201.36,126.66Z" fill="#dd7243" /><path id="glove_right" d="M241,126c-2.46-4.38-26.93-14.14-35.73-11.93-1.67,2.91-10.62,25.11-9.59,35.58,3.46-.77,20.06,4.05,23,9.29,0,0,5.66.8,8-2.43,1.76.32,6.86-2.45,10.11-6.88S243.48,130.37,241,126Z" fill="#203f4f" /><path id="glove_shadow_right" d="M236.4,125.09c-5.61-1.86-10.39,4.53-12.87,12.17s-9.46,16.21-6.57,18.05c5.15,3.28,17.7-1.1,19.94-5.69C242,139.12,241.84,126.89,236.4,125.09Z" fill="#1c1c1c" /><path id="arm_shadow_right" d="M153.87,166.39c-4.17,10-26.7,34.59-42,20.23-7.29,20,26.15,73.09,26.15,73.09,0-10.17,11.82-43.71,27.19-57.46C164.08,192.7,158.47,173.08,153.87,166.39Z" fill="#dd7243" /><path id="armpit_shadow_right" d="M142.34,158c-.7,3.42,2.7,6.38,5.64,10s3.06-6.8,3.06-10S143.27,153.42,142.34,158Z" fill="#dd7243" /><path id="pants_shin_shadow_right" d="M107.6,541.52c.67,4.67,3.67,7.67,6.67,10.33s10-4.41,13.67-10.33S105.92,529.73,107.6,541.52Z" fill="#4c3f26" /><path id="pants_thigh_highlight_left" d="M276.66,437.72c-4.65,9-3.25,18.57-1.33,27s14.94,14.79,28.67,8.85S288.43,414.84,276.66,437.72Z" fill="#aa8b4d" /><path id="pants_calf_shadow_right" d="M71.63,536.84c-12.55-6-14.2,64-3.95,72.53,7.58,6.31,21.43-17.26,29.27-27S84.17,542.88,71.63,536.84Z" fill="#4c3f26" /><path id="pants_thigh_shadow_right" d="M104.17,339.05c1.47,8.67,7.74,24.87,10.26,29.48s1.44-41,2.59-44.36S102.57,329.53,104.17,339.05Z" fill="#4c3f26" /><path id="shoe_right" d="M47.75,666.22c.5-9.75,19.75-31,19.75-31L22,617.21s-15.32,33.51-17.57,38S0,693,0,701.72H19.25l44.23,0s-2.75-25.5-5-27.75S54.75,666.22,47.75,666.22Z" fill="#1c1c1c" /><path id="shoe_rim_right" d="M73,612.78c-13.54,7-29.91-6.86-34.93-17.22-2.29-4.72-18.86,17.18-26,28.72,4,15.18,36.21,27.71,52.86,21.53,0,0,9.84-27.3,11.14-30.27S73,612.78,73,612.78Z" fill="#1c1c1c" /><path id="shoe_highlight_right" d="M37.33,668.05c-6.67-1-28.75,4.63-26.58,10,1.75,4.33,40.25,0,44.25-1.33S44,669.05,37.33,668.05Z" fill="#203f4f" /><path id="eye_white_right" d="M240.41,94.93c-1.6-.76-6.78.77-6.53,1.55s.67,4.22,5.69,5C241.22,99.72,242.77,96.05,240.41,94.93Z" fill="#f9dacf" /><path id="eye_shadow_right" d="M241.06,93.8s-6.62.78-7.95,2l.76,2c1.51-.85,5.12-1.78,6.42-1.46S241.06,93.8,241.06,93.8Z" fill="#d1bbb4" /><path id="eye_lash_right" d="M243.14,93.75c-2.6-1.33-7.6.17-9.59,1.47a4.48,4.48,0,0,1-2.75.59s3.9,5.7,8.93,5.7c-5.28-.85-5.44-4.73-5.44-4.73a9.19,9.19,0,0,1,5.36-1.09c2.86.21,3.38,1,3.47,1.16A5.76,5.76,0,0,0,242,95S241.84,94.36,243.14,93.75Z"fill="#1c1c1c" /><path id="eye_iris_right" d="M241.43,97.75c-.51,1.77-1.76,3-2.79,2.66s-1.45-2-.93-3.75,1.76-3,2.79-2.65S242,96,241.43,97.75Z" fill="#1c1c1c" /><path id="eye_reflection_right" d="M239.13,97.81c0,.37-1.23.66-2.75.66s-2.75-.29-2.75-.66,1.23-.65,2.75-.65S239.13,97.45,239.13,97.81Z" fill="#fcf7f5" /></g></g></svg>
