<svg xmlns="http://www.w3.org/2000/svg" xmlns:xlink="http://www.w3.org/1999/xlink" viewBox="0 0 470.3 703.26"><defs><linearGradient id="linear-gradient" x1="322.95" y1="341.2" x2="355.12" y2="341.2" gradientTransform="matrix(0.23, -0.97, -0.97, -0.23, 438.18, 1086.14)" gradientUnits="userSpaceOnUse"><stop offset="0" stop-color="#82422e"/><stop offset="1" stop-color="#602a17"/></linearGradient><linearGradient id="linear-gradient-2" x1="191.68" y1="276.71" x2="223.85" y2="276.71" gradientTransform="matrix(0.8, -0.61, -0.61, -0.8, 180.77, 1007.39)" xlink:href="#linear-gradient"/><linearGradient id="linear-gradient-3" x1="162.98" y1="194.34" x2="183.47" y2="194.34" gradientTransform="matrix(0.99, -0.12, -0.12, -0.99, 12.81, 865.21)" xlink:href="#linear-gradient"/><linearGradient id="linear-gradient-4" x1="234.59" y1="303.92" x2="282.81" y2="303.92" gradientTransform="matrix(0.51, -0.86, -0.86, -0.51, 296.79, 1068.7)" xlink:href="#linear-gradient"/><linearGradient id="linear-gradient-5" x1="174.01" y1="151.52" x2="211.07" y2="151.52" gradientTransform="matrix(0.99, 0.13, 0.13, -0.99, -41.28, 789.67)" xlink:href="#linear-gradient"/><linearGradient id="linear-gradient-6" x1="178.02" y1="231.38" x2="199.16" y2="231.38" gradientTransform="matrix(0.9, -0.43, -0.43, -0.9, 95.41, 966.03)" xlink:href="#linear-gradient"/><linearGradient id="linear-gradient-7" x1="366.3" y1="365.37" x2="385.96" y2="365.37" gradientTransform="translate(455.21 235.25) rotate(77.46)" xlink:href="#linear-gradient"/><linearGradient id="linear-gradient-8" x1="164.31" y1="216.17" x2="182.09" y2="216.17" gradientTransform="matrix(0.99, -0.11, -0.11, -0.99, 8.41, 890.87)" xlink:href="#linear-gradient"/><linearGradient id="linear-gradient-9" x1="221.19" y1="298.73" x2="234.18" y2="298.73" gradientTransform="matrix(0.77, -0.64, -0.64, -0.77, 173.34, 1030.97)" xlink:href="#linear-gradient"/><linearGradient id="linear-gradient-10" x1="195.39" y1="126.89" x2="206.66" y2="126.89" gradientTransform="matrix(0.91, 0.41, 0.41, -0.91, -60.48, 682.7)" xlink:href="#linear-gradient"/><linearGradient id="linear-gradient-11" x1="333.62" y1="371.77" x2="375.45" y2="371.77" gradientTransform="matrix(0.07, -1, -1, -0.07, 512.65, 1060)" xlink:href="#linear-gradient"/><linearGradient id="linear-gradient-12" x1="747.03" y1="324.52" x2="725.3" y2="346.25" gradientTransform="translate(1063.99 633.2) rotate(155.55)" xlink:href="#linear-gradient"/><linearGradient id="linear-gradient-13" x1="731.02" y1="320.12" x2="707.43" y2="343.72" gradientTransform="matrix(-0.9, 0.43, -0.43, -0.9, 1049.91, 629.52)" xlink:href="#linear-gradient"/><linearGradient id="linear-gradient-14" x1="702.82" y1="349.64" x2="741.16" y2="311.31" gradientTransform="translate(1063.99 633.2) rotate(155.55)" xlink:href="#linear-gradient"/><linearGradient id="linear-gradient-15" x1="301.84" y1="129.86" x2="301.84" y2="85.31" gradientTransform="matrix(0.84, 0.54, 0.54, -0.84, -40.92, 540.69)" xlink:href="#linear-gradient"/><linearGradient id="linear-gradient-16" x1="172.34" y1="186.85" x2="199.01" y2="186.85" gradientTransform="matrix(1, 0, 0, -1, 0, 828.68)" xlink:href="#linear-gradient"/><linearGradient id="linear-gradient-17" x1="330.89" y1="36.7" x2="348.72" y2="18.86" gradientTransform="matrix(0.47, 0.88, 0.88, -0.47, 56.37, 334.78)" xlink:href="#linear-gradient"/><linearGradient id="linear-gradient-18" x1="264.32" y1="142.05" x2="242.59" y2="163.78" gradientTransform="matrix(0.98, 0.2, 0.2, -0.98, -31.42, 737.81)" xlink:href="#linear-gradient"/><linearGradient id="linear-gradient-19" x1="534.71" y1="389.78" x2="510.36" y2="414.12" gradientTransform="translate(799.46 308.33) rotate(114.14)" xlink:href="#linear-gradient"/><linearGradient id="linear-gradient-20" x1="493.48" y1="398.41" x2="530.15" y2="361.75" gradientTransform="translate(784.55 329.83) rotate(115.27)" xlink:href="#linear-gradient"/><linearGradient id="linear-gradient-21" x1="253.61" y1="136.84" x2="229.93" y2="160.51" gradientTransform="matrix(0.98, 0.2, 0.2, -0.98, -31.42, 737.81)" xlink:href="#linear-gradient"/><linearGradient id="linear-gradient-22" x1="220.71" y1="166.85" x2="257.97" y2="129.59" gradientTransform="matrix(0.98, 0.2, 0.2, -0.98, -31.42, 737.81)" xlink:href="#linear-gradient"/><linearGradient id="linear-gradient-23" x1="190.95" y1="156.79" x2="251.11" y2="156.79" gradientTransform="matrix(1, 0, 0, -1, 0, 828.68)" xlink:href="#linear-gradient"/></defs><title>left2</title><g id="Layer_2" data-name="Layer 2"><g id="left2"><path id="pelvis" d="M220.08,401.55c-3.21,5-.33,12.34-42.33,12.25-19.5-.05-25-.78-38-.78s-29.5-17.47-33-42.55,56-62.42,77.14-62.42,46.36,61,47.44,64.5S223.28,396.54,220.08,401.55Z" fill="#4c3f26"/><path id="pants_leg_l" d="M324.16,176.88c-1,10.8.87,36.83-6.13,45.33s-37,86.38-50,103.88-39.61,74.79-55.34,48.52c-10.7-17.89-27.41-52.56-23.91-65.56s19.12-39.6,35.58-55.17C239.65,239.39,250,223.21,259,214.55c-8.5-13,5.4-49.21,8.66-54.86,8-13.81,15.59-33.14,21.59-64.64s0-54.5,0-54.5h30.5S325.16,166.08,324.16,176.88Z" fill="#4c3f26"/><path id="pants_thigh_highlight_l" d="M276.66,265.55c-4.65-9.06-3.25-18.57-1.33-27s14.94-14.79,28.67-8.85S288.43,288.42,276.66,265.55Z" fill="#aa8b4d"/><path id="shoe_rim_l" d="M326.73,104.09c-8.7-5.54-28.26-.73-44.65,4.27-8.61-12.91-6.8-36-6.8-36l54.26-.2S331.49,96.05,326.73,104.09Z" fill="#1c1c1c"/><path id="shoe_l" d="M362,23.33c-4.34,4.34-17.71,11.67-23.71,12-1.67,8.33-16.11,24.37-16,25.32s3,24.24,3,24.24l-41.15-6.52s1-15.53,0-22.53-1.41-14.29-3.41-23.63,0-30.66,0-30.66h21.78s.33,5.66,7.33,6,12-6,15.67-6S365.66,0,365.66,0,366.33,19,362,23.33Z" fill="#1c1c1c"/><path id="pants_leg_r" d="M178.19,313.55c-34.57,25.5-45.48,55.8-60.5,56.92-19,1.43-23.86-59.26-24.36-92.26s9-39.87-2-60c-7.52-13.77-29-47.22-31.25-53.35s-3.75-32.81-16.25-46.31S6.75,37.05,6.75,37.05h34c7,22.5,71.41,101.5,85.91,112.5s27.64,50.16,31.64,62.66S200,297.5,178.19,313.55Z" fill="#aa8b4d"/><path id="pants_calf_shadow_r" d="M71.63,166.42c-12.55,6-14.2-64-3.95-72.53,7.58-6.31,21.43,17.26,29.27,27S84.17,160.38,71.63,166.42Z" fill="#4c3f26"/><path id="pants_shin_shadow_r" d="M107.6,161.74c.67-4.66,3.67-7.66,6.67-10.33s10,4.42,13.67,10.33S105.92,173.54,107.6,161.74Z" fill="#4c3f26"/><path id="pants_thigh_shadow_r" d="M104.17,364.22c1.47-8.68,7.74-24.88,10.26-29.49s1.44,41,2.59,44.36S102.57,373.73,104.17,364.22Z" fill="#4c3f26"/><path id="shoe_r" d="M47.75,37.05c.5,9.75,19.75,31,19.75,31L22,86.06S6.71,52.55,4.46,48.05,0,10.3,0,1.55H19.25l44.23,0s-2.75,25.5-5,27.75S54.75,37.05,47.75,37.05Z" fill="#1c1c1c"/><path id="shoe_rim_r" d="M73,90.48c-13.54-7-29.91,6.86-34.93,17.23-2.29,4.71-18.86-17.19-26-28.72,4-15.19,36.21-27.72,52.86-21.54,0,0,9.84,27.31,11.14,30.27S73,90.48,73,90.48Z" fill="#1c1c1c"/><path id="shoe_highlight_r" d="M37.33,35.21c-6.67,1-28.75-4.63-26.58-10C12.5,20.88,51,25.21,55,26.55S44,34.21,37.33,35.21Z" fill="#203f4f"/><path id="arm_shadow_l" d="M416.66,567.41c-1.87,2.44-31-2.33-40.35-.19s-60,8.4-67.84-2c-3.5.12-44.52,6.64-52.66,6.21-21.4-1.11-37,11-53.18-4.28-4.36-4.11-7.54-23.56-8.12-32.21-.79-11.63,14.81-16.11,41.43-13,37.8,4.36,71.56,2.2,76.4-1.83,2-1.62,26.14,2.25,35,5.7,9.74,3.79,33.21,12.07,38.5,13.57,8,2.28,30.57-.86,30.54,1.19S418.54,565,416.66,567.41Z" fill="#dd7243"/><path id="arm2_l" d="M284.41,563.44c-25.5,1.37-52.5,10.3-55.5-12.66-1.3-10,20,2.11,44.5-3.43s49-18.54,53-11.54S309.91,562.07,284.41,563.44Z" fill="#ffca8a"/><path id="arm_l" d="M408,565.68c-3.67.73-48.59-4.37-57.84.36-4,2.05-30.75.1-39-1.23,21.75-2.5,35.92-14.77,43.25-14,19,2,54.14,2.62,54.14,2.62S411.68,565,408,565.68Z" fill="#ffca8a"/><path id="glove_shadow_l" d="M435.47,576.6c-3.53-.22-14.52-4.19-14.52-4.19-12.5-2.42-12.73-24.2-9.19-27.63s22.9-8.48,31.92-9.37,13,42.37,13,42.37S439,576.81,435.47,576.6Z" fill="#1c1c1c"/><path id="palm_shadow_l" d="M436.72,556.43s7.84-12.38,6.49-15.41c.55-5.7,10.18-7.44,12.88-6.36s6.05,2.3,7.87,5.78C471.7,555.23,434.9,566.94,436.72,556.43Z" fill="#dd7243"/><path id="index_l" d="M465.17,574.21c-1.16,1.49-7,4.85-9.45,3.21s-2.76-7.11-2.76-7.11-1.22-12.62,1.68-14,5.92,2.36,7.73,3.73S466.33,572.73,465.17,574.21Z" fill="#ffca8a"/><path id="middle_l" d="M468.4,563.72c-.75,1.53-5.3,5.63-7.75,4.64s-3.79-5.76-3.79-5.76-3.48-10.92-1.19-12.7,5.69,1,7.54,1.82S469.14,562.19,468.4,563.72Z" fill="#ffca8a"/><path id="pinky_l" d="M470.21,552.16c-.75,1.54-5.3,5.63-7.74,4.64s-3.8-5.76-3.8-5.76-3.48-10.91-1.19-12.7,5.69,1,7.55,1.82S471,550.63,470.21,552.16Z" fill="#ffca8a"/><path id="ring_l" d="M465.9,562.42c-2.16.39-5.25-2.36-5.25-2.36s-7.33-6.14-6.51-8.42,4.44-1.87,6.13-2.09,8.86,4.73,9,6.15S468.07,562,465.9,562.42Z" fill="#ffca8a"/><path id="thumb_l" d="M453.77,552.14c-2.92,0-6.62,3.9-10.73,3.89-4.37,0-6.63-2.81-5.8-6.66s4.82-4,11.24-3.8S456.69,552.18,453.77,552.14Z" fill="#ffca8a"/><path id="shirt_back" d="M117,552.54c-6.57-2.76-8.11-20.35-7.55-38.17s40.3-71.16,43.42-61.82S133.66,559.53,117,552.54Z" fill="#bca675"/><path id="torso_skin" d="M223,651.3H176.77L178.94,615s-6.57-15.94-8.57-19.94-38.73-12.47-45-18.06-12-79-2.49-101.21S210.09,458.5,217,468s8,45.3,2.63,57.42-32,46.17-32,46.17L223,596.21Z" fill="#ffca8a"/><path id="torso_shadow" d="M221.31,564.52c-2.5,3.5-16.65,6-16.65,6C204.41,575.75,213,581,213,581l-21.83,49.8s-5.75-30.25-7.25-36.75c-10-3.5-22.5-20.75-22.5-20.75a54.06,54.06,0,0,1-20.5,0c30.5-10,34.25-36.75,31.25-56.25-4,15.75-29.25,15.75-31.25,0s5.5-46.38,46.38-46.38S223.81,561,221.31,564.52Z" fill="#dd7243"/><path id="shirt_torso" d="M219.69,567.25c2.75-5.5-10.22-30.64-19.4-31s-38.83,21.73-44.58,33.48c-3.5,3.75-4.05,20.89-22.5,11.32,24-2.5,16-35.48,19.12-64.79,3.12-29.53-13.37-43-33.23-30,.62-14.64,5.9-33.66,6.23-40s5.93-20.38-7.14-44.71c23.22-15.34,61.43-18.67,100.77-4,0,0-9.34,28.66-11.34,36.66s29.82,48.25,30.54,66.84S230.69,549.5,219.69,567.25Z" fill="#ffe8ae"/><path id="shirt_abs_shadow" d="M233.33,490.88c-2.6,12-66.67-11.44-78.12-14.78S150.56,390,150.56,390c22.55-6.21,69.76,5.24,73.06,9.24s.23,26.85-3.93,35.35S235.93,478.88,233.33,490.88Z" fill="#bca675"/><path id="hair_tail11" d="M197.48,693c-6.78,6.08-29.88-8.19-34.15-25.34,0,0,13.93,15.45,31.65,8,6.15-2.58,8.36-12.2,13-10.33C219.18,669.86,204.26,686.88,197.48,693Z" fill="url(#linear-gradient)"/><path id="hair_tail10" d="M176.82,681.35c-9.1.44-18-25.21-10.5-41.2,0,0,1.05,20.77,19.51,26.17,6.4,1.87,14.18-4.19,16.56.16C208.23,677.12,185.91,680.92,176.82,681.35Z" fill="url(#linear-gradient-2)"/><path id="hair_tail9" d="M171.72,688.33c-10.41-7.08-26.22-26.47-16.22-44.91,8.33-15.33-8.1-27.49-8.1-27.49,20.63,9.39,12.46,29.49,18.29,42.65,4.78,10.79,7.67,12.15,8.56,12.29C172.08,670.87,158.58,671.54,171.72,688.33Z" fill="url(#linear-gradient-3)"/><path id="hair_tail8" d="M162.47,686.76c-12.47-.44-17.52,10.46-21.11,16.5,4.26-16.92,12-19.75,19-19.45s25.88,8.08,35.74-4.09C183.48,696.06,172.81,687.38,162.47,686.76Z" fill="url(#linear-gradient-4)"/><path id="hair_tail7" d="M169.85,659.91c-3.52-8.92-12.17-13.72-17.52-14.39,16.48,2.57,21.72,8.59,23.67,13.64s-2.46,19.06,9.14,22.27C169.75,677.55,172.59,667.38,169.85,659.91Z" fill="url(#linear-gradient-5)"/><path id="hair_tail6" d="M163.73,687.77c-5.78-.95-9.31-15.51-2.43-24.55,0,0,6.41,14.15,10.12,16.31s9.47-.72,10.39,2.34C184,689.34,169.5,688.72,163.73,687.77Z" fill="url(#linear-gradient-6)"/><path id="hair_tail5" d="M192.37,689.09c-2.76,1.07-3.93-4.82-7.62-6.31S167,684.62,167,684.62c2.73-10.2,15.45-15.88,19.43-12.18S199.14,686.48,192.37,689.09Z" fill="url(#linear-gradient-7)"/><path id="hair_tail4" d="M164.77,688.5c-9-6.19-22.59-23.1-13.81-39,7.31-13.25-6.87-23.89-6.87-23.89,17.84,8.27,10.64,25.65,15.62,37.1,4.08,9.39,6.59,10.58,7.36,10.71C165.18,673.37,153.47,673.86,164.77,688.5Z" fill="url(#linear-gradient-8)"/><path id="hair_tail3" d="M176.86,671.74c-8-.2-23-5.12-24-18.38-.82-11-13.73-11.88-13.73-11.88,14.21-2.06,16.73,11.46,24.35,16.47,6.27,4.14,8.27,3.85,8.78,3.62C171.09,662.3,164.09,667.29,176.86,671.74Z" fill="url(#linear-gradient-9)"/><path id="hair_tail2" d="M174.61,652.55c-.78,6.46.22,7.9.6,8.21-1-.6-7.6-4.1-6.1,7.54-2.93-6.27-5-19.87,4.94-25.77,8.23-4.92,3.88-15.27,3.88-15.27C185.05,637.49,175.54,644.69,174.61,652.55Z" fill="url(#linear-gradient-10)"/><path id="hair_tail" d="M160.2,679.68c-9.83,4.54-9.47,15-9.88,21-3.32-14.77,1.54-20,7.11-22.5s23.18-3.87,26-17.15C180.1,678.66,168.45,676.12,160.2,679.68Z" fill="url(#linear-gradient-11)"/><path id="hair_side4_l" d="M255.63,654.22c-7.65-1.92-16.34-14.44-16.57-16.45s18.68-18,27.49-21.57S265,656.56,255.63,654.22Z" fill="url(#linear-gradient-12)"/><path id="hair_side3_l" d="M262.09,663.11c-6.91,3.93-23.7-4.27-26-9.17-.86-1.83,17.86-38.3,26-43.28C271.78,604.68,274.5,656.05,262.09,663.11Z" fill="url(#linear-gradient-13)"/><path id="hair_side2_l" d="M263.78,655.91c-3.91.27-9.2-6.77-9.2-6.77s11.42-14.7,12-32.94,15.06-43.76,15.06-43.76,4.91,21.36,4.84,39.93S270,655.49,263.78,655.91Z" fill="url(#linear-gradient-14)"/><path id="hair_side_l" d="M271.57,614.28c-7.17,8.32-16.13,24.18-16.13,24.18s-2.38-8.44-1.29-11.68,12.35-15.14,37.17-31C291.32,595.78,278.74,606,271.57,614.28Z" fill="url(#linear-gradient-15)"/><path id="face_shadow" d="M262,630.14a39.69,39.69,0,1,1-69.49-26.2c-.27-8.09,1.21-17.72,6.42-22.23,8.66-7.5,20.66-13.16,23.38-11.83s19.78,16.5,19.78,16.5a14.34,14.34,0,0,1,7,1.39c.83.5,0,7.61-.19,10.44a9.64,9.64,0,0,0,.31,2.78A39.57,39.57,0,0,1,262,630.14Z" fill="#dd7243"/><path id="face" d="M260.72,626.29c-1.87,20.09-15.45,36.93-35.62,37.43a36.54,36.54,0,0,1-37.42-35.62c-.23-9.25-2.5-11.19,3-17.77-.43-7.43,6.21-22.9,10.91-27.17,7.8-7.09,18.71-12.58,21.24-11.41s18.58,14.73,18.58,14.73a11.06,11.06,0,0,1,6.25,1.57c.78.44-1.87,6.18-2,8.79a42.66,42.66,0,0,0-.08,5.91C255.56,607.66,261.79,614.86,260.72,626.29Z" fill="#ffca8a"/><path id="face_shadow_r" d="M262.43,637.14c-.21-.72-3.52-2.16-8.09-3.7-.48-1.55-3.13-1.84-3.83-2.64-1.64-1.85-2.44-21.5-12-39.41,1,10.37,7.51,42.57,4.19,39.41-6-5.71-24.82-36.34-29.4-43.84,1.21,5.18-6,17.86-3,20.5.47,2.4-2.67-1.81-1.28,3.71-3.12,1.92-5.36-6-6.13-6.66-4.75-4.3.44-19.62.44-19.62s-9.1,16.9-4.63,21,4.53,26.56,9.65,35.54c4.49,7.87,17.25,18.08,26.22,22.43,1.84,2.26,3.55,3.82,5,4.31,7.51,2.59,20-13.42,20.12-18.85C261.8,643.92,262.76,638.28,262.43,637.14Zm-23.08-7.8c-2.12-.46-4.15-.82-6-1.07l-.91-.6c-.71-1.08-1.48-2.25-2.3-3.48l1.52.73C234,626.11,236.7,627.66,239.35,629.34Z" fill="#dd7243"/><path id="face_nose_shadow" d="M243.35,590.16c-1.2.76-6.91-.87-6-1.59,2.12-1.75,8.9-1.92,9-.92S244.55,589.41,243.35,590.16Z" fill="#dd7243"/><path id="face_toplip_shadow" d="M232.87,583s-5.61-.17-8.05.86a11.57,11.57,0,0,1,5.24-1.94c.32-.13,2.46-2,2.46-2s2.88.72,3.1,1.87S233.35,582.35,232.87,583Z" fill="#dd7243"/><path id="face_chin_shadow" d="M226.07,580.46c-1.4-.35-1.18-3-.41-3.82s4.86,0,4.82.84S227.4,580.79,226.07,580.46Z" fill="#dd7243"/><path id="face_eye_shadow_r" d="M245.8,611.82c-1.17,1.35-14.72.94-18.59-4-1.43-1.83,9.21-8,10.83-6.92S247,610.47,245.8,611.82Z" fill="#dd7243"/><path id="eye_white_r" d="M240.41,608.33c-1.6.76-6.78-.77-6.53-1.54s.67-4.22,5.69-5C241.22,603.54,242.77,607.21,240.41,608.33Z" fill="#f9dacf"/><path id="eye_shadow_r" d="M241.06,609.47s-6.62-.79-7.95-2l.76-2c1.51.85,5.12,1.78,6.42,1.46S241.06,609.47,241.06,609.47Z" fill="#d1bbb4"/><path id="eye_lash_r" d="M243.14,609.51c-2.6,1.34-7.6-.17-9.59-1.47a4.56,4.56,0,0,0-2.75-.59s3.9-5.69,8.93-5.69c-5.28.84-5.44,4.72-5.44,4.72a9.1,9.1,0,0,0,5.36,1.09c2.86-.21,3.38-1,3.47-1.16A5.76,5.76,0,0,1,242,608.3S241.84,608.91,243.14,609.51Z" fill="#1c1c1c"/><path id="eye_iris_r" d="M240.5,609.26c-1,.3-2.28-.89-2.79-2.66s-.1-3.44.93-3.74,2.28.88,2.79,2.65S241.53,609,240.5,609.26Z" fill="#1c1c1c"/><path id="eye_reflection_r" d="M236.38,606.1c-1.52,0-2.75-.29-2.75-.65s1.23-.66,2.75-.66,2.75.3,2.75.66S237.9,606.1,236.38,606.1Z" fill="#fcf7f5"/><path id="brow_r" d="M248.46,610.4c-.67.25-10.5,7.38-11.75,7.46s-6.89-1.71-6.89-1.71a27.15,27.15,0,0,0,5.47-1.08c1.59-.56,9.42-6.67,10.75-6.75S249.13,610.15,248.46,610.4Z" fill="#1c1c1c"/><path id="hair_back" d="M248.29,658.34c-1.65,6.55-24.47,18.38-29.46,20.55S187,668.16,184.6,667.83s-6.3-9.17-7.55-12.21-3.36-37.57-2.94-42.23,0-6.5,7.3-8.85l7.82,13.18s6.52-8.5,10.15-10.17S249.94,651.8,248.29,658.34Z" fill="url(#linear-gradient-16)"/><path id="hair_side6_r" d="M238.55,589.81c10.13,27.66,11.88,43.94,10.78,47.18s-8.1,8.52-8.1,8.52,2.48-18,1.82-29S238.55,589.81,238.55,589.81Z" fill="url(#linear-gradient-17)"/><path id="hair_side5_r" d="M251.8,660.08c-8.59,4.36-28.5-36.16-19.12-34.63s31.39,12.89,31.61,14.9S258.83,656.5,251.8,660.08Z" fill="url(#linear-gradient-18)"/><path id="hair_side4_r" d="M226.83,648.91s-16.24-26.15-19.14-35.13-2.55-31.1-2.55-31.1c5.33,29.79,14.43,42.08,31.83,62.76Z" fill="url(#linear-gradient-19)"/><path id="hair_side3_r" d="M239.28,667.22l-7.7-4.77s-1.25-16.67-6.05-27.29-20.94-24.47-22.62-30.65,2.5-17.21,2.5-17.21-1.47,10.28.17,16.12,20.17,17.81,25.86,26.44S240.67,658.13,239.28,667.22Z" fill="url(#linear-gradient-20)"/><path id="hair_side2_r" d="M236.4,667c-8.43-4.67-21.14-54.77-12.43-51s35.91,33.88,35.5,35.87C258.39,657.18,243.35,670.81,236.4,667Z" fill="url(#linear-gradient-21)"/><path id="hair_side_r" d="M242.34,663.87c-6.18,1-27.6-19.31-31.8-37.4s1.79-41.17,1.79-41.17,14.16,21.64,18.75,39.3,22.68,26.66,22.68,26.66S246.21,663.26,242.34,663.87Z" fill="url(#linear-gradient-22)"/><path id="hair_top" d="M219.66,681.72c-3.51,0-31.95-10.09-28.4-10.77,7.94-1.53,2.12-8.89,2.12-8.89s38,7.66,57.73.63C251.11,662.69,248.33,681.72,219.66,681.72Z" fill="url(#linear-gradient-23)"/><path id="cheek_highlight_r" d="M225.29,601.45c-1.17-.07-1.3-5.5-.61-6.63s8.65,4.9,9.18,5.65S227.24,601.56,225.29,601.45Z" fill="#fce7ca"/><path id="neck_highlight_r" d="M146,579c-1.52-.8,7.64-1,9.44-.64s12.83,11.19,13.2,12.15S147.39,579.72,146,579Z" fill="#fce7ca"/><path id="arm_r" d="M198.87,559.37c-8.68-17-6-24.06-12-31.31s-10.75-8.75-21.25-24.07c-1.75,12-3.5,8.93-5.5,21.93s-7.12,12.72-4.62,17.22-16.75,40.75-27,37.5c-11.3-3.58-18.83-9.9-21.8-14.12-7-9.84-2.83-31.82-.58-35.32s-.11-19.83,2.64-28.58,16.49-36.48,19.74-41.23,10-29.5,14.75-34.25,9.69-14.93,20.1-6.12c15.1,12.78,26.87,24,34.91,44.36,5.43,13.76,24.6,81.2,25.61,86.2Z" fill="#ffca8a"/><path id="shoulder_shadow_r" d="M117.37,536.87c-.88,2.37-5.52,22.93-9.76,21.83-3.37-.87-4.19-11.26-3-16.58s4.46-10.9,3.47-17.63,6.13-15.37,8.69-15S118.24,534.49,117.37,536.87Z" fill="#dd7243"/><path id="forearm_shadow_r" d="M211.78,544.19c-2.46-.45-2.11-13.33-4-18.24s-26.07-50.15-31.07-57.9S169,447.8,162.5,447.3s-5.85-2.1-14.75-7.16c-3.59-2.05,2.7-17,7-19S181,444.05,190.22,455.8s18.39,60.48,21.24,63,6.65,15.9,7.24,18.29S214.25,544.63,211.78,544.19Z" fill="#dd7243"/><path id="arm_shadow_r" d="M153.87,536.87c-4.17-10-26.7-34.58-42-20.23-7.29-20,26.15-73.09,26.15-73.09,0,10.18,11.82,43.72,27.19,57.47C164.08,510.56,158.47,530.18,153.87,536.87Z" fill="#dd7243"/><path id="armpit_shadow_r" d="M142.34,545.3c-.7-3.42,2.7-6.38,5.64-10s3.06,6.79,3.06,10S143.27,549.84,142.34,545.3Z" fill="#dd7243"/><path id="collar_highlight_r" d="M170.45,573.55c-2.55-.73-13.37-2-12.37-2.7s31.55-10,31.93-8.19S172,574,170.45,573.55Z" fill="#fce7ca"/><path id="shoulder_highlight_r" d="M130.52,579.29c-2.56-.72-11.58-4.33-10.57-5.06s13.92-4.92,14.3-3.17S132,579.72,130.52,579.29Z" fill="#fce7ca"/><path id="forearm_highlight_r" d="M173.86,504.23c-8.3-8.32-23.44-25.79-25.34-31.06-1.35-3.76,10.61-1.42,15.7-.24S182.16,512.55,173.86,504.23Z" fill="#fce7ca"/><path id="index_r" d="M207.12,590.68c-1.22-3.3,1.95-8.23,4.5-8.61,2.75-.41,8.58,8.48,8.25,9.55C217.47,599.38,207.32,589.87,207.12,590.68Z" fill="#dd7243"/><path id="middle_r" d="M224.12,592.75c-2.34,1.53-11.32-4.23-11.46-5.35s9.93-5.9,11.33-5C227.28,584.46,226.46,591.22,224.12,592.75Z" fill="#dd7243"/><path id="ring_r" d="M232.6,587.54c-7.86,7.64-10.17-2.43-10.12-2.29-.95-2.63,6.75-10,7.87-9.9S233.78,586.39,232.6,587.54Z" fill="#dd7243"/><path id="pinky_r" d="M235.74,586c-3.09,2.37-6.88-1.55-7.5-4.27s7.89-9.16,9-8.9S237.05,585,235.74,586Z" fill="#dd7243"/><path id="thumb_r" d="M201.36,576.61c-2.47-2.71,1.43-17.35,2.45-17.87s9.92,11.67,9.68,13.81C212.92,577.61,203.83,579.31,201.36,576.61Z" fill="#dd7243"/><path id="glove_r" d="M241,577.28c-2.46,4.38-26.93,14.14-35.73,11.92-1.67-2.91-10.62-25.11-9.59-35.57,3.46.76,20.06-4.06,23-9.29,0,0,5.66-.81,8,2.42,1.76-.32,6.86,2.46,10.11,6.88S243.48,572.9,241,577.28Z" fill="#203f4f"/><path id="glove_shadow_r" d="M236.4,578.17C230.79,580,226,573.64,223.53,566s-9.46-16.21-6.57-18c5.15-3.27,17.7,1.1,19.94,5.69C242,564.14,241.84,576.37,236.4,578.17Z" fill="#1c1c1c"/></g></g></svg>