<svg xmlns="http://www.w3.org/2000/svg" xmlns:xlink="http://www.w3.org/1999/xlink" viewBox="0 0 366.46 681.39"><defs><linearGradient id="linear-gradient" x1="193.81" y1="-43.77" x2="225.98" y2="-43.77" gradientTransform="matrix(0.99, 0.14, 0.14, -0.99, -10.22, 575.11)" gradientUnits="userSpaceOnUse"><stop offset="0" stop-color="#82422e"/><stop offset="1" stop-color="#602a17"/></linearGradient><linearGradient id="linear-gradient-2" x1="112.72" y1="106.77" x2="144.89" y2="106.77" gradientTransform="matrix(0.89, -0.46, -0.46, -0.89, 135.2, 790.86)" xlink:href="#linear-gradient"/><linearGradient id="linear-gradient-3" x1="189.04" y1="-20.95" x2="209.53" y2="-20.95" xlink:href="#linear-gradient"/><linearGradient id="linear-gradient-4" x1="360.58" y1="-592.86" x2="408.81" y2="-592.86" gradientTransform="matrix(0.86, 0.51, 0.51, -0.86, 149.44, -67.09)" xlink:href="#linear-gradient"/><linearGradient id="linear-gradient-5" x1="523.94" y1="-263.33" x2="560.99" y2="-263.33" gradientTransform="matrix(0.63, 0.78, 0.78, -0.63, 54.93, 44.36)" xlink:href="#linear-gradient"/><linearGradient id="linear-gradient-6" x1="193.08" y1="-42.19" x2="214.23" y2="-42.19" xlink:href="#linear-gradient"/><linearGradient id="linear-gradient-7" x1="637.37" y1="296.72" x2="657.03" y2="296.72" gradientTransform="translate(700.28 157.59) rotate(110.8)" xlink:href="#linear-gradient"/><linearGradient id="linear-gradient-8" x1="407.95" y1="-267.36" x2="425.72" y2="-267.36" gradientTransform="matrix(0.79, 0.61, 0.61, -0.79, 19.02, 152.8)" xlink:href="#linear-gradient"/><linearGradient id="linear-gradient-9" x1="207.35" y1="-18.96" x2="220.33" y2="-18.96" gradientTransform="matrix(0.99, 0.15, 0.15, -0.99, -20.67, 571.08)" xlink:href="#linear-gradient"/><linearGradient id="linear-gradient-10" x1="164.36" y1="49.44" x2="175.62" y2="49.44" gradientTransform="matrix(1, 0.02, 0.02, -1, 11.8, 654.27)" xlink:href="#linear-gradient"/><linearGradient id="linear-gradient-11" x1="348.56" y1="-289.36" x2="390.39" y2="-289.36" gradientTransform="matrix(0.85, 0.53, 0.53, -0.85, 20.74, 188.21)" xlink:href="#linear-gradient"/><linearGradient id="linear-gradient-12" x1="840.38" y1="280.71" x2="818.65" y2="302.44" gradientTransform="translate(1043.89 194.36) rotate(130.91)" xlink:href="#linear-gradient"/><linearGradient id="linear-gradient-13" x1="728.16" y1="384.4" x2="704.56" y2="407.99" gradientTransform="translate(1089.15 795.17) rotate(162.02)" xlink:href="#linear-gradient"/><linearGradient id="linear-gradient-14" x1="533.3" y1="497.35" x2="571.64" y2="459.01" gradientTransform="translate(969.38 364.58) rotate(118.55)" xlink:href="#linear-gradient"/><linearGradient id="linear-gradient-15" x1="286.57" y1="357.81" x2="286.57" y2="313.26" gradientTransform="matrix(1, -0.07, -0.07, -1, 21.16, 962.08)" xlink:href="#linear-gradient"/><linearGradient id="linear-gradient-16" x1="210.41" y1="-32.19" x2="242.23" y2="-32.19" xlink:href="#linear-gradient"/><linearGradient id="linear-gradient-17" x1="253.66" y1="205.69" x2="271.49" y2="187.85" gradientTransform="matrix(1, 0, 0, -1, -0.62, 823.62)" xlink:href="#linear-gradient"/><linearGradient id="linear-gradient-18" x1="284.6" y1="175.97" x2="262.87" y2="197.7" gradientTransform="matrix(1, 0, 0, -1, -0.62, 823.62)" xlink:href="#linear-gradient"/><linearGradient id="linear-gradient-19" x1="254.44" y1="197.3" x2="230.09" y2="221.65" gradientTransform="matrix(1, 0, 0, -1, -0.62, 823.62)" xlink:href="#linear-gradient"/><linearGradient id="linear-gradient-20" x1="222.54" y1="209.24" x2="259.21" y2="172.58" gradientTransform="matrix(1, 0, 0, -1, -0.62, 823.62)" xlink:href="#linear-gradient"/><linearGradient id="linear-gradient-21" x1="273.89" y1="170.75" x2="250.21" y2="194.43" gradientTransform="matrix(1, 0, 0, -1, -0.62, 823.62)" xlink:href="#linear-gradient"/><linearGradient id="linear-gradient-22" x1="240.39" y1="201.09" x2="278.73" y2="162.75" gradientTransform="matrix(1, 0, 0, -1, -0.62, 823.62)" xlink:href="#linear-gradient"/><linearGradient id="linear-gradient-23" x1="224.68" y1="-58.28" x2="287.32" y2="-58.28" xlink:href="#linear-gradient"/></defs><title>left1</title><g id="Layer_2" data-name="Layer 2"><g id="left1"><path id="pelvis" d="M255.44,385.06c-2.12,5.55,2.18,12.15-39,20.59-19.1,3.91-24.64,4.31-37.37,7s-32.43-11.12-41-35,42.16-72.49,62.86-76.79,57.78,50.32,59.54,53.53S257.56,379.5,255.44,385.06Z" fill="#4c3f26"/><path id="pants_leg_l" d="M366.44,208.73c-1,10.8,1.85,21.5-5.15,30s-47.36,73-60.36,90.54-44.28,57.67-60,31.4c-10.71-17.9-27.51-43.89-24-56.9s29.78-50,50.78-58.54,40.73-30.46,42.23-35.46c-12.14-6-15.74-13.37-20.81-35.87-2-8.76,1.78-37.16,8.15-68.17C303,78.1,300,68.3,299.57,67.14l26.72-4.41S367.44,197.93,366.44,208.73Z" fill="#4c3f26"/><path id="pants_thigh_highlight_l" d="M337.92,239c-2.15-4.2-1.43-8.38-.53-12.29s10.75-2.19,17.13.54S343.36,249.62,337.92,239Z" fill="#aa8b4d"/><path id="shoe_rim_l" d="M295.93,107l-9.85-27.09,47.55-11.85,5,31.64Z" fill="#1c1c1c"/><path id="shoe_l" d="M364.8,23.62c-3.62,4.94-24.5,9.53-30.38,10.77-.37,8.49-6.36,30.15-6.1,31.07L335,89l-38.39-.13s.18-16.22-1.88-23-8.45-13.19-11.85-22.11-4.69-30.31-4.69-30.31l27-4.18s1.19,5.55,8.16,4.81S324.24,1.46,327.87.9s37-.9,37-.9S368.42,18.67,364.8,23.62Z" fill="#1c1c1c"/><path id="pants_leg_r" d="M156.5,377.84c-18.81,3.37-23.94-52.25-27.83-85s16.13-72.54,2.29-79.95-42.51-32-43.68-38.42-10.86-37.08-24.69-49.23S11.87,57.58,11.87,57.58l33.82-3.5c9.28,21.66,94.57,88.25,110.13,97.7s21.57,23.91,26.83,35.93,31.15,92.29,35.23,119S171.32,375.17,156.5,377.84Z" fill="#aa8b4d"/><path id="pants_calf_shadow_r" d="M100,166.15C91.31,177,59.49,114.61,65,102.48c4.1-9,26.79,6.28,38.07,11.65S108.69,155.27,100,166.15Z" fill="#4c3f26"/><path id="pants_shin_shadow_r" d="M141.73,160.61c.18-4.71,2.86-8,5.57-11S157.74,153,162,158.52,141.27,172.51,141.73,160.61Z" fill="#4c3f26"/><path id="pants_thigh_shadow_r" d="M144.14,366.12c-3.34-8.14-6.57-25.21-6.86-30.46S160.16,369.74,162.9,372,147.79,375,144.14,366.12Z" fill="#4c3f26"/><path id="shoe_r" d="M65.34,28.21C63.09,30.46,52.59,36,45.59,36c.5,9.75,19.75,31,19.75,31L26.84,82.21s-20-31.5-22.25-36S0,31,0,22.25L17.09.46H70.34S67.59,26,65.34,28.21Z" fill="#1c1c1c"/><path id="shoe_rim_r" d="M75,83.42C61.7,79,49.42,95.73,46.69,106.84c-1.25,5.06-19.76-13.38-28.1-23.38,1-15.66,27.67-34,43.59-31,0,0,13.41,25,15.08,27.67S75,83.42,75,83.42Z" fill="#1c1c1c"/><path id="shoe_highlight_r" d="M45.17,34.13c-6.66,1-28.75-4.64-26.58-10,1.76-4.33,40.25,0,44.25,1.33S51.84,33.13,45.17,34.13Z" fill="#203f4f"/><path id="arm_shadow_l" d="M318.43,508c-1.62,1.27-17.72,16.93-20.79,17s-17.59-25.67-25.09-31.61-14.37-3.59-23.3-13c-3.46.5-4.42,21.83-3.64,29.94s-7.5,31.56-10.54,36.73-13.06,4.87-21.72,4.53c-11.65-.47-4.38-50.3.94-76.57s32.45-37.83,33.89-39.92,20.39,5.15,26.78,12.22,17.59,22.28,21.17,29.8S320,506.75,318.43,508Z" fill="#dd7243"/><path id="arm_l" d="M297.64,525c-2.85-2.43-19.51-31.5-23.47-33.66s-14.12-6.26-18.2-13.55c6.41,4.7,20.74-.56,27.14,3.12s24.48,36.92,24.48,36.92S300.49,527.43,297.64,525Z" fill="#ffca8a"/><path id="glove_shadow_l" d="M316.14,554.31s-12.23-11-14.18-13.93-5.37-14.13-5.37-14.13c-5.57-11.45,11.71-24.71,16.58-23.94s20.52,13.22,26.65,19.9S316.14,554.31,316.14,554.31Z" fill="#1c1c1c"/><path id="index_l" d="M328,554.62c-1,1.6-6.48,5.59-9,4.22s-3.52-6.76-3.52-6.76-2.59-12.41.14-14.12,6.15,1.71,8.09,2.87S329,553,328,554.62Z" fill="#ffca8a"/><path id="middle_l" d="M337.48,550c-.57,1.6-4.66,6.17-7.19,5.45s-4.4-5.31-4.4-5.31-4.65-10.47-2.57-12.5,5.76.34,7.7,1S338.05,548.34,337.48,550Z" fill="#ffca8a"/><path id="ring_l" d="M342.6,542.12c-.57,1.6-4.65,6.17-7.19,5.45s-4.4-5.31-4.4-5.31-4.65-10.47-2.56-12.49,5.76.33,7.69,1S343.17,540.52,342.6,542.12Z" fill="#ffca8a"/><path id="pinky_l" d="M342.32,539.19c-2.11.63-5.47-1.77-5.47-1.77s-8-5.31-7.4-7.66,4.21-2.34,5.87-2.75,9.32,3.74,9.63,5.13S344.43,538.57,342.32,539.19Z" fill="#ffca8a"/><path id="palm_shadow_l" d="M315.65,542.09s5.27-10.5,3.86-12.8c-.09-4.58,7.68-6.75,10-6.1s5.22,1.33,7.05,4C344.37,538.3,315.17,550.6,315.65,542.09Z" fill="#dd7243"/><path id="thumb_l" d="M331.64,539.28c-2.91.29-6.15,4.6-10.24,5-4.35.47-6.9-2.07-6.49-6s4.36-4.47,10.76-5S334.55,539,331.64,539.28Z" fill="#ffca8a"/><path id="shirt_back" d="M145.17,547.26c-6.57-2.75-8.1-20.35-7.55-38.17s40.31-71.15,43.43-61.82S161.84,554.25,145.17,547.26Z" fill="#bca675"/><path id="torso_skin" d="M251.17,646H204.94l2.17-36.31s-6.56-15.94-8.56-19.94S160.71,570,154.49,564.41s-12.86-71.67-3.4-93.9,87.17-17.28,94.07-7.78,8,45.3,2.64,57.42-32,46.17-32,46.17l35.33,24.62Z" fill="#ffca8a"/><path id="torso_shadow" d="M227.55,558.52c-.25,5.25,13.58,17.21,13.58,17.21L219.3,625.52s-5.75-30.25-7.25-36.75c-10-3.5-22.5-20.75-22.5-20.75a54.06,54.06,0,0,1-20.5,0c30.5-10,34.25-36.75,31.25-56.25-4,15.75-29.25,15.75-31.25,0s5.5-46.37,46.38-46.37S236.8,550.52,234.3,554A12.77,12.77,0,0,1,227.55,558.52Z" fill="#dd7243"/><path id="shirt_torso" d="M234.3,554c2.75-5.5,4.92-21.83-4.25-22.25s-23.25,18.75-29,30.5c-3.5,3.75-28.43,12.59-39.07,6.94,42.84-2.73,51.15-31.94,46.49-61.27s-41.34-40-61.2-26.95c.63-14.64,10.86-34.72,11.2-41.05s10-23-12.11-43.67c23.23-15.33,61.44-18.66,100.77-4,0,0-9.33,28.67-11.33,36.67s20.7,49.25,21.42,67.83S245.3,536.27,234.3,554Z" fill="#ffe8ae"/><path id="shirt_abs_shadow" d="M237.69,429.27c-4.15,8.5,9.15,55.5,6.55,67.51s-49.4-22.62-60.85-25.95-4.66-86.13-4.66-86.13c22.56-6.21,65.11,3.57,68.4,7.57S241.84,420.77,237.69,429.27Z" fill="#bca675"/><path id="hair_tail11" d="M204.59,668.93c-3.5,11.63-21.85-1.61-28.55-7.79s5.34-30.52,22-36.39c0,0-14.07,15.32-5,32.26C196.24,662.89,206,664.18,204.59,668.93Z" fill="url(#linear-gradient)"/><path id="hair_tail10" d="M196,656.43c-9-1.17-13.3-28-3.1-42.41,0,0-2.61,20.63,14.61,29.19,6,3,14.7-1.64,16.28,3.06C227.64,657.77,205,657.59,196,656.43Z" fill="url(#linear-gradient-2)"/><path id="hair_tail9" d="M191.05,645.66c-2.1-.56-15.32-3.39-7,16.21-8.23-9.51-18.52-32.32-4.11-47.56,12-12.68-.75-28.65-.75-28.65,17.51,14.38,4.44,31.7,6.69,45.92C187.77,643.23,190.23,645.29,191.05,645.66Z" fill="url(#linear-gradient-3)"/><path id="hair_tail8" d="M187.71,667.37c-16.33-12.64-7.65-23.31-7-33.64.44-12.47-10.46-17.53-16.49-21.12,16.92,4.27,19.75,12,19.44,19S175.54,657.5,187.71,667.37Z" fill="url(#linear-gradient-4)"/><path id="hair_tail7" d="M200.58,633.39c-2.09,5-15,12.08-8.79,22.42-8.44-13.44.65-18.84,3.83-26.12,3.63-8.88.69-18.33-2.72-22.51C203,620.42,202.66,628.4,200.58,633.39Z" fill="url(#linear-gradient-5)"/><path id="hair_tail6" d="M194.27,658.16c-2.24,7.47-14.05-1-18.35-5s.75-18.08,11.47-21.85c0,0-2.42,15.35-.52,19.19S195.19,655.11,194.27,658.16Z" fill="url(#linear-gradient-6)"/><path id="hair_tail5" d="M199.13,670c-2.9-.63-.64-6.19-2.91-9.47s-15.84-8.22-15.84-8.22c7.89-7,21.64-4.78,22.93.51S206.21,671.54,199.13,670Z" fill="url(#linear-gradient-7)"/><path id="hair_tail4" d="M186.38,624.67c-3.54,9.6-2.55,12.2-2.08,12.82-1.36-1.31-10.17-9-12.12,9.34-2.21-10.69-.35-32.31,17-37.75,14.44-4.53,11.55-22,11.55-22C207.92,605.37,190.69,613,186.38,624.67Z" fill="url(#linear-gradient-8)"/><path id="hair_tail3" d="M192.15,635.79c-1.31-.36-9.69-2.25-4.49,10.23-5.17-6.07-11.55-20.58-2.33-30.16,7.66-8-.32-18.15-.32-18.15,11,9.21,2.64,20.11,4,29.13C190.09,634.27,191.64,635.56,192.15,635.79Z" fill="url(#linear-gradient-9)"/><path id="hair_tail2" d="M185.29,628.84c-5.13-4.64-12.28-16.39-5.44-25.67,5.69-7.72-2.33-15.58-2.33-15.58,10.52,6.67,4.55,17,6.73,24.6,1.79,6.26,3.27,7.2,3.74,7.34C186.82,619.36,179.4,618.69,185.29,628.84Z" fill="url(#linear-gradient-10)"/><path id="hair_tail" d="M191.93,653.37c-14-11.2-6.29-20.32-5.59-29.27.57-10.81-8.81-15.36-14-18.56,14.61,4,17,10.69,16.58,16.78S181.53,644.64,191.93,653.37Z" fill="url(#linear-gradient-11)"/><path id="hair_side4_l" d="M289.87,649.72c-7.75,1.44-20.86-6.32-21.92-8s9.49-24.14,16-31.07S299.34,648,289.87,649.72Z" fill="url(#linear-gradient-12)"/><path id="hair_side3_l" d="M286.39,665.59c-7.35,3-22.95-7.27-24.61-12.43-.62-1.92,22.61-35.7,31.28-39.6C303.49,608.88,299.61,660.17,286.39,665.59Z" fill="url(#linear-gradient-13)"/><path id="hair_side2_l" d="M295.21,644.76c-3,2.57-11.42.12-11.42.12s.28-18.61-10.26-33.5-14.31-44-14.31-44,16.78,14.11,27.9,29S299.94,640.66,295.21,644.76Z" fill="url(#linear-gradient-14)"/><path id="hair_side_l" d="M285.79,606.4c-.72,11,1.66,29,1.66,29s-7-5.31-8.05-8.55c-2.89-8.68-5.12-12.55-6.57-14.11,2.7-1.35,8.35-8.16,17.6-33C290.43,579.73,286.5,595.44,285.79,606.4Z" fill="url(#linear-gradient-15)"/><path id="face_shadow" d="M280.26,603.22a39.7,39.7,0,1,1-56.57-5.13c.88-8,3.71-17.37,9.51-21.09,9.64-6.2,22.32-10.1,24.82-8.4s17.24,19.14,17.24,19.14c3.33.31,7.69,2.78,8.44,3.4s-2.78,6.5-3.35,9.28A10.07,10.07,0,0,0,280.26,603.22Z" fill="#dd7243"/><path id="face" d="M279.5,601.86a36.55,36.55,0,1,1-52.17-3.43c.62-7.42,3-16.07,8.26-19.62,8.73-5.92,20.31-9.81,22.65-8.29s16.3,17.22,16.3,17.22a19.69,19.69,0,0,1,7.84,2.93c.71.55-2.41,6.05-2.87,8.62A8.76,8.76,0,0,0,279.5,601.86Z" fill="#ffca8a"/><path id="face_nose_shadow" d="M280.05,594.91c-1.3.58-9.54-4.81-8.58-5.4,2.36-1.43,10.94.15,10.91,1.16S281.34,594.33,280.05,594.91Z" fill="#dd7243"/><path id="face_toplip_shadow" d="M270.47,586s-5.28-1.94-7.92-1.73a11.79,11.79,0,0,1,5.59-.19,29.93,29.93,0,0,0,3-1.15s2.51,1.58,2.35,2.74S271.13,585.46,270.47,586Z" fill="#dd7243"/><path id="face_chin_shadow" d="M267.86,580.34c-.53.62-4.46.75-5.32-.32s.9-3.12,2-3.27S268.39,579.71,267.86,580.34Z" fill="#dd7243"/><path id="face_eye_shadow_r" d="M282.79,616.4c-1.27,1.25-13.6-.95-16.4-6.56-1-2.08,9.61-7.12,10.93-5.75S284.07,615.16,282.79,616.4Z" fill="#dd7243"/><path id="face_shadow_r" d="M289.58,632.22c-.21-.71-3.52-2.16-8.09-3.69a10.89,10.89,0,0,0-1.78-3.76c-1.63-1.85-9.89-5.8-25.28-9.74-4.87-7.14-10.46-14.89-13.78-18-6.83-6.52-26.89-15.82-26.89-15.82,4.38,3.18,8.21,6.22,11.6,9.22.47,2.4,1.4,6.93,2.79,12.46a12.78,12.78,0,0,0-2.33-3.23c-4.75-4.3-16.47-5.56-16.47-5.56s9.83,3.34,14.29,7.45,6.76,26,11.89,35c4.48,7.86,17.24,18.08,26.21,22.42,1.84,2.27,3.55,3.82,5,4.31,7.5,2.59,20-13.42,20.12-18.84C289,639,289.91,633.37,289.58,632.22Zm-23.08-7.8c-2.12-.45-4.15-.82-6-1.07l-.9-.6c-.72-1.08-1.49-2.25-2.31-3.47.52.24,1,.48,1.52.73A88.5,88.5,0,0,1,266.5,624.42Z" fill="#dd7243"/><path id="eye_white_r" d="M277.56,610.92c-1.57.72-6.76,0-6.54-.64s.54-3.3,5.52-4.34C278.23,607.17,279.87,609.87,277.56,610.92Z" fill="#f9dacf"/><path id="eye_shadow_r" d="M278.24,611.75s-6.61,0-8-.89l.7-1.61a16.23,16.23,0,0,0,6.43.59C278.68,609.48,278.24,611.75,278.24,611.75Z" fill="#d1bbb4"/><path id="eye_lash_r" d="M279.14,610.77s-.14.48,1.17.84c-2.55,1.24-7.56.5-9.58-.33a5.61,5.61,0,0,0-2.75-.23s3.71-4.71,8.71-5.13c-5.22,1.1-5.27,4.09-5.27,4.09a11,11,0,0,0,5.36.4c2.85-.4,3.34-1,3.42-1.18A4.51,4.51,0,0,1,279.14,610.77Z" fill="#1c1c1c"/><path id="eye_iris_r" d="M277.68,611.64a2,2,0,0,1-2.52-1.24,1.92,1.92,0,0,1,1-2.54,2,2,0,0,1,2.53,1.23A1.92,1.92,0,0,1,277.68,611.64Z" fill="#1c1c1c"/><path id="eye_reflection_r" d="M273.48,609.55c-1.51.13-2.74,0-2.75-.28s1.21-.6,2.72-.73,2.74,0,2.75.28S275,609.42,273.48,609.55Z" fill="#fcf7f5"/><path id="brow_r" d="M285.61,615.4c-.69.16-11.44,5.82-12.69,5.72s-6.58-2.66-6.58-2.66a28.49,28.49,0,0,0,5.58-.3c1.64-.33,10.26-5.27,11.6-5.16S286.31,615.25,285.61,615.4Z" fill="#1c1c1c"/><path id="hair_back" d="M280.88,666c-2.88,6.2-31.51,14-37.72,15.35s-36.38-10.77-39.11-11.5-6.15-10.14-7.2-13.37,1.61-43,2.77-47.54.92-6.44,9.88-7.53l7.37,14.38s8.91-7.31,13.44-8.35S283.76,659.75,280.88,666Z" fill="url(#linear-gradient-16)"/><path id="hair_side6_r" d="M259,624c-10-4.63-25.63-8.71-25.63-8.71,29.16,4.21,44.32,10.41,46.65,12.91s3.64,11.17,3.64,11.17S269,628.58,259,624Z" fill="url(#linear-gradient-17)"/><path id="hair_side5_r" d="M281.78,657.16c-7.54,6-35.13-29.75-25.63-30.12s33.33,6.37,33.94,8.3S288,652.26,281.78,657.16Z" fill="url(#linear-gradient-18)"/><path id="hair_side4_r" d="M257.09,641.12c-11.71-24.35-19.19-37.7-44.16-54.79,0,0,20.3,8.76,27.31,15.1s24.17,31.87,24.17,31.87Z" fill="url(#linear-gradient-19)"/><path id="hair_side3_r" d="M236.17,641.09c-5.36-8.85-8.24-30.71-12.82-34.7s-14.48-7.06-14.48-7.06,11.74.95,16.61,5.12,10.47,24.68,18,33.56,22.07,17.17,22.07,17.17l1,9C257.76,661.54,241.53,649.93,236.17,641.09Z" fill="url(#linear-gradient-20)"/><path id="hair_side2_r" d="M268.06,667c-9.19-2.89-31.62-49.46-22.33-47.46s41.94,26,41.94,28.08C287.66,653,275.63,669.36,268.06,667Z" fill="url(#linear-gradient-21)"/><path id="hair_side_r" d="M275.05,662.07c-5.86,2.19-30.89-13.43-38.61-30.32s-12.06-38.37-12.06-38.37,23.75,17.27,31.77,33.66,24.49,25.06,24.49,25.06S278.72,660.7,275.05,662.07Z" fill="url(#linear-gradient-22)"/><path id="hair_top" d="M241,679.14c-3.51-.17-40.59-13.7-37-13.22,16,2.13,26.06-6.67,26.06-6.67s22.29,11.24,36.29,11.52C266.33,670.77,244.5,679.3,241,679.14Z" fill="url(#linear-gradient-23)"/><path id="cheek_highlight_r" d="M252.77,605.22c-1.14-.23-.51-5.62.33-6.64s7.88,6.08,8.29,6.89S254.68,605.61,252.77,605.22Z" fill="#fce7ca"/><path id="neck_highlight_r" d="M174.2,573.73c-1.53-.8,7.64-1,9.44-.64s12.82,11.18,13.2,12.15S175.57,574.44,174.2,573.73Z" fill="#fce7ca"/><path id="arm_r" d="M260.29,522.81c-17-8.66-30.25-30.15-36.82-36.89s-25.62-9.7-32-16.71c6.5,18.28,6.69,29.8,5.75,42.92s-7.5,21.93-4.64,26.22-13.39,42-23.87,39.56c-11.56-2.65-22-17.52-24.37-22.09s1.4-26,3.36-29.62-3.34-16.29-1.3-25.23,9.78-36.92,12.64-41.91,7.57-30.22,11.92-35.34,10.49-12.89,23-7.39,32.19,25.73,40.7,37.83,40.85,47.59,44.59,51Z" fill="#ffca8a"/><path id="shoulder_shadow_r" d="M160.9,529.26c-.68,2.44-9.57,22.83-13.88,22.08-3.43-.6-3-7.49-2.26-12.88s4.44-12.76,2.91-19.38,1.46-6.54,4.05-6.38S161.58,526.83,160.9,529.26Z" fill="#dd7243"/><path id="forearm_shadow_r" d="M268.21,505.61c-2.49.2-3.68-5.66-6.79-9.92s-37.26-44.44-42.87-51.76S204,431.82,197.5,431.85s-11.69,8.79-21,4.46c-3.75-1.74,1.31-17.14,5.44-19.5s26.69,5.6,36.86,16.56,40.93,52.75,44.33,54.48,8.74,7,9.91,9.15S270.7,505.4,268.21,505.61Z" fill="#dd7243"/><path id="arm_shadow_r" d="M148.53,504.39c1.36-24.37,16.14-53.09,16.14-53.09.05,1.72,3.1,12.4,6.38,16.33C166.48,469.53,157.37,475.58,148.53,504.39Z" fill="#dd7243"/><path id="armpit_shadow_r" d="M187.23,525c-.7-3.42,2.7-6.38,5.63-10s3.07,6.8,3.07,10S188.15,529.54,187.23,525Z" fill="#dd7243"/><path id="shoulder_highlight_r" d="M176.1,576.08c-2.6-.51-11.88-3.37-10.94-4.18s13.47-6,14-4.32S177.66,576.39,176.1,576.08Z" fill="#fce7ca"/><path id="forearm_highlight_r" d="M220.07,480.68c-10.68-4.9-31-16-34.58-20.26-2.58-3.05,9.45-5,14.62-5.71S230.75,485.58,220.07,480.68Z" fill="#fce7ca"/><path id="index_r" d="M285.37,544.7c-2.64-2.36-2.18-8.27-.12-9.83,2.22-1.68,11.58,3.45,11.8,4.56C298.61,547.5,285.17,543.88,285.37,544.7Z" fill="#ffca8a"/><path id="middle_r" d="M301.64,537.44c-1.33,2.46-12,1.64-12.63.72s6-9.91,7.6-9.79C300.5,528.64,303,535,301.64,537.44Z" fill="#ffca8a"/><path id="ring_r" d="M306.79,527.38c-3.3,10.46-10.11,2.68-10,2.78-2.07-1.87,1.2-12,2.25-12.45S307.28,525.81,306.79,527.38Z" fill="#ffca8a"/><path id="pinky_r" d="M308,523.73c-1.61,3.55-6.8,1.9-8.64-.21s2.61-11.8,3.7-12.09S308.7,522.23,308,523.73Z" fill="#ffca8a"/><path id="thumb_r" d="M268.66,539.09c-3.46-1.21-7-16-6.32-16.89s14.27,5.58,15.07,7.57C279.31,534.5,272.11,540.3,268.66,539.09Z" fill="#ffca8a"/><path id="glove_r" d="M280.85,546.37c-2.85-1.78-21.25-17.09-25.3-26.79,3.41-1,15.74-13.07,15.88-19.1,0,0,4.61-3.39,8.24-1.67,1.4-1.12,7.21-1.09,12.16,1.26s14.93,13.84,14.83,18.86S289.65,544.15,280.85,546.37Z" fill="#203f4f"/><path id="glove_shadow_r" d="M306.67,518.44c-3.46,4.78-11.3.92-17.1-4.62s-16-9.79-14.34-12.78c3-5.33,13.93-2.57,18.93-1.55S310.12,513.65,306.67,518.44Z" fill="#1c1c1c"/></g></g></svg>