<svg xmlns="http://www.w3.org/2000/svg" xmlns:xlink="http://www.w3.org/1999/xlink" viewBox="0 0 366.46 681.46">
  <defs>
    <linearGradient id="linear-gradient" x1="179.43" y1="923.23" x2="211.6" y2="923.23" gradientTransform="matrix(0.99, -0.14, -0.14, -0.99, 127.08, 974.6)" gradientUnits="userSpaceOnUse">
      <stop offset="0" stop-color="#82422e"/>
      <stop offset="1" stop-color="#602a17"/>
    </linearGradient>
    <linearGradient id="linear-gradient-2" x1="252.59" y1="405.1" x2="284.76" y2="405.1" gradientTransform="matrix(0.89, 0.46, 0.46, -0.89, -224.5, 281.35)" xlink:href="#linear-gradient"/>
    <linearGradient id="linear-gradient-3" x1="174.66" y1="900.37" x2="195.15" y2="900.37" xlink:href="#linear-gradient"/>
    <linearGradient id="linear-gradient-4" x1="375.02" y1="1728.79" x2="423.25" y2="1728.79" gradientTransform="matrix(0.86, -0.51, -0.51, -0.86, 715.89, 1732.05)" xlink:href="#linear-gradient"/>
    <linearGradient id="linear-gradient-5" x1="648.81" y1="1600.77" x2="685.85" y2="1600.77" gradientTransform="matrix(0.63, -0.78, -0.78, -0.63, 1021.03, 1578.35)" xlink:href="#linear-gradient"/>
    <linearGradient id="linear-gradient-6" x1="178.7" y1="921.63" x2="199.84" y2="921.63" xlink:href="#linear-gradient"/>
    <linearGradient id="linear-gradient-7" x1="1367.22" y1="-12.27" x2="1386.88" y2="-12.27" gradientTransform="translate(693.49 1307.18) rotate(-110.8)" xlink:href="#linear-gradient"/>
    <linearGradient id="linear-gradient-8" x1="450.41" y1="1475.87" x2="468.18" y2="1475.87" gradientTransform="matrix(0.79, -0.61, -0.61, -0.79, 723.77, 1510.71)" xlink:href="#linear-gradient"/>
    <linearGradient id="linear-gradient-9" x1="193.4" y1="904.78" x2="206.38" y2="904.78" gradientTransform="matrix(0.99, -0.15, -0.15, -0.99, 125.98, 985.03)" xlink:href="#linear-gradient"/>
    <linearGradient id="linear-gradient-10" x1="161.68" y1="751.43" x2="172.94" y2="751.43" gradientTransform="matrix(1, -0.02, -0.02, -1, 30.5, 827.99)" xlink:href="#linear-gradient"/>
    <linearGradient id="linear-gradient-11" x1="368.76" y1="1436.19" x2="410.62" y2="1436.19" gradientTransform="matrix(0.85, -0.53, -0.53, -0.85, 612.29, 1480.2)" xlink:href="#linear-gradient"/>
    <linearGradient id="linear-gradient-12" x1="1788.4" y1="74.36" x2="1766.67" y2="52.63" gradientTransform="translate(1396.39 1436.07) rotate(-130.91)" xlink:href="#linear-gradient"/>
    <linearGradient id="linear-gradient-13" x1="1931.52" y1="213.23" x2="1907.92" y2="189.64" gradientTransform="translate(2049.27 826.18) rotate(-162.02)" xlink:href="#linear-gradient"/>
    <linearGradient id="linear-gradient-14" x1="1350.06" y1="-194.79" x2="1388.4" y2="-156.45" gradientTransform="translate(1093.95 1178.91) rotate(-118.55)" xlink:href="#linear-gradient"/>
    <linearGradient id="linear-gradient-15" x1="298.04" y1="386.33" x2="298.04" y2="430.88" gradientTransform="matrix(1, 0.07, 0.07, -1, -44.29, 462.58)" xlink:href="#linear-gradient"/>
    <linearGradient id="linear-gradient-16" x1="196.03" y1="911.75" x2="227.85" y2="911.75" xlink:href="#linear-gradient"/>
    <linearGradient id="linear-gradient-17" x1="253.58" y1="582.39" x2="271.41" y2="600.23" gradientTransform="matrix(1, 0, 0, -1, -0.62, 645.84)" xlink:href="#linear-gradient"/>
    <linearGradient id="linear-gradient-18" x1="284.51" y1="612.12" x2="262.78" y2="590.39" gradientTransform="matrix(1, 0, 0, -1, -0.62, 645.84)" xlink:href="#linear-gradient"/>
    <linearGradient id="linear-gradient-19" x1="254.39" y1="590.75" x2="230.04" y2="566.4" gradientTransform="matrix(1, 0, 0, -1, -0.62, 645.84)" xlink:href="#linear-gradient"/>
    <linearGradient id="linear-gradient-20" x1="222.5" y1="578.8" x2="259.17" y2="615.46" gradientTransform="matrix(1, 0, 0, -1, -0.62, 645.84)" xlink:href="#linear-gradient"/>
    <linearGradient id="linear-gradient-21" x1="273.79" y1="617.35" x2="250.11" y2="593.67" gradientTransform="matrix(1, 0, 0, -1, -0.62, 645.84)" xlink:href="#linear-gradient"/>
    <linearGradient id="linear-gradient-22" x1="240.35" y1="586.95" x2="278.69" y2="625.29" gradientTransform="matrix(1, 0, 0, -1, -0.62, 645.84)" xlink:href="#linear-gradient"/>
    <linearGradient id="linear-gradient-23" x1="210.24" y1="937.81" x2="272.91" y2="937.81" xlink:href="#linear-gradient"/>
  </defs>
  <title>left1</title>
  <g id="Layer_2" data-name="Layer 2">
    <g id="Layer_1-2" data-name="Layer 1">
      <g id="left1">
        <path id="pelvis" d="M255.44,296.39c-2.12-5.55,2.18-12.15-39-20.59-19.1-3.91-24.64-4.31-37.37-7s-32.43,11.12-41,35,42.16,72.49,62.86,76.79,57.78-50.32,59.54-53.53S257.56,302,255.44,296.39Z" fill="#4c3f26"/>
        <path id="pants_leg_l" data-name="pants leg l" d="M366.44,472.72c-1-10.8,1.85-21.5-5.15-30s-47.36-73-60.36-90.54-44.28-57.67-60-31.4c-10.71,17.9-27.51,43.89-24,56.9s29.78,50,50.78,58.54,40.73,30.46,42.23,35.46c-12.14,6-15.74,13.37-20.81,35.87-2,8.76,1.78,37.16,8.15,68.17,5.72,27.63,2.72,37.43,2.29,38.59l26.72,4.41S367.44,483.52,366.44,472.72Z" fill="#4c3f26"/>
        <path id="pants_thigh_highlight_l" data-name="pants thigh highlight l" d="M337.92,442.45c-2.15,4.2-1.43,8.38-.53,12.29s10.75,2.19,17.13-.54S343.36,431.83,337.92,442.45Z" fill="#aa8b4d"/>
        <path id="shoe_rim_l" data-name="shoe rim l" d="M295.93,574.45l-9.85,27.09,47.55,11.85,5-31.64Z" fill="#1c1c1c"/>
        <path id="shoe_l" data-name="shoe l" d="M364.8,657.83c-3.62-4.94-24.5-9.53-30.38-10.77-.37-8.49-6.36-30.15-6.1-31.07L335,592.45l-38.39.13s.18,16.22-1.88,23-8.45,13.19-11.85,22.11S278.19,668,278.19,668l27,4.18s1.19-5.55,8.16-4.81,10.89,12.62,14.52,13.18,37,.91,37,.91S368.42,662.78,364.8,657.83Z" fill="#1c1c1c"/>
        <path id="pants_leg_r" data-name="pants leg r" d="M156.5,303.61c-18.81-3.37-23.94,52.25-27.83,85s16.13,72.54,2.29,79.95-42.51,32-43.68,38.42-10.86,37.08-24.69,49.23-50.72,67.66-50.72,67.66l33.82,3.5c9.28-21.66,94.57-88.25,110.13-97.7s21.57-23.91,26.83-35.93,31.15-92.29,35.23-119S171.32,306.28,156.5,303.61Z" fill="#aa8b4d"/>
        <path id="pants_calf_shadow_r" data-name="pants calf shadow r" d="M100,515.3C91.31,504.45,59.49,566.84,65,579c4.1,9,26.79-6.28,38.07-11.65S108.69,526.18,100,515.3Z" fill="#4c3f26"/>
        <path id="pants_shin_shadow_r" data-name="pants shin shadow r" d="M141.73,520.84c.18,4.71,2.86,8,5.57,11s10.44-3.39,14.7-8.91S141.27,508.94,141.73,520.84Z" fill="#4c3f26"/>
        <path id="pants_thigh_shadow_r" data-name="pants thigh shadow r" d="M144.14,315.33c-3.34,8.14-6.57,25.21-6.86,30.46s22.88-34.08,25.62-36.34S147.79,306.45,144.14,315.33Z" fill="#4c3f26"/>
        <path id="shoe_r" data-name="shoe r" d="M65.34,653.24c-2.25-2.25-12.75-7.79-19.75-7.79.5-9.75,19.75-31,19.75-31l-38.5-15.21s-20,31.5-22.25,36S0,650.45,0,659.2L17.09,681H70.34S67.59,655.45,65.34,653.24Z" fill="#1c1c1c"/>
        <path id="shoe_rim_r" data-name="shoe rim r" d="M75,598c-13.3,4.42-25.58-12.31-28.31-23.42C45.44,569.55,26.93,588,18.59,598c1,15.66,27.67,34,43.59,31,0,0,13.41-25,15.08-27.67S75,598,75,598Z" fill="#1c1c1c"/>
        <path id="shoe_highlight_r" data-name="shoe highlight r" d="M45.17,647.32c-6.66-1-28.75,4.64-26.58,10,1.76,4.33,40.25,0,44.25-1.33S51.84,648.32,45.17,647.32Z" fill="#203f4f"/>
        <path id="arm_shadow_l" data-name="arm shadow l" d="M318.43,173.45c-1.62-1.27-17.72-16.93-20.79-17s-17.59,25.67-25.09,31.61-14.37,3.59-23.3,13c-3.46-.5-4.42-21.83-3.64-29.94s-7.5-31.56-10.54-36.73-13.06-4.87-21.72-4.53c-11.65.47-4.38,50.3.94,76.57s32.45,37.83,33.89,39.92,20.39-5.15,26.78-12.22,17.59-22.28,21.17-29.8S320,174.7,318.43,173.45Z" fill="#dd7243"/>
        <path id="arm_l" data-name="arm l" d="M297.64,156.45c-2.85,2.43-19.51,31.5-23.47,33.66s-14.12,6.26-18.2,13.55c6.41-4.7,20.74.56,27.14-3.12s24.48-36.92,24.48-36.92S300.49,154,297.64,156.45Z" fill="#ffca8a"/>
        <path id="glove_shadow_l" data-name="glove shadow l" d="M316.14,127.14s-12.23,11-14.18,13.93-5.37,14.13-5.37,14.13c-5.57,11.45,11.71,24.71,16.58,23.94s20.52-13.22,26.65-19.9S316.14,127.14,316.14,127.14Z" fill="#1c1c1c"/>
        <path id="index_l" data-name="index l" d="M328,126.83c-1-1.6-6.48-5.59-9-4.22s-3.52,6.76-3.52,6.76-2.59,12.41.14,14.12,6.15-1.71,8.09-2.87S329,128.45,328,126.83Z" fill="#ffca8a"/>
        <path id="middle_l" data-name="middle l" d="M337.48,131.45c-.57-1.6-4.66-6.17-7.19-5.45s-4.4,5.31-4.4,5.31-4.65,10.47-2.57,12.5,5.76-.34,7.7-1S338.05,133.11,337.48,131.45Z" fill="#ffca8a"/>
        <path id="ring_l" data-name="ring l" d="M342.6,139.33c-.57-1.6-4.65-6.17-7.19-5.45s-4.4,5.31-4.4,5.31-4.65,10.47-2.56,12.49,5.76-.33,7.69-1S343.17,140.93,342.6,139.33Z" fill="#ffca8a"/>
        <path id="pinky_l" data-name="pinky l" d="M342.32,142.26c-2.11-.63-5.47,1.77-5.47,1.77s-8,5.31-7.4,7.66,4.21,2.34,5.87,2.75,9.32-3.74,9.63-5.13S344.43,142.88,342.32,142.26Z" fill="#ffca8a"/>
        <path id="palm_shadow_l" data-name="palm shadow l" d="M315.65,139.36s5.27,10.5,3.86,12.8c-.09,4.58,7.68,6.75,10,6.1s5.22-1.33,7.05-4C344.37,143.15,315.17,130.85,315.65,139.36Z" fill="#dd7243"/>
        <path id="thumb_l" data-name="thumb l" d="M331.64,142.17c-2.91-.29-6.15-4.6-10.24-5-4.35-.47-6.9,2.07-6.49,6s4.36,4.47,10.76,5S334.55,142.45,331.64,142.17Z" fill="#ffca8a"/>
        <path id="shirt_back" data-name="shirt back" d="M145.17,134.19c-6.57,2.75-8.1,20.35-7.55,38.17s40.31,71.15,43.43,61.82S161.84,127.2,145.17,134.19Z" fill="#bca675"/>
        <path id="torso_skin" data-name="torso skin" d="M251.17,35.45H204.94l2.17,36.31s-6.56,15.94-8.56,19.94S160.71,111.45,154.49,117s-12.86,71.67-3.4,93.9,87.17,17.28,94.07,7.78,8-45.3,2.64-57.42-32-46.17-32-46.17l35.33-24.62Z" fill="#ffca8a"/>
        <path id="torso_shadow" data-name="torso shadow" d="M227.55,122.93c-.25-5.25,13.58-17.21,13.58-17.21L219.3,55.93s-5.75,30.25-7.25,36.75c-10,3.5-22.5,20.75-22.5,20.75a54.37,54.37,0,0,0-20.5,0c30.5,10,34.25,36.75,31.25,56.25-4-15.75-29.25-15.75-31.25,0s5.5,46.37,46.38,46.37,21.37-85.12,18.87-88.6A12.84,12.84,0,0,0,227.55,122.93Z" fill="#dd7243"/>
        <path id="shirt_torso" data-name="shirt torso" d="M234.3,127.45c2.75,5.5,4.92,21.83-4.25,22.25s-23.25-18.75-29-30.5c-3.5-3.75-28.43-12.59-39.07-6.94,42.84,2.73,51.15,31.94,46.49,61.27s-41.34,40-61.2,26.95c.63,14.64,10.86,34.72,11.2,41.05s10,23-12.11,43.67c23.23,15.33,61.44,18.66,100.77,4,0,0-9.33-28.67-11.33-36.67s20.7-49.25,21.42-67.83S245.3,145.18,234.3,127.45Z" fill="#ffe8ae"/>
        <path id="shirt_abs_shadow" data-name="shirt abs shadow" d="M237.69,252.18c-4.15-8.5,9.15-55.5,6.55-67.51s-49.4,22.62-60.85,26-4.66,86.13-4.66,86.13c22.56,6.21,65.11-3.57,68.4-7.57S241.84,260.68,237.69,252.18Z" fill="#bca675"/>
        <path id="hair_tail11" data-name="hair tail11" d="M204.59,12.52C201.09.89,182.74,14.13,176,20.31s5.34,30.52,22,36.39c0,0-14.07-15.32-5-32.26C196.24,18.56,206,17.27,204.59,12.52Z" fill="url(#linear-gradient)"/>
        <path id="hair_tail10" data-name="hair tail10" d="M196,25c-9,1.17-13.3,28-3.1,42.41,0,0-2.61-20.63,14.61-29.19,6-3,14.7,1.64,16.28-3.06C227.64,23.68,205,23.86,196,25Z" fill="url(#linear-gradient-2)"/>
        <path id="hair_tail9" data-name="hair tail9" d="M191.05,35.79c-2.1.56-15.32,3.39-7-16.21-8.23,9.51-18.52,32.32-4.11,47.56,12,12.68-.75,28.65-.75,28.65,17.51-14.38,4.44-31.7,6.69-45.92C187.77,38.22,190.23,36.16,191.05,35.79Z" fill="url(#linear-gradient-3)"/>
        <path id="hair_tail8" data-name="hair tail8" d="M187.71,14.08c-16.33,12.64-7.65,23.31-7,33.64.44,12.47-10.46,17.53-16.49,21.12,16.92-4.27,19.75-12,19.44-19S175.54,24,187.71,14.08Z" fill="url(#linear-gradient-4)"/>
        <path id="hair_tail7" data-name="hair tail7" d="M200.58,48.06c-2.09-5-15-12.08-8.79-22.42-8.44,13.44.65,18.84,3.83,26.12,3.63,8.88.69,18.33-2.72,22.51C203,61,202.66,53.05,200.58,48.06Z" fill="url(#linear-gradient-5)"/>
        <path id="hair_tail6" data-name="hair tail6" d="M194.27,23.29c-2.24-7.47-14.05,1-18.35,5s.75,18.08,11.47,21.85c0,0-2.42-15.35-.52-19.19S195.19,26.34,194.27,23.29Z" fill="url(#linear-gradient-6)"/>
        <path id="hair_tail5" data-name="hair tail5" d="M199.13,11.45c-2.9.63-.64,6.19-2.91,9.47s-15.84,8.22-15.84,8.22c7.89,7,21.64,4.78,22.93-.51S206.21,9.91,199.13,11.45Z" fill="url(#linear-gradient-7)"/>
        <path id="hair_tail4" data-name="hair tail4" d="M186.38,56.78c-3.54-9.6-2.55-12.2-2.08-12.82-1.36,1.31-10.17,9-12.12-9.34-2.21,10.69-.35,32.31,17,37.75,14.44,4.53,11.55,22,11.55,22C207.92,76.08,190.69,68.45,186.38,56.78Z" fill="url(#linear-gradient-8)"/>
        <path id="hair_tail3" data-name="hair tail3" d="M192.15,45.66c-1.31.36-9.69,2.25-4.49-10.23-5.17,6.07-11.55,20.58-2.33,30.16,7.66,8-.32,18.15-.32,18.15,11-9.21,2.64-20.11,4-29.13C190.09,47.18,191.64,45.89,192.15,45.66Z" fill="url(#linear-gradient-9)"/>
        <path id="hair_tail2" data-name="hair tail2" d="M185.29,52.61C180.16,57.25,173,69,179.85,78.28c5.69,7.72-2.33,15.58-2.33,15.58,10.52-6.67,4.55-17,6.73-24.6,1.79-6.26,3.27-7.2,3.74-7.34C186.82,62.09,179.4,62.76,185.29,52.61Z" fill="url(#linear-gradient-10)"/>
        <path id="hair_tail" data-name="hair tail" d="M191.93,28.08c-14,11.2-6.29,20.32-5.59,29.27.57,10.81-8.81,15.36-14,18.56,14.61-4,17-10.69,16.58-16.78S181.53,36.81,191.93,28.08Z" fill="url(#linear-gradient-11)"/>
        <path id="hair_side4_l" data-name="hair side4 l" d="M289.87,31.73c-7.75-1.44-20.86,6.32-21.92,8s9.49,24.14,16,31.07S299.34,33.45,289.87,31.73Z" fill="url(#linear-gradient-12)"/>
        <path id="hair_side3_l" data-name="hair side3 l" d="M286.39,15.86c-7.35-3-22.95,7.27-24.61,12.43-.62,1.92,22.61,35.7,31.28,39.6C303.49,72.57,299.61,21.28,286.39,15.86Z" fill="url(#linear-gradient-13)"/>
        <path id="hair_side2_l" data-name="hair side2 l" d="M295.21,36.69c-3-2.57-11.42-.12-11.42-.12s.28,18.61-10.26,33.5-14.31,44-14.31,44,16.78-14.11,27.9-29S299.94,40.79,295.21,36.69Z" fill="url(#linear-gradient-14)"/>
        <path id="hair_side_l" data-name="hair side l" d="M285.79,75.05c-.72-11,1.66-29,1.66-29s-7,5.31-8.05,8.55c-2.89,8.68-5.12,12.55-6.57,14.11,2.7,1.35,8.35,8.16,17.6,33C290.43,101.72,286.5,86,285.79,75.05Z" fill="url(#linear-gradient-15)"/>
        <path id="face_shadow" data-name="face shadow" d="M280.26,78.23a39.7,39.7,0,1,0-56.57,5.13c.88,8,3.71,17.37,9.51,21.09,9.64,6.2,22.32,10.1,24.82,8.4s17.24-19.14,17.24-19.14c3.33-.31,7.69-2.78,8.44-3.4s-2.78-6.5-3.35-9.28A10.09,10.09,0,0,1,280.26,78.23Z" fill="#dd7243"/>
        <path id="face" d="M279.5,79.59A36.55,36.55,0,1,0,227.33,83c.62,7.42,3,16.07,8.26,19.62,8.73,5.92,20.31,9.81,22.65,8.29s16.3-17.22,16.3-17.22a19.6,19.6,0,0,0,7.84-2.93c.71-.55-2.41-6-2.87-8.62A8.85,8.85,0,0,1,279.5,79.59Z" fill="#ffca8a"/>
        <path id="face_nose_shadow" data-name="face nose shadow" d="M280.05,86.54c-1.3-.58-9.54,4.81-8.58,5.4,2.36,1.43,10.94-.15,10.91-1.16S281.34,87.12,280.05,86.54Z" fill="#dd7243"/>
        <path id="face_toplip_shadow" data-name="face toplip shadow" d="M270.47,95.45s-5.28,1.94-7.92,1.73a11.62,11.62,0,0,0,5.59.19,32,32,0,0,1,3,1.15s2.51-1.58,2.35-2.74S271.13,96,270.47,95.45Z" fill="#dd7243"/>
        <path id="face_chin_shadow" data-name="face chin shadow" d="M267.86,101.11c-.53-.62-4.46-.75-5.32.32s.9,3.12,2,3.27S268.39,101.74,267.86,101.11Z" fill="#dd7243"/>
        <path id="face_eye_shadow_r" data-name="face eye shadow r" d="M282.79,65.05c-1.27-1.25-13.6,1-16.4,6.56-1,2.08,9.61,7.12,10.93,5.75S284.07,66.29,282.79,65.05Z" fill="#dd7243"/>
        <path id="face_shadow_r" data-name="face shadow r" d="M289.58,49.23c-.21.71-3.52,2.16-8.09,3.69a10.85,10.85,0,0,1-1.78,3.76c-1.63,1.85-9.89,5.8-25.28,9.74-4.87,7.14-10.46,14.89-13.78,18-6.83,6.52-26.89,15.82-26.89,15.82C218.14,97.06,222,94,225.36,91c.47-2.4,1.4-6.93,2.79-12.46a12.44,12.44,0,0,1-2.33,3.23c-4.75,4.3-16.47,5.56-16.47,5.56s9.83-3.34,14.29-7.45,6.76-26,11.89-35C240,37,252.77,26.82,261.74,22.48c1.84-2.27,3.55-3.82,5-4.31,7.5-2.59,20,13.42,20.12,18.84C289,42.45,289.91,48.08,289.58,49.23ZM266.5,57c-2.12.45-4.15.82-6,1.07l-.9.6c-.72,1.08-1.49,2.25-2.31,3.47l1.52-.73A87.32,87.32,0,0,0,266.5,57Z" fill="#dd7243"/>
        <path id="eye_white_r" data-name="eye white r" d="M277.56,70.53c-1.57-.72-6.76,0-6.54.64s.54,3.3,5.52,4.34C278.23,74.28,279.87,71.58,277.56,70.53Z" fill="#f9dacf"/>
        <path id="eye_shadow_r" data-name="eye shadow r" d="M278.24,69.7s-6.61,0-8,.89l.7,1.61a16.44,16.44,0,0,1,6.43-.59C278.68,72,278.24,69.7,278.24,69.7Z" fill="#d1bbb4"/>
        <path id="eye_lash_r" data-name="eye lash r" d="M279.14,70.68s-.14-.48,1.17-.84c-2.55-1.24-7.56-.5-9.58.33a5.47,5.47,0,0,1-2.75.23s3.71,4.71,8.71,5.13c-5.22-1.1-5.27-4.09-5.27-4.09a11.08,11.08,0,0,1,5.36-.4c2.85.4,3.34,1,3.42,1.18A4.52,4.52,0,0,0,279.14,70.68Z" fill="#1c1c1c"/>
        <path id="eye_iris_r" data-name="eye iris r" d="M277.68,69.81a2,2,0,0,0-2.52,1.24,1.93,1.93,0,0,0,1,2.54h0a2,2,0,0,0,2.53-1.23,1.92,1.92,0,0,0-1-2.53Z" fill="#1c1c1c"/>
        <path id="eye_reflection_r" data-name="eye reflection r" d="M273.48,71.9c-1.51-.13-2.74,0-2.75.28s1.21.6,2.72.73,2.74,0,2.75-.28S275,72,273.48,71.9Z" fill="#fcf7f5"/>
        <path id="brow_r" data-name="brow r" d="M285.61,66.05c-.69-.16-11.44-5.82-12.69-5.72S266.34,63,266.34,63a28.94,28.94,0,0,1,5.58.3c1.64.33,10.26,5.27,11.6,5.16S286.31,66.2,285.61,66.05Z" fill="#1c1c1c"/>
        <path id="hair_back" data-name="hair back" d="M280.88,15.45C278,9.25,249.37,1.45,243.16.1s-36.38,10.77-39.11,11.5S197.9,21.74,196.85,25s1.61,43,2.77,47.54S200.54,79,209.5,80l7.37-14.38S225.78,73,230.31,74,283.76,21.7,280.88,15.45Z" fill="url(#linear-gradient-16)"/>
        <path id="hair_side6_r" data-name="hair side6 r" d="M259,57.45c-10,4.63-25.63,8.71-25.63,8.71C262.53,62,277.69,55.75,280,53.25s3.64-11.17,3.64-11.17S269,52.87,259,57.45Z" fill="url(#linear-gradient-17)"/>
        <path id="hair_side5_r" data-name="hair side5 r" d="M281.78,24.29c-7.54-6-35.13,29.75-25.63,30.12s33.33-6.37,33.94-8.3S288,29.19,281.78,24.29Z" fill="url(#linear-gradient-18)"/>
        <path id="hair_side4_r" data-name="hair side4 r" d="M257.09,40.33C245.38,64.68,237.9,78,212.93,95.12c0,0,20.3-8.76,27.31-15.1s24.17-31.87,24.17-31.87Z" fill="url(#linear-gradient-19)"/>
        <path id="hair_side3_r" data-name="hair side3 r" d="M236.17,40.36c-5.36,8.85-8.24,30.71-12.82,34.7s-14.48,7.06-14.48,7.06,11.74-1,16.61-5.12,10.47-24.68,18-33.56,22.07-17.17,22.07-17.17l1-9C257.76,19.91,241.53,31.52,236.17,40.36Z" fill="url(#linear-gradient-20)"/>
        <path id="hair_side2_r" data-name="hair side2 r" d="M268.06,14.45c-9.19,2.89-31.62,49.46-22.33,47.46s41.94-26,41.94-28.08C287.66,28.45,275.63,12.09,268.06,14.45Z" fill="url(#linear-gradient-21)"/>
        <path id="hair_side_r" data-name="hair side r" d="M275.05,19.38c-5.86-2.19-30.89,13.43-38.61,30.32s-12.06,38.37-12.06,38.37,23.75-17.27,31.77-33.66,24.49-25.06,24.49-25.06S278.72,20.75,275.05,19.38Z" fill="url(#linear-gradient-22)"/>
        <path id="hair_top" data-name="hair top" d="M241,2.31c-3.51.17-40.59,13.7-37,13.22,16-2.13,26.06,6.67,26.06,6.67S252.35,11,266.35,10.68C266.33,10.68,244.5,2.15,241,2.31Z" fill="url(#linear-gradient-23)"/>
        <path id="cheek_highlight_r" data-name="cheek highlight r" d="M252.77,76.23c-1.14.23-.51,5.62.33,6.64S261,76.79,261.39,76,254.68,75.84,252.77,76.23Z" fill="#fce7ca"/>
        <path id="neck_highlight_r" data-name="neck highlight r" d="M174.2,107.72c-1.53.8,7.64,1,9.44.64s12.82-11.18,13.2-12.15S175.57,107,174.2,107.72Z" fill="#fce7ca"/>
        <path id="arm_r" data-name="arm r" d="M260.29,158.64c-17,8.66-30.25,30.15-36.82,36.89s-25.62,9.7-32,16.71c6.5-18.28,6.69-29.8,5.75-42.92s-7.5-21.93-4.64-26.22-13.39-42-23.87-39.56c-11.56,2.65-22,17.52-24.37,22.09s1.4,26,3.36,29.62-3.34,16.29-1.3,25.23,9.78,36.92,12.64,41.91,7.57,30.22,11.92,35.34,10.49,12.89,23,7.39,32.19-25.73,40.7-37.83,40.85-47.59,44.59-51Z" fill="#ffca8a"/>
        <path id="shoulder_shadow_r" data-name="shoulder shadow r" d="M160.9,152.19c-.68-2.44-9.57-22.83-13.88-22.08-3.43.6-3,7.49-2.26,12.88s4.44,12.76,2.91,19.38,1.46,6.54,4.05,6.38S161.58,154.62,160.9,152.19Z" fill="#dd7243"/>
        <path id="forearm_shadow_r" data-name="forearm shadow r" d="M268.21,175.84c-2.49-.2-3.68,5.66-6.79,9.92s-37.26,44.44-42.87,51.76S204,249.63,197.5,249.6s-11.69-8.79-21-4.46c-3.75,1.74,1.31,17.14,5.44,19.5s26.69-5.6,36.86-16.56,40.93-52.75,44.33-54.48,8.74-7,9.91-9.15S270.7,176.05,268.21,175.84Z" fill="#dd7243"/>
        <path id="arm_shadow_r" data-name="arm shadow r" d="M148.53,177.06c1.36,24.37,16.14,53.09,16.14,53.09.05-1.72,3.1-12.4,6.38-16.33C166.48,211.92,157.37,205.87,148.53,177.06Z" fill="#dd7243"/>
        <path id="armpit_shadow_r" data-name="armpit shadow r" d="M187.23,156.45c-.7,3.42,2.7,6.38,5.63,10s3.07-6.8,3.07-10S188.15,151.91,187.23,156.45Z" fill="#dd7243"/>
        <path id="shoulder_highlight_r" data-name="shoulder highlight r" d="M176.1,105.37c-2.6.51-11.88,3.37-10.94,4.18s13.47,6,14,4.32S177.66,105.06,176.1,105.37Z" fill="#fce7ca"/>
        <path id="forearm_highlight_r" data-name="forearm highlight r" d="M220.07,200.77c-10.68,4.9-31,16-34.58,20.26-2.58,3.05,9.45,5,14.62,5.71S230.75,195.87,220.07,200.77Z" fill="#fce7ca"/>
        <path id="index_r" data-name="index r" d="M285.37,136.75c-2.64,2.36-2.18,8.27-.12,9.83,2.22,1.68,11.58-3.45,11.8-4.56C298.61,134,285.17,137.57,285.37,136.75Z" fill="#ffca8a"/>
        <path id="middle_r" data-name="middle r" d="M301.64,144c-1.33-2.46-12-1.64-12.63-.72s6,9.91,7.6,9.79C300.5,152.81,303,146.45,301.64,144Z" fill="#ffca8a"/>
        <path id="ring_r" data-name="ring r" d="M306.79,154.07c-3.3-10.46-10.11-2.68-10-2.78-2.07,1.87,1.2,12,2.25,12.45S307.28,155.64,306.79,154.07Z" fill="#ffca8a"/>
        <path id="pinky_r" data-name="pinky r" d="M308,157.72c-1.61-3.55-6.8-1.9-8.64.21s2.61,11.8,3.7,12.09S308.7,159.22,308,157.72Z" fill="#ffca8a"/>
        <path id="thumb_r" data-name="thumb r" d="M268.66,142.36c-3.46,1.21-7,16-6.32,16.89s14.27-5.58,15.07-7.57C279.31,147,272.11,141.15,268.66,142.36Z" fill="#ffca8a"/>
        <path id="glove_r" data-name="glove r" d="M280.85,135.08c-2.85,1.78-21.25,17.09-25.3,26.79,3.41,1,15.74,13.07,15.88,19.1,0,0,4.61,3.39,8.24,1.67,1.4,1.12,7.21,1.09,12.16-1.26s14.93-13.84,14.83-18.86S289.65,137.3,280.85,135.08Z" fill="#203f4f"/>
        <path id="glove_shadow_r" data-name="glove shadow r" d="M306.67,163c-3.46-4.78-11.3-.92-17.1,4.62s-16,9.79-14.34,12.78c3,5.33,13.93,2.57,18.93,1.55S310.12,167.8,306.67,163Z" fill="#1c1c1c"/>
      </g>
    </g>
  </g>
</svg>
