<svg xmlns="http://www.w3.org/2000/svg" xmlns:xlink="http://www.w3.org/1999/xlink" viewBox="0 0 548.77 626.07"><defs><linearGradient id="linear-gradient" x1="-3132.24" y1="-4508.23" x2="-3093.9" y2="-4546.57" gradientTransform="matrix(0.6, -0.65, 0.74, 0.68, 5596.75, 1100.7)" gradientUnits="userSpaceOnUse"><stop offset="0" stop-color="#82422e"/><stop offset="1" stop-color="#602a17"/></linearGradient><linearGradient id="linear-gradient-2" x1="991.69" y1="-1768.26" x2="991.69" y2="-1812.8" gradientTransform="matrix(0.83, -0.61, 0.36, 0.85, 238.81, 2207.12)" xlink:href="#linear-gradient"/><linearGradient id="linear-gradient-3" x1="282.84" y1="495.17" x2="300.67" y2="477.34" gradientTransform="matrix(0.98, 0.18, -0.18, 0.98, 191.99, -457.83)" xlink:href="#linear-gradient"/><linearGradient id="linear-gradient-4" x1="313.78" y1="465.45" x2="292.05" y2="487.18" gradientTransform="matrix(0.98, 0.18, -0.18, 0.98, 191.99, -457.83)" xlink:href="#linear-gradient"/><linearGradient id="linear-gradient-5" x1="82.16" y1="1034.43" x2="116.94" y2="1034.43" gradientTransform="translate(555.35 -983.98) rotate(17.78)" xlink:href="#linear-gradient"/><linearGradient id="linear-gradient-6" x1="5828.02" y1="2922.86" x2="5803.68" y2="2947.2" gradientTransform="matrix(-0.45, -0.69, -0.75, 0.49, 5180.5, 2635.32)" xlink:href="#linear-gradient"/><linearGradient id="linear-gradient-7" x1="4917.51" y1="3541.02" x2="4954.17" y2="3504.36" gradientTransform="matrix(-0.27, -0.85, -0.85, 0.27, 4679.51, 3309.25)" xlink:href="#linear-gradient"/><linearGradient id="linear-gradient-8" x1="303.07" y1="460.24" x2="279.4" y2="483.91" gradientTransform="matrix(0.98, 0.18, -0.18, 0.98, 191.99, -457.83)" xlink:href="#linear-gradient"/><linearGradient id="linear-gradient-9" x1="269.57" y1="490.58" x2="307.91" y2="452.24" gradientTransform="matrix(0.98, 0.18, -0.18, 0.98, 191.99, -457.83)" xlink:href="#linear-gradient"/><linearGradient id="linear-gradient-10" x1="-1132.06" y1="903.04" x2="-1069.42" y2="903.04" gradientTransform="matrix(0.68, 0.17, -0.24, 0.97, 1348.2, -673.96)" xlink:href="#linear-gradient"/><linearGradient id="linear-gradient-11" x1="104.29" y1="-179.19" x2="136.45" y2="-179.19" gradientTransform="translate(120.58 -28.6) rotate(68.78)" xlink:href="#linear-gradient"/><linearGradient id="linear-gradient-12" x1="224.36" y1="-309.4" x2="256.52" y2="-309.4" gradientTransform="translate(-36.47 184.68) rotate(29.66)" xlink:href="#linear-gradient"/><linearGradient id="linear-gradient-13" x1="387.5" y1="-321.24" x2="407.99" y2="-321.24" gradientTransform="translate(-82.06 373.81) rotate(-0.89)" xlink:href="#linear-gradient"/><linearGradient id="linear-gradient-14" x1="3737.3" y1="614.08" x2="3785.53" y2="614.08" gradientTransform="translate(3187.2 -2461.25) rotate(129.67)" xlink:href="#linear-gradient"/><linearGradient id="linear-gradient-15" x1="468.1" y1="-300.46" x2="505.15" y2="-300.46" gradientTransform="translate(-77.6 449.11) rotate(-14.85)" xlink:href="#linear-gradient"/><linearGradient id="linear-gradient-16" x1="291.05" y1="-339.16" x2="312.19" y2="-339.16" gradientTransform="translate(-76.93 253.8) rotate(17.54)" xlink:href="#linear-gradient"/><linearGradient id="linear-gradient-17" x1="702.84" y1="-26.27" x2="722.5" y2="-26.27" gradientTransform="matrix(0.09, -1, -1, -0.09, 237.78, 722.16)" xlink:href="#linear-gradient"/><linearGradient id="linear-gradient-18" x1="390.91" y1="-297.93" x2="408.68" y2="-297.93" gradientTransform="translate(-88.53 348.93) rotate(-1.27)" xlink:href="#linear-gradient"/><linearGradient id="linear-gradient-19" x1="239.2" y1="-288.36" x2="252.19" y2="-288.36" gradientTransform="translate(-53.48 158.46) rotate(31.83)" xlink:href="#linear-gradient"/><linearGradient id="linear-gradient-20" x1="549.7" y1="-229.51" x2="560.96" y2="-229.51" gradientTransform="translate(-29.03 534.62) rotate(-31.6)" xlink:href="#linear-gradient"/><linearGradient id="linear-gradient-21" x1="3689.44" y1="-953.68" x2="3731.27" y2="-953.68" gradientTransform="matrix(-0.92, 0.4, -0.4, -0.92, 3325.23, -2310.77)" xlink:href="#linear-gradient"/></defs><title>Right3</title><g id="Layer_2" data-name="Layer 2"><g id="Right3"><path id="pants_leg_left" d="M436.55,402.23c1.59-9.71-1.86-20.73-11.54-33.62-25.87-34.44-75.75-94.35-90.62-97-1.52-4.59-6.56-9.87-36.74-16.06-18.59-3.81-24-4.18-36.37-6.75s-29.42,12.2-40.09,35.14c-29.14,62.61,40.69,72.19,60.85,76.37a14.27,14.27,0,0,0,7.43-.7c10.94,8.09,38.65,15.47,57.58,23.44,19.31,8.14,41.5,20.12,40.82,39.28-.28,8,1.27,18.9,15.17,43.51,14.16,25.06,19.65,54.31,19.62,53.08L455.43,510S434.39,415.43,436.55,402.23Z" fill="#4c3f26"/><path id="shoe_rim_left" d="M475.57,526,421.8,545.08l-7.72-34.41s15.64,7.23,27.3,2.53,14.05-17.63,14.05-17.63Z" fill="#1c1c1c"/><path id="shoe_left" d="M511.32,592.41c-4.11-4.55-12.4-10.87-18.38-11.5-1.24-8.41-9.72-20.11-9.56-21s-18.84-40.93-18.84-40.93l-34.82,20.59s13.7,25.73,12.35,32.67-1.29,13.9-3.76,23.13S443.94,626,443.94,626h27.45s-2.08-3.35.93-3.33,2,3.15,5.62,3.33,39,0,39,0S515.43,597,511.32,592.41Z" fill="#1c1c1c"/><path id="pants_leg_right" d="M303,279.2c-8.63-14.4-6,11.15-28.63-8.23-14.51-12.44,8.06,24.19-56.32,48.06C187.11,330.51,186,398,166.73,406c-14.52,6-34.54,24.84-45,36.08-4.44,4.78-30.89,30.36-48.24,45-14.06,11.87-33.6,35.55-33.6,35.55l28.89,32c15.13-18.06,100.75-67,118.37-71.56s27.56-16.67,36.07-26.66S279.69,377,291.31,352.61C297.93,338.7,314.44,298.28,303,279.2Z" fill="#aa8b4d"/><path id="pelvis" d="M239.44,274.79s10.43,20,39,20.37,60.38-21.88,60.38-21.88Z" fill="#4c3f26"/><path id="pants_shin_shadow_right" d="M183.81,457.52c-3.17,3.49-3.57,7.71-3.71,11.72s9.8,4.92,16.67,3.95S191.83,448.7,183.81,457.52Z" fill="#4c3f26"/><path id="pants_calf_shadow_right" d="M168.5,459.91c-14.44-13.69-100.42,55.94-91,71,7,11.17,56.7-26.66,74.64-32.79S182.94,473.6,168.5,459.91Z" fill="#4c3f26"/><path id="shoe_right" d="M64.45,598.24C62.2,596,52.68,586.4,45.68,586.4c.5-9.75,18.77-26.91,18.77-26.91L26,544.24s-13.7,34-15.95,38.53-7.33,12.69-7.33,21.44L0,626H69.45S66.7,600.49,64.45,598.24Z" fill="#1c1c1c"/><path id="shoe_rim_right" d="M74.09,543c-13.29,4.38-25.57-12.31-28.3-23.43C44.55,514.55,26,533,17.7,543c1,15.67,27.67,34,43.59,31,0,0,13.41-25,15.08-27.66S74.09,543,74.09,543Z" fill="#1c1c1c"/><path id="shoe_highlight_right" d="M36.28,592.33c-6.66-1-28.75,4.63-26.58,10,1.76,4.33,40.25,0,44.25-1.34S43,593.33,36.28,592.33Z" fill="#203f4f"/><path id="arm_shadow_left" d="M295.16,133.68c4.64,1,31.23-25.89,25.56-34-6.25-9-8-23.32-28.34-18.61-4.62,1.07-20.59,15.54-23.05,18.48s-15,2.76-22,7.58-28.15,21.07-31.43,25.23-23.19,16.87-26.06,22.35-7.4,13.4,1.6,22.16,33.06,18.63,46.32,21.73,54.7,18.48,58.94,20.48l8.49-22.26C292,185.3,269,181.36,261,178.07s-17.11-18.53-25.28-21.53c17.85-.74,27.75-4.55,38.63-9.87S290.52,132.71,295.16,133.68Z" fill="#dd7243"/><path id="hair_side2_left" d="M412.79,71.1c-5.37-17,.28-33.06.28-33.06s-7.46-4.59-10.66-3.14c-5.12,2.32-8.58,29.12-.77,45.56s21,33.81,21,33.81S418.5,89.2,412.79,71.1Z" fill="url(#linear-gradient)"/><path id="hair_side_left" d="M419,81.32c-5.16-8.34-10.81-24.46-10.81-24.46s-3.44,8.94-2.86,12.25c4,23.23-1.09,7.3,28.54,30.57C433.89,99.68,424.18,89.66,419,81.32Z" fill="url(#linear-gradient-2)"/><path id="torso" d="M386.32,40,341.8,27.53l-7.71,35.55S323.47,76.66,320.47,80c-1.76,1.94-20.92,3.4-30,10.28-6.43,4.89-2.91,15.23-6.15,18.25-6.12,5.71-33.38,56.93-30.27,80.89s67.78,32.77,77,25.49S351,173.41,349.1,160.3s-18.31-53.07-18.31-53.07l40.66-14.18Z" fill="#ffca8a"/><path id="torso_shadow" d="M351.69,128.14c1.47,4-9.19,87.18-48.55,76.14S264.83,161.74,271,147.11s8.74,10.7,30.09,8.44c8.15-18,21.07-40.37-5.6-58.23,10.48.6,10.43,1.16,10.43,1.16a33.52,33.52,0,0,1,23.71,4.39c-2.41-17.64,20.46-51.72,20.46-51.72L357.67,105s-16.54,7.78-17.72,12.9C340,117.89,350.23,124.09,351.69,128.14ZM270,129.8c-3.47.38-5.25,4.52-7.81,8.42s7.41.85,10.47-.13S274.6,129.3,270,129.8Z" fill="#dd7243"/><path id="face_shadow" d="M393.1,20.34c-15.16-6.54-34.53,4.56-43.25,24.78a48.07,48.07,0,0,0-3.6,27.13c-3.4,7.39-6.22,16.71-4.41,22.43,3,9.5,9.05,18.31,11.46,17.89s20.25-9.32,20.25-9.32c2.24,1.15,6.2.85,7,.64S382,97,383,94.37a12.86,12.86,0,0,1,1.32-2.47c8.31-4.35,15.84-12.45,20.43-23.09C413.47,48.59,408.26,26.89,393.1,20.34Z" fill="#dd7243"/><path id="face" d="M393.11,26.54c-10.79-5-26.54,6.2-35.19,25-4,8.6-5.74,17.29-5.47,24.67-3.33,6.86-6.4,15.44-5.62,20.48,1.31,8.38,5,15.95,6.84,15.43s16.24-9.63,16.24-9.63c1.58.9,4.6.38,5.2.15s1.8-6.27,2.83-8.73a17,17,0,0,1,1.25-2.31c6.72-4.42,13.24-12.19,17.78-22C405.62,50.75,403.89,31.51,393.11,26.54Z" fill="#ffca8a"/><path id="face_eye_shadow_right" d="M395.77,82.06c-.44-1.73-12.1-6.29-17.42-3-2,1.23,4.47,11.09,6.31,10.62S396.2,83.79,395.77,82.06Z" fill="#dd7243"/><path id="face_shadow_right" d="M418.83,55.24c.59-5.39-8.47-22.85-15.59-21.24-1.35.3-3.1,1.62-5.06,3.63-8.68,3.15-21.58,11.63-26.69,18.85-5.83,8.24-10.88,29.68-15.46,33.17s-13.9,5.55-13.9,5.55,10.74.25,15.61-3.4a12.56,12.56,0,0,0,2.53-2.9c-2,5.29-3.45,9.67-4.2,12-3.47,2.53-7.33,5-11.71,7.64,0,0,19.35-6.64,26.4-12.22,3.42-2.71,9.51-9.67,14.87-16.12,14.41-1.92,22.4-4.78,24.12-6.4a11.28,11.28,0,0,0,2.11-3.5c4.34-.93,7.52-1.94,7.8-2.62C420.11,66.58,420,60.88,418.83,55.24ZM390.26,75.82c-.48.18-1,.36-1.47.53.9-1.11,1.76-2.16,2.54-3.14l.9-.48c1.7,0,3.59-.11,5.56-.29A77.49,77.49,0,0,1,390.26,75.82Z" fill="#dd7243"/><path id="hair_side6_right" d="M388.38,75.41c-10.63,2.76-26.77,4-26.77,4,29.44,1.11,45.46-2.25,48.21-4.29s5.6-10.33,5.6-10.33S399,72.66,388.38,75.41Z" fill="url(#linear-gradient-3)"/><path id="hair_side5_right" d="M416.77,46.86c-6.34-7.25-39.92,22.93-30.64,25s33.93-.26,34.88-2.05S422,52.79,416.77,46.86Z" fill="url(#linear-gradient-4)"/><path id="hair_back" d="M390.54,8.32c-5-3.88-37.43-6.23-40.2-6.77s-23,7.35-25.35,9.79-4.32,38.46-5.27,43.05.57,11.68,8.14,16.57c0,0,2.5-3.76,8.19-1.93S346.71,77,346.71,77s2.1-5.46,5.71-2.55,65.21-28.95,65.33-35.78S395.56,12.2,390.54,8.32Z" fill="url(#linear-gradient-5)"/><path id="hair_side4_right" d="M374.07,57.11s-11.25,24.31-12.8,32.22,1.12,26.13,1.12,26.13c1.43-25.51,8-37.18,20.81-57.17Z" fill="url(#linear-gradient-6)"/><path id="hair_side3_right" d="M390.16,47.94s-3.11,14.5-8.61,23.27-21.38,19-23.61,24.24.13,15.42.13,15.42-.05-9.21,2.1-14.14,19.89-13.25,25.94-20.16,11.53-23.74,11.41-31.9Z" fill="url(#linear-gradient-7)"/><path id="hair_side2_right" d="M405,34.73c-9.56,1.2-40,43-30.52,42.67s46-18.07,46.31-20.07C421.81,52,412.92,33.75,405,34.73Z" fill="url(#linear-gradient-8)"/><path id="hair_side_right" d="M411,40.82c-5.38-3.21-32.81,7.64-43.45,22.86s-18.78,35.57-18.78,35.57,26.48-12.7,37.32-27.38,28.6-20.24,28.6-20.24S414.4,42.83,411,40.82Z" fill="url(#linear-gradient-9)"/><path id="brow_right" d="M391.65,76.74c-.45-.56-4-1.57-4-1.57a10.19,10.19,0,0,1,1.48,3c.25,1-.83,8.55-.35,9.15s2.56,0,2.46-.5S392.11,77.31,391.65,76.74Z" fill="#1c1c1c"/><path id="hair_top" d="M390.2,11.63c-2.31-.91-30.57.53-28.11,1.17,11,2.87,14.48,14.15,14.48,14.15s18-3.77,27.08.21C403.65,27.16,392.51,12.54,390.2,11.63Z" fill="url(#linear-gradient-10)"/><path id="neck_highlight" d="M295.87,90.42c-1.68.36,7.1,3,8.92,3.17s15.37-7.31,16-8.14S297.38,90.1,295.87,90.42Z" fill="#fce7ca"/><path id="eye_white_right" d="M389.22,84.24c-.6-1.32-4-3-4.15-2.34a6.29,6.29,0,0,0,1.28,6.24C387.91,87.81,390.1,86.18,389.22,84.24Z" fill="#f9dacf"/><path id="eye_shadow_right" d="M384.9,81.07l-.32,1.71a8.75,8.75,0,0,1,4.05,2.33c.59.88,1.36-1.29,1.36-1.29S386.08,80.94,384.9,81.07Z" fill="#d1bbb4"/><path id="eye_lash_right" d="M385.36,80.91a3,3,0,0,1-1.73-1s.05,5.75,2.81,8.33c-2.58-3.26-1.25-5.9-1.25-5.9a5.88,5.88,0,0,1,3.33,2C390,86,390,86.72,390,86.89a5.7,5.7,0,0,0,.08-1.82s.13-.48,1.06-.22C390.21,82.64,386.92,81.07,385.36,80.91Z" fill="#1c1c1c"/><path id="eye_iris_right" d="M388.58,83.16a2.48,2.48,0,0,1,1.16,2.49c-.15,1-.9,1.54-1.68,1.18a2.46,2.46,0,0,1-1.15-2.49C387.05,83.33,387.8,82.8,388.58,83.16Z" fill="#1c1c1c"/><path id="eye_refelection_right" d="M387.46,85.48c-.13.24-.92-.2-1.75-1s-1.4-1.6-1.26-1.84.91.2,1.74,1S387.59,85.24,387.46,85.48Z" fill="#fcf7f5"/><path id="hair_tail11" d="M340.33.92C332.8-4.2,311.81,13,309.86,30.57c0,0,11.75-17.16,30.31-12.13,6.44,1.75,9.9,11,14.21,8.52C364.91,20.93,347.86,6,340.33.92Z" fill="url(#linear-gradient-11)"/><path id="hair_tail10" d="M321.4,15.17c-9.07.78-14.5,27.39-4.92,42.24,0,0-1.73-20.73,15.85-28.53,6.1-2.71,14.61,2.26,16.4-2.37C353.09,15.19,330.47,14.4,321.4,15.17Z" fill="url(#linear-gradient-12)"/><path id="hair_tail9" d="M315.42,8.94c-9.37,8.4-22.46,29.72-10.09,46.66C315.61,69.69,301,83.92,301,83.92c19.19-12,8.41-30.88,12.44-44.7,3.3-11.33,6-13.06,6.85-13.32C318.1,26.19,304.63,27.33,315.42,8.94Z" fill="url(#linear-gradient-13)"/><path id="hair_tail8" d="M307.57,38.35c-4.59-11.6,4-20,8.48-25.42-14.52,9.69-14.6,17.91-12,24.43s16.28,21.68,8.12,35C323.37,55,311.62,47.88,307.57,38.35Z" fill="url(#linear-gradient-14)"/><path id="hair_tail7" d="M329.64,14c-14.74,5.89-10.57,15.6-12.29,23.37-2.3,9.31-10.23,15.21-15.45,16.59,16-4.74,20.38-11.41,21.64-16.67S318.57,18.71,329.64,14Z" fill="url(#linear-gradient-15)"/><path id="hair_tail6" d="M307.57,10.56c-5.6,1.71-7.16,16.61.86,24.65,0,0,4.48-14.88,7.86-17.52s9.49-.54,10-3.69C327.49,6.29,313.17,8.84,307.57,10.56Z" fill="url(#linear-gradient-16)"/><path id="hair_tail5" d="M335.79,5.43c-2.89-.69-3.26,5.31-6.72,7.28s-17.84.53-17.84.53c4.06,9.75,17.42,13.69,20.88,9.49S342.84,7.12,335.79,5.43Z" fill="url(#linear-gradient-17)"/><path id="hair_tail4" d="M308.5,9.69C300.42,17,289.19,35.6,300,50.22c9,12.17-3.63,24.59-3.63,24.59C313,64.25,303.51,48,306.93,36c2.8-9.85,5.12-11.36,5.87-11.59C310.93,24.64,299.25,25.7,308.5,9.69Z" fill="url(#linear-gradient-18)"/><path id="hair_tail3" d="M322.72,24.69c-7.87,1.27-22.15,8.15-21.36,21.42.66,11-12,13.6-12,13.6,14.36.15,15.07-13.58,21.94-19.57,5.67-4.93,7.69-4.91,8.22-4.75C318.26,34.82,310.66,30.81,322.72,24.69Z" fill="url(#linear-gradient-19)"/><path id="hair_tail2" d="M323,44c-1.62-6.31-.83-7.87-.49-8.22-.93.73-7,5.07-7.05-6.66-2.07,6.6-2.28,20.35,8.32,24.88,8.82,3.78,5.88,14.61,5.88,14.61C335.39,57.55,325,51.68,323,44Z" fill="url(#linear-gradient-20)"/><path id="hair_tail" d="M316.65,22.23c-15,1.81-18.31,8.14-18.81,14.23s4.12,23.15-7.43,30.3c15.44-9.08,9.14-19.21,9.74-28.17C301.13,27.8,311.07,24.65,316.65,22.23Z" fill="url(#linear-gradient-21)"/><path id="shirt_torso" d="M353.19,126.73c1.76,5.89,4.85,25.43-4.26,24.26S335.85,135.61,332.21,123c-2.15-3.29-17.32-15.79-29.46-19.79v0h-.12a20.38,20.38,0,0,0-7.28-1.18,9.06,9.06,0,0,1-6-8.44C288.87,85,301,83.92,301,83.92l-.69-2.86s-15.08,6.85-22.82,14.5-21.87,52.53-23.14,62.25c-6.16,14-10.29,43.18-11.93,62.06-1.77,20.37,2,25.66-13.5,48.09,20.24,19.1,68.63,13,109.9,5.32,0,0-4.73-14.73-5.53-22.94-2.87-29.81,21.81-46.2,25.72-64.38S361,146.1,353.19,126.73ZM324.39,176c-6.24,18.18-35.43,21.39-54.17,10.94-9.84-15.37-5.64-39.42-2.93-48.26s18.75-39.2,34.87-33.29C334.51,118.14,333.26,150.12,324.39,176Z" fill="#ffe8ae"/><path id="shirt_abs_shadow" d="M317.89,198.7c-6.46-2.78-1.45,14.87-9.67,38.83C302.51,254.22,282,279.61,282,279.61c19.94,12.25,52.54-3.41,56.82-6.33s-3.37-30-5-39.28,23-32.36,23.88-44.61S348.81,212,317.89,198.7Z" fill="#bca675"/><path id="arm_shadow_right" d="M502.05,95.42c-2.16-2.19-30.52,6.07-40,5.08s-60.57-1.09-67.1,10.15c-3.49.31-45-1.2-53,.2-21.12,3.7-38.08-6.45-52.28,10.68-3.83,4.62,13.26-1.15,13.73,7.5.62,11.64-1.24,39.66,24.81,33.39,37-8.91,72.2-18.7,77.5-15.28,2.13,1.37,30.87-6.61,39.83-9.88,10.75-3.93,24.32-8.16,29.39-10.29,7.68-3.23,30.2-6.84,29.93-8.87S504.2,97.61,502.05,95.42Z" fill="#dd7243"/><path id="palm_shadow_right" d="M516.06,98.18s9.28,11.35,8.31,14.52c1.24,5.58,11,6.15,13.56,4.75s5.73-3,7.11-6.69C550.93,95.14,513,88,516.06,98.18Z" fill="#dd7243"/><path id="arm_right" d="M369.91,110.87c-18.07,10-27.94,25-35.38,26.75a15.41,15.41,0,0,1-17.88-10.2,44.69,44.69,0,0,1,4-7.53c-6.32-1.45-19-6.56-20.07-7.35s5.64-4.27,12.44-4.47c3.36-.11,7.79,3,9.43,3,1.35,0,2.16,1.58,2.49,3.4a23.18,23.18,0,0,1,8.82-6C345.17,104.53,363.61,111.87,369.91,110.87Zm42.19,12c-5.05-5.85-13.14-1.52-17.68-.06-3.23,1,1.23,3.35,2.72,5.61S416.28,127.69,412.1,122.85Zm74.63-27.79c-3.74-.28-47.71,10.21-57.46,6.64-4.24-1.55-20.61,6.38-28.64,8.69,21.89-.15,27.51,7.56,34.7,5.91,18.62-4.29,53.42-9.15,53.42-9.15S490.46,95.33,486.73,95.06Z" fill="#ffca8a"/><path id="glove_shadow_right" d="M533.6,77.16s-17.44,3.1-20.92,3.74-22.8,8.82-27.13,12.53c4.33,8.57,5.74,26,9.67,29s21.52-1.45,30.58-1.66S533.6,77.16,533.6,77.16Z" fill="#1c1c1c"/><path id="index_right" d="M537.32,77.34c-1.76-.68-8.54-.57-9.77,2.07s1.26,7.52,1.26,7.52,5.41,11.47,8.61,11.19,3.89-5.06,4.74-7.16S539.07,78,537.32,77.34Z" fill="#ffca8a"/><path id="middle_right" d="M546.91,89.7c-.92-1.43-5.94-5-8.24-3.67s-3.07,6.18-3.07,6.18-2.14,11.26.35,12.75,5.53-1.64,7.27-2.72S547.84,91.13,546.91,89.7Z" fill="#ffca8a"/><path id="pinky_right" d="M543.62,101.14c-2.55-.67-6.49,2.33-6.49,2.33s-9.33,6.65-8.56,9.46,5.13,2.64,7.13,3.06,11-4.83,11.34-6.5S546.17,101.81,543.62,101.14Z" fill="#ffca8a"/><path id="ring_right" d="M544.59,91.29c-2.19-.13-4.92,3-4.92,3s-6.54,7-5.45,9.15,4.63,1.31,6.34,1.33,8.22-5.77,8.21-7.19S546.79,91.41,544.59,91.29Z" fill="#ffca8a"/><path id="shirt_shoulder_left" d="M309.86,82.87l-8.9,1-.69-2.86Z" fill="#bca675"/><path id="shirt_back" d="M266.31,142.28s-5.14,18.58-1.17,31.39,3.94,14.81,17.8,18C266.55,180.53,267.82,157.79,266.31,142.28Z" fill="#bca675"/></g></g></svg>
