<svg xmlns="http://www.w3.org/2000/svg" xmlns:xlink="http://www.w3.org/1999/xlink" viewBox="0 0 548.77 626.08">
  <defs>
    <linearGradient id="linear-gradient" x1="-3079.35" y1="5610.09" x2="-3041.01" y2="5648.42" gradientTransform="matrix(0.6, -0.65, -0.74, -0.68, 6407.33, 1885.64)" gradientUnits="userSpaceOnUse">
      <stop offset="0" stop-color="#82422e"/>
      <stop offset="1" stop-color="#602a17"/>
    </linearGradient>
    <linearGradient id="linear-gradient-2" x1="987.25" y1="2810.47" x2="987.25" y2="2855.02" gradientTransform="matrix(0.83, -0.61, -0.36, -0.85, 616.93, 3090.78)" xlink:href="#linear-gradient"/>
    <linearGradient id="linear-gradient-3" x1="159.05" y1="-635.52" x2="193.83" y2="-635.52" gradientTransform="matrix(0.95, 0.31, 0.31, -0.95, 357.66, -629.08)" xlink:href="#linear-gradient"/>
    <linearGradient id="linear-gradient-4" x1="319.76" y1="-18.84" x2="337.59" y2="-1.01" gradientTransform="matrix(0.98, 0.18, 0.18, -0.98, 71.54, 4.1)" xlink:href="#linear-gradient"/>
    <linearGradient id="linear-gradient-5" x1="350.65" y1="10.93" x2="328.92" y2="-10.8" gradientTransform="matrix(0.98, 0.18, 0.18, -0.98, 71.54, 4.1)" xlink:href="#linear-gradient"/>
    <linearGradient id="linear-gradient-6" x1="6759.03" y1="-2871.74" x2="6734.69" y2="-2896.09" gradientTransform="matrix(-0.45, -0.69, 0.75, -0.49, 5574.01, 3305.12)" xlink:href="#linear-gradient"/>
    <linearGradient id="linear-gradient-7" x1="5618.03" y1="-3527.94" x2="5654.69" y2="-3491.27" gradientTransform="translate(4881.5 3921.48) rotate(-107.62) scale(0.89)" xlink:href="#linear-gradient"/>
    <linearGradient id="linear-gradient-8" x1="339.89" y1="16.19" x2="316.22" y2="-7.48" gradientTransform="matrix(0.98, 0.18, 0.18, -0.98, 71.54, 4.1)" xlink:href="#linear-gradient"/>
    <linearGradient id="linear-gradient-9" x1="306.45" y1="-14.2" x2="344.79" y2="24.13" gradientTransform="matrix(0.98, 0.18, 0.18, -0.98, 71.54, 4.1)" xlink:href="#linear-gradient"/>
    <linearGradient id="linear-gradient-10" x1="-1334.5" y1="-466.73" x2="-1271.86" y2="-466.73" gradientTransform="matrix(0.68, 0.17, 0.24, -0.97, 1379.73, -212.36)" xlink:href="#linear-gradient"/>
    <linearGradient id="linear-gradient-11" x1="657.78" y1="254.67" x2="689.94" y2="254.67" gradientTransform="matrix(0.36, 0.93, 0.93, -0.36, -148.36, -516.59)" xlink:href="#linear-gradient"/>
    <linearGradient id="linear-gradient-12" x1="379.06" y1="600.39" x2="411.22" y2="600.39" gradientTransform="matrix(0.87, 0.49, 0.49, -0.87, -313.18, 363.08)" xlink:href="#linear-gradient"/>
    <linearGradient id="linear-gradient-13" x1="384.86" y1="928.04" x2="405.35" y2="928.04" gradientTransform="matrix(1, -0.02, -0.02, -1, -66.39, 982.34)" xlink:href="#linear-gradient"/>
    <linearGradient id="linear-gradient-14" x1="4921.83" y1="-279.13" x2="4970.06" y2="-279.13" gradientTransform="matrix(-0.64, 0.77, 0.77, 0.64, 3691.24, -3584.78)" xlink:href="#linear-gradient"/>
    <linearGradient id="linear-gradient-15" x1="455.72" y1="1068.53" x2="492.77" y2="1068.53" gradientTransform="matrix(0.97, -0.26, -0.26, -0.97, 135.29, 1193.28)" xlink:href="#linear-gradient"/>
    <linearGradient id="linear-gradient-16" x1="362.93" y1="743.24" x2="384.07" y2="743.24" gradientTransform="matrix(0.95, 0.3, 0.3, -0.95, -266.02, 615)" xlink:href="#linear-gradient"/>
    <linearGradient id="linear-gradient-17" x1="1157.53" y1="126.46" x2="1177.19" y2="126.46" gradientTransform="translate(99.23 1166.67) rotate(-85.11)" xlink:href="#linear-gradient"/>
    <linearGradient id="linear-gradient-18" x1="388.27" y1="907.34" x2="406.04" y2="907.34" gradientTransform="matrix(1, -0.02, -0.02, -1, -74.15, 957.49)" xlink:href="#linear-gradient"/>
    <linearGradient id="linear-gradient-19" x1="415.93" y1="560.31" x2="428.92" y2="560.31" gradientTransform="matrix(0.85, 0.53, 0.53, -0.85, -348.17, 295.72)" xlink:href="#linear-gradient"/>
    <linearGradient id="linear-gradient-20" x1="568.03" y1="1190.3" x2="579.29" y2="1190.3" gradientTransform="matrix(0.85, -0.52, -0.52, -0.85, 453.46, 1359.22)" xlink:href="#linear-gradient"/>
    <linearGradient id="linear-gradient-21" x1="5000.84" y1="1564.46" x2="5042.67" y2="1564.46" gradientTransform="matrix(-0.92, 0.4, 0.4, 0.92, 4286.44, -3399.53)" xlink:href="#linear-gradient"/>
  </defs>
  <title>right3</title>
  <g id="Layer_2" data-name="Layer 2">
    <g id="Layer_1-2" data-name="Layer 1">
      <g id="right3">
        <path id="pelvis" d="M239.44,274.79s10.43,20,39,20.37,60.38-21.88,60.38-21.88Z" fill="#4c3f26"/>
        <path id="pants_leg_l" data-name="pants leg l" d="M436.55,402.23c1.59-9.7-1.86-20.72-11.54-33.61-25.87-34.44-75.75-94.35-90.62-97-1.52-4.6-6.56-9.88-36.74-16.06-18.59-3.81-24-4.18-36.37-6.75S231.86,261,221.19,284c-29.14,62.59,40.69,72.13,60.81,76.35a14.35,14.35,0,0,0,7.43-.71c10.94,8.1,38.65,15.47,57.58,23.45,19.31,8.13,41.5,20.12,40.82,39.27-.28,8,1.27,18.91,15.17,43.52,14.16,25.06,19.65,54.31,19.62,53.08l32.81-8.83S434.39,415.43,436.55,402.23Z" fill="#4c3f26"/>
        <path id="shoe_l" data-name="shoe l" d="M511.32,592.41c-4.11-4.54-12.4-10.86-18.38-11.5-1.24-8.4-9.72-20.1-9.56-21S464.54,519,464.54,519l-34.82,20.55s13.7,25.72,12.35,32.66-1.29,13.88-3.76,23.13S443.94,626,443.94,626h27.45s-2.08-3.35.93-3.34,2,3.15,5.62,3.34,39,0,39,0S515.43,597,511.32,592.41Z" fill="#1c1c1c"/>
        <path id="shoe_rim_l" data-name="shoe rim l" d="M455.43,495.58s-2.38,12.92-14.05,17.62-27.3-2.52-27.3-2.52l7.72,34.4,53.77-19.14Z" fill="#1c1c1c"/>
        <path id="pants_leg_r" data-name="pants leg r" d="M303,279.2c-8.63-14.39-6,11.16-28.63-8.23-14.51-12.44,8.06,24.19-56.32,48.07C187.11,330.51,186,398,166.73,406c-14.52,6-34.54,24.84-45,36.09-4.44,4.77-30.89,30.35-48.24,45-14,11.87-33.59,35.54-33.59,35.54l28.89,32c15.13-18.06,100.75-67,118.37-71.57s27.56-16.66,36.07-26.65S279.69,377,291.31,352.58C297.93,338.71,314.44,298.29,303,279.2Z" fill="#aa8b4d"/>
        <path id="pants_shin_shadow_r" data-name="pants shin shadow r" d="M183.81,457.52c-3.17,3.49-3.57,7.72-3.71,11.73s9.8,4.92,16.67,3.94S191.83,448.71,183.81,457.52Z" fill="#4c3f26"/>
        <path id="pants_calf_shadow_r" data-name="pants calf shadow r" d="M168.5,459.92c-14.44-13.69-100.42,55.93-91,71,7,11.16,56.7-26.66,74.64-32.8S182.94,473.61,168.5,459.92Z" fill="#4c3f26"/>
        <path id="shoe_r" data-name="shoe r" d="M64.45,598.25C62.2,596,52.68,586.4,45.68,586.4c.5-9.75,18.77-26.9,18.77-26.9L26,544.25s-13.75,34-16,38.52-7.33,12.69-7.33,21.44L0,626H69.45S66.7,600.5,64.45,598.25Z" fill="#1c1c1c"/>
        <path id="shoe_highlight_r" data-name="shoe highlight r" d="M36.28,592.33c-6.66-1-28.75,4.64-26.58,10,1.76,4.33,40.25,0,44.25-1.33S43,593.33,36.28,592.33Z" fill="#203f4f"/>
        <path id="shoe_rim_r" data-name="shoe rim r" d="M74.09,543.08c-13.29,4.38-25.57-12.3-28.3-23.42C44.55,514.56,26,533,17.7,543c1,15.66,27.67,34,43.59,31,0,0,13.41-25,15.08-27.67S74.09,543.08,74.09,543.08Z" fill="#1c1c1c"/>
        <path id="arm_shadow_l" data-name="arm shadow l" d="M295.16,133.68c4.64,1,31.23-25.89,25.56-34-6.25-9-8-23.31-28.34-18.6-4.62,1.07-20.59,15.54-23.05,18.48s-15,2.76-22,7.57-28.15,21.08-31.43,25.24-23.19,16.87-26.06,22.35-7.4,13.39,1.6,22.16,33.06,18.62,46.32,21.72,54.71,18.48,58.95,20.48l8.49-22.27C292,185.31,269,181.37,261,178.08s-17.11-18.53-25.28-21.53c17.85-.75,27.75-4.56,38.63-9.88S290.52,132.72,295.16,133.68Z" fill="#dd7243"/>
        <path id="hair_side2_l" data-name="hair side2 l" d="M412.79,71.08c-5.37-17,.28-33,.28-33s-7.46-4.59-10.66-3.14c-5.12,2.32-8.58,29.11-.77,45.56s21,33.81,21,33.81S418.5,89.21,412.79,71.08Z" fill="url(#linear-gradient)"/>
        <path id="hair_side_l" data-name="hair side l" d="M419,81.33c-5.16-8.35-10.81-24.46-10.81-24.46s-3.44,8.93-2.86,12.25c4,23.23-1.09,7.29,28.54,30.57C433.89,99.69,424.18,89.67,419,81.33Z" fill="url(#linear-gradient-2)"/>
        <path id="torso_skin" data-name="torso skin" d="M386.32,40,341.8,27.54l-7.71,35.54S323.47,76.65,320.47,80c-1.76,1.93-20.92,3.39-30,10.28-6.43,4.89-2.91,15.23-6.15,18.25-6.12,5.7-33.38,56.93-30.27,80.89s67.78,32.77,77,25.49S351,173.42,349.1,160.31s-18.31-53.08-18.31-53.08l40.66-14.15Z" fill="#ffca8a"/>
        <path id="torso_shadow" data-name="torso shadow" d="M340,117.89c1.18-5.12,17.72-12.9,17.72-12.9l-7.57-53.84s-22.87,34.08-20.46,51.72A33.43,33.43,0,0,0,306,98.49s0-.57-10.43-1.17c26.67,17.86,13.75,40.27,5.6,58.23-21.35,2.27-23.92-23.06-30.09-8.43s-7.22,46.14,32.13,57.17,50-72.1,48.55-76.14S340,117.89,340,117.89Zm-67.35,20.19c-3.06,1-13,4-10.47.14s4.34-8,7.81-8.42C274.6,129.31,275.7,137.08,272.65,138.08Z" fill="#dd7243"/>
        <path id="face_shadow" data-name="face shadow" d="M393.1,20.35c-15.16-6.54-34.53,4.55-43.25,24.78a48.13,48.13,0,0,0-3.6,27.13c-3.4,7.38-6.22,16.71-4.41,22.42,3,9.51,9.05,18.32,11.46,17.9s20.25-9.32,20.25-9.32c2.24,1.15,6.2.85,7,.63S382,97.08,383,94.38a12.74,12.74,0,0,1,1.32-2.47c8.31-4.35,15.84-12.46,20.43-23.09C413.47,48.59,408.26,26.89,393.1,20.35Z" fill="#dd7243"/>
        <path id="face" d="M393.11,26.54c-10.79-5-26.54,6.21-35.19,25a55,55,0,0,0-5.47,24.67c-3.33,6.86-6.4,15.43-5.62,20.47,1.31,8.39,5,16,6.84,15.44s16.24-9.64,16.24-9.64c1.58.9,4.6.39,5.2.15s1.8-6.26,2.83-8.72a15.12,15.12,0,0,1,1.25-2.31c6.72-4.43,13.24-12.19,17.78-22C405.62,50.76,403.89,31.52,393.11,26.54Z" fill="#ffca8a"/>
        <path id="face_eye_shadow_r" data-name="face eye shadow r" d="M395.77,82.08c-.44-1.73-12.1-6.29-17.42-3-2,1.24,4.47,11.1,6.31,10.62S396.2,83.8,395.77,82.08Z" fill="#dd7243"/>
        <path id="face_shadow_r" data-name="face shadow r" d="M419.66,67.68c-.28.68-3.46,1.68-7.8,2.62a11.24,11.24,0,0,1-2.11,3.49c-1.72,1.63-9.71,4.48-24.12,6.4-5.36,6.45-11.45,13.41-14.87,16.12-7.05,5.58-26.4,12.22-26.4,12.22,4.38-2.58,8.24-5.1,11.71-7.64.75-2.32,2.2-6.69,4.2-12a13,13,0,0,1-2.53,2.91c-4.87,3.65-15.61,3.39-15.61,3.39s9.32-2,13.9-5.54,9.63-24.93,15.46-33.17c5.11-7.22,18-15.7,26.69-18.86,2-2,3.71-3.32,5.06-3.63,7.12-1.6,16.18,15.86,15.59,21.25C420,60.88,420.11,66.59,419.66,67.68Zm-21.87,4.77c-2,.17-3.86.27-5.56.28l-.9.48c-.78,1-1.64,2-2.54,3.15.5-.17,1-.35,1.47-.53C392.57,75,395.17,73.76,397.79,72.45Z" fill="#dd7243"/>
        <path id="hair_back" data-name="hair back" d="M390.54,8.33c-5-3.89-37.43-6.23-40.2-6.77s-23,7.34-25.35,9.79-4.32,38.45-5.27,43.05.57,11.67,8.14,16.57c0,0,2.5-3.77,8.19-1.93S346.71,77,346.71,77s2.1-5.47,5.71-2.56,65.21-28.94,65.33-35.78S395.56,12.21,390.54,8.33Z" fill="url(#linear-gradient-3)"/>
        <path id="hair_side6_r" data-name="hair side6 r" d="M388.38,75.42c-10.63,2.75-26.77,4-26.77,4,29.44,1.11,45.46-2.25,48.21-4.29s5.6-10.34,5.6-10.34S399,72.67,388.38,75.42Z" fill="url(#linear-gradient-4)"/>
        <path id="hair_side5_r" data-name="hair side5 r" d="M416.77,46.86c-6.34-7.25-39.92,22.94-30.64,25s33.93-.27,34.88-2.06S422,52.8,416.77,46.86Z" fill="url(#linear-gradient-5)"/>
        <path id="hair_side4_r" data-name="hair side4 r" d="M374.07,57.08s-11.25,24.31-12.8,32.22,1.12,26.12,1.12,26.12c1.43-25.5,8-37.18,20.81-57.16Z" fill="url(#linear-gradient-6)"/>
        <path id="hair_side3_r" data-name="hair side3 r" d="M390.16,48s-3.11,14.5-8.61,23.26-21.38,19-23.61,24.25.13,15.42.13,15.42-.05-9.21,2.1-14.15,19.89-13.24,25.94-20.15,11.53-23.75,11.41-31.91Z" fill="url(#linear-gradient-7)"/>
        <path id="hair_side2_r" data-name="hair side2 r" d="M405,34.74c-9.56,1.19-40,43-30.52,42.66s46-18.07,46.31-20.06C421.81,52,412.92,33.76,405,34.74Z" fill="url(#linear-gradient-8)"/>
        <path id="hair_side_r" data-name="hair side r" d="M411,40.83c-5.38-3.21-32.81,7.63-43.45,22.85s-18.78,35.58-18.78,35.58,26.48-12.71,37.32-27.38,28.6-20.24,28.6-20.24S414.4,42.83,411,40.83Z" fill="url(#linear-gradient-9)"/>
        <path id="hair_top" data-name="hair top" d="M390.2,11.64c-2.31-.91-30.57.53-28.11,1.17,11,2.86,14.48,14.15,14.48,14.15s18-3.78,27.08.21C403.65,27.17,392.51,12.55,390.2,11.64Z" fill="url(#linear-gradient-10)"/>
        <path id="neck_highlight" data-name="neck highlight" d="M295.87,90.43c-1.68.36,7.1,3,8.92,3.16s15.37-7.31,16-8.13S297.38,90.08,295.87,90.43Z" fill="#fce7ca"/>
        <path id="eye_white_r" data-name="eye white r" d="M389.22,84.24c-.6-1.32-4-3-4.15-2.33a6.28,6.28,0,0,0,1.28,6.24C387.91,87.82,390.1,86.19,389.22,84.24Z" fill="#f9dacf"/>
        <path id="eye_shadow_r" data-name="eye shadow r" d="M384.9,81.08l-.32,1.72a8.58,8.58,0,0,1,4.05,2.33c.59.88,1.36-1.29,1.36-1.29S386.08,81,384.9,81.08Z" fill="#d1bbb4"/>
        <path id="eye_lash_r" data-name="eye lash r" d="M385.36,80.91a3.06,3.06,0,0,1-1.73-1s.05,5.76,2.81,8.34c-2.58-3.26-1.25-5.91-1.25-5.91a5.86,5.86,0,0,1,3.33,2C390,86,390,86.72,390,86.89a5.86,5.86,0,0,0,.08-1.82s.13-.49,1.06-.22C390.21,82.65,386.92,81.08,385.36,80.91Z" fill="#1c1c1c"/>
        <path id="eye_iris_r" data-name="eye iris r" d="M386.91,84.35a2.44,2.44,0,0,0,1.15,2.48c.78.36,1.53-.16,1.68-1.17a2.46,2.46,0,0,0-1.16-2.49C387.8,82.81,387.05,83.33,386.91,84.35Z" fill="#1c1c1c"/>
        <path id="eye_refelection_r" data-name="eye refelection r" d="M386.19,83.64c-.83-.78-1.61-1.21-1.74-1s.43,1.06,1.26,1.84,1.62,1.21,1.75,1S387,84.42,386.19,83.64Z" fill="#fcf7f5"/>
        <path id="brow_r" data-name="brow r" d="M391.65,76.75c-.45-.57-4-1.58-4-1.58a10.37,10.37,0,0,1,1.48,3c.25,1-.83,8.56-.35,9.16s2.56-.06,2.46-.5S392.11,77.31,391.65,76.75Z" fill="#1c1c1c"/>
        <path id="hair_tail11" data-name="hair tail11" d="M340.33.92C332.8-4.2,311.81,13,309.86,30.58c0,0,11.75-17.16,30.31-12.13,6.44,1.75,9.9,11,14.21,8.51C364.91,20.94,347.86,6.08,340.33.92Z" fill="url(#linear-gradient-11)"/>
        <path id="hair_tail10" data-name="hair tail10" d="M321.4,15.18c-9.07.78-14.5,27.39-4.92,42.23,0,0-1.73-20.72,15.85-28.53,6.1-2.71,14.61,2.27,16.4-2.36C353.09,15.2,330.47,14.4,321.4,15.18Z" fill="url(#linear-gradient-12)"/>
        <path id="hair_tail9" data-name="hair tail9" d="M315.42,9c-9.37,8.39-22.46,29.72-10.09,46.66C315.61,69.7,301,83.93,301,83.93c19.19-12.05,8.41-30.88,12.44-44.7,3.3-11.33,6-13.06,6.85-13.32C318.1,26.2,304.63,27.34,315.42,9Z" fill="url(#linear-gradient-13)"/>
        <path id="hair_tail8" data-name="hair tail8" d="M307.57,38.36c-4.59-11.61,4-20,8.48-25.42-14.52,9.69-14.6,17.9-12,24.43s16.28,21.67,8.12,35C323.37,55,311.62,47.89,307.57,38.36Z" fill="url(#linear-gradient-14)"/>
        <path id="hair_tail7" data-name="hair tail7" d="M329.64,14c-14.74,5.9-10.57,15.61-12.29,23.37-2.3,9.31-10.23,15.21-15.45,16.59,16-4.74,20.38-11.4,21.64-16.67S318.57,18.72,329.64,14Z" fill="url(#linear-gradient-15)"/>
        <path id="hair_tail6" data-name="hair tail6" d="M307.57,10.56c-5.6,1.72-7.16,16.61.86,24.65,0,0,4.48-14.87,7.86-17.51s9.49-.55,10-3.7C327.49,6.3,313.17,8.85,307.57,10.56Z" fill="url(#linear-gradient-16)"/>
        <path id="hair_tail5" data-name="hair tail5" d="M335.79,5.44c-2.89-.69-3.26,5.3-6.72,7.27s-17.84.54-17.84.54c4.06,9.74,17.42,13.69,20.88,9.48S342.84,7.08,335.79,5.44Z" fill="url(#linear-gradient-17)"/>
        <path id="hair_tail4" data-name="hair tail4" d="M308.5,9.7C300.42,17,289.19,35.6,300,50.23c9,12.16-3.63,24.59-3.63,24.59C313,64.26,303.51,48,306.93,36c2.8-9.85,5.12-11.37,5.87-11.6C310.93,24.64,299.25,25.71,308.5,9.7Z" fill="url(#linear-gradient-18)"/>
        <path id="hair_tail3" data-name="hair tail3" d="M322.72,24.7c-7.87,1.26-22.15,8.15-21.36,21.42.66,11-12,13.6-12,13.6,14.36.15,15.07-13.58,21.94-19.57,5.67-4.93,7.69-4.91,8.22-4.75C318.26,34.82,310.66,30.81,322.72,24.7Z" fill="url(#linear-gradient-19)"/>
        <path id="hair_tail2" data-name="hair tail2" d="M323,44c-1.62-6.31-.83-7.87-.49-8.23-.93.74-7,5.08-7.05-6.65-2.07,6.59-2.28,20.34,8.32,24.88,8.82,3.77,5.88,14.61,5.88,14.61C335.39,57.56,325,51.68,323,44Z" fill="url(#linear-gradient-20)"/>
        <path id="hair_tail" data-name="hair tail" d="M316.65,22.23c-15,1.82-18.31,8.15-18.81,14.24s4.12,23.14-7.43,30.29c15.44-9.08,9.14-19.21,9.74-28.17C301.13,27.81,311.07,24.66,316.65,22.23Z" fill="url(#linear-gradient-21)"/>
        <path id="shirt_torso" data-name="shirt torso" d="M359,186c-3.91,18.19-28.59,34.58-25.72,64.38.8,8.21,5.53,22.94,5.53,22.94-41.27,7.69-89.66,13.79-109.9-5.31,15.5-22.43,11.73-27.73,13.5-48.1,1.64-18.87,5.77-48,11.93-62.05,1.27-9.73,15.41-54.62,23.14-62.26s22.79-14.48,22.79-14.48l.69,2.86s-12.09,1-11.63,9.67a9.07,9.07,0,0,0,6,8.44,20,20,0,0,1,7.28,1.18h.12c12.14,4,27.31,16.5,29.46,19.79,3.64,12.56,7.62,26.78,16.72,28s6-18.38,4.26-24.27C361,146.08,362.87,167.78,359,186Zm-56.81-80.6C286,99.45,270,129.81,267.29,138.65s-6.91,32.89,2.93,48.25c18.74,10.46,47.93,7.25,54.17-10.93,8.87-25.89,10.12-57.82-22.23-70.61Z" fill="#ffe8ae"/>
        <path id="shirt_abs_shadow" data-name="shirt abs shadow" d="M317.89,198.71c-6.46-2.78-1.45,14.87-9.67,38.83C302.51,254.23,282,279.62,282,279.62c19.94,12.25,52.54-3.41,56.82-6.34s-3.37-30-5-39.28,23-32.35,23.88-44.61S348.81,212.08,317.89,198.71Z" fill="#bca675"/>
        <path id="arm_r" data-name="arm r" d="M502.05,95.43c-2.16-2.19-30.52,6.07-40,5.07s-60.57-1.08-67.1,10.16c-3.49.3-45-1.21-53,.2-21.12,3.69-38.08-6.45-52.28,10.68-3.83,4.61,13.26-1.16,13.73,7.5.62,11.64-1.24,39.65,24.81,33.38,37-8.9,72.2-18.69,77.5-15.28,2.13,1.38,30.87-6.6,39.83-9.88,10.75-3.93,24.32-8.15,29.39-10.28,7.68-3.23,30.2-6.84,29.93-8.88S504.2,97.62,502.05,95.43Z" fill="#dd7243"/>
        <path id="palm_shadow_r" data-name="palm shadow r" d="M516.06,98.19s9.28,11.35,8.31,14.51c1.24,5.59,11,6.16,13.56,4.76s5.73-3,7.11-6.69C550.93,95.15,513,88,516.06,98.19Z" fill="#dd7243"/>
        <path id="glove_r" data-name="glove r" d="M533.6,77.16s-17.44,3.1-20.92,3.74-22.8,8.83-27.13,12.53c4.33,8.58,5.74,26,9.67,29s21.52-1.45,30.58-1.66S533.6,77.16,533.6,77.16Z" fill="#1c1c1c"/>
        <path id="index_r" data-name="index r" d="M537.32,77.34c-1.76-.68-8.54-.57-9.77,2.08s1.26,7.52,1.26,7.52,5.41,11.47,8.61,11.19,3.89-5.07,4.74-7.16S539.07,78,537.32,77.34Z" fill="#ffca8a"/>
        <path id="middle_r" data-name="middle r" d="M546.91,89.7C546,88.28,541,84.76,538.67,86s-3.07,6.17-3.07,6.17-2.14,11.26.35,12.75,5.53-1.64,7.27-2.72S547.84,91.08,546.91,89.7Z" fill="#ffca8a"/>
        <path id="pinky_r" data-name="pinky r" d="M543.62,101.15c-2.55-.67-6.49,2.33-6.49,2.33s-9.33,6.65-8.56,9.45,5.13,2.64,7.13,3.07,11-4.83,11.34-6.5S546.17,101.81,543.62,101.15Z" fill="#ffca8a"/>
        <path id="ring_r" data-name="ring r" d="M544.59,91.29c-2.19-.12-4.92,3-4.92,3s-6.54,7-5.45,9.15,4.63,1.32,6.34,1.33,8.22-5.77,8.21-7.19S546.79,91.42,544.59,91.29Z" fill="#ffca8a"/>
        <path id="shirt_shoulder_l" data-name="shirt shoulder l" d="M300.27,81.08l.69,2.86,8.9-1Z" fill="#bca675"/>
        <path id="shirt_back" data-name="shirt back" d="M266.31,142.29s-5.14,18.57-1.17,31.38,3.94,14.82,17.8,18C266.55,180.54,267.82,157.79,266.31,142.29Z" fill="#bca675"/>
      </g>
    </g>
  </g>
</svg>
