<svg xmlns="http://www.w3.org/2000/svg" xmlns:xlink="http://www.w3.org/1999/xlink" viewBox="0 0 447.78 673.78"><defs><linearGradient id="linear-gradient" x1="783.89" y1="87.41" x2="762.15" y2="109.14" gradientTransform="matrix(-0.65, -0.76, -0.76, 0.65, 913.11, 568.96)" gradientUnits="userSpaceOnUse"><stop offset="0" stop-color="#82422e"/><stop offset="1" stop-color="#602a17"/></linearGradient><linearGradient id="linear-gradient-2" x1="654.62" y1="220.88" x2="631.03" y2="244.47" gradientTransform="matrix(-0.95, -0.31, -0.31, 0.95, 1021.04, 17.1)" xlink:href="#linear-gradient"/><linearGradient id="linear-gradient-3" x1="487.59" y1="295.48" x2="525.92" y2="257.14" gradientTransform="matrix(-0.48, -0.88, -0.88, 0.48, 822.51, 371.18)" xlink:href="#linear-gradient"/><linearGradient id="linear-gradient-4" x1="339.02" y1="209.51" x2="339.02" y2="164.96" gradientTransform="translate(10.3 -138.58) rotate(4.2)" xlink:href="#linear-gradient"/><linearGradient id="linear-gradient-5" x1="195.42" y1="488.07" x2="213.26" y2="470.23" gradientTransform="matrix(0.98, 0.18, -0.18, 0.98, 190.48, -450.65)" xlink:href="#linear-gradient"/><linearGradient id="linear-gradient-6" x1="226.37" y1="458.35" x2="204.64" y2="480.08" gradientTransform="matrix(0.98, 0.18, -0.18, 0.98, 190.48, -450.65)" xlink:href="#linear-gradient"/><linearGradient id="linear-gradient-7" x1="92.34" y1="239.4" x2="124.16" y2="239.4" gradientTransform="translate(157.54 -207.22) rotate(2.12)" xlink:href="#linear-gradient"/><linearGradient id="linear-gradient-8" x1="196.2" y1="479.68" x2="171.86" y2="504.03" gradientTransform="matrix(0.98, 0.18, -0.18, 0.98, 190.48, -450.65)" xlink:href="#linear-gradient"/><linearGradient id="linear-gradient-9" x1="164.31" y1="491.62" x2="200.97" y2="454.96" gradientTransform="matrix(0.98, 0.18, -0.18, 0.98, 190.48, -450.65)" xlink:href="#linear-gradient"/><linearGradient id="linear-gradient-10" x1="215.66" y1="453.13" x2="191.98" y2="476.81" gradientTransform="matrix(0.98, 0.18, -0.18, 0.98, 190.48, -450.65)" xlink:href="#linear-gradient"/><linearGradient id="linear-gradient-11" x1="182.16" y1="483.47" x2="220.5" y2="445.13" gradientTransform="matrix(0.98, 0.18, -0.18, 0.98, 190.48, -450.65)" xlink:href="#linear-gradient"/><linearGradient id="linear-gradient-12" x1="267.92" y1="-193.5" x2="330.56" y2="-193.5" gradientTransform="matrix(0.99, -0.14, 0.14, 0.99, 10.63, 244.81)" xlink:href="#linear-gradient"/><linearGradient id="linear-gradient-13" x1="359.23" y1="136.54" x2="391.4" y2="136.54" gradientTransform="matrix(0.23, 0.97, -0.97, 0.23, 289.34, -369.67)" xlink:href="#linear-gradient"/><linearGradient id="linear-gradient-14" x1="253.23" y1="109.05" x2="285.4" y2="109.05" gradientTransform="translate(88.84 -207.61) rotate(37.3)" xlink:href="#linear-gradient"/><linearGradient id="linear-gradient-15" x1="224.2" y1="61.94" x2="244.69" y2="61.94" gradientTransform="translate(-4.93 -37.21) rotate(6.75)" xlink:href="#linear-gradient"/><linearGradient id="linear-gradient-16" x1="285.07" y1="113.31" x2="333.3" y2="113.31" gradientTransform="translate(165.8 -310.91) rotate(59.25)" xlink:href="#linear-gradient"/><linearGradient id="linear-gradient-17" x1="228.94" y1="34.1" x2="265.99" y2="34.1" gradientTransform="translate(-22.42 37.43) rotate(-7.2)" xlink:href="#linear-gradient"/><linearGradient id="linear-gradient-18" x1="241.69" y1="77.68" x2="262.84" y2="77.68" gradientTransform="translate(30.99 -150.34) rotate(25.19)" xlink:href="#linear-gradient"/><linearGradient id="linear-gradient-19" x1="351.5" y1="148.85" x2="371.16" y2="148.85" gradientTransform="matrix(0.22, -0.98, -0.98, -0.22, 305.7, 407.01)" xlink:href="#linear-gradient"/><linearGradient id="linear-gradient-20" x1="225.41" y1="84.18" x2="243.18" y2="84.18" gradientTransform="translate(-8.34 -62.78) rotate(6.38)" xlink:href="#linear-gradient"/><linearGradient id="linear-gradient-21" x1="282.04" y1="128.64" x2="295.03" y2="128.64" gradientTransform="matrix(0.77, 0.64, -0.64, 0.77, 76.86, -234.64)" xlink:href="#linear-gradient"/><linearGradient id="linear-gradient-22" x1="238.29" y1="24.8" x2="249.55" y2="24.8" gradientTransform="translate(0.38 131.73) rotate(-23.95)" xlink:href="#linear-gradient"/><linearGradient id="linear-gradient-23" x1="360.3" y1="161.26" x2="402.13" y2="161.26" gradientTransform="translate(359.43 -368.48) rotate(86.07)" xlink:href="#linear-gradient"/></defs><title>Right2</title><g id="Layer_2" data-name="Layer 2"><g id="Right2"><path id="arm_shadow_left" d="M340.86,212.26c-17.51-.67-37.85,10.64-46.15,13.1s-24.95-3.7-33.2-.92c13.44-11.77,18.77-20.95,23.91-31.91s3.82-21,8-23.15,8.09-39.75-1.41-42.52c-10.48-3.06-25.55,4.2-29.51,6.81S252,155.15,251.93,159s-10,11.59-12.37,19.69-8.72,34.07-8.67,39.37-7.48,27.68-6.29,33.75,2.64,15.07,15.15,16.25,37.43-6.21,49.7-12.11,54.2-19.91,58.77-21Z" fill="#dd7243"/><path id="shirt_back" d="M189.64,132.67c-6.57,2.76-8.1,20.35-7.55,38.17S222.4,242,225.52,232.66,206.31,125.68,189.64,132.67Z" fill="#bca675"/><path id="hair_side4_left_Zz-94" d="M342.18,29.72c-7.75-1.45-20.86,6.31-21.92,8s9.48,24.14,16,31.06S351.65,31.48,342.18,29.72Z" fill="url(#linear-gradient)"/><path id="hair_side3_left_Zz-63" d="M338.7,13.85c-7.35-3-22.95,7.27-24.61,12.42-.63,1.93,22.61,35.71,31.28,39.6C355.79,70.56,351.92,19.26,338.7,13.85Z" fill="url(#linear-gradient-2)"/><path id="hair_side2_left_Zz74" d="M347.51,34.67c-3-2.56-11.42-.12-11.42-.12s.28,18.62-10.26,33.51-14.3,44-14.3,44S328.3,98,339.42,83.1,352.25,38.77,347.51,34.67Z" fill="url(#linear-gradient-3)"/><path id="hair_side_left_Zz86" d="M338.09,73c-.71-11,1.67-29,1.67-29s-7,5.31-8.06,8.56c-2.89,8.68-5.12,12.55-6.56,14.11,2.69,1.34,8.34,8.16,17.59,33C342.73,99.7,338.81,84,338.09,73Z" fill="url(#linear-gradient-4)"/><path id="pelvis" d="M299.91,294.88c-2.12-5.56,2.19-12.16-39-20.59-19.1-3.92-24.64-4.32-37.36-7s-32.44,11.12-41,35,42.16,72.5,62.86,76.79,57.78-50.31,59.55-53.52S302,300.43,299.91,294.88Z" fill="#4c3f26"/><path id="pants_leg_right" d="M190.49,302.08c-18.31-5.46-29.62,49.25-37.14,81.38s.88,70.13-13.69,75.94S100.89,490.23,99,496.48s-14.93,35.63-30,46.16S26.84,592,26.84,592L61,618.35c11.63-20.49,87.05-84.05,103.56-91.7s24.11-21.36,30.68-32.72,41.25-88.23,48.29-114.33S204.92,306.38,190.49,302.08Z" fill="#aa8b4d"/><path id="pants_leg_left" d="M427.54,462.2c-2.1-10.64-.38-21.58-8.21-29.31S364.69,365.12,350,349.05s-50-52.8-62.91-25c-8.81,18.89-22.83,46.49-18,59.06s34.77,46.71,56.54,53,43.64,26.1,45.65,30.91c-11.45,7.27-14.27,14.93-17,37.83-1.06,8.92,5.6,36.78,15.13,67,8.5,26.9,6.62,36.94,6.27,38.15l27,1.63S429.65,472.84,427.54,462.2Z" fill="#4c3f26"/><path id="torso" d="M295.65,33.91H249.42l2.16,36.31S245,86.16,243,90.16,205.18,109.94,199,115.52s-12.85,71.68-3.4,93.91,87.17,17.27,94.07,7.78,8-45.3,2.64-57.43-31.95-46.16-31.95-46.16L295.65,89Z" fill="#ffca8a"/><path id="torso_shadow" d="M286.09,128.11c-2.5-3.5-14.07-6.7-14.07-6.7-.25-5.25,13.58-17.2,13.58-17.2l-21.83-49.8S258,84.66,256.52,91.16c-10,3.5-22.5,20.75-22.5,20.75a54.06,54.06,0,0,0-20.5,0c30.5,10,34.25,36.75,31.25,56.25-4-15.75-29.25-15.75-31.25,0s5.5,46.38,46.38,46.38S288.59,131.61,286.09,128.11Z" fill="#dd7243"/><path id="shirt_torso" d="M285.75,124.46c2.75,5.5-2.05,23.29-11.23,23.7s-41.41-32.63-47.16-44.38c-3.5-3.75-25.89,2-36.53,7.63,42.85,2.73,66.78,31.25,62.11,60.59s-41.33,40-61.2,26.95c.63,14.64,10.87,34.71,11.2,41.05s10,23-12.11,43.66C214.06,299,257.65,302.15,297,287.48c0,0-7.6-29.82-9.6-37.82s21.49-47.25,22.21-65.83S296.75,142.21,285.75,124.46Z" fill="#ffe8ae"/><path id="shirt_abs_shadow" d="M302.17,192c-2.61-12-36.88,6.84-48.33,10.18s-25.64,93.08-25.64,93.08c22.55,6.2,65.1-3.58,68.4-7.58s-5.3-28.5-9.45-37S304.77,204,302.17,192Z" fill="#bca675"/><path id="face_shadow" d="M302,12.73a39.68,39.68,0,0,0-38.34,61.32c-1.35,8-1.17,17.72,3.39,22.89,7.58,8.59,18.72,15.81,21.59,14.85s21.81-13.71,21.81-13.71c3.28.61,8.15-.58,9-1s-.9-7-.69-9.85a10,10,0,0,1,.68-2.71A39.69,39.69,0,0,0,302,12.73Z" fill="#dd7243"/><path id="face" d="M304,19.16a36.53,36.53,0,0,0-36.67,55.56C265.86,82,265.8,91,269.88,95.85c6.78,8.08,16.86,15,19.53,14.16s20.38-12.12,20.38-12.12a19.73,19.73,0,0,0,8.34-.69c.83-.33-.67-6.47-.41-9.07a8.91,8.91,0,0,1,.69-2.48A36.53,36.53,0,0,0,304,19.16Z" fill="#ffca8a"/><path id="face_nose_shadow" d="M317,92.49c-1.09-.91-10.49,2-9.72,2.85,1.87,2,10.56,2.84,10.81,1.86S318.12,93.4,317,92.49Z" fill="#dd7243"/><path id="face_toplip_shadow" d="M305.38,98.49s-5.61.42-8.09-.5a11.69,11.69,0,0,0,5.33,1.7,30.43,30.43,0,0,1,2.55,1.93s2.85-.84,3-2S305.88,99.14,305.38,98.49Z" fill="#dd7243"/><path id="face_chin_shadow" d="M301.34,103.18c-.34-.74-4.09-1.94-5.2-1.15s0,3.26,1,3.7S301.67,103.93,301.34,103.18Z" fill="#dd7243"/><path id="face_eye_shadow_right" d="M325.54,72.56c-.88-1.55-13.34-2.8-17.57,1.83-1.57,1.73,7.3,9.48,8.95,8.53S326.43,74.11,325.54,72.56Z" fill="#dd7243"/><path id="shoe_rim_left" d="M411.1,573.48l-1.7,32-48.52-6.89,7-28Z" fill="#1c1c1c"/><path id="shoe_left" d="M445,646.49c-4.11-4.54-25.35-7-31.32-7.58-1.25-8.41-9.44-29.34-9.27-30.27s4.25-24.07,4.25-24.07l-38.18,4.1s1.86,16.11.51,23.05-7.05,14-9.51,23.22-1.55,30.63-1.55,30.63l27.3,1.37s.62-5.64,7.63-5.62,12.09,11.4,15.75,11.58S447.47,670,447.47,670,449.09,651,445,646.49Z" fill="#1c1c1c"/><path id="face_shadow_right" d="M331.3,35.53c-.16-5.43-12.62-21.43-20.12-18.84-1.42.48-3.12,2-5,4.3-9,4.35-21.74,14.56-26.22,22.43-5.12,9-7.42,30.92-11.89,35s-14.29,7.45-14.29,7.45,11.72-1.26,16.47-5.56a12.78,12.78,0,0,0,2.33-3.23c-1.39,5.52-2.32,10.06-2.79,12.46-3.39,3-7.21,6-11.6,9.22,0,0,20.06-9.31,26.9-15.83,3.31-3.16,8.9-10.91,13.77-18C314.29,61,322.55,57,324.18,55.17A11,11,0,0,0,326,51.41c4.58-1.54,7.89-3,8.09-3.69C334.38,46.57,333.43,40.94,331.3,35.53Zm-28,24.4-1.52.73,2.3-3.47.9-.61c1.85-.25,3.89-.61,6-1.06C308.32,57.19,305.67,58.74,303.29,59.93Z" fill="#dd7243"/><path id="hair_side6_right_Zz34" d="M303.13,59.77c-10.63,2.78-26.77,4-26.77,4,29.45,1,45.46-2.34,48.2-4.39S330.14,49,330.14,49,313.76,57,303.13,59.77Z" fill="url(#linear-gradient-5)"/><path id="hair_side5_right_Zz-145" d="M331.46,31.16c-6.36-7.24-39.87,23-30.59,25.07s33.93-.33,34.87-2.12S336.66,37.09,331.46,31.16Z" fill="url(#linear-gradient-6)"/><path id="hair_back_Zz-2" d="M332.14,22.35c-1.73-6.61-28.5-19.44-34.37-21.82s-37.72,4.1-40.54,4.33-7.86,8.88-9.47,11.87S241.68,59.32,242,64s-.24,6.49,8.37,9.16l9.82-12.82s7.47,8.78,11.74,10.6S333.87,29,332.14,22.35Z" fill="url(#linear-gradient-7)"/><path id="hair_side4_right_Zz-145" d="M304.3,42.54c-15.86,21.87-25.6,33.67-53.22,46,0,0,21.54-5,29.56-10s29.47-27.05,29.47-27.05Z" fill="url(#linear-gradient-8)"/><path id="hair_side3_right_Zz35" d="M283.71,38.84c-6.85,7.75-13.59,28.75-18.79,31.85s-15.52,4.37-15.52,4.37,11.73,1.17,17.26-2.07,14.71-22.42,23.71-29.82,24.77-13,24.77-13l2.61-8.68C308.61,22.57,290.57,31.1,283.71,38.84Z" fill="url(#linear-gradient-9)"/><path id="hair_side2_right_Zz-145" d="M319.71,19.06c-9.56,1.21-39.94,43-30.44,42.72s45.91-18.16,46.27-20.15C336.51,36.3,327.59,18.06,319.71,19.06Z" fill="url(#linear-gradient-10)"/><path id="hair_side_right_Zz34" d="M325.72,25.13c-5.39-3.2-32.8,7.7-43.41,23s-18.71,35.6-18.71,35.6,26.46-12.75,37.27-27.45,28.56-20.29,28.56-20.29S329.08,27.13,325.72,25.13Z" fill="url(#linear-gradient-11)"/><path id="brow_right" d="M325.34,79.42c-.46-.54-5.6-11.55-6.66-12.22s-6.85-1.85-6.85-1.85a27.65,27.65,0,0,1,4.26,3.6c1.11,1.26,5,10.4,6.12,11.12S325.8,80,325.34,79.42Z" fill="#1c1c1c"/><path id="hair_top_Zz8" d="M285.47.8C282,1,244.87,14.49,248.45,14c16-2.13,26.06,6.66,26.06,6.66S296.81,9.45,310.8,9.17C310.8,9.17,289,.63,285.47.8Z" fill="url(#linear-gradient-12)"/><path id="cheek_highlight_right" d="M293.61,75.13c-1.16-.09-2,5.27-1.49,6.48s9.23-3.7,9.85-4.38S295.56,75.28,293.61,75.13Z" fill="#fce7ca"/><path id="neck_highlight_right" d="M221.64,104.61c-.35-.52-.72-.83-1.06-.76-2.61.52-11.89,3.38-11,4.19s13.47,6,14,4.32c.28-.92-.16-3.36-.87-5.39a38.53,38.53,0,0,0,5.36-.12c1.8-.32,12.83-11.19,13.2-12.15C241.61,93.93,227.9,101.26,221.64,104.61Z" fill="#fce7ca"/><path id="pants_shin_shadow_right" d="M161.2,503c.18,4.71,2.86,8,5.57,11s10.44-3.36,14.65-8.87S160.73,491.14,161.2,503Z" fill="#4c3f26"/><path id="pants_thigh_highlight_left" d="M396.05,435c-1.71,4.4-.56,8.48.74,12.28s10.92,1.07,17-2.31S400.37,423.91,396.05,435Z" fill="#aa8b4d"/><path id="pants_calf_shadow_right" d="M113.28,504.66c-8.69-10.88-40.51,51.53-35,63.67,4.1,9,26.78-6.28,38.06-11.65S122,515.54,113.28,504.66Z" fill="#4c3f26"/><path id="shoe_right" d="M65.34,646c-2.25-2.25-11.77-11.84-18.77-11.84.5-9.75,18.77-26.91,18.77-26.91L26.84,592s-20,31.5-22.25,36S0,643.25,0,652l10.13,21.78H70.34S67.59,648.28,65.34,646Z" fill="#1c1c1c"/><path id="shoe_rim_right" d="M75,590.83c-13.28,4.38-25.56-12.31-28.29-23.43-1.25-5.06-19.76,13.38-28.1,23.38,1,15.67,27.67,34,43.59,31,0,0,13.41-25,15.08-27.66S75,590.83,75,590.83Z" fill="#1c1c1c"/><path id="pants_thigh_shadow_right" d="M174,312.56c-3.34,8.14-6.56,25.2-6.86,30.45S190,308.93,192.72,306.7,177.62,303.63,174,312.56Z" fill="#4c3f26"/><path id="shoe_highlight_right" d="M45.17,640.12c-6.66-1-28.75,4.63-26.58,10,1.76,4.33,40.25,0,44.25-1.34S51.84,641.12,45.17,640.12Z" fill="#203f4f"/><path id="eye_white_right" d="M319,76.4c-1.32-1.12-6.52-1.82-6.47-1.17s-.38,3.33,4.12,5.69C318.64,80.2,321,78.05,319,76.4Z" fill="#f9dacf"/><path id="eye_shadow_right" d="M312,74.47l.23,1.74a16.44,16.44,0,0,1,6.35,1.19c1.13.7,1.32-1.6,1.32-1.6S313.52,74,312,74.47Z" fill="#d1bbb4"/><path id="eye_lash_right" d="M321.85,76.5c-2.11-1.9-7.14-2.55-9.31-2.3a5.65,5.65,0,0,1-2.71-.53s2.29,5.54,7,7.31c-4.73-2.48-4-5.38-4-5.38a11,11,0,0,1,5.26,1.09c2.63,1.16,2.94,1.89,3,2.07A4.52,4.52,0,0,0,320.5,77S320.49,76.48,321.85,76.5Z" fill="#1c1c1c"/><path id="eye_iris_right" d="M319.33,75.75a1.92,1.92,0,0,1,.32,2.74,2,2,0,0,1-2.77.5,1.93,1.93,0,0,1-.32-2.74A2,2,0,0,1,319.33,75.75Z" fill="#1c1c1c"/><path id="eye_reflection_right" d="M317.13,78.06c-.08.27-1.3,0-2.72-.48s-2.5-1.19-2.42-1.45,1.31,0,2.73.48S317.22,77.8,317.13,78.06Z" fill="#fcf7f5"/><path id="arm_right" d="M236.55,197.42c-19-1.44-24.5,3.78-33.51,1.06S190.8,192,172.62,188.21c10.37-6.26,6.88-6.68,18.09-13.56s9-11.49,14.08-10.92,31.09-31.23,24.12-39.42c-7.68-9-16.42-13.53-21.46-14.64-11.77-2.59-30.43,9.71-32.79,13.14s-18.32,7.59-25.32,13.51S122.09,165.66,119,170.49,95.64,191.14,93.1,197.35s-10,14.71,2.15,20.9c17.62,9,32.53,15.48,54.41,15,14.79-.33,84.39-8.77,89.39-9.77Z" fill="#ffca8a"/><path id="forearm_shadow_right" d="M227.56,215.21c-1.36-2.1-13.1,3.21-18.38,3.35s-56.33-4.62-65.41-6.23-21.65.76-24.63-5-4.2-4.58-12.31-10.82C103.55,194,92.22,205.54,92,210.28s31.28,15.3,45.7,19.28,62.87-6.47,66.32-4.83,17.24,0,19.67-.41S228.92,217.31,227.56,215.21Z" fill="#dd7243"/><path id="collar_highlight_right" d="M247.85,121.21c-1.66-2.08-8.47-9-8.76-7.79s.86,14.74,2.62,14.41S248.84,122.44,247.85,121.21Z" fill="#fce7ca"/><path id="forearm_highlight_right" d="M194.21,199.28c-18.67-6.21-56.57-15.75-66.48-14.55-7.07.85,4.88,9.57,9.75,16.42S212.88,205.49,194.21,199.28Z" fill="#fce7ca"/><path id="arm_shadow_right" d="M163.46,133.76c-21.28,1-57.26,52.41-57.26,52.41,9.38-3.94,44.89-6,63.52,2.82,8.36-4.75,24.28-17.51,28.66-24.35C187.55,164.67,156.16,153.42,163.46,133.76Z" fill="#dd7243"/><path id="armpit_shoulder_right" d="M221.1,145.27c-3.43.68-4.84,5-7,9.07s7.46.2,10.42-1.05S225.64,144.37,221.1,145.27Z" fill="#dd7243"/><path id="shoulder_highlight_right" d="M202.14,114.61c-2.37-2.67-15.38,1.91-21.42,5.71s-11.59,9.7-20.18,12.23-16.4,13.54-14.95,15.71,31.11-11.44,33.67-13.46S205.12,118,202.14,114.61Z" fill="#fce7ca"/><path id="glove_streak6" d="M286.24,181.34c-78,16.82-142,27.31-141.15,29.82s66.17-3.9,144.16-20.72,139.1-37.68,138.27-40.2S364.23,164.51,286.24,181.34Z" fill="#203f4f"/><path id="glove_streak5" d="M250.34,200.11c-66.41,14.33-120.24,25.29-120.08,25.78s54.25-9.68,120.67-24,120-27.39,119.84-27.88S316.76,185.78,250.34,200.11Z" fill="#203f4f"/><path id="glove_streak4" d="M228.2,209.43C161.79,223.75,108,234.72,108.13,235.21s54.25-9.68,120.66-24,120-27.38,119.84-27.87S294.62,195.1,228.2,209.43Z" fill="#203f4f"/><path id="glove_dot4" d="M214.05,209.42c.82,2.05-1.05,4.37-4.18,5.19s-6.34-.18-7.17-2.23,1.06-4.37,4.19-5.19S213.23,207.37,214.05,209.42Z" fill="#203f4f"/><path id="glove_dot3" d="M222,211.34c.34.85-.43,1.81-1.73,2.15s-2.63-.07-3-.92.43-1.82,1.73-2.16S221.62,210.49,222,211.34Z" fill="#203f4f"/><path id="glove2_right" d="M373.7,155.83c-4.15-1.54-27.62,11.7-27.62,11.7,3.24,1.95,4.12,6.74,6.14,9.78s19.52,2.31,22.4,1.78,8.4-7.45,8.91-9.94S377.85,157.38,373.7,155.83Z" fill="#203f4f"/><path id="skin_dot6" d="M80,198.91a2,2,0,0,1-2.1,2,2.17,2.17,0,0,1-2.43-1.69,2,2,0,0,1,2.1-2A2.17,2.17,0,0,1,80,198.91Z" fill="#fce7ca"/><path id="skin_dot5" d="M84.81,204.39a1.38,1.38,0,0,1-1.44,1.34,1.47,1.47,0,0,1-1.65-1.16,1.37,1.37,0,0,1,1.43-1.33A1.48,1.48,0,0,1,84.81,204.39Z" fill="#fce7ca"/><path id="skin_dot4" d="M188.06,118.81c.22,2.43-2,4.55-5.06,4.72s-5.63-1.65-5.85-4.08,2-4.55,5.06-4.73S187.84,116.38,188.06,118.81Z" fill="#fce7ca"/><path id="shirt_streak2" d="M373.41,156.84c-6.83,2.41-87.3,21.32-100.68,24.44,50.43-5.45,99.78-22.88,102.85-23.23s10,1.09,10,1.09C383.17,157.27,380.23,154.44,373.41,156.84Z" fill="#fce7ca"/><path id="glove_streak3" d="M270.82,196.28c-78,16.82-142,27.31-141.15,29.82s66.17-3.9,144.16-20.73,139.09-37.68,138.26-40.19S348.81,179.45,270.82,196.28Z" fill="#203f4f"/><path id="glove_streak2" d="M234.92,215.05c-66.42,14.33-120.24,25.29-120.08,25.78s54.25-9.68,120.67-24,120-27.39,119.84-27.88S301.33,200.72,234.92,215.05Z" fill="#203f4f"/><path id="glove_streak" d="M212.78,224.37C146.36,238.69,92.54,249.65,92.7,250.15s54.25-9.68,120.67-24,120-27.38,119.84-27.87S279.19,210,212.78,224.37Z" fill="#203f4f"/><path id="highlight_streak" d="M286.59,184.29c-66.41,14.32-120.24,25.29-120.08,25.78s54.25-9.68,120.67-24,120-27.38,119.84-27.87S353,170,286.59,184.29Z" fill="#fff"/><path id="glove_dot2" d="M198.63,224.36c.82,2-1,4.37-4.19,5.19s-6.34-.18-7.16-2.23,1.05-4.37,4.18-5.19S197.8,222.31,198.63,224.36Z" fill="#203f4f"/><path id="glove_dot" d="M206.54,226.28c.34.85-.44,1.81-1.74,2.15s-2.63-.07-3-.92.44-1.82,1.74-2.16S206.2,225.43,206.54,226.28Z" fill="#203f4f"/><path id="glove_right" d="M254.37,196.67c-5.87-2.18-39.08,16.56-39.08,16.56,4.58,2.75,5.82,9.52,8.69,13.83s27.61,3.26,31.69,2.52,11.88-10.55,12.6-14.07S260.24,198.85,254.37,196.67Z" fill="#203f4f"/><path id="skin_dot3" d="M64.54,213.85a2,2,0,0,1-2.1,2,2.16,2.16,0,0,1-2.42-1.7,2,2,0,0,1,2.1-2A2.16,2.16,0,0,1,64.54,213.85Z" fill="#fce7ca"/><path id="skin_dot2" d="M69.38,219.33A1.37,1.37,0,0,1,68,220.67a1.49,1.49,0,0,1-1.66-1.16,1.37,1.37,0,0,1,1.44-1.33A1.47,1.47,0,0,1,69.38,219.33Z" fill="#fce7ca"/><path id="skin_dot" d="M167.58,138.47c-3,.18-5.63-1.65-5.85-4.08s2-4.55,5.06-4.73,5.63,1.66,5.85,4.09S170.59,138.3,167.58,138.47Z" fill="#fce7ca"/><path id="shirt_streak" d="M370.19,174.08s-7-1.43-10-1.09-52.42,17.77-102.85,23.23c13.38-3.12,93.85-22,100.67-24.44S367.75,172.21,370.19,174.08Z" fill="#fce7ca"/><path id="hair_tail11_Zz-76" d="M256.11,10.76C249.33,4.68,226.23,19,222,36.1c0,0,13.93-15.45,31.65-8,6.15,2.58,8.36,12.2,12.95,10.33C277.8,33.86,262.89,16.84,256.11,10.76Z" fill="url(#linear-gradient-13)"/><path id="hair_tail10_Zz-37" d="M235.45,22.37c-9.1-.44-18,25.21-10.51,41.2,0,0,1.06-20.77,19.51-26.17,6.41-1.87,14.19,4.19,16.57-.15C266.86,26.6,244.54,22.8,235.45,22.37Z" fill="url(#linear-gradient-14)"/><path id="hair_tail9_Zz-6" d="M230.34,15.39c-10.4,7.08-26.21,26.47-16.21,44.91,8.32,15.33-8.1,27.49-8.1,27.49,20.63-9.39,12.46-29.49,18.28-42.65C229.09,34.35,232,33,232.88,32.85,230.71,32.85,217.21,32.18,230.34,15.39Z" fill="url(#linear-gradient-15)"/><path id="hair_tail8_Zz-59" d="M221.1,17C208.63,17.4,203.57,6.5,200,.46c4.26,16.92,12,19.75,19,19.45s25.88-8.08,35.73,4.09C242.1,7.66,231.43,16.34,221.1,17Z" fill="url(#linear-gradient-16)"/><path id="hair_tail7_Zz7" d="M228.48,43.81C225,52.73,216.31,57.53,211,58.2c16.47-2.57,21.72-8.59,23.66-13.64s-2.45-19.06,9.15-22.27C228.38,26.17,231.22,36.35,228.48,43.81Z" fill="url(#linear-gradient-17)"/><path id="hair_tail6_Zz-25" d="M222.36,16c-5.78.95-9.31,15.51-2.44,24.55,0,0,6.42-14.15,10.12-16.31s9.48.72,10.39-2.34C242.67,14.38,228.13,15,222.36,16Z" fill="url(#linear-gradient-18)"/><path id="hair_tail5_Zz77" d="M251,14.63c-2.76-1.07-3.93,4.82-7.63,6.31s-17.75-1.84-17.75-1.84c2.73,10.2,15.45,15.89,19.43,12.18S257.77,17.24,251,14.63Z" fill="url(#linear-gradient-19)"/><path id="hair_tail4_Zz-6" d="M223.4,15.22c-9,6.19-22.59,23.1-13.81,39,7.3,13.25-6.87,23.89-6.87,23.89,17.84-8.26,10.63-25.65,15.61-37.1,4.09-9.38,6.59-10.58,7.36-10.71C223.81,30.35,212.1,29.86,223.4,15.22Z" fill="url(#linear-gradient-20)"/><path id="hair_tail3_Zz-40" d="M235.49,32c-8,.2-23,5.13-24,18.38-.82,11-13.74,11.88-13.74,11.88,14.21,2.06,16.74-11.46,24.35-16.47,6.28-4.14,8.27-3.85,8.79-3.62C229.72,41.42,222.72,36.43,235.49,32Z" fill="url(#linear-gradient-21)"/><path id="hair_tail2_Zz24" d="M233.23,51.17c-.77-6.46.23-7.9.61-8.21-1,.6-7.6,4.1-6.1-7.54-2.94,6.27-5,19.87,4.94,25.77,8.23,4.92,3.88,15.27,3.88,15.27C243.67,66.23,234.17,59,233.23,51.17Z" fill="url(#linear-gradient-22)"/><path id="hair_tail_Zz-86" d="M218.83,24C209,19.5,209.36,9.08,209,3c-3.33,14.77,1.54,20,7.1,22.5s23.19,3.87,26.06,17.15C238.73,25.06,227.07,27.6,218.83,24Z" fill="url(#linear-gradient-23)"/><path id="palm_shadow2_left" d="M386,215.72a1.52,1.52,0,0,0,.42,0,17.37,17.37,0,0,1,2.36,1.42c1,.72,4.78,1.6,5.88.32s-1.59-4.22-3.73-5.37a35.89,35.89,0,0,1-3.12-2.16,24.68,24.68,0,0,0-1.64-4c-.1-.51-.21-1-.24-1.34-.15-1.38-6.27-6.71-7.62-6.71a4.89,4.89,0,0,0-1.18.2,2.43,2.43,0,0,0-.29-.2c-.83-1.48-2.72-2.68-3.62-3.56-1.31-1.28-10.64-1.62-11.68-.51a5.89,5.89,0,0,0-.84,1.39l-.51-1.33-14.91,8.55c-2,1.14-6.43,5.66-8.22,7.5l29.08,19.29a2.81,2.81,0,0,0,1.54-1.77,12,12,0,0,0,7.11-1.69c4.51.29,5.43-4.18,6.8-4.23s4.18,1.94,5.08,2.74,4.62,2,5.83.85-1.21-4.35-3.23-5.69c-.8-.53-2.93-2.41-5.21-4.48a5.74,5.74,0,0,1,1.16.31A1.75,1.75,0,0,0,386,215.72Z" fill="#dd7243"/><path id="glove_shadow_left" d="M360.25,198.46s-13,6-15.62,7.18S335,213.1,335,213.1c-8.68,5.53-2.39,22,1.29,23.51s19.73-.42,26.78-2.43S360.25,198.46,360.25,198.46Z" fill="#1c1c1c"/><path id="index_left" d="M376.75,204.16a2.28,2.28,0,0,0-.27-.23c-.7-1.54-2.47-2.91-3.29-3.87-1.19-1.38-10.45-2.55-11.59-1.54s-3.56,5.93-2.11,7.79,5.88,1.87,5.88,1.87A52,52,0,0,0,371,208c.3,2,1.16,6.76,2.49,7.28,1.68.65,2.8-1.73,3.56-2.64S377.54,205,376.75,204.16Z" fill="#ffca8a"/><path id="middle_left" d="M385.05,212.78c-.05-.51-.12-1-.13-1.35,0-1.38-5.64-7.24-7-7.36s-5.76,1-5.83,2.81,2.93,4.29,2.93,4.29a49.24,49.24,0,0,0,4.83,3.74l.05.14s2.46,7,4.08,7.5,2.08-1.87,2.56-2.79C386.94,219,385.92,214.82,385.05,212.78Z" fill="#ffca8a"/><path id="palm_shadow_left" d="M357.63,215c-4.58.78-7.73,2.77-6.08,5.47,0,0,9.57,7,9.45,9.67,2.11,4.12,9.87,2.57,11.58,1s3.87-3.52,4.21-6.68C377.69,215.89,365.53,213.62,357.63,215Z" fill="#dd7243"/><path id="thumb_left" d="M365.55,211.46c-2.59,1.22-6.86-.38-10.5,1.3-3.87,1.78-5.16,4.9-3.45,7.6s5.28,1.16,10.92-1.58S368.13,210.24,365.55,211.46Z" fill="#ffca8a"/><path id="face_streak" d="M232.26,82c-45.17,0-81.79-.61-81.79-1.36s36.62-1.37,81.79-1.37,81.79.61,81.79,1.37S277.43,82,232.26,82Z" fill="#ffe8ae"/></g></g></svg>
