<svg xmlns="http://www.w3.org/2000/svg" xmlns:xlink="http://www.w3.org/1999/xlink" viewBox="0 0 487.39 678.15"><defs><linearGradient id="linear-gradient" x1="228.69" y1="-23.96" x2="260.86" y2="-23.96" gradientTransform="matrix(0.99, 0.14, 0.14, -0.99, -11.03, 586.53)" gradientUnits="userSpaceOnUse"><stop offset="0" stop-color="#82422e"/><stop offset="1" stop-color="#602a17"/></linearGradient><linearGradient id="linear-gradient-2" x1="148.89" y1="102.06" x2="181.06" y2="102.06" gradientTransform="matrix(0.89, -0.46, -0.46, -0.89, 137.4, 799.95)" xlink:href="#linear-gradient"/><linearGradient id="linear-gradient-3" x1="223.91" y1="-1.14" x2="244.41" y2="-1.14" xlink:href="#linear-gradient"/><linearGradient id="linear-gradient-4" x1="387.05" y1="-559.58" x2="435.27" y2="-559.58" gradientTransform="matrix(0.86, 0.51, 0.51, -0.86, 146.2, -55.29)" xlink:href="#linear-gradient"/><linearGradient id="linear-gradient-5" x1="539.05" y1="-221.61" x2="576.1" y2="-221.61" gradientTransform="matrix(0.63, 0.78, 0.78, -0.63, 49.54, 55.68)" xlink:href="#linear-gradient"/><linearGradient id="linear-gradient-6" x1="227.96" y1="-22.38" x2="249.1" y2="-22.38" xlink:href="#linear-gradient"/><linearGradient id="linear-gradient-7" x1="612.18" y1="268.45" x2="631.84" y2="268.45" gradientTransform="translate(701.43 167.85) rotate(110.8)" xlink:href="#linear-gradient"/><linearGradient id="linear-gradient-8" x1="431.05" y1="-230.9" x2="448.82" y2="-230.9" gradientTransform="matrix(0.79, 0.61, 0.61, -0.79, 15.05, 164.52)" xlink:href="#linear-gradient"/><linearGradient id="linear-gradient-9" x1="242.09" y1="1.2" x2="255.08" y2="1.2" gradientTransform="matrix(0.99, 0.15, 0.15, -0.99, -21.54, 582.53)" xlink:href="#linear-gradient"/><linearGradient id="linear-gradient-10" x1="200.69" y1="64.53" x2="211.96" y2="64.53" gradientTransform="matrix(1, 0.02, 0.02, -1, 11.68, 665.39)" xlink:href="#linear-gradient"/><linearGradient id="linear-gradient-11" x1="374.56" y1="-255.59" x2="416.39" y2="-255.59" gradientTransform="matrix(0.85, 0.53, 0.53, -0.85, 17.39, 200)" xlink:href="#linear-gradient"/><linearGradient id="linear-gradient-12" x1="804.93" y1="262.14" x2="783.2" y2="283.87" gradientTransform="translate(1043.16 205.75) rotate(130.91)" xlink:href="#linear-gradient"/><linearGradient id="linear-gradient-13" x1="684.93" y1="386.08" x2="661.33" y2="409.67" gradientTransform="translate(1085.08 806.87) rotate(162.02)" xlink:href="#linear-gradient"/><linearGradient id="linear-gradient-14" x1="503.76" y1="472.38" x2="542.1" y2="434.05" gradientTransform="translate(969.85 375.36) rotate(118.55)" xlink:href="#linear-gradient"/><linearGradient id="linear-gradient-15" x1="323.63" y1="369.19" x2="323.63" y2="324.65" gradientTransform="matrix(1, -0.07, -0.07, -1, 21.56, 972.9)" xlink:href="#linear-gradient"/><linearGradient id="linear-gradient-16" x1="245.29" y1="-12.38" x2="277.11" y2="-12.38" xlink:href="#linear-gradient"/><linearGradient id="linear-gradient-17" x1="290.16" y1="220.05" x2="308" y2="202.22" gradientTransform="matrix(1, 0, 0, -1, -0.63, 834.69)" xlink:href="#linear-gradient"/><linearGradient id="linear-gradient-18" x1="321.11" y1="190.33" x2="299.38" y2="212.06" gradientTransform="matrix(1, 0, 0, -1, -0.63, 834.69)" xlink:href="#linear-gradient"/><linearGradient id="linear-gradient-19" x1="290.94" y1="211.67" x2="266.6" y2="236.01" gradientTransform="matrix(1, 0, 0, -1, -0.63, 834.69)" xlink:href="#linear-gradient"/><linearGradient id="linear-gradient-20" x1="259.05" y1="223.61" x2="295.71" y2="186.94" gradientTransform="matrix(1, 0, 0, -1, -0.63, 834.69)" xlink:href="#linear-gradient"/><linearGradient id="linear-gradient-21" x1="310.4" y1="185.12" x2="286.72" y2="208.79" gradientTransform="matrix(1, 0, 0, -1, -0.63, 834.69)" xlink:href="#linear-gradient"/><linearGradient id="linear-gradient-22" x1="276.9" y1="215.46" x2="315.24" y2="177.12" gradientTransform="matrix(1, 0, 0, -1, -0.63, 834.69)" xlink:href="#linear-gradient"/><linearGradient id="linear-gradient-23" x1="259.55" y1="-38.47" x2="322.2" y2="-38.47" xlink:href="#linear-gradient"/></defs><title>right1</title><g id="Layer_2" data-name="Layer 2"><g id="right1"><path id="pelvis" d="M292,381.82c-2.12,5.55,2.19,12.15-39,20.58-19.1,3.92-24.64,4.32-37.37,7s-32.43-11.12-40.95-35,42.16-72.5,62.86-76.79,57.78,50.32,59.54,53.53S294.08,376.26,292,381.82Z" fill="#4c3f26"/><path id="pants_leg_l" d="M390.21,219.38c-1,10.8,1.85,21.5-5.15,30s-47.37,73-60.37,90.54-44.27,57.67-60,31.4c-10.71-17.9-27.5-43.89-24-56.9s29.78-50,50.78-58.54,40.72-30.46,42.22-35.46c-12.13-6-15.73-13.37-20.8-35.87-2-8.76,1.78-37.16,8.15-68.17,5.68-27.63,2.77-37.43,2.3-38.59l26.72-4.41S391.21,208.58,390.21,219.38Z" fill="#4c3f26"/><path id="shoe_l" d="M371.38,23.08c-2.47,5.61-21.87,14.57-27.34,17.06,1.46,8.37.27,30.81.73,31.65l11.6,21.5-37.52,8.13s-3.31-15.88-6.77-22-11.1-11.06-16.34-19-11.11-28.58-11.11-28.58l25.48-9.9s2.36,5.16,9,2.94S327,10.16,330.43,8.84,366.35,0,366.35,0,373.85,17.47,371.38,23.08Z" fill="#1c1c1c"/><path id="shoe_rim_l" d="M319.69,110.19,309.85,83.1,357.4,71.25l5,31.64Z" fill="#1c1c1c"/><path id="pants_thigh_highlight_l" d="M361.69,249.67c-2.15-4.2-1.44-8.38-.53-12.29s10.75-2.19,17.13.54S367.12,260.27,361.69,249.67Z" fill="#aa8b4d"/><path id="pants_leg_r" d="M187.62,371.68c-18.43,5-28.51-49.9-35.31-82.2s9.59-73.69-4.85-79.83-45.2-28.09-46.94-34.37-14.13-36-29-46.82S15,65.61,15,65.61l33.37-6.5c11.18,20.75,102.08,79.45,118.41,87.48S190.38,168.47,196.7,180,236,269.12,242.41,295.37,202.15,367.7,187.62,371.68Z" fill="#aa8b4d"/><path id="pants_shin_shadow_r" d="M153.52,156.64c-.24-4.71,2.13-8.23,4.57-11.42s10.7,2.42,15.39,7.53S154.12,168.53,153.52,156.64Z" fill="#4c3f26"/><path id="pants_calf_shadow_r" d="M112.45,165.88c-7.69,11.61-44.95-47.71-40.51-60.29,3.28-9.3,27.24,3.86,39,8.2S120.13,154.27,112.45,165.88Z" fill="#4c3f26"/><path id="pants_thigh_shadow_r" d="M174.26,361.11c-4-7.81-8.78-24.52-9.54-29.72s25.82,31.9,28.75,33.87S178.7,369.67,174.26,361.11Z" fill="#4c3f26"/><path id="shoe_r" d="M46.64,41.07C48,50.74,69.08,70.18,69.08,70.18l-37,18.63S9.36,59.22,6.72,54.94.78,40.2,0,31.48L15.08,8.26l53-4.76s-.46,25.65-2.5,28.09S53.61,40.45,46.64,41.07Z" fill="#1c1c1c"/><path id="shoe_rim_r" d="M80.14,85.71c-13.62-3.18-24.36,14.54-26.09,25.86C53.27,116.72,33.18,100,24,90.79,23.58,75.1,48.51,54.48,64.63,56c0,0,15.59,23.71,17.49,26.21S80.14,85.71,80.14,85.71Z" fill="#1c1c1c"/><path id="shoe_highlight_r" d="M46.06,39.28c-6.56,1.59-29-2.05-27.37-7.58,1.36-4.48,40.08-3.6,44.19-2.63S52.61,37.69,46.06,39.28Z" fill="#203f4f"/><path id="arm_shadow_l" d="M416.82,556.59c-1.88,2.43-21-12.53-31.83-16.55-10.3-3.83-28.61-2.25-36.45-12.61-3.5.12-45.56,15.81-55,21.43-18.44,10.95-37.34,15.65-53.51.36-4.36-4.11-7.53-23.56-8.12-32.21-.79-11.63,15.67-5.65,41.44-13,36.53-10.45,66.88-19.9,73.18-20,8.3-.14,35.24,11.52,43.48,16.33,11.34,6.62,34.7,29.22,34.68,31.28S418.69,554.15,416.82,556.59Z" fill="#dd7243"/><path id="arm_l" d="M408.87,550.1c-3.08-1-29.88-17.4-43.55-17.4-3.91,0-12.32-9.71-18-14.25,17.48,7.45,22.28-6.3,27.49-2.57,13.47,9.67,39.71,25.21,39.71,25.21S412,551.13,408.87,550.1Z" fill="#ffca8a"/><path id="arm2_l" d="M349.46,515.44c-4-7-28.5,6-53,11.54s-45.8-6.57-44.5,3.42c3,23,30,14,55.5,12.67S353.46,522.44,349.46,515.44Z" fill="#ffca8a"/><path id="glove_shadow_l" d="M447.14,577.07s-16.11-7.39-19.32-8.89-12-9.22-12-9.22c-10.75-6.84-3-27.18,1.58-29.08s24.41.51,33.13,3S447.14,577.07,447.14,577.07Z" fill="#1c1c1c"/><path id="palm_shadow_l" d="M483,551.17c-2.5,1.65-15.34,13.85-15.34,13.85l-21.45,2.34c-.77-2.4.67-6.3,3.11-10.27a32.12,32.12,0,0,1-5.41-.44c-5.66-1-9.56-3.43-7.53-6.77,0,0,11.84-8.65,11.7-12,2.6-5.09,12.2-3.18,14.31-1.19,1.84,1.74,4.1,3.75,4.93,6.82,3.7,1,4.74,5,6.18,5,1.83.06,5.17-2.39,6.29-3.39s5.71-2.5,7.21-1.05S485.49,549.52,483,551.17Z" fill="#dd7243"/><path id="index_l" d="M467.55,570c-.09.09-.21.18-.34.29-.87,1.91-3.06,3.6-4.07,4.78-1.47,1.72-12.93,3.16-14.34,1.91s-4.4-7.33-2.6-9.63,7.26-2.32,7.26-2.32a64.81,64.81,0,0,1,7,.21c.38-2.44,1.44-8.36,3.09-9,2.07-.8,3.45,2.14,4.4,3.26S468.52,569,467.55,570Z" fill="#ffca8a"/><path id="middle_l" d="M477.65,561c0,1.71-7,9-8.64,9.11s-7.12-1.28-7.21-3.48,3.63-5.31,3.63-5.31,8.35-7.4,10.85-6.56S477.68,559.3,477.65,561Z" fill="#ffca8a"/><path id="ring_l" d="M477.05,560.65c-1.07.87-5.31,2.44-6.15,1s.57-5.14.57-5.14,3-8.68,5-9.27,2.57,2.31,3.16,3.45S478.13,559.79,477.05,560.65Z" fill="#ffca8a"/><path id="thumb_l" d="M453.68,561c-3.19-1.51-8.47.47-13-1.61-4.79-2.2-6.38-6.06-4.26-9.4s6.52-1.43,13.51,1.95S456.88,562.49,453.68,561Z" fill="#ffca8a"/><path id="shirt_back" d="M181.69,544c-6.57-2.75-8.1-20.35-7.55-38.17S214.45,434.7,217.57,444,198.36,551,181.69,544Z" fill="#bca675"/><path id="torso_skin" d="M287.7,642.78H241.47l2.16-36.31s-6.56-15.94-8.56-19.94S197.23,566.75,191,561.17s-12.86-71.67-3.4-93.91,87.17-17.27,94.07-7.77,8,45.3,2.64,57.42-32,46.16-32,46.16L287.7,587.7Z" fill="#ffca8a"/><path id="torso_shadow" d="M278.14,548.58c-2.5,3.5-14.07,6.7-14.07,6.7-.25,5.25,13.58,17.21,13.58,17.21l-21.83,49.79s-5.75-30.25-7.25-36.75c-10-3.5-22.5-20.75-22.5-20.75a54.06,54.06,0,0,1-20.5,0c30.5-10,34.25-36.75,31.25-56.25-4,15.75-29.25,15.75-31.25,0s5.5-46.37,46.38-46.37S280.64,545.08,278.14,548.58Z" fill="#dd7243"/><path id="shirt_torso" d="M277.8,552.23c2.75-5.5-2.06-23.28-11.23-23.7s-29.94,26.94-35.69,38.69c-3.5,3.75-31.64,12.81-42.28,7.16C231.44,571.65,249.66,534,245,504.7s-41.33-40-61.2-26.95c.63-14.65,10.87-34.72,11.2-41.05s10-23-12.11-43.67c23.23-15.33,66.81-18.48,106.15-3.82,0,0-7.6,29.82-9.6,37.82s21.49,47.25,22.2,65.84S288.8,534.48,277.8,552.23Z" fill="#ffe8ae"/><path id="shirt_abs_shadow" d="M294.21,484.72c-2.6,12-36.88-6.85-48.33-10.18s-25.63-93.08-25.63-93.08c22.55-6.21,65.1,3.57,68.4,7.57s-5.3,28.5-9.45,37S296.81,472.72,294.21,484.72Z" fill="#bca675"/><path id="hair_tail11" d="M241.11,665.69c-3.49,11.62-21.85-1.61-28.54-7.79s5.33-30.53,22-36.39c0,0-14.07,15.32-5,32.26C232.76,659.65,242.54,660.94,241.11,665.69Z" fill="url(#linear-gradient)"/><path id="hair_tail10" d="M232.5,653.18c-9-1.16-13.31-28-3.11-42.4,0,0-2.61,20.63,14.61,29.18,6,3,14.7-1.63,16.29,3.07C264.16,654.53,241.53,654.35,232.5,653.18Z" fill="url(#linear-gradient-2)"/><path id="hair_tail9" d="M227.57,642.41c-2.1-.55-15.32-3.39-6.94,16.22-8.24-9.51-18.53-32.32-4.12-47.56,12-12.68-.75-28.65-.75-28.65,17.51,14.38,4.45,31.7,6.69,45.91C224.3,640,226.75,642.05,227.57,642.41Z" fill="url(#linear-gradient-3)"/><path id="hair_tail8" d="M224.23,664.13c-16.33-12.64-7.65-23.31-7-33.64.45-12.48-10.45-17.54-16.49-21.12,16.92,4.27,19.75,12,19.44,19S212.07,654.26,224.23,664.13Z" fill="url(#linear-gradient-4)"/><path id="hair_tail7" d="M237.1,630.15c-2.09,5-14.95,12.08-8.79,22.41-8.44-13.43.65-18.83,3.83-26.12,3.63-8.88.69-18.32-2.71-22.5C239.56,617.18,239.18,625.16,237.1,630.15Z" fill="url(#linear-gradient-5)"/><path id="hair_tail6" d="M230.79,654.92c-2.24,7.47-14-1-18.34-5s.75-18.07,11.46-21.84c0,0-2.42,15.35-.51,19.19S231.71,651.87,230.79,654.92Z" fill="url(#linear-gradient-6)"/><path id="hair_tail5" d="M235.65,666.76c-2.9-.62-.63-6.18-2.9-9.46s-15.85-8.22-15.85-8.22c7.89-7,21.64-4.78,22.93.5S242.74,668.3,235.65,666.76Z" fill="url(#linear-gradient-7)"/><path id="hair_tail4" d="M222.9,621.42c-3.54,9.61-2.55,12.21-2.08,12.83-1.35-1.31-10.16-9-12.12,9.34-2.21-10.69-.35-32.31,17-37.75,14.44-4.53,11.55-22,11.55-22C244.44,602.13,227.22,609.71,222.9,621.42Z" fill="url(#linear-gradient-8)"/><path id="hair_tail3" d="M228.68,632.55c-1.32-.36-9.7-2.25-4.5,10.23-5.16-6.07-11.55-20.58-2.33-30.16,7.67-8-.31-18.15-.31-18.15,11,9.21,2.63,20.11,4,29.13C226.62,631,228.16,632.32,228.68,632.55Z" fill="url(#linear-gradient-9)"/><path id="hair_tail2" d="M221.81,625.6c-5.13-4.64-12.27-16.39-5.43-25.68,5.68-7.71-2.34-15.57-2.34-15.57,10.52,6.67,4.55,17,6.73,24.6,1.8,6.26,3.28,7.2,3.74,7.33C223.34,616.12,215.92,615.45,221.81,625.6Z" fill="url(#linear-gradient-10)"/><path id="hair_tail" d="M228.45,650.13c-14-11.2-6.29-20.32-5.59-29.27.57-10.82-8.81-15.36-14-18.56,14.61,4,16.95,10.68,16.58,16.78S218.05,641.4,228.45,650.13Z" fill="url(#linear-gradient-11)"/><path id="hair_side4_l" d="M326.4,646.48c-7.76,1.44-20.87-6.32-21.92-8.05s9.48-24.13,16-31.06S335.86,644.71,326.4,646.48Z" fill="url(#linear-gradient-12)"/><path id="hair_side3_l" d="M322.92,662.35c-7.36,3-22.95-7.27-24.62-12.43-.62-1.93,22.61-35.7,31.28-39.6C340,605.63,336.14,656.93,322.92,662.35Z" fill="url(#linear-gradient-13)"/><path id="hair_side2_l" d="M331.73,641.52c-3,2.57-11.42.12-11.42.12s.28-18.61-10.26-33.5-14.31-44-14.31-44,16.78,14.11,27.9,29S336.46,637.42,331.73,641.52Z" fill="url(#linear-gradient-14)"/><path id="hair_side_l" d="M322.31,603.16c-.72,11,1.67,29,1.67,29s-7-5.31-8.06-8.56c-2.89-8.67-5.12-12.54-6.57-14.11,2.7-1.34,8.35-8.16,17.6-33C327,576.49,323,592.19,322.31,603.16Z" fill="url(#linear-gradient-15)"/><path id="face_shadow" d="M316.79,600a39.69,39.69,0,1,1-56.58-5.12c.89-8.05,3.71-17.37,9.51-21.09,9.64-6.2,22.32-10.11,24.82-8.4s17.25,19.14,17.25,19.14c3.32.3,7.68,2.78,8.43,3.39s-2.78,6.51-3.35,9.29A10,10,0,0,0,316.79,600Z" fill="#dd7243"/><path id="face" d="M316,598.62a36.55,36.55,0,1,1-52.17-3.43c.63-7.42,3-16.07,8.26-19.63,8.74-5.92,20.32-9.8,22.66-8.29s16.3,17.22,16.3,17.22a20,20,0,0,1,7.84,2.94c.7.55-2.42,6.05-2.88,8.62A9.12,9.12,0,0,0,316,598.62Z" fill="#ffca8a"/><path id="face_nose_shadow" d="M316.57,591.66c-1.29.58-9.54-4.8-8.57-5.39,2.35-1.43,10.93.15,10.91,1.16S317.86,591.09,316.57,591.66Z" fill="#dd7243"/><path id="face_toplip_shadow" d="M307,582.72s-5.28-1.94-7.92-1.73a11.79,11.79,0,0,1,5.59-.19,31.51,31.51,0,0,0,3-1.15s2.51,1.58,2.36,2.74S307.65,582.22,307,582.72Z" fill="#dd7243"/><path id="face_chin_shadow" d="M304.38,577.09c-.53.63-4.46.76-5.32-.31s.91-3.12,2-3.28S304.91,576.47,304.38,577.09Z" fill="#dd7243"/><path id="face_eye_shadow_r" d="M319.31,613.16c-1.27,1.25-13.6-.95-16.4-6.56-1-2.08,9.61-7.12,10.93-5.76S320.59,611.91,319.31,613.16Z" fill="#dd7243"/><path id="face_shadow_r" d="M326.1,629c-.2-.72-3.51-2.16-8.09-3.7a10.83,10.83,0,0,0-1.78-3.75c-1.63-1.85-9.89-5.8-25.28-9.74-4.87-7.14-10.46-14.89-13.78-18-6.83-6.52-26.89-15.82-26.89-15.82,4.39,3.18,8.21,6.22,11.6,9.21.47,2.41,1.4,6.94,2.79,12.47a12.68,12.68,0,0,0-2.33-3.24c-4.75-4.3-16.47-5.56-16.47-5.56s9.83,3.35,14.29,7.45,6.77,26,11.89,35c4.48,7.86,17.25,18.08,26.22,22.42,1.84,2.27,3.54,3.82,5,4.31,7.5,2.59,20-13.42,20.12-18.84C325.47,635.76,326.43,630.12,326.1,629ZM303,621.18c-2.11-.45-4.15-.82-6-1.07l-.9-.6-2.3-3.48,1.51.73C297.72,618,300.37,619.5,303,621.18Z" fill="#dd7243"/><path id="eye_white_r" d="M314.08,607.68c-1.57.72-6.76,0-6.54-.64s.55-3.3,5.52-4.35C314.75,603.93,316.39,606.63,314.08,607.68Z" fill="#f9dacf"/><path id="eye_shadow_r" d="M314.76,608.5s-6.61,0-8-.88l.7-1.61a16.23,16.23,0,0,0,6.43.59C315.2,606.24,314.76,608.5,314.76,608.5Z" fill="#d1bbb4"/><path id="eye_lash_r" d="M315.67,607.53s-.15.48,1.16.84c-2.55,1.24-7.56.5-9.58-.33a5.48,5.48,0,0,0-2.75-.23s3.71-4.71,8.72-5.13c-5.23,1.09-5.28,4.09-5.28,4.09a11,11,0,0,0,5.36.4c2.85-.4,3.34-1,3.42-1.19A4.6,4.6,0,0,1,315.67,607.53Z" fill="#1c1c1c"/><path id="eye_iris_r" d="M311.68,607.16a1.92,1.92,0,0,1,1.06-2.54,2,2,0,0,1,2.52,1.23,1.92,1.92,0,0,1-1.05,2.54A2,2,0,0,1,311.68,607.16Z" fill="#1c1c1c"/><path id="eye_reflection_r" d="M310,606.31c-1.51.12-2.75,0-2.76-.28s1.21-.61,2.72-.73,2.74,0,2.75.27S311.52,606.18,310,606.31Z" fill="#fcf7f5"/><path id="brow_r" d="M321,606.5c-.59.4-8.54,9.58-9.74,10s-7.1-.09-7.1-.09a27.16,27.16,0,0,0,5.08-2.31c1.42-.9,7.65-8.64,8.93-9S321.58,606.11,321,606.5Z" fill="#1c1c1c"/><path id="hair_back" d="M317.4,662.71c-2.88,6.2-31.51,14-37.71,15.34s-36.38-10.76-39.12-11.49-6.15-10.14-7.19-13.37,1.61-43,2.76-47.54.92-6.44,9.88-7.53l7.37,14.37s8.92-7.3,13.44-8.34S320.29,656.5,317.4,662.71Z" fill="url(#linear-gradient-16)"/><path id="hair_side6_r" d="M295.53,620.72c-10-4.63-25.63-8.71-25.63-8.71,29.16,4.21,44.32,10.4,46.65,12.91s3.65,11.17,3.65,11.17S305.49,625.34,295.53,620.72Z" fill="url(#linear-gradient-17)"/><path id="hair_side5_r" d="M318.3,653.92c-7.54,6-35.13-29.75-25.63-30.13s33.33,6.38,33.94,8.31S324.48,649,318.3,653.92Z" fill="url(#linear-gradient-18)"/><path id="hair_side4_r" d="M293.61,637.88c-11.71-24.35-19.19-37.7-44.16-54.79,0,0,20.31,8.76,27.31,15.09s24.17,31.88,24.17,31.88Z" fill="url(#linear-gradient-19)"/><path id="hair_side3_r" d="M272.69,637.84c-5.36-8.84-8.24-30.71-12.81-34.69s-14.49-7.06-14.49-7.06,11.75.94,16.61,5.11,10.47,24.68,18,33.57,22.06,17.16,22.06,17.16l1,9C294.28,658.3,278.05,646.69,272.69,637.84Z" fill="url(#linear-gradient-20)"/><path id="hair_side2_r" d="M304.58,663.73c-9.19-2.9-31.62-49.46-22.33-47.46s41.94,26.05,41.94,28.08C324.19,649.76,312.15,666.12,304.58,663.73Z" fill="url(#linear-gradient-21)"/><path id="hair_side_r" d="M311.58,658.83c-5.87,2.18-30.9-13.43-38.62-30.32s-12.06-38.37-12.06-38.37,23.76,17.27,31.77,33.65,24.49,25.07,24.49,25.07S315.25,657.46,311.58,658.83Z" fill="url(#linear-gradient-22)"/><path id="hair_top" d="M277.51,675.89c-3.51-.16-40.59-13.69-37-13.21,16,2.12,26.06-6.67,26.06-6.67s22.3,11.24,36.29,11.51C302.85,667.52,281,676.06,277.51,675.89Z" fill="url(#linear-gradient-23)"/><path id="cheek_highlight_r" d="M289.29,602c-1.14-.23-.5-5.62.33-6.64s7.88,6.08,8.29,6.89S291.21,602.37,289.29,602Z" fill="#fce7ca"/><path id="shoulder_highlight_r" d="M212.63,572.84c-2.61-.51-11.89-3.38-10.95-4.18s13.47-6,14-4.32S214.18,573.15,212.63,572.84Z" fill="#fce7ca"/><path id="neck_highlight_r" d="M210.72,570.48c-1.53-.8,7.64-1,9.44-.64S233,581,233.36,582,212.09,571.2,210.72,570.48Z" fill="#fce7ca"/><path id="arm_r" d="M259.3,514.82c-16.93-8.71-18.9-16.05-28-18.44s-13.84-.84-31.3-7.16c5.56,10.76,2.37,9.29,8.32,21s1.64,14.48,6.29,16.68,10.16,42.87-.07,46.21c-11.27,3.68-21.07,2.94-25.94,1.25-11.39-4-20.86-24.2-21.07-28.36S155.88,530,153,521.26s-7.87-39.25-8-45-9.08-29.79-8-36.42-.84-17.78,12.76-16.69c19.71,1.58,35.82,3.83,54.22,15.68,12.44,8,67.34,51.62,71.07,55.09Z" fill="#ffca8a"/><path id="shoulder_shadow_r" d="M184.78,567.49c-3.25,1.26-10-6.7-12.13-11.7s-2.74-11.46-7.46-16.34-4-16.07-1.69-17.26,15.8,19.44,16.47,21.88S188.86,565.91,184.78,567.49Z" fill="#dd7243"/><path id="forearm_shadow_r" d="M260.94,495c-2.25,1.08-9.48-9.59-13.9-12.47S196.62,457,188,453.57,170,441.6,164.41,445s-6,1.71-16.16,2.78c-4.11.44-7.71-15.37-5.39-19.51s34.66,3.32,49,7.48,50.2,38.4,54,38.81,14.69,9,16.56,10.63S263.2,493.88,260.94,495Z" fill="#dd7243"/><path id="arm_shadow_r" d="M163.71,530.84c-17.59-12-21.38-74.62-21.38-74.62,5.93,8.26,35.1,28.61,55.61,30.82,4.64,8.42,11.52,27.63,11.68,35.74C200.41,517.09,167.77,510.26,163.71,530.84Z" fill="#dd7243"/><path id="armpit_shadow_r" d="M205.18,536.35c-2.56-2.37-1.53-6.75-1.26-11.41s6.46,3.73,8.33,6.34S208.58,539.5,205.18,536.35Z" fill="#dd7243"/><path id="shoulder_highlight_r-2" data-name="shoulder_highlight_r" d="M215.39,570.86c-2.49.9-11.92,3.23-11.53,2s8.43-12.11,9.76-10.91S216.88,570.32,215.39,570.86Z" fill="#fce7ca"/><path id="forearm_highlight_r" d="M206.83,484.61c-11.59-1.92-34.08-7.29-38.69-10.46-3.29-2.26,7.79-7.34,12.61-9.35S218.43,486.53,206.83,484.61Z" fill="#fce7ca"/><path id="index_r" d="M284.26,535.44c-2.91-2-3.21-7.82-1.36-9.61,2-1.94,11.92,1.88,12.27,2.94C297.74,536.48,284,534.67,284.26,535.44Z" fill="#dd7243"/><path id="middle_r" d="M299.28,527.22c-1,2.6-11.66,3.16-12.43,2.33s4.63-10.59,6.28-10.68C297,518.64,300.29,524.61,299.28,527.22Z" fill="#dd7243"/><path id="ring_r" d="M293.58,522.08c-2.31-1.59-.37-12.08.62-12.64s9.22,7,8.93,8.59C301.21,528.83,293.45,522,293.58,522.08Z" fill="#dd7243"/><path id="pinky_r" d="M304.78,514.94c-1.13,3.72-6.49,2.75-8.59.9s1.07-12,2.11-12.47S305.26,513.36,304.78,514.94Z" fill="#dd7243"/><path id="thumb_r" d="M271.38,527.37c-3.58-.76-8.95-14.93-8.43-15.94s14.87,3.69,15.92,5.57C281.36,521.45,275,528.12,271.38,527.37Z" fill="#dd7243"/><path id="glove_r" d="M281.92,535.31c-3.06-1.39-23.27-14.21-28.54-23.31,3.26-1.39,13.93-15,13.3-21,0,0,4.13-3.95,8-2.72,1.24-1.29,7-2,12.22-.31s16.58,11.8,17.13,16.8S290.36,532,281.92,535.31Z" fill="#203f4f"/><path id="glove_shadow_r" d="M300.76,508.21c-3.47,4.78-11.08,2.37-17.55-2.38s-17.15-7.65-15.87-10.83c2.28-5.67,15-9.43,19.52-7C297.15,493.53,304.13,503.58,300.76,508.21Z" fill="#1c1c1c"/></g></g></svg>