<svg xmlns="http://www.w3.org/2000/svg" xmlns:xlink="http://www.w3.org/1999/xlink" viewBox="0 0 548.77 626.07"><defs><linearGradient id="linear-gradient" x1="-3132.24" y1="-4311.64" x2="-3093.9" y2="-4349.97" gradientTransform="matrix(0.6, 0.65, 0.74, -0.68, 5451.95, -341.65)" gradientUnits="userSpaceOnUse"><stop offset="0" stop-color="#82422e"/><stop offset="1" stop-color="#602a17"/></linearGradient><linearGradient id="linear-gradient-2" x1="991.69" y1="-1571.66" x2="991.69" y2="-1616.21" gradientTransform="matrix(0.83, 0.61, 0.36, -0.85, 168.26, -1413.7)" xlink:href="#linear-gradient"/><linearGradient id="linear-gradient-3" x1="82.16" y1="1231.03" x2="116.94" y2="1231.03" gradientTransform="matrix(0.95, -0.31, -0.31, -0.95, 615.38, 1797.26)" xlink:href="#linear-gradient"/><linearGradient id="linear-gradient-4" x1="282.84" y1="691.77" x2="300.67" y2="673.94" gradientTransform="matrix(0.98, -0.18, -0.18, -0.98, 227.1, 1277.34)" xlink:href="#linear-gradient"/><linearGradient id="linear-gradient-5" x1="313.78" y1="662.05" x2="292.05" y2="683.78" gradientTransform="matrix(0.98, -0.18, -0.18, -0.98, 227.1, 1277.34)" xlink:href="#linear-gradient"/><linearGradient id="linear-gradient-6" x1="5828.02" y1="3119.45" x2="5803.68" y2="3143.8" gradientTransform="matrix(-0.45, 0.69, -0.75, -0.49, 5327.01, -1912.96)" xlink:href="#linear-gradient"/><linearGradient id="linear-gradient-7" x1="4917.51" y1="3737.62" x2="4954.17" y2="3700.95" gradientTransform="matrix(-0.27, 0.85, -0.85, -0.27, 4846.1, -2630.66)" xlink:href="#linear-gradient"/><linearGradient id="linear-gradient-8" x1="303.07" y1="656.84" x2="279.4" y2="680.51" gradientTransform="matrix(0.98, -0.18, -0.18, -0.98, 227.1, 1277.34)" xlink:href="#linear-gradient"/><linearGradient id="linear-gradient-9" x1="269.57" y1="687.17" x2="307.91" y2="648.84" gradientTransform="matrix(0.98, -0.18, -0.18, -0.98, 227.1, 1277.34)" xlink:href="#linear-gradient"/><linearGradient id="linear-gradient-10" x1="-1132.06" y1="1099.64" x2="-1069.42" y2="1099.64" gradientTransform="matrix(0.68, -0.17, -0.24, -0.97, 1395.01, 1490.98)" xlink:href="#linear-gradient"/><linearGradient id="linear-gradient-11" x1="104.29" y1="17.4" x2="136.45" y2="17.4" gradientTransform="matrix(0.36, -0.93, -0.93, -0.36, 303.85, 725.84)" xlink:href="#linear-gradient"/><linearGradient id="linear-gradient-12" x1="224.36" y1="-112.81" x2="256.52" y2="-112.81" gradientTransform="matrix(0.87, -0.49, -0.49, -0.87, 60.8, 612.24)" xlink:href="#linear-gradient"/><linearGradient id="linear-gradient-13" x1="387.5" y1="-124.65" x2="407.99" y2="-124.65" gradientTransform="matrix(1, 0.02, 0.02, -1, -85.13, 448.84)" xlink:href="#linear-gradient"/><linearGradient id="linear-gradient-14" x1="3737.3" y1="810.67" x2="3785.53" y2="810.67" gradientTransform="matrix(-0.64, -0.77, -0.77, 0.64, 3338.53, 2961.82)" xlink:href="#linear-gradient"/><linearGradient id="linear-gradient-15" x1="468.1" y1="-103.86" x2="505.15" y2="-103.86" gradientTransform="matrix(0.97, 0.26, 0.26, -0.97, -127.98, 366.99)" xlink:href="#linear-gradient"/><linearGradient id="linear-gradient-16" x1="291.05" y1="-142.57" x2="312.19" y2="-142.57" gradientTransform="matrix(0.95, -0.3, -0.3, -0.95, -17.67, 559.73)" xlink:href="#linear-gradient"/><linearGradient id="linear-gradient-17" x1="702.84" y1="170.32" x2="722.5" y2="170.32" gradientTransform="translate(433.66 -112.85) rotate(85.11)" xlink:href="#linear-gradient"/><linearGradient id="linear-gradient-18" x1="390.91" y1="-101.33" x2="408.68" y2="-101.33" gradientTransform="matrix(1, 0.02, 0.02, -1, -92.89, 473.69)" xlink:href="#linear-gradient"/><linearGradient id="linear-gradient-19" x1="239.2" y1="-91.76" x2="252.19" y2="-91.76" gradientTransform="matrix(0.85, -0.53, -0.53, -0.85, 50.19, 634.66)" xlink:href="#linear-gradient"/><linearGradient id="linear-gradient-20" x1="549.7" y1="-32.91" x2="560.96" y2="-32.91" gradientTransform="matrix(0.85, 0.52, 0.52, -0.85, -132.03, 258.91)" xlink:href="#linear-gradient"/><linearGradient id="linear-gradient-21" x1="3689.44" y1="-757.09" x2="3731.27" y2="-757.09" gradientTransform="matrix(-0.92, -0.4, -0.4, 0.92, 3403.64, 2756.56)" xlink:href="#linear-gradient"/></defs><title>right3</title><g id="Layer_2" data-name="Layer 2"><g id="right3"><path id="pelvis" d="M239.44,351.29s10.43-20,39-20.37,60.38,21.88,60.38,21.88Z" fill="#4c3f26"/><path id="pants_leg_l" d="M436.55,223.85c1.59,9.7-1.86,20.72-11.54,33.61-25.87,34.44-75.75,94.35-90.62,97-1.52,4.6-6.56,9.88-36.74,16.06-18.59,3.81-24,4.18-36.37,6.75s-29.42-12.19-40.09-35.14C192.05,279.54,261.88,270,282,265.78a14.28,14.28,0,0,1,7.43.71c10.94-8.1,38.65-15.47,57.58-23.45,19.31-8.13,41.5-20.12,40.82-39.27-.28-8,1.27-18.91,15.17-43.52,14.16-25.06,19.65-54.31,19.62-53.08L455.43,116S434.39,210.65,436.55,223.85Z" fill="#4c3f26"/><path id="shoe_l" d="M511.32,33.67c-4.11,4.54-12.4,10.86-18.38,11.5-1.24,8.4-9.72,20.1-9.56,21s-18.84,40.92-18.84,40.92L429.72,86.54s13.7-25.72,12.35-32.66S440.78,40,438.31,30.75,443.94.08,443.94.08h27.45s-2.08,3.35.93,3.34,2-3.15,5.62-3.34,39,0,39,0S515.43,29.12,511.32,33.67Z" fill="#1c1c1c"/><path id="shoe_rim_l" d="M455.43,130.5s-2.38-12.92-14.05-17.62-27.3,2.52-27.3,2.52L421.8,81l53.77,19.14Z" fill="#1c1c1c"/><path id="pants_leg_r" d="M303,346.88c-8.63,14.39-6-11.16-28.63,8.23-14.51,12.44,8.06-24.19-56.32-48.07-30.94-11.47-32.05-79-51.32-86.91-14.52-6-34.54-24.84-45-36.09-4.44-4.77-30.89-30.35-48.24-45C59.44,127.17,39.9,103.5,39.9,103.5l28.89-32c15.13,18.06,100.75,67,118.37,71.57s27.56,16.66,36.07,26.65,56.46,79.37,68.08,103.78C297.93,287.37,314.44,327.79,303,346.88Z" fill="#aa8b4d"/><path id="pants_shin_shadow_r" d="M183.81,168.56c-3.17-3.49-3.57-7.72-3.71-11.73s9.8-4.92,16.67-3.94S191.83,177.37,183.81,168.56Z" fill="#4c3f26"/><path id="pants_calf_shadow_r" d="M168.5,166.16c-14.44,13.69-100.42-55.93-91-71,7-11.16,56.7,26.66,74.64,32.8S182.94,152.47,168.5,166.16Z" fill="#4c3f26"/><path id="shoe_r" d="M64.45,27.83C62.2,30.08,52.68,39.68,45.68,39.68c.5,9.75,18.77,26.9,18.77,26.9L26,81.83S12.25,47.81,10,43.31,2.67,30.62,2.67,21.87L0,.08H69.45S66.7,25.58,64.45,27.83Z" fill="#1c1c1c"/><path id="shoe_highlight_r" d="M36.28,33.75c-6.66,1-28.75-4.64-26.58-10,1.76-4.33,40.25,0,44.25,1.33S43,32.75,36.28,33.75Z" fill="#203f4f"/><path id="shoe_rim_r" d="M74.09,83c-13.29-4.38-25.57,12.3-28.3,23.42C44.55,111.52,26,93.08,17.7,83.08c1-15.66,27.67-34,43.59-31,0,0,13.41,25,15.08,27.67S74.09,83,74.09,83Z" fill="#1c1c1c"/><path id="arm_shadow_l" d="M295.16,492.4c4.64-1,31.23,25.89,25.56,34-6.25,9-8,23.31-28.34,18.6-4.62-1.07-20.59-15.54-23.05-18.48s-15-2.76-22-7.57-28.15-21.08-31.43-25.24-23.19-16.87-26.06-22.35-7.4-13.39,1.6-22.16,33.06-18.62,46.32-21.72S292.47,409,296.71,407l8.49,22.27C292,440.77,269,444.71,261,448s-17.11,18.53-25.28,21.53c17.85.75,27.75,4.56,38.63,9.88S290.52,493.36,295.16,492.4Z" fill="#dd7243"/><path id="hair_side2_l" d="M412.79,555c-5.37,17,.28,33,.28,33s-7.46,4.59-10.66,3.14c-5.12-2.32-8.58-29.11-.77-45.56s21-33.81,21-33.81S418.5,536.87,412.79,555Z" fill="url(#linear-gradient)"/><path id="hair_side_l" d="M419,544.75c-5.16,8.35-10.81,24.46-10.81,24.46s-3.44-8.93-2.86-12.25c4-23.23-1.09-7.29,28.54-30.57C433.89,526.39,424.18,536.41,419,544.75Z" fill="url(#linear-gradient-2)"/><path id="torso_skin" d="M386.32,586.06,341.8,598.54,334.09,563s-10.62-13.57-13.62-16.89c-1.76-1.93-20.92-3.39-30-10.28-6.43-4.89-2.91-15.23-6.15-18.25-6.12-5.7-33.38-56.93-30.27-80.89s67.78-32.77,77-25.49S351,452.66,349.1,465.77s-18.31,53.08-18.31,53.08L371.45,533Z" fill="#ffca8a"/><path id="torso_shadow" d="M340,508.19c1.18,5.12,17.72,12.9,17.72,12.9l-7.57,53.84s-22.87-34.08-20.46-51.72a33.48,33.48,0,0,1-23.71,4.38s.05.57-10.43,1.17c26.67-17.86,13.75-40.27,5.6-58.23-21.35-2.27-23.92,23.06-30.09,8.43s-7.22-46.14,32.13-57.17,50,72.1,48.55,76.14S340,508.19,340,508.19ZM272.65,488c-3.06-1-13-4-10.47-.14s4.34,8,7.81,8.42C274.6,496.77,275.7,489,272.65,488Z" fill="#dd7243"/><path id="face_shadow" d="M393.1,605.73c-15.16,6.54-34.53-4.55-43.25-24.78a48.06,48.06,0,0,1-3.6-27.13c-3.4-7.38-6.22-16.71-4.41-22.42,3-9.51,9.05-18.32,11.46-17.9s20.25,9.32,20.25,9.32c2.24-1.15,6.2-.85,7-.63S382,529,383,531.7a12.58,12.58,0,0,0,1.32,2.47c8.31,4.35,15.84,12.46,20.43,23.09C413.47,577.49,408.26,599.19,393.1,605.73Z" fill="#dd7243"/><path id="face" d="M393.11,599.54c-10.79,5-26.54-6.21-35.19-25-4-8.6-5.74-17.29-5.47-24.67-3.33-6.86-6.4-15.43-5.62-20.47,1.31-8.39,5-16,6.84-15.44s16.24,9.64,16.24,9.64c1.58-.9,4.6-.39,5.2-.15s1.8,6.26,2.83,8.72a15.87,15.87,0,0,0,1.25,2.31c6.72,4.43,13.24,12.19,17.78,22C405.62,575.32,403.89,594.56,393.11,599.54Z" fill="#ffca8a"/><path id="face_eye_shadow_r" d="M395.77,544c-.44,1.73-12.1,6.29-17.42,3-2-1.24,4.47-11.1,6.31-10.62S396.2,542.28,395.77,544Z" fill="#dd7243"/><path id="face_shadow_r" d="M419.66,558.4c-.28-.68-3.46-1.68-7.8-2.62a11.21,11.21,0,0,0-2.11-3.49c-1.72-1.63-9.71-4.48-24.12-6.4-5.36-6.45-11.45-13.41-14.87-16.12-7.05-5.58-26.4-12.22-26.4-12.22,4.38,2.58,8.24,5.1,11.71,7.64.75,2.32,2.2,6.69,4.2,12a12.86,12.86,0,0,0-2.53-2.91c-4.87-3.65-15.61-3.39-15.61-3.39s9.32,2,13.9,5.54,9.63,24.93,15.46,33.17c5.11,7.22,18,15.7,26.69,18.86,2,2,3.71,3.32,5.06,3.63,7.12,1.6,16.18-15.86,15.59-21.25C420,565.2,420.11,559.49,419.66,558.4Zm-21.87-4.77c-2-.17-3.86-.27-5.56-.28l-.9-.48c-.78-1-1.64-2-2.54-3.15.5.17,1,.35,1.47.53C392.57,551.12,395.17,552.32,397.79,553.63Z" fill="#dd7243"/><path id="hair_back" d="M390.54,617.75c-5,3.89-37.43,6.23-40.2,6.77s-23-7.34-25.35-9.79-4.32-38.45-5.27-43.05.57-11.67,8.14-16.57c0,0,2.5,3.77,8.19,1.93s10.66-7.92,10.66-7.92,2.1,5.47,5.71,2.56,65.21,28.94,65.33,35.78S395.56,613.87,390.54,617.75Z" fill="url(#linear-gradient-3)"/><path id="hair_side6_r" d="M388.38,550.66c-10.63-2.75-26.77-3.95-26.77-3.95,29.44-1.11,45.46,2.25,48.21,4.29s5.6,10.34,5.6,10.34S399,553.41,388.38,550.66Z" fill="url(#linear-gradient-4)"/><path id="hair_side5_r" d="M416.77,579.22c-6.34,7.25-39.92-22.94-30.64-25s33.93.27,34.88,2.06S422,573.28,416.77,579.22Z" fill="url(#linear-gradient-5)"/><path id="hair_side4_r" d="M374.07,569s-11.25-24.31-12.8-32.22,1.12-26.12,1.12-26.12c1.43,25.5,8,37.18,20.81,57.16Z" fill="url(#linear-gradient-6)"/><path id="hair_side3_r" d="M390.16,578.13s-3.11-14.5-8.61-23.26-21.38-19-23.61-24.25.13-15.42.13-15.42-.05,9.21,2.1,14.15,19.89,13.24,25.94,20.15,11.53,23.75,11.41,31.91Z" fill="url(#linear-gradient-7)"/><path id="hair_side2_r" d="M405,591.34c-9.56-1.19-40-43-30.52-42.66s46,18.07,46.31,20.06C421.81,574.07,412.92,592.32,405,591.34Z" fill="url(#linear-gradient-8)"/><path id="hair_side_r" d="M411,585.25c-5.38,3.21-32.81-7.63-43.45-22.85s-18.78-35.58-18.78-35.58,26.48,12.71,37.32,27.38,28.6,20.24,28.6,20.24S414.4,583.25,411,585.25Z" fill="url(#linear-gradient-9)"/><path id="hair_top" d="M390.2,614.44c-2.31.91-30.57-.53-28.11-1.17,11-2.86,14.48-14.15,14.48-14.15s18,3.78,27.08-.21C403.65,598.91,392.51,613.53,390.2,614.44Z" fill="url(#linear-gradient-10)"/><path id="neck_highlight" d="M295.87,535.65c-1.68-.36,7.1-3,8.92-3.16s15.37,7.31,16,8.13S297.38,536,295.87,535.65Z" fill="#fce7ca"/><path id="eye_white_r" d="M389.22,541.84c-.6,1.32-4,3-4.15,2.33a6.29,6.29,0,0,1,1.28-6.24C387.91,538.26,390.1,539.89,389.22,541.84Z" fill="#f9dacf"/><path id="eye_shadow_r" d="M384.9,545l-.32-1.72a8.67,8.67,0,0,0,4.05-2.33c.59-.88,1.36,1.29,1.36,1.29S386.08,545.13,384.9,545Z" fill="#d1bbb4"/><path id="eye_lash_r" d="M385.36,545.17a3,3,0,0,0-1.73,1s.05-5.76,2.81-8.34c-2.58,3.26-1.25,5.91-1.25,5.91a5.87,5.87,0,0,0,3.33-2c1.51-1.62,1.5-2.38,1.48-2.55a5.7,5.7,0,0,1,.08,1.82s.13.49,1.06.22C390.21,543.43,386.92,545,385.36,545.17Z" fill="#1c1c1c"/><path id="eye_iris_r" d="M386.91,541.73a2.43,2.43,0,0,1,1.15-2.48c.78-.36,1.53.16,1.68,1.17a2.47,2.47,0,0,1-1.16,2.49C387.8,543.27,387.05,542.75,386.91,541.73Z" fill="#1c1c1c"/><path id="eye_refelection_r" d="M386.19,542.44c-.83.78-1.61,1.21-1.74,1s.43-1.06,1.26-1.84,1.62-1.21,1.75-1S387,541.66,386.19,542.44Z" fill="#fcf7f5"/><path id="brow_r" d="M391.65,549.33c-.45.57-4,1.58-4,1.58a10.32,10.32,0,0,0,1.48-3c.25-1-.83-8.56-.35-9.16s2.56.06,2.46.5S392.11,548.77,391.65,549.33Z" fill="#1c1c1c"/><path id="hair_tail11" d="M340.33,625.16c-7.53,5.12-28.52-12.1-30.47-29.66,0,0,11.75,17.16,30.31,12.13,6.44-1.75,9.9-11,14.21-8.51C364.91,605.14,347.86,620,340.33,625.16Z" fill="url(#linear-gradient-11)"/><path id="hair_tail10" d="M321.4,610.9c-9.07-.78-14.5-27.39-4.92-42.23,0,0-1.73,20.72,15.85,28.53,6.1,2.71,14.61-2.27,16.4,2.36C353.09,610.88,330.47,611.68,321.4,610.9Z" fill="url(#linear-gradient-12)"/><path id="hair_tail9" d="M315.42,617.13c-9.37-8.39-22.46-29.72-10.09-46.66,10.28-14.09-4.37-28.32-4.37-28.32,19.19,12.05,8.41,30.88,12.44,44.7,3.3,11.33,6,13.06,6.85,13.32C318.1,599.88,304.63,598.74,315.42,617.13Z" fill="url(#linear-gradient-13)"/><path id="hair_tail8" d="M307.57,587.72c-4.59,11.61,4,20,8.48,25.42-14.52-9.69-14.6-17.9-12-24.43s16.28-21.67,8.12-35C323.37,571.05,311.62,578.19,307.57,587.72Z" fill="url(#linear-gradient-14)"/><path id="hair_tail7" d="M329.64,612.09c-14.74-5.9-10.57-15.61-12.29-23.37-2.3-9.31-10.23-15.21-15.45-16.59,16,4.74,20.38,11.4,21.64,16.67S318.57,607.36,329.64,612.09Z" fill="url(#linear-gradient-15)"/><path id="hair_tail6" d="M307.57,615.52c-5.6-1.72-7.16-16.61.86-24.65,0,0,4.48,14.87,7.86,17.51s9.49.55,10,3.7C327.49,619.78,313.17,617.23,307.57,615.52Z" fill="url(#linear-gradient-16)"/><path id="hair_tail5" d="M335.79,620.64c-2.89.69-3.26-5.3-6.72-7.27s-17.84-.54-17.84-.54c4.06-9.74,17.42-13.69,20.88-9.48S342.84,619,335.79,620.64Z" fill="url(#linear-gradient-17)"/><path id="hair_tail4" d="M308.5,616.38c-8.08-7.33-19.31-25.9-8.48-40.53,9-12.16-3.63-24.59-3.63-24.59,16.58,10.56,7.12,26.84,10.54,38.84,2.8,9.85,5.12,11.37,5.87,11.6C310.93,601.44,299.25,600.37,308.5,616.38Z" fill="url(#linear-gradient-18)"/><path id="hair_tail3" d="M322.72,601.38c-7.87-1.26-22.15-8.15-21.36-21.42.66-11-12-13.6-12-13.6,14.36-.15,15.07,13.58,21.94,19.57,5.67,4.93,7.69,4.91,8.22,4.75C318.26,591.26,310.66,595.27,322.72,601.38Z" fill="url(#linear-gradient-19)"/><path id="hair_tail2" d="M323,582.05c-1.62,6.31-.83,7.87-.49,8.23-.93-.74-7-5.08-7.05,6.65-2.07-6.59-2.28-20.34,8.32-24.88,8.82-3.77,5.88-14.61,5.88-14.61C335.39,568.52,325,574.4,323,582.05Z" fill="url(#linear-gradient-20)"/><path id="hair_tail" d="M316.65,603.85c-15-1.82-18.31-8.15-18.81-14.24s4.12-23.14-7.43-30.29c15.44,9.08,9.14,19.21,9.74,28.17C301.13,598.27,311.07,601.42,316.65,603.85Z" fill="url(#linear-gradient-21)"/><path id="shirt_torso" d="M359,440.12c-3.91-18.19-28.59-34.58-25.72-64.38.8-8.21,5.53-22.94,5.53-22.94-41.27-7.69-89.66-13.79-109.9,5.31,15.5,22.43,11.73,27.73,13.5,48.1,1.64,18.87,5.77,48,11.93,62.05,1.27,9.73,15.41,54.62,23.14,62.26S300.27,545,300.27,545l.69-2.86s-12.09-1-11.63-9.67a9.08,9.08,0,0,1,6-8.44,20.16,20.16,0,0,0,7.28-1.18h.12v0c12.14-4,27.31-16.5,29.46-19.79,3.64-12.56,7.62-26.78,16.72-27.95s6,18.38,4.26,24.27C361,480,362.87,458.3,359,440.12Zm-56.81,80.6C286,526.63,270,496.27,267.29,487.43s-6.91-32.89,2.93-48.25c18.74-10.46,47.93-7.25,54.17,10.93C333.26,476,334.51,507.93,302.16,520.72Z" fill="#ffe8ae"/><path id="shirt_abs_shadow" d="M317.89,427.37c-6.46,2.78-1.45-14.87-9.67-38.83C302.51,371.85,282,346.46,282,346.46c19.94-12.25,52.54,3.41,56.82,6.34s-3.37,30-5,39.28,23,32.35,23.88,44.61S348.81,414,317.89,427.37Z" fill="#bca675"/><path id="arm_r" d="M502.05,530.65c-2.16,2.19-30.52-6.07-40-5.07s-60.57,1.08-67.1-10.16c-3.49-.3-45,1.21-53-.2-21.12-3.69-38.08,6.45-52.28-10.68-3.83-4.61,13.26,1.16,13.73-7.5.62-11.64-1.24-39.65,24.81-33.38,37,8.9,72.2,18.69,77.5,15.28,2.13-1.38,30.87,6.6,39.83,9.88,10.75,3.93,24.32,8.15,29.39,10.28,7.68,3.23,30.2,6.84,29.93,8.88S504.2,528.46,502.05,530.65Z" fill="#dd7243"/><path id="palm_shadow_r" d="M516.06,527.89s9.28-11.35,8.31-14.51c1.24-5.59,11-6.16,13.56-4.76s5.73,3,7.11,6.69C550.93,530.93,513,538.1,516.06,527.89Z" fill="#dd7243"/><path id="glove_r" d="M533.6,548.92s-17.44-3.1-20.92-3.74-22.8-8.83-27.13-12.53c4.33-8.58,5.74-26,9.67-29s21.52,1.45,30.58,1.66S533.6,548.92,533.6,548.92Z" fill="#1c1c1c"/><path id="index_r" d="M537.32,548.74c-1.76.68-8.54.57-9.77-2.08s1.26-7.52,1.26-7.52,5.41-11.47,8.61-11.19,3.89,5.07,4.74,7.16S539.07,548.06,537.32,548.74Z" fill="#ffca8a"/><path id="middle_r" d="M546.91,536.38c-.92,1.42-5.94,4.94-8.24,3.66s-3.07-6.17-3.07-6.17-2.14-11.26.35-12.75,5.53,1.64,7.27,2.72S547.84,535,546.91,536.38Z" fill="#ffca8a"/><path id="pinky_r" d="M543.62,524.93c-2.55.67-6.49-2.33-6.49-2.33s-9.33-6.65-8.56-9.45,5.13-2.64,7.13-3.07,11,4.83,11.34,6.5S546.17,524.27,543.62,524.93Z" fill="#ffca8a"/><path id="ring_r" d="M544.59,534.79c-2.19.12-4.92-3-4.92-3s-6.54-7-5.45-9.15,4.63-1.32,6.34-1.33,8.22,5.77,8.21,7.19S546.79,534.66,544.59,534.79Z" fill="#ffca8a"/><path id="shirt_shoulder_l" d="M300.27,545l.69-2.86,8.9,1.05Z" fill="#bca675"/><path id="shirt_back" d="M266.31,483.79s-5.14-18.57-1.17-31.38,3.94-14.82,17.8-18C266.55,445.54,267.82,468.29,266.31,483.79Z" fill="#bca675"/></g></g></svg>