<svg xmlns="http://www.w3.org/2000/svg" xmlns:xlink="http://www.w3.org/1999/xlink" viewBox="0 0 487.39 678.15"><defs><linearGradient id="linear-gradient" x1="228.69" y1="-179.91" x2="260.86" y2="-179.91" gradientTransform="matrix(0.99, -0.14, 0.14, 0.99, 11.09, 246)" gradientUnits="userSpaceOnUse"><stop offset="0" stop-color="#82422e"/><stop offset="1" stop-color="#602a17"/></linearGradient><linearGradient id="linear-gradient-2" x1="148.89" y1="-53.9" x2="181.06" y2="-53.9" gradientTransform="translate(66.13 16.91) rotate(27.19)" xlink:href="#linear-gradient"/><linearGradient id="linear-gradient-3" x1="223.91" y1="-157.09" x2="244.41" y2="-157.09" xlink:href="#linear-gradient"/><linearGradient id="linear-gradient-4" x1="387.05" y1="-715.54" x2="435.27" y2="-715.54" gradientTransform="translate(226.02 867.42) rotate(-30.79)" xlink:href="#linear-gradient"/><linearGradient id="linear-gradient-5" x1="539.05" y1="-377.56" x2="576.1" y2="-377.56" gradientTransform="translate(170.63 720.76) rotate(-50.93)" xlink:href="#linear-gradient"/><linearGradient id="linear-gradient-6" x1="227.96" y1="-178.33" x2="249.1" y2="-178.33" xlink:href="#linear-gradient"/><linearGradient id="linear-gradient-7" x1="612.18" y1="112.5" x2="631.84" y2="112.5" gradientTransform="matrix(-0.36, -0.93, -0.93, 0.36, 555.65, 565.69)" xlink:href="#linear-gradient"/><linearGradient id="linear-gradient-8" x1="431.05" y1="-386.85" x2="448.82" y2="-386.85" gradientTransform="matrix(0.79, -0.61, 0.61, 0.79, 109.68, 637.6)" xlink:href="#linear-gradient"/><linearGradient id="linear-gradient-9" x1="242.09" y1="-154.76" x2="255.08" y2="-154.76" gradientTransform="translate(1.99 249.79) rotate(-8.68)" xlink:href="#linear-gradient"/><linearGradient id="linear-gradient-10" x1="200.69" y1="-91.42" x2="211.96" y2="-91.42" gradientTransform="translate(14.81 168.68) rotate(-1.15)" xlink:href="#linear-gradient"/><linearGradient id="linear-gradient-11" x1="374.56" y1="-411.54" x2="416.39" y2="-411.54" gradientTransform="matrix(0.85, -0.53, 0.53, 0.85, 99.48, 610.75)" xlink:href="#linear-gradient"/><linearGradient id="linear-gradient-12" x1="804.93" y1="106.19" x2="783.2" y2="127.92" gradientTransform="matrix(-0.65, -0.76, -0.76, 0.65, 925.3, 574.52)" xlink:href="#linear-gradient"/><linearGradient id="linear-gradient-13" x1="684.93" y1="230.13" x2="661.33" y2="253.72" gradientTransform="matrix(-0.95, -0.31, -0.31, 0.95, 1036.93, 19.62)" xlink:href="#linear-gradient"/><linearGradient id="linear-gradient-14" x1="503.76" y1="316.43" x2="542.1" y2="278.09" gradientTransform="matrix(-0.48, -0.88, -0.88, 0.48, 832.86, 377.33)" xlink:href="#linear-gradient"/><linearGradient id="linear-gradient-15" x1="323.63" y1="213.24" x2="323.63" y2="168.69" gradientTransform="translate(10.13 -139.22) rotate(4.2)" xlink:href="#linear-gradient"/><linearGradient id="linear-gradient-16" x1="245.29" y1="-168.33" x2="277.11" y2="-168.33" xlink:href="#linear-gradient"/><linearGradient id="linear-gradient-17" x1="290.16" y1="64.1" x2="308" y2="46.27" gradientTransform="translate(-0.37 -0.58) rotate(-0.1)" xlink:href="#linear-gradient"/><linearGradient id="linear-gradient-18" x1="321.11" y1="34.38" x2="299.38" y2="56.11" gradientTransform="translate(-0.37 -0.58) rotate(-0.1)" xlink:href="#linear-gradient"/><linearGradient id="linear-gradient-19" x1="290.94" y1="55.71" x2="266.6" y2="80.06" gradientTransform="translate(-0.37 -0.58) rotate(-0.1)" xlink:href="#linear-gradient"/><linearGradient id="linear-gradient-20" x1="259.05" y1="67.65" x2="295.71" y2="30.99" gradientTransform="translate(-0.37 -0.58) rotate(-0.1)" xlink:href="#linear-gradient"/><linearGradient id="linear-gradient-21" x1="310.4" y1="29.17" x2="286.72" y2="52.84" gradientTransform="translate(-0.37 -0.58) rotate(-0.1)" xlink:href="#linear-gradient"/><linearGradient id="linear-gradient-22" x1="276.9" y1="59.5" x2="315.24" y2="21.17" gradientTransform="translate(-0.37 -0.58) rotate(-0.1)" xlink:href="#linear-gradient"/><linearGradient id="linear-gradient-23" x1="259.55" y1="-194.43" x2="322.2" y2="-194.43" xlink:href="#linear-gradient"/></defs><title>right1</title><g id="Layer_2" data-name="Layer 2"><g id="right1"><path id="pelvis" d="M292,296.34c-2.12-5.56,2.19-12.16-39-20.59-19.1-3.92-24.64-4.32-37.37-7s-32.43,11.12-40.95,35,42.16,72.5,62.86,76.79,57.78-50.32,59.54-53.52S294.08,301.89,292,296.34Z" fill="#4c3f26"/><path id="pants_leg_l" d="M390.21,458.77c-1-10.8,1.85-21.5-5.15-30s-47.37-73-60.37-90.54-44.27-57.66-60-31.39c-10.71,17.89-27.5,43.89-24,56.89s29.78,50,50.78,58.54,40.72,30.46,42.22,35.46c-12.13,6-15.73,13.37-20.8,35.87-2,8.76,1.78,37.17,8.15,68.17,5.68,27.63,2.77,37.43,2.3,38.59l26.72,4.41S391.21,469.58,390.21,458.77Z" fill="#4c3f26"/><path id="shoe_l" d="M371.38,655.07c-2.47-5.6-21.87-14.57-27.34-17.06,1.46-8.37.27-30.81.73-31.65l11.6-21.5-37.52-8.13s-3.31,15.88-6.77,22-11.1,11.06-16.34,19-11.11,28.58-11.11,28.58l25.48,9.9s2.36-5.16,9-2.93,7.89,14.62,11.31,16,35.92,8.83,35.92,8.83S373.85,660.68,371.38,655.07Z" fill="#1c1c1c"/><path id="shoe_rim_l" d="M362.39,575.26l-5,31.64-47.55-11.85L319.69,568Z" fill="#1c1c1c"/><path id="pants_thigh_highlight_l" d="M361.69,428.48c-2.15,4.2-1.44,8.38-.53,12.29s10.75,2.19,17.13-.54S367.12,417.89,361.69,428.48Z" fill="#aa8b4d"/><path id="pants_leg_r" d="M187.62,306.47c-18.43-5-28.51,49.9-35.31,82.2s9.59,73.69-4.85,79.83-45.2,28.09-46.94,34.37-14.13,36-29,46.82S15,612.54,15,612.54L48.35,619c11.18-20.75,102.08-79.45,118.41-87.47s23.62-21.89,29.94-33.4S236,409,242.41,382.78,202.15,310.45,187.62,306.47Z" fill="#aa8b4d"/><path id="pants_shin_shadow_r" d="M153.52,521.51c-.24,4.71,2.13,8.23,4.57,11.42s10.7-2.41,15.39-7.53S154.12,509.62,153.52,521.51Z" fill="#4c3f26"/><path id="pants_calf_shadow_r" d="M112.45,512.27c-7.69-11.61-44.95,47.72-40.51,60.3,3.28,9.3,27.24-3.87,39-8.21S120.13,523.88,112.45,512.27Z" fill="#4c3f26"/><path id="pants_thigh_shadow_r" d="M174.26,317c-4,7.81-8.78,24.52-9.54,29.73s25.82-31.91,28.75-33.88S178.7,308.48,174.26,317Z" fill="#4c3f26"/><path id="shoe_r" d="M46.64,637.08C48,627.41,69.08,608,69.08,608l-37-18.63S9.36,618.93,6.72,623.21.78,638,0,646.67l15.08,23.22,53,4.76s-.46-25.65-2.5-28.09S53.61,637.71,46.64,637.08Z" fill="#1c1c1c"/><path id="shoe_rim_r" d="M80.14,592.44c-13.62,3.18-24.36-14.54-26.09-25.86-.78-5.15-20.87,11.56-30.06,20.78-.41,15.69,24.52,36.31,40.64,34.77,0,0,15.59-23.71,17.49-26.21S80.14,592.44,80.14,592.44Z" fill="#1c1c1c"/><path id="shoe_highlight_r" d="M46.06,638.87c-6.56-1.59-29,2-27.37,7.59,1.36,4.47,40.08,3.59,44.19,2.62S52.61,640.46,46.06,638.87Z" fill="#203f4f"/><path id="arm_shadow_l" d="M416.82,121.56c-1.88-2.43-21,12.53-31.83,16.55-10.3,3.83-28.61,2.25-36.45,12.62-3.5-.12-45.56-15.82-55-21.44-18.44-10.94-37.34-15.65-53.51-.36-4.36,4.11-7.53,23.56-8.12,32.21-.79,11.63,15.67,5.65,41.44,13,36.53,10.45,66.88,19.9,73.18,20,8.3.14,35.24-11.52,43.48-16.32,11.34-6.62,34.7-29.23,34.68-31.29S418.69,124,416.82,121.56Z" fill="#dd7243"/><path id="arm_l" d="M414.55,137.06s-26.24,15.55-39.71,25.21c-5.21,3.73-10-10-27.49-2.57,5.65-4.54,14.06-14.25,18-14.25,13.67,0,40.47-16.37,43.55-17.4S414.55,137.06,414.55,137.06Z" fill="#ffca8a"/><path id="arm2_l" d="M307.46,135.09C282,133.71,255,124.78,252,147.75c-1.3,10,20-2.12,44.5,3.42s49,18.54,53,11.54S333,136.46,307.46,135.09Z" fill="#ffca8a"/><path id="glove_shadow_l" d="M447.14,101.08S431,108.47,427.82,110s-12,9.22-12,9.22c-10.75,6.84-3,27.19,1.58,29.08s24.41-.51,33.13-3S447.14,101.08,447.14,101.08Z" fill="#1c1c1c"/><path id="palm_shadow_l" d="M483,127c-2.5-1.65-15.34-13.85-15.34-13.85L446.2,110.8c-.77,2.39.67,6.29,3.11,10.26a32.12,32.12,0,0,0-5.41.44c-5.66,1-9.56,3.43-7.53,6.77,0,0,11.84,8.65,11.7,12,2.6,5.09,12.2,3.18,14.31,1.19,1.84-1.74,4.1-3.75,4.93-6.82,3.7-1,4.74-5,6.18-5,1.83-.06,5.17,2.4,6.29,3.4s5.71,2.5,7.21,1S485.49,128.63,483,127Z" fill="#dd7243"/><path id="index_l" d="M467.55,108.14a3.64,3.64,0,0,0-.34-.28c-.87-1.92-3.06-3.61-4.07-4.79-1.47-1.71-12.93-3.16-14.34-1.91s-4.4,7.33-2.6,9.64,7.26,2.31,7.26,2.31a64.81,64.81,0,0,0,7-.21c.38,2.44,1.44,8.37,3.09,9,2.07.81,3.45-2.14,4.4-3.26S468.52,109.13,467.55,108.14Z" fill="#ffca8a"/><path id="middle_l" d="M477.65,117.13c0-1.71-7-8.95-8.64-9.11s-7.12,1.28-7.21,3.48,3.63,5.31,3.63,5.31,8.35,7.4,10.85,6.56S477.68,118.85,477.65,117.13Z" fill="#ffca8a"/><path id="ring_l" d="M477.05,117.5c-1.07-.86-5.31-2.43-6.15-1s.57,5.14.57,5.14,3,8.68,5,9.27,2.57-2.31,3.16-3.45S478.13,118.36,477.05,117.5Z" fill="#ffca8a"/><path id="thumb_l" d="M453.68,117.16c-3.19,1.51-8.47-.46-13,1.61-4.79,2.2-6.38,6.06-4.26,9.4s6.52,1.44,13.51-1.95S456.88,115.66,453.68,117.16Z" fill="#ffca8a"/><path id="shirt_back" d="M181.69,134.13c-6.57,2.76-8.1,20.35-7.55,38.17s40.31,71.16,43.43,61.82S198.36,127.14,181.69,134.13Z" fill="#bca675"/><path id="torso_skin" d="M287.7,35.37H241.47l2.16,36.31s-6.56,15.94-8.56,19.94S197.23,111.4,191,117s-12.86,71.67-3.4,93.91,87.17,17.27,94.07,7.78,8-45.3,2.64-57.43-32-46.16-32-46.16L287.7,90.45Z" fill="#ffca8a"/><path id="torso_shadow" d="M278.14,129.57c-2.5-3.5-14.07-6.7-14.07-6.7-.25-5.25,13.58-17.21,13.58-17.21L255.82,55.87s-5.75,30.25-7.25,36.75c-10,3.5-22.5,20.75-22.5,20.75a54.06,54.06,0,0,0-20.5,0c30.5,10,34.25,36.75,31.25,56.25-4-15.75-29.25-15.75-31.25,0S211.07,216,252,216,280.64,133.07,278.14,129.57Z" fill="#dd7243"/><path id="shirt_torso" d="M277.8,125.92c2.75,5.5-2.06,23.29-11.23,23.7s-29.94-26.94-35.69-38.69c-3.5-3.75-31.64-12.81-42.28-7.16,42.84,2.74,61.06,40.35,56.39,69.68s-41.33,40-61.2,27c.63,14.65,10.87,34.72,11.2,41s10,23-12.11,43.67c23.23,15.33,66.81,18.49,106.15,3.82,0,0-7.6-29.82-9.6-37.82s21.49-47.25,22.2-65.84S288.8,143.67,277.8,125.92Z" fill="#ffe8ae"/><path id="shirt_abs_shadow" d="M294.21,193.43c-2.6-12-36.88,6.85-48.33,10.18s-25.63,93.08-25.63,93.08c22.55,6.21,65.1-3.57,68.4-7.57s-5.3-28.5-9.45-37S296.81,205.44,294.21,193.43Z" fill="#bca675"/><path id="hair_tail11" d="M241.11,12.46c-3.49-11.62-21.85,1.62-28.54,7.79s5.33,30.53,22,36.39c0,0-14.07-15.32-5-32.26C232.76,18.5,242.54,17.21,241.11,12.46Z" fill="url(#linear-gradient)"/><path id="hair_tail10" d="M232.5,25c-9,1.17-13.31,28-3.11,42.4,0,0-2.61-20.63,14.61-29.18,6-3,14.7,1.63,16.29-3.07C264.16,23.62,241.53,23.8,232.5,25Z" fill="url(#linear-gradient-2)"/><path id="hair_tail9" d="M227.57,35.74c-2.1.55-15.32,3.39-6.94-16.22-8.24,9.51-18.53,32.32-4.12,47.56,12,12.68-.75,28.65-.75,28.65,17.51-14.38,4.45-31.7,6.69-45.91C224.3,38.16,226.75,36.1,227.57,35.74Z" fill="url(#linear-gradient-3)"/><path id="hair_tail8" d="M224.23,14c-16.33,12.64-7.65,23.3-7,33.63.45,12.48-10.45,17.54-16.49,21.13,16.92-4.28,19.75-12,19.44-19S212.07,23.89,224.23,14Z" fill="url(#linear-gradient-4)"/><path id="hair_tail7" d="M237.1,48c-2.09-5-14.95-12.08-8.79-22.41-8.44,13.44.65,18.83,3.83,26.12,3.63,8.88.69,18.32-2.71,22.51C239.56,61,239.18,53,237.1,48Z" fill="url(#linear-gradient-5)"/><path id="hair_tail6" d="M230.79,23.23c-2.24-7.47-14,1-18.34,5s.75,18.07,11.46,21.84c0,0-2.42-15.35-.51-19.19S231.71,26.28,230.79,23.23Z" fill="url(#linear-gradient-6)"/><path id="hair_tail5" d="M235.65,11.39c-2.9.63-.63,6.19-2.9,9.46s-15.85,8.23-15.85,8.23c7.89,7,21.64,4.77,22.93-.51S242.74,9.85,235.65,11.39Z" fill="url(#linear-gradient-7)"/><path id="hair_tail4" d="M222.9,56.73c-3.54-9.61-2.55-12.2-2.08-12.83-1.35,1.31-10.16,9.05-12.12-9.34-2.21,10.69-.35,32.31,17,37.76,14.44,4.52,11.55,22,11.55,22C244.44,76,227.22,68.44,222.9,56.73Z" fill="url(#linear-gradient-8)"/><path id="hair_tail3" d="M228.68,45.6c-1.32.36-9.7,2.26-4.5-10.23C219,41.44,212.63,56,221.85,65.53c7.67,8-.31,18.16-.31,18.16,11-9.22,2.63-20.12,4-29.13C226.62,47.12,228.16,45.83,228.68,45.6Z" fill="url(#linear-gradient-9)"/><path id="hair_tail2" d="M221.81,52.56c-5.13,4.63-12.27,16.39-5.43,25.67C222.06,86,214,93.8,214,93.8c10.52-6.67,4.55-17,6.73-24.59,1.8-6.27,3.28-7.21,3.74-7.34C223.34,62,215.92,62.7,221.81,52.56Z" fill="url(#linear-gradient-10)"/><path id="hair_tail" d="M228.45,28c-14,11.2-6.29,20.32-5.59,29.28.57,10.81-8.81,15.36-14,18.56,14.61-4,16.95-10.69,16.58-16.79S218.05,36.76,228.45,28Z" fill="url(#linear-gradient-11)"/><path id="hair_side4_l" d="M326.4,31.68c-7.76-1.45-20.87,6.31-21.92,8s9.48,24.14,16,31.06S335.86,33.44,326.4,31.68Z" fill="url(#linear-gradient-12)"/><path id="hair_side3_l" d="M322.92,15.81c-7.36-3-22.95,7.27-24.62,12.42-.62,1.93,22.61,35.7,31.28,39.6C340,72.52,336.14,21.22,322.92,15.81Z" fill="url(#linear-gradient-13)"/><path id="hair_side2_l" d="M331.73,36.63c-3-2.56-11.42-.12-11.42-.12s.28,18.61-10.26,33.51-14.31,44-14.31,44,16.78-14.11,27.9-29S336.46,40.73,331.73,36.63Z" fill="url(#linear-gradient-14)"/><path id="hair_side_l" d="M322.31,75C321.59,64,324,46,324,46s-7,5.31-8.06,8.56c-2.89,8.67-5.12,12.55-6.57,14.11,2.7,1.34,8.35,8.16,17.6,33C327,101.66,323,86,322.31,75Z" fill="url(#linear-gradient-15)"/><path id="face_shadow" d="M316.79,78.18a39.69,39.69,0,1,0-56.58,5.13c.89,8,3.71,17.36,9.51,21.09,9.64,6.19,22.32,10.1,24.82,8.39s17.25-19.14,17.25-19.14c3.32-.3,7.68-2.78,8.43-3.39s-2.78-6.51-3.35-9.29A10,10,0,0,1,316.79,78.18Z" fill="#dd7243"/><path id="face" d="M316,79.53A36.54,36.54,0,1,0,263.85,83c.63,7.42,3,16.06,8.26,19.62,8.74,5.92,20.32,9.8,22.66,8.29s16.3-17.22,16.3-17.22a20,20,0,0,0,7.84-2.94c.7-.54-2.42-6-2.88-8.62A9.12,9.12,0,0,1,316,79.53Z" fill="#ffca8a"/><path id="face_nose_shadow" d="M316.57,86.49c-1.29-.58-9.54,4.8-8.57,5.39,2.35,1.43,10.93-.15,10.91-1.16S317.86,87.07,316.57,86.49Z" fill="#dd7243"/><path id="face_toplip_shadow" d="M307,95.44s-5.28,1.93-7.92,1.72a11.79,11.79,0,0,0,5.59.19,31.3,31.3,0,0,1,3,1.16s2.51-1.59,2.36-2.75S307.65,95.93,307,95.44Z" fill="#dd7243"/><path id="face_chin_shadow" d="M304.38,101.06c-.53-.63-4.46-.76-5.32.31s.91,3.13,2,3.28S304.91,101.69,304.38,101.06Z" fill="#dd7243"/><path id="face_eye_shadow_r" d="M319.31,65c-1.27-1.25-13.6,1-16.4,6.56-1,2.08,9.61,7.13,10.93,5.76S320.59,66.24,319.31,65Z" fill="#dd7243"/><path id="face_shadow_r" d="M323.35,37c-.16-5.43-12.62-21.43-20.12-18.84-1.42.48-3.12,2-5,4.3-9,4.35-21.74,14.56-26.22,22.43-5.12,9-7.42,30.92-11.89,35s-14.29,7.45-14.29,7.45,11.72-1.26,16.47-5.56a12.78,12.78,0,0,0,2.33-3.23c-1.39,5.52-2.32,10-2.79,12.46-3.39,3-7.21,6-11.6,9.21,0,0,20.06-9.3,26.89-15.82,3.32-3.16,8.91-10.91,13.78-18,15.39-3.93,23.65-7.88,25.28-9.74A10.83,10.83,0,0,0,318,52.87c4.58-1.54,7.89-3,8.09-3.7C326.43,48,325.47,42.39,323.35,37Zm-28,24.4-1.51.73,2.3-3.47L297,58c1.85-.25,3.89-.61,6-1.06C300.37,58.65,297.72,60.2,295.33,61.39Z" fill="#dd7243"/><path id="eye_white_r" d="M314.08,70.47c-1.57-.72-6.76,0-6.54.64s.55,3.3,5.52,4.35C314.75,74.22,316.39,71.53,314.08,70.47Z" fill="#f9dacf"/><path id="eye_shadow_r" d="M314.76,69.65s-6.61,0-8,.88l.7,1.61a16.23,16.23,0,0,1,6.43-.59C315.2,71.91,314.76,69.65,314.76,69.65Z" fill="#d1bbb4"/><path id="eye_lash_r" d="M315.67,70.62s-.15-.48,1.16-.83c-2.55-1.25-7.56-.51-9.58.33a5.55,5.55,0,0,1-2.75.22s3.71,4.71,8.72,5.13c-5.23-1.09-5.28-4.09-5.28-4.09A11,11,0,0,1,313.3,71c2.85.4,3.34,1,3.42,1.18A4.7,4.7,0,0,0,315.67,70.62Z" fill="#1c1c1c"/><path id="eye_iris_r" d="M314.21,69.76a1.92,1.92,0,0,1,1.05,2.54,2,2,0,0,1-2.52,1.24A1.93,1.93,0,0,1,311.68,71,2,2,0,0,1,314.21,69.76Z" fill="#1c1c1c"/><path id="eye_reflection_r" d="M312.72,72.58c0,.28-1.24.4-2.75.27s-2.73-.45-2.72-.73,1.25-.4,2.76-.28S312.73,72.3,312.72,72.58Z" fill="#fcf7f5"/><path id="brow_r" d="M321,71.65c-.59-.4-8.54-9.58-9.74-10s-7.1.09-7.1.09a27.82,27.82,0,0,1,5.08,2.31c1.42.9,7.65,8.64,8.93,9S321.58,72,321,71.65Z" fill="#1c1c1c"/><path id="hair_back" d="M317.4,15.45C314.52,9.24,285.89,1.4,279.69.1s-36.38,10.77-39.12,11.49S234.42,21.74,233.38,25s1.61,43,2.76,47.55.92,6.43,9.88,7.52l7.37-14.37S262.31,73,266.83,74,320.29,21.65,317.4,15.45Z" fill="url(#linear-gradient-16)"/><path id="hair_side6_r" d="M295.53,57.44c-10,4.62-25.63,8.71-25.63,8.71,29.16-4.22,44.32-10.41,46.65-12.92s3.65-11.17,3.65-11.17S305.49,52.81,295.53,57.44Z" fill="url(#linear-gradient-17)"/><path id="hair_side5_r" d="M318.3,24.23c-7.54-6-35.13,29.76-25.63,30.13S326,48,326.61,46.05,324.48,29.13,318.3,24.23Z" fill="url(#linear-gradient-18)"/><path id="hair_side4_r" d="M293.61,40.27C281.9,64.63,274.42,78,249.45,95.06c0,0,20.31-8.76,27.31-15.09s24.17-31.88,24.17-31.88Z" fill="url(#linear-gradient-19)"/><path id="hair_side3_r" d="M272.69,40.31C267.33,49.15,264.45,71,259.88,75s-14.49,7.06-14.49,7.06S257.14,81.12,262,77s10.47-24.68,18-33.57,22.06-17.16,22.06-17.16l1-9C294.28,19.86,278.05,31.47,272.69,40.31Z" fill="url(#linear-gradient-20)"/><path id="hair_side2_r" d="M304.58,14.42c-9.19,2.9-31.62,49.46-22.33,47.47s41.94-26.06,41.94-28.09C324.19,28.39,312.15,12,304.58,14.42Z" fill="url(#linear-gradient-21)"/><path id="hair_side_r" d="M311.58,19.33c-5.87-2.19-30.9,13.42-38.62,30.31S260.9,88,260.9,88s23.76-17.27,31.77-33.66,24.49-25.07,24.49-25.07S315.25,20.69,311.58,19.33Z" fill="url(#linear-gradient-22)"/><path id="hair_top" d="M277.51,2.26c-3.51.16-40.59,13.69-37,13.21,16-2.12,26.06,6.67,26.06,6.67s22.3-11.24,36.29-11.51C302.85,10.63,281,2.09,277.51,2.26Z" fill="url(#linear-gradient-23)"/><path id="cheek_highlight_r" d="M289.29,76.17c-1.14.23-.5,5.63.33,6.64s7.88-6.07,8.29-6.89S291.21,75.79,289.29,76.17Z" fill="#fce7ca"/><path id="shoulder_highlight_r" d="M212.63,105.31c-2.61.52-11.89,3.38-10.95,4.19s13.47,6,14,4.32S214.18,105,212.63,105.31Z" fill="#fce7ca"/><path id="neck_highlight_r" d="M210.72,107.67c-1.53.8,7.64,1,9.44.64S233,97.12,233.36,96.16,212.09,107,210.72,107.67Z" fill="#fce7ca"/><path id="arm_r" d="M259.3,163.33c-16.93,8.71-18.9,16-28,18.44s-13.84.84-31.3,7.16c5.56-10.75,2.37-9.29,8.32-21s1.64-14.48,6.29-16.68,10.16-42.87-.07-46.21c-11.27-3.68-21.07-2.94-25.94-1.25-11.39,4-20.86,24.2-21.07,28.36S155.88,148.18,153,156.89s-7.87,39.26-8,45-9.08,29.8-8,36.42-.84,17.78,12.76,16.69c19.71-1.58,35.82-3.82,54.22-15.68,12.44-8,67.34-51.62,71.07-55.09Z" fill="#ffca8a"/><path id="shoulder_shadow_r" d="M184.78,110.66c-3.25-1.26-10,6.71-12.13,11.71s-2.74,11.45-7.46,16.34-4,16.06-1.69,17.25,15.8-19.44,16.47-21.87S188.86,112.24,184.78,110.66Z" fill="#dd7243"/><path id="forearm_shadow_r" d="M260.94,183.2c-2.25-1.08-9.48,9.59-13.9,12.47s-50.42,25.53-59,28.91-18.05,12-23.62,8.59-6-1.71-16.16-2.78c-4.11-.44-7.71,15.37-5.39,19.51s34.66-3.32,49-7.47,50.2-38.41,54-38.82,14.69-9,16.56-10.63S263.2,184.27,260.94,183.2Z" fill="#dd7243"/><path id="arm_shadow_r" d="M163.71,147.31c-17.59,12-21.38,74.63-21.38,74.63,5.93-8.27,35.1-28.62,55.61-30.83,4.64-8.42,11.52-27.62,11.68-35.74C200.41,161.06,167.77,167.89,163.71,147.31Z" fill="#dd7243"/><path id="armpit_shadow_r" d="M205.18,141.8c-2.56,2.37-1.53,6.76-1.26,11.41s6.46-3.73,8.33-6.34S208.58,138.65,205.18,141.8Z" fill="#dd7243"/><path id="shoulder_highlight_r-2" data-name="shoulder_highlight_r" d="M215.39,107.29c-2.49-.9-11.92-3.23-11.53-2.05s8.43,12.11,9.76,10.91S216.88,107.83,215.39,107.29Z" fill="#fce7ca"/><path id="forearm_highlight_r" d="M206.83,193.54c-11.59,1.92-34.08,7.29-38.69,10.46-3.29,2.26,7.79,7.34,12.61,9.35S218.43,191.63,206.83,193.54Z" fill="#fce7ca"/><path id="index_r" d="M284.26,142.71c-2.91,2-3.21,7.82-1.36,9.61,2,2,11.92-1.87,12.27-2.94C297.74,141.67,284,143.48,284.26,142.71Z" fill="#dd7243"/><path id="middle_r" d="M299.28,150.93c-1-2.6-11.66-3.16-12.43-2.33s4.63,10.59,6.28,10.68C297,159.51,300.29,153.54,299.28,150.93Z" fill="#dd7243"/><path id="ring_r" d="M293.58,156.07c-2.31,1.59-.37,12.09.62,12.64s9.22-7,8.93-8.59C301.21,149.32,293.45,156.16,293.58,156.07Z" fill="#dd7243"/><path id="pinky_r" d="M304.78,163.22c-1.13-3.73-6.49-2.76-8.59-.91s1.07,12,2.11,12.47S305.26,164.79,304.78,163.22Z" fill="#dd7243"/><path id="thumb_r" d="M271.38,150.78c-3.58.76-8.95,14.93-8.43,15.94s14.87-3.69,15.92-5.57C281.36,156.71,275,150,271.38,150.78Z" fill="#dd7243"/><path id="glove_r" d="M281.92,142.84c-3.06,1.39-23.27,14.21-28.54,23.31,3.26,1.4,13.93,15,13.3,21,0,0,4.13,4,8,2.73,1.24,1.28,7,2,12.22.3s16.58-11.8,17.13-16.79S290.36,146.18,281.92,142.84Z" fill="#203f4f"/><path id="glove_shadow_r" d="M300.76,169.94c-3.47-4.77-11.08-2.37-17.55,2.38s-17.15,7.65-15.87,10.83c2.28,5.67,15,9.44,19.52,7C297.15,184.62,304.13,174.58,300.76,169.94Z" fill="#1c1c1c"/></g></g></svg>