<svg xmlns="http://www.w3.org/2000/svg" xmlns:xlink="http://www.w3.org/1999/xlink" viewBox="0 0 447.78 673.78"><defs><linearGradient id="linear-gradient" x1="359.23" y1="282.89" x2="391.4" y2="282.89" gradientTransform="matrix(0.23, -0.97, -0.97, -0.23, 431.61, 1077.79)" gradientUnits="userSpaceOnUse"><stop offset="0" stop-color="#82422e"/><stop offset="1" stop-color="#602a17"/></linearGradient><linearGradient id="linear-gradient-2" x1="253.23" y1="255.41" x2="285.4" y2="255.41" gradientTransform="matrix(0.8, -0.61, -0.61, -0.8, 177.54, 997.81)" xlink:href="#linear-gradient"/><linearGradient id="linear-gradient-3" x1="224.2" y1="208.29" x2="244.69" y2="208.29" gradientTransform="matrix(0.99, -0.12, -0.12, -0.99, 12.29, 856.33)" xlink:href="#linear-gradient"/><linearGradient id="linear-gradient-4" x1="285.07" y1="259.67" x2="333.3" y2="259.67" gradientTransform="matrix(0.51, -0.86, -0.86, -0.51, 291.58, 1059.53)" xlink:href="#linear-gradient"/><linearGradient id="linear-gradient-5" x1="228.94" y1="180.46" x2="265.99" y2="180.46" gradientTransform="matrix(0.99, 0.13, 0.13, -0.99, -40.77, 781.56)" xlink:href="#linear-gradient"/><linearGradient id="linear-gradient-6" x1="241.69" y1="224.03" x2="262.84" y2="224.03" gradientTransform="matrix(0.9, -0.43, -0.43, -0.9, 93.29, 956.55)" xlink:href="#linear-gradient"/><linearGradient id="linear-gradient-7" x1="351.5" y1="295.21" x2="371.16" y2="295.21" gradientTransform="translate(448.56 234.99) rotate(77.46)" xlink:href="#linear-gradient"/><linearGradient id="linear-gradient-8" x1="225.41" y1="230.54" x2="243.18" y2="230.54" gradientTransform="matrix(0.99, -0.11, -0.11, -0.99, 7.92, 882.01)" xlink:href="#linear-gradient"/><linearGradient id="linear-gradient-9" x1="282.04" y1="274.99" x2="295.03" y2="274.99" gradientTransform="matrix(0.77, -0.64, -0.64, -0.77, 169.91, 1021.4)" xlink:href="#linear-gradient"/><linearGradient id="linear-gradient-10" x1="238.29" y1="171.16" x2="249.55" y2="171.16" gradientTransform="matrix(0.91, 0.41, 0.41, -0.91, -59.02, 675.81)" xlink:href="#linear-gradient"/><linearGradient id="linear-gradient-11" x1="360.3" y1="307.62" x2="402.13" y2="307.62" gradientTransform="matrix(0.07, -1, -1, -0.07, 505.45, 1052.29)" xlink:href="#linear-gradient"/><linearGradient id="linear-gradient-12" x1="783.89" y1="233.77" x2="762.15" y2="255.5" gradientTransform="translate(1023.72 200.66) rotate(130.91)" xlink:href="#linear-gradient"/><linearGradient id="linear-gradient-13" x1="654.62" y1="367.23" x2="631.03" y2="390.82" gradientTransform="translate(1066.22 795.89) rotate(162.02)" xlink:href="#linear-gradient"/><linearGradient id="linear-gradient-14" x1="487.59" y1="441.83" x2="525.92" y2="403.5" gradientTransform="translate(951.07 372.56) rotate(118.55)" xlink:href="#linear-gradient"/><linearGradient id="linear-gradient-15" x1="339.02" y1="355.86" x2="339.02" y2="311.32" gradientTransform="matrix(1, -0.07, -0.07, -1, 21.03, 958.33)" xlink:href="#linear-gradient"/><linearGradient id="linear-gradient-16" x1="92.34" y1="385.75" x2="124.16" y2="385.75" gradientTransform="matrix(1, -0.04, -0.04, -1, 162.95, 1027.25)" xlink:href="#linear-gradient"/><linearGradient id="linear-gradient-17" x1="195.42" y1="634.42" x2="213.26" y2="616.59" gradientTransform="matrix(0.98, -0.18, -0.18, -0.98, 216.34, 1268.48)" xlink:href="#linear-gradient"/><linearGradient id="linear-gradient-18" x1="226.37" y1="604.7" x2="204.64" y2="626.43" gradientTransform="matrix(0.98, -0.18, -0.18, -0.98, 216.34, 1268.48)" xlink:href="#linear-gradient"/><linearGradient id="linear-gradient-19" x1="196.2" y1="626.04" x2="171.86" y2="650.38" gradientTransform="matrix(0.98, -0.18, -0.18, -0.98, 216.34, 1268.48)" xlink:href="#linear-gradient"/><linearGradient id="linear-gradient-20" x1="164.31" y1="637.98" x2="200.97" y2="601.31" gradientTransform="matrix(0.98, -0.18, -0.18, -0.98, 216.34, 1268.48)" xlink:href="#linear-gradient"/><linearGradient id="linear-gradient-21" x1="215.66" y1="599.49" x2="191.98" y2="623.16" gradientTransform="matrix(0.98, -0.18, -0.18, -0.98, 216.34, 1268.48)" xlink:href="#linear-gradient"/><linearGradient id="linear-gradient-22" x1="182.16" y1="629.82" x2="220.5" y2="591.49" gradientTransform="matrix(0.98, -0.18, -0.18, -0.98, 216.34, 1268.48)" xlink:href="#linear-gradient"/><linearGradient id="linear-gradient-23" x1="267.92" y1="-47.15" x2="330.56" y2="-47.15" gradientTransform="matrix(0.99, 0.14, 0.14, -0.99, -10.13, 573.85)" xlink:href="#linear-gradient"/></defs><title>right2</title><g id="Layer_2" data-name="Layer 2"><g id="right2"><path id="pelvis" d="M299.91,378.9c-2.12,5.56,2.19,12.16-39,20.59-19.1,3.92-24.64,4.32-37.36,7s-32.44-11.12-41-35,42.16-72.5,62.86-76.79S303.27,345,305,348.23,302,373.35,299.91,378.9Z" fill="#4c3f26"/><path id="pants_leg_l" d="M427.54,211.58c-2.1,10.65-.38,21.58-8.21,29.31S364.69,308.67,350,324.73s-50,52.8-62.91,25c-8.81-18.9-22.83-46.49-18-59.06s34.77-46.71,56.54-53,43.64-26.1,45.65-30.92c-11.45-7.26-14.27-14.93-17-37.83-1.06-8.92,5.6-36.78,15.13-67,8.5-26.9,6.62-36.94,6.27-38.14l27-1.64S429.65,200.94,427.54,211.58Z" fill="#4c3f26"/><path id="shoe_l" d="M445,27.29c-4.11,4.55-25.35,7-31.32,7.59-1.25,8.4-9.44,29.33-9.27,30.27s4.25,24.06,4.25,24.06l-38.18-4.09S372.32,69,371,62.06s-7.05-14-9.51-23.22-1.55-30.62-1.55-30.62l27.3-1.38s.62,5.64,7.63,5.62S406.93,1.07,410.59.88,447.47,3.8,447.47,3.8,449.09,22.74,445,27.29Z" fill="#1c1c1c"/><path id="shoe_rim_l" d="M367.88,103.16l-7-28,48.52-6.89,1.7,32Z" fill="#1c1c1c"/><path id="pants_thigh_highlight_l" d="M396.05,238.77c-1.71-4.39-.56-8.48.74-12.27s10.92-1.08,17,2.3S400.37,249.87,396.05,238.77Z" fill="#aa8b4d"/><path id="pants_leg_r" d="M190.49,371.7c-18.31,5.46-29.62-49.24-37.14-81.38s.88-70.13-13.69-75.94S100.89,183.55,99,177.31s-14.93-35.64-30-46.16-42.15-49.4-42.15-49.4L61,55.44c11.63,20.49,87.05,84,103.56,91.7s24.11,21.35,30.68,32.71,41.25,88.23,48.29,114.33S204.92,367.4,190.49,371.7Z" fill="#aa8b4d"/><path id="pants_shin_shadow_r" d="M161.2,170.74c.18-4.71,2.86-8,5.57-11s10.44,3.36,14.65,8.87S160.73,182.65,161.2,170.74Z" fill="#4c3f26"/><path id="pants_calf_shadow_r" d="M113.28,169.13c-8.69,10.87-40.51-51.54-35-63.67,4.1-9,26.78,6.28,38.06,11.64S122,158.25,113.28,169.13Z" fill="#4c3f26"/><path id="pants_thigh_shadow_r" d="M174,361.23c-3.34-8.14-6.56-25.21-6.86-30.46s22.88,34.08,25.62,36.31S177.62,370.15,174,361.23Z" fill="#4c3f26"/><path id="shoe_r" d="M65.34,27.75C63.09,30,53.57,39.59,46.57,39.59c.5,9.75,18.77,26.91,18.77,26.91L26.84,81.75s-20-31.5-22.25-36S0,30.54,0,21.79L10.13,0H70.34S67.59,25.5,65.34,27.75Z" fill="#1c1c1c"/><path id="shoe_rim_r" d="M75,83C61.7,78.57,49.42,95.26,46.69,106.38,45.44,111.44,26.93,93,18.59,83c1-15.67,27.67-34,43.59-31,0,0,13.41,25,15.08,27.67S75,83,75,83Z" fill="#1c1c1c"/><path id="shoe_highlight_r" d="M45.17,33.67c-6.66,1-28.75-4.64-26.58-10,1.76-4.34,40.25,0,44.25,1.33S51.84,32.67,45.17,33.67Z" fill="#203f4f"/><path id="arm_shadow_l" d="M340.86,461.53c-17.51.66-37.85-10.65-46.15-13.11s-24.95,3.71-33.2.92c13.44,11.77,18.77,21,23.91,31.92s3.82,21,8,23.15,8.09,39.75-1.41,42.52c-10.48,3.05-25.55-4.21-29.51-6.81S252,518.63,251.93,514.8s-10-11.59-12.37-19.69-8.72-34.06-8.67-39.36-7.48-27.69-6.29-33.75,2.64-15.08,15.15-16.26,37.43,6.21,49.7,12.12,54.2,19.9,58.77,21Z" fill="#dd7243"/><path id="palm_shadow_l" d="M386,458.06a1.52,1.52,0,0,1,.42,0,17.37,17.37,0,0,0,2.36-1.42c1-.72,4.78-1.6,5.88-.32s-1.59,4.22-3.73,5.37c-.55.3-1.71,1.12-3.12,2.16a24.81,24.81,0,0,1-1.64,4.06c-.1.5-.21,1-.24,1.33-.15,1.38-6.27,6.71-7.62,6.71a5.32,5.32,0,0,1-1.18-.19l-.29.2c-.83,1.47-2.72,2.68-3.62,3.56-1.31,1.27-10.64,1.61-11.68.5a5.68,5.68,0,0,1-.84-1.39c-.32.85-.51,1.33-.51,1.33s-12.43-7.11-14.91-8.55c-2-1.14-6.43-5.66-8.22-7.5l1-.63c.65-4.83,2.17-3.52,3.65-2.83,2.59,1.21,0-4,0-4s5.42-2.64,7-11c-2.25.16,3-2.66,1-3-4.58-.78,6.35,1.7,8-1,0,0,3.49,4.92,3.37,2.25a5,5,0,0,1,3.71-2.46c3-.58,6.75.43,7.87,1.49,1.49,1.41,3.32,3,4,5.53,3,.8,3.82,4,5,4.05,1.48,0,4.18-1.93,5.08-2.74s4.62-2,5.83-.84-1.21,4.34-3.23,5.68c-.8.53-2.93,2.41-5.21,4.49a6.49,6.49,0,0,0,1.16-.31A1.79,1.79,0,0,1,386,458.06Z" fill="#dd7243"/><path id="glove_shadow_l" d="M361,443.68c.12,2.67-9.45,9.66-9.45,9.66-1.65,2.7,1.5,4.7,6.08,5.48a27.54,27.54,0,0,0,6.48.29c-1.57,8.35-3.86,16.22-3.86,16.22s-13-6-15.62-7.19a45,45,0,0,1-6.65-4.88c-1.71-1.41-3-2.57-3-2.57-8.68-5.54-2.39-22,1.29-23.52s19.73.42,26.78,2.43a2.79,2.79,0,0,1,1.69,1.62A5,5,0,0,0,361,443.68Z" fill="#1c1c1c"/><path id="index_l" d="M376.75,469.62a2.28,2.28,0,0,1-.27.23c-.7,1.55-2.47,2.91-3.29,3.87-1.19,1.39-10.45,2.56-11.59,1.54s-3.56-5.93-2.11-7.79,5.88-1.87,5.88-1.87a52,52,0,0,1,5.63.17c.3-2,1.16-6.76,2.49-7.28,1.68-.65,2.8,1.74,3.56,2.64S377.54,468.82,376.75,469.62Z" fill="#ffca8a"/><path id="middle_l" d="M385.05,461c-.05.51-.12,1-.13,1.35,0,1.39-5.64,7.24-7,7.37s-5.76-1-5.83-2.81,2.93-4.3,2.93-4.3a51,51,0,0,1,4.83-3.74l.05-.14s2.46-7,4.08-7.5,2.08,1.87,2.56,2.79C386.94,454.76,385.92,459,385.05,461Z" fill="#ffca8a"/><path id="thumb_l" d="M365.55,462.32c-2.59-1.21-6.86.38-10.5-1.29-3.87-1.79-5.16-4.9-3.45-7.6s5.28-1.17,10.92,1.57S368.13,463.54,365.55,462.32Z" fill="#ffca8a"/><path id="shirt_back" d="M189.64,541.11c-6.57-2.76-8.1-20.35-7.55-38.17s40.31-71.16,43.43-61.82S206.31,548.1,189.64,541.11Z" fill="#bca675"/><path id="torso_skin" d="M295.65,639.87H249.42l2.16-36.31S245,587.62,243,583.62,205.18,563.84,199,558.26s-12.85-71.67-3.4-93.91,87.17-17.27,94.07-7.77,8,45.3,2.64,57.42-31.95,46.16-31.95,46.16l35.33,24.63Z" fill="#ffca8a"/><path id="torso_shadow" d="M286.09,545.67c-2.5,3.5-14.07,6.7-14.07,6.7-.25,5.25,13.58,17.21,13.58,17.21l-21.83,49.79s-5.75-30.25-7.25-36.75c-10-3.5-22.5-20.75-22.5-20.75a54.06,54.06,0,0,1-20.5,0c30.5-10,34.25-36.75,31.25-56.25-4,15.75-29.25,15.75-31.25,0s5.5-46.37,46.38-46.37S288.59,542.17,286.09,545.67Z" fill="#dd7243"/><path id="shirt_torso" d="M285.75,549.32c2.75-5.5-2.05-23.29-11.23-23.7S233.11,558.25,227.36,570c-3.5,3.75-25.89-2-36.53-7.63,42.85-2.73,66.78-31.25,62.11-60.58s-41.33-40-61.2-27c.63-14.65,10.87-34.72,11.2-41s10-23-12.11-43.67c23.23-15.33,66.82-18.48,106.15-3.82,0,0-7.6,29.82-9.6,37.82s21.49,47.25,22.21,65.84S296.75,531.57,285.75,549.32Z" fill="#ffe8ae"/><path id="shirt_abs_shadow" d="M302.17,481.81c-2.61,12-36.88-6.85-48.33-10.18s-25.64-93.08-25.64-93.08c22.55-6.21,65.1,3.57,68.4,7.57s-5.3,28.5-9.45,37S304.77,469.81,302.17,481.81Z" fill="#bca675"/><path id="hair_tail11" d="M256.11,663c-6.78,6.07-29.88-8.2-34.15-25.34,0,0,13.93,15.45,31.65,8,6.15-2.59,8.36-12.2,12.95-10.33C277.8,639.92,262.89,657,256.11,663Z" fill="url(#linear-gradient)"/><path id="hair_tail10" d="M235.45,651.41c-9.1.44-18-25.21-10.51-41.2,0,0,1.06,20.77,19.51,26.17,6.41,1.87,14.19-4.19,16.57.16C266.86,647.18,244.54,651,235.45,651.41Z" fill="url(#linear-gradient-2)"/><path id="hair_tail9" d="M230.34,658.39c-10.4-7.07-26.21-26.47-16.21-44.9C222.45,598.15,206,586,206,586c20.63,9.39,12.46,29.49,18.28,42.64,4.78,10.79,7.68,12.15,8.57,12.29C230.71,640.93,217.21,641.6,230.34,658.39Z" fill="url(#linear-gradient-3)"/><path id="hair_tail8" d="M221.1,656.82c-12.47-.44-17.53,10.47-21.11,16.51,4.26-16.93,12-19.76,19-19.46s25.88,8.08,35.73-4.09C242.1,666.12,231.43,657.44,221.1,656.82Z" fill="url(#linear-gradient-4)"/><path id="hair_tail7" d="M228.48,630c-3.52-8.92-12.17-13.72-17.52-14.39,16.47,2.57,21.72,8.6,23.66,13.64s-2.45,19.07,9.15,22.27C228.38,647.62,231.22,637.44,228.48,630Z" fill="url(#linear-gradient-5)"/><path id="hair_tail6" d="M222.36,657.83c-5.78-1-9.31-15.51-2.44-24.55,0,0,6.42,14.15,10.12,16.32s9.48-.72,10.39,2.33C242.67,659.41,228.13,658.78,222.36,657.83Z" fill="url(#linear-gradient-6)"/><path id="hair_tail5" d="M251,659.15c-2.76,1.07-3.93-4.82-7.63-6.31s-17.75,1.84-17.75,1.84c2.73-10.2,15.45-15.88,19.43-12.18S257.77,656.54,251,659.15Z" fill="url(#linear-gradient-7)"/><path id="hair_tail4" d="M223.4,658.57c-9-6.2-22.59-23.11-13.81-39.05,7.3-13.25-6.87-23.88-6.87-23.88,17.84,8.26,10.63,25.65,15.61,37.09,4.09,9.39,6.59,10.58,7.36,10.71C223.81,643.43,212.1,643.93,223.4,658.57Z" fill="url(#linear-gradient-8)"/><path id="hair_tail3" d="M235.49,641.81c-8-.21-23-5.13-24-18.39-.82-11-13.74-11.88-13.74-11.88,14.21-2.06,16.74,11.46,24.35,16.48,6.28,4.13,8.27,3.84,8.79,3.61C229.72,632.36,222.72,637.35,235.49,641.81Z" fill="url(#linear-gradient-9)"/><path id="hair_tail2" d="M233.23,622.61c-.77,6.47.23,7.9.61,8.21-1-.6-7.6-4.1-6.1,7.54-2.94-6.27-5-19.87,4.94-25.77,8.23-4.91,3.88-15.27,3.88-15.27C243.67,607.55,234.17,614.76,233.23,622.61Z" fill="url(#linear-gradient-10)"/><path id="hair_tail" d="M218.83,649.74c-9.83,4.55-9.47,15-9.88,21-3.33-14.77,1.54-20,7.1-22.5s23.19-3.87,26.06-17.15C238.73,648.72,227.07,646.18,218.83,649.74Z" fill="url(#linear-gradient-11)"/><path id="hair_side4_l" d="M342.18,644.07c-7.75,1.44-20.86-6.32-21.92-8.05s9.48-24.13,16-31.06S351.65,642.3,342.18,644.07Z" fill="url(#linear-gradient-12)"/><path id="hair_side3_l" d="M338.7,659.94c-7.35,3-22.95-7.28-24.61-12.43-.63-1.93,22.61-35.7,31.28-39.6C355.79,603.22,351.92,654.52,338.7,659.94Z" fill="url(#linear-gradient-13)"/><path id="hair_side2_l" d="M347.51,639.11c-3,2.57-11.42.12-11.42.12s.28-18.61-10.26-33.5-14.3-44-14.3-44,16.77,14.11,27.89,29S352.25,635,347.51,639.11Z" fill="url(#linear-gradient-14)"/><path id="hair_side_l" d="M338.09,600.74c-.71,11,1.67,29,1.67,29s-7-5.31-8.06-8.56c-2.89-8.67-5.12-12.55-6.56-14.11,2.69-1.34,8.34-8.16,17.59-33C342.73,574.08,338.81,589.78,338.09,600.74Z" fill="url(#linear-gradient-15)"/><path id="face_shadow" d="M302,661.05a39.68,39.68,0,0,1-38.34-61.32c-1.35-8-1.17-17.72,3.39-22.88,7.58-8.6,18.72-15.82,21.59-14.86s21.81,13.71,21.81,13.71c3.28-.61,8.15.58,9,1s-.9,7-.69,9.84a10.09,10.09,0,0,0,.68,2.72A39.68,39.68,0,0,1,302,661.05Z" fill="#dd7243"/><path id="face" d="M304,654.62a36.53,36.53,0,0,1-36.67-55.56c-1.42-7.31-1.48-16.27,2.6-21.13,6.78-8.08,16.86-15,19.53-14.15s20.38,12.11,20.38,12.11a20.07,20.07,0,0,1,8.34.69c.83.33-.67,6.48-.41,9.07a8.82,8.82,0,0,0,.69,2.48A36.53,36.53,0,0,1,304,654.62Z" fill="#ffca8a"/><path id="face_nose_shadow" d="M317,581.29c-1.09.91-10.49-2-9.72-2.85,1.87-2,10.56-2.84,10.81-1.86S318.12,580.38,317,581.29Z" fill="#dd7243"/><path id="face_toplip_shadow" d="M305.38,575.3s-5.61-.43-8.09.5a11.63,11.63,0,0,1,5.33-1.71,30.43,30.43,0,0,0,2.55-1.93s2.85.85,3,2S305.88,574.64,305.38,575.3Z" fill="#dd7243"/><path id="face_chin_shadow" d="M301.34,570.6c-.34.75-4.09,1.94-5.2,1.15s0-3.25,1-3.7S301.67,569.85,301.34,570.6Z" fill="#dd7243"/><path id="face_eye_shadow_r" d="M325.54,601.22c-.88,1.55-13.34,2.8-17.57-1.83-1.57-1.72,7.3-9.48,8.95-8.52S326.43,599.68,325.54,601.22Z" fill="#dd7243"/><path id="face_shadow_r" d="M334.05,626.07c-.2-.72-3.51-2.16-8.09-3.7a10.83,10.83,0,0,0-1.78-3.75c-1.63-1.85-9.89-5.8-25.28-9.74-4.87-7.14-10.46-14.89-13.77-18-6.84-6.52-26.9-15.82-26.9-15.82,4.39,3.17,8.21,6.22,11.6,9.21.47,2.41,1.4,6.94,2.79,12.47a12.68,12.68,0,0,0-2.33-3.24c-4.75-4.3-16.47-5.56-16.47-5.56s9.83,3.35,14.29,7.45,6.77,26,11.89,35c4.48,7.87,17.25,18.08,26.22,22.43,1.84,2.27,3.54,3.82,5,4.31,7.5,2.59,20-13.42,20.12-18.84C333.43,632.85,334.38,627.21,334.05,626.07ZM311,618.27c-2.11-.46-4.15-.82-6-1.07l-.9-.6c-.71-1.08-1.48-2.25-2.3-3.48l1.52.73C305.67,615,308.32,616.59,311,618.27Z" fill="#dd7243"/><path id="eye_white_r" d="M319,597.38c-1.32,1.12-6.52,1.82-6.47,1.17s-.38-3.33,4.12-5.69C318.64,593.59,321,595.73,319,597.38Z" fill="#f9dacf"/><path id="eye_shadow_r" d="M312,599.31l.23-1.74a16.26,16.26,0,0,0,6.35-1.19c1.13-.69,1.32,1.6,1.32,1.6S313.52,599.74,312,599.31Z" fill="#d1bbb4"/><path id="eye_lash_r" d="M321.85,597.29c-2.11,1.89-7.14,2.55-9.31,2.29a5.6,5.6,0,0,0-2.71.54s2.29-5.55,7-7.32c-4.73,2.48-4,5.38-4,5.38a11,11,0,0,0,5.26-1.09c2.63-1.16,2.94-1.88,3-2.06a4.54,4.54,0,0,1-.59,1.77S320.49,597.3,321.85,597.29Z" fill="#1c1c1c"/><path id="eye_iris_r" d="M316.56,597.53a1.92,1.92,0,0,1,.32-2.73,2,2,0,0,1,2.77.5,1.91,1.91,0,0,1-.32,2.73A2,2,0,0,1,316.56,597.53Z" fill="#1c1c1c"/><path id="eye_reflection_r" d="M314.72,597.17c-1.42.53-2.64.75-2.73.49s1-.92,2.42-1.45,2.64-.75,2.72-.49S316.14,596.63,314.72,597.17Z" fill="#fcf7f5"/><path id="brow_r" d="M325.34,594.36c-.46.54-5.6,11.55-6.66,12.23s-6.85,1.85-6.85,1.85a28.3,28.3,0,0,0,4.26-3.61c1.11-1.25,5-10.4,6.12-11.12S325.8,593.82,325.34,594.36Z" fill="#1c1c1c"/><path id="hair_back" d="M332.14,651.43c-1.73,6.62-28.5,19.44-34.37,21.83s-37.72-4.11-40.54-4.34-7.86-8.88-9.47-11.87-6.08-42.59-5.75-47.27-.24-6.5,8.37-9.17l9.82,12.83s7.47-8.78,11.74-10.61S333.87,644.81,332.14,651.43Z" fill="url(#linear-gradient-16)"/><path id="hair_side6_r" d="M303.13,614c-10.63-2.77-26.77-4-26.77-4,29.45-1,45.46,2.34,48.2,4.39s5.58,10.34,5.58,10.34S313.76,616.79,303.13,614Z" fill="url(#linear-gradient-17)"/><path id="hair_side5_r" d="M331.46,642.62c-6.36,7.24-39.87-23-30.59-25.07s33.93.33,34.87,2.12S336.66,636.7,331.46,642.62Z" fill="url(#linear-gradient-18)"/><path id="hair_side4_r" d="M304.3,631.24c-15.86-21.87-25.6-33.67-53.22-46,0,0,21.54,5,29.56,10s29.47,27,29.47,27Z" fill="url(#linear-gradient-19)"/><path id="hair_side3_r" d="M283.71,634.94c-6.85-7.75-13.59-28.75-18.79-31.85s-15.52-4.37-15.52-4.37,11.73-1.16,17.26,2.07,14.71,22.42,23.71,29.82,24.77,12.95,24.77,12.95l2.61,8.68C308.61,651.21,290.57,642.68,283.71,634.94Z" fill="url(#linear-gradient-20)"/><path id="hair_side2_r" d="M319.71,654.72c-9.56-1.21-39.94-43-30.44-42.72s45.91,18.16,46.27,20.15C336.51,637.48,327.59,655.72,319.71,654.72Z" fill="url(#linear-gradient-21)"/><path id="hair_side_r" d="M325.72,648.65c-5.39,3.2-32.8-7.7-43.41-22.94S263.6,590.1,263.6,590.1s26.46,12.75,37.27,27.45,28.56,20.3,28.56,20.3S329.08,646.65,325.72,648.65Z" fill="url(#linear-gradient-22)"/><path id="hair_top" d="M285.47,673c-3.52-.16-40.6-13.69-37-13.21,16,2.12,26.06-6.67,26.06-6.67s22.3,11.24,36.29,11.51C310.8,664.61,289,673.15,285.47,673Z" fill="url(#linear-gradient-23)"/><path id="cheek_highlight_r" d="M293.61,598.66c-1.16.09-2-5.28-1.49-6.48s9.23,3.7,9.85,4.37S295.56,598.51,293.61,598.66Z" fill="#fce7ca"/><path id="neck_highlight_r" d="M221.64,569.17c-.35.52-.72.83-1.06.76-2.61-.51-11.89-3.38-11-4.18s13.47-6,14-4.32c.28.91-.16,3.35-.87,5.38a40.2,40.2,0,0,1,5.36.12c1.8.32,12.83,11.19,13.2,12.15C241.61,579.85,227.9,572.53,221.64,569.17Z" fill="#fce7ca"/><path id="arm_r" d="M236.55,476.37c-19,1.43-24.5-3.79-33.51-1.07s-12.24,6.52-30.42,10.28c10.37,6.25,6.88,6.68,18.09,13.55s9,11.49,14.08,10.93,31.09,31.22,24.12,39.41c-7.68,9-16.42,13.53-21.46,14.64C195.68,566.7,177,554.4,174.66,551s-18.32-7.59-25.32-13.51S122.09,508.13,119,503.29,95.64,482.65,93.1,476.43s-10-14.71,2.15-20.9c17.62-9,32.53-15.48,54.41-15,14.79.32,84.39,8.76,89.39,9.77Z" fill="#ffca8a"/><path id="forearm_shadow_r" d="M227.56,458.57c-1.36,2.1-13.1-3.21-18.38-3.35s-56.33,4.62-65.41,6.23-21.65-.76-24.63,5-4.2,4.58-12.31,10.82c-3.28,2.53-14.61-9.06-14.81-13.81s31.28-15.29,45.7-19.27,62.87,6.46,66.32,4.82,17.24,0,19.67.41S228.92,456.48,227.56,458.57Z" fill="#dd7243"/><path id="arm_shadow_r" d="M163.46,540c-21.28-1-57.26-52.42-57.26-52.42,9.38,3.94,44.89,6,63.52-2.82,8.36,4.75,24.28,17.52,28.66,24.35C187.55,509.11,156.16,520.36,163.46,540Z" fill="#dd7243"/><path id="armpit_shoulder_r" d="M221.1,528.51c-3.43-.68-4.84-5-7-9.07s7.46-.19,10.42,1S225.64,529.42,221.1,528.51Z" fill="#dd7243"/><path id="collar_highlight_r" d="M247.85,552.58c-1.66,2.07-8.47,9-8.76,7.78s.86-14.73,2.62-14.41S248.84,551.34,247.85,552.58Z" fill="#fce7ca"/><path id="shoulder_highlight_r" d="M202.14,559.18c-2.37,2.66-15.38-1.91-21.42-5.71s-11.59-9.71-20.18-12.24-16.4-13.54-14.95-15.71S176.7,537,179.26,539,205.12,555.83,202.14,559.18Z" fill="#fce7ca"/><path id="forearm_highlight_r" d="M194.21,474.51c-18.67,6.21-56.57,15.74-66.48,14.55-7.07-.86,4.88-9.58,9.75-16.43S212.88,468.3,194.21,474.51Z" fill="#fce7ca"/><path id="glove_streak6" d="M286.24,492.45c-78-16.83-142-27.32-141.15-29.83s66.17,3.9,144.16,20.73S428.35,521,427.52,523.54,364.23,509.27,286.24,492.45Z" fill="#203f4f"/><path id="glove_streak5" d="M250.34,473.67c-66.41-14.32-120.24-25.29-120.08-25.78s54.25,9.68,120.67,24,120,27.38,119.84,27.87S316.76,488,250.34,473.67Z" fill="#203f4f"/><path id="glove_streak4" d="M228.2,464.36C161.79,450,108,439.07,108.13,438.58s54.25,9.67,120.66,24,120,27.39,119.84,27.88S294.62,478.68,228.2,464.36Z" fill="#203f4f"/><path id="glove_dot4" d="M206.89,466.59c-3.13-.82-5-3.14-4.19-5.19s4-3,7.17-2.23,5,3.15,4.18,5.2S210,467.41,206.89,466.59Z" fill="#203f4f"/><path id="glove_dot3" d="M219,463.37c-1.3-.34-2.07-1.31-1.73-2.16s1.67-1.26,3-.92,2.07,1.31,1.73,2.16S220.29,463.71,219,463.37Z" fill="#203f4f"/><path id="glove2_r" d="M373.7,518c-4.15,1.54-27.62-11.7-27.62-11.7,3.24-1.95,4.12-6.73,6.14-9.78s19.52-2.31,22.4-1.78,8.4,7.46,8.91,9.95S377.85,516.41,373.7,518Z" fill="#203f4f"/><path id="skin_dot6" d="M77.54,476.57a2,2,0,0,1-2.1-2,2.17,2.17,0,0,1,2.43-1.7,2,2,0,0,1,2.1,2A2.17,2.17,0,0,1,77.54,476.57Z" fill="#fce7ca"/><path id="skin_dot5" d="M83.15,470.55a1.37,1.37,0,0,1-1.43-1.34,1.47,1.47,0,0,1,1.65-1.16,1.38,1.38,0,0,1,1.44,1.34A1.48,1.48,0,0,1,83.15,470.55Z" fill="#fce7ca"/><path id="skin_dot4" d="M182.21,559.06c-3-.18-5.28-2.29-5.06-4.73s2.84-4.26,5.85-4.08,5.28,2.29,5.06,4.72S185.22,559.24,182.21,559.06Z" fill="#fce7ca"/><path id="shirt_streak2" d="M373.41,516.94c-6.83-2.41-87.3-21.32-100.68-24.44,50.43,5.46,99.78,22.88,102.85,23.23s10-1.08,10-1.08C383.17,516.51,380.23,519.34,373.41,516.94Z" fill="#fce7ca"/><path id="glove_streak3" d="M270.82,477.51c-78-16.83-142-27.32-141.15-29.83s66.17,3.9,144.16,20.73,139.09,37.68,138.26,40.19S348.81,494.33,270.82,477.51Z" fill="#203f4f"/><path id="glove_streak2" d="M234.92,458.73C168.5,444.41,114.68,433.44,114.84,433s54.25,9.68,120.67,24,120,27.38,119.84,27.87S301.33,473.06,234.92,458.73Z" fill="#203f4f"/><path id="glove_streak" d="M212.78,449.42C146.36,435.09,92.54,424.13,92.7,423.64s54.25,9.67,120.67,24,120,27.39,119.84,27.88S279.19,463.74,212.78,449.42Z" fill="#203f4f"/><path id="highlight_streak" d="M286.59,489.5c-66.41-14.33-120.24-25.29-120.08-25.78s54.25,9.67,120.67,24S407.18,515.1,407,515.6,353,503.82,286.59,489.5Z" fill="#fff"/><path id="glove_dot2" d="M191.46,451.66c-3.13-.82-5-3.15-4.18-5.2s4-3,7.16-2.23,5,3.15,4.19,5.2S194.6,452.47,191.46,451.66Z" fill="#203f4f"/><path id="glove_dot" d="M203.57,448.43c-1.3-.34-2.08-1.3-1.74-2.15s1.67-1.27,3-.93,2.08,1.31,1.74,2.16S204.87,448.77,203.57,448.43Z" fill="#203f4f"/><path id="glove_r" d="M254.37,477.11c-5.87,2.19-39.08-16.55-39.08-16.55,4.58-2.75,5.82-9.53,8.69-13.84s27.61-3.26,31.69-2.52,11.88,10.55,12.6,14.08S260.24,474.93,254.37,477.11Z" fill="#203f4f"/><path id="skin_dot3" d="M62.12,461.63a2,2,0,0,1-2.1-2,2.16,2.16,0,0,1,2.42-1.7,2,2,0,0,1,2.1,2A2.16,2.16,0,0,1,62.12,461.63Z" fill="#fce7ca"/><path id="skin_dot2" d="M67.73,455.61a1.38,1.38,0,0,1-1.44-1.34A1.49,1.49,0,0,1,68,453.11a1.37,1.37,0,0,1,1.43,1.34A1.47,1.47,0,0,1,67.73,455.61Z" fill="#fce7ca"/><path id="skin_dot" d="M172.64,540c-.22,2.44-2.84,4.27-5.85,4.09s-5.28-2.29-5.06-4.72,2.83-4.27,5.85-4.09S172.86,537.6,172.64,540Z" fill="#fce7ca"/><path id="shirt_streak" d="M358,502c-6.82-2.4-87.29-21.32-100.67-24.44,50.43,5.46,99.78,22.88,102.85,23.23s10-1.08,10-1.08C367.75,501.57,364.8,504.4,358,502Z" fill="#fce7ca"/><path id="face_streak" d="M314.05,593.19c0,.75-36.62,1.36-81.79,1.36s-81.79-.61-81.79-1.36,36.62-1.36,81.79-1.36S314.05,592.44,314.05,593.19Z" fill="#ffe8ae"/></g></g></svg>