<svg xmlns="http://www.w3.org/2000/svg" xmlns:xlink="http://www.w3.org/1999/xlink" viewBox="0 0 368.45 682.38"><defs><linearGradient id="linear-gradient" x1="149.4" y1="27.2" x2="181.57" y2="27.2" gradientUnits="userSpaceOnUse"><stop offset="0" stop-color="#82422e"/><stop offset="1" stop-color="#602a17"/></linearGradient><linearGradient id="linear-gradient-2" x1="200.81" y1="161.5" x2="232.98" y2="161.5" gradientTransform="matrix(0.82, 0.58, -0.58, 0.82, 92.1, -218.99)" xlink:href="#linear-gradient"/><linearGradient id="linear-gradient-3" x1="144.63" y1="50.03" x2="165.12" y2="50.03" xlink:href="#linear-gradient"/><linearGradient id="linear-gradient-4" x1="118.19" y1="25.64" x2="166.41" y2="25.64" xlink:href="#linear-gradient"/><linearGradient id="linear-gradient-5" x1="181.22" y1="-62.16" x2="218.27" y2="-62.16" gradientTransform="matrix(0.84, -0.54, 0.54, 0.84, 30.43, 199.47)" xlink:href="#linear-gradient"/><linearGradient id="linear-gradient-6" x1="148.67" y1="28.79" x2="169.81" y2="28.79" xlink:href="#linear-gradient"/><linearGradient id="linear-gradient-7" x1="438.48" y1="244.05" x2="458.14" y2="244.05" gradientTransform="matrix(-0.22, -0.98, -0.98, 0.22, 504.73, 402.53)" xlink:href="#linear-gradient"/><linearGradient id="linear-gradient-8" x1="155.47" y1="4.59" x2="173.24" y2="4.59" gradientTransform="translate(0.53 99.87) rotate(-18.81)" xlink:href="#linear-gradient"/><linearGradient id="linear-gradient-9" x1="163.14" y1="50.2" x2="176.13" y2="50.2" gradientTransform="translate(-9.61 2.49) rotate(-0.53)" xlink:href="#linear-gradient"/><linearGradient id="linear-gradient-10" x1="148.26" y1="122.53" x2="159.53" y2="122.53" gradientTransform="translate(15.65 -76.26) rotate(7.01)" xlink:href="#linear-gradient"/><linearGradient id="linear-gradient-11" x1="137.69" y1="5.2" x2="179.52" y2="5.2" gradientTransform="translate(0.08 70.71) rotate(-13.22)" xlink:href="#linear-gradient"/><linearGradient id="linear-gradient-12" x1="684.45" y1="288.24" x2="662.72" y2="309.97" gradientTransform="matrix(-0.54, -0.84, -0.84, 0.54, 869.15, 460.76)" xlink:href="#linear-gradient"/><linearGradient id="linear-gradient-13" x1="777.05" y1="138.01" x2="753.46" y2="161.6" gradientTransform="matrix(-0.97, -0.24, -0.24, 0.97, 1042.74, 84.02)" xlink:href="#linear-gradient"/><linearGradient id="linear-gradient-14" x1="640.24" y1="313.36" x2="678.58" y2="275.02" gradientTransform="matrix(-0.54, -0.84, -0.84, 0.54, 869.15, 460.76)" xlink:href="#linear-gradient"/><linearGradient id="linear-gradient-15" x1="256.44" y1="102.95" x2="256.44" y2="58.4" xlink:href="#linear-gradient"/><linearGradient id="linear-gradient-16" x1="168.15" y1="37.37" x2="199.97" y2="37.37" xlink:href="#linear-gradient"/><linearGradient id="linear-gradient-17" x1="225.91" y1="66.13" x2="243.75" y2="48.3" xlink:href="#linear-gradient"/><linearGradient id="linear-gradient-18" x1="256.86" y1="36.41" x2="235.13" y2="58.15" xlink:href="#linear-gradient"/><linearGradient id="linear-gradient-19" x1="226.7" y1="57.75" x2="202.35" y2="82.1" xlink:href="#linear-gradient"/><linearGradient id="linear-gradient-20" x1="194.8" y1="69.69" x2="231.46" y2="33.02" xlink:href="#linear-gradient"/><linearGradient id="linear-gradient-21" x1="246.15" y1="31.2" x2="222.47" y2="54.88" xlink:href="#linear-gradient"/><linearGradient id="linear-gradient-22" x1="212.65" y1="61.54" x2="250.99" y2="23.2" xlink:href="#linear-gradient"/><linearGradient id="linear-gradient-23" x1="182.41" y1="11.27" x2="245.06" y2="11.27" xlink:href="#linear-gradient"/></defs><title>Stand</title><g id="Layer_2" data-name="Layer 2"><g id="Stand"><path id="shirt_back" d="M117,131.39c-6.57,2.76-8.11,20.35-7.55,38.17s40.3,71.16,43.42,61.82S133.66,124.4,117,131.39Z" fill="#bca675"/><path id="index_right" d="M251.31,134.78c-2.44,2.56-1.51,8.41.67,9.8,2.36,1.5,11.26-4.38,11.39-5.5C264.28,130.91,251.17,135.61,251.31,134.78Z" fill="#ffca8a"/><path id="middle_right" d="M268.11,140.69c-1.53-2.34-12.07-.66-12.64.31s6.73,9.39,8.36,9.14C267.68,149.55,269.64,143,268.11,140.69Z" fill="#ffca8a"/><path id="ring_right" d="M274.06,150.3c-4.14-10.15-10.29-1.85-10.19-2-1.92,2,2.16,11.89,3.25,12.23S274.68,151.83,274.06,150.3Z" fill="#ffca8a"/><path id="pinky_right" d="M275.59,153.84c-1.89-3.41-6.93-1.34-8.59.9s3.55,11.56,4.66,11.76S276.38,155.28,275.59,153.84Z" fill="#ffca8a"/><path id="thumb_right" d="M235.1,141.72c-3.35,1.49-5.64,16.46-4.92,17.35s13.77-6.72,14.4-8.77C246.09,145.43,238.45,140.23,235.1,141.72Z" fill="#ffca8a"/><path id="hair_tail11_Zz0" d="M181.53,8.57c-1.81-12-21.86-1.5-29.36,3.66s1,31,16.62,39.14c0,0-11.75-17.16-.34-32.64C172.41,13.36,182.27,13.47,181.53,8.57Z" fill="url(#linear-gradient)"/><path id="hair_tail10_Zz-35.3" d="M173.38,18.31c-9.11-.12-17.14,25.81-9.09,41.54,0,0,.34-20.8,18.6-26.82,6.34-2.09,14.32,3.7,16.56-.72C204.91,21.47,182.48,18.44,173.38,18.31Z" fill="url(#linear-gradient-2)"/><path id="hair_tail9_Zz0" d="M160.25,12.65c-9.5,8.25-22.92,29.37-10.81,46.5,10.06,14.25-4.81,28.25-4.81,28.25,19.37-11.75,8.89-30.75,13.13-44.5,3.48-11.28,6.2-13,7.07-13.21C162.67,29.94,149.18,30.87,160.25,12.65Z" fill="url(#linear-gradient-3)"/><path id="hair_tail8_Zz0" d="M143.16,32.44c-6,10.94-18,9.71-25,9.7,16.72,5,23.1-.19,26.44-6.39s6.28-26.37,21.78-28.62C145.91,9.63,147.91,23.24,143.16,32.44Z" fill="url(#linear-gradient-4)"/><path id="hair_tail7_Zz32.4" d="M174.2,40.78c-.39-5.39-10.34-16.2-1.21-24-12.27,10.06-5.37,18.06-4.67,26,.62,9.58-5.17,17.6-9.73,20.48C172.4,53.86,174.59,46.18,174.2,40.78Z" fill="url(#linear-gradient-5)"/><path id="hair_tail6_Zz0" d="M169.79,17.76c-1.16-7.71-14-1-18.87,2.36s-1.82,18,8.25,23.25c0,0-.22-15.54,2.21-19.07S170.26,20.92,169.79,17.76Z" fill="url(#linear-gradient-6)"/><path id="hair_tail5_Zz102.7" d="M176.28,6.73c-3,.21-1.51,6-4.22,9s-16.85,5.89-16.85,5.89C162,29.65,176,29.38,178,24.33S183.51,6.22,176.28,6.73Z" fill="url(#linear-gradient-7)"/><path id="hair_tail4_Zz18.8" d="M158,44.55c-.3-10.24,1.46-12.39,2.11-12.83-1.7.81-12.52,5.35-8.52-12.71-5.5,9.43-10.61,30.53,4.12,41.21,12.25,8.88,4,24.54,4,24.54C172.25,69.69,158.33,57,158,44.55Z" fill="url(#linear-gradient-8)"/><path id="hair_tail3_Zz0.5" d="M163.67,27.43c-6,5.28-14.35,18.74-6.59,29.52,6.47,9-2.88,17.93-2.88,17.93,12.21-7.56,5.46-19.54,8.07-28.27,2.14-7.2,3.86-8.26,4.4-8.41C165.32,38.37,156.75,39.05,163.67,27.43Z" fill="url(#linear-gradient-9)"/><path id="hair_tail2_Zz-7" d="M158.89,44.1c-5.74,3.87-14.48,14.49-9,24.64,4.53,8.45-4.52,15.09-4.52,15.09,11.36-5.11,6.91-16.18,10.15-23.39,2.66-5.95,4.26-6.67,4.74-6.74C159.06,53.7,151.62,53.31,158.89,44.1Z" fill="url(#linear-gradient-10)"/><path id="hair_tail_Zz13.2" d="M157.74,45.07c-2.89,10.43-13.23,11.76-19.17,13.15,15.12.9,19.48-4.75,21.06-10.64s.08-23.51,12.72-28.49C155.54,25.27,159.93,36.36,157.74,45.07Z" fill="url(#linear-gradient-11)"/><path id="hair_side4_left_Zz-102.2" d="M265.38,38.27c-7.47-2.53-21.55,3.29-22.84,4.85s6,25.24,11.43,33S274.5,41.36,265.38,38.27Z" fill="url(#linear-gradient-12)"/><path id="hair_side3_left_Zz-58.8" d="M262.83,21.13c-7.55-2.46-22.36,8.94-23.64,14.2-.48,2,25.17,34,34.1,37.2C284,76.44,276.41,25.56,262.83,21.13Z" fill="url(#linear-gradient-13)"/><path id="hair_side2_left_Zz77.8" d="M273.15,41.26c-3.15-2.35-11.4.71-11.4.71s1.64,18.55-7.78,34.17-11,45-11,45,15.7-15.3,25.7-30.95S278.17,45,273.15,41.26Z" fill="url(#linear-gradient-14)"/><path id="hair_side_left_Zz90" d="M257.15,80.48c-1.52-10.88-.47-29.07-.47-29.07s-6.56,5.81-7.4,9.13,2.18,19.41,14.45,46.19C263.73,106.73,258.67,91.35,257.15,80.48Z" fill="url(#linear-gradient-15)"/><path id="pelvis" d="M220.08,282.38c-3.21-5-.33-12.34-42.33-12.25-19.5.05-25,.78-38,.78s-29.5,17.47-33,42.55,56,62.42,77.14,62.42,46.36-61,47.44-64.5S223.28,287.39,220.08,282.38Z" fill="#4c3f26"/><path id="pants_leg_right" d="M117.69,313.46c-19-1.43-18.44,54.42-18.94,87.42s23.5,70.5,10.5,79.29-39,36.21-39.5,42.71-7,38-19.5,51.5-43.5,72.5-43.5,72.5h34c7-22.5,85-97.5,99.5-108.5s19-26,23-38.5,21.5-95,22.81-122S132.71,314.58,117.69,313.46Z" fill="#aa8b4d"/><path id="pants_leg_left" d="M338.25,480.69c-1-10.81,0-20.31-7-28.81s-45.5-85-58.5-102.5-44.28-57.66-60-31.39c-10.71,17.89-27.5,43.89-24,56.89s32,47.5,53,56,38.5,33,40,38c-8.5,13-7,49-7.5,55.5s9,33,15,64.5,0,54.5,0,54.5h30.5S339.25,491.49,338.25,480.69Z" fill="#4c3f26"/><path id="arm_shadow_left" d="M292.85,191.82c-1.33-1.56-14-20.1-17-20.77s-22.33,21.67-30.87,26-14.8.67-25.42,8.16c-3.3-1.18,0-22.28,2.37-30.08s-1.08-32.41-3-38.08-11.83-7.37-20.38-8.75c-11.51-1.86-14.29,48.42-14.29,75.22s24.29,43.53,25.28,45.86,21-1,28.67-6.66,21.67-18.34,26.67-25S294.18,193.38,292.85,191.82Z" fill="#dd7243"/><path id="arm_left" d="M275.85,171.05c-3.28,1.82-25.38,27-29.69,28.33s-15.08,3.34-20.53,9.67c7.22-3.33,20.22,4.67,27.22,2.33s31.33-31.33,31.33-31.33S279.13,169.23,275.85,171.05Z" fill="#ffca8a"/><path id="torso_skin" d="M223,32.63H176.77l2.17,36.31s-6.56,15.94-8.56,19.94-37.84,19.78-44.07,25.36-12.85,71.68-3.39,93.91,87.17,17.27,94.07,7.78,8-45.3,2.64-57.42-32-46.17-32-46.17L223,87.72Z" fill="#ffca8a"/><path id="torso_shadow" d="M199.38,120.13c-.25-5.25,13.57-17.2,13.57-17.2l-21.82-49.8s-5.75,30.25-7.25,36.75c-10,3.5-22.5,20.75-22.5,20.75a54.08,54.08,0,0,0-20.5,0c30.5,10,34.24,36.75,31.24,56.25-4-15.75-29.24-15.75-31.24,0s5.5,46.38,46.37,46.38,21.38-85.13,18.88-88.63A12.77,12.77,0,0,0,199.38,120.13Z" fill="#dd7243"/><path id="shirt_torso" d="M206.13,124.63c2.75,5.5,4.92,21.84-4.25,22.25s-23.26-18.75-29-30.5c-3.5-3.75-28.44-12.59-39.08-6.93,42.85,2.73,51.16,31.93,46.49,61.27s-41.33,40-61.19,26.95c.62,14.64,10.86,34.71,11.19,41.05s10,23-12.1,43.66c23.22,15.34,61.43,18.67,100.77,4,0,0-9.33-28.66-11.33-36.66s20.69-49.25,21.41-67.84S217.13,142.38,206.13,124.63Z" fill="#ffe8ae"/><path id="shirt_abs_shadow" d="M209.51,249.38c-4.15-8.5,9.15-55.5,6.55-67.5s-49.4,22.61-60.85,26S150.56,294,150.56,294c22.55,6.2,65.1-3.58,68.4-7.58S213.66,257.88,209.51,249.38Z" fill="#bca675"/><path id="arm_right" d="M228.08,158.63c-16.2,10-27.7,32.5-33.7,39.75s-24.76,11.75-30.5,19.25c5-18.75,4.24-30.25,2.24-43.25s-9.24-21.25-6.74-25.75-16.76-40.75-27-37.5c-11.31,3.59-20.5,19.25-22.5,24s3.5,25.75,5.74,29.25-2,16.5.76,25.25,12.74,36,16,40.75,10,29.5,14.74,34.25,11.5,12,23.5,5.5,30-28.25,37.51-41,36.85-50.75,40.3-54.5Z" fill="#ffca8a"/><path id="face_shadow" d="M249.27,82.94a39.7,39.7,0,1,0-56.73-3c-.27,8.09,1.21,17.72,6.42,22.23,8.67,7.5,20.67,13.16,23.38,11.83s19.79-16.5,19.79-16.5c3.33.17,8-1.67,8.83-2.17s-1.83-6.83-2-9.66A9.64,9.64,0,0,1,249.27,82.94Z" fill="#dd7243"/><path id="face" d="M248.32,84.17a36.54,36.54,0,1,0-52.13-4c-.43,7.43.7,16.33,5.4,20.6,7.8,7.09,18.71,12.58,21.24,11.41s18.58-14.73,18.58-14.73a20,20,0,0,0,8.18-1.79c.78-.44-1.53-6.33-1.62-8.94A8.92,8.92,0,0,1,248.32,84.17Z" fill="#ffca8a"/><path id="face_nose_shadow" d="M247.88,91.13c-1.2-.75-10.13,3.41-9.25,4.13,2.12,1.75,10.84,1.4,11,.4S249.07,91.89,247.88,91.13Z" fill="#dd7243"/><path id="face_toplip_shadow" d="M237.13,98.63s-5.5,1.17-8.09.59a11.83,11.83,0,0,0,5.51,1,29.54,29.54,0,0,1,2.78,1.56s2.71-1.21,2.72-2.38S237.71,99.22,237.13,98.63Z" fill="#dd7243"/><path id="face_chin_shadow" d="M233.75,103.83c-.44-.7-4.31-1.39-5.31-.45s.45,3.22,1.51,3.53S234.18,104.52,233.75,103.83Z" fill="#dd7243"/><path id="face_eye_shadow_right" d="M253.64,70.24c-1.08-1.41-13.59-1-17.16,4.17-1.33,1.92,8.5,8.42,10,7.25S254.73,71.66,253.64,70.24Z" fill="#dd7243"/><path id="shoulder_shadow_right" d="M128.5,160.26c-.88-2.38-11.39-22-15.62-20.88-3.38.88-2.38,7.7-1.21,13s5.45,12.36,4.47,19.08,2,6.4,4.55,6S129.38,162.63,128.5,160.26Z" fill="#dd7243"/><path id="forearm_shadow_right" d="M237.38,175.13c-2.5,0-3.22,5.94-6,10.44s-33.53,47.31-38.53,55.06-13.5,13.25-20,13.75-12.36-7.81-21.26-2.75c-3.59,2.05,2.7,17,7,19s26.16-7.75,35.41-19.5,36.51-55.89,39.76-57.89,8.14-7.67,9.14-9.92S239.88,175.13,237.38,175.13Z" fill="#dd7243"/><path id="glove_right" d="M246.67,133.48c-2.7,2-19.8,18.75-23,28.75,3.47.69,16.75,11.75,17.38,17.75,0,0,4.87,3,8.35,1,1.48,1,7.27.5,12-2.25s13.75-15,13.25-20S255.62,135,246.67,133.48Z" fill="#203f4f"/><path id="shoe_rim_left" d="M331.08,607.05h-49l3-28.67,43.2-3.24Z" fill="#1c1c1c"/><path id="shoe_left" d="M364.75,659.05c-4.33-4.33-25.67-5.67-31.67-6-1.66-8.33-10.9-28.82-10.78-29.77s3-24.24,3-24.24l-37.92,6s2.66,16,1.66,23-6.33,14.33-8.33,23.67,0,30.66,0,30.66h27.33s.34-5.66,7.34-6,12,6,15.66,6h37.34S369.08,663.38,364.75,659.05Z" fill="#1c1c1c"/><path id="face_shadow_right" d="M261.19,40.88c0-5.42-12-21.78-19.57-19.4-1.43.45-3.18,1.95-5.08,4.16-9.09,4.09-22.14,13.93-26.85,21.67-5.38,8.83-8.3,30.7-12.88,34.67s-14.5,7-14.5,7,11.75-.93,16.63-5.09a13,13,0,0,0,2.42-3.16c-1.55,5.48-2.61,10-3.15,12.37C194.74,96,190.83,99,186.36,102c0,0,20.31-8.73,27.33-15,3.4-3.07,9.21-10.66,14.28-17.66,15.5-3.49,23.87-7.21,25.55-9a11.06,11.06,0,0,0,1.89-3.7c4.61-1.41,8-2.76,8.19-3.47C264,52,263.17,46.35,261.19,40.88ZM232.5,64.48l-1.54.68c.85-1.2,1.66-2.34,2.4-3.4l.92-.58c1.85-.2,3.9-.5,6-.89C237.61,61.88,234.91,63.36,232.5,64.48Z" fill="#dd7243"/><path id="hair_back_Zz0" d="M258.78,20.93c-2-6.55-29.2-18.38-35.16-20.54s-37.54,5.5-40.35,5.83-7.52,9.17-9,12.21-4.5,42.79-4,47.46,0,6.5,8.7,8.85l9.34-13.19s7.79,8.5,12.12,10.17S260.75,27.48,258.78,20.93Z" fill="url(#linear-gradient-16)"/><path id="hair_side6_right_Zz45" d="M231.55,60.55c-10,4.61-25.64,8.67-25.64,8.67,29.17-4.17,44.34-10.33,46.67-12.83s3.67-11.17,3.67-11.17S241.53,55.94,231.55,60.55Z" fill="url(#linear-gradient-17)"/><path id="hair_side5_right_Zz-135" d="M254.38,27.39c-7.53-6-35.18,29.69-25.68,30.08s33.34-6.32,33.95-8.25S260.55,32.3,254.38,27.39Z" fill="url(#linear-gradient-18)"/><path id="hair_side4_right_Zz-134" d="M229.66,43.39c-11.75,24.33-19.25,37.66-44.25,54.71,0,0,20.32-8.73,27.34-15S237,51.22,237,51.22Z" fill="url(#linear-gradient-19)"/><path id="hair_side3_right_Zz45" d="M208.75,43.39c-5.38,8.83-8.3,30.69-12.88,34.66s-14.5,7-14.5,7S193.12,84.17,198,80s10.51-24.67,18.06-33.54,22.1-17.13,22.1-17.13l1-9C230.37,23,214.12,34.55,208.75,43.39Z" fill="url(#linear-gradient-20)"/><path id="hair_side2_right_Zz-135" d="M240.67,17.55C231.49,20.43,209,67,218.27,65s42-26,42-28C260.26,31.55,248.26,15.18,240.67,17.55Z" fill="url(#linear-gradient-21)"/><path id="hair_side_right_Zz45" d="M247.66,22.47c-5.86-2.2-30.91,13.37-38.66,30.25s-12.13,38.35-12.13,38.35,23.79-17.23,31.83-33.6,24.53-25,24.53-25S251.33,23.84,247.66,22.47Z" fill="url(#linear-gradient-22)"/><path id="hair_top_Zz0" d="M221.16,2.22c-3.5-.34-42.12,7.79-38.51,7.83,16.16.17,24.85,10.29,24.85,10.29s23.66-8,37.56-6.25C245.06,14.09,224.66,2.55,221.16,2.22Z" fill="url(#linear-gradient-23)"/><path id="brow_right" d="M256.29,71.63c-.66-.25-10.5-7.38-11.75-7.46s-6.89,1.71-6.89,1.71A26.73,26.73,0,0,1,243.13,67c1.58.55,9.41,6.66,10.75,6.75S257,71.88,256.29,71.63Z" fill="#1c1c1c"/><path id="cheek_highlight_right" d="M222.33,77.05c-1.16.07-1.29,5.5-.61,6.63s8.66-4.91,9.19-5.65S224.29,76.94,222.33,77.05Z" fill="#fce7ca"/><path id="shoulder_highlight_right" d="M139.85,112.36c-2.55.72-11.57,4.33-10.57,5.06s13.92,4.92,14.3,3.17S141.37,111.93,139.85,112.36Z" fill="#fce7ca"/><path id="neck_highlight_right" d="M146,104.93c-1.52.8,7.64.95,9.44.64s12.83-11.19,13.2-12.15S147.39,104.21,146,104.93Z" fill="#fce7ca"/><path id="forearm_highlight_right" d="M191.41,203.88c-10.25,5.75-29.57,18.45-32.82,23-2.33,3.25,9.82,4.25,15,4.5S201.66,198.13,191.41,203.88Z" fill="#fce7ca"/><path id="glove_shadow_right" d="M274.66,159.23c-3.83-4.49-11.33,0-16.66,6s-15.17,11.05-13.26,13.9c3.41,5.07,14.09,1.43,19,0S278.5,163.72,274.66,159.23Z" fill="#1c1c1c"/><path id="glove_shadow_left" d="M299.81,146s-14.17,8.33-16.67,10.84-8.07,12.78-8.07,12.78c-7.73,10.12,6.57,26.54,11.49,26.76s22.75-8.88,30.08-14.22S299.81,146,299.81,146Z" fill="#1c1c1c"/><path id="index_left" d="M311.51,148c-.66-1.76-5.24-6.76-8-5.93s-4.79,5.93-4.79,5.93-5,11.65-2.67,13.86,6.37-.45,8.5-1.19S312.16,149.81,311.51,148Z" fill="#ffca8a"/><path id="middle_left" d="M313.89,147.74c-2.63.2-5.37,4.32-5.37,4.32s-6.63,9.35-5,11.74,5.71.82,7.73.56,8.84-8.17,8.59-9.85S316.52,147.53,313.89,147.74Z" fill="#ffca8a"/><path id="ring_left" d="M317.36,156.43c-2.63.2-5.37,4.32-5.37,4.32s-6.64,9.35-5,11.74,5.71.82,7.74.56,8.83-8.17,8.59-9.85S320,156.22,317.36,156.43Z" fill="#ffca8a"/><path id="pinky_left" d="M322.46,166c-1.94-1-5.71.65-5.71.65s-8.86,3.62-8.77,6,3.66,3.13,5.2,3.86,9.88-1.82,10.46-3.11S324.41,167,322.46,166Z" fill="#ffca8a"/><path id="palm_shadow_left" d="M296.9,157.87s3.07,11.34,1.24,13.31c-1,4.47,6.18,8.14,8.59,8s5.38-.27,7.7-2.48C324.29,167.29,298.12,149.43,296.9,157.87Z" fill="#dd7243"/><path id="thumb_left" d="M312,163.8c-2.8-.86-5.12-5.73-9-7-4.16-1.32-7.16.66-7.54,4.58s3.38,5.24,9.54,7S314.81,164.65,312,163.8Z" fill="#ffca8a"/><path id="arm_shadow_right" d="M118.19,186.05c3.33,24.18,20.38,51.61,20.38,51.61-.08-1.71,2.09-12.61,5.05-16.8C138.9,219.35,129.33,214.05,118.19,186.05Z" fill="#dd7243"/><path id="armpit_shadow_right" d="M159.05,153.66c.93-4.54,8.7-3.22,8.7,0s-.13,13.63-3.06,10S158.35,157.08,159.05,153.66Z" fill="#dd7243"/><path id="pants_shin_shadow_right" d="M125.33,531.05c.67,4.67,3.67,7.67,6.67,10.33s10-4.41,13.66-10.33S123.65,519.26,125.33,531.05Z" fill="#4c3f26"/><path id="pants_thigh_highlight_left" d="M309.75,439.64c-2.16,4.19-1.44,8.37-.53,12.28s10.75,2.2,17.12-.54S315.18,429,309.75,439.64Z" fill="#aa8b4d"/><path id="pants_calf_shadow_right" d="M83.25,529.83c-9.76-9.93-35,55.43-28.23,66.93,5,8.5,26-9,36.66-15.5S93,539.76,83.25,529.83Z" fill="#4c3f26"/><path id="shoe_right" d="M67.5,654.63c-2.25-2.25-12.75-7.75-19.75-7.75.5-9.75,19.75-31,19.75-31L29,600.63s-20,31.5-22.25,36S0,673.63,0,682.38H72.5S69.75,656.88,67.5,654.63Z" fill="#1c1c1c"/><path id="shoe_rim_right" d="M77.13,599.43C63.85,603.81,51.57,587.12,48.84,576c-1.24-5.06-19.76,13.38-28.09,23.38,1,15.67,27.67,34,43.58,31,0,0,13.42-25,15.09-27.66S77.13,599.43,77.13,599.43Z" fill="#1c1c1c"/><path id="pants_thigh_shadow_right" d="M106.6,326.38c-2.48,8.44-3.94,25.75-3.69,31s19.25-36.25,21.75-38.75S109.32,317.13,106.6,326.38Z" fill="#4c3f26"/><path id="shoe_highlight_right" d="M47.33,648.72c-6.67-1-28.75,4.63-26.58,10,1.75,4.33,40.25,0,44.25-1.34S54,649.72,47.33,648.72Z" fill="#203f4f"/><path id="eye_white_right" d="M247.29,74.21c-1.55-.85-6.81.39-6.61,1.18s.44,4.25,5.41,5.33C247.84,79,249.58,75.45,247.29,74.21Z" fill="#f9dacf"/><path id="eye_shadow_right" d="M248,73.11s-6.65.41-8.05,1.57l.65,2c1.56-.76,5.21-1.5,6.49-1.1S248,73.11,248,73.11Z" fill="#d1bbb4"/><path id="eye_lash_right" d="M250.08,73.17c-2.52-1.47-7.59-.24-9.65.94a4.51,4.51,0,0,1-2.78.44s3.58,5.91,8.6,6.18c-5.22-1.13-5.17-5-5.17-5a9.13,9.13,0,0,1,5.41-.79c2.85.36,3.32,1.14,3.4,1.35a5.59,5.59,0,0,0-1-2S248.75,73.71,250.08,73.17Z" fill="#1c1c1c"/><path id="eye_iris_right" d="M248.16,77.07c-.61,1.74-1.93,2.86-2.94,2.5s-1.33-2-.72-3.78,1.92-2.86,2.94-2.5S248.77,75.34,248.16,77.07Z" fill="#1c1c1c"/><path id="eye_reflection_right" d="M243.14,76.21c-1.51-.09-2.76.14-2.78.5s1.19.72,2.71.81,2.76-.15,2.78-.51S244.66,76.29,243.14,76.21Z" fill="#fcf7f5"/></g></g></svg>
